<svg width="24" height="24" viewBox="0 0 24 24" fill="none" xmlns="http://www.w3.org/2000/svg">
<path fill-rule="evenodd" clip-rule="evenodd" d="M3.09467 3.09467C4.42914 1.7602 6.42603 1.25 9 1.25H15C17.574 1.25 19.5709 1.7602 20.9053 3.09467C22.2398 4.42914 22.75 6.42603 22.75 9V15C22.75 17.574 22.2398 19.5709 20.9053 20.9053C19.5709 22.2398 17.574 22.75 15 22.75H13.9656C13.9548 22.7502 13.944 22.7502 13.9332 22.75H9C6.42603 22.75 4.42914 22.2398 3.09467 20.9053C1.7602 19.5709 1.25 17.574 1.25 15V9C1.25 6.42603 1.7602 4.42914 3.09467 3.09467ZM14.537 21.25H15C17.426 21.25 18.9291 20.7602 19.8447 19.8447C20.7602 18.9291 21.25 17.426 21.25 15V9C21.25 6.57397 20.7602 5.07086 19.8447 4.15533C18.9291 3.2398 17.426 2.75 15 2.75H9.95826L12.2506 12.0119C12.2561 12.0309 12.2608 12.0499 12.2647 12.0689L14.537 21.25ZM10.9892 13.159L12.9918 21.25H9C6.57397 21.25 5.07086 20.7602 4.15533 19.8447C3.31238 19.0017 2.83034 17.6607 2.7592 15.5598L10.9892 13.159ZM10.6285 11.7017L8.41549 2.76006C6.3288 2.83413 4.99496 3.3157 4.15533 4.15533C3.2398 5.07086 2.75 6.57397 2.75 9V14L10.6285 11.7017Z" fill="#595854"/>
</svg>
