<svg width="24" height="24" viewBox="0 0 24 24" fill="none" xmlns="http://www.w3.org/2000/svg">
<path fill-rule="evenodd" clip-rule="evenodd" d="M3.84467 2.84467C4.87925 1.81009 6.32956 1.25 8 1.25H12.93C14.4604 1.25 15.9207 1.86006 17.0003 2.93967L20.0703 6.00967C21.1407 7.08008 21.75 8.54075 21.75 10.07V17C21.75 18.6704 21.1899 20.1207 20.1553 21.1553C19.1207 22.1899 17.6704 22.75 16 22.75H8C6.32956 22.75 4.87925 22.1899 3.84467 21.1553C2.81009 20.1207 2.25 18.6704 2.25 17V7C2.25 5.32956 2.81009 3.87925 3.84467 2.84467ZM4.90533 3.90533C4.18991 4.62075 3.75 5.67044 3.75 7V17C3.75 18.3296 4.18991 19.3793 4.90533 20.0947C5.62075 20.8101 6.67044 21.25 8 21.25H16C17.3296 21.25 18.3793 20.8101 19.0947 20.0947C19.8101 19.3793 20.25 18.3296 20.25 17V10.07C20.25 8.93925 19.7993 7.85992 19.0097 7.07033L15.9397 4.00033C15.1393 3.19994 14.0596 2.75 12.93 2.75H8C6.67044 2.75 5.62075 3.18991 4.90533 3.90533ZM6.25 12.5C6.25 10.4358 7.93579 8.75 10 8.75H14C16.0642 8.75 17.75 10.4358 17.75 12.5V15.5C17.75 17.5642 16.0642 19.25 14 19.25H10C7.93579 19.25 6.25 17.5642 6.25 15.5V12.5ZM12.75 17.75H14C15.2358 17.75 16.25 16.7358 16.25 15.5V14.75H12.75V17.75ZM11.25 14.75V17.75H10C8.76421 17.75 7.75 16.7358 7.75 15.5V14.75H11.25ZM12.75 13.25H16.25V12.5C16.25 11.2642 15.2358 10.25 14 10.25H12.75V13.25ZM11.25 10.25V13.25H7.75V12.5C7.75 11.2642 8.76421 10.25 10 10.25H11.25Z" fill="#595854"/>
</svg>
