<svg width="24" height="24" viewBox="0 0 24 24" fill="none" xmlns="http://www.w3.org/2000/svg">
<path fill-rule="evenodd" clip-rule="evenodd" d="M3.75 2C3.75 1.58579 4.08579 1.25 4.5 1.25H19.5C19.9142 1.25 20.25 1.58579 20.25 2C20.25 2.41421 19.9142 2.75 19.5 2.75H4.5C4.08579 2.75 3.75 2.41421 3.75 2ZM7.5 5.75C6.89105 5.75 6.38302 5.77004 5.94607 5.83246C5.93813 5.8336 5.93017 5.8346 5.9222 5.83548C4.70657 5.96953 4.13894 6.29944 3.81013 6.79874C3.43687 7.36555 3.25 8.31741 3.25 10V14C3.25 15.6826 3.43687 16.6345 3.81013 17.2013C4.13894 17.7006 4.70657 18.0305 5.9222 18.1645C5.93017 18.1654 5.93813 18.1664 5.94607 18.1675C6.38302 18.23 6.89105 18.25 7.5 18.25H16.5C17.109 18.25 17.617 18.23 18.0539 18.1675C18.0619 18.1664 18.0698 18.1654 18.0778 18.1645C19.2934 18.0305 19.8611 17.7006 20.1899 17.2013C20.5631 16.6345 20.75 15.6826 20.75 14V10C20.75 8.31741 20.5631 7.36555 20.1899 6.79874C19.8611 6.29944 19.2934 5.96953 18.0778 5.83548C18.0698 5.8346 18.0619 5.8336 18.0539 5.83246C17.617 5.77004 17.109 5.75 16.5 5.75H7.5ZM5.74594 4.34583C6.2857 4.26967 6.8736 4.25 7.5 4.25H16.5C17.1264 4.25 17.7143 4.26967 18.2541 4.34583C19.6627 4.50291 20.7609 4.93847 21.4426 5.97376C22.0819 6.94445 22.25 8.30259 22.25 10V14C22.25 15.6974 22.0819 17.0555 21.4426 18.0262C20.7609 19.0615 19.6627 19.4971 18.2541 19.6542C17.7143 19.7303 17.1264 19.75 16.5 19.75H7.5C6.8736 19.75 6.28569 19.7303 5.74593 19.6542C4.33727 19.4971 3.23915 19.0615 2.55737 18.0262C1.91813 17.0555 1.75 15.6974 1.75 14V10C1.75 8.30259 1.91813 6.94445 2.55737 5.97376C3.23915 4.93847 4.33727 4.50291 5.74594 4.34583ZM4.25 22C4.25 21.5858 4.58579 21.25 5 21.25H20C20.4142 21.25 20.75 21.5858 20.75 22C20.75 22.4142 20.4142 22.75 20 22.75H5C4.58579 22.75 4.25 22.4142 4.25 22Z" fill="#595854"/>
</svg>
