<svg width="24" height="24" viewBox="0 0 24 24" fill="none" xmlns="http://www.w3.org/2000/svg">
<path fill-rule="evenodd" clip-rule="evenodd" d="M13.1966 3.07041C12.4462 2.64226 11.5314 2.64443 10.795 3.06953L4.85775 6.49794C4.11583 6.93499 3.66003 7.72968 3.66003 8.58003V15.42C3.66003 16.2836 4.11841 17.0753 4.85502 17.5005L10.7921 20.9289C10.7926 20.9291 10.7931 20.9294 10.7936 20.9297C11.5439 21.3578 12.4587 21.3556 13.195 20.9305C13.195 20.9306 13.195 20.9305 13.195 20.9305L19.1301 17.5034C19.1308 17.503 19.1316 17.5025 19.1324 17.5021C19.8743 17.065 20.33 16.2703 20.33 15.42V8.58003C20.33 7.721 19.8754 6.93563 19.1323 6.49794C19.1316 6.4975 19.1308 6.49706 19.1301 6.49661L13.1979 3.07118C13.1975 3.07092 13.197 3.07066 13.1966 3.07041ZM10.045 1.77047C11.2483 1.07583 12.7328 1.07774 13.9421 1.76882L13.9451 1.7705L19.89 5.20335C21.0856 5.90592 21.83 7.17994 21.83 8.58003V15.42C21.83 16.8088 21.0868 18.0934 19.89 18.7967L19.8851 18.7996L13.9451 22.2295C12.7419 22.9242 11.2573 22.9223 10.0479 22.2312L10.045 22.2295L4.10505 18.7996C2.90165 18.1048 2.16003 16.8164 2.16003 15.42V8.58003C2.16003 7.19125 2.90332 5.90661 4.10006 5.20337L4.10498 5.20048L10.045 1.77047ZM12 7.09003C11.1274 7.09003 10.42 7.79739 10.42 8.66998C10.42 9.5426 11.1274 10.25 12 10.25C12.8726 10.25 13.58 9.5426 13.58 8.66998C13.58 7.79739 12.8727 7.09003 12 7.09003ZM8.92003 8.66998C8.92003 6.96893 10.299 5.59003 12 5.59003C13.7011 5.59003 15.08 6.96893 15.08 8.66998C15.08 10.371 13.7011 11.75 12 11.75C10.299 11.75 8.92003 10.371 8.92003 8.66998ZM7.25003 16.66C7.25003 14.3098 9.52635 12.65 12 12.65C14.4737 12.65 16.75 14.3098 16.75 16.66C16.75 17.0742 16.4142 17.41 16 17.41C15.5858 17.41 15.25 17.0742 15.25 16.66C15.25 15.4102 13.9463 14.15 12 14.15C10.0537 14.15 8.75003 15.4102 8.75003 16.66C8.75003 17.0742 8.41425 17.41 8.00003 17.41C7.58582 17.41 7.25003 17.0742 7.25003 16.66Z" fill="#595854"/>
</svg>
