<svg width="24" height="24" viewBox="0 0 24 24" fill="none" xmlns="http://www.w3.org/2000/svg">
<path fill-rule="evenodd" clip-rule="evenodd" d="M4.15533 4.15533C3.2398 5.07086 2.75 6.57397 2.75 9V15C2.75 17.426 3.2398 18.9291 4.15533 19.8447C5.07086 20.7602 6.57397 21.25 9 21.25H15C17.426 21.25 18.9291 20.7602 19.8447 19.8447C20.7602 18.9291 21.25 17.426 21.25 15V9C21.25 6.57397 20.7602 5.07086 19.8447 4.15533C18.9291 3.2398 17.426 2.75 15 2.75H9C6.57397 2.75 5.07086 3.2398 4.15533 4.15533ZM3.09467 3.09467C4.42914 1.7602 6.42603 1.25 9 1.25H15C17.574 1.25 19.5709 1.7602 20.9053 3.09467C22.2398 4.42914 22.75 6.42603 22.75 9V15C22.75 17.574 22.2398 19.5709 20.9053 20.9053C19.5709 22.2398 17.574 22.75 15 22.75H9C6.42603 22.75 4.42914 22.2398 3.09467 20.9053C1.7602 19.5709 1.25 17.574 1.25 15V9C1.25 6.42603 1.7602 4.42914 3.09467 3.09467ZM10.1961 7.25001C10.4926 7.24846 10.7622 7.42179 10.8839 7.69223L14.4839 15.6922C14.6539 16.07 14.4855 16.514 14.1078 16.6839C13.73 16.8539 13.286 16.6855 13.1161 16.3078L12.1001 14.05H8.37177L7.38712 16.3006C7.22109 16.6801 6.77887 16.8531 6.39939 16.6871C6.0199 16.5211 5.84686 16.0789 6.01288 15.6994L9.51288 7.69939C9.63175 7.4277 9.89954 7.25156 10.1961 7.25001ZM9.02802 12.55H11.4251L10.2097 9.8491L9.02802 12.55ZM16.3 9.95C16.7142 9.95 17.05 10.2858 17.05 10.7V16C17.05 16.4142 16.7142 16.75 16.3 16.75C15.8858 16.75 15.55 16.4142 15.55 16V10.7C15.55 10.2858 15.8858 9.95 16.3 9.95Z" fill="#595854"/>
</svg>
