<svg width="24" height="24" viewBox="0 0 24 24" fill="none" xmlns="http://www.w3.org/2000/svg">
<path fill-rule="evenodd" clip-rule="evenodd" d="M3.33033 3.33033C2.96884 3.69182 2.75 4.39464 2.75 6V11.15H11.27V10.59C11.27 9.47928 11.4444 8.49991 12.1122 7.83218C12.7799 7.16445 13.7592 6.98999 14.87 6.98999H19.15C19.1835 6.98999 19.2169 6.9902 19.25 6.99062V6C19.25 4.39464 19.0312 3.69182 18.6697 3.33033C18.3082 2.96884 17.6054 2.75 16 2.75H6C4.39464 2.75 3.69182 2.96884 3.33033 3.33033ZM19.9075 8.53426C19.6862 8.50783 19.4272 8.48999 19.15 8.48999H14.87C13.8407 8.48999 13.3951 8.67055 13.1728 8.89283C12.9505 9.11512 12.77 9.56077 12.77 10.59V19.15C12.77 20.1793 12.9505 20.6249 13.1728 20.8472C13.3951 21.0695 13.8407 21.25 14.87 21.25H19.15C20.1793 21.25 20.6249 21.0695 20.8472 20.8472C21.0694 20.6249 21.25 20.1793 21.25 19.15V10.59C21.25 9.71601 21.1193 9.25907 20.9417 9.0067C20.7932 8.79576 20.5297 8.61461 19.9075 8.53426ZM11.27 14.95V12.65H2.78214C2.8553 13.6034 3.04988 14.0892 3.33033 14.3697C3.69182 14.7312 4.39464 14.95 6 14.95H11.27ZM9.75 16.45H11.27V19.15C11.27 19.1835 11.2701 19.2168 11.2705 19.25H9.75V16.45ZM8.25 16.45H6C4.40536 16.45 3.10818 16.2688 2.26967 15.4303C1.47523 14.6359 1.27086 13.4297 1.25157 11.949C1.25053 11.9328 1.25 11.9165 1.25 11.9C1.25 11.8891 1.25023 11.8782 1.2507 11.8674C1.25022 11.812 1.25 11.7562 1.25 11.7V6C1.25 4.40536 1.43116 3.10818 2.26967 2.26967C3.10818 1.43116 4.40536 1.25 6 1.25H16C17.5946 1.25 18.8918 1.43116 19.7303 2.26967C20.5688 3.10818 20.75 4.40536 20.75 6V7.17828C21.3244 7.34423 21.815 7.64133 22.1683 8.14331C22.6207 8.78596 22.75 9.63405 22.75 10.59V19.15C22.75 20.2608 22.5756 21.2401 21.9078 21.9078C21.2401 22.5756 20.2607 22.75 19.15 22.75H14.87C13.7593 22.75 12.7799 22.5756 12.1122 21.9078C11.7914 21.5871 11.5845 21.1945 11.4561 20.75H5.95001C5.5358 20.75 5.20001 20.4142 5.20001 20C5.20001 19.5858 5.5358 19.25 5.95001 19.25H8.25V16.45ZM17.01 11.34C16.8332 11.34 16.69 11.4833 16.69 11.66C16.69 11.8367 16.8333 11.98 17.01 11.98C17.1867 11.98 17.33 11.8367 17.33 11.66C17.33 11.4833 17.1868 11.34 17.01 11.34ZM15.19 11.66C15.19 10.6548 16.0049 9.84003 17.01 9.84003C18.0151 9.84003 18.83 10.6548 18.83 11.66C18.83 12.6651 18.0152 13.48 17.01 13.48C16.0049 13.48 15.19 12.6651 15.19 11.66ZM17.01 15.62C16.5656 15.62 16.1687 15.8317 15.9119 16.1607C15.7301 16.3944 15.62 16.6936 15.62 17.01C15.62 17.7758 16.2442 18.4 17.01 18.4C17.7758 18.4 18.4 17.7758 18.4 17.01C18.4 16.603 18.2163 16.2232 17.9155 15.954C17.6762 15.7485 17.3601 15.62 17.01 15.62ZM14.7286 15.2387C15.2518 14.568 16.0747 14.12 17.01 14.12C17.7381 14.12 18.4004 14.3901 18.9006 14.8227L18.9083 14.8294C19.5053 15.36 19.9 16.1388 19.9 17.01C19.9 18.6042 18.6042 19.9 17.01 19.9C15.4158 19.9 14.12 18.6042 14.12 17.01C14.12 16.3465 14.3498 15.7258 14.728 15.2396L14.7286 15.2387Z" fill="#595854"/>
</svg>
