<svg width="24" height="24" viewBox="0 0 24 24" fill="none" xmlns="http://www.w3.org/2000/svg">
<path fill-rule="evenodd" clip-rule="evenodd" d="M6.24124 2.75C4.88029 2.75 3.84052 3.79158 3.84052 5C3.84052 6.20842 4.88029 7.25 6.24124 7.25C7.60218 7.25 8.64195 6.20842 8.64195 5C8.64195 3.79158 7.60218 2.75 6.24124 2.75ZM2.34052 5C2.34052 2.89471 4.122 1.25 6.24124 1.25C8.36047 1.25 10.142 2.89471 10.142 5C10.142 7.10529 8.36047 8.75 6.24124 8.75C4.122 8.75 2.34052 7.10529 2.34052 5ZM19.087 9.3424C18.4758 7.98104 17.4972 7.03555 16.2694 6.97588L19.087 9.3424ZM19.087 9.3424L22.3743 16.6524C23.6916 19.5915 21.4082 22.75 18.193 22.75H4.7919C1.47679 22.75 -0.816601 19.3753 0.7465 16.4206C0.746771 16.4201 0.747042 16.4196 0.747314 16.419L2.55211 12.9721L2.55331 12.9698C3.13075 11.8761 4.04672 11.1675 5.11987 11.0576C6.19214 10.9479 7.2369 11.4547 8.03484 12.4089L8.038 12.4126L8.26682 12.6899C8.79474 13.3171 9.36756 13.5244 9.83695 13.4873C10.3051 13.4503 10.8277 13.1578 11.233 12.4624L13.2178 9.05269C13.9716 7.75957 15.044 6.91634 16.2694 6.97588M14.5142 9.80731C15.136 8.74078 15.7757 8.45367 16.1965 8.47412C16.6148 8.49444 17.2167 8.83875 17.7188 9.95714L21.0059 17.2668C21.831 19.1077 20.439 21.25 18.193 21.25H4.7919C2.47831 21.25 1.09608 18.9659 2.07295 17.121L2.07456 17.1179L3.87978 13.6702C3.87997 13.6698 3.88016 13.6694 3.88035 13.6691C4.27956 12.9136 4.80739 12.5975 5.27262 12.5499C5.73853 12.5022 6.32624 12.7049 6.88267 13.3693L7.11209 13.6474L7.11634 13.6525C7.89016 14.5735 8.90759 15.0655 9.95519 14.9827C11.0047 14.8997 11.9261 14.2522 12.529 13.2176L14.5142 9.80731Z" fill="#595854"/>
</svg>
