<svg width="24" height="24" viewBox="0 0 24 24" fill="none" xmlns="http://www.w3.org/2000/svg">
<path fill-rule="evenodd" clip-rule="evenodd" d="M7.25998 2.75C6.62079 2.75 6.08018 2.77003 5.61004 2.83332L5.59339 2.83537C4.30662 2.97938 3.69351 3.3295 3.3372 3.86939C2.93683 4.47604 2.73999 5.48763 2.73999 7.26001V13.58C2.73999 15.3524 2.93683 16.364 3.3372 16.9706C3.69351 17.5105 4.30662 17.8606 5.59339 18.0047L5.61004 18.0067C6.08018 18.07 6.62079 18.09 7.25998 18.09H16.73C17.3789 18.09 17.9096 18.07 18.3799 18.0067L18.3966 18.0047C19.6833 17.8606 20.2965 17.5105 20.6528 16.9706C21.0531 16.364 21.25 15.3524 21.25 13.58V7.26001C21.25 5.48763 21.0531 4.47604 20.6528 3.86939C20.2965 3.3295 19.6833 2.97938 18.3966 2.83537L18.3799 2.83332C17.9098 2.77003 17.3692 2.75 16.73 2.75H7.25998ZM5.41828 1.34561C5.98584 1.26982 6.6024 1.25 7.25998 1.25H16.73C17.3876 1.25 18.0041 1.26982 18.5717 1.34561C20.0509 1.51237 21.1948 1.96756 21.9047 3.04315C22.5718 4.05399 22.75 5.47239 22.75 7.26001V13.58C22.75 15.3676 22.5718 16.786 21.9047 17.7969C21.1948 18.8725 20.0509 19.3276 18.5717 19.4944C18.0044 19.5702 17.3978 19.59 16.73 19.59H7.25998C6.60238 19.59 5.9858 19.5702 5.41823 19.4944C3.93904 19.3276 2.79512 18.8725 2.08527 17.7969C1.41814 16.786 1.23999 15.3676 1.23999 13.58V7.26001C1.23999 5.47239 1.41814 4.05399 2.08527 3.04315C2.79513 1.96755 3.93907 1.51237 5.41828 1.34561ZM6.44469 8.3C6.44469 7.88579 6.78047 7.55 7.19469 7.55H7.20367C7.61788 7.55 7.95367 7.88579 7.95367 8.3C7.95367 8.71422 7.61788 9.05 7.20367 9.05H7.19469C6.78047 9.05 6.44469 8.71422 6.44469 8.3ZM9.74449 8.3C9.74449 7.88579 10.0803 7.55 10.4945 7.55H10.5035C10.9177 7.55 11.2535 7.88579 11.2535 8.3C11.2535 8.71422 10.9177 9.05 10.5035 9.05H10.4945C10.0803 9.05 9.74449 8.71422 9.74449 8.3ZM12.83 8.32001C12.83 7.90579 13.1658 7.57001 13.58 7.57001H17.26C17.6742 7.57001 18.01 7.90579 18.01 8.32001C18.01 8.73422 17.6742 9.07001 17.26 9.07001H13.58C13.1658 9.07001 12.83 8.73422 12.83 8.32001ZM5.98999 14.11C5.98999 13.6958 6.32578 13.36 6.73999 13.36H17.27C17.6842 13.36 18.02 13.6958 18.02 14.11C18.02 14.5242 17.6842 14.86 17.27 14.86H6.73999C6.32578 14.86 5.98999 14.5242 5.98999 14.11ZM6.24998 22C6.24998 21.5858 6.58577 21.25 6.99998 21.25H17C17.4142 21.25 17.75 21.5858 17.75 22C17.75 22.4142 17.4142 22.75 17 22.75H6.99998C6.58577 22.75 6.24998 22.4142 6.24998 22Z" fill="#595854"/>
</svg>
