<svg width="24" height="24" viewBox="0 0 24 24" fill="none" xmlns="http://www.w3.org/2000/svg">
<path fill-rule="evenodd" clip-rule="evenodd" d="M9.00003 2.75C5.54424 2.75 2.75003 5.54421 2.75003 9C2.75003 12.169 5.10643 14.7848 8.16759 15.1864C8.17619 15.1875 8.18477 15.1888 8.19333 15.1902C8.44318 15.2318 8.71056 15.25 9.00003 15.25C12.4558 15.25 15.25 12.4558 15.25 9C15.25 8.71054 15.2319 8.44315 15.1902 8.1933C15.1888 8.18474 15.1875 8.17616 15.1864 8.16756C14.7848 5.1064 12.169 2.75 9.00003 2.75ZM1.25003 9C1.25003 4.71579 4.71582 1.25 9.00003 1.25C12.738 1.25 15.855 3.89353 16.5806 7.41941C20.1065 8.14502 22.75 11.262 22.75 15C22.75 19.2842 19.2842 22.75 15 22.75C11.2621 22.75 8.14506 20.1065 7.41944 16.5806C3.89356 15.855 1.25003 12.738 1.25003 9ZM9.00522 16.75C9.52983 16.7497 10.0421 16.6973 10.5373 16.5979L11.4697 17.5303C11.7626 17.8232 12.2375 17.8232 12.5304 17.5303C12.8233 17.2374 12.8233 16.7626 12.5304 16.4697L12.1466 16.086C12.7985 15.7965 13.4028 15.4197 13.9448 14.9705L14.9338 15.9444C15.2289 16.235 15.7038 16.2314 15.9944 15.9362C16.2851 15.6411 16.2814 15.1662 15.9863 14.8756L15.0021 13.9065C15.4374 13.3743 15.8033 12.7831 16.086 12.1466L16.4697 12.5303C16.7626 12.8232 17.2375 12.8232 17.5304 12.5303C17.8233 12.2374 17.8233 11.7626 17.5304 11.4697L16.598 10.5373C16.6974 10.0421 16.7497 9.5298 16.75 9.00519C19.3521 9.75743 21.25 12.1559 21.25 15C21.25 18.4558 18.4558 21.25 15 21.25C12.1559 21.25 9.75746 19.352 9.00522 16.75Z" fill="#595854"/>
</svg>
