<svg width="24" height="24" viewBox="0 0 24 24" fill="none" xmlns="http://www.w3.org/2000/svg">
<path fill-rule="evenodd" clip-rule="evenodd" d="M3.82019 5.74085C3.90206 6.59953 4.25334 7.73209 4.95057 9.12413L5.8208 10.8646C5.88201 10.987 5.93013 11.117 5.96688 11.25H10.84C11.2542 11.25 11.59 11.5858 11.59 12C11.59 12.4142 11.2542 12.75 10.84 12.75H5.96961C5.93253 12.8865 5.88355 13.0199 5.8208 13.1454L5.82002 13.147L4.95057 14.8759C4.95046 14.8761 4.95068 14.8757 4.95057 14.8759C4.25348 16.2678 3.90129 17.401 3.81873 18.2598C3.73583 19.122 3.92951 19.6048 4.18566 19.8613C4.44173 20.1177 4.92414 20.312 5.78664 20.2298C6.64592 20.1479 7.77986 19.7965 9.17457 19.0992L17.7346 14.8192C19.5458 13.9136 20.2 12.8485 20.2 12C20.2 11.1515 19.5458 10.0864 17.7346 9.18083L9.17457 4.90083C7.78254 4.2036 6.6495 3.85209 5.79082 3.77021C4.92901 3.68804 4.44592 3.88222 4.18906 4.13909C3.9322 4.39595 3.73801 4.87903 3.82019 5.74085ZM9.84565 3.55932C8.36277 2.81661 7.04416 2.38292 5.9332 2.27699C4.82533 2.17135 3.82029 2.38654 3.1284 3.07843C2.43651 3.77031 2.22132 4.77536 2.32696 5.88323C2.43289 6.99412 2.86653 8.31264 3.60916 9.79542L4.47916 11.5354C4.5226 11.6223 4.56498 11.7915 4.56498 12.005C4.56498 12.218 4.52279 12.3869 4.47946 12.474C4.47936 12.4742 4.47956 12.4738 4.47946 12.474L3.60939 14.2041C2.8667 15.6869 2.43241 17.0054 2.32561 18.1162C2.21913 19.2237 2.43295 20.229 3.1243 20.9212C3.81573 21.6136 4.82082 21.8286 5.92895 21.723C7.04029 21.6171 8.3601 21.1835 9.84539 20.4408L18.4054 16.1608C20.4342 15.1464 21.7 13.6815 21.7 12C21.7 10.3185 20.4342 8.85357 18.4054 7.83919L9.84565 3.55932C9.84572 3.55935 9.84558 3.55928 9.84565 3.55932Z" fill="#595854"/>
</svg>
