<svg width="24" height="24" viewBox="0 0 24 24" fill="none" xmlns="http://www.w3.org/2000/svg">
<path fill-rule="evenodd" clip-rule="evenodd" d="M17.3969 6.15402C16.9502 4.20431 15.9064 2.84032 14.5603 2.05111C13.1147 1.20362 11.3925 1.06091 9.84243 1.46698C8.29233 1.87306 6.86037 2.84205 6.01308 4.28919C5.27282 5.55352 5.01067 7.12887 5.44429 8.90391C1.31844 9.99087 1.63817 16.4147 6.31668 16.7481C6.33442 16.7494 6.3522 16.75 6.36998 16.75H11.25V18.3535C10.3341 18.6126 9.61253 19.3342 9.3535 20.25H5.99998C5.58577 20.25 5.24998 20.5858 5.24998 21C5.24998 21.4142 5.58577 21.75 5.99998 21.75H9.3535C9.67996 22.9043 10.7412 23.75 12 23.75C13.2588 23.75 14.32 22.9043 14.6465 21.75H18C18.4142 21.75 18.75 21.4142 18.75 21C18.75 20.5858 18.4142 20.25 18 20.25H14.6465C14.3874 19.3342 13.6658 18.6126 12.75 18.3535V16.75H16.0269C17.3863 16.7608 18.694 16.2502 19.6989 15.3401C22.8999 12.5345 21.4023 7.09964 17.3969 6.15402ZM6.39688 10.2601C6.48533 10.2617 6.57555 10.2475 6.66374 10.2158C7.05353 10.0756 7.2559 9.64605 7.11576 9.25626C6.48548 7.50323 6.69716 6.08957 7.30753 5.04708C7.92837 3.98671 9.00515 3.23694 10.2226 2.91802C11.44 2.59909 12.7441 2.72512 13.8016 3.34512C14.8412 3.95461 15.7151 5.08349 16.0201 6.9227C16.0743 7.24957 16.3366 7.50213 16.6653 7.54398C19.796 7.94258 21.0776 12.1426 18.7064 14.2154L18.6958 14.2248C17.9622 14.8909 17.0134 15.2584 16.0364 15.25L6.39803 15.25C3.27862 15.0036 3.29302 10.5059 6.39688 10.2601ZM12 19.75C11.3096 19.75 10.75 20.3097 10.75 21C10.75 21.6904 11.3096 22.25 12 22.25C12.6903 22.25 13.25 21.6904 13.25 21C13.25 20.3097 12.6903 19.75 12 19.75Z" fill="#595854"/>
</svg>
