<svg width="24" height="24" viewBox="0 0 24 24" fill="none" xmlns="http://www.w3.org/2000/svg">
<path fill-rule="evenodd" clip-rule="evenodd" d="M3.09467 3.09467C4.42914 1.7602 6.42603 1.25 9 1.25H15C17.574 1.25 19.5709 1.7602 20.9053 3.09467C22.2398 4.42914 22.75 6.42603 22.75 9V15C22.75 17.574 22.2398 19.5709 20.9053 20.9053C19.5709 22.2398 17.574 22.75 15 22.75H9C6.42603 22.75 4.42914 22.2398 3.09467 20.9053C1.7602 19.5709 1.25 17.574 1.25 15V9C1.25 6.42603 1.7602 4.42914 3.09467 3.09467ZM4.15533 4.15533C3.2398 5.07086 2.75 6.57397 2.75 9V15C2.75 17.426 3.2398 18.9291 4.15533 19.8447C5.07086 20.7602 6.57397 21.25 9 21.25H15C17.426 21.25 18.9291 20.7602 19.8447 19.8447C20.7602 18.9291 21.25 17.426 21.25 15V9C21.25 6.57397 20.7602 5.07086 19.8447 4.15533C18.9291 3.2398 17.426 2.75 15 2.75H9C6.57397 2.75 5.07086 3.2398 4.15533 4.15533ZM13.7196 6.02057C14.3445 5.9963 14.955 6.26435 15.4303 6.73967L17.2785 8.58786C18.1986 9.49655 18.2708 11.1213 17.0581 11.8756L15.8137 12.662L15.9279 14.6123C15.9965 15.337 15.9327 16.0432 15.4751 16.5786C15.024 17.1063 14.3422 17.2852 13.6681 17.3648C13.6681 17.3648 13.6682 17.3648 13.6681 17.3648L8.59359 17.9653C7.85968 18.0476 7.16546 17.8304 6.67574 17.3427C6.18504 16.8539 5.96594 16.1594 6.05532 15.4208C6.05537 15.4204 6.05542 15.42 6.05548 15.4195L6.65518 10.352C6.73516 9.67481 6.91536 9.00233 7.44838 8.55778C7.9797 8.11464 8.6809 8.04876 9.39428 8.09131C9.39414 8.0913 9.39442 8.09132 9.39428 8.09131L11.3423 8.20542L12.1369 6.9479C12.5017 6.37348 13.0831 6.04529 13.7196 6.02057ZM11.4114 9.71204L9.30614 9.58872C8.67967 9.55132 8.48019 9.65045 8.40912 9.70972C8.33964 9.76767 8.21484 9.93519 8.14482 10.528L7.57079 15.3786L8.80967 14.1397C9.10256 13.8468 9.57744 13.8468 9.87033 14.1397C10.1632 14.4326 10.1632 14.9074 9.87033 15.2003L8.61877 16.4519L13.4919 15.8752C14.0878 15.8048 14.2711 15.6786 14.3349 15.6039C14.3892 15.5404 14.4927 15.3526 14.4335 14.7424C14.4326 14.7329 14.4318 14.7234 14.4313 14.7139L14.308 12.6086L11.4114 9.71204ZM15.1363 11.3156L16.2649 10.6025C16.3867 10.527 16.4623 10.4 16.4694 10.2278C16.4767 10.0507 16.4067 9.83452 16.2237 9.65436L16.2197 9.65034L14.3697 7.80033C14.145 7.57565 13.9255 7.5137 13.7779 7.51943C13.642 7.52471 13.5085 7.58641 13.4034 7.75169C13.4033 7.75183 13.4035 7.75155 13.4034 7.75169L12.6944 8.8737L15.1363 11.3156Z" fill="#595854"/>
</svg>
