<svg width="24" height="24" viewBox="0 0 24 24" fill="none" xmlns="http://www.w3.org/2000/svg">
<path fill-rule="evenodd" clip-rule="evenodd" d="M5.55329 4.279C4.21495 4.35671 3.6192 4.63443 3.2945 5.04353C2.93589 5.49536 2.73828 6.30448 2.73828 7.88977V9.25H21.2483V7.89977C21.2483 6.14232 21.0052 5.34339 20.5782 4.92283C20.1474 4.49848 19.3289 4.25977 17.5483 4.25977H6.43829C6.12566 4.25977 5.82976 4.26915 5.55329 4.279ZM22.7483 9.94897V7.89977C22.7483 6.14721 22.5414 4.75114 21.6309 3.8542C20.7241 2.96106 19.3176 2.75977 17.5483 2.75977H6.43829C6.09402 2.75977 5.77272 2.77021 5.49154 2.78025L5.47537 2.781C4.0293 2.86393 2.86176 3.17592 2.11959 4.11101C1.41069 5.00418 1.23828 6.29506 1.23828 7.88977V16.1098C1.23828 17.8623 1.44517 19.2584 2.35572 20.1553C3.26243 21.0485 4.66893 21.2498 6.43829 21.2498H11.5483C11.9625 21.2498 12.2983 20.914 12.2983 20.4998C12.2983 20.0856 11.9625 19.7498 11.5483 19.7498H6.43829C4.65766 19.7498 3.83915 19.5111 3.40836 19.0867C2.9814 18.6661 2.73828 17.8672 2.73828 16.1098V10.75H21.2483V12.3098C21.2483 12.724 21.5841 13.0598 21.9983 13.0598C22.4125 13.0598 22.7483 12.724 22.7483 12.3098V10.051C22.7494 10.0342 22.75 10.0172 22.75 10C22.75 9.98285 22.7494 9.96583 22.7483 9.94897ZM18 14.75C16.2042 14.75 14.75 16.2042 14.75 18C14.75 18.6094 14.9205 19.1833 15.2184 19.6663L15.2247 19.6765L15.2246 19.6766C15.7844 20.6177 16.8141 21.25 18 21.25C19.1859 21.25 20.2156 20.6177 20.7754 19.6766L20.7815 19.6663L20.7816 19.6663C21.0795 19.1833 21.25 18.6094 21.25 18C21.25 16.2042 19.7958 14.75 18 14.75ZM13.25 18C13.25 15.3758 15.3758 13.25 18 13.25C20.6242 13.25 22.75 15.3758 22.75 18C22.75 18.8885 22.5017 19.7327 22.0615 20.4486C21.2406 21.8246 19.732 22.75 18 22.75C16.2681 22.75 14.7594 21.8246 13.9385 20.4486C13.4983 19.7327 13.25 18.8885 13.25 18ZM5.25 16C5.25 15.5858 5.58579 15.25 6 15.25H10C10.4142 15.25 10.75 15.5858 10.75 16C10.75 16.4142 10.4142 16.75 10 16.75H6C5.58579 16.75 5.25 16.4142 5.25 16ZM20.112 16.5103C20.3933 16.8144 20.3747 17.2889 20.0706 17.5701L17.9406 19.5401C17.6449 19.8137 17.1859 19.8047 16.9011 19.5199L15.9111 18.5299C15.6182 18.237 15.6182 17.7621 15.9111 17.4692C16.204 17.1763 16.6788 17.1763 16.9717 17.4692L17.4517 17.9492L19.0522 16.4689C19.3562 16.1877 19.8308 16.2062 20.112 16.5103Z" fill="#595854"/>
</svg>
