<svg width="24" height="24" viewBox="0 0 24 24" fill="none" xmlns="http://www.w3.org/2000/svg">
<path fill-rule="evenodd" clip-rule="evenodd" d="M12 2.75C6.89137 2.75 2.75 6.89137 2.75 12C2.75 17.1086 6.89137 21.25 12 21.25C17.1086 21.25 21.25 17.1086 21.25 12C21.25 6.89137 17.1086 2.75 12 2.75ZM1.25 12C1.25 6.06294 6.06294 1.25 12 1.25C17.9371 1.25 22.75 6.06294 22.75 12C22.75 17.9371 17.9371 22.75 12 22.75C6.06294 22.75 1.25 17.9371 1.25 12ZM10.1463 8.34831C9.87546 8.68416 9.75 9.21443 9.75 10V10.25H14.25V10C14.25 9.21443 14.1245 8.68416 13.8537 8.34831C13.611 8.04739 13.1225 7.75 12 7.75C10.8775 7.75 10.389 8.04739 10.1463 8.34831ZM15.75 10.3457V10C15.75 9.12557 15.6255 8.15584 15.0213 7.40669C14.389 6.62261 13.3775 6.25 12 6.25C10.6225 6.25 9.61101 6.62261 8.97869 7.40669C8.37454 8.15584 8.25 9.12557 8.25 10V10.3457C7.75402 10.4415 7.3134 10.6259 6.96967 10.9697C6.35616 11.5832 6.25 12.5054 6.25 13.5V14.5C6.25 15.4946 6.35616 16.4168 6.96967 17.0303C7.58318 17.6438 8.50536 17.75 9.5 17.75H14.5C15.4946 17.75 16.4168 17.6438 17.0303 17.0303C17.6438 16.4168 17.75 15.4946 17.75 14.5V13.5C17.75 12.5054 17.6438 11.5832 17.0303 10.9697C16.6866 10.6259 16.246 10.4415 15.75 10.3457ZM8.03033 12.0303C7.89384 12.1668 7.75 12.4946 7.75 13.5V14.5C7.75 15.5054 7.89384 15.8332 8.03033 15.9697C8.16682 16.1062 8.49464 16.25 9.5 16.25H14.5C15.5054 16.25 15.8332 16.1062 15.9697 15.9697C16.1062 15.8332 16.25 15.5054 16.25 14.5V13.5C16.25 12.4946 16.1062 12.1668 15.9697 12.0303C15.8332 11.8938 15.5054 11.75 14.5 11.75H9.5C8.49464 11.75 8.16682 11.8938 8.03033 12.0303ZM12 14.15C12.0829 14.15 12.15 14.0828 12.15 14C12.15 13.9172 12.0829 13.85 12 13.85C11.9171 13.85 11.85 13.9172 11.85 14C11.85 14.0828 11.9171 14.15 12 14.15ZM10.65 14C10.65 13.2545 11.2544 12.65 12 12.65C12.7456 12.65 13.35 13.2545 13.35 14C13.35 14.7455 12.7456 15.35 12 15.35C11.2544 15.35 10.65 14.7455 10.65 14Z" fill="#595854"/>
</svg>
