<svg width="24" height="24" viewBox="0 0 24 24" fill="none" xmlns="http://www.w3.org/2000/svg">
<path fill-rule="evenodd" clip-rule="evenodd" d="M5.25 8C5.25 4.27579 8.27579 1.25 12 1.25C14.7569 1.25 17.1178 2.9004 18.1699 5.25939L20.9697 2.45967C21.2626 2.16678 21.7374 2.16678 22.0303 2.45967C22.3232 2.75256 22.3232 3.22744 22.0303 3.52033L6.44841 19.1022C7.91702 20.4364 9.86539 21.25 12 21.25C16.5558 21.25 20.25 17.5558 20.25 13V11C20.25 10.5858 20.5858 10.25 21 10.25C21.4142 10.25 21.75 10.5858 21.75 11V13C21.75 18.3842 17.3842 22.75 12 22.75C9.45082 22.75 7.1255 21.7669 5.38672 20.1639L3.03033 22.5203C2.73744 22.8132 2.26256 22.8132 1.96967 22.5203C1.67678 22.2274 1.67678 21.7526 1.96967 21.4597L6.50626 16.9231C5.71365 15.8169 5.25 14.4607 5.25 13V8ZM7.58551 15.8438L17.0091 6.42022C16.3637 4.38458 14.5175 2.88335 12.3 2.75843V5.5C12.3 5.91421 11.9642 6.25 11.55 6.25C11.1358 6.25 10.8 5.91421 10.8 5.5V2.88824C10.2443 3.01856 9.72242 3.23735 9.25 3.52889V7.5C9.25 7.91421 8.91421 8.25 8.5 8.25C8.08579 8.25 7.75 7.91421 7.75 7.5V4.92022C7.12116 5.78578 6.75 6.8502 6.75 8V13C6.75 14.0489 7.0559 15.0251 7.58551 15.8438ZM18 9.23C18.4142 9.23 18.75 9.56579 18.75 9.98V13C18.75 16.7242 15.7242 19.75 12 19.75C11.1822 19.75 10.3828 19.6046 9.65666 19.3322C9.26882 19.1868 9.07231 18.7545 9.21775 18.3667C9.36319 17.9788 9.7955 17.7823 10.1833 17.9278C10.7372 18.1354 11.3578 18.25 12 18.25C14.8958 18.25 17.25 15.8958 17.25 13V9.98C17.25 9.56579 17.5858 9.23 18 9.23Z" fill="#595854"/>
</svg>
