<svg width="24" height="24" viewBox="0 0 24 24" fill="none" xmlns="http://www.w3.org/2000/svg">
<path fill-rule="evenodd" clip-rule="evenodd" d="M12.5427 2.87243C12.5421 2.87266 12.5415 2.87289 12.5409 2.87312L4.60542 5.87141C3.78865 6.18061 3.25 6.96043 3.25 7.83999V8.156C4.04926 7.43781 5.10509 6.99997 6.25999 6.99997H14.1V3.94997C14.1 3.15009 13.2988 2.59335 12.5427 2.87243ZM15.6 6.99997V3.94997C15.6 2.09051 13.7425 0.82745 12.0191 1.46677L4.07491 4.46835C2.67187 4.99924 1.75 6.33967 1.75 7.83999V15.5367C0.821261 16.4028 0.25 17.6391 0.25 19C0.25 21.6242 2.37579 23.75 5 23.75C6.09789 23.75 7.10399 23.3722 7.90823 22.75H17.74C20.2242 22.75 22.25 20.7242 22.25 18.24V17.6475C22.8723 17.3725 23.3088 16.7561 23.3088 16.0302V13.9701C23.3088 13.2442 22.8723 12.6278 22.25 12.3528V11.51C22.25 9.02577 20.2242 6.99997 17.74 6.99997H15.6ZM21.5167 16.3001C21.5112 16.3 21.5056 16.3 21.5 16.3H19.6C18.8509 16.3 18.2403 15.7527 18.1874 15.1177L18.1866 15.1089C18.1492 14.7161 18.2978 14.3464 18.5639 14.0866L18.5773 14.0732C18.7614 13.8841 19.0029 13.7569 19.2783 13.7151C19.3433 13.7052 19.4103 13.7002 19.4788 13.7002H21.5416C21.7032 13.7106 21.8088 13.837 21.8088 13.9701V16.0302C21.8088 16.1633 21.7032 16.2897 21.5416 16.3001H21.5167ZM20.75 12.2V11.51C20.75 9.85419 19.3958 8.49997 17.74 8.49997H6.25999C4.60421 8.49997 3.25 9.85419 3.25 11.51V14.5857C3.79266 14.3695 4.38335 14.25 5 14.25C7.62421 14.25 9.75 16.3758 9.75 19C9.75 19.8164 9.54324 20.5822 9.18199 21.25H17.74C19.3958 21.25 20.75 19.8958 20.75 18.24V17.8001H19.5988C18.1893 17.8001 16.8211 16.7694 16.6918 15.2468C16.611 14.3847 16.9393 13.5792 17.5081 13.0201C17.9205 12.5995 18.4562 12.3242 19.0453 12.2333C19.1874 12.2113 19.3327 12.2 19.48 12.2H20.75ZM7.14558 21.436C7.82153 20.8411 8.25 19.973 8.25 19C8.25 17.2042 6.79579 15.75 5 15.75C4.23847 15.75 3.53157 16.0168 2.96748 16.4665L2.96618 16.4675C2.221 17.0588 1.75 17.9745 1.75 19C1.75 20.7958 3.20421 22.25 5 22.25C5.81661 22.25 6.56349 21.9439 7.14558 21.436ZM6.25 12C6.25 11.5858 6.58579 11.25 7 11.25H14C14.4142 11.25 14.75 11.5858 14.75 12C14.75 12.4142 14.4142 12.75 14 12.75H7C6.58579 12.75 6.25 12.4142 6.25 12ZM5.25 17C5.66421 17 6 17.3358 6 17.75V19.25C6 19.5134 5.86178 19.7576 5.63587 19.8931L4.38587 20.6431C4.03069 20.8562 3.56999 20.741 3.35688 20.3858C3.14377 20.0307 3.25894 19.57 3.61413 19.3569L4.5 18.8253V17.75C4.5 17.3358 4.83579 17 5.25 17Z" fill="#595854"/>
</svg>
