<svg width="24" height="24" viewBox="0 0 24 24" fill="none" xmlns="http://www.w3.org/2000/svg">
<path fill-rule="evenodd" clip-rule="evenodd" d="M12 2.75C6.89137 2.75 2.75 6.89137 2.75 12C2.75 17.1086 6.89137 21.25 12 21.25C17.1086 21.25 21.25 17.1086 21.25 12C21.25 6.89137 17.1086 2.75 12 2.75ZM1.25 12C1.25 6.06294 6.06294 1.25 12 1.25C17.9371 1.25 22.75 6.06294 22.75 12C22.75 17.9371 17.9371 22.75 12 22.75C6.06294 22.75 1.25 17.9371 1.25 12ZM8.11504 7.78476C9.15586 6.80176 10.5507 6.25 12 6.25C13.4577 6.25 14.8547 6.8008 15.888 7.78764C16.9217 8.77485 17.51 10.119 17.51 11.53C17.51 12.8811 16.9975 14.1881 16.0778 15.2113L16.0761 15.2132L15.5903 15.75H17C17.4142 15.75 17.75 16.0858 17.75 16.5C17.75 16.9142 17.4142 17.25 17 17.25H13.9C13.6035 17.25 13.3348 17.0753 13.2145 16.8042C13.0942 16.5331 13.1449 16.2166 13.3439 15.9967L14.9622 14.2086C14.9625 14.2083 14.9628 14.2079 14.9631 14.2076C15.6428 13.451 16.01 12.4986 16.01 11.53C16.01 10.5411 15.5983 9.58518 14.852 8.8724C14.1053 8.15924 13.0823 7.75 12 7.75C10.93 7.75 9.90552 8.15773 9.1465 8.87384C8.40112 9.58647 7.98999 10.5417 7.98999 11.53C7.98999 12.5105 8.35843 13.4613 9.03494 14.2055L9.03607 14.2067L10.6561 15.9967C10.8551 16.2166 10.9058 16.5331 10.7855 16.8042C10.6652 17.0753 10.3965 17.25 10.1 17.25H7C6.58579 17.25 6.25 16.9142 6.25 16.5C6.25 16.0858 6.58579 15.75 7 15.75H8.40968L7.92503 15.2145C7.92477 15.2142 7.92451 15.2139 7.92425 15.2136C7.00125 14.1979 6.48999 12.8892 6.48999 11.53C6.48999 10.119 7.07833 8.77485 8.112 7.78764L8.11503 7.78475L8.11504 7.78476Z" fill="#595854"/>
</svg>
