<svg width="24" height="24" viewBox="0 0 24 24" fill="none" xmlns="http://www.w3.org/2000/svg">
<path fill-rule="evenodd" clip-rule="evenodd" d="M7.57819 2.91194C4.8091 3.55437 2.75 6.03342 2.75 9C2.75 9.41421 2.41421 9.75 2 9.75C1.58579 9.75 1.25 9.41421 1.25 9C1.25 4.71579 4.71579 1.25 9 1.25C9.2702 1.25 9.51952 1.39534 9.65265 1.63048C9.78578 1.86561 9.78214 2.15417 9.64312 2.38587L8.59312 4.13587C8.38001 4.49106 7.91931 4.60623 7.56413 4.39312C7.20894 4.18001 7.09377 3.71931 7.30688 3.36413L7.57819 2.91194ZM8.74908 8.74908C8.1148 9.38336 7.75 10.449 7.75 12.25V16.75C7.75 18.551 8.1148 19.6166 8.74908 20.2509C9.38336 20.8852 10.449 21.25 12.25 21.25H16.75C18.551 21.25 19.6166 20.8852 20.2509 20.2509C20.8852 19.6166 21.25 18.551 21.25 16.75V12.25C21.25 10.449 20.8852 9.38336 20.2509 8.74908C19.6166 8.1148 18.551 7.75 16.75 7.75H12.25C10.449 7.75 9.38336 8.1148 8.74908 8.74908ZM7.68842 7.68842C8.74164 6.6352 10.301 6.25 12.25 6.25H16.75C18.699 6.25 20.2584 6.6352 21.3116 7.68842C22.3648 8.74164 22.75 10.301 22.75 12.25V16.75C22.75 18.699 22.3648 20.2584 21.3116 21.3116C20.2584 22.3648 18.699 22.75 16.75 22.75H12.25C10.301 22.75 8.74164 22.3648 7.68842 21.3116C6.6352 20.2584 6.25 18.699 6.25 16.75V12.25C6.25 10.301 6.6352 8.74164 7.68842 7.68842Z" fill="#595854"/>
</svg>
