<svg width="24" height="24" viewBox="0 0 24 24" fill="none" xmlns="http://www.w3.org/2000/svg">
<path fill-rule="evenodd" clip-rule="evenodd" d="M2.7907 7.85999C2.76367 8.21528 2.75 8.59477 2.75 9V15C2.75 17.426 3.2398 18.9291 4.15533 19.8447C5.07086 20.7602 6.57397 21.25 9 21.25H14.0338C14.0253 21.2362 14.0168 21.2223 14.0084 21.2084L14.0077 21.2073C13.5308 20.4163 13.25 19.4832 13.25 18.5C13.25 17.0799 13.8096 15.7832 14.7331 14.8363C15.6891 13.857 17.0307 13.25 18.5 13.25C19.5049 13.25 20.4501 13.5301 21.25 14.0258V9C21.25 8.59477 21.2363 8.21528 21.2093 7.85999H2.7907ZM3.01556 6.35999H7.77V2.79787C6.04848 2.9415 4.90495 3.40571 4.15533 4.15533C3.63271 4.67795 3.24881 5.39205 3.01556 6.35999ZM9.27 2.75V6.35999H14.73V2.75H9.27ZM16.23 2.79787V6.35999H20.9844C20.7512 5.39205 20.3673 4.67795 19.8447 4.15533C19.095 3.40571 17.9515 2.9415 16.23 2.79787ZM22.7452 15.4315C22.75 15.2856 22.75 15.1448 22.75 15.0141V9C22.75 6.42603 22.2398 4.42914 20.9053 3.09467C19.5709 1.7602 17.574 1.25 15 1.25H9C6.42603 1.25 4.42914 1.7602 3.09467 3.09467C1.7602 4.42914 1.25 6.42603 1.25 9V15C1.25 17.574 1.7602 19.5709 3.09467 20.9053C4.42914 22.2398 6.42603 22.75 9 22.75H15.0161C15.1461 22.75 15.2909 22.75 15.4387 22.7451C16.2932 23.3803 17.351 23.75 18.5 23.75C20.4149 23.75 22.0836 22.7218 22.9931 21.2059L22.996 21.201C23.2599 20.7535 23.4683 20.2579 23.5969 19.7349C23.7043 19.3265 23.75 18.9135 23.75 18.5C23.75 17.3588 23.3796 16.2938 22.7452 15.4315ZM16.081 21.3462C16.1096 21.3643 16.137 21.3843 16.1631 21.4063C16.7904 21.9345 17.6 22.25 18.5 22.25C19.8641 22.25 21.0546 21.5193 21.7054 20.4366C21.8997 20.1067 22.0501 19.7455 22.1414 19.3719L22.145 19.3581C22.2163 19.0887 22.25 18.8041 22.25 18.5C22.25 17.6099 21.9344 16.7885 21.4032 16.1494C21.3864 16.1291 21.3706 16.1079 21.356 16.086C21.3454 16.0702 21.3275 16.0482 21.3097 16.0303C21.2975 16.0182 21.2857 16.0056 21.2744 15.9926C20.6064 15.2256 19.6124 14.75 18.5 14.75C17.4494 14.75 16.4909 15.1831 15.8069 15.8836C15.1504 16.5568 14.75 17.4801 14.75 18.5C14.75 19.1965 14.949 19.8633 15.2919 20.4322C15.4836 20.7487 15.7225 21.0356 15.9967 21.2694C16.0118 21.2823 16.0263 21.2957 16.0403 21.3097C16.0513 21.3207 16.0609 21.3293 16.081 21.3462ZM16.7897 16.7697C17.0826 16.4768 17.5574 16.4768 17.8503 16.7697L18.51 17.4293L19.1497 16.7897C19.4426 16.4968 19.9174 16.4968 20.2103 16.7897C20.5032 17.0826 20.5032 17.5574 20.2103 17.8503L19.5707 18.49L20.2303 19.1497C20.5232 19.4426 20.5232 19.9174 20.2303 20.2103C19.9374 20.5032 19.4626 20.5032 19.1697 20.2103L18.51 19.5507L17.8303 20.2303C17.5374 20.5232 17.0626 20.5232 16.7697 20.2303C16.4768 19.9375 16.4768 19.4626 16.7697 19.1697L17.4494 18.49L16.7897 17.8303C16.4968 17.5374 16.4968 17.0625 16.7897 16.7697Z" fill="#595854"/>
</svg>
