<svg width="24" height="24" viewBox="0 0 24 24" fill="none" xmlns="http://www.w3.org/2000/svg">
<path fill-rule="evenodd" clip-rule="evenodd" d="M3.09467 3.09467C4.42914 1.7602 6.42603 1.25 9 1.25H15C17.574 1.25 19.5709 1.7602 20.9053 3.09467C22.2398 4.42914 22.75 6.42603 22.75 9V15C22.75 17.574 22.2398 19.5709 20.9053 20.9053C19.5709 22.2398 17.574 22.75 15 22.75H9C6.42603 22.75 4.42914 22.2398 3.09467 20.9053C1.7602 19.5709 1.25 17.574 1.25 15V9C1.25 6.42603 1.7602 4.42914 3.09467 3.09467ZM4.15533 4.15533C3.2398 5.07086 2.75 6.57397 2.75 9V15C2.75 17.426 3.2398 18.9291 4.15533 19.8447C5.07086 20.7602 6.57397 21.25 9 21.25H15C17.426 21.25 18.9291 20.7602 19.8447 19.8447C20.7602 18.9291 21.25 17.426 21.25 15V9C21.25 6.57397 20.7602 5.07086 19.8447 4.15533C18.9291 3.2398 17.426 2.75 15 2.75H9C6.57397 2.75 5.07086 3.2398 4.15533 4.15533ZM9.73528 7.58773C9.94639 7.94411 9.82862 8.40415 9.47224 8.61526C8.67497 9.08752 8.32624 9.34896 8.1106 9.73397C7.9313 10.0541 7.80847 10.5288 7.76621 11.41H9.68C10.8289 11.41 11.62 12.3109 11.62 13.35V14.84C11.62 15.8791 10.8289 16.78 9.68 16.78H8.19C7.12579 16.78 6.25 15.9042 6.25 14.84V12.16C6.25 10.7514 6.37401 9.76493 6.80189 9.00098C7.23875 8.22098 7.93502 7.78242 8.70776 7.32469C9.06414 7.11358 9.52418 7.23135 9.73528 7.58773ZM7.75 12.91V14.84C7.75 15.0758 7.95422 15.28 8.19 15.28H9.68C9.95105 15.28 10.12 15.101 10.12 14.84V13.35C10.12 13.089 9.95105 12.91 9.68 12.91H7.75ZM15.8753 7.58773C16.0864 7.94411 15.9686 8.40415 15.6122 8.61526C14.815 9.08752 14.4662 9.34896 14.2506 9.73397C14.0713 10.0541 13.9485 10.5288 13.9062 11.41H15.82C16.9689 11.41 17.76 12.3109 17.76 13.35V14.84C17.76 15.8791 16.9689 16.78 15.82 16.78H14.33C13.2658 16.78 12.39 15.9042 12.39 14.84V12.16C12.39 10.7514 12.514 9.76493 12.9419 9.00098C13.3788 8.22098 14.075 7.78242 14.8478 7.32469C15.2041 7.11358 15.6642 7.23135 15.8753 7.58773ZM13.89 12.91V14.84C13.89 15.0758 14.0942 15.28 14.33 15.28H15.82C16.0911 15.28 16.26 15.101 16.26 14.84V13.35C16.26 13.089 16.0911 12.91 15.82 12.91H13.89Z" fill="#595854"/>
</svg>
