<svg width="24" height="24" viewBox="0 0 24 24" fill="none" xmlns="http://www.w3.org/2000/svg">
<path fill-rule="evenodd" clip-rule="evenodd" d="M11 2.75C6.44365 2.75 2.75 6.44365 2.75 11C2.75 15.5563 6.44365 19.25 11 19.25C15.5563 19.25 19.25 15.5563 19.25 11C19.25 6.44365 15.5563 2.75 11 2.75ZM1.25 11C1.25 5.61522 5.61522 1.25 11 1.25C16.3848 1.25 20.75 5.61522 20.75 11C20.75 16.3848 16.3848 20.75 11 20.75C5.61522 20.75 1.25 16.3848 1.25 11ZM18.4689 18.854C18.8913 18.2675 19.5837 17.964 20.3532 17.9698C20.3543 17.9698 20.3554 17.9698 20.3565 17.9698L20.3499 18.7198V17.9698C20.351 17.9698 20.3521 17.9698 20.3532 17.9698C21.2643 17.9706 22.123 18.2864 22.5323 19.0508C22.9419 19.8156 22.7284 20.7063 22.2247 21.4647L22.2246 21.4648C21.6945 22.2628 20.9207 22.8595 20.0153 22.7382C19.1097 22.6168 18.5199 21.8372 18.218 20.9256L18.2178 20.925C17.9763 20.1941 18.0468 19.4399 18.4689 18.854ZM19.6421 20.4546C19.8701 21.1425 20.1501 21.2428 20.2145 21.2515C20.2791 21.2601 20.5753 21.2368 20.9751 20.6349M19.6421 20.4546C19.5235 20.0955 19.593 19.8597 19.686 19.7307C19.778 19.603 19.9742 19.4665 20.3433 19.4698V19.4698H20.3499C20.9775 19.4698 21.1673 19.6792 21.21 19.7589C21.2529 19.839 21.3215 20.1133 20.9752 20.6348" fill="#595854"/>
</svg>
