<svg width="24" height="24" viewBox="0 0 24 24" fill="none" xmlns="http://www.w3.org/2000/svg">
<path fill-rule="evenodd" clip-rule="evenodd" d="M12 2.75C6.89137 2.75 2.75 6.89137 2.75 12C2.75 17.1086 6.89137 21.25 12 21.25C17.1086 21.25 21.25 17.1086 21.25 12C21.25 6.89137 17.1086 2.75 12 2.75ZM1.25 12C1.25 6.06294 6.06294 1.25 12 1.25C17.9371 1.25 22.75 6.06294 22.75 12C22.75 17.9371 17.9371 22.75 12 22.75C6.06294 22.75 1.25 17.9371 1.25 12ZM8.5699 5.88558C8.90924 5.64804 9.37689 5.73057 9.61442 6.0699L11.9 9.33501L14.1856 6.0699C14.4231 5.73057 14.8908 5.64804 15.2301 5.88558C15.5694 6.12311 15.652 6.59076 15.4144 6.9301L13.4405 9.75H16.5C16.9142 9.75 17.25 10.0858 17.25 10.5C17.25 10.9142 16.9142 11.25 16.5 11.25H12.0092C12.0026 11.2501 11.9961 11.2501 11.9895 11.25H11.8105C11.8039 11.2501 11.7974 11.2501 11.7908 11.25H7.5C7.08579 11.25 6.75 10.9142 6.75 10.5C6.75 10.0858 7.08579 9.75 7.5 9.75H10.3595L8.38558 6.9301C8.14804 6.59076 8.23057 6.12311 8.5699 5.88558ZM12.0092 12.75C12.0026 12.7499 11.9961 12.7499 11.9895 12.75H11.8105C11.8039 12.7499 11.7974 12.7499 11.7908 12.75H7.5C7.08579 12.75 6.75 13.0858 6.75 13.5C6.75 13.9142 7.08579 14.25 7.5 14.25H10.3595L8.38558 17.0699C8.14804 17.4092 8.23057 17.8769 8.5699 18.1144C8.90924 18.352 9.37689 18.2694 9.61442 17.9301L11.9 14.665L14.1856 17.9301C14.4231 18.2694 14.8908 18.352 15.2301 18.1144C15.5694 17.8769 15.652 17.4092 15.4144 17.0699L13.4405 14.25H16.5C16.9142 14.25 17.25 13.9142 17.25 13.5C17.25 13.0858 16.9142 12.75 16.5 12.75H12.0092Z" fill="#595854"/>
</svg>
