<svg width="24" height="24" viewBox="0 0 24 24" fill="none" xmlns="http://www.w3.org/2000/svg">
<path fill-rule="evenodd" clip-rule="evenodd" d="M5.78 2.75C4.11422 2.75 2.75 4.11424 2.75 5.78003C2.75 7.44581 4.1142 8.81 5.78 8.81H6.72C7.13421 8.81 7.47 9.14578 7.47 9.56V17.1C7.47 17.7258 7.98421 18.24 8.60999 18.24C9.23577 18.24 9.75 17.7258 9.75 17.1V4.83002C9.75 3.6925 8.81407 2.75 7.67001 2.75H5.78ZM1.25 5.78003C1.25 3.28582 3.28578 1.25 5.78 1.25H7.67001C9.64596 1.25 11.25 2.86754 11.25 4.83002V17.1C11.25 18.3336 10.3967 19.3741 9.25 19.6613V22C9.25 22.4142 8.91421 22.75 8.5 22.75C8.08579 22.75 7.75 22.4142 7.75 22V19.5958C6.71588 19.2378 5.97 18.2533 5.97 17.1V10.31H5.78C3.28579 10.31 1.25 8.27425 1.25 5.78003ZM12.75 4.83002C12.75 2.86754 14.354 1.25 16.33 1.25H18.22C20.7142 1.25 22.75 3.28582 22.75 5.78003C22.75 8.27425 20.7142 10.31 18.22 10.31H18.03V17.1C18.03 18.2533 17.2841 19.2378 16.25 19.5958V22C16.25 22.4142 15.9142 22.75 15.5 22.75C15.0858 22.75 14.75 22.4142 14.75 22V19.6613C13.6033 19.3741 12.75 18.3336 12.75 17.1V4.83002ZM16.33 2.75C15.1859 2.75 14.25 3.6925 14.25 4.83002V17.1C14.25 17.7258 14.7642 18.24 15.39 18.24C16.0158 18.24 16.53 17.7258 16.53 17.1V9.56C16.53 9.14578 16.8658 8.81 17.28 8.81H18.22C19.8858 8.81 21.25 7.44581 21.25 5.78003C21.25 4.11424 19.8858 2.75 18.22 2.75H16.33ZM5.78 5.59003C5.67421 5.59003 5.59 5.67424 5.59 5.78003C5.59 5.88575 5.67415 5.96997 5.78 5.96997C6.19421 5.96997 6.53 6.30576 6.53 6.71997C6.53 7.13418 6.19421 7.46997 5.78 7.46997C4.84585 7.46997 4.09 6.71431 4.09 5.78003C4.09 4.84582 4.84579 4.09003 5.78 4.09003C6.19421 4.09003 6.53 4.42581 6.53 4.84003C6.53 5.25424 6.19421 5.59003 5.78 5.59003ZM17.47 4.84003C17.47 4.42581 17.8058 4.09003 18.22 4.09003C19.1542 4.09003 19.91 4.84582 19.91 5.78003C19.91 6.71431 19.1542 7.46997 18.22 7.46997C17.8058 7.46997 17.47 7.13418 17.47 6.71997C17.47 6.30576 17.8058 5.96997 18.22 5.96997C18.3259 5.96997 18.41 5.88575 18.41 5.78003C18.41 5.67424 18.3258 5.59003 18.22 5.59003C17.8058 5.59003 17.47 5.25424 17.47 4.84003Z" fill="#595854"/>
</svg>
