<svg width="24" height="24" viewBox="0 0 24 24" fill="none" xmlns="http://www.w3.org/2000/svg">
<path fill-rule="evenodd" clip-rule="evenodd" d="M6.23033 3.23033C5.94384 3.51682 5.75 4.09464 5.75 5.5V12.5C5.75 13.9054 5.94384 14.4832 6.23033 14.7697C6.51682 15.0562 7.09464 15.25 8.5 15.25H15.5C16.9054 15.25 17.4832 15.0562 17.7697 14.7697C18.0562 14.4832 18.25 13.9054 18.25 12.5V8.30005C18.25 6.89469 18.0562 6.31687 17.7697 6.03038C17.4832 5.74388 16.9054 5.55005 15.5 5.55005H13.4C12.9821 5.55005 12.6136 5.48885 12.2899 5.29257C12.0113 5.12362 11.8277 4.88332 11.7132 4.7334C11.7038 4.72098 11.6947 4.70918 11.6862 4.69809L11.68 4.69004L10.6313 3.29177C10.6311 3.29148 10.6309 3.29118 10.6307 3.29089C10.4122 3.00143 10.339 2.9192 10.2469 2.86377C10.1734 2.81951 10.0093 2.75 9.54999 2.75H8.5C7.09464 2.75 6.51682 2.94384 6.23033 3.23033ZM11.25 16.75H8.5C7.10536 16.75 5.93318 16.5938 5.16967 15.8303C4.40616 15.0668 4.25 13.8946 4.25 12.5V5.5C4.25 4.10536 4.40616 2.93318 5.16967 2.16967C5.93318 1.40616 7.10536 1.25 8.5 1.25H9.54999C10.1407 1.25 10.6166 1.33547 11.0206 1.5787C11.385 1.79807 11.6209 2.11192 11.7985 2.3482C11.8088 2.36179 11.8188 2.37512 11.8286 2.38816L11.83 2.38996L12.877 3.78591C12.9498 3.88038 12.9876 3.92927 13.0242 3.96924C13.0537 4.0016 13.0658 4.00883 13.0676 4.0099C13.0676 4.00991 13.0808 4.01891 13.1257 4.0286C13.1754 4.03931 13.2601 4.05005 13.4 4.05005H15.5C16.8946 4.05005 18.0668 4.20621 18.8303 4.96972C19.5938 5.73322 19.75 6.90541 19.75 8.30005V12.5C19.75 13.8946 19.5938 15.0668 18.8303 15.8303C18.0668 16.5938 16.8946 16.75 15.5 16.75H12.75V18.3535C13.6658 18.6125 14.3875 19.3342 14.6465 20.25H18C18.4142 20.25 18.75 20.5858 18.75 21C18.75 21.4142 18.4142 21.75 18 21.75H14.6465C14.32 22.9043 13.2588 23.75 12 23.75C10.7412 23.75 9.67998 22.9043 9.35352 21.75H6C5.58579 21.75 5.25 21.4142 5.25 21C5.25 20.5858 5.58579 20.25 6 20.25H9.35352C9.61255 19.3342 10.3342 18.6125 11.25 18.3535V16.75ZM12 19.75C11.3096 19.75 10.75 20.3096 10.75 21C10.75 21.6904 11.3096 22.25 12 22.25C12.6904 22.25 13.25 21.6904 13.25 21C13.25 20.3096 12.6904 19.75 12 19.75Z" fill="#595854"/>
</svg>
