<svg width="24" height="24" viewBox="0 0 24 24" fill="none" xmlns="http://www.w3.org/2000/svg">
<path fill-rule="evenodd" clip-rule="evenodd" d="M11.1869 1.30711C11.4672 1.4232 11.6499 1.69668 11.6499 2.00002V6.00002C11.6499 6.19893 11.5709 6.3897 11.4302 6.53035L5.96056 12L11.4302 17.4697C11.5709 17.6103 11.6499 17.8011 11.6499 18V22C11.6499 22.3034 11.4672 22.5768 11.1869 22.6929C10.9067 22.809 10.5841 22.7449 10.3696 22.5304L0.369572 12.5304C0.076679 12.2375 0.076679 11.7626 0.369572 11.4697L10.3696 1.46969C10.5841 1.25519 10.9067 1.19103 11.1869 1.30711ZM12.6129 1.30711C12.8931 1.19103 13.2157 1.25519 13.4302 1.46969L23.4302 11.4697C23.7231 11.7626 23.7231 12.2375 23.4302 12.5304L13.4302 22.5304C13.2157 22.7449 12.8931 22.809 12.6129 22.6929C12.3326 22.5768 12.1499 22.3034 12.1499 22V18C12.1499 17.8011 12.2289 17.6103 12.3696 17.4697L17.8392 12L12.3696 6.53035C12.2289 6.3897 12.1499 6.19893 12.1499 6.00002V2.00002C12.1499 1.69668 12.3326 1.4232 12.6129 1.30711ZM1.96056 12L10.1499 20.1894V18.3107L4.36957 12.5304C4.07668 12.2375 4.07668 11.7626 4.36957 11.4697L10.1499 5.68936V3.81068L1.96056 12ZM13.6499 3.81068V5.68936L19.4302 11.4697C19.7231 11.7626 19.7231 12.2375 19.4302 12.5304L13.6499 18.3107V20.1894L21.8392 12L13.6499 3.81068ZM11.1869 8.30711C11.4672 8.4232 11.6499 8.69668 11.6499 9.00002V15C11.6499 15.3034 11.4672 15.5768 11.1869 15.6929C10.9067 15.809 10.5841 15.7449 10.3696 15.5304L7.36957 12.5304C7.07668 12.2375 7.07668 11.7626 7.36957 11.4697L10.3696 8.46969C10.5841 8.25519 10.9067 8.19103 11.1869 8.30711ZM8.96056 12L10.1499 13.1894V10.8107L8.96056 12Z" fill="#595854"/>
</svg>
