<svg width="24" height="24" viewBox="0 0 24 24" fill="none" xmlns="http://www.w3.org/2000/svg">
<path fill-rule="evenodd" clip-rule="evenodd" d="M3.09467 3.09467C4.42914 1.7602 6.42603 1.25 9 1.25H15C17.574 1.25 19.5709 1.7602 20.9053 3.09467C22.2398 4.42914 22.75 6.42603 22.75 9V15C22.75 17.574 22.2398 19.5709 20.9053 20.9053C19.5709 22.2398 17.574 22.75 15 22.75H9C6.42603 22.75 4.42914 22.2398 3.09467 20.9053C1.7602 19.5709 1.25 17.574 1.25 15V9C1.25 6.42603 1.7602 4.42914 3.09467 3.09467ZM4.15533 4.15533C3.2398 5.07086 2.75 6.57397 2.75 9V15C2.75 17.426 3.2398 18.9291 4.15533 19.8447C5.07086 20.7602 6.57397 21.25 9 21.25H15C17.426 21.25 18.9291 20.7602 19.8447 19.8447C20.7602 18.9291 21.25 17.426 21.25 15V9C21.25 6.57397 20.7602 5.07086 19.8447 4.15533C18.9291 3.2398 17.426 2.75 15 2.75H9C6.57397 2.75 5.07086 3.2398 4.15533 4.15533ZM11.9992 5.24625C12.5434 5.24475 13.1288 5.35704 13.6118 5.62304L13.6146 5.62457L16.8126 7.40349C17.3239 7.68434 17.7421 8.14825 18.0304 8.63875C18.3191 9.13016 18.52 9.72039 18.52 10.3V13.7C18.52 14.2822 18.315 14.8731 18.0257 15.3627C17.7365 15.8523 17.319 16.3152 16.8142 16.5956L13.6146 18.3754L13.6118 18.377C13.1289 18.6429 12.544 18.755 12.0013 18.755C11.4592 18.755 10.8748 18.6432 10.3946 18.3749C10.3944 18.3749 10.3947 18.375 10.3946 18.3749L7.1996 16.5977C7.19886 16.5973 7.19813 16.5969 7.1974 16.5965C6.68608 16.3157 6.26791 15.8518 5.97964 15.3613C5.69085 14.8699 5.48999 14.2796 5.48999 13.7V10.31C5.48999 9.72783 5.69499 9.13691 5.98426 8.64727C6.27345 8.15776 6.69083 7.69501 7.19542 7.41458L10.3915 5.63675C10.8725 5.36233 11.4574 5.24776 11.9992 5.24625ZM12.0033 6.74625C11.6444 6.74724 11.3313 6.82694 11.1331 6.94059L11.1246 6.94548L7.92458 8.72543C7.8337 8.77591 7.73762 8.84844 7.64297 8.93947L11.9998 11.4632L16.3704 8.92889C16.2764 8.83916 16.1809 8.76778 16.0896 8.71773L16.0854 8.71544L12.8882 6.93696C12.8878 6.93675 12.8874 6.93655 12.8871 6.93634C12.68 6.82268 12.3609 6.74526 12.0033 6.74625ZM17.0199 10.2862L12.75 12.7621V17.1272C12.7998 17.1077 12.8457 17.0864 12.8871 17.0637C12.8874 17.0635 12.8878 17.0632 12.8882 17.063L16.0854 15.2846C16.3007 15.165 16.5435 14.9227 16.7343 14.5998C16.925 14.2769 17.02 13.9478 17.02 13.7V10.3C17.02 10.2954 17.02 10.2908 17.0199 10.2862ZM11.25 17.1243V12.7623L6.99011 10.2948C6.99003 10.2999 6.98999 10.305 6.98999 10.31V13.7C6.98999 13.9504 7.08414 14.2801 7.27285 14.6012C7.46167 14.9225 7.70271 15.163 7.9204 15.2823L7.92458 15.2846L11.1259 17.0653C11.1633 17.0862 11.2049 17.106 11.25 17.1243Z" fill="#595854"/>
</svg>
