<svg width="24" height="24" viewBox="0 0 24 24" fill="none" xmlns="http://www.w3.org/2000/svg">
<path fill-rule="evenodd" clip-rule="evenodd" d="M2.37798 2.33071C2.66191 1.69733 3.30567 1.25 4.09986 1.25H5.49986C6.48538 1.25 7.48034 1.61982 8.23019 2.36967L8.23766 2.37714L11.7326 5.97206C11.8407 6.07677 12.0632 6.07597 12.1695 5.96967L15.7695 2.36967C16.5194 1.61982 17.5143 1.25 18.4999 1.25H19.8999C20.6892 1.25 21.3466 1.69507 21.6179 2.35074C21.8939 3.01792 21.727 3.79627 21.1144 4.34614L15.4302 10.0303C13.5373 11.9232 10.3624 11.9232 8.46953 10.0303L2.76953 4.33033C2.19473 3.75553 2.09094 2.97101 2.37798 2.33071ZM3.72728 3.09179C3.73523 3.13639 3.75934 3.19882 3.83019 3.26967L9.53019 8.96967C10.8373 10.2768 13.0624 10.2768 14.3695 8.96967L20.0695 3.26967C20.0813 3.2579 20.0935 3.24653 20.106 3.23557C20.201 3.1524 20.2308 3.08257 20.2407 3.04286C20.251 3.00133 20.2474 2.96182 20.2318 2.92426C20.2032 2.85493 20.1105 2.75 19.8999 2.75H18.4999C17.8854 2.75 17.2803 2.98018 16.8302 3.43033L13.2302 7.03033C12.5373 7.72322 11.3624 7.72322 10.6695 7.03033L10.6621 7.02286L7.16606 3.42687C6.71627 2.979 6.11276 2.75 5.49986 2.75H4.09986C3.89405 2.75 3.78781 2.85267 3.74674 2.94429C3.72471 2.99345 3.71878 3.04412 3.72728 3.09179ZM9.53244 15.0281L3.93021 20.7304C3.70202 20.9585 3.86898 21.25 4.09986 21.25H5.49986C6.07094 21.25 6.68744 20.9518 7.06953 20.5697L10.6695 16.9697C11.3624 16.2768 12.5373 16.2768 13.2302 16.9697L16.8302 20.5697C17.2803 21.0198 17.8854 21.25 18.4999 21.25H19.8999C20.1307 21.25 20.2977 20.9585 20.0695 20.7303L14.3695 15.0303C13.0632 13.724 10.8399 13.7232 9.53244 15.0281ZM8.46953 13.9697C10.3624 12.0768 13.5373 12.0768 15.4302 13.9697L21.1302 19.6697C22.302 20.8415 21.469 22.75 19.8999 22.75H18.4999C17.5143 22.75 16.5194 22.3802 15.7695 21.6303L12.1695 18.0303C12.0624 17.9232 11.8373 17.9232 11.7302 18.0303L8.13019 21.6303C7.51228 22.2482 6.52878 22.75 5.49986 22.75H4.09986C2.53187 22.75 1.69891 20.8442 2.86701 19.6722C2.86785 19.6714 2.86869 19.6705 2.86953 19.6697L8.46953 13.9697Z" fill="#595854"/>
</svg>
