<svg width="24" height="24" viewBox="0 0 24 24" fill="none" xmlns="http://www.w3.org/2000/svg">
<path fill-rule="evenodd" clip-rule="evenodd" d="M12 2.75C11.5164 2.75 11.0524 2.78118 10.6079 2.83851C10.1971 2.8915 9.82114 2.60143 9.76815 2.19062C9.71516 1.77981 10.0052 1.40383 10.416 1.35084C10.9236 1.28537 11.4517 1.25 12 1.25C12.4754 1.25 12.9437 1.28055 13.4029 1.33987C13.8137 1.39294 14.1037 1.76899 14.0507 2.17979C13.9976 2.59058 13.6215 2.88058 13.2107 2.82751C12.8152 2.77641 12.4111 2.75 12 2.75ZM15.1377 2.46795C15.2957 2.08506 15.7342 1.90274 16.1171 2.06074C16.9937 2.42245 17.8105 2.89628 18.5502 3.46413C18.8788 3.71635 18.9407 4.18717 18.6884 4.51574C18.4362 4.84431 17.9654 4.9062 17.6368 4.65398C17.0005 4.16547 16.2982 3.75816 15.5449 3.44733C15.162 3.28933 14.9797 2.85085 15.1377 2.46795ZM8.33567 2.57336C8.49437 2.95596 8.31287 3.39478 7.93026 3.55348C7.00405 3.93768 6.19697 4.42537 5.50934 4.93769C5.17718 5.18516 4.7073 5.11651 4.45982 4.78435C4.21235 4.45219 4.281 3.9823 4.61316 3.73483C5.38537 3.1595 6.29935 2.60607 7.35554 2.16795C7.73815 2.00925 8.17696 2.19076 8.33567 2.57336ZM2 2.25C2.41421 2.25 2.75 2.58579 2.75 3V4.14C2.75 4.55421 2.41421 4.89 2 4.89C1.58579 4.89 1.25 4.55421 1.25 4.14V3C1.25 2.58579 1.58579 2.25 2 2.25ZM19.4836 5.31138C19.8122 5.05931 20.283 5.12143 20.5351 5.45012C21.103 6.19065 21.5764 7.00765 21.9379 7.88315C22.0959 8.26602 21.9137 8.70454 21.5308 8.8626C21.148 9.02066 20.7094 8.83842 20.5514 8.45555C20.2407 7.70289 19.8335 7.00016 19.3448 6.36293C19.0928 6.03424 19.1549 5.56345 19.4836 5.31138ZM3.37696 5.79982C3.69193 6.06883 3.7292 6.54224 3.46019 6.85721C3.45233 6.86643 3.44452 6.8756 3.43676 6.88473C3.68727 7.00618 3.86 7.26292 3.86 7.56C3.86 7.97421 3.52421 8.31 3.11 8.31H2C1.58579 8.31 1.25 7.97421 1.25 7.56V6.42C1.25 6.00579 1.58579 5.67 2 5.67C2.15181 5.67 2.29308 5.7151 2.41115 5.79264C2.68674 5.56363 3.09523 5.55921 3.37696 5.79982ZM4.58 7.56C4.58 7.14579 4.91579 6.81 5.33 6.81H6.44C6.85421 6.81 7.19 7.14579 7.19 7.56C7.19 7.97421 6.85421 8.31 6.44 8.31H5.33C4.91579 8.31 4.58 7.97421 4.58 7.56ZM21.8196 9.94947C22.2303 9.89622 22.6065 10.186 22.6598 10.5968C22.7193 11.0564 22.75 11.5248 22.75 12C22.75 12.5975 22.7012 13.1841 22.6072 13.756C22.54 14.1647 22.1542 14.4415 21.7454 14.3743C21.3367 14.3071 21.0598 13.9213 21.127 13.5126C21.2079 13.0209 21.25 12.5157 21.25 12C21.25 11.5894 21.2235 11.1855 21.1722 10.7897C21.1189 10.3789 21.4088 10.0027 21.8196 9.94947ZM2 11.25C2.41421 11.25 2.75 11.5858 2.75 12C2.75 12.41 2.77668 12.8135 2.82832 13.2088C2.88196 13.6196 2.59249 13.996 2.18177 14.0497C1.77104 14.1033 1.3946 13.8138 1.34095 13.4031C1.28092 12.9435 1.25 12.4752 1.25 12C1.25 11.5858 1.58579 11.25 2 11.25ZM2.47201 15.1347C2.85458 14.9759 3.29343 15.1573 3.4522 15.5399C3.76402 16.2913 4.17228 16.9931 4.66171 17.6298C4.91414 17.9582 4.85255 18.4291 4.52415 18.6815C4.19574 18.934 3.72488 18.8724 3.47245 18.544C2.90411 17.8046 2.42952 16.9889 2.06677 16.1149C1.908 15.7323 2.08943 15.2934 2.47201 15.1347ZM21.169 16.0668C21.5338 16.263 21.6705 16.7178 21.4743 17.0826C20.9139 18.1247 20.1867 19.0633 19.3284 19.863C19.0254 20.1454 18.5508 20.1286 18.2684 19.8256C17.9861 19.5225 18.0028 19.048 18.3059 18.7656C19.0452 18.0767 19.6712 17.2685 20.1533 16.3721C20.3494 16.0073 20.8042 15.8706 21.169 16.0668ZM5.31846 19.4759C5.5709 19.1474 6.04176 19.0859 6.37017 19.3383C7.0069 19.8277 7.70872 20.236 8.46009 20.5478C8.84267 20.7066 9.0241 21.1454 8.86532 21.528C8.70655 21.9106 8.2677 22.092 7.88513 21.9332C7.01105 21.5705 6.19541 21.0959 5.45603 20.5276C5.12762 20.2751 5.06603 19.8043 5.31846 19.4759ZM16.7796 20.8156C16.9495 21.1934 16.7809 21.6374 16.4031 21.8072C15.8707 22.0466 15.3153 22.244 14.741 22.3953C14.3405 22.5008 13.9302 22.2616 13.8247 21.861C13.7192 21.4605 13.9584 21.0502 14.359 20.9447C14.8527 20.8147 15.3302 20.645 15.788 20.4391C16.1658 20.2693 16.6097 20.4379 16.7796 20.8156ZM9.95034 21.8182C10.004 21.4075 10.3804 21.118 10.7912 21.1717C11.1865 21.2233 11.59 21.25 12 21.25C12.4142 21.25 12.75 21.5858 12.75 22C12.75 22.4142 12.4142 22.75 12 22.75C11.5248 22.75 11.0565 22.7191 10.5969 22.659C10.1862 22.6054 9.8967 22.229 9.95034 21.8182Z" fill="#595854"/>
</svg>
