<svg width="24" height="24" viewBox="0 0 24 24" fill="none" xmlns="http://www.w3.org/2000/svg">
<path fill-rule="evenodd" clip-rule="evenodd" d="M11.5308 1.41484C11.854 1.15576 12.326 1.20774 12.5851 1.53093L14.4993 3.91891C14.6477 4.06164 14.7343 4.26258 14.7299 4.47485C14.7283 4.69279 14.6323 4.90824 14.449 5.05519C14.2293 5.2313 13.9408 5.26368 13.6972 5.16483C13.1399 5.04134 12.5749 4.97 11.9999 4.97C7.50409 4.97 3.85986 8.61423 3.85986 13.11C3.85986 17.6058 7.50409 21.25 11.9999 21.25C16.4957 21.25 20.1399 17.6058 20.1399 13.11C20.1399 11.2865 19.5114 9.61207 18.4899 8.25001C18.2414 7.91864 18.3085 7.44854 18.6399 7.20002C18.9713 6.95149 19.4414 7.01864 19.6899 7.35002C20.8884 8.94796 21.6399 10.9335 21.6399 13.11C21.6399 18.4342 17.3241 22.75 11.9999 22.75C6.67566 22.75 2.35986 18.4342 2.35986 13.11C2.35986 7.7858 6.67566 3.47 11.9999 3.47C12.0733 3.47 12.1464 3.47095 12.2193 3.47283L11.4147 2.46913C11.1556 2.14594 11.2076 1.67392 11.5308 1.41484ZM10.138 10.5938C10.2398 10.2871 10.5267 10.08 10.8499 10.08H13.9099C14.3241 10.08 14.6599 10.4158 14.6599 10.83C14.6599 11.2443 14.3241 11.58 13.9099 11.58H11.3912L11.129 12.37H12.3799C13.6309 12.37 14.6599 13.3827 14.6599 14.6501C14.6599 15.9011 13.6473 16.93 12.3799 16.93H10.0899C9.67569 16.93 9.3399 16.5942 9.3399 16.18C9.3399 15.7658 9.67569 15.43 10.0899 15.43H12.3799C12.8125 15.43 13.1599 15.079 13.1599 14.6501C13.1599 14.2174 12.8088 13.87 12.3799 13.87H10.0899C9.849 13.87 9.62276 13.7543 9.48176 13.559C9.34077 13.3636 9.3022 13.1124 9.37808 12.8838L10.138 10.5938Z" fill="#595854"/>
</svg>
