<svg width="24" height="24" viewBox="0 0 24 24" fill="none" xmlns="http://www.w3.org/2000/svg">
<path fill-rule="evenodd" clip-rule="evenodd" d="M5.46997 2.75C3.95119 2.75 2.71997 3.98122 2.71997 5.5C2.71997 7.01878 3.95119 8.25 5.46997 8.25C6.98875 8.25 8.21997 7.01878 8.21997 5.5C8.21997 3.98122 6.98875 2.75 5.46997 2.75ZM1.21997 5.5C1.21997 3.15279 3.12276 1.25 5.46997 1.25C7.81718 1.25 9.71997 3.15279 9.71997 5.5C9.71997 7.84721 7.81718 9.75 5.46997 9.75C3.12276 9.75 1.21997 7.84721 1.21997 5.5ZM11.25 5C11.25 4.58579 11.5858 4.25 12 4.25H14.68C17.2238 4.25 18.4034 7.39845 16.4947 9.07368L8.5038 16.0645L8.50241 16.0657C7.63641 16.8195 8.17218 18.25 9.31997 18.25H12C12.4142 18.25 12.75 18.5858 12.75 19C12.75 19.4142 12.4142 19.75 12 19.75H9.31997C6.78806 19.75 5.6038 16.6012 7.51687 14.9349C7.51665 14.9351 7.51709 14.9347 7.51687 14.9349L15.5052 7.94632C15.5051 7.94645 15.5054 7.94619 15.5052 7.94632C16.3759 7.18146 15.836 5.75 14.68 5.75H12C11.5858 5.75 11.25 5.41421 11.25 5ZM4.73619 5.5C4.73619 5.08579 5.07197 4.75 5.48619 4.75H5.49774C5.91195 4.75 6.24774 5.08579 6.24774 5.5C6.24774 5.91421 5.91195 6.25 5.49774 6.25H5.48619C5.07197 6.25 4.73619 5.91421 4.73619 5.5ZM16.97 15.75C16.2842 15.75 15.72 16.3142 15.72 17V20C15.72 20.6858 16.2842 21.25 16.97 21.25H19.97C20.6558 21.25 21.22 20.6858 21.22 20V17C21.22 16.3142 20.6558 15.75 19.97 15.75H16.97ZM14.22 17C14.22 15.4858 15.4558 14.25 16.97 14.25H19.97C21.4842 14.25 22.72 15.4858 22.72 17V20C22.72 21.5142 21.4842 22.75 19.97 22.75H16.97C15.4558 22.75 14.22 21.5142 14.22 20V17ZM17.7362 18.5C17.7362 18.0858 18.072 17.75 18.4862 17.75H18.4977C18.912 17.75 19.2477 18.0858 19.2477 18.5C19.2477 18.9142 18.912 19.25 18.4977 19.25H18.4862C18.072 19.25 17.7362 18.9142 17.7362 18.5Z" fill="#595854"/>
</svg>
