<svg width="24" height="24" viewBox="0 0 24 24" fill="none" xmlns="http://www.w3.org/2000/svg">
<path fill-rule="evenodd" clip-rule="evenodd" d="M7.57819 2.91194C4.8091 3.55437 2.75 6.03342 2.75 9C2.75 9.41421 2.41421 9.75 2 9.75C1.58579 9.75 1.25 9.41421 1.25 9C1.25 4.71579 4.71579 1.25 9 1.25C9.2702 1.25 9.51952 1.39534 9.65265 1.63048C9.78578 1.86561 9.78214 2.15417 9.64312 2.38587L8.59312 4.13587C8.38001 4.49106 7.91931 4.60623 7.56413 4.39312C7.20894 4.18001 7.09377 3.71931 7.30688 3.36413L7.57819 2.91194ZM10.1501 8.65H11.41C11.4133 8.65 11.4167 8.65 11.42 8.65C12.6294 8.65 13.671 8.88787 14.3916 9.60842C15.0221 10.2389 15.283 11.1152 15.3384 12.1346C15.3463 12.2803 15.35 12.4288 15.35 12.58V13.8499C16.3902 13.8445 16.9306 13.6287 17.2297 13.3297C17.5325 13.0268 17.75 12.4764 17.75 11.41V8.68C17.75 7.61937 17.5329 7.07103 17.2309 6.76908C16.929 6.46713 16.3806 6.25 15.32 6.25H12.59C11.5217 6.25 10.9714 6.46574 10.669 6.76663C10.3704 7.06382 10.1541 7.60312 10.1501 8.65ZM15.3499 15.3499C15.3447 16.5465 15.1045 17.5761 14.3903 18.2903C13.6682 19.0125 12.6236 19.25 11.41 19.25H8.69C7.48049 19.25 6.43692 19.0121 5.71407 18.291C4.99083 17.5695 4.75 16.5254 4.75 15.31V12.58C4.75 11.3707 4.98786 10.3285 5.71032 9.60777C6.42437 8.89546 7.45348 8.65528 8.65005 8.65009C8.65394 7.44946 8.89341 6.41743 9.61097 5.70337C10.3336 4.98425 11.3783 4.75 12.59 4.75H15.32C16.5294 4.75 17.571 4.98787 18.2916 5.70842C19.0121 6.42897 19.25 7.47063 19.25 8.68V11.41C19.25 12.6236 19.0125 13.6682 18.2903 14.3903C17.5761 15.1045 16.5465 15.3447 15.3499 15.3499ZM6.76968 10.6697C6.46714 10.9715 6.25 11.5193 6.25 12.58V15.31C6.25 16.3746 6.46917 16.9255 6.77343 17.229C7.07808 17.5329 7.62951 17.75 8.69 17.75H11.41C12.4764 17.75 13.0268 17.5325 13.3297 17.2297C13.6325 16.9268 13.85 16.3764 13.85 15.31V12.58C13.85 12.3907 13.8431 12.2177 13.83 12.0595C13.7698 11.3316 13.5789 10.9177 13.3303 10.6697C13.0273 10.3675 12.4764 10.15 11.41 10.15H8.69C7.62361 10.15 7.07269 10.3675 6.76968 10.6697ZM22 14.25C22.4142 14.25 22.75 14.5858 22.75 15C22.75 19.2842 19.2842 22.75 15 22.75C14.7298 22.75 14.4805 22.6047 14.3474 22.3695C14.2142 22.1344 14.2179 21.8458 14.3569 21.6141L15.4069 19.8641C15.62 19.5089 16.0807 19.3938 16.4359 19.6069C16.7911 19.82 16.9062 20.2807 16.6931 20.6359L16.4218 21.0881C19.1909 20.4456 21.25 17.9666 21.25 15C21.25 14.5858 21.5858 14.25 22 14.25Z" fill="#595854"/>
</svg>
