<svg width="24" height="24" viewBox="0 0 24 24" fill="none" xmlns="http://www.w3.org/2000/svg">
<path fill-rule="evenodd" clip-rule="evenodd" d="M12 2.75C6.89137 2.75 2.75 6.89137 2.75 12C2.75 17.1086 6.89137 21.25 12 21.25C17.1086 21.25 21.25 17.1086 21.25 12C21.25 6.89137 17.1086 2.75 12 2.75ZM1.25 12C1.25 6.06294 6.06294 1.25 12 1.25C17.9371 1.25 22.75 6.06294 22.75 12C22.75 17.9371 17.9371 22.75 12 22.75C6.06294 22.75 1.25 17.9371 1.25 12ZM12.1283 6.75433L7.05578 15.45H9.3C9.59316 15.45 9.9685 15.2281 10.1569 14.9141L10.1632 14.9035L10.1633 14.9036L13.4633 9.60358C13.4674 9.59698 13.4716 9.59044 13.476 9.58397C13.6608 9.30679 13.6581 8.85057 13.3863 8.43169L12.1283 6.75433ZM13.11 5.56338C12.6076 4.83874 11.5682 4.8456 11.076 5.58397C11.0677 5.59644 11.0597 5.60915 11.0522 5.6221L5.46096 15.207C5.22469 15.5788 5.21367 16.0294 5.39168 16.3854C5.48382 16.5697 5.64004 16.753 5.87034 16.8651C6.06425 16.9594 6.27788 16.9865 6.48545 16.95H9.3C10.2043 16.95 11.0268 16.3752 11.4396 15.6917L14.7311 10.4053C15.3354 9.48788 15.1399 8.35784 14.624 7.58397C14.6163 7.57243 14.6083 7.5611 14.6 7.55L13.11 5.56338ZM14.576 11.984C15.0728 11.2387 16.1272 11.2387 16.624 11.984C16.6313 11.9948 16.6382 12.0059 16.6449 12.0171L18.537 15.2037C19.0562 16.0134 18.4742 17.05 17.5 17.05H13.7C12.7258 17.05 12.1438 16.0133 12.6631 15.2037L14.5551 12.0171C14.5618 12.0059 14.5687 11.9948 14.576 11.984ZM15.6 13.1954L14.2019 15.55H16.9981L15.6 13.1954Z" fill="#595854"/>
</svg>
