<svg width="24" height="24" viewBox="0 0 24 24" fill="none" xmlns="http://www.w3.org/2000/svg">
<path fill-rule="evenodd" clip-rule="evenodd" d="M1.25 3C1.25 2.03579 2.03579 1.25 3 1.25H5.59C7.16011 1.25 7.91077 3.14247 6.83454 4.23606L6.83033 4.24034L6.83032 4.24032L4.24032 6.83032C3.1354 7.93524 1.25 7.14471 1.25 5.59V3ZM3 2.75C2.86421 2.75 2.75 2.86421 2.75 3V5.59C2.75 5.81528 3.02458 5.92474 3.17966 5.76966L5.76691 3.18241C5.84324 3.10379 5.85887 3.00412 5.81784 2.90456C5.77736 2.80636 5.69964 2.75 5.59 2.75H3ZM9.75174 8.35724C12.7491 8.87968 15.1203 11.2509 15.6428 14.2483C18.7526 14.1725 21.25 11.6281 21.25 8.5C21.25 5.32421 18.6758 2.75 15.5 2.75C12.3719 2.75 9.82751 5.24742 9.75174 8.35724ZM14.2318 15.0317C14.0076 12.2352 11.7648 9.99236 8.96829 9.76824C8.79941 9.75834 8.64279 9.75 8.5 9.75C5.32421 9.75 2.75 12.3242 2.75 15.5C2.75 18.6758 5.32421 21.25 8.5 21.25C11.6758 21.25 14.25 18.6758 14.25 15.5C14.25 15.3572 14.2417 15.2006 14.2318 15.0317ZM8.25409 8.25409C4.36374 8.38374 1.25 11.5781 1.25 15.5C1.25 19.5042 4.49579 22.75 8.5 22.75C12.4219 22.75 15.6163 19.6363 15.7459 15.7459C19.6363 15.6163 22.75 12.4219 22.75 8.5C22.75 4.49579 19.5042 1.25 15.5 1.25C11.5781 1.25 8.38374 4.36374 8.25409 8.25409ZM19.7597 17.1697C20.8646 16.0648 22.75 16.8553 22.75 18.41V21C22.75 21.9642 21.9642 22.75 21 22.75H18.41C16.8399 22.75 16.0892 20.8575 17.1654 19.7639L17.1697 19.7597L17.1697 19.7597L19.7597 17.1697ZM21.25 18.41C21.25 18.1847 20.9754 18.0753 20.8203 18.2304L18.2346 20.8161C18.2341 20.8166 18.2336 20.8171 18.2331 20.8175C18.1568 20.8962 18.1411 20.9959 18.1822 21.0955C18.2226 21.1936 18.3003 21.25 18.41 21.25H21C21.1358 21.25 21.25 21.1358 21.25 21V18.41Z" fill="#595854"/>
</svg>
