<svg width="24" height="24" viewBox="0 0 24 24" fill="none" xmlns="http://www.w3.org/2000/svg">
<path fill-rule="evenodd" clip-rule="evenodd" d="M2.80533 6.80533C2.78991 6.82075 2.75 6.87044 2.75 7V11.25H8C9.28579 11.25 10.25 10.2858 10.25 9C10.25 7.71421 9.28579 6.75 8 6.75H3C2.87044 6.75 2.82075 6.78991 2.80533 6.80533ZM10.6974 11.6379C11.353 10.967 11.75 10.0415 11.75 9C11.75 6.88579 10.1142 5.25 8 5.25H3C2.52956 5.25 2.07925 5.41009 1.74467 5.74467C1.41009 6.07925 1.25 6.52956 1.25 7V17C1.25 17.4704 1.41009 17.9207 1.74467 18.2553C2.07925 18.5899 2.52956 18.75 3 18.75H9C11.1142 18.75 12.75 17.1142 12.75 15C12.75 13.5017 11.9285 12.2437 10.6974 11.6379ZM2.75 12.75V17C2.75 17.1296 2.78991 17.1793 2.80533 17.1947C2.82075 17.2101 2.87044 17.25 3 17.25H9C10.2858 17.25 11.25 16.2858 11.25 15C11.25 13.7142 10.2858 12.75 9 12.75H2.75ZM15.75 7.5C15.75 7.08579 16.0858 6.75 16.5 6.75H19.5C19.9142 6.75 20.25 7.08579 20.25 7.5C20.25 7.91421 19.9142 8.25 19.5 8.25H16.5C16.0858 8.25 15.75 7.91421 15.75 7.5ZM13.25 14C13.25 11.3858 15.3858 9.25 18 9.25C20.6142 9.25 22.75 11.3858 22.75 14C22.75 14.4142 22.4142 14.75 22 14.75H14.8381C15.1795 16.1781 16.4721 17.25 18 17.25H19.7C20.1142 17.25 20.45 17.5858 20.45 18C20.45 18.4142 20.1142 18.75 19.7 18.75H18C15.3858 18.75 13.25 16.6142 13.25 14ZM14.8381 13.25H21.1619C20.8205 11.8219 19.5279 10.75 18 10.75C16.4721 10.75 15.1795 11.8219 14.8381 13.25Z" fill="#595854"/>
</svg>
