<svg width="24" height="24" viewBox="0 0 24 24" fill="none" xmlns="http://www.w3.org/2000/svg">
<path fill-rule="evenodd" clip-rule="evenodd" d="M7.46674 3.60221C7.46664 3.6024 7.46685 3.60201 7.46674 3.60221L2.95735 11.8111C2.35328 12.9094 3.14833 14.25 4.4 14.25H9.01565C9.0171 14.25 9.01855 14.25 9.02 14.25L13.43 14.25C14.6817 14.25 15.4769 12.9098 14.8728 11.8115L12.5433 7.57227L10.3533 3.60227C9.72857 2.46952 8.09181 2.46985 7.46674 3.60221ZM15.4519 9.75019L16.1872 11.0886C16.1871 11.0885 16.1872 11.0887 16.1872 11.0886C17.3428 13.1902 15.8182 15.75 13.43 15.75H9.75534C9.88622 18.8098 12.408 21.25 15.5 21.25C18.6758 21.25 21.25 18.6758 21.25 15.5C21.25 12.3242 18.6758 9.75 15.5 9.75C15.4839 9.75 15.4679 9.75006 15.4519 9.75019ZM8.25423 15.75H4.4C2.0118 15.75 0.487068 13.1906 1.64265 11.0889C1.64259 11.089 1.64271 11.0888 1.64265 11.0889L6.15326 2.8778C7.34843 0.710737 10.4716 0.710737 11.6667 2.8778L13.8572 6.8487L14.654 8.29803C14.932 8.26588 15.2148 8.25 15.5 8.25C19.5042 8.25 22.75 11.4958 22.75 15.5C22.75 19.5042 19.5042 22.75 15.5 22.75C11.5795 22.75 8.38599 19.6385 8.25423 15.75Z" fill="#595854"/>
</svg>
