<svg width="24" height="24" viewBox="0 0 24 24" fill="none" xmlns="http://www.w3.org/2000/svg">
<path fill-rule="evenodd" clip-rule="evenodd" d="M12 8.25C9.92893 8.25 8.25 9.92893 8.25 12C8.25 14.0711 9.92893 15.75 12 15.75C14.0711 15.75 15.75 14.0711 15.75 12C15.75 9.92893 14.0711 8.25 12 8.25ZM6.80317 11.25C7.16709 8.70578 9.35515 6.75 12 6.75C14.6449 6.75 16.8329 8.70578 17.1968 11.25H22C22.4142 11.25 22.75 11.5858 22.75 12C22.75 12.4142 22.4142 12.75 22 12.75H17.1968C16.8329 15.2942 14.6449 17.25 12 17.25C9.35515 17.25 7.16709 15.2942 6.80317 12.75H2C1.58579 12.75 1.25 12.4142 1.25 12C1.25 11.5858 1.58579 11.25 2 11.25H6.80317Z" fill="#595854"/>
</svg>
