<svg width="24" height="24" viewBox="0 0 24 24" fill="none" xmlns="http://www.w3.org/2000/svg">
<path fill-rule="evenodd" clip-rule="evenodd" d="M3.09467 3.09467C4.42914 1.7602 6.42603 1.25 9 1.25H15C17.574 1.25 19.5709 1.7602 20.9053 3.09467C22.2398 4.42914 22.75 6.42603 22.75 9V15C22.75 17.574 22.2398 19.5709 20.9053 20.9053C19.5709 22.2398 17.574 22.75 15 22.75H9C6.42603 22.75 4.42914 22.2398 3.09467 20.9053C1.7602 19.5709 1.25 17.574 1.25 15V9C1.25 6.42603 1.7602 4.42914 3.09467 3.09467ZM4.15533 4.15533C3.2398 5.07086 2.75 6.57397 2.75 9V15C2.75 17.426 3.2398 18.9291 4.15533 19.8447C5.07086 20.7602 6.57397 21.25 9 21.25H15C17.426 21.25 18.9291 20.7602 19.8447 19.8447C20.7602 18.9291 21.25 17.426 21.25 15V9C21.25 6.57397 20.7602 5.07086 19.8447 4.15533C18.9291 3.2398 17.426 2.75 15 2.75H9C6.57397 2.75 5.07086 3.2398 4.15533 4.15533ZM15.614 6.49455C16.2396 6.85924 16.5 7.54601 16.5 8.34997V9.45369C16.5003 9.46487 16.5002 9.47602 16.5 9.48714V14.49C16.5 15.7713 15.4613 16.81 14.18 16.81C12.8987 16.81 11.86 15.7713 11.86 14.49C11.86 13.2087 12.8987 12.17 14.18 12.17C14.4687 12.17 14.745 12.2227 15 12.3191V10.4518L10.75 11.6102V15.55C10.75 15.6025 10.7446 15.6537 10.7343 15.7032C10.6506 16.9083 9.64641 17.86 8.41998 17.86C7.13868 17.86 6.09998 16.8213 6.09998 15.54C6.09998 14.2587 7.13868 13.22 8.41998 13.22C8.71245 13.22 8.99228 13.2741 9.25 13.3729V11.1625C9.23613 11.0793 9.23667 10.9965 9.25 10.9167V9.21002C9.25 8.19943 9.88783 7.47198 10.7573 7.22792L10.7619 7.22663L10.7619 7.22665L13.8997 6.36726C13.9001 6.36715 13.9005 6.36704 13.9009 6.36693C14.39 6.23156 15.0464 6.16369 15.614 6.49455ZM10.75 10.0555L15 8.89704V8.34997C15 8.09637 14.9597 7.95234 14.9262 7.87867C14.897 7.81444 14.8713 7.79791 14.8585 7.79044C14.809 7.76159 14.641 7.71837 14.3003 7.81278L14.2981 7.81338L11.1607 8.67266C10.8915 8.74887 10.75 8.92131 10.75 9.21002V10.0555ZM15 14.49C15 14.0371 14.6329 13.67 14.18 13.67C13.7271 13.67 13.36 14.0371 13.36 14.49C13.36 14.9429 13.7271 15.31 14.18 15.31C14.6329 15.31 15 14.9429 15 14.49ZM8.41998 14.72C7.96711 14.72 7.59998 15.0871 7.59998 15.54C7.59998 15.9929 7.96711 16.36 8.41998 16.36C8.87286 16.36 9.23999 15.9929 9.23999 15.54C9.23999 15.0871 8.87286 14.72 8.41998 14.72Z" fill="#595854"/>
</svg>
