<svg width="24" height="24" viewBox="0 0 24 24" fill="none" xmlns="http://www.w3.org/2000/svg">
<path fill-rule="evenodd" clip-rule="evenodd" d="M9.5 2.75C5.72421 2.75 2.75 5.59251 2.75 9C2.75 11.0213 3.79021 12.8322 5.43145 13.9865C5.54078 14.0634 5.62758 14.1681 5.68285 14.2898L7.02144 17.2367C7.10312 17.4103 7.33134 17.433 7.44498 17.2985C7.44479 17.2987 7.44516 17.2983 7.44498 17.2985L7.99383 16.6399L8.92299 15.5209C9.06548 15.3493 9.27695 15.25 9.5 15.25C13.2758 15.25 16.25 12.4075 16.25 9C16.25 8.07134 16.0294 7.19692 15.6307 6.40842L15.6258 6.39869C14.587 4.26791 12.2461 2.75 9.5 2.75ZM8.59593 18.2605L8.59448 18.2622C7.76829 19.2466 6.19819 19.0296 5.65932 17.8649L5.65712 17.8602L4.39943 15.0913C2.49568 13.6794 1.25 11.4858 1.25 9C1.25 4.66749 4.9958 1.25 9.5 1.25C12.6621 1.25 15.4419 2.92925 16.8105 5.4251C20.2093 6.35398 22.75 9.30801 22.75 12.86C22.75 15.3458 21.5043 17.5394 19.6006 18.9513L18.3429 21.7202L18.3407 21.7249C17.8073 22.8776 16.2368 23.1284 15.4025 22.1186C15.4021 22.1181 15.4017 22.1176 15.4013 22.1172L14.1422 20.6028C11.9766 20.5159 10.0112 19.6434 8.59593 18.2605ZM17.5448 7.28664C17.6792 7.83697 17.75 8.41014 17.75 9C17.75 13.2172 14.201 16.5674 9.85808 16.7428L9.55915 17.1028C10.7708 18.3324 12.533 19.11 14.5 19.11C14.7229 19.11 14.9342 19.2091 15.0767 19.3805L16.5567 21.1605L16.5587 21.1629C16.6643 21.291 16.8915 21.2819 16.9785 21.0967C16.9788 21.0962 16.9791 21.0956 16.9793 21.095L18.3171 18.1498C18.3724 18.0281 18.4592 17.9234 18.5685 17.8465C20.2098 16.6923 21.25 14.8813 21.25 12.86C21.25 10.4527 19.7599 8.32408 17.5448 7.28664ZM6.25 9C6.25 8.58579 6.58579 8.25 7 8.25H12C12.4142 8.25 12.75 8.58579 12.75 9C12.75 9.41421 12.4142 9.75 12 9.75H7C6.58579 9.75 6.25 9.41421 6.25 9Z" fill="#595854"/>
</svg>
