<svg width="24" height="24" viewBox="0 0 24 24" fill="none" xmlns="http://www.w3.org/2000/svg">
<path fill-rule="evenodd" clip-rule="evenodd" d="M11.6358 1.34438C11.8623 1.21854 12.1377 1.21854 12.3642 1.34438L21.3642 6.34438C21.6023 6.47666 21.75 6.72762 21.75 7V12C21.75 12.2447 21.6306 12.4741 21.4301 12.6144L18.4172 14.7235L21.3614 16.3428C21.6011 16.4747 21.75 16.7265 21.75 17V22C21.75 22.2726 21.602 22.5238 21.3636 22.656C21.1251 22.7882 20.8337 22.7805 20.6025 22.636L16.9592 20.3589L12.3354 22.6708C12.114 22.7815 11.8522 22.7758 11.6358 22.6556L2.63577 17.6556C2.39767 17.5233 2.25 17.2724 2.25 17V7C2.25 6.72762 2.39767 6.47666 2.63577 6.34438L11.6358 1.34438ZM17.75 19.0843L20.25 20.6468V17.4435L17.75 16.0685V19.0843ZM16.25 16.0796L12.75 18.0396V20.7865L16.25 19.0365V16.0796ZM11.25 20.7254L4.55028 17.0033L6.99672 15.6578L11.25 18.0396V20.7254ZM12 16.7404L16.25 14.3604V9.63959L12 7.25959L7.75 9.63959V14.3604L12 16.7404ZM6.25 14.3565V9.64345L3.75 8.26845V15.7315L6.25 14.3565ZM4.55028 6.9967L6.99672 8.34224L11.25 5.96041V3.27464L4.55028 6.9967ZM12.75 3.27464V5.96041L17.0033 8.34224L19.4497 6.9967L12.75 3.27464ZM20.25 8.26845L17.75 9.64345V13.3595L20.25 11.6095V8.26845Z" fill="#595854"/>
</svg>
