<svg width="24" height="24" viewBox="0 0 24 24" fill="none" xmlns="http://www.w3.org/2000/svg">
<path fill-rule="evenodd" clip-rule="evenodd" d="M3.25 6C3.25 3.88579 4.88579 2.25 7 2.25H17C19.1142 2.25 20.75 3.88579 20.75 6V6.8C20.75 7.54633 20.8447 8.23368 21.0894 8.80456C21.103 8.83643 21.1144 8.86921 21.1236 8.90266C21.3274 9.6502 22.1103 10.25 23 10.25C23.4142 10.25 23.75 10.5858 23.75 11V13C23.75 13.4142 23.4142 13.75 23 13.75C22.1541 13.75 21.4109 14.3146 21.1048 15.1563L21.1023 15.1634C20.8387 15.8661 20.75 16.4749 20.75 17.2V18C20.75 20.1142 19.1142 21.75 17 21.75H7C4.88579 21.75 3.25 20.1142 3.25 18V17.2C3.25 16.4537 3.1553 15.7663 2.91064 15.1954C2.89698 15.1636 2.88555 15.1308 2.87643 15.0973C2.67255 14.3498 1.8897 13.75 1 13.75C0.585786 13.75 0.25 13.4142 0.25 13V11C0.25 10.5858 0.585786 10.25 1 10.25C1.8897 10.25 2.67255 9.6502 2.87643 8.90266C2.88251 8.88034 2.88963 8.85832 2.89775 8.83666C3.16129 8.13388 3.25 7.5251 3.25 6.8V6ZM7 3.75C5.71421 3.75 4.75 4.71421 4.75 6V6.8C4.75 7.66478 4.64126 8.44782 4.31382 9.33227C3.97406 10.5227 2.9466 11.4032 1.75 11.6677V12.3323C2.94107 12.5956 3.96458 13.4692 4.30908 14.6513C4.64861 15.4679 4.75 16.3623 4.75 17.2V18C4.75 19.2858 5.71421 20.25 7 20.25H17C18.2858 20.25 19.25 19.2858 19.25 18V17.2C19.25 16.3262 19.361 15.5359 19.6965 14.64C20.1088 13.5098 21.0495 12.6038 22.25 12.333V11.6677C21.0589 11.4044 20.0354 10.5308 19.6909 9.34873C19.3514 8.53213 19.25 7.63767 19.25 6.8V6C19.25 4.71421 18.2858 3.75 17 3.75H7ZM9.05 7.8C9.05 7.38579 9.38579 7.05 9.8 7.05H12.7C14.3142 7.05 15.55 8.28579 15.55 9.9C15.55 10.7445 15.2118 11.4854 14.6581 12C15.2118 12.5146 15.55 13.2555 15.55 14.1C15.55 15.7142 14.3142 16.95 12.7 16.95H9.8C9.38579 16.95 9.05 16.6142 9.05 16.2V7.8ZM10.55 12.75V15.45H12.7C13.4858 15.45 14.05 14.8858 14.05 14.1C14.05 13.3142 13.4858 12.75 12.7 12.75H10.55ZM12.7 11.25C13.4858 11.25 14.05 10.6858 14.05 9.9C14.05 9.11421 13.4858 8.55 12.7 8.55H10.55V11.25H12.7Z" fill="#595854"/>
</svg>
