<svg width="24" height="24" viewBox="0 0 24 24" fill="none" xmlns="http://www.w3.org/2000/svg">
<path fill-rule="evenodd" clip-rule="evenodd" d="M19.2505 4.75117C16.5827 2.09238 12.2669 2.09366 9.6103 4.75028L9.60901 4.75157C7.75622 6.59536 7.19454 9.25201 7.91681 11.5994C7.99851 11.8649 7.92674 12.1538 7.7303 12.3503L3.03532 17.0453C2.96965 17.1144 2.88065 17.2571 2.81649 17.4496C2.75121 17.6455 2.73888 17.8109 2.75212 17.9017L2.753 17.9077L3.05207 20.0811C3.08016 20.257 3.18539 20.4651 3.36277 20.6433C3.54152 20.8229 3.74479 20.9234 3.91222 20.9469L6.09821 21.2478C6.1975 21.2623 6.36657 21.2505 6.55626 21.189C6.74726 21.1271 6.88084 21.0403 6.94202 20.9774L6.95014 20.969L8.13057 19.7912L6.35964 18.0203C6.06675 17.7274 6.06675 17.2525 6.35964 16.9596C6.65254 16.6667 7.12741 16.6667 7.4203 16.9596L9.19235 18.7317L11.6602 16.2691C11.8575 16.0721 12.1478 16.0009 12.4138 16.0841C14.7459 16.8135 17.4035 16.2462 19.2602 14.3991C21.9166 11.7421 21.9164 7.40805 19.2505 4.75117ZM8.55029 3.68897C11.7937 0.446229 17.0574 0.447731 20.3094 3.68872C23.5633 6.93167 23.5633 12.2172 20.3203 15.4603L20.319 15.4616C18.1723 17.5979 15.1451 18.3308 12.4091 17.6408L8.01331 22.0273C7.73501 22.3117 7.36576 22.5034 7.01869 22.6159C6.66945 22.7291 6.26494 22.7873 5.88524 22.7326C5.88407 22.7324 5.88291 22.7323 5.88174 22.7321L3.70773 22.4329C3.15534 22.3562 2.6631 22.0667 2.29968 21.7016C1.93607 21.3363 1.65157 20.8464 1.56858 20.3032L1.56689 20.2922L1.26782 18.1182C1.26766 18.1171 1.2675 18.1159 1.26734 18.1148C1.21146 17.7266 1.27907 17.3185 1.39346 16.9753C1.50836 16.6306 1.69771 16.2697 1.96179 15.9976L1.96959 15.9896L6.36041 11.5989C5.67921 8.85818 6.39982 5.82946 8.55029 3.68897ZM14.5 8.74995C14.0858 8.74995 13.75 9.08573 13.75 9.49995C13.75 9.91416 14.0858 10.2499 14.5 10.2499C14.9142 10.2499 15.25 9.91416 15.25 9.49995C15.25 9.08573 14.9142 8.74995 14.5 8.74995ZM12.25 9.49995C12.25 8.25731 13.2573 7.24995 14.5 7.24995C15.7426 7.24995 16.75 8.25731 16.75 9.49995C16.75 10.7426 15.7426 11.7499 14.5 11.7499C13.2573 11.7499 12.25 10.7426 12.25 9.49995Z" fill="#595854"/>
</svg>
