<svg width="24" height="24" viewBox="0 0 24 24" fill="none" xmlns="http://www.w3.org/2000/svg">
<path fill-rule="evenodd" clip-rule="evenodd" d="M3.09467 3.09467C4.42914 1.7602 6.42603 1.25 9 1.25H15C17.574 1.25 19.5709 1.7602 20.9053 3.09467C22.1295 4.3188 22.66 6.10033 22.7394 8.37339C22.7464 8.41455 22.75 8.45685 22.75 8.5C22.75 8.52828 22.7484 8.55618 22.7454 8.58365C22.7485 8.7207 22.75 8.85949 22.75 9V11C22.75 11.4142 22.4142 11.75 22 11.75C21.5858 11.75 21.25 11.4142 21.25 11V9.25H16.26V11.99C16.26 12.4042 15.9242 12.74 15.51 12.74C15.0958 12.74 14.76 12.4042 14.76 11.99V9.25H9.26001V14.75H12C12.4142 14.75 12.75 15.0858 12.75 15.5C12.75 15.9142 12.4142 16.25 12 16.25H9.26001V21.25H10C10.4142 21.25 10.75 21.5858 10.75 22C10.75 22.4142 10.4142 22.75 10 22.75H9C6.42603 22.75 4.42914 22.2398 3.09467 20.9053C1.7602 19.5709 1.25 17.574 1.25 15V9C1.25 6.42603 1.7602 4.42914 3.09467 3.09467ZM7.76001 21.2013V16.25H2.79956C2.94511 17.9604 3.40862 19.098 4.15533 19.8447C4.9035 20.5928 6.04406 21.0567 7.76001 21.2013ZM2.75 14.75H7.76001V9.25H2.75V14.75ZM2.79956 7.75H7.76001V2.79871C6.04406 2.9433 4.9035 3.40716 4.15533 4.15533C3.40862 4.90204 2.94511 6.03962 2.79956 7.75ZM9.26001 2.75V7.75H14.76V2.75H9.26001ZM16.26 2.80042V7.75H21.2004C21.0549 6.03962 20.5914 4.90204 19.8447 4.15533C19.0994 3.41008 17.9648 2.94692 16.26 2.80042ZM19.8308 13.2588C20.5563 13.1866 21.233 13.5124 21.8503 14.1297C22.4739 14.7533 22.7982 15.4349 22.7264 16.1613C22.6584 16.8486 22.25 17.3907 21.8503 17.7904L21.3634 18.2773C21.3084 18.3595 21.2383 18.4289 21.158 18.4827L17.7003 21.9404C17.5487 22.0921 17.3596 22.2145 17.1882 22.3019C17.0195 22.388 16.8053 22.472 16.585 22.5027C16.5838 22.5028 16.5825 22.503 16.5813 22.5032L15.0015 22.7317C14.5107 22.8076 14.0191 22.6738 13.6689 22.3208C13.32 21.9692 13.1894 21.4792 13.2573 20.9958L13.2577 20.9926L13.4877 19.4027C13.489 19.3937 13.4905 19.3848 13.4921 19.3759C13.5281 19.178 13.6042 18.977 13.6892 18.8071C13.7729 18.6397 13.8932 18.4462 14.0497 18.2897L17.5997 14.7397C17.6065 14.7326 17.6135 14.7256 17.6207 14.7187L18.1996 14.1398C18.6029 13.7365 19.1452 13.3269 19.8308 13.2588ZM17.8937 16.567L15.1103 19.3503C15.1107 19.35 15.1107 19.35 15.1103 19.3503C15.1088 19.3521 15.0996 19.3626 15.0848 19.3845C15.0679 19.4094 15.0491 19.4414 15.0308 19.4779C14.9946 19.5503 14.9758 19.6095 14.9695 19.6366L14.7427 21.2043C14.7427 21.2046 14.7426 21.205 14.7426 21.2054C14.7398 21.2254 14.7395 21.2409 14.74 21.2524C14.7487 21.2522 14.7596 21.2513 14.773 21.2492L14.7826 21.2477L16.3769 21.0171C16.3779 21.0169 16.3896 21.0145 16.4119 21.0068C16.4389 20.9974 16.4717 20.9836 16.5068 20.9657C16.5417 20.9478 16.5736 20.9287 16.5995 20.9108C16.6122 20.902 16.6222 20.8945 16.6295 20.8885C16.6366 20.8827 16.6397 20.8797 16.6397 20.8797L19.4228 18.0966C18.7975 17.718 18.2713 17.1936 17.8937 16.567ZM20.5317 16.9877C19.848 16.681 19.3026 16.1352 19.0043 15.4564L19.2603 15.2004C19.577 14.8837 19.8098 14.7682 19.9792 14.7514C20.1087 14.7385 20.367 14.7677 20.7897 15.1904C21.2161 15.6169 21.2468 15.8803 21.2336 16.0138C21.2166 16.1865 21.1 16.4194 20.7897 16.7297L20.5317 16.9877Z" fill="#595854"/>
</svg>
