<svg width="24" height="24" viewBox="0 0 24 24" fill="none" xmlns="http://www.w3.org/2000/svg">
<path fill-rule="evenodd" clip-rule="evenodd" d="M3.09467 3.09467C4.42914 1.7602 6.42603 1.25 9 1.25H15C17.574 1.25 19.5709 1.7602 20.9053 3.09467C22.1295 4.3188 22.66 6.10033 22.7394 8.37339C22.7464 8.41455 22.75 8.45685 22.75 8.5C22.75 8.52828 22.7484 8.55618 22.7454 8.58365C22.7485 8.7207 22.75 8.85949 22.75 9V11C22.75 11.4142 22.4142 11.75 22 11.75C21.5858 11.75 21.25 11.4142 21.25 11V9.25H16.26V11.99C16.26 12.4042 15.9242 12.74 15.51 12.74C15.0958 12.74 14.76 12.4042 14.76 11.99V9.25H9.26001V14.75H12C12.4142 14.75 12.75 15.0858 12.75 15.5C12.75 15.9142 12.4142 16.25 12 16.25H9.26001V21.25H10C10.4142 21.25 10.75 21.5858 10.75 22C10.75 22.4142 10.4142 22.75 10 22.75H9C6.42603 22.75 4.42914 22.2398 3.09467 20.9053C1.7602 19.5709 1.25 17.574 1.25 15V9C1.25 6.42603 1.7602 4.42914 3.09467 3.09467ZM7.76001 21.2013V16.25H2.79956C2.94511 17.9604 3.40862 19.098 4.15533 19.8447C4.9035 20.5928 6.04406 21.0567 7.76001 21.2013ZM2.75 14.75H7.76001V9.25H2.75V14.75ZM2.79956 7.75H7.76001V2.79871C6.04406 2.9433 4.9035 3.40716 4.15533 4.15533C3.40862 4.90204 2.94511 6.03962 2.79956 7.75ZM9.26001 2.75V7.75H14.76V2.75H9.26001ZM16.26 2.80042V7.75H21.2004C21.0549 6.03962 20.5914 4.90204 19.8447 4.15533C19.0994 3.41008 17.9648 2.94692 16.26 2.80042ZM18.6408 13.9198C18.6406 13.92 18.6405 13.9202 18.6403 13.9203L16.3647 16.204L18.805 18.6443L21.0797 16.3697C21.3032 16.1461 21.3104 15.751 21.0697 15.5103L21.068 15.5086L19.4897 13.9203C19.4895 13.9201 19.4893 13.9199 19.4891 13.9197C19.262 13.6934 18.8678 13.6934 18.6408 13.9198ZM15.3036 17.2742L17.7343 19.7049L16.3696 21.0697C16.1461 21.2931 15.7593 21.3011 15.518 21.0673L13.942 19.4813L13.9403 19.4797C13.7168 19.2561 13.7088 18.8692 13.9428 18.6279L15.3036 17.2742ZM14.7028 15.7561C14.7228 15.7298 14.7448 15.7046 14.7687 15.6806L17.5787 12.8606L17.5797 12.8597C18.3925 12.0468 19.7374 12.0468 20.5503 12.8597L20.552 12.8613L22.1303 14.4496C22.1306 14.4499 22.1309 14.4502 22.1312 14.4505C22.9497 15.2699 22.9565 16.6142 22.1403 17.4303L21.61 16.9L22.1403 17.4303L19.3303 20.2403C19.3055 20.2651 19.2794 20.2878 19.2522 20.3084L17.4303 22.1303L16.9 21.6L17.4303 22.1303C16.6147 22.946 15.2836 22.9388 14.4647 22.1353L14.4579 22.1287L14.458 22.1286L12.8797 20.5403C12.8794 20.5401 12.8791 20.5398 12.8788 20.5395C12.064 19.7238 12.0715 18.3933 12.8746 17.5747L12.881 17.5682L12.8811 17.5683L14.7028 15.7561Z" fill="#595854"/>
</svg>
