<svg width="24" height="24" viewBox="0 0 24 24" fill="none" xmlns="http://www.w3.org/2000/svg">
<path fill-rule="evenodd" clip-rule="evenodd" d="M11.5308 1.41484C11.854 1.15576 12.326 1.20774 12.5851 1.53093L14.4993 3.91891C14.6477 4.06164 14.7343 4.26258 14.7299 4.47485C14.7283 4.69279 14.6323 4.90824 14.449 5.05519C14.2293 5.2313 13.9408 5.26368 13.6972 5.16483C13.1399 5.04134 12.5749 4.97 11.9999 4.97C7.50409 4.97 3.85986 8.61423 3.85986 13.11C3.85986 17.6058 7.50409 21.25 11.9999 21.25C16.4957 21.25 20.1399 17.6058 20.1399 13.11C20.1399 11.2865 19.5114 9.61207 18.4899 8.25001C18.2414 7.91864 18.3085 7.44854 18.6399 7.20002C18.9713 6.95149 19.4414 7.01864 19.6899 7.35002C20.8884 8.94796 21.6399 10.9335 21.6399 13.11C21.6399 18.4342 17.3241 22.75 11.9999 22.75C6.67566 22.75 2.35986 18.4342 2.35986 13.11C2.35986 7.7858 6.67566 3.47 11.9999 3.47C12.0733 3.47 12.1464 3.47095 12.2193 3.47283L11.4147 2.46913C11.1556 2.14594 11.2076 1.67392 11.5308 1.41484ZM9.80821 10.1297C10.0983 10.2409 10.2899 10.5194 10.2899 10.83V16.17C10.2899 16.5842 9.95407 16.92 9.53986 16.92C9.12564 16.92 8.78986 16.5842 8.78986 16.17V12.7874L8.59782 13.0012C8.32103 13.3094 7.84684 13.3348 7.53868 13.058C7.23053 12.7812 7.2051 12.307 7.48189 11.9989L8.98189 10.3289C9.18949 10.0977 9.5181 10.0185 9.80821 10.1297ZM12.1881 10.5938C12.2899 10.2871 12.5767 10.08 12.8999 10.08H15.9599C16.3741 10.08 16.7099 10.4158 16.7099 10.83C16.7099 11.2443 16.3741 11.58 15.9599 11.58H13.4412L13.179 12.37H14.4299C15.6809 12.37 16.7099 13.3826 16.7099 14.6501C16.7099 15.9011 15.6972 16.93 14.4299 16.93H12.1399C11.7257 16.93 11.3899 16.5942 11.3899 16.18C11.3899 15.7658 11.7257 15.43 12.1399 15.43H14.4299C14.8625 15.43 15.2099 15.079 15.2099 14.6501C15.2099 14.2175 14.8589 13.87 14.4299 13.87H12.1399C11.899 13.87 11.6727 13.7543 11.5317 13.559C11.3908 13.3636 11.3522 13.1124 11.4281 12.8838L12.1881 10.5938Z" fill="#595854"/>
</svg>
