<svg width="24" height="24" viewBox="0 0 24 24" fill="none" xmlns="http://www.w3.org/2000/svg">
<path fill-rule="evenodd" clip-rule="evenodd" d="M6.96045 5.15967C7.25334 5.45257 7.25334 5.92744 6.96045 6.22033L5.62078 7.56H15.1301C18.3043 7.56 20.8801 10.1358 20.8801 13.31C20.8801 16.4842 18.3043 19.06 15.1301 19.06H7.13012C6.7159 19.06 6.38012 18.7242 6.38012 18.31C6.38012 17.8958 6.7159 17.56 7.13012 17.56H15.1301C17.4759 17.56 19.3801 15.6558 19.3801 13.31C19.3801 10.9642 17.4759 9.06 15.1301 9.06H5.74078L6.96045 10.2797C7.25334 10.5726 7.25334 11.0474 6.96045 11.3403C6.66755 11.6332 6.19268 11.6332 5.89979 11.3403L3.33979 8.78033C3.04689 8.48744 3.04689 8.01257 3.33979 7.71967L5.89979 5.15967C6.19268 4.86678 6.66755 4.86678 6.96045 5.15967Z" fill="#595854"/>
</svg>
