<svg width="24" height="24" viewBox="0 0 24 24" fill="none" xmlns="http://www.w3.org/2000/svg">
<path fill-rule="evenodd" clip-rule="evenodd" d="M12 2.75C6.89137 2.75 2.75 6.89137 2.75 12C2.75 17.1086 6.89137 21.25 12 21.25C17.1086 21.25 21.25 17.1086 21.25 12C21.25 6.89137 17.1086 2.75 12 2.75ZM1.25 12C1.25 6.06294 6.06294 1.25 12 1.25C17.9371 1.25 22.75 6.06294 22.75 12C22.75 17.9371 17.9371 22.75 12 22.75C6.06294 22.75 1.25 17.9371 1.25 12ZM8.27789 8.26157C8.57203 7.97635 9.04062 7.97996 9.33033 8.26967L12 10.9393L14.6697 8.26967C14.9594 7.97996 15.428 7.97635 15.7221 8.26157L19.0221 11.4616C19.1678 11.6028 19.25 11.7971 19.25 12C19.25 12.2029 19.1678 12.3972 19.0221 12.5384L15.7221 15.7384C15.428 16.0236 14.9594 16.02 14.6697 15.7303L12 13.0607L9.33033 15.7303C9.04062 16.02 8.57203 16.0236 8.27789 15.7384L4.97789 12.5384C4.83222 12.3972 4.75 12.2029 4.75 12C4.75 11.7971 4.83222 11.6028 4.97789 11.4616L8.27789 8.26157ZM10.9393 12L8.7919 9.85256L6.57736 12L8.7919 14.1474L10.9393 12ZM13.0607 12L15.2081 14.1474L17.4226 12L15.2081 9.85256L13.0607 12Z" fill="#595854"/>
</svg>
