<svg width="24" height="24" viewBox="0 0 24 24" fill="none" xmlns="http://www.w3.org/2000/svg">
<path fill-rule="evenodd" clip-rule="evenodd" d="M12 2.75C6.89137 2.75 2.75 6.89137 2.75 12C2.75 17.1086 6.89137 21.25 12 21.25C17.1086 21.25 21.25 17.1086 21.25 12C21.25 6.89137 17.1086 2.75 12 2.75ZM1.25 12C1.25 6.06294 6.06294 1.25 12 1.25C17.9371 1.25 22.75 6.06294 22.75 12C22.75 17.9371 17.9371 22.75 12 22.75C6.06294 22.75 1.25 17.9371 1.25 12ZM9.89001 7.76999C9.75038 7.76999 9.62145 7.77814 9.49302 7.7942C9.48326 7.79542 9.47348 7.79644 9.46368 7.79728C8.72192 7.8605 8.26728 8.10118 7.98676 8.43162C7.69799 8.77179 7.5 9.31722 7.5 10.17V12.8C7.5 14.0508 7.75639 14.5565 8.031 14.7965C8.3307 15.0584 8.86221 15.2 9.89999 15.2H10.16C10.388 15.2 10.5896 15.2745 10.7285 15.3451C10.8711 15.4176 11.033 15.5293 11.1605 15.6851C11.1669 15.6929 11.1732 15.701 11.1793 15.7091L11.9715 16.762C11.9823 16.7765 11.9919 16.7874 12 16.7955C12.0081 16.7874 12.0177 16.7765 12.0285 16.762L12.0307 16.7591L12.8255 15.7027C13.0633 15.3936 13.4404 15.2 13.84 15.2H14.1C14.9547 15.2 15.4998 15.0036 15.8392 14.7163C16.1683 14.4377 16.4093 13.9841 16.4727 13.2367C16.4735 13.2267 16.4746 13.2168 16.4758 13.207C16.4918 13.0785 16.5 12.9496 16.5 12.81V10.18C16.5 9.25211 16.2677 8.69082 15.9309 8.35407C15.5933 8.01645 15.0258 7.77946 14.0863 7.76999H9.89001ZM9.32172 6.30396C9.50836 6.28123 9.69479 6.26999 9.89001 6.26999H14.0971C15.2656 6.28106 16.2771 6.57895 16.9916 7.29341C17.7073 8.00917 18 9.01788 18 10.18V12.81C18 13.0052 17.9888 13.1915 17.9661 13.3781C17.8772 14.3942 17.5183 15.2602 16.8083 15.8612C16.1052 16.4564 15.1653 16.7 14.1 16.7H13.9523L13.2315 17.6579C13.2311 17.6586 13.2306 17.6592 13.2302 17.6598C12.9386 18.0503 12.5025 18.3125 12 18.3125C11.4975 18.3125 11.0614 18.0503 10.7698 17.6598C10.7694 17.6592 10.7689 17.6586 10.7685 17.6579L10.0477 16.7H9.89999C8.83778 16.7 7.79429 16.5816 7.04399 15.926C6.26861 15.2485 6 14.1791 6 12.8V10.17C6 9.10281 6.24701 8.16322 6.84323 7.46088C7.44482 6.75221 8.30975 6.39292 9.32172 6.30396Z" fill="#595854"/>
</svg>
