<svg width="24" height="24" viewBox="0 0 24 24" fill="none" xmlns="http://www.w3.org/2000/svg">
<path fill-rule="evenodd" clip-rule="evenodd" d="M15.75 6.50999C15.75 4.31664 13.8655 2.55984 11.6324 2.77649L11.6297 2.77674C9.80824 2.94675 8.25 4.79243 8.25 6.69999V7.24999H15.75V6.50999ZM17.25 7.31195V6.50999C17.25 3.44379 14.6152 0.980854 11.4889 1.28336C8.81106 1.53411 6.75 4.10798 6.75 6.69999V7.31195C5.19497 7.47739 4.08184 7.97513 3.37354 8.81722C2.49527 9.86139 2.41305 11.2337 2.55455 12.5125L3.30499 18.5166C3.41554 19.5428 3.67444 20.6669 4.59039 21.5037C5.50153 22.3361 6.91315 22.75 9 22.75H15C17.0869 22.75 18.4985 22.3361 19.4096 21.5037C20.3255 20.6669 20.5844 19.5429 20.695 18.5166L21.4442 12.523L21.4454 12.5125C21.587 11.2337 21.5047 9.86139 20.6265 8.81722C19.9182 7.97513 18.805 7.47739 17.25 7.31195ZM4.04488 12.3423L4.79585 18.3501C4.8957 19.282 5.10255 19.9399 5.60212 20.3963C6.10847 20.8589 7.06685 21.25 9 21.25H15C16.9332 21.25 17.8915 20.8589 18.3979 20.3963C18.8975 19.9399 19.1044 19.282 19.2043 18.3501L19.2057 18.337L19.9551 12.3422C20.0826 11.1837 19.9495 10.3427 19.4785 9.78276C19.014 9.23042 18.047 8.74999 16 8.74999H8C5.95304 8.74999 4.98605 9.23042 4.52146 9.78276C4.05044 10.3428 3.91735 11.1838 4.04488 12.3423ZM7.74451 12C7.74451 11.5858 8.08029 11.25 8.49451 11.25H8.50349C8.9177 11.25 9.25349 11.5858 9.25349 12C9.25349 12.4142 8.9177 12.75 8.50349 12.75H8.49451C8.08029 12.75 7.74451 12.4142 7.74451 12ZM14.7455 12C14.7455 11.5858 15.0813 11.25 15.4955 11.25H15.5045C15.9187 11.25 16.2545 11.5858 16.2545 12C16.2545 12.4142 15.9187 12.75 15.5045 12.75H15.4955C15.0813 12.75 14.7455 12.4142 14.7455 12Z" fill="#595854"/>
</svg>
