<svg width="24" height="24" viewBox="0 0 24 24" fill="none" xmlns="http://www.w3.org/2000/svg">
<path fill-rule="evenodd" clip-rule="evenodd" d="M5.33006 2.75C4.6578 2.75 4.06006 3.30029 4.06006 4.12V6.45001C4.06006 6.60419 4.12011 6.87213 4.26137 7.18567C4.39917 7.49153 4.58117 7.76699 4.75561 7.94492L4.76374 7.95321L4.76368 7.95327L8.60368 11.9933C8.61837 12.0088 8.63239 12.0248 8.64571 12.0415C8.8988 12.3578 9.13578 12.7765 9.31078 13.2111C9.48409 13.6416 9.62006 14.1456 9.62006 14.63V19.98C9.62006 20.9693 10.755 21.5824 11.6002 21.0655L13.0033 20.1598C13.012 20.1542 13.0209 20.1488 13.0298 20.1435C13.1216 20.0895 13.2651 19.9431 13.3903 19.7014C13.4967 19.4958 13.5539 19.29 13.5671 19.136C13.3082 18.9395 13.0676 18.7207 12.8482 18.4828C12.5943 18.2091 12.3704 17.9092 12.1792 17.5897C11.6999 16.8142 11.417 15.9004 11.3834 14.9428C11.3812 14.8788 11.3801 14.8145 11.3801 14.75C11.3801 11.7158 13.8458 9.25 16.8801 9.25C16.9365 9.25 16.9926 9.25085 17.0486 9.25254C17.2704 9.25924 17.4889 9.27912 17.7034 9.31141L19.1617 8.02713C19.3345 7.84521 19.5333 7.55101 19.6899 7.20684C19.853 6.84853 19.9401 6.50245 19.9401 6.23999V4.02002C19.9401 3.32423 19.3658 2.75 18.6701 2.75H5.33006ZM19.3675 9.84467L20.1757 9.13285C20.1895 9.12075 20.2028 9.10814 20.2156 9.09506C20.539 8.76523 20.837 8.30752 21.0552 7.82816C21.2721 7.35145 21.4401 6.78753 21.4401 6.23999V4.02002C21.4401 2.49581 20.1943 1.25 18.6701 1.25H5.33006C3.78232 1.25 2.56006 2.5197 2.56006 4.12V6.45001C2.56006 6.89583 2.70501 7.38287 2.89375 7.80181C3.0851 8.22653 3.35651 8.65908 3.68015 8.99058L7.49247 13.0015C7.63495 13.1856 7.79463 13.4617 7.91933 13.7714C8.05103 14.0985 8.12006 14.4044 8.12006 14.63V19.98C8.12006 22.2285 10.6202 23.435 12.3945 22.3379L12.4068 22.3302L13.8054 21.4274C14.216 21.1805 14.5225 20.7771 14.7223 20.3911C14.8031 20.2351 14.8742 20.067 14.9308 19.893C15.5359 20.1234 16.193 20.25 16.8801 20.25C18.8808 20.25 20.6307 19.1856 21.5824 17.5872C22.0907 16.7539 22.3801 15.7805 22.3801 14.75C22.3801 12.6106 21.1542 10.7538 19.3675 9.84467ZM17.062 10.7541C17.3008 10.7649 17.5292 10.797 17.7434 10.8489C17.7738 10.8563 17.8044 10.8617 17.8351 10.8652C19.5812 11.2944 20.8801 12.8732 20.8801 14.75C20.8801 15.4979 20.6703 16.2031 20.3001 16.8089L20.3 16.8089L20.2953 16.8169C19.6064 17.9762 18.3377 18.75 16.8801 18.75C16.1326 18.75 15.4338 18.5437 14.8372 18.1868C14.7994 18.1508 14.7575 18.1184 14.712 18.0905C14.4184 17.9106 14.153 17.6888 13.9213 17.4337C13.7493 17.243 13.5958 17.0357 13.4636 16.8148L13.4636 16.8148L13.46 16.8089C13.1166 16.2469 12.9112 15.5993 12.8833 14.9115C12.8812 14.8579 12.8801 14.8041 12.8801 14.75C12.8801 12.5442 14.6743 10.75 16.8801 10.75C16.941 10.75 17.0017 10.7514 17.062 10.7541ZM16.8801 12.25C17.2943 12.25 17.6301 12.5858 17.6301 13V13.98H18.6601C19.0743 13.98 19.4101 14.3158 19.4101 14.73C19.4101 15.1442 19.0743 15.48 18.6601 15.48H17.6301V16.55C17.6301 16.9642 17.2943 17.3 16.8801 17.3C16.4658 17.3 16.1301 16.9642 16.1301 16.55V15.48H15.1101C14.6958 15.48 14.3601 15.1442 14.3601 14.73C14.3601 14.3158 14.6958 13.98 15.1101 13.98H16.1301V13C16.1301 12.5858 16.4658 12.25 16.8801 12.25Z" fill="#595854"/>
</svg>
