<svg width="24" height="24" viewBox="0 0 24 24" fill="none" xmlns="http://www.w3.org/2000/svg">
<path fill-rule="evenodd" clip-rule="evenodd" d="M12.4718 2.37624C13.438 1.68089 14.8229 1.75207 16.4906 2.24017L16.4916 2.24045C18.9462 2.9624 21.0375 5.05372 21.7595 7.50835L21.7597 7.5093C22.2479 9.177 22.319 10.5619 21.6237 11.5281C20.9182 12.5083 19.6498 12.75 18.3199 12.75H14.9999C13.8835 12.75 12.8886 12.4694 12.1927 11.697C11.5128 10.9423 11.2499 9.86048 11.2499 8.55998V5.67998C11.2499 4.35009 11.4916 3.0817 12.4718 2.37624ZM13.348 3.59371C13.0083 3.83826 12.7499 4.40986 12.7499 5.67998V8.55998C12.7499 9.69948 12.987 10.3376 13.3072 10.693C13.6113 11.0306 14.1163 11.25 14.9999 11.25H18.3199C19.5901 11.25 20.1617 10.9917 20.4062 10.6519C20.6608 10.2981 20.792 9.54317 20.3203 7.93136C19.7423 5.96625 18.0339 4.25779 16.0688 3.67964C14.4568 3.20791 13.7018 3.33909 13.348 3.59371ZM9.99482 3.86013C10.0776 4.26599 9.81565 4.6621 9.40978 4.74486C5.18104 5.60712 2.11686 9.68018 2.86024 14.2998C3.4286 17.7717 6.22911 20.571 9.69912 21.1295L9.70015 21.1297C14.3375 21.8827 18.4111 18.8015 19.2646 14.5523C19.3462 14.1462 19.7415 13.8831 20.1476 13.9647C20.5537 14.0462 20.8168 14.4416 20.7353 14.8477C19.7288 19.8585 14.9224 23.4973 9.45973 22.6103C5.3505 21.9484 2.05168 18.6483 1.37978 14.5411L1.37948 14.5392C0.503451 9.0992 4.11914 4.29278 9.11009 3.2751C9.51596 3.19234 9.91206 3.45427 9.99482 3.86013Z" fill="#595854"/>
</svg>
