<svg width="24" height="24" viewBox="0 0 24 24" fill="none" xmlns="http://www.w3.org/2000/svg">
<path fill-rule="evenodd" clip-rule="evenodd" d="M12 2.75C6.89137 2.75 2.75 6.89137 2.75 12C2.75 17.1086 6.89137 21.25 12 21.25C17.1086 21.25 21.25 17.1086 21.25 12C21.25 6.89137 17.1086 2.75 12 2.75ZM1.25 12C1.25 6.06294 6.06294 1.25 12 1.25C17.9371 1.25 22.75 6.06294 22.75 12C22.75 17.9371 17.9371 22.75 12 22.75C6.06294 22.75 1.25 17.9371 1.25 12ZM10.8292 5.66459C10.9562 5.4105 11.2159 5.25 11.5 5.25H12.5C12.7841 5.25 13.0438 5.4105 13.1708 5.66459L15.6708 10.6646C15.8561 11.0351 15.7059 11.4856 15.3354 11.6708C14.9649 11.8561 14.5144 11.7059 14.3292 11.3354L12.0365 6.75H11.9635L9.67082 11.3354C9.48558 11.7059 9.03507 11.8561 8.66459 11.6708C8.29411 11.4856 8.14394 11.0351 8.32918 10.6646L10.8292 5.66459ZM8.33541 12.3292C8.70589 12.5144 8.85606 12.9649 8.67082 13.3354L7.98142 14.7142L12 17.1254L16.0186 14.7142L15.3292 13.3354C15.1439 12.9649 15.2941 12.5144 15.6646 12.3292C16.0351 12.1439 16.4856 12.2941 16.6708 12.6646L17.6708 14.6646C17.8461 15.0151 17.7219 15.4415 17.3859 15.6431L12.3859 18.6431C12.1484 18.7856 11.8516 18.7856 11.6141 18.6431L6.61413 15.6431C6.27807 15.4415 6.15392 15.0151 6.32918 14.6646L7.32918 12.6646C7.51442 12.2941 7.96493 12.1439 8.33541 12.3292Z" fill="#595854"/>
</svg>
