<svg width="24" height="24" viewBox="0 0 24 24" fill="none" xmlns="http://www.w3.org/2000/svg">
<path fill-rule="evenodd" clip-rule="evenodd" d="M4.7371 3.88534C4.09637 4.57535 3.75 5.61497 3.75 7V17C3.75 18.385 4.09637 19.4246 4.7371 20.1147C5.36848 20.7946 6.39295 21.25 8 21.25H16C17.607 21.25 18.6315 20.7946 19.2629 20.1147C19.9036 19.4246 20.25 18.385 20.25 17V7C20.25 5.61497 19.9036 4.57535 19.2629 3.88534C18.6315 3.20538 17.607 2.75 16 2.75H8C6.39295 2.75 5.36848 3.20538 4.7371 3.88534ZM3.6379 2.86466C4.63152 1.79462 6.10705 1.25 8 1.25H16C17.893 1.25 19.3685 1.79462 20.3621 2.86466C21.3464 3.92465 21.75 5.38503 21.75 7V17C21.75 18.615 21.3464 20.0754 20.3621 21.1353C19.3685 22.2054 17.893 22.75 16 22.75H8C6.10705 22.75 4.63152 22.2054 3.6379 21.1353C2.65363 20.0754 2.25 18.615 2.25 17V7C2.25 5.38503 2.65363 3.92465 3.6379 2.86466ZM14.5 3.75C14.9142 3.75 15.25 4.08579 15.25 4.5V6.5C15.25 7.18579 15.8142 7.75 16.5 7.75H18.5C18.9142 7.75 19.25 8.08579 19.25 8.5C19.25 8.91421 18.9142 9.25 18.5 9.25H16.5C14.9858 9.25 13.75 8.01421 13.75 6.5V4.5C13.75 4.08579 14.0858 3.75 14.5 3.75ZM10.5303 12.4697C10.8232 12.7626 10.8232 13.2374 10.5303 13.5303L9.06066 15L10.5303 16.4697C10.8232 16.7626 10.8232 17.2374 10.5303 17.5303C10.2374 17.8232 9.76256 17.8232 9.46967 17.5303L7.46967 15.5303C7.17678 15.2374 7.17678 14.7626 7.46967 14.4697L9.46967 12.4697C9.76256 12.1768 10.2374 12.1768 10.5303 12.4697ZM13.4697 12.4697C13.7626 12.1768 14.2374 12.1768 14.5303 12.4697L16.5303 14.4697C16.8232 14.7626 16.8232 15.2374 16.5303 15.5303L14.5303 17.5303C14.2374 17.8232 13.7626 17.8232 13.4697 17.5303C13.1768 17.2374 13.1768 16.7626 13.4697 16.4697L14.9393 15L13.4697 13.5303C13.1768 13.2374 13.1768 12.7626 13.4697 12.4697Z" fill="#595854"/>
</svg>
