<svg width="24" height="24" viewBox="0 0 24 24" fill="none" xmlns="http://www.w3.org/2000/svg">
<path fill-rule="evenodd" clip-rule="evenodd" d="M11.4696 1.46967C11.7625 1.17678 12.2374 1.17678 12.5303 1.46967L18.5303 7.46967C18.8232 7.76256 18.8232 8.23744 18.5303 8.53033L16.5303 10.5303C16.2374 10.8232 15.7625 10.8232 15.4696 10.5303L12 7.06066L8.53028 10.5303C8.23739 10.8232 7.76251 10.8232 7.46962 10.5303L5.46962 8.53033C5.32897 8.38968 5.24995 8.19891 5.24995 8C5.24995 7.80109 5.32897 7.61032 5.46962 7.46967L11.4696 1.46967ZM7.06061 8L7.99995 8.93934L11.4696 5.46967C11.7625 5.17678 12.2374 5.17678 12.5303 5.46967L16 8.93934L16.9393 8L12 3.06066L7.06061 8ZM11.3987 8.99482C11.6916 8.70193 12.1665 8.70193 12.4594 8.99482L14.9342 11.4697C15.2271 11.7626 15.2271 12.2374 14.9342 12.5303L12.4594 15.0052C12.1665 15.2981 11.6916 15.2981 11.3987 15.0052L8.92386 12.5303C8.63097 12.2374 8.63097 11.7626 8.92386 11.4697L11.3987 8.99482ZM4.28518 8.95185C4.48409 8.95185 4.67486 9.03087 4.81551 9.17152L7.07823 11.4342C7.21888 11.5749 7.2979 11.7657 7.2979 11.9646C7.2979 12.1635 7.21888 12.3542 7.07823 12.4949L4.81551 14.7576C4.52262 15.0505 4.04774 15.0505 3.75485 14.7576L1.49213 12.4949C1.19924 12.202 1.19924 11.7271 1.49213 11.4342L3.75485 9.17152C3.8955 9.03087 4.08627 8.95185 4.28518 8.95185ZM19.2548 9.17167C19.5477 8.87878 20.0226 8.87878 20.3155 9.17167L22.5782 11.4344C22.8711 11.7273 22.8711 12.2022 22.5782 12.495L20.3155 14.7578C20.1748 14.8984 19.984 14.9774 19.7851 14.9774C19.5862 14.9774 19.3955 14.8984 19.2548 14.7578L16.9921 12.495C16.8514 12.3544 16.7724 12.1636 16.7724 11.9647C16.7724 11.7658 16.8514 11.575 16.9921 11.4344L19.2548 9.17167ZM10.5149 12L11.929 13.4142L13.3432 12L11.929 10.5858L10.5149 12ZM3.08312 11.9646L4.28518 13.1666L5.48724 11.9646L4.28518 10.7625L3.08312 11.9646ZM18.5831 11.9647L19.7851 13.1668L20.9872 11.9647L19.7851 10.7627L18.5831 11.9647ZM7.06061 16L12 20.9393L16.9393 16L16 15.0607L12.5303 18.5303C12.2374 18.8232 11.7625 18.8232 11.4696 18.5303L7.99995 15.0607L7.06061 16ZM7.46962 13.4697C7.76251 13.1768 8.23739 13.1768 8.53028 13.4697L12 16.9393L15.4696 13.4697C15.7625 13.1768 16.2374 13.1768 16.5303 13.4697L18.5303 15.4697C18.8232 15.7626 18.8232 16.2374 18.5303 16.5303L12.5303 22.5303C12.2374 22.8232 11.7625 22.8232 11.4696 22.5303L5.46962 16.5303C5.32897 16.3897 5.24995 16.1989 5.24995 16C5.24995 15.8011 5.32897 15.6103 5.46962 15.4697L7.46962 13.4697Z" fill="#595854"/>
</svg>
