<svg width="24" height="24" viewBox="0 0 24 24" fill="none" xmlns="http://www.w3.org/2000/svg">
<path fill-rule="evenodd" clip-rule="evenodd" d="M2.62709 7.16867C4.35347 3.61202 8.0146 1.25 12.2 1.25C15.0926 1.25 17.5668 2.32345 19.3962 3.93762C19.5514 4.0746 19.6431 4.26966 19.6496 4.4766C19.656 4.68353 19.5767 4.88393 19.4303 5.03033L16.6303 7.83033C16.3511 8.10953 15.9032 8.12444 15.6061 7.86443C14.8868 7.23503 13.8556 6.55 12.2 6.55C10.0096 6.55 8.17496 7.86225 7.38931 9.69544C7.37033 9.73972 7.34718 9.78197 7.32022 9.82163C7.31887 9.82639 7.31725 9.83216 7.3154 9.83877C7.30579 9.87306 7.28994 9.92965 7.27311 9.98181C7.25486 10.0384 7.23087 10.1054 7.19816 10.1778C7.03644 10.6806 6.94995 11.2828 6.94995 11.9C6.94995 12.534 7.04119 13.152 7.21146 13.6628L7.21432 13.6714L7.21427 13.6714C7.91672 15.8666 9.93216 17.35 12.2 17.35C13.5733 17.35 14.6056 16.9832 15.25 16.5C15.2575 16.4943 15.2652 16.4888 15.273 16.4834C16.0089 15.9739 16.477 15.2718 16.7301 14.65H12.2C11.7857 14.65 11.45 14.3142 11.45 13.9V10.2C11.45 9.78579 11.7857 9.45 12.2 9.45H21.6C21.9666 9.45 22.2795 9.71506 22.3397 10.0767L22.3416 10.0876C22.4415 10.6872 22.5499 11.3379 22.5499 12.2C22.5499 15.4744 21.3862 18.2887 19.3066 20.1531C17.5515 21.7952 15.0633 22.75 12.2 22.75C8.0146 22.75 4.35348 20.388 2.6271 16.8313C1.88249 15.3408 1.44995 13.728 1.44995 12C1.44995 10.272 1.88248 8.65925 2.62709 7.16867ZM12.2 2.75C8.58692 2.75 5.44926 4.78615 3.97481 7.82721L3.97082 7.83543L3.97077 7.83541C3.31663 9.14369 2.94995 10.5296 2.94995 12C2.94995 13.4704 3.31663 14.8563 3.97077 16.1646L3.97486 16.1728L3.97481 16.1728C5.44926 19.2138 8.58692 21.25 12.2 21.25C14.7332 21.25 16.8424 20.4071 18.287 19.0528L18.2999 19.0411C20.0161 17.5054 21.0499 15.1222 21.0499 12.2C21.0499 11.7271 21.0124 11.3316 20.9589 10.95H12.95V13.15H17.7C17.9133 13.15 18.1165 13.2408 18.2588 13.3998C18.4011 13.5588 18.4689 13.7708 18.4454 13.9828C18.3246 15.0693 17.6295 16.6705 16.1385 17.7086C15.1833 18.4202 13.8201 18.85 12.2 18.85C9.26925 18.85 6.68582 16.9354 5.78701 14.1329C5.55826 13.4448 5.44995 12.6645 5.44995 11.9C5.44995 11.134 5.55872 10.352 5.78844 9.66283C5.79966 9.62916 5.81326 9.59633 5.82913 9.56459C5.83967 9.54351 5.84456 9.5264 5.87317 9.42619L5.87881 9.40646C5.89204 9.36016 5.91581 9.27815 5.95277 9.19314C5.97481 9.14246 6.00563 9.08071 6.0494 9.01582C7.08435 6.69567 9.42555 5.05 12.2 5.05C13.9424 5.05 15.1728 5.65412 16.0453 6.29401L17.7805 4.55879C16.2884 3.45668 14.3897 2.75 12.2 2.75Z" fill="#595854"/>
</svg>
