<svg width="24" height="24" viewBox="0 0 24 24" fill="none" xmlns="http://www.w3.org/2000/svg">
<path fill-rule="evenodd" clip-rule="evenodd" d="M7.01329 1.8189C7.55331 1.2636 8.33088 1 9.37408 1H14.6259C15.6691 1 16.4467 1.2636 16.9867 1.8189C17.5008 2.34755 17.6936 3.04014 17.8158 3.62953L18.0735 4.86167H18.7244C19.1122 4.86167 19.4265 5.17602 19.4265 5.5638C19.4265 5.95157 19.1122 6.26592 18.7244 6.26592H18.3673L18.6291 7.51764C18.8183 7.63344 18.9844 7.77495 19.1273 7.94438C19.5977 8.50231 19.6824 9.22702 19.7325 9.77255M19.7325 9.77255L20.1546 14.3232C20.1546 14.3231 20.1546 14.3233 20.1546 14.3232C20.277 15.6256 19.2359 16.7182 17.9418 16.7182H16.5413C16.0504 16.7182 15.6115 16.615 15.2809 16.3018C15.0023 16.0379 14.8884 15.6907 14.8264 15.5016C14.8227 15.4906 14.8193 15.4801 14.816 15.4702L14.6612 15.0263C14.606 14.8637 14.5721 14.7651 14.534 14.6844C14.5002 14.6124 14.478 14.5888 14.4683 14.5799C14.4613 14.5733 14.3665 14.4835 13.9051 14.4835H10.0846C9.64267 14.4835 9.53887 14.5792 9.52151 14.5955C9.47455 14.6394 9.43222 14.7151 9.32961 15.0229L9.32654 15.0321L9.17281 15.4727C9.16901 15.4839 9.16499 15.4959 9.16071 15.5086C9.09921 15.6922 8.9846 16.0342 8.7111 16.2957C8.38249 16.6099 7.94468 16.7182 7.4484 16.7182H6.04791C4.75391 16.7182 3.71285 15.626 3.83506 14.3238C3.83505 14.324 3.83508 14.3236 3.83506 14.3238L4.25718 9.77326C4.25717 9.77337 4.25719 9.77315 4.25718 9.77326C4.30724 9.22769 4.39184 8.50244 4.86238 7.94438C5.00821 7.77143 5.17833 7.62757 5.3724 7.51045L5.63273 6.26592H5.27559C4.88782 6.26592 4.57348 5.95157 4.57348 5.5638C4.57348 5.17602 4.88782 4.86167 5.27559 4.86167H5.92648L6.18423 3.62953C6.18418 3.62977 6.18428 3.62929 6.18423 3.62953C6.30636 3.0403 6.49939 2.34734 7.01329 1.8189M17.1083 7.10591L16.4407 3.91445C16.326 3.36078 16.1945 3.01844 15.98 2.79792C15.7915 2.60405 15.4363 2.40424 14.6259 2.40424H9.37408C8.56369 2.40424 8.20851 2.60405 8.01998 2.79792C7.80552 3.01844 7.67398 3.36078 7.55925 3.91445L6.89177 7.10532C7.00193 7.09925 7.11539 7.09628 7.23214 7.09628H16.7575C16.878 7.09628 16.9949 7.09944 17.1083 7.10591ZM6.91066 8.51083C6.27244 8.55446 6.03903 8.7273 5.93593 8.84958C5.78355 9.0303 5.70846 9.3247 5.65554 9.90155L5.23318 14.4548C5.191 14.9029 5.55032 15.314 6.04791 15.314H7.4484C7.63411 15.314 7.71494 15.2895 7.74204 15.2776C7.74584 15.2717 7.75202 15.2609 7.76033 15.2433C7.78376 15.1935 7.80507 15.1327 7.84462 15.0169L7.8461 15.0125L7.99896 14.5743C8.0021 14.5649 8.00532 14.5551 8.00862 14.5452C8.09224 14.2928 8.22824 13.8823 8.56243 13.5698C8.94154 13.2153 9.4556 13.0793 10.0846 13.0793H13.9051C14.5176 13.0793 15.035 13.1929 15.4194 13.5467C15.7483 13.8495 15.8858 14.2607 15.9734 14.5229C15.9792 14.5401 15.9848 14.5567 15.9901 14.5726L16.1468 15.0217C16.1857 15.1384 16.2071 15.2001 16.23 15.2489C16.2367 15.2634 16.242 15.2729 16.2455 15.2788C16.2741 15.2906 16.3564 15.314 16.5413 15.314H17.9418C18.4394 15.314 18.7987 14.9029 18.7565 14.4548L18.3342 9.90226C18.2813 9.32541 18.2061 9.0303 18.0538 8.84958C17.9507 8.7273 17.7172 8.55446 17.079 8.51083H6.91066ZM16.2329 15.2722C16.2332 15.272 16.2354 15.2731 16.2392 15.276C16.2346 15.2737 16.2327 15.2723 16.2329 15.2722ZM16.2504 15.2863C16.2504 15.2863 16.2507 15.2866 16.2504 15.2863V15.2863ZM7.7533 15.2713C7.75354 15.2715 7.75157 15.2731 7.74669 15.2755C7.75062 15.2724 7.75306 15.2712 7.7533 15.2713ZM6.81837 10.7951C6.81837 10.4073 7.13272 10.093 7.52049 10.093H9.75511C10.1429 10.093 10.4572 10.4073 10.4572 10.7951C10.4572 11.1829 10.1429 11.4972 9.75511 11.4972H7.52049C7.13272 11.4972 6.81837 11.1829 6.81837 10.7951ZM13.5428 10.7951C13.5428 10.4073 13.8571 10.093 14.2449 10.093H16.4795C16.8673 10.093 17.1816 10.4073 17.1816 10.7951C17.1816 11.1829 16.8673 11.4972 16.4795 11.4972H14.2449C13.8571 11.4972 13.5428 11.1829 13.5428 10.7951ZM12 16.4467C12.3878 16.4467 12.7021 16.761 12.7021 17.1488V18.1786C12.7021 18.5664 12.3878 18.8807 12 18.8807C11.6122 18.8807 11.2979 18.5664 11.2979 18.1786V17.1488C11.2979 16.761 11.6122 16.4467 12 16.4467ZM2.90234 17.4974C3.27853 17.5915 3.50726 17.9727 3.41321 18.3489L2.38344 22.468C2.28939 22.8442 1.90819 23.0729 1.53199 22.9789C1.1558 22.8848 0.927082 22.5036 1.02113 22.1274L2.0509 18.0083C2.14495 17.6321 2.52615 17.4034 2.90234 17.4974ZM21.0977 17.4974C21.4738 17.4034 21.8551 17.6321 21.9491 18.0083L22.9789 22.1274C23.0729 22.5036 22.8442 22.8848 22.468 22.9789C22.0918 23.0729 21.7106 22.8442 21.6166 22.468L20.5868 18.3489C20.4927 17.9727 20.7215 17.5915 21.0977 17.4974ZM12 20.5658C12.3878 20.5658 12.7021 20.8802 12.7021 21.2679V22.2977C12.7021 22.6855 12.3878 22.9998 12 22.9998C11.6122 22.9998 11.2979 22.6855 11.2979 22.2977V21.2679C11.2979 20.8802 11.6122 20.5658 12 20.5658Z" fill="#595854"/>
</svg>
