<svg width="24" height="24" viewBox="0 0 24 24" fill="none" xmlns="http://www.w3.org/2000/svg">
<path fill-rule="evenodd" clip-rule="evenodd" d="M11.9999 2.75C9.6527 2.75 7.74991 4.65279 7.74991 7C7.74991 9.34721 9.6527 11.25 11.9999 11.25C14.3471 11.25 16.2499 9.34721 16.2499 7C16.2499 4.65279 14.3471 2.75 11.9999 2.75ZM6.24991 7C6.24991 3.82436 8.82427 1.25 11.9999 1.25C15.1755 1.25 17.7499 3.82436 17.7499 7C17.7499 10.1756 15.1755 12.75 11.9999 12.75C8.82427 12.75 6.24991 10.1756 6.24991 7ZM17.9999 14.75C17.0889 14.75 16.2608 15.1234 15.6674 15.7331C15.0993 16.3176 14.7499 17.1216 14.7499 18C14.7499 18.6094 14.9204 19.1833 15.2183 19.6663L15.2263 19.6797C15.384 19.9477 15.591 20.1951 15.8311 20.4032L15.846 20.4164C16.4128 20.9347 17.164 21.25 17.9999 21.25C19.1858 21.25 20.2155 20.6177 20.7753 19.6766L20.7817 19.6658L20.7818 19.6659C20.9481 19.3967 21.0765 19.0842 21.1482 18.7654C21.1504 18.7558 21.1527 18.7462 21.1552 18.7367C21.2179 18.5017 21.2499 18.2568 21.2499 18C21.2499 17.1739 20.9344 16.4108 20.4128 15.8322L20.4063 15.8249L20.4063 15.8249C19.8271 15.1652 18.9616 14.75 17.9999 14.75ZM14.7008 14.5791C15.5586 13.7527 16.7254 13.25 17.9999 13.25C19.3964 13.25 20.6695 13.8533 21.5302 14.8314C22.2867 15.6724 22.7499 16.7878 22.7499 18C22.7499 18.3782 22.7032 18.7485 22.6084 19.109C22.5 19.583 22.3109 20.0433 22.0614 20.4487C21.2405 21.8247 19.7318 22.75 17.9999 22.75C16.7794 22.75 15.6735 22.288 14.8411 21.5302C14.4864 21.2213 14.1776 20.8535 13.9374 20.4471C13.4978 19.7315 13.2499 18.8879 13.2499 18C13.2499 17.2513 13.4242 16.5387 13.7349 15.905C13.1753 15.8036 12.5941 15.75 11.9999 15.75C7.52278 15.75 4.15991 18.6809 4.15991 22C4.15991 22.4142 3.82413 22.75 3.40991 22.75C2.9957 22.75 2.65991 22.4142 2.65991 22C2.65991 17.5791 6.99703 14.25 11.9999 14.25C12.9332 14.25 13.8415 14.3648 14.7008 14.5791ZM19.5602 16.4097C19.8531 16.7026 19.8531 17.1774 19.5602 17.4703L19.0393 17.9913L19.589 18.5384C19.8826 18.8306 19.8837 19.3055 19.5915 19.5991C19.2993 19.8927 18.8244 19.8938 18.5308 19.6016L17.9786 19.052L17.4503 19.5803C17.1574 19.8732 16.6825 19.8732 16.3896 19.5803C16.0967 19.2874 16.0967 18.8126 16.3896 18.5197L16.9154 17.9938L16.4108 17.4916C16.1173 17.1994 16.1161 16.7245 16.4083 16.4309C16.7005 16.1374 17.1754 16.1362 17.469 16.4284L17.9761 16.9332L18.4996 16.4097C18.7925 16.1168 19.2673 16.1168 19.5602 16.4097Z" fill="#595854"/>
</svg>
