<svg width="24" height="24" viewBox="0 0 24 24" fill="none" xmlns="http://www.w3.org/2000/svg">
<path fill-rule="evenodd" clip-rule="evenodd" d="M3.09467 3.09467C4.42914 1.7602 6.42603 1.25 9 1.25H15C17.574 1.25 19.5709 1.7602 20.9053 3.09467C22.2398 4.42914 22.75 6.42603 22.75 9V15C22.75 17.574 22.2398 19.5709 20.9053 20.9053C19.5709 22.2398 17.574 22.75 15 22.75H9C6.42603 22.75 4.42914 22.2398 3.09467 20.9053C1.7602 19.5709 1.25 17.574 1.25 15V9C1.25 6.42603 1.7602 4.42914 3.09467 3.09467ZM4.15533 4.15533C3.2398 5.07086 2.75 6.57397 2.75 9V15C2.75 17.426 3.2398 18.9291 4.15533 19.8447C5.07086 20.7602 6.57397 21.25 9 21.25H15C17.426 21.25 18.9291 20.7602 19.8447 19.8447C20.7602 18.9291 21.25 17.426 21.25 15V9C21.25 6.57397 20.7602 5.07086 19.8447 4.15533C18.9291 3.2398 17.426 2.75 15 2.75H9C6.57397 2.75 5.07086 3.2398 4.15533 4.15533ZM12 8.25C12.4142 8.25 12.75 8.58579 12.75 9V15.68C12.75 16.0942 12.4142 16.43 12 16.43C11.5858 16.43 11.25 16.0942 11.25 15.68V9C11.25 8.58579 11.5858 8.25 12 8.25ZM7 9.99C7.41421 9.99 7.75 10.3258 7.75 10.74V13.94C7.75 14.3542 7.41421 14.69 7 14.69C6.58579 14.69 6.25 14.3542 6.25 13.94V10.74C6.25 10.3258 6.58579 9.99 7 9.99ZM17 9.99C17.4142 9.99 17.75 10.3258 17.75 10.74V13.94C17.75 14.3542 17.4142 14.69 17 14.69C16.5858 14.69 16.25 14.3542 16.25 13.94V10.74C16.25 10.3258 16.5858 9.99 17 9.99Z" fill="#595854"/>
</svg>
