<svg width="24" height="24" viewBox="0 0 24 24" fill="none" xmlns="http://www.w3.org/2000/svg">
<path fill-rule="evenodd" clip-rule="evenodd" d="M9.25 2C9.25 1.58579 9.58579 1.25 10 1.25H16C16.0135 1.25 16.027 1.25036 16.0405 1.25109C17.7631 1.34421 19.2629 1.71379 20.2996 2.83607C21.3279 3.94914 21.75 5.64006 21.75 7.99V16C21.75 16.1989 21.671 16.3897 21.5303 16.5303L15.5303 22.5303C15.3897 22.671 15.1989 22.75 15 22.75H9C6.43442 22.75 4.65297 22.2408 3.55965 20.9866C2.48868 19.758 2.25 17.9981 2.25 15.98V9.01C2.25 8.59579 2.58579 8.26 3 8.26C3.41421 8.26 3.75 8.59579 3.75 9.01V15.98C3.75 17.9719 4.01132 19.222 4.69035 20.0009C5.34703 20.7542 6.56558 21.25 9 21.25H14.25V19C14.25 17.8844 14.5294 16.9099 15.2197 16.2197C15.9099 15.5294 16.8844 15.25 18 15.25H20.25V7.99C20.25 5.75994 19.8371 4.54586 19.1979 3.85393C18.5698 3.17404 17.5752 2.83858 15.9795 2.75H10C9.58579 2.75 9.25 2.41421 9.25 2ZM19.1893 16.75H18C17.1156 16.75 16.5901 16.9706 16.2803 17.2803C15.9706 17.5901 15.75 18.1156 15.75 19V20.1893L19.1893 16.75ZM2.71967 1.67967C3.01256 1.38678 3.48744 1.38678 3.78033 1.67967L5.125 3.02434L6.42967 1.71967C6.72256 1.42678 7.19744 1.42678 7.49033 1.71967C7.78322 2.01256 7.78322 2.48744 7.49033 2.78033L6.18566 4.085L7.53033 5.42967C7.82322 5.72256 7.82322 6.19744 7.53033 6.49033C7.23744 6.78322 6.76256 6.78322 6.46967 6.49033L5.125 5.14566L3.74033 6.53033C3.44744 6.82322 2.97256 6.82322 2.67967 6.53033C2.38678 6.23744 2.38678 5.76256 2.67967 5.46967L4.06434 4.085L2.71967 2.74033C2.42678 2.44744 2.42678 1.97256 2.71967 1.67967ZM7 10.75C6.58579 10.75 6.25 10.4142 6.25 10C6.25 9.58579 6.58579 9.25 7 9.25H15C15.4142 9.25 15.75 9.58579 15.75 10C15.75 10.4142 15.4142 10.75 15 10.75H7ZM6.25 14C6.25 13.5858 6.58579 13.25 7 13.25H12C12.4142 13.25 12.75 13.5858 12.75 14C12.75 14.4142 12.4142 14.75 12 14.75H7C6.58579 14.75 6.25 14.4142 6.25 14Z" fill="#595854"/>
</svg>
