<svg width="24" height="24" viewBox="0 0 24 24" fill="none" xmlns="http://www.w3.org/2000/svg">
<path fill-rule="evenodd" clip-rule="evenodd" d="M8.13878 1.26907C8.40873 1.25622 8.68584 1.25 8.96997 1.25H14.97C17.5439 1.25 19.5408 1.7602 20.8753 3.09467C22.2098 4.42914 22.72 6.42603 22.72 9V15C22.72 17.574 22.2098 19.5709 20.8753 20.9053C19.5408 22.2398 17.5439 22.75 14.97 22.75H8.96997C8.68583 22.75 8.40873 22.7438 8.13877 22.7309C8.08451 22.7434 8.02802 22.75 7.96997 22.75C7.87945 22.75 7.79268 22.734 7.71234 22.7046C5.73866 22.5536 4.17312 22.0138 3.06464 20.9053C1.73017 19.5709 1.21997 17.574 1.21997 15V9C1.21997 6.42603 1.73017 4.42914 3.06464 3.09467C4.17312 1.98619 5.73865 1.44644 7.71234 1.29542C7.79268 1.26604 7.87945 1.25 7.96997 1.25C8.02802 1.25 8.08452 1.25659 8.13878 1.26907ZM7.21997 2.85324C5.7842 3.04144 4.79674 3.48389 4.1253 4.15533C3.20977 5.07086 2.71997 6.57397 2.71997 9V15C2.71997 17.426 3.20977 18.9291 4.1253 19.8447C4.79674 20.5161 5.7842 20.9586 7.21997 21.1468V2.85324ZM8.71997 21.2482V2.75178C8.8022 2.75059 8.88552 2.75 8.96997 2.75H14.97C17.396 2.75 18.8991 3.2398 19.8146 4.15533C20.7302 5.07086 21.22 6.57397 21.22 9V15C21.22 17.426 20.7302 18.9291 19.8146 19.8447C18.8991 20.7602 17.396 21.25 14.97 21.25H8.96997C8.88552 21.25 8.8022 21.2494 8.71997 21.2482ZM15.5003 8.90967C15.7932 9.20256 15.7932 9.67744 15.5003 9.97033L13.4706 12L15.5003 14.0297C15.7932 14.3226 15.7932 14.7974 15.5003 15.0903C15.2074 15.3832 14.7325 15.3832 14.4396 15.0903L11.8796 12.5303C11.5867 12.2374 11.5867 11.7626 11.8796 11.4697L14.4396 8.90967C14.7325 8.61678 15.2074 8.61678 15.5003 8.90967Z" fill="#595854"/>
</svg>
