<svg width="24" height="24" viewBox="0 0 24 24" fill="none" xmlns="http://www.w3.org/2000/svg">
<path fill-rule="evenodd" clip-rule="evenodd" d="M12.0025 1.2475C12.6108 1.2475 13.2559 1.33171 13.787 1.52539L13.7932 1.52767L18.7827 3.3975C19.5297 3.67682 20.1663 4.23756 20.6131 4.88331C21.0598 5.52916 21.36 6.32267 21.36 7.12V14.55C21.36 15.2889 21.1211 16.0878 20.7713 16.7833C20.4213 17.479 19.922 18.1476 19.329 18.5908L15.0307 21.7995C15.0303 21.7998 15.0299 21.8001 15.0296 21.8003C14.1718 22.4447 13.0734 22.745 12.01 22.745C10.9466 22.745 9.84811 22.4447 8.99038 21.8003C8.99004 21.8 8.98969 21.7997 8.98935 21.7995L4.69139 18.591C4.0984 18.1478 3.59875 17.479 3.24878 16.7833C2.89893 16.0878 2.66003 15.2889 2.66003 14.55V7.12C2.66003 6.32267 2.9602 5.52916 3.40699 4.88331C3.85366 4.23762 4.49021 3.67694 5.23713 3.39759C5.23705 3.39762 5.2372 3.39756 5.23713 3.39759L10.2268 1.52769C10.7514 1.33175 11.3952 1.2475 12.0025 1.2475ZM10.7524 2.93259C10.7523 2.93265 10.7526 2.93254 10.7524 2.93259L5.76322 4.8023C5.36024 4.95298 4.95136 5.28744 4.64058 5.73668C4.32986 6.18584 4.16003 6.68733 4.16003 7.12V14.55C4.16003 14.9911 4.31114 15.5572 4.5888 16.1092C4.86631 16.6609 5.23197 17.1223 5.58895 17.3892C5.58892 17.3892 5.58898 17.3892 5.58895 17.3892L9.89072 20.6005C10.4428 21.0156 11.2088 21.245 12.01 21.245C12.8112 21.245 13.5772 21.0156 14.1293 20.6005L14.1314 20.599L18.431 17.3892C18.7879 17.1224 19.1538 16.6608 19.4313 16.1092C19.7089 15.5572 19.86 14.9911 19.86 14.55V7.12C19.86 6.68733 19.6902 6.18584 19.3795 5.73668C19.0687 5.28744 18.6603 4.95318 18.2573 4.8025L13.2702 2.93356C12.9514 2.81786 12.4928 2.7475 12.0025 2.7475C11.5101 2.7475 11.0578 2.81863 10.7524 2.93259ZM12 8.25C10.2051 8.25 8.75003 9.70507 8.75003 11.5C8.75003 13.2949 10.2051 14.75 12 14.75C13.795 14.75 15.25 13.2949 15.25 11.5C15.25 9.70507 13.795 8.25 12 8.25ZM7.25003 11.5C7.25003 8.87665 9.37668 6.75 12 6.75C14.6234 6.75 16.75 8.87665 16.75 11.5C16.75 14.1234 14.6234 16.25 12 16.25C9.37668 16.25 7.25003 14.1234 7.25003 11.5ZM12.25 9.5C12.6642 9.5 13 9.83578 13 10.25V11.18C13 11.7837 12.6898 12.3641 12.1434 12.6847L11.3884 13.1416C11.034 13.3561 10.5729 13.2427 10.3584 12.8883C10.1439 12.534 10.2573 12.0729 10.6117 11.8584L11.3834 11.3913C11.4527 11.351 11.5 11.2739 11.5 11.18V10.25C11.5 9.83578 11.8358 9.5 12.25 9.5Z" fill="#595854"/>
</svg>
