<svg width="24" height="24" viewBox="0 0 24 24" fill="none" xmlns="http://www.w3.org/2000/svg">
<path fill-rule="evenodd" clip-rule="evenodd" d="M3.85112 3.06492L5.74499 19.2126C5.74839 19.2416 5.7501 19.2708 5.7501 19.3C5.7501 19.3495 5.75739 19.3789 5.76249 19.3937C5.7674 19.408 5.77247 19.4153 5.77626 19.4199C5.78288 19.4278 5.80924 19.4542 5.882 19.4724L5.90144 19.4775L12.0014 21.1775C12.0179 21.1821 12.0341 21.1872 12.0501 21.1929C12.0661 21.1872 12.0824 21.1821 12.0988 21.1775L18.1218 19.499C18.2265 19.4403 18.2904 19.3851 18.3239 19.3449C18.3418 19.3234 18.3475 19.3106 18.3489 19.307C18.3498 19.3048 18.3501 19.3039 18.3501 19.3C18.3501 19.2723 18.3516 19.2447 18.3547 19.2172L20.1547 3.01718C20.1562 3.00364 20.1581 2.99014 20.1603 2.9767C20.1688 2.9256 20.1563 2.88154 20.1154 2.83796C20.0694 2.78886 19.9923 2.75 19.9001 2.75H4.1001C4.02337 2.75 3.97679 2.77629 3.93953 2.81888C3.89933 2.86482 3.85809 2.94744 3.85112 3.06492ZM11.9586 21.2318C11.9586 21.2318 11.9592 21.2315 11.9606 21.2311L11.9586 21.2318ZM2.3501 3.1C2.3501 2.18299 2.99494 1.25 4.1001 1.25H19.9001C20.8774 1.25 21.8159 2.07975 21.6435 3.2005L19.8494 19.3478C19.826 20.1496 19.2153 20.6309 18.7355 20.8708C18.6926 20.8923 18.6477 20.9096 18.6014 20.9225L12.5597 22.6062C12.3935 22.6785 12.2068 22.725 12.0126 22.725C11.8552 22.725 11.6605 22.6927 11.4774 22.5887L5.50723 20.9248C5.18374 20.8419 4.8646 20.6689 4.62393 20.3801C4.38576 20.0943 4.2604 19.7378 4.25071 19.349L2.3552 3.18736C2.3518 3.15837 2.3501 3.1292 2.3501 3.1ZM7.24628 6.29425C7.38838 6.13865 7.58938 6.05 7.8001 6.05H16.2001C16.6143 6.05 16.9501 6.38579 16.9501 6.8C16.9501 7.21421 16.6143 7.55 16.2001 7.55H8.62137L8.88501 10.45H15.8001C16.0146 10.45 16.2188 10.5418 16.3611 10.7023C16.5035 10.8627 16.5703 11.0764 16.5448 11.2894L15.9448 16.2894C15.909 16.5871 15.6994 16.8349 15.4117 16.9195L12.0117 17.9195C11.8773 17.9591 11.7344 17.9602 11.5994 17.9226L7.99936 16.9226C7.67475 16.8325 7.4501 16.5369 7.4501 16.2V14.2C7.4501 13.7858 7.78588 13.45 8.2001 13.45C8.61431 13.45 8.9501 13.7858 8.9501 14.2V15.6299L11.7942 16.42L14.5143 15.6199L14.9547 11.95H8.2001C7.8122 11.95 7.4883 11.6542 7.45318 11.2679L7.05318 6.8679C7.0341 6.65805 7.10418 6.44985 7.24628 6.29425Z" fill="#595854"/>
</svg>
