<svg width="24" height="24" viewBox="0 0 24 24" fill="none" xmlns="http://www.w3.org/2000/svg">
<path fill-rule="evenodd" clip-rule="evenodd" d="M13.3192 1.97611L18.2582 4.84072C19.125 5.28625 19.65 6.25476 19.65 7.19999V16C19.65 16.8449 19.2327 17.6543 18.5685 18.1856C18.5586 18.1936 18.5485 18.2012 18.5382 18.2086L13.5382 21.8086L13.5359 21.8103C12.5752 22.4966 11.3248 22.4966 10.3641 21.8103L10.3618 21.8086L5.38408 18.2247C4.99079 17.9788 4.71338 17.6072 4.5359 17.2361C4.35242 16.8524 4.25 16.4173 4.25 16V7.09999C4.25 6.08969 4.83028 5.27842 5.58397 4.77596C5.6001 4.76521 5.61664 4.75508 5.63355 4.74562L10.6105 1.95852C11.4174 1.43557 12.534 1.38641 13.3192 1.97611ZM12.6914 3.34603L11.0931 10.5386L18.0392 6.6978C17.9322 6.46107 17.7583 6.26766 17.5646 6.17081C17.5507 6.16389 17.5371 6.15654 17.5237 6.14877L12.6914 3.34603ZM18.15 8.35054L11.5043 12.0252L18.15 15.9964V8.35054ZM17.3121 17.2431L12.6641 20.5897C12.6638 20.5899 12.6634 20.5901 12.6631 20.5904C12.6 20.6354 12.5346 20.6739 12.4676 20.706L11.059 13.5065L17.3121 17.2431ZM10.864 20.3219L9.26396 12.144C9.24411 12.0426 9.24544 11.9382 9.26786 11.8373L11.148 3.37671L6.39374 6.03909C5.96241 6.33462 5.75 6.71684 5.75 7.09999V16C5.75 16.1827 5.79758 16.3975 5.8891 16.5889C5.98213 16.7834 6.09512 16.9024 6.18587 16.9569C6.2038 16.9676 6.22126 16.9791 6.23823 16.9913L10.864 20.3219Z" fill="#595854"/>
</svg>
