<svg width="24" height="24" viewBox="0 0 24 24" fill="none" xmlns="http://www.w3.org/2000/svg">
<path fill-rule="evenodd" clip-rule="evenodd" d="M13.1391 3.13908C12.9271 3.35107 12.75 3.75946 12.75 4.62V9.37C12.75 10.2365 12.9275 10.6474 13.1399 10.8605C13.3517 11.0729 13.7594 11.25 14.62 11.25H19.37C20.2365 11.25 20.6468 11.0725 20.8597 10.8597C21.0725 10.6468 21.25 10.2365 21.25 9.37V4.62C21.25 3.75942 21.0729 3.35167 20.8605 3.13987C20.6474 2.92749 20.2365 2.75 19.37 2.75H14.62C13.7595 2.75 13.3511 2.92709 13.1391 3.13908ZM17.75 12.75H19.37C20.3835 12.75 21.2882 12.5525 21.9203 11.9203C22.5525 11.2882 22.75 10.3835 22.75 9.37V4.62C22.75 3.61058 22.5521 2.70833 21.9195 2.07763C21.2876 1.44751 20.3835 1.25 19.37 1.25H14.62C13.6105 1.25 12.7089 1.44791 12.0784 2.07842C11.4479 2.70893 11.25 3.61054 11.25 4.62V6.25H9.62C8.61054 6.25 7.70893 6.44791 7.07842 7.07842C6.44791 7.70893 6.25 8.61054 6.25 9.62V11.25H4.62C3.61058 11.25 2.70833 11.4479 2.07763 12.0805C1.44751 12.7124 1.25 13.6165 1.25 14.63V19.38C1.25 20.3895 1.44791 21.2911 2.07842 21.9216C2.70893 22.5521 3.61054 22.75 4.62 22.75H9.37C10.3835 22.75 11.2876 22.5525 11.9195 21.9224C12.5521 21.2917 12.75 20.3894 12.75 19.38V17.75H14.37C15.3835 17.75 16.2882 17.5525 16.9203 16.9203C17.5525 16.2882 17.75 15.3835 17.75 14.37V12.75ZM16.25 12.75H14.62C13.6106 12.75 12.7083 12.5521 12.0776 11.9195C11.4475 11.2876 11.25 10.3835 11.25 9.37V7.75H9.62C8.75946 7.75 8.35107 7.92709 8.13908 8.13908C7.92709 8.35107 7.75 8.75946 7.75 9.62V14.37C7.75 15.2365 7.92749 15.6474 8.13986 15.8605C8.35167 16.0729 8.75942 16.25 9.62 16.25H14.37C15.2365 16.25 15.6468 16.0725 15.8597 15.8597C16.0725 15.6468 16.25 15.2365 16.25 14.37V12.75ZM11.25 17.75H9.62C8.61058 17.75 7.70833 17.5521 7.07763 16.9195C6.44751 16.2876 6.25 15.3835 6.25 14.37V12.75H4.62C3.75942 12.75 3.35167 12.9271 3.13987 13.1395C2.92749 13.3526 2.75 13.7635 2.75 14.63V19.38C2.75 20.2405 2.92709 20.6489 3.13908 20.8609C3.35107 21.0729 3.75946 21.25 4.62 21.25H9.37C10.2365 21.25 10.6474 21.0725 10.8605 20.8601C11.0729 20.6483 11.25 20.2406 11.25 19.38V17.75Z" fill="#595854"/>
</svg>
