<svg width="24" height="24" viewBox="0 0 24 24" fill="none" xmlns="http://www.w3.org/2000/svg">
<path fill-rule="evenodd" clip-rule="evenodd" d="M14.2478 3.62056C15.4248 4.27407 16.01 5.64911 16.01 7.32002V16.67C16.01 18.3395 15.4283 19.7152 14.252 20.3692C13.0752 21.0236 11.6002 20.7907 10.1829 19.9063L7.20288 18.0463C7.00137 17.9203 6.7586 17.85 6.52 17.85H5.06C3.92439 17.85 2.93493 17.5656 2.23467 16.8653C1.53441 16.1651 1.25 15.1756 1.25 14.04V9.96002C1.25 8.82441 1.53441 7.83495 2.23467 7.13469C2.93493 6.43443 3.92439 6.15002 5.06 6.15002H6.52C6.75165 6.15002 6.9867 6.08369 7.20678 5.95133L10.1814 4.08474C11.595 3.19917 13.0703 2.96674 14.2478 3.62056ZM10.9786 5.3553C12.1348 4.63116 12.9998 4.64333 13.5197 4.93198C14.0402 5.22096 14.51 5.95092 14.51 7.32002V16.67C14.51 18.0405 14.0417 18.7699 13.523 19.0583C13.0048 19.3464 12.1398 19.3593 10.9771 18.6338C10.9771 18.6338 10.9771 18.6338 10.9771 18.6338L7.9975 16.774C7.55901 16.5 7.0414 16.35 6.52 16.35H5.06C4.15561 16.35 3.61507 16.1244 3.29533 15.8047C2.97559 15.4849 2.75 14.9444 2.75 14.04V9.96002C2.75 9.05563 2.97559 8.51509 3.29533 8.19535C3.61507 7.87561 4.15561 7.65002 5.06 7.65002H6.52C7.04677 7.65002 7.55009 7.49725 7.98873 7.23142L10.9786 5.3553ZM20 9.25002C20.4142 9.25002 20.75 9.5858 20.75 10V11.25H22C22.4142 11.25 22.75 11.5858 22.75 12C22.75 12.4142 22.4142 12.75 22 12.75H20.75V14C20.75 14.4142 20.4142 14.75 20 14.75C19.5858 14.75 19.25 14.4142 19.25 14V12.75H18C17.5858 12.75 17.25 12.4142 17.25 12C17.25 11.5858 17.5858 11.25 18 11.25H19.25V10C19.25 9.5858 19.5858 9.25002 20 9.25002Z" fill="#595854"/>
</svg>
