<svg width="24" height="24" viewBox="0 0 24 24" fill="none" xmlns="http://www.w3.org/2000/svg">
<path fill-rule="evenodd" clip-rule="evenodd" d="M11.2382 3.01928C11.238 3.01951 11.2377 3.01974 11.2374 3.01997L9.66122 4.37682C9.66087 4.37712 9.66052 4.37742 9.66017 4.37772C9.42145 4.58431 9.1168 4.74087 8.83498 4.84558C8.55284 4.95041 8.22154 5.03002 7.91001 5.03002H6.18C5.53418 5.03002 5.00001 5.5642 5.00001 6.20996V7.92004C5.00001 8.23208 4.92013 8.56086 4.81712 8.83914C4.71373 9.11845 4.56152 9.41577 4.36618 9.65018L4.36175 9.65549L3.01412 11.2426C3.01377 11.243 3.01342 11.2434 3.01306 11.2439C2.66899 11.6546 2.66899 12.3654 3.01306 12.7762C3.01342 12.7766 3.01377 12.777 3.01412 12.7774L4.3662 14.3698C4.56154 14.6042 4.71373 14.9016 4.81712 15.1809C4.92013 15.4591 5.00001 15.7879 5.00001 16.1V17.8101C5.00001 18.4558 5.53418 18.99 6.18 18.99H7.91001C8.22553 18.99 8.5568 19.0691 8.83999 19.1749C9.12269 19.2805 9.4233 19.4373 9.66012 19.6422C9.66049 19.6426 9.66085 19.6429 9.66122 19.6432L11.2359 20.9986C11.6588 21.3526 12.3751 21.3475 12.7818 21.0006C12.782 21.0004 12.7823 21.0001 12.7826 20.9999L14.3588 19.6432C14.3591 19.6429 14.3594 19.6426 14.3598 19.6424C14.5985 19.4357 14.9032 19.2792 15.185 19.1744C15.4672 19.0696 15.7985 18.99 16.11 18.99H17.81C18.4558 18.99 18.99 18.4558 18.99 17.8101V16.11C18.99 15.7944 19.0691 15.4632 19.1749 15.18C19.2805 14.8973 19.4373 14.5968 19.6421 14.36C19.6425 14.3596 19.6429 14.3592 19.6432 14.3588L20.9987 12.7841C21.3526 12.3613 21.3476 11.6451 21.0008 11.2384C21.0006 11.2381 21.0003 11.2377 21 11.2374L19.6432 9.66124C19.6429 9.66082 19.6425 9.6604 19.6421 9.65998C19.4357 9.4213 19.2792 9.11676 19.1745 8.83502C19.0696 8.55288 18.99 8.22157 18.99 7.91003V6.20996C18.99 5.5642 18.4558 5.03002 17.81 5.03002H16.11C15.7945 5.03002 15.4632 4.95091 15.18 4.84511C14.8973 4.7395 14.5968 4.58271 14.36 4.3778C14.3596 4.37748 14.3592 4.37715 14.3588 4.37682L12.7841 3.02124C12.3612 2.66733 11.6449 2.67235 11.2382 3.01928ZM10.2626 1.87992C11.2352 1.04825 12.7761 1.05281 13.7533 1.87648L13.7593 1.88151L15.3412 3.24328C15.4042 3.2979 15.5331 3.37576 15.705 3.43997C15.8768 3.50416 16.0255 3.53002 16.11 3.53002H17.81C19.2842 3.53002 20.49 4.73571 20.49 6.20996V7.91003C20.49 7.98848 20.5154 8.13718 20.5805 8.31255C20.6457 8.48782 20.7238 8.61771 20.7768 8.67884L20.7784 8.68075L22.14 10.2626C22.9717 11.2352 22.9671 12.7761 22.1435 13.7534L22.1385 13.7593L20.7784 15.3393L20.7768 15.3412C20.7222 15.4042 20.6443 15.5331 20.5801 15.705C20.5159 15.8768 20.49 16.0255 20.49 16.11V17.8101C20.49 19.2843 19.2842 20.49 17.81 20.49H16.11C16.0315 20.49 15.8828 20.5154 15.7075 20.5805C15.5322 20.6456 15.4023 20.7237 15.3412 20.7767L15.3393 20.7784L13.7593 22.1384L13.7574 22.14C12.7848 22.9716 11.2439 22.9671 10.2667 22.1434L10.2607 22.1384L8.68074 20.7784L8.67882 20.7767C8.61582 20.7221 8.48691 20.6442 8.31504 20.58C8.14322 20.5159 7.99449 20.49 7.91001 20.49H6.18C4.70582 20.49 3.50001 19.2843 3.50001 17.8101V16.1C3.50001 16.022 3.47489 15.8758 3.4104 15.7016C3.34695 15.5302 3.2701 15.3984 3.21554 15.3321L1.86589 13.7426C1.05137 12.7736 1.05138 11.2464 1.86589 10.2774L1.86829 10.2746L3.21551 8.68789C3.27008 8.62162 3.34694 8.48988 3.4104 8.31844C3.47489 8.14422 3.50001 7.998 3.50001 7.92004V6.20996C3.50001 4.73571 4.70582 3.53002 6.18 3.53002H7.91001C7.98848 3.53002 8.13719 3.50465 8.31255 3.4395C8.48782 3.37438 8.6177 3.29626 8.67882 3.24329L8.68071 3.24165L10.2607 1.88154L10.2626 1.87992ZM13.0711 6.80326C13.817 7.05979 14.3263 7.87001 14.1685 8.67195L13.9879 9.85001H15.54C16.098 9.85001 16.6166 10.0828 16.939 10.5233C17.2619 10.9645 17.3253 11.5293 17.1403 12.0608L16.03 15.4514C15.9039 15.9218 15.5983 16.2953 15.2544 16.546C14.9038 16.8017 14.4595 16.97 14 16.97H12.23C12.02 16.97 11.7764 16.9377 11.5474 16.873C11.349 16.817 11.0744 16.7127 10.8524 16.5111L10.1943 16.0027C10.1761 16.0218 10.157 16.0405 10.1372 16.0589C9.77401 16.3953 9.30016 16.46 8.91001 16.46H8.44001C8.0563 16.46 7.58054 16.4003 7.21529 16.0649C6.83404 15.7149 6.75 15.2323 6.75 14.8199V10.24C6.75 9.82765 6.83404 9.34501 7.21529 8.995C7.58054 8.65968 8.0563 8.59998 8.44001 8.59998H8.91001C9.28751 8.59998 9.75348 8.65952 10.1164 8.98188L11.168 7.42096L11.1694 7.41888C11.3728 7.11921 11.6842 6.91553 11.9919 6.80889C12.2999 6.70212 12.6895 6.66343 13.0711 6.80326ZM10.6 10.9487V14.4207L11.8364 15.3757L11.8522 15.3915C11.853 15.3919 11.8538 15.3923 11.8547 15.3928C11.8744 15.4026 11.9079 15.4161 11.9551 15.4295C12.0536 15.4573 12.16 15.47 12.23 15.47H14C14.1006 15.47 14.2412 15.4284 14.3706 15.334C14.4996 15.24 14.5635 15.1339 14.5824 15.0581L14.5889 15.0321L15.72 11.5782L15.723 11.5698C15.7447 11.5083 15.7446 11.4679 15.7421 11.4475C15.7396 11.4274 15.7337 11.4163 15.7285 11.4092C15.7235 11.4023 15.682 11.35 15.54 11.35H13.67C12.9401 11.35 12.3613 10.7267 12.4555 9.94983L12.4569 9.9381L12.692 8.40455L12.6966 8.38293C12.6966 8.38309 12.6966 8.38324 12.6966 8.38293C12.6969 8.37963 12.6988 8.34924 12.6712 8.30275C12.6414 8.25246 12.6031 8.2283 12.5828 8.22156L12.5686 8.21682L12.5591 8.21322C12.5572 8.21302 12.5538 8.2128 12.5486 8.21293C12.5334 8.21331 12.5104 8.21671 12.4831 8.22617C12.4558 8.23565 12.4326 8.24829 12.4166 8.25977C12.4113 8.2636 12.4078 8.26656 12.4057 8.26838L10.6 10.9487ZM11.843 15.3864C11.843 15.3864 11.8434 15.3866 11.8441 15.3871L11.843 15.3864ZM8.2568 10.1111C8.25304 10.1415 8.25 10.1835 8.25 10.24V14.8199C8.25 14.8764 8.25304 14.9185 8.2568 14.9488C8.29729 14.9549 8.35653 14.96 8.44001 14.96H8.91001C8.99416 14.96 9.05323 14.9545 9.09294 14.9482C9.09681 14.9184 9.10001 14.8766 9.10001 14.8199V10.24C9.10001 10.1833 9.09678 10.1414 9.09288 10.1116C9.05302 10.1053 8.99396 10.1 8.91001 10.1H8.44001C8.35653 10.1 8.29729 10.105 8.2568 10.1111Z" fill="#595854"/>
</svg>
