<svg width="24" height="24" viewBox="0 0 24 24" fill="none" xmlns="http://www.w3.org/2000/svg">
<path fill-rule="evenodd" clip-rule="evenodd" d="M7.79874 3.31013C7.29944 3.63894 6.96953 4.20657 6.83548 5.4222C6.8346 5.43017 6.8336 5.43813 6.83246 5.44607C6.77004 5.88302 6.75 6.39105 6.75 7V17C6.75 17.609 6.77004 18.117 6.83246 18.5539C6.8336 18.5619 6.8346 18.5698 6.83548 18.5778C6.96953 19.7934 7.29944 20.3611 7.79874 20.6899C8.36555 21.0631 9.31741 21.25 11 21.25H13C14.6826 21.25 15.6345 21.0631 16.2013 20.6899C16.7006 20.3611 17.0305 19.7934 17.1645 18.5778C17.1654 18.5698 17.1664 18.5619 17.1675 18.5539C17.23 18.117 17.25 17.609 17.25 17V7C17.25 6.39105 17.23 5.88302 17.1675 5.44607C17.1664 5.43813 17.1654 5.43017 17.1645 5.4222C17.0305 4.20657 16.7006 3.63894 16.2013 3.31013C15.6345 2.93687 14.6826 2.75 13 2.75H11C9.31741 2.75 8.36555 2.93687 7.79874 3.31013ZM6.97376 2.05737C7.94445 1.41813 9.30259 1.25 11 1.25H13C14.6974 1.25 16.0555 1.41813 17.0262 2.05737C17.8922 2.62762 18.3385 3.48913 18.5533 4.58H18.67C19.9957 4.58 21.1252 4.72896 21.8635 5.46908C22.6011 6.20853 22.75 7.33969 22.75 8.67V15.33C22.75 16.6603 22.6011 17.7915 21.8635 18.5309C21.1252 19.271 19.9957 19.42 18.67 19.42H18.5533C18.3385 20.5109 17.8922 21.3724 17.0262 21.9426C16.0555 22.5819 14.6974 22.75 13 22.75H11C9.30259 22.75 7.94445 22.5819 6.97376 21.9426C6.10783 21.3724 5.66147 20.5109 5.44669 19.42H5.33C4.00431 19.42 2.87479 19.271 2.13651 18.5309C1.39891 17.7915 1.25 16.6603 1.25 15.33V8.67C1.25 7.33969 1.39891 6.20853 2.13651 5.46908C2.87479 4.72896 4.00431 4.58 5.33 4.58H5.44669C5.66147 3.48913 6.10783 2.62762 6.97376 2.05737ZM5.26987 6.08013C3.97952 6.08566 3.45625 6.27002 3.19849 6.52842C2.93609 6.79147 2.75 7.33031 2.75 8.67V15.33C2.75 16.6697 2.93609 17.2085 3.19849 17.4716C3.45625 17.73 3.97952 17.9143 5.26987 17.9199C5.25504 17.6239 5.25 17.3169 5.25 17V7C5.25 6.68311 5.25504 6.37607 5.26987 6.08013ZM18.7301 17.9199C20.0205 17.9143 20.5438 17.73 20.8015 17.4716C21.0639 17.2085 21.25 16.6697 21.25 15.33V8.67C21.25 7.33031 21.0639 6.79147 20.8015 6.52842C20.5438 6.27002 20.0205 6.08566 18.7301 6.08013C18.745 6.37607 18.75 6.68311 18.75 7V17C18.75 17.3169 18.745 17.6239 18.7301 17.9199Z" fill="#595854"/>
</svg>
