<svg width="24" height="24" viewBox="0 0 24 24" fill="none" xmlns="http://www.w3.org/2000/svg">
<path fill-rule="evenodd" clip-rule="evenodd" d="M3.09467 3.09467C4.42914 1.7602 6.42603 1.25 9 1.25H15C17.574 1.25 19.5709 1.7602 20.9053 3.09467C22.2398 4.42914 22.75 6.42603 22.75 9V15C22.75 17.574 22.2398 19.5709 20.9053 20.9053C19.5709 22.2398 17.574 22.75 15 22.75H9C6.42603 22.75 4.42914 22.2398 3.09467 20.9053C1.7602 19.5709 1.25 17.574 1.25 15V9C1.25 6.42603 1.7602 4.42914 3.09467 3.09467ZM4.15533 4.15533C3.2398 5.07086 2.75 6.57397 2.75 9V15C2.75 17.426 3.2398 18.9291 4.15533 19.8447C5.07086 20.7602 6.57397 21.25 9 21.25H15C17.426 21.25 18.9291 20.7602 19.8447 19.8447C20.7602 18.9291 21.25 17.426 21.25 15V9C21.25 6.57397 20.7602 5.07086 19.8447 4.15533C18.9291 3.2398 17.426 2.75 15 2.75H9C6.57397 2.75 5.07086 3.2398 4.15533 4.15533ZM11.3369 4.33802C11.7675 4.12361 12.265 4.124 12.6954 4.33918L12.7043 4.34362C13.1516 4.57473 13.5191 4.96101 13.7731 5.37208C14.0268 5.78288 14.21 6.28797 14.21 6.8V8.70733L17.9949 10.3404C18.3864 10.5066 18.6945 10.8092 18.9015 11.1259C19.1091 11.4434 19.26 11.8438 19.26 12.26V13.19C19.26 13.6811 19.0645 14.1736 18.6213 14.463C18.1793 14.7516 17.6511 14.7336 17.2022 14.5383C17.2015 14.538 17.2008 14.5377 17.2 14.5374L14.2 13.2478V14.6942C14.2 14.6942 14.2 14.6943 14.2 14.6942C14.2013 14.6984 14.2031 14.7033 14.2051 14.7082C14.2067 14.7124 14.2085 14.7162 14.2101 14.7195L15.8303 16.3497C15.8308 16.3501 15.8312 16.3505 15.8316 16.351C16.0402 16.5602 16.1557 16.8264 16.2094 17.0584C16.2629 17.2894 16.2766 17.5797 16.1803 17.8608L15.8615 18.8172C15.5795 19.6633 14.6058 20.0817 13.7978 19.6674C13.7464 19.641 13.6982 19.6088 13.6542 19.5714L12.0097 18.1731C12.0073 18.1727 12.0045 18.1725 12.0013 18.1725C12.0011 18.1725 12.0014 18.1725 12.0013 18.1725L10.3442 19.5728C10.2986 19.6113 10.2487 19.6442 10.1954 19.6708C9.37768 20.0797 8.418 19.66 8.1378 18.8051C8.13748 18.8041 8.13716 18.8032 8.13685 18.8022L7.81968 17.8508C7.72341 17.5696 7.73708 17.2794 7.79057 17.0484C7.84438 16.8159 7.96027 16.5491 8.16967 16.3397L8.17448 16.3349L9.81885 14.7201C9.82069 14.7164 9.82261 14.7122 9.8245 14.7077C9.82578 14.7046 9.82694 14.7017 9.82797 14.6989C9.82872 14.6968 9.82939 14.6949 9.83 14.6931V13.2478L6.82618 14.539C6.37782 14.7312 5.84731 14.7539 5.40295 14.4617C4.95868 14.1695 4.77 13.6749 4.77 13.19V12.26C4.77 11.8393 4.92653 11.4379 5.13382 11.1235C5.34114 10.809 5.64787 10.5076 6.03267 10.3415L9.82 8.70733V6.8C9.82 6.29198 9.99803 5.78555 10.2514 5.37121C10.5041 4.95801 10.875 4.56582 11.3369 4.33802ZM12.0132 5.67777C12.0121 5.67805 12.0095 5.67879 12.0054 5.68082L12.001 5.68303C11.8539 5.75538 11.6755 5.91761 11.5311 6.15379C11.387 6.38945 11.32 6.62802 11.32 6.8V8.87C11.32 9.14187 11.2202 9.38048 11.1069 9.55295C10.994 9.7248 10.8162 9.90969 10.5706 10.0171L10.5671 10.0186L6.62733 11.7185C6.62726 11.7186 6.62739 11.7185 6.62733 11.7185C6.57209 11.7425 6.47376 11.8162 6.38618 11.949C6.29847 12.0821 6.27 12.2007 6.27 12.26V13.1454L9.57968 11.7227C9.94532 11.5611 10.3977 11.538 10.7843 11.7919C11.1712 12.0461 11.33 12.4713 11.33 12.87V14.72C11.33 14.935 11.2713 15.1361 11.208 15.2873C11.1451 15.4375 11.0453 15.6154 10.9003 15.7603L10.8955 15.7651L9.25468 17.3765C9.25377 17.3794 9.25282 17.3828 9.25193 17.3866C9.25096 17.3908 9.25028 17.3946 9.24982 17.3977L9.54524 18.284L11.0558 17.0072L11.0576 17.0057C11.5919 16.557 12.4119 16.569 12.9413 16.9965L12.9558 17.0086L14.4576 18.2856L14.7502 17.4077C14.7497 17.4046 14.749 17.4008 14.7481 17.3966C14.7471 17.3924 14.746 17.3887 14.745 17.3855L13.1297 15.7603C13.1292 15.7599 13.1288 15.7594 13.1283 15.759C12.9771 15.6073 12.877 15.4248 12.8149 15.2718C12.7528 15.1184 12.7 14.9233 12.7 14.72V12.87C12.7 12.4778 12.852 12.0505 13.2435 11.7947C13.6309 11.5415 14.079 11.5702 14.4347 11.7161L14.4462 11.7209L17.76 13.1454V12.26C17.76 12.1962 17.7309 12.0766 17.646 11.9466C17.561 11.8167 17.4652 11.745 17.4083 11.7209L17.4029 11.7187L13.467 10.0204C13.2116 9.91311 13.0296 9.7248 12.9151 9.54634C12.7992 9.36578 12.71 9.12976 12.71 8.87V6.8C12.71 6.63203 12.6432 6.39712 12.4969 6.16042C12.3529 5.92726 12.1735 5.75989 12.0221 5.67964C12.0194 5.67848 12.0177 5.67798 12.0168 5.67777L12.015 5.6775L12.0132 5.67777ZM14.4385 18.3428C14.4385 18.3429 14.4385 18.3428 14.4385 18.3428V18.3428Z" fill="#595854"/>
</svg>
