<svg width="24" height="24" viewBox="0 0 24 24" fill="none" xmlns="http://www.w3.org/2000/svg">
<path fill-rule="evenodd" clip-rule="evenodd" d="M3.09467 3.09467C4.42914 1.7602 6.42603 1.25 9 1.25H15C17.574 1.25 19.5709 1.7602 20.9053 3.09467C22.2398 4.42914 22.75 6.42603 22.75 9V15C22.75 17.574 22.2398 19.5709 20.9053 20.9053C19.5709 22.2398 17.574 22.75 15 22.75H9C6.42603 22.75 4.42914 22.2398 3.09467 20.9053C1.7602 19.5709 1.25 17.574 1.25 15V9C1.25 6.42603 1.7602 4.42914 3.09467 3.09467ZM4.15533 4.15533C3.2398 5.07086 2.75 6.57397 2.75 9V15C2.75 17.426 3.2398 18.9291 4.15533 19.8447C5.07086 20.7602 6.57397 21.25 9 21.25H15C17.426 21.25 18.9291 20.7602 19.8447 19.8447C20.7602 18.9291 21.25 17.426 21.25 15V9C21.25 6.57397 20.7602 5.07086 19.8447 4.15533C18.9291 3.2398 17.426 2.75 15 2.75H9C6.57397 2.75 5.07086 3.2398 4.15533 4.15533ZM14.6262 5.51986C14.8913 5.83807 14.8483 6.31099 14.5301 6.57616L14.3215 6.75H15.45C16.4142 6.75 17.2 7.53579 17.2 8.5V13.7621C18.2423 14.0824 19 15.0527 19 16.2C19 17.6083 17.8583 18.75 16.45 18.75C15.0417 18.75 13.9 17.6083 13.9 16.2C13.9 15.0527 14.6577 14.0824 15.7 13.7621V8.5C15.7 8.36421 15.5858 8.25 15.45 8.25H14.3215L14.5301 8.42384C14.8483 8.68901 14.8913 9.16193 14.6262 9.48014C14.361 9.79835 13.8881 9.84134 13.5698 9.57616L11.7699 8.07616C11.5989 7.93367 11.5 7.72258 11.5 7.5C11.5 7.27742 11.5989 7.06633 11.7699 6.92384L13.5698 5.42384C13.8881 5.15866 14.361 5.20165 14.6262 5.51986ZM7.70001 6.75C7.03727 6.75 6.5 7.28727 6.5 7.95001C6.5 8.61274 7.03726 9.14999 7.70001 9.14999C8.36277 9.14999 8.90002 8.61274 8.90002 7.95001C8.90002 7.28727 8.36275 6.75 7.70001 6.75ZM5 7.95001C5 6.45884 6.20884 5.25 7.70001 5.25C9.19118 5.25 10.4 6.45884 10.4 7.95001C10.4 9.23499 9.50239 10.3103 8.29999 10.5831V13.7621C9.34229 14.0824 10.1 15.0527 10.1 16.2C10.1 17.6083 8.95831 18.75 7.54999 18.75C6.14166 18.75 5 17.6083 5 16.2C5 15.0527 5.75768 14.0824 6.79999 13.7621V10.4964C5.75133 10.1257 5 9.12561 5 7.95001ZM7.54999 15.15C6.97011 15.15 6.5 15.6201 6.5 16.2C6.5 16.7799 6.97009 17.25 7.54999 17.25C8.12989 17.25 8.59998 16.7799 8.59998 16.2C8.59998 15.6201 8.12987 15.15 7.54999 15.15ZM16.45 15.15C15.8701 15.15 15.4 15.6201 15.4 16.2C15.4 16.7799 15.8701 17.25 16.45 17.25C17.0299 17.25 17.5 16.7799 17.5 16.2C17.5 15.6201 17.0299 15.15 16.45 15.15Z" fill="#595854"/>
</svg>
