<svg width="24" height="24" viewBox="0 0 24 24" fill="none" xmlns="http://www.w3.org/2000/svg">
<path fill-rule="evenodd" clip-rule="evenodd" d="M12 2.75C6.89421 2.75 2.75 6.89421 2.75 12C2.75 17.1058 6.89421 21.25 12 21.25C17.1058 21.25 21.25 17.1058 21.25 12C21.25 6.89421 17.1058 2.75 12 2.75ZM1.25 12C1.25 6.06579 6.06579 1.25 12 1.25C17.9342 1.25 22.75 6.06579 22.75 12C22.75 17.9342 17.9342 22.75 12 22.75C6.06579 22.75 1.25 17.9342 1.25 12ZM8.98999 9.88C7.8142 9.88 6.87 10.8242 6.87 12C6.87 13.1741 7.8225 14.12 8.98999 14.12C9.51161 14.12 10.0016 13.9173 10.3901 13.5822C10.7037 13.3116 11.1773 13.3465 11.4479 13.6601C11.7185 13.9737 11.6836 14.4473 11.3699 14.7179C10.7384 15.2627 9.90837 15.62 8.98999 15.62C6.99748 15.62 5.37 14.0059 5.37 12C5.37 9.99579 6.98578 8.38 8.98999 8.38C9.90942 8.38 10.7471 8.72136 11.3817 9.29251C11.6896 9.5696 11.7146 10.0438 11.4375 10.3517C11.1604 10.6596 10.6862 10.6845 10.3783 10.4074C10.0129 10.0786 9.53056 9.88 8.98999 9.88ZM15.99 9.88C14.8142 9.88 13.87 10.8242 13.87 12C13.87 13.1741 14.8225 14.12 15.99 14.12C16.5116 14.12 17.0016 13.9173 17.3901 13.5822C17.7037 13.3116 18.1773 13.3465 18.4479 13.6601C18.7185 13.9737 18.6836 14.4473 18.3699 14.7179C17.7384 15.2627 16.9084 15.62 15.99 15.62C13.9975 15.62 12.37 14.0059 12.37 12C12.37 9.99579 13.9858 8.38 15.99 8.38C16.9094 8.38 17.7471 8.72136 18.3817 9.29251C18.6896 9.5696 18.7146 10.0438 18.4375 10.3517C18.1604 10.6596 17.6862 10.6845 17.3783 10.4074C17.0129 10.0786 16.5306 9.88 15.99 9.88Z" fill="#595854"/>
</svg>
