<svg width="24" height="24" viewBox="0 0 24 24" fill="none" xmlns="http://www.w3.org/2000/svg">
<path fill-rule="evenodd" clip-rule="evenodd" d="M12 2.75C6.89137 2.75 2.75 6.89137 2.75 12C2.75 17.1086 6.89137 21.25 12 21.25C17.1086 21.25 21.25 17.1086 21.25 12C21.25 6.89137 17.1086 2.75 12 2.75ZM1.25 12C1.25 6.06294 6.06294 1.25 12 1.25C17.9371 1.25 22.75 6.06294 22.75 12C22.75 17.9371 17.9371 22.75 12 22.75C6.06294 22.75 1.25 17.9371 1.25 12ZM10.355 9.23276C10.1248 9.36505 9.85 9.72507 9.85 10.52V13.48C9.85 14.2685 10.1239 14.6302 10.3561 14.7641C10.5885 14.8982 11.0399 14.9547 11.7252 14.5604C11.725 14.5605 11.7254 14.5603 11.7252 14.5604L14.2858 13.08C14.9712 12.6854 15.1475 12.2669 15.1475 12C15.1475 11.7331 14.9712 11.3146 14.2858 10.92L11.7258 9.43997C11.7256 9.43985 11.726 9.44008 11.7258 9.43997C11.0387 9.04454 10.5864 9.09975 10.355 9.23276ZM9.60754 7.93224C10.4635 7.44029 11.5117 7.58582 12.4742 8.14003L12.4754 8.1407L15.0342 9.62003C15.034 9.61991 15.0344 9.62016 15.0342 9.62003C15.9984 10.1754 16.6475 11.0122 16.6475 12C16.6475 12.9878 15.9991 13.8242 15.0349 14.3796C15.0347 14.3797 15.0351 14.3795 15.0349 14.3796L12.4742 15.86C11.5098 16.4152 10.4615 16.5567 9.60642 16.0634C8.75106 15.5698 8.35 14.5915 8.35 13.48V10.52C8.35 9.40494 8.75022 8.42495 9.60754 7.93224Z" fill="#595854"/>
</svg>
