<svg width="24" height="24" viewBox="0 0 24 24" fill="none" xmlns="http://www.w3.org/2000/svg">
<path fill-rule="evenodd" clip-rule="evenodd" d="M6.15807 1.90548C6.66723 1.51612 7.31589 1.25 7.98991 1.25H16.0099C16.6842 1.25 17.3329 1.51631 17.8433 1.90694C18.354 2.29791 18.7818 2.85587 18.9628 3.51006L18.9635 3.51274L21.1642 11.5853C21.4317 12.5809 21.2672 13.5553 20.7042 14.2908C20.141 15.0267 19.2429 15.44 18.2099 15.44H12.7499V21.25H15.9999C16.4141 21.25 16.7499 21.5858 16.7499 22C16.7499 22.4142 16.4141 22.75 15.9999 22.75H7.99991C7.58569 22.75 7.24991 22.4142 7.24991 22C7.24991 21.5858 7.58569 21.25 7.99991 21.25H11.2499V15.44H5.78991C4.75706 15.44 3.85794 15.0267 3.29564 14.288C2.73343 13.5495 2.57332 12.5717 2.84644 11.5723L5.04562 3.5053C5.04575 3.50483 5.04587 3.50436 5.046 3.50389C5.2219 2.85104 5.64922 2.2946 6.15807 1.90548ZM7.06924 3.09702C6.77096 3.32511 6.56853 3.61816 6.49419 3.8947L6.4935 3.89726L4.2935 11.9673C4.12662 12.5779 4.24638 13.0605 4.48917 13.3795C4.73187 13.6983 5.16275 13.94 5.78991 13.94H18.2099C18.8369 13.94 19.2688 13.6983 19.5131 13.3791C19.7574 13.0599 19.8779 12.5798 19.7159 11.9759C19.7158 11.9755 19.7157 11.9751 19.7156 11.9747L17.517 3.90994C17.5169 3.90954 17.5168 3.90915 17.5167 3.90875C17.4374 3.62331 17.2304 3.32678 16.9315 3.09806C16.6319 2.86869 16.2956 2.75 16.0099 2.75H7.98991C7.70393 2.75 7.36758 2.86888 7.06924 3.09702Z" fill="#595854"/>
</svg>
