<svg width="24" height="24" viewBox="0 0 24 24" fill="none" xmlns="http://www.w3.org/2000/svg">
<path fill-rule="evenodd" clip-rule="evenodd" d="M3.09467 3.09467C4.42914 1.7602 6.42603 1.25 9 1.25H12C12.4142 1.25 12.75 1.58579 12.75 2C12.75 2.41421 12.4142 2.75 12 2.75H9C6.57397 2.75 5.07086 3.2398 4.15533 4.15533C3.2398 5.07086 2.75 6.57397 2.75 9V15C2.75 16.1133 2.85315 17.0323 3.05326 17.7893L7.18194 15.0173C8.24502 14.3041 9.75679 14.3761 10.7288 15.2111L10.7351 15.2166L11.0615 15.5035C11.5608 15.9296 12.4033 15.9288 12.9013 15.5011L17.0613 11.9311C17.0612 11.9311 17.0614 11.931 17.0613 11.9311C18.1224 11.0199 19.7977 11.0197 20.8587 11.9311C20.8587 11.931 20.8587 11.9311 20.8587 11.9311L21.25 12.2672V11C21.25 10.5858 21.5858 10.25 22 10.25C22.4142 10.25 22.75 10.5858 22.75 11V13.8959C22.75 13.8989 22.75 13.9018 22.75 13.9048V15C22.75 17.574 22.2398 19.5709 20.9053 20.9053C19.5709 22.2398 17.574 22.75 15 22.75H9C6.42603 22.75 4.42914 22.2398 3.09467 20.9053C1.7602 19.5709 1.25 17.574 1.25 15V9C1.25 6.42603 1.7602 4.42914 3.09467 3.09467ZM21.25 14.2445L19.8813 13.0689C19.3824 12.6404 18.5376 12.6404 18.0387 13.0689L13.8787 16.6389C13.8786 16.639 13.8788 16.6389 13.8787 16.6389C12.8176 17.5501 11.1423 17.5503 10.0813 16.6389L10.0749 16.6334L9.74844 16.3465C9.30007 15.9638 8.5339 15.9168 8.01806 16.2627L3.64345 19.1998C3.79556 19.4417 3.96638 19.6557 4.15533 19.8447C5.07086 20.7602 6.57397 21.25 9 21.25H15C17.426 21.25 18.9291 20.7602 19.8447 19.8447C20.7602 18.9291 21.25 17.426 21.25 15V14.2445ZM20.3828 3.14151C20.0552 3.03229 19.7142 3.14084 19.564 3.36602C19.4279 3.57017 19.2006 3.69484 18.9553 3.69984C18.71 3.70485 18.4778 3.58955 18.3334 3.39113C18.1551 3.14583 17.8045 3.04576 17.4885 3.14434C16.9384 3.32472 16.5822 4.08546 16.8346 4.88236C17.0364 5.51406 17.4896 6.01882 17.9819 6.3747C18.2251 6.55051 18.4638 6.67943 18.659 6.76193C18.8225 6.83097 18.9174 6.85157 18.9451 6.85759C18.9463 6.85784 18.9474 6.85807 18.9483 6.85827C18.9499 6.85789 18.9518 6.85743 18.9543 6.85686C18.9834 6.85001 19.0753 6.82844 19.2323 6.76096C19.4277 6.67695 19.6673 6.54598 19.9114 6.36845C20.4067 6.00819 20.8586 5.50306 21.0551 4.88332C21.3079 4.08666 20.9522 3.32438 20.3907 3.14409L20.3828 3.14151ZM20.8531 1.71714C20.2677 1.52331 19.5242 1.55883 18.9266 1.93597C18.3398 1.57843 17.6242 1.52849 17.0342 1.71481L17.0288 1.71653C15.4207 2.23768 14.9985 4.05532 15.4051 5.33684L15.4055 5.33811C15.7338 6.36619 16.4405 7.11127 17.1031 7.5903C17.4374 7.83199 17.775 8.01682 18.0753 8.14369C18.3514 8.26032 18.6705 8.36 18.95 8.36C19.2313 8.36 19.5519 8.25626 19.8246 8.13904C20.1235 8.01055 20.4602 7.82402 20.7936 7.58155C21.4533 7.10181 22.1614 6.35694 22.4849 5.33668C22.8917 4.05436 22.4684 2.23846 20.8531 1.71714ZM9 6.75C8.30964 6.75 7.75 7.30964 7.75 8C7.75 8.69036 8.30964 9.25 9 9.25C9.69036 9.25 10.25 8.69036 10.25 8C10.25 7.30964 9.69036 6.75 9 6.75ZM6.25 8C6.25 6.48122 7.48122 5.25 9 5.25C10.5188 5.25 11.75 6.48122 11.75 8C11.75 9.51878 10.5188 10.75 9 10.75C7.48122 10.75 6.25 9.51878 6.25 8Z" fill="#595854"/>
</svg>
