<svg width="24" height="24" viewBox="0 0 24 24" fill="none" xmlns="http://www.w3.org/2000/svg">
<path fill-rule="evenodd" clip-rule="evenodd" d="M3.09467 3.09467C4.42914 1.7602 6.42603 1.25 9 1.25H15C17.574 1.25 19.5709 1.7602 20.9053 3.09467C22.2398 4.42914 22.75 6.42603 22.75 9V15C22.75 17.574 22.2398 19.5709 20.9053 20.9053C19.5709 22.2398 17.574 22.75 15 22.75H9C6.42603 22.75 4.42914 22.2398 3.09467 20.9053C1.7602 19.5709 1.25 17.574 1.25 15V9C1.25 6.42603 1.7602 4.42914 3.09467 3.09467ZM4.15533 4.15533C3.2398 5.07086 2.75 6.57397 2.75 9V15C2.75 17.426 3.2398 18.9291 4.15533 19.8447C5.07086 20.7602 6.57397 21.25 9 21.25H15C17.426 21.25 18.9291 20.7602 19.8447 19.8447C20.7602 18.9291 21.25 17.426 21.25 15V9C21.25 6.57397 20.7602 5.07086 19.8447 4.15533C18.9291 3.2398 17.426 2.75 15 2.75H9C6.57397 2.75 5.07086 3.2398 4.15533 4.15533ZM9.35126 7.73999C9.35126 6.6958 10.197 5.84998 11.2412 5.84998H12.7613C13.8141 5.84998 14.6413 6.70443 14.6413 7.73999V12.1H16.5481C17.5888 12.1 18.4217 12.9497 18.438 13.9781L18.4382 13.99L18.4381 17.4C18.4381 17.8142 18.1024 18.15 17.6881 18.15H13.8981C13.8958 18.15 13.8936 18.15 13.8913 18.15C13.4802 18.1463 13.1481 17.8119 13.1481 17.4H13.1413V16.65H13.1481M10.86 16.65H13.1413V7.73999C13.1413 7.51555 12.9684 7.34998 12.7613 7.34998H11.2412C11.0255 7.34998 10.8513 7.52418 10.8513 7.73999V11.0352C10.796 10.6755 10.4852 10.4 10.11 10.4H9.35126V7.73999M9.35126 10.4H7.45999C6.4158 10.4 5.57001 11.2457 5.57001 12.29V17.41C5.57001 17.8242 5.90579 18.16 6.32001 18.16H10.11C10.1517 18.16 10.1926 18.1566 10.2324 18.15L13.8913 18.15C13.8936 18.15 13.8958 18.15 13.8981 18.15C14.3092 18.1463 14.6413 17.8119 14.6413 17.4H14.6481V16.65H16.9381V17.4H17.6881V16.65H16.9381V13.9974C16.9382 13.9989 16.9382 14.0004 16.9382 14.0019L17.6881 13.99H16.9381V13.9974C16.9321 13.768 16.7462 13.6 16.5481 13.6H14.6481V12.85H14.6413V12.1M14.6413 13.6H14.6481V16.65H14.6413V13.6ZM10.8513 16.65V11.0352C10.857 11.0727 10.86 11.111 10.86 11.15V16.65H10.8513ZM9.35126 11.9V16.66H7.07001V12.29C7.07001 12.0742 7.24418 11.9 7.45999 11.9H9.35126Z" fill="#595854"/>
</svg>
