<svg width="24" height="24" viewBox="0 0 24 24" fill="none" xmlns="http://www.w3.org/2000/svg">
<path fill-rule="evenodd" clip-rule="evenodd" d="M9.69376 2.96981C9.60162 3.07429 9.54969 3.24949 9.45958 3.78456L9.29681 4.75379C9.85786 4.73793 10.4189 4.73 10.98 4.73C12.2227 4.73 13.4667 4.75336 14.7105 4.79956L14.5398 3.79069C14.4561 3.27767 14.4032 3.09352 14.306 2.98155C14.2523 2.9196 14.0648 2.75 13.31 2.75H10.69C9.9239 2.75 9.7422 2.91488 9.69376 2.96981ZM16.243 4.86802C17.8559 4.95219 19.4673 5.07444 21.074 5.23366C21.4861 5.2745 21.7872 5.64177 21.7463 6.05396C21.7055 6.46616 21.3382 6.76719 20.926 6.72634C17.6199 6.39871 14.2946 6.23 10.98 6.23C9.02529 6.23 7.07045 6.32872 5.11537 6.5262L5.11317 6.52642L3.07317 6.72642C2.66093 6.76684 2.29399 6.46542 2.25357 6.05318C2.21316 5.64094 2.51458 5.27399 2.92681 5.23358L4.96462 5.0338C4.96497 5.03376 4.96533 5.03373 4.96568 5.03369C5.89881 4.93945 6.832 4.86714 7.76522 4.81677L7.98035 3.53579C7.98419 3.51297 7.98815 3.48908 7.99216 3.46487C8.06101 3.04899 8.16203 2.43887 8.56873 1.97769C9.04279 1.44012 9.76609 1.25 10.69 1.25H13.31C14.2451 1.25 14.9677 1.4554 15.439 1.99845C15.8462 2.46775 15.9447 3.08005 16.0105 3.48891C16.0137 3.5088 16.0168 3.52822 16.0199 3.54711C16.02 3.54784 16.0201 3.54858 16.0202 3.54931L16.2395 4.84486C16.2408 4.85259 16.242 4.86031 16.243 4.86802ZM5.10168 8.39156C5.51504 8.36488 5.87175 8.67834 5.89844 9.09169L6.54816 19.1576C6.54821 19.1583 6.54826 19.159 6.5483 19.1596C6.57653 19.5624 6.60041 19.8818 6.65648 20.1602C6.71109 20.4313 6.7869 20.6094 6.88479 20.7369C7.05362 20.9567 7.47056 21.25 8.78999 21.25H15.21C16.5294 21.25 16.9464 20.9567 17.1152 20.7369C17.2131 20.6094 17.2889 20.4313 17.3435 20.1602C17.3996 19.8818 17.4235 19.5624 17.4517 19.1596C17.4517 19.159 17.4518 19.1583 17.4518 19.1576L18.1016 9.09169C18.1282 8.67834 18.485 8.36488 18.8983 8.39156C19.3117 8.41824 19.6251 8.77496 19.5984 9.18831L18.9484 19.2583L18.9482 19.2624L18.9468 19.2814C18.9205 19.6577 18.8915 20.0714 18.814 20.4564C18.7336 20.8555 18.5919 21.2768 18.3048 21.6506C17.7036 22.4333 16.6806 22.75 15.21 22.75H8.78999C7.31943 22.75 6.29637 22.4333 5.69519 21.6506C5.40809 21.2768 5.2664 20.8555 5.18601 20.4564C5.10848 20.0714 5.0795 19.6577 5.05316 19.2814L5.05183 19.2624L5.05155 19.2583L4.40155 9.18831C4.37487 8.77496 4.68833 8.41824 5.10168 8.39156ZM8.74999 12.5C8.74999 12.0858 9.08578 11.75 9.49999 11.75H14.5C14.9142 11.75 15.25 12.0858 15.25 12.5C15.25 12.9142 14.9142 13.25 14.5 13.25H9.49999C9.08578 13.25 8.74999 12.9142 8.74999 12.5ZM9.57999 16.5C9.57999 16.0858 9.91578 15.75 10.33 15.75H13.66C14.0742 15.75 14.41 16.0858 14.41 16.5C14.41 16.9142 14.0742 17.25 13.66 17.25H10.33C9.91578 17.25 9.57999 16.9142 9.57999 16.5Z" fill="#595854"/>
</svg>
