<svg width="24" height="24" viewBox="0 0 24 24" fill="none" xmlns="http://www.w3.org/2000/svg">
<path fill-rule="evenodd" clip-rule="evenodd" d="M6.4099 2.01893C7.12634 1.29766 8.14304 1 9.32374 1H14.6763C15.857 1 16.8737 1.29766 17.5901 2.01893C18.3065 2.74014 18.6021 3.76349 18.6021 4.95191V7.48979L18.8016 7.60575C18.8161 7.61413 18.8302 7.62301 18.844 7.63238L18.867 7.64805C19.3078 7.94726 19.672 8.19459 19.9525 8.41824C20.2427 8.64962 20.4945 8.89446 20.6743 9.20809C20.8581 9.52872 20.9334 9.86233 20.9678 10.2162C21 10.5469 21 10.9446 21 11.4071V16.8288C21 17.2912 21 17.689 20.9678 18.0197C20.9334 18.3735 20.8581 18.7071 20.6743 19.0278C20.4945 19.3414 20.2427 19.5862 19.9525 19.8176C19.672 20.0413 19.3078 20.2886 18.8671 20.5878L18.844 20.6035C18.8302 20.6128 18.8161 20.6217 18.8016 20.6301L13.7383 23.5722C13.7382 23.5722 13.7382 23.5723 13.7381 23.5723C13.2233 23.8715 12.5917 24 12 24C11.4083 24 10.7767 23.8715 10.2619 23.5723C10.2618 23.5723 10.2618 23.5722 10.2617 23.5722L5.19837 20.6301C5.18395 20.6217 5.16983 20.6128 5.15604 20.6035L5.13294 20.5878C4.69223 20.2886 4.32797 20.0413 4.04747 19.8176C3.75727 19.5862 3.50554 19.3414 3.32574 19.0278C3.14191 18.7071 3.06664 18.3735 3.03218 18.0197C2.99997 17.689 2.99998 17.2912 3 16.8288V11.4071C2.99998 10.9446 2.99997 10.5469 3.03218 10.2162C3.06664 9.86233 3.14191 9.52872 3.32574 9.20809C3.50554 8.89446 3.75727 8.64962 4.04747 8.41824C4.32798 8.19458 4.69227 7.94725 5.133 7.64802L5.15604 7.63238C5.16983 7.62301 5.18395 7.61413 5.19837 7.60575L5.39793 7.48979V4.95191C5.39793 3.76349 5.69352 2.74014 6.4099 2.01893ZM6.82651 6.65971L10.2617 4.66366C10.2618 4.66363 10.2618 4.6636 10.2619 4.66358C10.7767 4.36433 11.4083 4.23586 12 4.23586C12.5917 4.23586 13.2233 4.36433 13.7381 4.66358C13.7382 4.6636 13.7382 4.66363 13.7383 4.66366L17.1735 6.65971V4.95191C17.1735 3.98489 16.9338 3.39167 16.5797 3.03515C16.2256 2.6787 15.6366 2.4375 14.6763 2.4375H9.32374C8.36342 2.4375 7.77436 2.6787 7.4203 3.03515C7.06617 3.39167 6.82651 3.98489 6.82651 4.95191V6.65971ZM18.0656 8.83804L13.0238 5.90843L13.0236 5.90835C12.7784 5.76579 12.4092 5.67336 12 5.67336C11.5908 5.67336 11.2216 5.76579 10.9764 5.90835L10.9762 5.90843L5.93438 8.83804C5.47615 9.14919 5.16372 9.36229 4.93468 9.54492C4.70702 9.72644 4.61351 9.83859 4.56316 9.92642C4.51682 10.0072 4.47701 10.1195 4.45394 10.3564C4.42936 10.6087 4.42857 10.9355 4.42857 11.4398V16.7961C4.42857 17.3004 4.42936 17.6272 4.45394 17.8794C4.47701 18.1163 4.51682 18.2286 4.56316 18.3094C4.61351 18.3973 4.70702 18.5094 4.93468 18.6909C5.16372 18.8736 5.47615 19.0867 5.93438 19.3978L10.9762 22.3274L10.9764 22.3275C11.2216 22.4701 11.5908 22.5625 12 22.5625C12.4092 22.5625 12.7784 22.4701 13.0236 22.3275L13.0238 22.3274L18.0656 19.3978C18.5239 19.0867 18.8363 18.8736 19.0653 18.6909C19.293 18.5094 19.3865 18.3973 19.4368 18.3094C19.4832 18.2286 19.523 18.1163 19.5461 17.8794C19.5706 17.6272 19.5714 17.3004 19.5714 16.7961V11.4398C19.5714 10.9355 19.5706 10.6087 19.5461 10.3564C19.523 10.1195 19.4832 10.0072 19.4368 9.92642C19.3865 9.83859 19.293 9.72644 19.0653 9.54492C18.8363 9.36229 18.5239 9.14919 18.0656 8.83804ZM11.9123 11.8015L11.3089 12.7501C11.2024 12.9215 11.0537 13.0589 10.9242 13.1547C10.7924 13.2521 10.6125 13.3567 10.4089 13.4083C10.4083 13.4084 10.4076 13.4086 10.407 13.4088L9.31826 13.6882L9.31766 13.6883C9.2665 13.7014 9.23245 13.7163 9.21122 13.7279C9.22152 13.7509 9.24072 13.785 9.2759 13.8284C9.27616 13.8287 9.27643 13.829 9.2767 13.8294L9.99033 14.6979C9.9907 14.6984 9.99106 14.6988 9.99142 14.6992C10.121 14.8563 10.2049 15.0435 10.2552 15.1975C10.3055 15.3515 10.3489 15.5539 10.3365 15.7608C10.3365 15.7616 10.3364 15.7624 10.3364 15.7632L10.2724 16.8909L10.2721 16.8948C10.2688 16.9491 10.273 16.9868 10.2779 17.0104C10.3012 17.0075 10.337 16.9998 10.3858 16.9802L10.3869 16.9797L11.4349 16.5599C11.4348 16.5599 11.4349 16.5598 11.4349 16.5599C11.6257 16.483 11.8299 16.4599 11.9946 16.4599C12.1594 16.4599 12.3635 16.483 12.5542 16.5598C12.5543 16.5598 12.5544 16.5598 12.5544 16.5599L13.6024 16.9797L13.6035 16.9802C13.6518 16.9996 13.6878 17.0078 13.712 17.0111C13.7166 16.9864 13.7204 16.9483 13.7171 16.8941L13.7169 16.8909L13.6529 15.7632C13.6529 15.7624 13.6528 15.7616 13.6528 15.7608C13.6403 15.5524 13.6844 15.3516 13.735 15.1988C13.7869 15.0419 13.868 14.8684 13.9815 14.7198C13.9867 14.7131 13.9919 14.7065 13.9973 14.6999L14.7126 13.8294C14.7129 13.829 14.7132 13.8287 14.7134 13.8283C14.7486 13.785 14.7678 13.7509 14.7781 13.7279C14.7568 13.7163 14.7228 13.7014 14.6716 13.6883L14.671 13.6882L13.5791 13.408C13.5766 13.4073 13.574 13.4066 13.5715 13.406C13.3835 13.3555 13.2114 13.2588 13.079 13.163C12.9464 13.0671 12.7952 12.9297 12.6837 12.7552L12.0749 11.7983C12.0747 11.7978 12.0744 11.7974 12.0741 11.7969C12.0423 11.7479 12.0151 11.7191 11.997 11.7032C11.9774 11.7193 11.9475 11.7492 11.9123 11.8015ZM11.9987 10.2522C12.5506 10.2522 12.9945 10.5828 13.2739 11.0167L13.276 11.02L13.8785 11.967C13.8787 11.9672 13.8789 11.9674 13.8791 11.9676C13.8862 11.9747 13.8979 11.985 13.913 11.9959C13.9282 12.0069 13.9419 12.015 13.9513 12.0198C13.9515 12.0199 13.9517 12.02 13.9519 12.0201L15.0235 12.2951C15.0235 12.2951 15.0236 12.2951 15.0236 12.2951C15.5274 12.424 15.9834 12.7479 16.1538 13.2808C16.3233 13.811 16.1435 14.3403 15.8175 14.7406L15.8156 14.743L15.1148 15.5958C15.1137 15.5979 15.1121 15.6008 15.1102 15.6045C15.1037 15.6175 15.0965 15.6345 15.0903 15.6532C15.0847 15.6702 15.0814 15.6839 15.0798 15.6927L15.143 16.8058C15.143 16.8064 15.1431 16.807 15.1431 16.8076C15.1744 17.3276 15.0095 17.8633 14.5596 18.1908C14.1097 18.5182 13.5528 18.5077 13.0739 18.3152C13.0739 18.3152 13.0739 18.3152 13.0739 18.3152C13.0735 18.3151 13.0731 18.3149 13.0727 18.3148L12.0386 17.9004C12.0287 17.8989 12.0133 17.8974 11.9946 17.8974C11.976 17.8974 11.9606 17.8989 11.9507 17.9004L10.9166 18.3148C10.9163 18.3149 10.916 18.315 10.9157 18.3151C10.4313 18.5099 9.87424 18.5133 9.4271 18.1849C8.98204 17.8579 8.81459 17.3259 8.84622 16.8073C8.84626 16.8066 8.84631 16.8059 8.84635 16.8051L8.90956 15.6914C8.90784 15.6811 8.9042 15.6651 8.89809 15.6465C8.89206 15.628 8.88568 15.6131 8.88098 15.6037L8.17375 14.743L8.17181 14.7406C7.84581 14.3403 7.66604 13.811 7.83553 13.2808C8.00591 12.7479 8.46187 12.424 8.96568 12.2951C8.96574 12.2951 8.96579 12.2951 8.96585 12.2951L10.0435 12.0185C10.0519 12.0142 10.0643 12.0066 10.0784 11.9962C10.0916 11.9864 10.1018 11.9774 10.1081 11.9712L10.7133 11.02C10.7157 11.0162 10.718 11.0126 10.7205 11.0089C11.0045 10.5801 11.4491 10.2522 11.9987 10.2522ZM12.0236 17.8944L12.0248 17.8949C12.0244 17.8948 12.024 17.8946 12.0236 17.8944Z" fill="#595854"/>
</svg>
