<svg width="24" height="24" viewBox="0 0 24 24" fill="none" xmlns="http://www.w3.org/2000/svg">
<path fill-rule="evenodd" clip-rule="evenodd" d="M15.5762 1.51985C15.8413 1.83806 15.7983 2.31098 15.4801 2.57615L14.0715 3.74999H17C18.5142 3.74999 19.75 4.98577 19.75 6.49999V15.325C21.4617 15.6725 22.75 17.1858 22.75 19C22.75 21.0711 21.0711 22.75 19 22.75C16.9289 22.75 15.25 21.0711 15.25 19C15.25 17.1858 16.5383 15.6725 18.25 15.325V6.49999C18.25 5.8142 17.6858 5.24999 17 5.24999H14.0715L15.4801 6.42382C15.7983 6.689 15.8413 7.16192 15.5762 7.48013C15.311 7.79833 14.8381 7.84133 14.5199 7.57615L11.5199 5.07615C11.3489 4.93366 11.25 4.72257 11.25 4.49999C11.25 4.2774 11.3489 4.06632 11.5199 3.92382L14.5199 1.42382C14.8381 1.15865 15.311 1.20164 15.5762 1.51985ZM5.25 2.74999C3.86929 2.74999 2.75 3.86928 2.75 5.24999C2.75 6.6307 3.86929 7.74999 5.25 7.74999C6.63071 7.74999 7.75 6.6307 7.75 5.24999C7.75 3.86928 6.63071 2.74999 5.25 2.74999ZM1.25 5.24999C1.25 3.04085 3.04086 1.24999 5.25 1.24999C7.45914 1.24999 9.25 3.04085 9.25 5.24999C9.25 7.2898 7.72316 8.97299 5.75 9.21904V15.325C7.46168 15.6725 8.75 17.1858 8.75 19C8.75 21.0711 7.07107 22.75 5 22.75C2.92893 22.75 1.25 21.0711 1.25 19C1.25 17.1858 2.53832 15.6725 4.25 15.325V9.12397C2.52477 8.67993 1.25 7.11383 1.25 5.24999ZM5 16.75C3.75736 16.75 2.75 17.7573 2.75 19C2.75 20.2426 3.75736 21.25 5 21.25C6.24264 21.25 7.25 20.2426 7.25 19C7.25 17.7573 6.24264 16.75 5 16.75ZM19 16.75C17.7574 16.75 16.75 17.7573 16.75 19C16.75 20.2426 17.7574 21.25 19 21.25C20.2426 21.25 21.25 20.2426 21.25 19C21.25 17.7573 20.2426 16.75 19 16.75Z" fill="#595854"/>
</svg>
