<svg width="24" height="24" viewBox="0 0 24 24" fill="none" xmlns="http://www.w3.org/2000/svg">
<path fill-rule="evenodd" clip-rule="evenodd" d="M3.09467 3.09467C4.42914 1.7602 6.42603 1.25 9 1.25H15C17.574 1.25 19.5709 1.7602 20.9053 3.09467C22.2398 4.42914 22.75 6.42603 22.75 9V15C22.75 17.574 22.2398 19.5709 20.9053 20.9053C19.5709 22.2398 17.574 22.75 15 22.75H9C6.42603 22.75 4.42914 22.2398 3.09467 20.9053C1.7602 19.5709 1.25 17.574 1.25 15V9C1.25 6.42603 1.7602 4.42914 3.09467 3.09467ZM4.15533 4.15533C3.2398 5.07086 2.75 6.57397 2.75 9V15C2.75 17.426 3.2398 18.9291 4.15533 19.8447C5.07086 20.7602 6.57397 21.25 9 21.25H15C17.426 21.25 18.9291 20.7602 19.8447 19.8447C20.7602 18.9291 21.25 17.426 21.25 15V9C21.25 6.57397 20.7602 5.07086 19.8447 4.15533C18.9291 3.2398 17.426 2.75 15 2.75H9C6.57397 2.75 5.07086 3.2398 4.15533 4.15533ZM17.5409 10.5531C14.1812 7.95232 9.81879 7.95232 6.4591 10.5531C6.13155 10.8066 5.66048 10.7466 5.40693 10.4191C5.15338 10.0916 5.21336 9.62049 5.5409 9.36694C9.44121 6.3477 14.5588 6.3477 18.4591 9.36694C18.7866 9.62049 18.8466 10.0916 18.5931 10.4191C18.3395 10.7466 17.8684 10.8066 17.5409 10.5531ZM15.9519 13.6438C13.5518 11.7921 10.4582 11.7921 8.05814 13.6438C7.73019 13.8968 7.25922 13.8361 7.00619 13.5081C6.75317 13.1802 6.81391 12.7092 7.14186 12.4562C10.0818 10.1879 13.9282 10.1879 16.8681 12.4562C17.1961 12.7092 17.2568 13.1802 17.0038 13.5081C16.7508 13.8361 16.2798 13.8968 15.9519 13.6438ZM13.7408 16.733C12.6811 15.9123 11.3189 15.9123 10.2592 16.733C9.93173 16.9866 9.46065 16.9267 9.20703 16.5992C8.95341 16.2717 9.01329 15.8006 9.34078 15.547C10.9411 14.3077 13.0589 14.3077 14.6592 15.547C14.9867 15.8006 15.0466 16.2717 14.793 16.5992C14.5393 16.9267 14.0683 16.9866 13.7408 16.733Z" fill="#595854"/>
</svg>
