<svg width="24" height="24" viewBox="0 0 24 24" fill="none" xmlns="http://www.w3.org/2000/svg">
<path fill-rule="evenodd" clip-rule="evenodd" d="M4.09467 3.09467C5.42914 1.7602 7.42603 1.25 10 1.25H14C16.574 1.25 18.5709 1.7602 19.9053 3.09467C21.2398 4.42914 21.75 6.42603 21.75 9V15C21.75 17.574 21.2398 19.5709 19.9053 20.9053C18.5709 22.2398 16.574 22.75 14 22.75H10C7.42603 22.75 5.42914 22.2398 4.09467 20.9053C2.7602 19.5709 2.25 17.574 2.25 15V9C2.25 6.42603 2.7602 4.42914 4.09467 3.09467ZM5.15533 4.15533C4.2398 5.07086 3.75 6.57397 3.75 9V15C3.75 17.426 4.2398 18.9291 5.15533 19.8447C6.07086 20.7602 7.57397 21.25 10 21.25H14C16.426 21.25 17.9291 20.7602 18.8447 19.8447C19.7602 18.9291 20.25 17.426 20.25 15V9C20.25 6.57397 19.7602 5.07086 18.8447 4.15533C17.9291 3.2398 16.426 2.75 14 2.75H10C7.57397 2.75 6.07086 3.2398 5.15533 4.15533ZM6.25149 7.72965C9.52573 4.81678 14.4743 4.81678 17.7485 7.72965C18.0214 7.97242 18.0797 8.37648 17.8866 8.68652L15.7066 12.1865C15.5896 12.3743 15.3957 12.5009 15.1768 12.5324C14.9578 12.5639 14.7361 12.4971 14.5709 12.3499C13.1053 11.0434 10.8947 11.0434 9.42907 12.3499C9.26392 12.4971 9.04221 12.5639 8.82323 12.5324C8.60426 12.5009 8.41035 12.3743 8.29339 12.1865L6.11339 8.68652C5.92028 8.37648 5.9786 7.97242 6.25149 7.72965ZM7.73556 8.45371L9.13425 10.6993C10.8805 9.59356 13.1195 9.59356 14.8658 10.6993L16.2644 8.45371C13.7399 6.57543 10.2601 6.57543 7.73556 8.45371Z" fill="#595854"/>
</svg>
