<svg width="24" height="24" viewBox="0 0 24 24" fill="none" xmlns="http://www.w3.org/2000/svg">
<path fill-rule="evenodd" clip-rule="evenodd" d="M3.83999 3.32C3.2342 3.32 2.73999 3.81421 2.73999 4.42V5.93C2.73999 6.34421 2.4042 6.68 1.98999 6.68C1.57578 6.68 1.23999 6.34421 1.23999 5.93V4.42C1.23999 2.98579 2.40578 1.82 3.83999 1.82H16.76C18.1942 1.82 19.36 2.98579 19.36 4.42V5.93C19.36 6.34421 19.0242 6.68 18.61 6.68C18.1958 6.68 17.86 6.34421 17.86 5.93V4.42C17.86 3.81421 17.3658 3.32 16.76 3.32H11.05V17.35H12.48C12.8942 17.35 13.23 17.6858 13.23 18.1C13.23 18.5142 12.8942 18.85 12.48 18.85H6.89999C6.48578 18.85 6.14999 18.5142 6.14999 18.1C6.14999 17.6858 6.48578 17.35 6.89999 17.35H9.54999V3.32H3.83999ZM12.93 10.34C12.93 9.92579 13.2658 9.59 13.68 9.59H20.69C21.8342 9.59 22.76 10.5158 22.76 11.66V12.46C22.76 12.8742 22.4242 13.21 22.01 13.21C21.5958 13.21 21.26 12.8742 21.26 12.46V11.66C21.26 11.3442 21.0058 11.09 20.69 11.09H16.83V20.68H18.22C18.6342 20.68 18.97 21.0158 18.97 21.43C18.97 21.8442 18.6342 22.18 18.22 22.18H13.94C13.5258 22.18 13.19 21.8442 13.19 21.43C13.19 21.0158 13.5258 20.68 13.94 20.68H15.33V11.09H13.68C13.2658 11.09 12.93 10.7542 12.93 10.34Z" fill="#595854"/>
</svg>
