<svg width="24" height="24" viewBox="0 0 24 24" fill="none" xmlns="http://www.w3.org/2000/svg">
<path fill-rule="evenodd" clip-rule="evenodd" d="M8.90629 1.85119C9.48135 1.49492 10.1741 1.25 10.86 1.25H13.15C13.8322 1.25 14.5227 1.49572 15.0958 1.85165C15.6691 2.20774 16.1937 2.71694 16.4994 3.32165L16.5018 3.32644L17.2184 4.76968C17.3738 5.06498 17.6795 5.25 18 5.25C20.6013 5.25 22.6666 7.44412 22.4985 10.0385L21.9786 18.2971C21.9066 19.4372 21.5614 20.563 20.7689 21.4099C19.9621 22.2722 18.7813 22.75 17.24 22.75H6.76004C5.21902 22.75 4.036 22.2724 3.22788 21.4105C2.43399 20.5636 2.08824 19.4376 2.02141 18.2954C2.02138 18.2948 2.02134 18.2942 2.02131 18.2936L1.50161 10.0385C1.50159 10.0383 1.50162 10.0387 1.50161 10.0385C1.33388 7.44443 3.39898 5.25 6.00004 5.25C6.32053 5.25 6.62622 5.06499 6.78164 4.7697L7.50068 3.32164C7.80642 2.71681 8.33126 2.20745 8.90629 1.85119ZM8.84046 3.99623L8.11595 5.45529C7.71056 6.23713 6.89776 6.75 6.00004 6.75C4.26133 6.75 2.88662 8.21588 2.99847 9.94149L2.99856 9.94288L3.51878 18.2064C3.5722 19.1236 3.8415 19.8718 4.32219 20.3845C4.78908 20.8826 5.54105 21.25 6.76004 21.25H17.24C18.4587 21.25 19.208 20.8828 19.6736 20.3851C20.1537 19.872 20.4234 19.1228 20.4815 18.2029C20.4815 18.2028 20.4815 18.2029 20.4815 18.2029L21.0016 9.94149C21.1135 8.21588 19.7387 6.75 18 6.75C17.1023 6.75 16.2896 6.23707 15.8842 5.45524L15.8782 5.44361L15.1596 3.99624C15.005 3.69158 14.7001 3.37169 14.3043 3.12585C13.9073 2.87928 13.4879 2.75 13.15 2.75H10.86C10.516 2.75 10.0937 2.88008 9.69628 3.12631C9.29973 3.37198 8.99505 3.6917 8.84046 3.99623ZM9.75004 8C9.75004 7.58579 10.0858 7.25 10.5 7.25H13.5C13.9143 7.25 14.25 7.58579 14.25 8C14.25 8.41421 13.9143 8.75 13.5 8.75H10.5C10.0858 8.75 9.75004 8.41421 9.75004 8ZM8.00004 14.75C8.00004 12.5458 9.79582 10.75 12 10.75C14.2043 10.75 16 12.5458 16 14.75C16 16.9542 14.2043 18.75 12 18.75C9.79582 18.75 8.00004 16.9542 8.00004 14.75ZM12 12.25C10.6243 12.25 9.50004 13.3742 9.50004 14.75C9.50004 16.1258 10.6243 17.25 12 17.25C13.3758 17.25 14.5 16.1258 14.5 14.75C14.5 13.3742 13.3758 12.25 12 12.25Z" fill="#595854"/>
</svg>
