<svg width="24" height="24" viewBox="0 0 24 24" fill="none" xmlns="http://www.w3.org/2000/svg">
<path fill-rule="evenodd" clip-rule="evenodd" d="M3.43029 5.1146C2.85534 5.64847 2.45996 6.52293 2.45996 7.91998V13.07C2.45996 14.0802 2.66699 14.8141 2.99072 15.3386C3.30881 15.8541 3.77032 16.2183 4.37926 16.4463C4.56481 16.5136 4.75398 16.5677 4.94128 16.5983C4.95945 16.601 4.9776 16.6044 4.99569 16.6084C5.14608 16.6423 5.30414 16.6682 5.46948 16.6866C5.67229 16.709 5.88603 16.72 6.10995 16.72H14.9C16.105 16.72 16.9946 16.4186 17.5796 15.8754C18.1546 15.3415 18.55 14.4671 18.55 13.07V7.91998C18.55 7.50905 18.5069 7.14665 18.4427 6.77771C18.26 5.86441 17.8473 5.26676 17.2924 4.88329C16.7194 4.48741 15.9215 4.27002 14.9 4.27002H6.10995C4.90492 4.27002 4.01531 4.57138 3.43029 5.1146ZM19.8019 6.02467C19.506 5.00005 18.9429 4.20056 18.1451 3.64925C17.2455 3.02762 16.1184 2.77002 14.9 2.77002H6.10995C4.67499 2.77002 3.36461 3.12864 2.40962 4.0154C1.44457 4.91151 0.959961 6.23703 0.959961 7.91998V13.07C0.959961 14.2798 1.20793 15.306 1.71421 16.1264C2.22559 16.9551 2.96808 17.5205 3.85765 17.8527L3.85764 17.8527L3.86366 17.8549C3.97347 17.8948 4.09021 17.9335 4.21269 17.9686C4.6292 19.4028 5.55391 20.3694 6.85813 20.8526C7.54422 21.1123 8.30817 21.2201 9.11105 21.2201H17.9011C19.336 21.2201 20.6464 20.8615 21.6014 19.9747C22.5664 19.0786 23.0511 17.7531 23.0511 16.0701V10.9201C23.0511 9.53169 22.7167 8.3862 22.0472 7.51921C21.4725 6.77507 20.6942 6.29227 19.8019 6.02467ZM5.9237 18.2179C6.25403 18.8227 6.7506 19.2135 7.38116 19.4467L7.38706 19.4489L7.38705 19.4489C7.86017 19.6284 8.43513 19.7201 9.11105 19.7201H17.9011C19.1061 19.7201 19.9957 19.4187 20.5807 18.8755C21.1557 18.3416 21.5511 17.4672 21.5511 16.0701V10.9201C21.5511 9.76852 21.2754 8.97403 20.86 8.43603C20.644 8.15632 20.3742 7.92516 20.0493 7.74385C20.0505 7.80206 20.0511 7.8608 20.0511 7.9201V13.0701C20.0511 14.7531 19.5664 16.0786 18.6014 16.9747C17.6464 17.8615 16.336 18.2201 14.9011 18.2201H6.11105C6.04849 18.2201 5.98603 18.2194 5.9237 18.2179ZM10.4984 8.60986C9.4546 8.60986 8.6084 9.45606 8.6084 10.4999C8.6084 11.5437 9.4546 12.3899 10.4984 12.3899C11.5422 12.3899 12.3884 11.5437 12.3884 10.4999C12.3884 9.45606 11.5422 8.60986 10.4984 8.60986ZM7.1084 10.4999C7.1084 8.62763 8.62617 7.10986 10.4984 7.10986C12.3707 7.10986 13.8884 8.62763 13.8884 10.4999C13.8884 12.3721 12.3707 13.8899 10.4984 13.8899C8.62617 13.8899 7.1084 12.3721 7.1084 10.4999ZM4.77997 7.54999C5.19418 7.54999 5.52997 7.88577 5.52997 8.29999V12.7C5.52997 13.1142 5.19418 13.45 4.77997 13.45C4.36575 13.45 4.02997 13.1142 4.02997 12.7V8.29999C4.02997 7.88577 4.36575 7.54999 4.77997 7.54999ZM16.2217 7.55029C16.6359 7.55029 16.9717 7.88608 16.9717 8.30029V12.7003C16.9717 13.1145 16.6359 13.4503 16.2217 13.4503C15.8075 13.4503 15.4717 13.1145 15.4717 12.7003V8.30029C15.4717 7.88608 15.8075 7.55029 16.2217 7.55029Z" fill="#595854"/>
</svg>
