<svg width="24" height="24" viewBox="0 0 24 24" fill="none" xmlns="http://www.w3.org/2000/svg">
<path fill-rule="evenodd" clip-rule="evenodd" d="M12 2.75C6.89137 2.75 2.75 6.89137 2.75 12C2.75 17.1086 6.89137 21.25 12 21.25C17.1086 21.25 21.25 17.1086 21.25 12C21.25 6.89137 17.1086 2.75 12 2.75ZM1.25 12C1.25 6.06294 6.06294 1.25 12 1.25C17.9371 1.25 22.75 6.06294 22.75 12C22.75 17.9371 17.9371 22.75 12 22.75C6.06294 22.75 1.25 17.9371 1.25 12ZM7.11413 8.25688L11.6141 5.55688C11.8516 5.41437 12.1484 5.41437 12.3859 5.55688L16.8859 8.25688C17.1356 8.40674 17.2667 8.67904 17.2484 8.95099C17.2495 8.96719 17.25 8.98353 17.25 9V15.1C17.25 15.3702 17.1047 15.6195 16.8695 15.7527C16.6344 15.8858 16.3458 15.8821 16.1141 15.7431L12 13.2746L7.88587 15.7431C7.65417 15.8821 7.36561 15.8858 7.13048 15.7527C6.89534 15.6195 6.75 15.3702 6.75 15.1V9C6.75 8.98353 6.75053 8.96719 6.75158 8.95099C6.73327 8.67904 6.86435 8.40674 7.11413 8.25688ZM8.25 9.32464V13.7754L11.6141 11.7569C11.8516 11.6144 12.1484 11.6144 12.3859 11.7569L15.75 13.7754V9.32464L12 7.07464L8.25 9.32464ZM9.18033 15.7775C9.41367 15.4353 9.88027 15.347 10.2225 15.5803L12 16.7923L13.7775 15.5803C14.1197 15.347 14.5863 15.4353 14.8197 15.7775C15.053 16.1197 14.9647 16.5863 14.6225 16.8197L12.4225 18.3197C12.1676 18.4934 11.8324 18.4934 11.5775 18.3197L9.3775 16.8197C9.03526 16.5863 8.94699 16.1197 9.18033 15.7775Z" fill="#595854"/>
</svg>
