<svg width="24" height="24" viewBox="0 0 24 24" fill="none" xmlns="http://www.w3.org/2000/svg">
<path fill-rule="evenodd" clip-rule="evenodd" d="M3.09467 3.09467C4.42914 1.7602 6.42603 1.25 9 1.25H15C17.574 1.25 19.5709 1.7602 20.9053 3.09467C22.2398 4.42914 22.75 6.42603 22.75 9V15C22.75 17.574 22.2398 19.5709 20.9053 20.9053C19.5709 22.2398 17.574 22.75 15 22.75H9C6.42603 22.75 4.42914 22.2398 3.09467 20.9053C1.7602 19.5709 1.25 17.574 1.25 15V9C1.25 6.42603 1.7602 4.42914 3.09467 3.09467ZM4.15533 4.15533C3.2398 5.07086 2.75 6.57397 2.75 9V15C2.75 17.426 3.2398 18.9291 4.15533 19.8447C5.07086 20.7602 6.57397 21.25 9 21.25H15C17.426 21.25 18.9291 20.7602 19.8447 19.8447C20.7602 18.9291 21.25 17.426 21.25 15V9C21.25 6.57397 20.7602 5.07086 19.8447 4.15533C18.9291 3.2398 17.426 2.75 15 2.75H9C6.57397 2.75 5.07086 3.2398 4.15533 4.15533ZM12 6.75C10.4242 6.75 9.15002 8.02421 9.15002 9.6C9.15002 9.97353 9.22144 10.3308 9.34825 10.6562C9.67225 11.4769 10.3769 12.1183 11.2453 12.3559C11.4922 12.4216 11.7461 12.46 12 12.46C12.2192 12.46 12.4385 12.4313 12.6532 12.3812C12.6853 12.3674 12.7185 12.3557 12.7527 12.3464C13.6252 12.1085 14.3283 11.4746 14.6513 10.6472C14.6592 10.6272 14.6678 10.6076 14.6771 10.5887C14.788 10.2816 14.85 9.94787 14.85 9.6C14.85 8.02421 13.5758 6.75 12 6.75ZM16.2645 10.4647C16.3204 10.1852 16.35 9.89585 16.35 9.6C16.35 7.19579 14.4042 5.25 12 5.25C9.59578 5.25 7.65002 7.19579 7.65002 9.6C7.65002 9.89793 7.68006 10.1893 7.73665 10.4706C6.27093 11.1652 5.25 12.6644 5.25 14.4C5.25 16.8042 7.19576 18.75 9.59998 18.75C10.4842 18.75 11.3109 18.4887 12.0029 18.0265C12.6901 18.4813 13.5137 18.75 14.4 18.75C16.8042 18.75 18.75 16.8042 18.75 14.4C18.75 12.663 17.7281 11.1654 16.2645 10.4647ZM12.4137 13.9415C12.2757 13.9541 12.1376 13.96 12 13.96C11.6135 13.96 11.2224 13.9136 10.8436 13.8011C9.76482 13.5044 8.85231 12.8085 8.2833 11.8735C7.37602 12.3463 6.75 13.3018 6.75 14.4C6.75 15.9758 8.0242 17.25 9.59998 17.25C10.3309 17.25 10.9921 16.9812 11.4964 16.5243L11.5008 16.5203L11.5008 16.5203C12.0867 15.9977 12.45 15.239 12.45 14.4C12.45 14.3187 12.4466 14.2381 12.44 14.1584C12.4339 14.085 12.4251 14.0127 12.4137 13.9415ZM13.9387 14.0843C13.9462 14.1886 13.95 14.2939 13.95 14.4C13.95 15.3506 13.648 16.2333 13.1285 16.9483C13.513 17.1415 13.9445 17.25 14.4 17.25C15.9758 17.25 17.25 15.9758 17.25 14.4C17.25 13.3039 16.6258 12.3475 15.7177 11.8682C15.2788 12.5877 14.6345 13.1719 13.865 13.5376C13.9006 13.716 13.9254 13.8986 13.9387 14.0843Z" fill="#595854"/>
</svg>
