<svg width="24" height="24" viewBox="0 0 24 24" fill="none" xmlns="http://www.w3.org/2000/svg">
<path fill-rule="evenodd" clip-rule="evenodd" d="M8.99998 2.75C7.20419 2.75 5.74998 4.20421 5.74998 6V9C5.74998 12.4558 8.54419 15.25 12 15.25C15.4558 15.25 18.25 12.4558 18.25 9V6C18.25 4.20421 16.7958 2.75 15 2.75H8.99998ZM4.89959 3.6C5.72414 2.19381 7.25141 1.25 8.99998 1.25H15C16.7485 1.25 18.2758 2.19381 19.1004 3.6H19.46C21.2742 3.6 22.71 5.03579 22.71 6.85C22.71 8.48158 22.0065 9.85281 21.0174 10.9517C21.0087 10.9615 20.9996 10.971 20.9903 10.9803C20.4604 11.5102 19.7954 11.9751 19.0304 12.2687C17.9192 14.658 15.6263 16.384 12.9 16.6984V18.25H15.15C16.6642 18.25 17.9 19.4858 17.9 21V21.25H18.15C18.5642 21.25 18.9 21.5858 18.9 22C18.9 22.4142 18.5642 22.75 18.15 22.75H6.14998C5.73576 22.75 5.39998 22.4142 5.39998 22C5.39998 21.5858 5.73576 21.25 6.14998 21.25H6.39998V21C6.39998 19.4858 7.63576 18.25 9.14998 18.25H11.4V16.7272C8.54247 16.509 6.12132 14.7452 4.96952 12.2687C4.20453 11.9751 3.53955 11.5102 3.00965 10.9803C3.00035 10.971 2.9913 10.9615 2.98251 10.9517C1.99349 9.85281 1.28998 8.48158 1.28998 6.85C1.28998 5.03579 2.72576 3.6 4.53998 3.6H4.89959ZM4.19346 5.13248C3.38075 5.28782 2.78998 5.98327 2.78998 6.85C2.78998 8.01199 3.28103 9.03587 4.0841 9.93341C4.13377 9.98265 4.18479 10.0309 4.23709 10.0781C4.17339 9.67917 4.13998 9.26935 4.13998 8.85V5.85C4.13998 5.60841 4.15763 5.36847 4.19346 5.13248ZM7.89998 21.25H16.4V21C16.4 20.3142 15.8358 19.75 15.15 19.75H9.14998C8.46419 19.75 7.89998 20.3142 7.89998 21V21.25ZM19.7629 10.0781C19.8152 10.0309 19.8662 9.98264 19.9159 9.9334C20.7189 9.03587 21.21 8.01199 21.21 6.85C21.21 5.98327 20.6192 5.28782 19.8065 5.13248C19.8423 5.36847 19.86 5.60841 19.86 5.85V8.85C19.86 9.26935 19.8266 9.67917 19.7629 10.0781Z" fill="#595854"/>
</svg>
