<svg width="24" height="24" viewBox="0 0 24 24" fill="none" xmlns="http://www.w3.org/2000/svg">
<path fill-rule="evenodd" clip-rule="evenodd" d="M8.25 2C8.25 1.58579 8.58579 1.25 9 1.25H15C15.4142 1.25 15.75 1.58579 15.75 2C15.75 2.41421 15.4142 2.75 15 2.75H9C8.58579 2.75 8.25 2.41421 8.25 2ZM12 5.25C7.58421 5.25 4 8.83421 4 13.25C4 17.6658 7.58421 21.25 12 21.25C12.4142 21.25 12.75 21.5858 12.75 22C12.75 22.4142 12.4142 22.75 12 22.75C6.75579 22.75 2.5 18.4942 2.5 13.25C2.5 8.00579 6.75579 3.75 12 3.75C17.2442 3.75 21.5 8.00579 21.5 13.25C21.5 13.6642 21.1642 14 20.75 14C20.3358 14 20 13.6642 20 13.25C20 8.83421 16.4158 5.25 12 5.25ZM12 7.25C12.4142 7.25 12.75 7.58579 12.75 8V13C12.75 13.4142 12.4142 13.75 12 13.75C11.5858 13.75 11.25 13.4142 11.25 13V8C11.25 7.58579 11.5858 7.25 12 7.25ZM15.9394 16.5336C15.8409 16.5904 15.65 16.7874 15.65 17.34V19.67C15.65 20.2226 15.8409 20.4196 15.9394 20.4764C16.0377 20.5331 16.3039 20.5998 16.7834 20.3214L18.7834 19.1614C19.2652 18.8816 19.34 18.6178 19.34 18.505C19.34 18.3922 19.2652 18.1284 18.7834 17.8486L16.7837 16.6888C16.3042 16.4103 16.0377 16.4769 15.9394 16.5336ZM17.5366 15.3914C16.7761 14.9498 15.9123 14.8181 15.1906 15.2339C14.4691 15.6496 14.15 16.4626 14.15 17.34V19.67C14.15 20.5474 14.4691 21.3604 15.1906 21.7761C15.9123 22.1919 16.7761 22.0602 17.5366 21.6186L19.5363 20.4588C20.2945 20.0185 20.84 19.3372 20.84 18.505C20.84 17.6728 20.2948 16.9916 19.5366 16.5514L17.5366 15.3914Z" fill="#595854"/>
</svg>
