<svg width="24" height="24" viewBox="0 0 24 24" fill="none" xmlns="http://www.w3.org/2000/svg">
<path fill-rule="evenodd" clip-rule="evenodd" d="M11.9999 2.75C9.65273 2.75 7.74994 4.65279 7.74994 7C7.74994 9.34721 9.65273 11.25 11.9999 11.25C14.3471 11.25 16.2499 9.34721 16.2499 7C16.2499 4.65279 14.3471 2.75 11.9999 2.75ZM6.24994 7C6.24994 3.82436 8.8243 1.25 11.9999 1.25C15.1756 1.25 17.7499 3.82436 17.7499 7C17.7499 10.1756 15.1756 12.75 11.9999 12.75C8.8243 12.75 6.24994 10.1756 6.24994 7ZM11.9999 15.75C7.52281 15.75 4.15991 18.6809 4.15991 22C4.15991 22.4142 3.82413 22.75 3.40991 22.75C2.9957 22.75 2.65991 22.4142 2.65991 22C2.65991 17.5791 6.99707 14.25 11.9999 14.25C12.4142 14.25 12.7499 14.5858 12.7499 15C12.7499 15.4142 12.4142 15.75 11.9999 15.75ZM18.2 15.75C16.8469 15.75 15.7499 16.8469 15.7499 18.2C15.7499 19.5531 16.8469 20.65 18.2 20.65C19.553 20.65 20.65 19.5531 20.65 18.2C20.65 16.8469 19.553 15.75 18.2 15.75ZM14.2499 18.2C14.2499 16.0185 16.0184 14.25 18.2 14.25C20.3815 14.25 22.15 16.0185 22.15 18.2C22.15 19.0213 21.8993 19.784 21.4704 20.4158C21.4911 20.4325 21.5111 20.4505 21.5303 20.4697L22.5303 21.4697C22.8232 21.7626 22.8232 22.2374 22.5303 22.5303C22.2374 22.8232 21.7625 22.8232 21.4696 22.5303L20.4696 21.5303C20.4504 21.5111 20.4325 21.4911 20.4158 21.4705C19.7839 21.8994 19.0212 22.15 18.2 22.15C16.0184 22.15 14.2499 20.3815 14.2499 18.2Z" fill="#595854"/>
</svg>
