<svg width="24" height="24" viewBox="0 0 24 24" fill="none" xmlns="http://www.w3.org/2000/svg">
<path fill-rule="evenodd" clip-rule="evenodd" d="M11.2525 1.4343C11.5649 1.70626 11.5977 2.18 11.3258 2.49243L9.92137 4.1058C10.5699 3.97658 11.2621 3.9 12.0001 3.9C17.2043 3.9 21.4201 8.11579 21.4201 13.32C21.4201 18.5242 17.2043 22.74 12.0001 22.74C6.79586 22.74 2.58008 18.5242 2.58008 13.32C2.58008 11.3864 3.16704 9.58247 4.16604 8.08397C4.3958 7.73933 4.86146 7.6462 5.2061 7.87596C5.55075 8.10573 5.64388 8.57138 5.41412 8.91602C4.57311 10.1775 4.08008 11.6936 4.08008 13.32C4.08008 17.6958 7.62429 21.24 12.0001 21.24C16.3759 21.24 19.9201 17.6958 19.9201 13.32C19.9201 8.94421 16.3759 5.4 12.0001 5.4C11.1578 5.4 10.3828 5.51614 9.6667 5.70291L11.6823 7.17423C12.0168 7.41844 12.0901 7.88764 11.8459 8.2222C11.6016 8.55676 11.1324 8.62999 10.7979 8.38577L7.42788 5.92577C7.2582 5.80192 7.14825 5.61257 7.12478 5.40381C7.1013 5.19506 7.16645 4.98602 7.30438 4.82757L10.1944 1.50757C10.4663 1.19514 10.9401 1.16234 11.2525 1.4343Z" fill="#595854"/>
</svg>
