<svg width="24" height="24" viewBox="0 0 24 24" fill="none" xmlns="http://www.w3.org/2000/svg">
<path fill-rule="evenodd" clip-rule="evenodd" d="M6.04223 3.39535C5.56816 3.39535 5.08433 3.58721 4.59349 4.06966L4.58821 4.07485L4.58281 4.07994C4.15908 4.47908 3.86578 4.91535 3.68216 5.38135L3.68144 5.38319L3.6807 5.38503C3.49234 5.85521 3.39535 6.37119 3.39535 6.92093C3.39535 7.77906 3.59343 8.70043 4.01087 9.69069C4.43411 10.6853 5.02079 11.7 5.75932 12.7254C6.51014 13.7549 7.35236 14.7409 8.28668 15.6831C9.23049 16.6162 10.2185 17.4577 11.2601 18.2174C12.2839 18.9617 13.3096 19.5482 14.3274 19.9813C15.3288 20.4073 16.2513 20.6047 17.0914 20.6047C17.6551 20.6047 18.1692 20.5006 18.64 20.3047L18.6419 20.3039L18.6438 20.3031C19.105 20.1144 19.5244 19.8167 19.9193 19.3823C20.1407 19.1383 20.3081 18.8803 20.4387 18.604C20.5537 18.3609 20.6047 18.1185 20.6047 17.8884C20.6047 17.7387 20.5748 17.5981 20.5105 17.4346C20.4668 17.34 20.3917 17.2433 20.2441 17.1413L20.2408 17.139L17.1596 14.9548C16.9552 14.8163 16.7863 14.7237 16.6412 14.6645C16.5085 14.6103 16.4117 14.5953 16.3367 14.5953C16.2467 14.5953 16.1563 14.6171 16.0376 14.6892L16.018 14.7012L15.9976 14.7118C15.8688 14.7789 15.7021 14.9033 15.4975 15.1077L15.4958 15.1093L14.7875 15.8073C14.5615 16.032 14.2665 16.1674 13.9145 16.1674C13.7767 16.1674 13.6133 16.152 13.4369 16.0859L13.4219 16.0803L13.4071 16.074C13.3687 16.0575 13.333 16.0412 13.3077 16.0296L13.3004 16.0263C13.2702 16.0124 13.2599 16.008 13.2551 16.006L13.2207 15.9923L13.1878 15.9749C12.8102 15.7753 12.3669 15.462 11.8618 15.0353L11.8614 15.0349L11.8609 15.0345C11.349 14.6005 10.8512 14.1317 10.3425 13.6332L10.3378 13.6286L10.3332 13.6239C9.83623 13.1181 9.37906 12.614 8.95272 12.1221L8.95018 12.1191L8.94768 12.1162C8.52541 11.6179 8.20197 11.1763 8.00125 10.8089L7.97144 10.7543L7.95185 10.6956C7.95186 10.6957 7.94952 10.6893 7.93737 10.6606C7.93634 10.6581 7.93524 10.6556 7.93407 10.6528C7.92246 10.6255 7.90413 10.5823 7.88586 10.5337L7.87187 10.4964L7.86221 10.4578C7.83209 10.3375 7.81337 10.215 7.81337 10.0744C7.81337 9.75854 7.9212 9.45722 8.16149 9.21431L8.87041 8.47851L8.87519 8.47374C9.06715 8.28207 9.20063 8.10829 9.28271 7.96329L9.28827 7.95347L9.29415 7.94383C9.36474 7.82803 9.38783 7.7291 9.38783 7.64651C9.38783 7.58693 9.37055 7.48609 9.31396 7.35425L9.31168 7.34893L9.30948 7.34357C9.25045 7.1995 9.15891 7.03342 9.01652 6.83596L9.0151 6.83399L6.84999 3.78688L6.8477 3.78357C6.75682 3.6525 6.64351 3.56265 6.50484 3.49874L6.50006 3.49654L6.49531 3.49426C6.3625 3.43061 6.20555 3.39535 6.04223 3.39535ZM3.6207 3.0693C4.32117 2.38294 5.13977 2 6.04223 2C6.39891 2 6.7619 2.07564 7.09362 2.23369C7.43635 2.39255 7.74885 2.63582 7.99188 2.98492L10.1498 6.02189C10.3408 6.28705 10.4903 6.54653 10.5985 6.80927C10.7083 7.06676 10.7832 7.35464 10.7832 7.64651C10.7832 8.00661 10.6781 8.35072 10.4915 8.66029C10.3329 8.93794 10.1163 9.20567 9.86605 9.4562L9.2246 10.122C9.23106 10.1372 9.2397 10.1577 9.24902 10.1815C9.38844 10.4255 9.63533 10.7691 10.0097 11.2111C10.4198 11.6842 10.8546 12.1635 11.3239 12.6412C11.8193 13.1267 12.2887 13.5677 12.7625 13.9695C13.2107 14.3482 13.5601 14.5896 13.814 14.7274C13.835 14.7365 13.8544 14.7452 13.87 14.7524L14.5133 14.1185C14.768 13.8644 15.0411 13.6405 15.3326 13.485C15.6371 13.304 15.9689 13.2 16.3367 13.2C16.6158 13.2 16.8916 13.2595 17.1689 13.3727C17.4323 13.4804 17.6903 13.6285 17.9491 13.8042L17.9549 13.8082L21.0412 15.9961C21.3715 16.2252 21.6304 16.5153 21.7917 16.8815L21.7965 16.8923L21.8009 16.9033C21.9196 17.1997 22 17.5209 22 17.8884C22 18.3281 21.9019 18.774 21.7001 19.2006C21.514 19.5941 21.2715 19.9686 20.9525 20.3201L20.9522 20.3204C20.4347 20.8899 19.8485 21.3175 19.174 21.5938C18.5274 21.8625 17.8312 22 17.0914 22C16.0309 22 14.9225 21.7508 13.7811 21.2652C12.6563 20.7867 11.5393 20.1455 10.4392 19.3457L10.4388 19.3454L10.4383 19.3451C9.33819 18.5427 8.29623 17.6549 7.30312 16.6728L7.30072 16.6704L7.29835 16.6681C6.31493 15.6766 5.42548 14.6359 4.63072 13.5459L4.62953 13.5443L4.62836 13.5427C3.83984 12.4481 3.19732 11.3427 2.72645 10.2359L2.72602 10.2349L2.72559 10.2339C2.24897 9.10359 2 7.99738 2 6.92093C2 6.20623 2.12636 5.51354 2.38469 4.86797C2.64745 4.20193 3.06015 3.59869 3.6207 3.0693ZM15.4611 4.27913C15.7333 4.00647 16.1751 4.00614 16.4477 4.27839L17.6038 5.43268L18.7598 4.27839C19.0324 4.00614 19.4742 4.00647 19.7464 4.27913C20.0187 4.5518 20.0184 4.99354 19.7457 5.26579L18.5912 6.4186L19.7457 7.57142C20.0184 7.84367 20.0187 8.28541 19.7464 8.55808C19.4742 8.83074 19.0324 8.83107 18.7598 8.55882L17.6038 7.40453L16.4477 8.55882C16.1751 8.83107 15.7333 8.83074 15.4611 8.55808C15.1888 8.28541 15.1891 7.84367 15.4618 7.57142L16.6164 6.4186L15.4618 5.26579C15.1891 4.99354 15.1888 4.5518 15.4611 4.27913Z" fill="#595854"/>
</svg>
