<svg width="24" height="24" viewBox="0 0 24 24" fill="none" xmlns="http://www.w3.org/2000/svg">
<path fill-rule="evenodd" clip-rule="evenodd" d="M11.4983 1.3864C12.2276 1.0466 13.0016 1.38364 13.579 1.86287L13.5803 1.86393L17.4302 5.0738C17.4301 5.07376 17.4302 5.07385 17.4302 5.0738C18.3232 5.81816 18.3367 7.0988 17.4983 7.8715L17.4968 7.87287L12.9941 12L17.4983 16.1285C18.3367 16.9012 18.3234 18.1817 17.4303 18.926C17.4302 18.9261 17.4303 18.926 17.4303 18.926L13.5803 22.136L13.579 22.1371C13.0016 22.6163 12.2276 22.9534 11.4983 22.6136C10.7669 22.2728 10.53 21.4616 10.53 20.71V14.2586L5.14679 19.1929C4.84144 19.4728 4.36701 19.4521 4.08713 19.1468C3.80725 18.8414 3.82789 18.367 4.13324 18.0871L10.53 12.2238V11.7761L4.13324 5.91285C3.82789 5.63296 3.80725 5.15854 4.08713 4.85319C4.36701 4.54784 4.84144 4.5272 5.14679 4.80708L10.53 9.74134V3.28999C10.53 2.5384 10.7669 1.72716 11.4983 1.3864ZM12.03 13.151L16.4817 17.2315C16.4815 17.2313 16.4819 17.2317 16.4817 17.2315C16.6626 17.3987 16.6565 17.6183 16.4699 17.7738L12.621 20.9829C12.6207 20.9831 12.6205 20.9833 12.6202 20.9835C12.4264 21.1443 12.2801 21.2131 12.1919 21.2378C12.1653 21.2452 12.1466 21.2481 12.1344 21.2491C12.1276 21.2394 12.1184 21.2239 12.1076 21.2001C12.0706 21.1178 12.03 20.9622 12.03 20.71V13.151ZM12.03 10.8489V3.28999C12.03 3.03774 12.0706 2.88216 12.1076 2.7999C12.1184 2.77604 12.1276 2.76051 12.1344 2.75086C12.1466 2.75182 12.1653 2.75471 12.1919 2.76215C12.2802 2.78681 12.4264 2.85572 12.6203 3.01653C12.6201 3.01634 12.6206 3.01671 12.6203 3.01653L16.4697 6.22601C16.6563 6.38151 16.6632 6.60072 16.4823 6.76791C16.4821 6.7681 16.4825 6.76772 16.4823 6.76791L12.03 10.8489ZM5 11.75C4.86193 11.75 4.75 11.8619 4.75 12C4.75 12.138 4.86193 12.25 5 12.25C5.13807 12.25 5.25 12.138 5.25 12C5.25 11.8619 5.13807 11.75 5 11.75ZM3.25 12C3.25 11.0335 4.0335 10.25 5 10.25C5.9665 10.25 6.75 11.0335 6.75 12C6.75 12.9665 5.9665 13.75 5 13.75C4.0335 13.75 3.25 12.9665 3.25 12ZM19 11.75C18.8619 11.75 18.75 11.8619 18.75 12C18.75 12.138 18.8619 12.25 19 12.25C19.1381 12.25 19.25 12.138 19.25 12C19.25 11.8619 19.1381 11.75 19 11.75ZM17.25 12C17.25 11.0335 18.0335 10.25 19 10.25C19.9665 10.25 20.75 11.0335 20.75 12C20.75 12.9665 19.9665 13.75 19 13.75C18.0335 13.75 17.25 12.9665 17.25 12Z" fill="#595854"/>
</svg>
