<svg width="24" height="24" viewBox="0 0 24 24" fill="none" xmlns="http://www.w3.org/2000/svg">
<path fill-rule="evenodd" clip-rule="evenodd" d="M3.53033 5.53033C3.01884 6.04182 2.75 6.99464 2.75 9V15C2.75 17.0054 3.01884 17.9582 3.53033 18.4697C4.04182 18.9812 4.99464 19.25 7 19.25H17C19.0054 19.25 19.9582 18.9812 20.4697 18.4697C20.9812 17.9582 21.25 17.0054 21.25 15V9C21.25 6.99464 20.9812 6.04182 20.4697 5.53033C19.9582 5.01884 19.0054 4.75 17 4.75H7C4.99464 4.75 4.04182 5.01884 3.53033 5.53033ZM2.46967 4.46967C3.45818 3.48116 5.00536 3.25 7 3.25H17C18.9946 3.25 20.5418 3.48116 21.5303 4.46967C22.5188 5.45818 22.75 7.00536 22.75 9V15C22.75 16.9946 22.5188 18.5418 21.5303 19.5303C20.5418 20.5188 18.9946 20.75 17 20.75H7C5.00536 20.75 3.45818 20.5188 2.46967 19.5303C1.48116 18.5418 1.25 16.9946 1.25 15V9C1.25 7.00536 1.48116 5.45818 2.46967 4.46967ZM5.61967 8.11967C6.27914 7.4602 7.22603 7.25 8.3 7.25H10.7C11.774 7.25 12.7209 7.4602 13.3803 8.11967C14.0398 8.77914 14.25 9.72603 14.25 10.8V13.2C14.25 14.274 14.0398 15.2209 13.3803 15.8803C12.7209 16.5398 11.774 16.75 10.7 16.75H8.3C7.22603 16.75 6.27914 16.5398 5.61967 15.8803C4.9602 15.2209 4.75 14.274 4.75 13.2V10.8C4.75 9.72603 4.9602 8.77914 5.61967 8.11967ZM6.68033 9.18033C6.4398 9.42086 6.25 9.87397 6.25 10.8V13.2C6.25 14.126 6.4398 14.5791 6.68033 14.8197C6.92086 15.0602 7.37397 15.25 8.3 15.25H10.7C11.626 15.25 12.0791 15.0602 12.3197 14.8197C12.5602 14.5791 12.75 14.126 12.75 13.2V10.8C12.75 9.87397 12.5602 9.42086 12.3197 9.18033C12.0791 8.9398 11.626 8.75 10.7 8.75H8.3C7.37397 8.75 6.92086 8.9398 6.68033 9.18033Z" fill="#595854"/>
</svg>
