<svg width="24" height="24" viewBox="0 0 24 24" fill="none" xmlns="http://www.w3.org/2000/svg">
<path fill-rule="evenodd" clip-rule="evenodd" d="M3.09467 3.09467C4.42914 1.7602 6.42603 1.25 9 1.25H15C17.574 1.25 19.5709 1.7602 20.9053 3.09467C22.2398 4.42914 22.75 6.42603 22.75 9V13C22.75 13.4142 22.4142 13.75 22 13.75C21.5858 13.75 21.25 13.4142 21.25 13V9C21.25 6.57397 20.7602 5.07086 19.8447 4.15533C18.9291 3.2398 17.426 2.75 15 2.75H9C6.57397 2.75 5.07086 3.2398 4.15533 4.15533C3.2398 5.07086 2.75 6.57397 2.75 9V15C2.75 17.426 3.2398 18.9291 4.15533 19.8447C5.07086 20.7602 6.57397 21.25 9 21.25H13C13.4142 21.25 13.75 21.5858 13.75 22C13.75 22.4142 13.4142 22.75 13 22.75H9C6.42603 22.75 4.42914 22.2398 3.09467 20.9053C1.7602 19.5709 1.25 17.574 1.25 15V9C1.25 6.42603 1.7602 4.42914 3.09467 3.09467ZM7 9.75C7.41421 9.75 7.75 10.0858 7.75 10.5V13.5C7.75 13.9142 7.41421 14.25 7 14.25C6.58579 14.25 6.25 13.9142 6.25 13.5V10.5C6.25 10.0858 6.58579 9.75 7 9.75ZM12 9.75C12.4142 9.75 12.75 10.0858 12.75 10.5V13.5C12.75 13.9142 12.4142 14.25 12 14.25C11.5858 14.25 11.25 13.9142 11.25 13.5V10.5C11.25 10.0858 11.5858 9.75 12 9.75ZM17 9.75C17.4142 9.75 17.75 10.0858 17.75 10.5V13.5C17.75 13.9142 17.4142 14.25 17 14.25C16.5858 14.25 16.25 13.9142 16.25 13.5V10.5C16.25 10.0858 16.5858 9.75 17 9.75ZM16.6997 16.6997C16.9926 16.4068 17.4674 16.4068 17.7603 16.6997L19 17.9393L20.2397 16.6997C20.5326 16.4068 21.0074 16.4068 21.3003 16.6997C21.5932 16.9926 21.5932 17.4674 21.3003 17.7603L20.0607 19L21.3003 20.2397C21.5932 20.5326 21.5932 21.0074 21.3003 21.3003C21.0074 21.5932 20.5326 21.5932 20.2397 21.3003L19 20.0607L17.7603 21.3003C17.4674 21.5932 16.9926 21.5932 16.6997 21.3003C16.4068 21.0074 16.4068 20.5326 16.6997 20.2397L17.9393 19L16.6997 17.7603C16.4068 17.4674 16.4068 16.9926 16.6997 16.6997Z" fill="#595854"/>
</svg>
