<svg width="24" height="24" viewBox="0 0 24 24" fill="none" xmlns="http://www.w3.org/2000/svg">
<path fill-rule="evenodd" clip-rule="evenodd" d="M3.09467 3.09467C4.42914 1.7602 6.42603 1.25 9 1.25H15C17.574 1.25 19.5709 1.7602 20.9053 3.09467C22.2398 4.42914 22.75 6.42603 22.75 9V15C22.75 17.574 22.2398 19.5709 20.9053 20.9053C19.5709 22.2398 17.574 22.75 15 22.75H9C6.42603 22.75 4.42914 22.2398 3.09467 20.9053C1.7602 19.5709 1.25 17.574 1.25 15V9C1.25 6.42603 1.7602 4.42914 3.09467 3.09467ZM4.15533 4.15533C3.2398 5.07086 2.75 6.57397 2.75 9V15C2.75 17.426 3.2398 18.9291 4.15533 19.8447C5.07086 20.7602 6.57397 21.25 9 21.25H15C17.426 21.25 18.9291 20.7602 19.8447 19.8447C20.7602 18.9291 21.25 17.426 21.25 15V9C21.25 6.57397 20.7602 5.07086 19.8447 4.15533C18.9291 3.2398 17.426 2.75 15 2.75H9C6.57397 2.75 5.07086 3.2398 4.15533 4.15533ZM8.16 7.4C7.9588 7.4 7.75 7.55919 7.75 7.87V9.2C7.75 9.23432 7.76806 9.34719 7.83678 9.50202C7.9034 9.65214 7.98405 9.76551 8.04095 9.82045C8.04885 9.82808 8.05659 9.83589 8.06416 9.84387L10.2742 12.1739C10.2858 12.1861 10.297 12.1988 10.3078 12.2118C10.4857 12.4268 10.6399 12.6995 10.7508 12.9751C10.8605 13.2476 10.95 13.5783 10.95 13.91V16.99C10.95 17.297 11.3136 17.5206 11.6035 17.3433L12.4117 16.8345C12.4132 16.8333 12.4235 16.8249 12.4403 16.805C12.4629 16.7782 12.4886 16.7406 12.5126 16.6942C12.5658 16.5914 12.58 16.5071 12.58 16.48V13.98C12.58 13.6317 12.663 13.2703 12.7977 12.951C12.9294 12.639 13.1332 12.3134 13.421 12.0712L15.8923 9.88664C15.9591 9.81529 16.0502 9.68446 16.1256 9.51795C16.2067 9.3391 16.24 9.18467 16.24 9.09V7.81C16.24 7.58421 16.0558 7.4 15.83 7.4H8.16ZM6.25 7.87C6.25 6.78081 7.0812 5.9 8.16 5.9H15.83C16.8842 5.9 17.74 6.75579 17.74 7.81V9.09C17.74 9.46533 17.6283 9.8359 17.4919 10.137C17.3547 10.4398 17.1626 10.738 16.9403 10.9603C16.9295 10.9712 16.9183 10.9817 16.9067 10.9919L14.4067 13.2019C14.4007 13.2072 14.3947 13.2124 14.3885 13.2175C14.3318 13.2645 14.2491 13.3698 14.1798 13.534C14.112 13.6947 14.08 13.8583 14.08 13.98V16.48C14.08 16.8029 13.9792 17.1236 13.8449 17.3833C13.7129 17.6386 13.5034 17.9215 13.2079 18.1058C13.2071 18.1063 13.2063 18.1067 13.2055 18.1072L12.3945 18.6179C11.1648 19.3784 9.45 18.5423 9.45 16.99V13.91C9.45 13.8317 9.42455 13.6974 9.3592 13.5349C9.29946 13.3864 9.22527 13.2614 9.16519 13.1844L6.98573 10.8866C6.75911 10.6633 6.58429 10.3776 6.46572 10.1105C6.34694 9.84281 6.25 9.51568 6.25 9.2V7.87Z" fill="#595854"/>
</svg>
