<svg width="24" height="24" viewBox="0 0 24 24" fill="none" xmlns="http://www.w3.org/2000/svg">
<path fill-rule="evenodd" clip-rule="evenodd" d="M11.9501 2.79999C6.75222 2.79999 2.64808 7.00297 2.74991 12.2053L2.75005 12.22V18.38C2.75005 19.9071 4.03562 21.2 5.57005 21.2C7.10584 21.2 8.39005 19.9158 8.39005 18.38V15.57C8.39005 14.9332 7.88543 14.48 7.30005 14.48C6.66325 14.48 6.21005 14.9846 6.21005 15.57V18.49C6.21005 18.9042 5.87426 19.24 5.46005 19.24C5.04584 19.24 4.71005 18.9042 4.71005 18.49V15.57C4.71005 14.2154 5.77685 12.98 7.30005 12.98C8.65467 12.98 9.89005 14.0468 9.89005 15.57V18.38C9.89005 20.7442 7.93426 22.7 5.57005 22.7C3.20448 22.7 1.25005 20.7328 1.25005 18.38V12.2272C1.13595 6.19297 5.91037 1.29999 11.9501 1.29999C17.9906 1.29999 22.75 6.19211 22.75 12.11V18.27C22.75 20.6342 20.7943 22.59 18.43 22.59C16.0658 22.59 14.1101 20.6342 14.1101 18.27V15.46C14.1101 14.1054 15.1769 12.87 16.7001 12.87C18.0547 12.87 19.2901 13.9368 19.2901 15.46V18.49C19.2901 18.9042 18.9543 19.24 18.5401 19.24C18.1258 19.24 17.7901 18.9042 17.7901 18.49V15.46C17.7901 14.8232 17.2854 14.37 16.7001 14.37C16.0633 14.37 15.6101 14.8746 15.6101 15.46V18.27C15.6101 19.8058 16.8943 21.09 18.43 21.09C19.9658 21.09 21.25 19.8058 21.25 18.27V12.11C21.25 7.00787 17.1495 2.79999 11.9501 2.79999Z" fill="#595854"/>
</svg>
