<svg width="24" height="24" viewBox="0 0 24 24" fill="none" xmlns="http://www.w3.org/2000/svg">
<path fill-rule="evenodd" clip-rule="evenodd" d="M2.79753 3.79753C4.09553 2.49952 6.04096 2 8.56 2H14.44C16.959 2 18.9045 2.49952 20.2025 3.79753C21.5005 5.09553 22 7.04096 22 9.56V15.44C22 17.959 21.5005 19.9045 20.2025 21.2025C18.9045 22.5005 16.959 23 14.44 23H8.56C6.04096 23 4.09553 22.5005 2.79753 21.2025C1.49952 19.9045 1 17.959 1 15.44V9.56C1 7.04096 1.49952 5.09553 2.79753 3.79753ZM3.78747 4.78747C2.88048 5.69447 2.4 7.17904 2.4 9.56V15.44C2.4 17.821 2.88048 19.3055 3.78747 20.2125C4.69447 21.1195 6.17904 21.6 8.56 21.6H14.44C16.821 21.6 18.3055 21.1195 19.2125 20.2125C20.1195 19.3055 20.6 17.821 20.6 15.44V9.56C20.6 7.17904 20.1195 5.69447 19.2125 4.78747C18.3055 3.88048 16.821 3.4 14.44 3.4H8.56C6.17904 3.4 4.69447 3.88048 3.78747 4.78747ZM7.53101 7.32C6.8622 7.32 6.32 7.8622 6.32 8.53101C6.32 9.19981 6.86218 9.74199 7.53101 9.74199C8.19984 9.74199 8.74202 9.19981 8.74202 8.53101C8.74202 7.8622 8.19983 7.32 7.53101 7.32ZM4.92 8.53101C4.92 7.089 6.089 5.92 7.53101 5.92C8.97303 5.92 10.142 7.089 10.142 8.53101C10.142 9.6932 9.3827 10.678 8.33312 11.0165C8.63041 11.5022 9.16708 11.8249 9.769 11.8196L9.7718 11.8196L11.7895 11.8098C11.7895 11.8098 11.7896 11.8098 11.7895 11.8098C13.451 11.7993 14.8895 12.7583 15.5816 14.1522C15.593 14.1521 15.6045 14.152 15.616 14.152C16.9769 14.152 18.08 15.2552 18.08 16.616C18.08 17.9768 16.9768 19.08 15.616 19.08C14.2552 19.08 13.152 17.9768 13.152 16.616C13.152 15.7721 13.5763 15.0272 14.2232 14.5831C13.7288 13.754 12.8245 13.2033 11.7984 13.2098L9.78138 13.2196C9.78094 13.2196 9.78048 13.2196 9.78004 13.2196C9.15444 13.2248 8.57138 13.0405 8.08399 12.7212V14.2528C9.10385 14.5545 9.84798 15.4984 9.84798 16.616C9.84798 17.9768 8.74482 19.08 7.38399 19.08C6.02316 19.08 4.92 17.9768 4.92 16.616C4.92 15.4984 5.66412 14.5545 6.68399 14.2528V11.0015C5.65773 10.6498 4.92 9.67656 4.92 8.53101ZM7.38399 15.552C6.79637 15.552 6.32 16.0284 6.32 16.616C6.32 17.2036 6.79636 17.68 7.38399 17.68C7.97162 17.68 8.44798 17.2036 8.44798 16.616C8.44798 16.0284 7.9716 15.552 7.38399 15.552ZM15.616 15.552C15.0284 15.552 14.552 16.0284 14.552 16.616C14.552 17.2036 15.0284 17.68 15.616 17.68C16.2036 17.68 16.68 17.2036 16.68 16.616C16.68 16.0284 16.2036 15.552 15.616 15.552Z" fill="#595854"/>
</svg>
