<svg width="24" height="24" viewBox="0 0 24 24" fill="none" xmlns="http://www.w3.org/2000/svg">
<path fill-rule="evenodd" clip-rule="evenodd" d="M2 1.25C2.41421 1.25 2.75 1.58579 2.75 2V19C2.75 20.2458 3.75421 21.25 5 21.25H22C22.4142 21.25 22.75 21.5858 22.75 22C22.75 22.4142 22.4142 22.75 22 22.75H5C2.92579 22.75 1.25 21.0742 1.25 19V2C1.25 1.58579 1.58579 1.25 2 1.25ZM21.4879 6.43041C21.8025 6.69988 21.8391 7.17334 21.5696 7.48792L16.9696 12.8579L16.9676 12.8602C15.9236 14.0691 14.0687 14.1394 12.9397 13.0103L11.9865 12.0571C11.4807 11.5452 10.6387 11.5744 10.1585 12.1292C10.1582 12.1295 10.1579 12.1299 10.1576 12.1302L5.56967 17.4878C5.30024 17.8024 4.82679 17.8391 4.51217 17.5697C4.19755 17.3002 4.16091 16.8268 4.43033 16.5122L9.02033 11.1522L9.02238 11.1498C10.0618 9.94621 11.9176 9.85521 13.0518 11.0011C13.0524 11.0017 13.0529 11.0023 13.0535 11.0029L14.0003 11.9497C14.511 12.4604 15.3555 12.431 15.8316 11.8807C15.8319 11.8804 15.8321 11.8801 15.8324 11.8798L20.4304 6.51208C20.6999 6.1975 21.1733 6.16094 21.4879 6.43041Z" fill="#595854"/>
</svg>
