<svg width="24" height="24" viewBox="0 0 24 24" fill="none" xmlns="http://www.w3.org/2000/svg">
<path fill-rule="evenodd" clip-rule="evenodd" d="M6.56604 2.54999H17.4341L22.8651 12L17.4341 21.45H6.56604L1.13501 12L6.56604 2.54999ZM7.44009 19.95H10.46L11.9378 17.3055L10.4664 14.75H7.43366L5.9623 17.3055L7.44009 19.95ZM5.10132 15.7947L6.56644 13.25H11.3337L13.6623 17.2945L12.1783 19.95H13.8673L17.132 14.303L13.8707 8.74999H7.43529L4.2622 14.3029L5.10132 15.7947ZM3.35921 12.8598L6.56481 7.24999H14.7294L18.8681 14.297L15.6 19.95H16.566L21.135 12L16.566 4.04999H7.43405L2.86509 12L3.35921 12.8598Z" fill="#595854"/>
</svg>
