<svg width="24" height="24" viewBox="0 0 24 24" fill="none" xmlns="http://www.w3.org/2000/svg">
<path fill-rule="evenodd" clip-rule="evenodd" d="M13.8199 3.49033C13.3328 3.00322 12.5377 3.00322 12.0506 3.49033L7.62077 7.92013L13.63 13.9294L18.0599 9.49968C18.547 9.01257 18.547 8.21746 18.0599 7.73035L13.8199 3.49033ZM12.5694 14.9901L6.56011 8.98079L4.98056 10.5603C4.49346 11.0474 4.49346 11.8426 4.98056 12.3297L9.22057 16.5697C9.70767 17.0568 10.5028 17.0568 10.9899 16.5697C10.9899 16.5697 10.9899 16.5697 10.9899 16.5697L12.5694 14.9901ZM6.04095 7.37863C6.03716 7.38227 6.0334 7.38595 6.02967 7.38968C6.02593 7.39342 6.02225 7.39718 6.01861 7.40097L3.9199 9.49968C2.84701 10.5726 2.84701 12.3174 3.9199 13.3903L8.15991 17.6303C9.2328 18.7032 10.9777 18.7032 12.0506 17.6303L15.06 14.6207L19.4797 19.0403C19.7726 19.3332 20.2474 19.3332 20.5403 19.0403C20.8332 18.7474 20.8332 18.2726 20.5403 17.9797L16.1207 13.56L19.1205 10.5604C20.1934 9.48746 20.1935 7.74258 19.1206 6.66969L14.8806 2.42967C13.8077 1.35678 12.0628 1.35678 10.9899 2.42967L6.04095 7.37863ZM1.25 21C1.25 20.5858 1.58579 20.25 2 20.25H8C8.41421 20.25 8.75 20.5858 8.75 21C8.75 21.4142 8.41421 21.75 8 21.75H2C1.58579 21.75 1.25 21.4142 1.25 21Z" fill="#595854"/>
</svg>
