<svg width="24" height="24" viewBox="0 0 24 24" fill="none" xmlns="http://www.w3.org/2000/svg">
<path fill-rule="evenodd" clip-rule="evenodd" d="M12 2.75C6.89137 2.75 2.75 6.89137 2.75 12C2.75 17.1086 6.89137 21.25 12 21.25C17.1086 21.25 21.25 17.1086 21.25 12C21.25 6.89137 17.1086 2.75 12 2.75ZM1.25 12C1.25 6.06294 6.06294 1.25 12 1.25C17.9371 1.25 22.75 6.06294 22.75 12C22.75 17.9371 17.9371 22.75 12 22.75C6.06294 22.75 1.25 17.9371 1.25 12ZM13.7896 7.93892C14.0829 8.2314 14.0836 8.70627 13.7911 8.99958L10.7992 12L13.7911 15.0004C14.0836 15.2937 14.0829 15.7686 13.7896 16.0611C13.4963 16.3536 13.0214 16.3529 12.7289 16.0596L9.20892 12.5296C8.91703 12.2369 8.91703 11.7631 9.20892 11.4704L12.7289 7.94042C13.0214 7.64711 13.4963 7.64644 13.7896 7.93892Z" fill="#595854"/>
</svg>
