<svg width="24" height="24" viewBox="0 0 24 24" fill="none" xmlns="http://www.w3.org/2000/svg">
<path fill-rule="evenodd" clip-rule="evenodd" d="M14.4059 2.07768C14.4061 2.0779 14.4064 2.07813 14.4067 2.07835L21.3362 7.72425C21.8489 8.145 22.2321 8.76024 22.4664 9.38625C22.701 10.013 22.8162 10.73 22.7108 11.3881L22.7103 11.3908L21.3805 19.5024L21.3802 19.5046C21.0817 21.2915 19.4086 22.75 17.6009 22.75H6.40255C4.58546 22.75 2.92138 21.3023 2.62313 19.5037L1.29385 11.3953C1.29372 11.3945 1.29358 11.3937 1.29344 11.3929C1.18167 10.7328 1.29453 10.0141 1.52954 9.38625C1.76451 8.75852 2.15116 8.14278 2.66983 7.72216C2.6702 7.72186 2.67057 7.72156 2.67094 7.72126L9.5974 2.06762C9.59728 2.06772 9.59752 2.06752 9.5974 2.06762C10.9347 0.975016 13.0612 0.976894 14.4059 2.07768ZM13.4561 3.23873C12.6612 2.58753 11.3288 2.58981 10.5466 3.22906L3.61517 8.88679C3.35451 9.09795 3.10164 9.46517 2.93434 9.9121C2.7672 10.3586 2.71508 10.8057 2.77259 11.1436L2.77336 11.1481L4.10292 19.2583C4.10288 19.2581 4.10295 19.2585 4.10292 19.2583C4.28488 20.3536 5.34029 21.25 6.40255 21.25H17.6009C18.6523 21.25 19.7184 20.3449 19.9005 19.2586C19.9005 19.2582 19.9006 19.2579 19.9007 19.2575L21.2297 11.1508C21.2297 11.1505 21.2298 11.1501 21.2298 11.1497C21.2841 10.8093 21.2292 10.36 21.0616 9.9121C20.8937 9.46354 20.6424 9.09572 20.3855 8.88454C20.3852 8.88429 20.3849 8.88404 20.3846 8.88379L13.4577 3.23998L13.4561 3.23873ZM12.0017 11.2246C11.0488 11.2246 10.2521 12.0159 10.2521 13.0222C10.2521 14.0285 11.0488 14.8198 12.0017 14.8198C12.9546 14.8198 13.7513 14.0285 13.7513 13.0222C13.7513 12.0159 12.9546 11.2246 12.0017 11.2246ZM8.75209 13.0222C8.75209 11.2145 10.1936 9.72457 12.0017 9.72457C13.8098 9.72457 15.2513 11.2145 15.2513 13.0222C15.2513 14.8299 13.8098 16.3198 12.0017 16.3198C10.1936 16.3198 8.75209 14.8299 8.75209 13.0222Z" fill="#595854"/>
</svg>
