<svg width="24" height="24" viewBox="0 0 24 24" fill="none" xmlns="http://www.w3.org/2000/svg">
<path fill-rule="evenodd" clip-rule="evenodd" d="M6 2.76001C4.74764 2.76001 3.75 3.76074 3.75 4.97998V15.89C3.75 17.1093 4.74764 18.11 6 18.11H6.75C7.73266 18.11 8.69436 18.4946 9.39871 19.198C9.39925 19.1986 9.39979 19.1991 9.40033 19.1996L11.1069 20.8863C11.1069 20.8863 11.1069 20.8863 11.1069 20.8863C11.5947 21.3677 12.3949 21.3679 12.8828 20.8866M12.8828 20.8866L14.5897 19.1996C14.5902 19.1991 14.5908 19.1985 14.5914 19.1979C15.2948 18.4954 16.2461 18.11 17.24 18.11H18C19.2507 18.11 20.25 17.1009 20.25 15.89V4.97998C20.25 3.76074 19.2524 2.76001 18 2.76001H6M2.25 4.97998C2.25 2.91923 3.93236 1.26001 6 1.26001H18C20.0676 1.26001 21.75 2.91923 21.75 4.97998V15.89C21.75 17.9391 20.0693 19.61 18 19.61H17.24C16.6347 19.61 16.0667 19.8439 15.6503 20.2603L15.6472 20.2634L13.9372 21.9535C12.8651 23.0118 11.1252 23.0121 10.0531 21.9538L8.34278 20.2634L8.33966 20.2603C7.92416 19.8448 7.34659 19.61 6.75 19.61H6C3.93236 19.61 2.25 17.9508 2.25 15.89V4.97998ZM13.1774 5.00174C13.9814 5.26935 14.5159 6.13486 14.3483 6.98301L14.1295 8.37996H15.95C16.541 8.37996 17.0932 8.61994 17.4376 9.08462C17.7841 9.55227 17.8496 10.153 17.6498 10.7223L16.4091 14.4843C16.2724 14.9838 15.9446 15.3836 15.5743 15.6535C15.1978 15.928 14.7211 16.1099 14.23 16.1099H12.25C12.0251 16.1099 11.7619 16.0752 11.5148 16.0058C11.2992 15.9453 11.0051 15.8337 10.7711 15.62L9.97558 15.0023C9.94119 15.0426 9.90384 15.0816 9.8633 15.1191C9.48255 15.4717 8.98188 15.54 8.56 15.54H8.03999C7.61811 15.54 7.11744 15.4717 6.73669 15.1191C6.34171 14.7534 6.25 14.2478 6.25 13.8V8.70996C6.25 8.26217 6.34171 7.75661 6.73669 7.39089C7.11744 7.03835 7.61811 6.96997 8.03999 6.96997H8.56C8.98188 6.96997 9.48255 7.03835 9.8633 7.39089C9.89182 7.41729 9.91875 7.44443 9.94419 7.47221L11.1643 5.65634C11.3747 5.33439 11.7061 5.11688 12.0339 5.00431C12.3652 4.89057 12.7766 4.85515 13.1774 5.00174ZM10.35 9.5578V13.394L11.7571 14.4864L11.7777 14.507C11.781 14.509 11.7861 14.5117 11.7929 14.5151C11.8206 14.5289 11.8633 14.5457 11.9202 14.5616C12.0381 14.5947 12.1649 14.6099 12.25 14.6099H14.23C14.3589 14.6099 14.5322 14.5569 14.6907 14.4414C14.8488 14.3262 14.9359 14.1905 14.9638 14.0826L14.97 14.0586L16.2305 10.2366L16.2335 10.2283C16.2897 10.0704 16.249 10.0001 16.2324 9.97777C16.2118 9.94997 16.139 9.87996 15.95 9.87996H13.87C13.1183 9.87996 12.4927 9.23096 12.6071 8.40679L12.6089 8.3939L12.8722 6.71377L12.8764 6.69385C12.8818 6.66855 12.8803 6.61237 12.8396 6.54408C12.7991 6.47623 12.7441 6.43785 12.702 6.42441L12.6823 6.41813L12.663 6.41078C12.65 6.40582 12.5994 6.3961 12.5211 6.42301C12.4854 6.43527 12.4557 6.45154 12.435 6.46659C12.4247 6.47411 12.419 6.47954 12.4168 6.48181L12.4126 6.48826L10.35 9.5578ZM7.76878 8.49506C7.76027 8.53007 7.75 8.59625 7.75 8.70996V13.8C7.75 13.9138 7.76027 13.9799 7.76878 14.0149C7.81564 14.0273 7.90007 14.04 8.03999 14.04H8.56C8.69993 14.04 8.78437 14.0273 8.83122 14.0149C8.83973 13.9799 8.85001 13.9138 8.85001 13.8V8.70996C8.85001 8.59625 8.83973 8.53007 8.83122 8.49507C8.78437 8.48271 8.69993 8.46997 8.56 8.46997H8.03999C7.90007 8.46997 7.81564 8.48271 7.76878 8.49506Z" fill="#595854"/>
</svg>
