<svg width="24" height="24" viewBox="0 0 24 24" fill="none" xmlns="http://www.w3.org/2000/svg">
<path fill-rule="evenodd" clip-rule="evenodd" d="M3.09467 3.09467C4.42914 1.7602 6.42603 1.25 9 1.25H15C17.574 1.25 19.5709 1.7602 20.9053 3.09467C22.2398 4.42914 22.75 6.42603 22.75 9V15C22.75 17.574 22.2398 19.5709 20.9053 20.9053C19.5709 22.2398 17.574 22.75 15 22.75H9C6.42603 22.75 4.42914 22.2398 3.09467 20.9053C1.7602 19.5709 1.25 17.574 1.25 15V9C1.25 6.42603 1.7602 4.42914 3.09467 3.09467ZM4.15533 4.15533C3.2398 5.07086 2.75 6.57397 2.75 9V15C2.75 17.426 3.2398 18.9291 4.15533 19.8447C5.07086 20.7602 6.57397 21.25 9 21.25H15C17.426 21.25 18.9291 20.7602 19.8447 19.8447C20.7602 18.9291 21.25 17.426 21.25 15V9C21.25 6.57397 20.7602 5.07086 19.8447 4.15533C18.9291 3.2398 17.426 2.75 15 2.75H9C6.57397 2.75 5.07086 3.2398 4.15533 4.15533ZM7.67034 6.21967C7.96324 6.51256 7.96324 6.98743 7.67035 7.28033L7.15068 7.8H7.58002C9.51426 7.8 11.2109 8.83268 12.1422 10.3807C13.0703 8.83002 14.7658 7.78999 16.71 7.78999H16.8393L16.3297 7.28033C16.0368 6.98743 16.0368 6.51256 16.3297 6.21967C16.6226 5.92678 17.0974 5.92678 17.3903 6.21967L19.0875 7.91684C19.288 8.05146 19.42 8.28031 19.42 8.53999C19.42 8.74963 19.334 8.93918 19.1953 9.07528C19.1937 9.07697 19.192 9.07865 19.1903 9.08033L17.3903 10.8803C17.0974 11.1732 16.6226 11.1732 16.3297 10.8803C16.0368 10.5874 16.0368 10.1126 16.3297 9.81968L16.8593 9.28999H16.71C14.6656 9.28999 13.0038 10.8911 12.8956 12.9012C12.8985 12.9738 12.9 13.0467 12.9 13.12V17.25C12.9 17.6642 12.5642 18 12.15 18C11.7358 18 11.4 17.6642 11.4 17.25V15.1928C11.3934 15.1529 11.39 15.1118 11.39 15.07V13.11C11.39 13.0406 11.3913 12.9716 11.394 12.9029C11.2815 10.8898 9.61427 9.3 7.58002 9.3H7.15068L7.67035 9.81968C7.96324 10.1126 7.96324 10.5874 7.67034 10.8803C7.37745 11.1732 6.90257 11.1732 6.60968 10.8803L4.80969 9.08033C4.5168 8.78744 4.5168 8.31257 4.80969 8.01968L6.60968 6.21967C6.90257 5.92678 7.37745 5.92678 7.67034 6.21967Z" fill="#595854"/>
</svg>
