<svg width="24" height="24" viewBox="0 0 24 24" fill="none" xmlns="http://www.w3.org/2000/svg">
<path fill-rule="evenodd" clip-rule="evenodd" d="M5 1.25C5.41421 1.25 5.75 1.58579 5.75 2V4.25H14.1C16.0485 4.25 17.5681 4.48239 18.5428 5.45717C19.5176 6.43195 19.75 7.95147 19.75 9.9V18.25H22C22.4142 18.25 22.75 18.5858 22.75 19C22.75 19.4142 22.4142 19.75 22 19.75H19.75V22C19.75 22.4142 19.4142 22.75 19 22.75C18.5858 22.75 18.25 22.4142 18.25 22V19.75H9.9C7.95147 19.75 6.43195 19.5176 5.45717 18.5428C4.48239 17.5681 4.25 16.0485 4.25 14.1V5.75H2C1.58579 5.75 1.25 5.41421 1.25 5C1.25 4.58579 1.58579 4.25 2 4.25H4.25V2C4.25 1.58579 4.58579 1.25 5 1.25ZM5.75 5.75V14.1C5.75 16.0515 6.01761 16.982 6.51783 17.4822C7.01805 17.9824 7.94853 18.25 9.9 18.25H18.25V9.9C18.25 7.94853 17.9824 7.01805 17.4822 6.51783C16.982 6.01761 16.0515 5.75 14.1 5.75H5.75Z" fill="#595854"/>
</svg>
