<svg width="24" height="24" viewBox="0 0 24 24" fill="none" xmlns="http://www.w3.org/2000/svg">
<path fill-rule="evenodd" clip-rule="evenodd" d="M9.45711 2.92807C8.81627 3.21712 8.21498 3.92342 7.57842 5.39578C7.56896 5.41764 7.55848 5.43903 7.547 5.45989C7.54609 5.4624 7.54497 5.46553 7.54363 5.46941L7.53151 5.50532C7.52434 5.52683 7.5162 5.548 7.50712 5.56876L7.44192 5.71779L7.40191 5.81782L6.23498 8.60485C6.44683 8.58063 6.66209 8.56815 6.88 8.56815H9.23651L11.6504 2.96621C10.6438 2.67174 9.96877 2.6973 9.45711 2.92807ZM13.0565 3.49355L10.8698 8.56815H16.64C16.9483 8.56815 17.262 8.59006 17.5739 8.63978C17.8734 7.72508 17.9024 7.07434 17.746 6.58766C17.7409 6.57194 17.7364 6.55606 17.7324 6.54005C17.7226 6.50082 17.7065 6.45196 17.6846 6.40275C17.6686 6.36672 17.6555 6.32949 17.6453 6.2914C17.6317 6.24025 17.6027 6.17262 17.5391 6.07372C17.5287 6.05744 17.5188 6.04076 17.5096 6.02372C17.4712 5.95233 17.4241 5.88466 17.3438 5.78829L17.3379 5.78113C16.9373 5.28809 16.2181 4.81659 15.0227 4.32096L15.0191 4.31944L13.0565 3.49355ZM4.38029 9.15075L5.35814 6.81506C4.0781 7.53248 3.14089 8.78628 2.8472 10.2712C3.28938 9.8167 3.80734 9.43639 4.38029 9.15075ZM5.2644 10.3989C3.79079 11.036 2.76172 12.5011 2.76172 14.1984V16.1484C2.76172 16.3478 2.77841 16.5543 2.80542 16.7614C2.80748 16.7772 2.80904 16.793 2.81009 16.809C2.90708 18.2777 3.34015 19.3036 4.0233 19.9868C4.70644 20.6699 5.73243 21.103 7.20114 21.2C7.21705 21.2011 7.23292 21.2026 7.24872 21.2047C7.45578 21.2317 7.66229 21.2484 7.86172 21.2484H15.6617C17.4018 21.2484 18.6075 20.8344 19.3963 20.1246C20.1782 19.421 20.6646 18.3234 20.7528 16.7089C20.7629 16.5066 20.7717 16.3259 20.7717 16.1484V14.2666C20.7697 14.2439 20.7686 14.2209 20.7686 14.1977C20.7686 12.3355 19.5322 10.7528 17.8431 10.246C17.8113 10.2365 17.7804 10.225 17.7506 10.2115C17.7119 10.2005 17.6728 10.1902 17.6333 10.1805C17.3233 10.1077 16.9913 10.0684 16.6517 10.0684H6.89172C6.31908 10.0684 5.7782 10.1854 5.2644 10.3989ZM20.6689 10.2617C20.1953 9.77572 19.6356 9.37515 19.0163 9.0847C19.1696 8.60772 19.2744 8.14971 19.3204 7.70953C19.9924 8.39726 20.4718 9.28011 20.6689 10.2617ZM22.2686 14.009V11.2677C22.2686 8.83586 20.942 6.68443 18.9665 5.55818C18.9203 5.46075 18.869 5.37037 18.8161 5.28654C18.7191 5.11134 18.6121 4.96742 18.4991 4.83148C17.8598 4.04678 16.8609 3.45946 15.5991 2.93612C15.5985 2.93586 15.5979 2.9356 15.5973 2.93534L13.3909 2.00686L13.3785 2.00179C13.3624 1.99534 13.3336 1.98291 13.2969 1.96707C13.1964 1.92366 13.0365 1.85462 12.9147 1.81259C11.3724 1.22442 10.0213 1.0281 8.84039 1.56072C7.67702 2.08544 6.88626 3.2266 6.21589 4.76754C6.19448 4.80832 6.17633 4.84855 6.16127 4.88516C3.32938 5.6313 1.25 8.20767 1.25 11.2681V14.1981C1.25 14.2435 1.25402 14.2878 1.26172 14.3309V16.1484C1.26172 16.4201 1.28359 16.6853 1.31494 16.9315C1.4312 18.6322 1.95297 20.0378 2.96264 21.0475C3.9723 22.0571 5.37793 22.5789 7.07857 22.6951C7.32482 22.7265 7.58995 22.7484 7.86172 22.7484H15.6617C17.6216 22.7484 19.2409 22.2824 20.3997 21.2396C21.565 20.1909 22.1485 18.6639 22.2506 16.7891L22.2508 16.7858L22.2512 16.7778C22.2609 16.583 22.2717 16.3672 22.2717 16.1484V14.1984C22.2717 14.135 22.2707 14.0719 22.2686 14.009ZM8.51172 15.9981C8.51172 15.5838 8.84751 15.2481 9.26172 15.2481H14.2617C14.6759 15.2481 15.0117 15.5838 15.0117 15.9981C15.0117 16.4123 14.6759 16.7481 14.2617 16.7481H9.26172C8.84751 16.7481 8.51172 16.4123 8.51172 15.9981Z" fill="#595854"/>
</svg>
