<svg width="24" height="24" viewBox="0 0 24 24" fill="none" xmlns="http://www.w3.org/2000/svg">
<path fill-rule="evenodd" clip-rule="evenodd" d="M11.9997 4.25577C9.11898 4.25577 6.77944 6.6093 6.77944 9.53289C6.77944 10.6298 7.10073 11.6313 7.652 12.4669C8.46061 13.6756 9.736 14.5233 11.2139 14.7408C11.2201 14.7417 11.2264 14.7427 11.2326 14.7438C11.4788 14.7877 11.7343 14.81 11.9997 14.81C12.2651 14.81 12.5206 14.7877 12.7668 14.7438C12.773 14.7427 12.7792 14.7417 12.7855 14.7408C14.2633 14.5233 15.5387 13.6757 16.3473 12.4669C16.8986 11.6314 17.2199 10.6298 17.2199 9.53289C17.2199 6.6093 14.8804 4.25577 11.9997 4.25577ZM6.34166 12.7256C5.81977 11.7833 5.52369 10.6979 5.52369 9.53289C5.52369 5.92723 8.41404 3 11.9997 3C15.5853 3 18.4757 5.92723 18.4757 9.53289C18.4757 10.6979 18.1796 11.7833 17.6577 12.7256L20.5729 15.6691C21.3826 16.4752 20.9809 17.8674 19.8736 18.1322L18.4988 18.4603C18.4983 18.4604 18.4979 18.4605 18.4974 18.4606C18.4082 18.483 18.3581 18.5439 18.3448 18.6062C18.3439 18.6104 18.3429 18.6147 18.3419 18.6189L18.0496 19.8586C18.0496 19.8587 18.0496 19.8588 18.0495 19.8589C17.7732 21.0327 16.2835 21.393 15.5062 20.4672L12.0001 16.4L8.49337 20.4753C7.71618 21.4015 6.2262 21.0412 5.94982 19.8673C5.94979 19.8672 5.94977 19.8671 5.94974 19.867L5.65812 18.6302C5.65804 18.6299 5.65795 18.6295 5.65787 18.6292C5.63551 18.5381 5.56784 18.4839 5.51284 18.4716L5.50455 18.4697L4.12578 18.1406C3.01057 17.8739 2.6237 16.4797 3.42469 15.6709L6.34166 12.7256ZM7.06565 13.7791L4.31692 16.5546C4.19892 16.6737 4.26318 16.8823 4.41785 16.9193L5.79257 17.2474C6.33652 17.3714 6.75104 17.8052 6.87894 18.3361L6.87965 18.3391L7.17213 19.5795C7.21299 19.7532 7.42291 19.7984 7.53223 19.6672L7.53868 19.6595L10.738 15.9415C9.27545 15.6561 7.99571 14.8737 7.06565 13.7791ZM13.2626 15.9413L16.4603 19.6507C16.4626 19.6534 16.4649 19.656 16.4671 19.6587C16.5764 19.79 16.7864 19.7448 16.8272 19.571L17.1184 18.3361C17.2408 17.7782 17.6734 17.3699 18.1993 17.2407L18.2033 17.2398L19.5815 16.9108C19.5815 16.9108 19.5815 16.9108 19.5815 16.9108C19.6573 16.8927 19.712 16.8388 19.7344 16.7597C19.7569 16.6804 19.7377 16.6094 19.6865 16.5586L19.6824 16.5546L16.9337 13.7791C16.0039 14.8734 14.7246 15.6557 13.2626 15.9413ZM12.0122 7.44697L11.6099 8.25934C11.5224 8.43609 11.3876 8.57442 11.2613 8.67001C11.1358 8.76506 10.9622 8.8607 10.7598 8.89498C10.7597 8.89499 10.7598 8.89497 10.7598 8.89498C10.7595 8.89503 10.7591 8.8951 10.7588 8.89514L10.0201 9.02062L10.6078 9.61405C10.7669 9.77466 10.8526 9.97387 10.8957 10.1354C10.9394 10.299 10.9598 10.5 10.9184 10.6986C10.9179 10.7011 10.9174 10.7035 10.9168 10.7059C10.9164 10.7078 10.916 10.7097 10.9155 10.7117L10.76 11.3855L11.4161 10.9946C11.6131 10.8748 11.8331 10.8347 12.0164 10.8347C12.1997 10.8347 12.4197 10.8748 12.6166 10.9946L13.2728 11.3855L13.1181 10.7154C13.0668 10.5026 13.0888 10.2923 13.1361 10.1241C13.1838 9.95488 13.2745 9.76597 13.425 9.61405L14.0127 9.02062L13.2753 8.89538C13.0721 8.86214 12.897 8.7692 12.7677 8.67265C12.638 8.57586 12.5023 8.43665 12.4145 8.25934L12.0122 7.44697ZM15.0106 9.79757C15.2949 9.51046 15.537 9.06843 15.3836 8.58254C15.2293 8.09364 14.7746 7.8742 14.3755 7.80848C14.3747 7.80836 14.374 7.80824 14.3733 7.80813L13.5206 7.66328L13.0469 6.70667C12.8712 6.35189 12.53 5.9525 12.0028 5.9525C11.4708 5.9525 11.1376 6.35621 10.9728 6.71616L10.5031 7.66483L9.65555 7.80878L9.65054 7.80965C9.258 7.8796 8.80417 8.09782 8.64953 8.58462C8.4947 9.07203 8.74006 9.51271 9.02217 9.79757L9.6836 10.4654L9.49163 11.2973C9.49161 11.2974 9.49158 11.2975 9.49156 11.2976C9.40055 11.6896 9.37732 12.2848 9.84773 12.6299C10.3179 12.9749 10.8784 12.7744 11.2239 12.5709L11.2266 12.5693L12.0164 12.0988L12.8033 12.5675C12.8039 12.5679 12.8044 12.5682 12.805 12.5686C13.1522 12.7775 13.7152 12.9813 14.1874 12.6314C14.6549 12.285 14.6324 11.6901 14.5411 11.2973L14.3492 10.4654L15.0106 9.79757ZM12.0704 12.0665C12.0692 12.0672 12.068 12.068 12.0668 12.0687L12.0704 12.0665ZM11.966 12.0687C11.9648 12.068 11.9636 12.0672 11.9624 12.0665L11.966 12.0687Z" fill="#595854"/>
</svg>
