<svg width="24" height="24" viewBox="0 0 24 24" fill="none" xmlns="http://www.w3.org/2000/svg">
<path fill-rule="evenodd" clip-rule="evenodd" d="M9.151 2.93577C8.66264 3.07177 8.3501 3.49224 8.3501 3.89998V6.84998H12.0001C12.4143 6.84998 12.7501 7.18576 12.7501 7.59998C12.7501 8.01419 12.4143 8.34998 12.0001 8.34998H3.9001C3.49236 8.34998 3.07189 8.66252 2.93589 9.15088C2.65288 11.0639 2.65485 12.9757 2.9418 14.8887L2.94431 14.9069C2.99276 15.2945 3.33974 15.65 3.9001 15.65H6.8501V14.2C6.8501 12.5858 8.18588 11.25 9.8001 11.25H14.2001C14.9859 11.25 15.6501 10.5858 15.6501 9.79998V3.89998C15.6501 3.33962 15.2947 2.99263 14.9071 2.94418L14.8888 2.94168C12.9758 2.65472 11.064 2.65276 9.151 2.93577ZM17.1501 8.34998V9.79998C17.1501 11.4142 15.8143 12.75 14.2001 12.75H9.8001C9.01431 12.75 8.3501 13.4142 8.3501 14.2V20.1C8.3501 20.5077 8.66264 20.9282 9.151 21.0642C11.064 21.3472 12.9758 21.3452 14.8888 21.0583L14.9071 21.0558C15.2947 21.0073 15.6501 20.6603 15.6501 20.1V17.15H12.0001C11.5859 17.15 11.2501 16.8142 11.2501 16.4C11.2501 15.9858 11.5859 15.65 12.0001 15.65H20.1001C20.6605 15.65 21.0074 15.2945 21.0559 14.9069L21.0584 14.8887C21.3453 12.9757 21.3473 11.0639 21.0643 9.15088C20.9283 8.66252 20.5078 8.34998 20.1001 8.34998H17.1501ZM17.1501 17.15V20.1C17.1501 21.3362 16.3101 22.3869 15.103 22.5429C13.032 22.8527 10.9598 22.8523 8.88884 22.5417C8.86508 22.5381 8.84151 22.5334 8.8182 22.5276C7.72429 22.2541 6.8501 21.2837 6.8501 20.1V17.15H3.9001C2.66384 17.15 1.61318 16.31 1.45715 15.1029C1.14733 13.0319 1.14775 10.9597 1.4584 8.88872C1.46196 8.86496 1.46666 8.84138 1.47249 8.81807C1.74597 7.72417 2.71639 6.84998 3.9001 6.84998H6.8501V3.89998C6.8501 2.71627 7.72429 1.74585 8.8182 1.47237C8.84151 1.46654 8.86508 1.46184 8.88884 1.45827C10.9598 1.14763 13.032 1.14721 15.103 1.45703C16.3101 1.61306 17.1501 2.66371 17.1501 3.89998V6.84998H20.1001C21.2838 6.84998 22.2542 7.72417 22.5277 8.81807C22.5335 8.84138 22.5382 8.86496 22.5418 8.88872C22.8524 10.9597 22.8529 13.0319 22.543 15.1029C22.387 16.31 21.3364 17.15 20.1001 17.15H17.1501Z" fill="#595854"/>
</svg>
