<svg width="24" height="24" viewBox="0 0 24 24" fill="none" xmlns="http://www.w3.org/2000/svg">
<path fill-rule="evenodd" clip-rule="evenodd" d="M11.5418 2.57476C10.863 2.57476 10.2262 2.71878 9.78047 2.9637L9.77701 2.9656L4.33596 5.91776C3.99286 6.10372 3.65215 6.40491 3.35705 6.77839L11.5417 11.4146L19.7242 6.77527C19.4296 6.40323 19.0902 6.10336 18.748 5.91792L13.3032 2.96371C12.8575 2.71879 12.2207 2.57476 11.5418 2.57476ZM20.455 8.15066L12.2918 12.779V20.8865C12.6786 20.8225 13.0275 20.7096 13.3032 20.558L13.3078 20.5555L14.4057 19.9624C14.0488 19.3 13.8486 18.5414 13.8486 17.745C13.8486 16.2199 14.5671 14.8656 15.6803 14.0008C16.5096 13.3539 17.552 12.9682 18.6743 12.9682C19.3534 12.9682 19.9979 13.1051 20.5837 13.357V8.93836C20.5837 8.69746 20.5398 8.4293 20.455 8.15066ZM19.18 14.5792C19.8205 14.6724 20.3897 14.9409 20.8506 15.3341C20.8779 15.3574 20.9066 15.3785 20.9363 15.3973C21.5965 15.9902 22 16.8347 22 17.7449C22 18.3334 21.832 18.8912 21.5335 19.3651L21.5232 19.3818C21.3561 19.6624 21.14 19.9132 20.8921 20.1167C20.8853 20.1223 20.8786 20.128 20.872 20.1338C20.2968 20.6405 19.531 20.9469 18.6743 20.9469C17.6395 20.9469 16.7343 20.4953 16.137 19.8073C16.1163 19.7752 16.0932 19.7444 16.0678 19.7154C16.0279 19.6699 15.9911 19.625 15.9575 19.5806C15.9095 19.5141 15.8643 19.4458 15.8219 19.376L15.8151 19.3651C15.5166 18.8912 15.3486 18.3334 15.3486 17.745C15.3486 16.757 15.8118 15.8575 16.5731 15.2662L16.5744 15.2652C17.151 14.8153 17.8813 14.5429 18.6743 14.5429C18.7273 14.5429 18.7799 14.5441 18.832 14.5464C18.9501 14.5516 19.0662 14.5626 19.18 14.5792ZM15.3629 21.2164L13.9988 21.9532C13.998 21.9537 13.9971 21.9542 13.9962 21.9546C13.2808 22.347 12.3904 22.5217 11.5418 22.5217C10.6931 22.5217 9.80244 22.3469 9.08692 21.9544C9.08623 21.954 9.08554 21.9536 9.08486 21.9532L3.64756 19.0031C3.64746 19.0031 3.64766 19.0032 3.64756 19.0031C2.88838 18.5915 2.23587 17.8955 1.7746 17.1298C1.31476 16.3665 1 15.459 1 14.5834V8.93836C1 8.06271 1.31476 7.15525 1.7746 6.39192C2.23587 5.62619 2.88809 4.93035 3.64727 4.51879C3.64717 4.51884 3.64737 4.51874 3.64727 4.51879L9.08668 1.56751C9.80224 1.17483 10.693 1 11.5418 1C12.3907 1 13.2814 1.17483 13.997 1.56751C13.9976 1.56784 13.9982 1.56818 13.9988 1.56851L19.4361 4.51863C19.436 4.51858 19.4362 4.51868 19.4361 4.51863C20.1953 4.93019 20.8478 5.62619 21.3091 6.39192C21.7689 7.15525 22.0837 8.06271 22.0837 8.93836V14.3631C22.954 15.2199 23.5 16.4079 23.5 17.7449C23.5 18.649 23.242 19.5043 22.7898 20.2255C22.5321 20.6558 22.2033 21.0373 21.8263 21.3488C20.9763 22.0934 19.8712 22.5217 18.6743 22.5217C17.3964 22.5217 16.2276 22.0296 15.3629 21.2164ZM10.7918 20.8865V12.7792L2.62755 8.15453C2.54348 8.43178 2.5 8.69858 2.5 8.93836V14.5834C2.5 15.0841 2.68959 15.7025 3.04234 16.2881C3.39359 16.8712 3.86207 17.3471 4.33567 17.6038L9.78047 20.558C10.0562 20.7096 10.4051 20.8225 10.7918 20.8865ZM17.0547 16.1422C17.3364 15.8234 17.811 15.8048 18.1146 16.1006L18.6897 16.6608L19.234 16.1305C19.5376 15.8348 20.0122 15.8534 20.2939 16.1721C20.5757 16.4909 20.5579 16.9891 20.2543 17.2849L19.7923 17.735L20.2747 18.205C20.5783 18.5008 20.5961 18.999 20.3143 19.3177C20.0326 19.6365 19.558 19.6551 19.2544 19.3593L18.6897 18.8092L18.0942 19.3893C17.7906 19.6851 17.316 19.6664 17.0343 19.3477C16.7525 19.0289 16.7703 18.5307 17.0739 18.2349L17.5871 17.735L17.0943 17.2549C16.7907 16.9591 16.7729 16.4609 17.0547 16.1422Z" fill="#595854"/>
</svg>
