<svg width="24" height="24" viewBox="0 0 24 24" fill="none" xmlns="http://www.w3.org/2000/svg">
<path fill-rule="evenodd" clip-rule="evenodd" d="M9.3396 1.46894C9.6329 1.76143 9.63355 2.2363 9.34106 2.5296L6.77774 5.1H17.2223L14.6589 2.5296C14.3665 2.2363 14.3671 1.76143 14.6604 1.46894C14.9537 1.17645 15.4286 1.1771 15.7211 1.4704L19.3407 5.1H19.78C20.372 5.1 21.1531 5.12085 21.7686 5.53311C22.4648 5.99942 22.75 6.80189 22.75 7.85C22.75 8.99331 22.4918 9.86454 21.7257 10.3061C21.5418 10.4121 21.3501 10.4788 21.1637 10.5215L19.5566 18.9011C19.3797 19.8247 19.1487 20.8485 18.4288 21.6028C17.6769 22.3907 16.539 22.75 14.89 22.75H8.86C7.30817 22.75 6.17682 22.3623 5.39883 21.5745C4.64199 20.808 4.33732 19.7765 4.17 18.7621L2.82475 10.5188C2.64197 10.4761 2.45441 10.4099 2.27425 10.3061C1.50815 9.86454 1.25 8.99331 1.25 7.85C1.25 6.80189 1.53518 5.99942 2.23138 5.53311C2.8469 5.12085 3.62803 5.1 4.22 5.1H4.65934L8.27894 1.4704C8.57143 1.1771 9.0463 1.17645 9.3396 1.46894ZM4.35784 10.6L5.65 18.5179C5.64997 18.5177 5.65003 18.5181 5.65 18.5179C5.80268 19.4432 6.0431 20.0921 6.46617 20.5205C6.86818 20.9277 7.55183 21.25 8.86 21.25H14.89C16.351 21.25 16.9981 20.9293 17.3437 20.5672C17.7213 20.1715 17.9003 19.5753 18.0834 18.6189L19.6213 10.6H4.35784ZM3.06612 6.77939C2.95982 6.85058 2.75 7.04811 2.75 7.85C2.75 8.84937 2.98342 8.98354 3.02242 9.00597C3.08083 9.03963 3.19013 9.07576 3.40918 9.09186C3.5762 9.10413 3.7483 9.10284 3.96205 9.10124C4.04163 9.10064 4.12698 9.1 4.22 9.1H19.78C19.873 9.1 19.9584 9.10064 20.038 9.10124C20.2517 9.10284 20.4238 9.10413 20.5908 9.09186C20.8099 9.07576 20.9183 9.0401 20.9767 9.00644C21.0158 8.98402 21.25 8.84937 21.25 7.85C21.25 7.0481 21.0402 6.85058 20.9339 6.77939C20.7469 6.65415 20.418 6.6 19.78 6.6H4.22C3.58197 6.6 3.2531 6.65415 3.06612 6.77939ZM8.5 13.5C8.91421 13.5 9.25 13.8358 9.25 14.25C9.25 15.7558 10.4942 17 12 17C13.5058 17 14.75 15.7558 14.75 14.25C14.75 13.8358 15.0858 13.5 15.5 13.5C15.9142 13.5 16.25 13.8358 16.25 14.25C16.25 16.5842 14.3342 18.5 12 18.5C9.66579 18.5 7.75 16.5842 7.75 14.25C7.75 13.8358 8.08579 13.5 8.5 13.5Z" fill="#595854"/>
</svg>
