<svg width="24" height="24" viewBox="0 0 24 24" fill="none" xmlns="http://www.w3.org/2000/svg">
<path fill-rule="evenodd" clip-rule="evenodd" d="M2.74662 7.75C2.75921 6.08843 2.99855 5.32103 3.41216 4.91207C3.84018 4.48887 4.6551 4.25 6.43609 4.25H14.4961C14.9103 4.25 15.2461 3.91421 15.2461 3.5C15.2461 3.08579 14.9103 2.75 14.4961 2.75H6.43609C4.66709 2.75 3.26201 2.95113 2.35752 3.84543C1.45009 4.74265 1.24609 6.13883 1.24609 7.89V16.11C1.24609 17.8612 1.45009 19.2574 2.35752 20.1546C3.26201 21.0489 4.66709 21.25 6.43609 21.25H17.5561C19.3251 21.25 20.7302 21.0489 21.6347 20.1546C22.5421 19.2574 22.7461 17.8612 22.7461 16.11V12.03C22.7461 11.6158 22.4103 11.28 21.9961 11.28C21.5819 11.28 21.2461 11.6158 21.2461 12.03V16.11C21.2461 17.8688 21.0051 18.6676 20.58 19.0879C20.152 19.5111 19.3371 19.75 17.5561 19.75H6.43609C4.6551 19.75 3.84018 19.5111 3.41216 19.0879C2.9871 18.6676 2.74609 17.8688 2.74609 16.11V9.25H11.4961C11.9103 9.25 12.2461 8.91421 12.2461 8.5C12.2461 8.08579 11.9103 7.75 11.4961 7.75H2.74662ZM20.0543 2.79207C20.7372 2.72757 21.3673 3.04058 21.9364 3.60967C22.5023 4.17555 22.8118 4.80431 22.745 5.48568C22.6821 6.12765 22.2989 6.6279 21.9364 6.99033L18.2264 10.7003C18.0808 10.8459 17.9005 10.9588 17.744 11.0371C17.5867 11.1157 17.3894 11.1914 17.1873 11.2217L17.1807 11.2227L15.7607 11.4227L15.7581 11.423C15.3026 11.4856 14.8407 11.3603 14.5083 11.0278C14.1758 10.6954 14.0505 10.2335 14.1131 9.77802L14.1134 9.7754L14.3144 8.34874C14.3447 8.14668 14.4204 7.94942 14.499 7.79209C14.5773 7.63556 14.6902 7.45528 14.8358 7.30967L18.0062 4.13925C18.0128 4.13242 18.0195 4.12571 18.0263 4.11912L18.5458 3.59967C18.9082 3.23727 19.4094 2.85299 20.0543 2.79207ZM18.3122 5.95452L15.899 8.36776C15.8978 8.36923 15.8923 8.37583 15.8835 8.38884C15.8704 8.40811 15.8553 8.43357 15.8407 8.46291C15.826 8.49222 15.8144 8.52011 15.8064 8.54323C15.8004 8.56059 15.7981 8.5704 15.7976 8.57257L15.6065 9.92958L16.9635 9.73845C16.9657 9.73794 16.9755 9.73566 16.9929 9.72967C17.016 9.72168 17.0439 9.71008 17.0732 9.69543C17.1025 9.68076 17.128 9.66568 17.1473 9.65261C17.1603 9.64377 17.1669 9.6383 17.1683 9.6371L19.5824 7.22303C19.0712 6.90003 18.6373 6.46628 18.3122 5.95452ZM20.6866 6.11885C20.1296 5.86421 19.6774 5.41507 19.415 4.8518L19.6064 4.66033C19.884 4.38273 20.0728 4.29701 20.1954 4.28543C20.28 4.27743 20.4949 4.28942 20.8758 4.67033C21.2499 5.04445 21.2604 5.25569 21.2522 5.33932C21.2401 5.46235 21.1533 5.6521 20.8758 5.92967L20.6866 6.11885ZM5.24609 16.5C5.24609 16.0858 5.58188 15.75 5.99609 15.75H7.99609C8.41031 15.75 8.74609 16.0858 8.74609 16.5C8.74609 16.9142 8.41031 17.25 7.99609 17.25H5.99609C5.58188 17.25 5.24609 16.9142 5.24609 16.5ZM9.74609 16.5C9.74609 16.0858 10.0819 15.75 10.4961 15.75H14.4961C14.9103 15.75 15.2461 16.0858 15.2461 16.5C15.2461 16.9142 14.9103 17.25 14.4961 17.25H10.4961C10.0819 17.25 9.74609 16.9142 9.74609 16.5Z" fill="#595854"/>
</svg>
