<svg width="24" height="24" viewBox="0 0 24 24" fill="none" xmlns="http://www.w3.org/2000/svg">
<path fill-rule="evenodd" clip-rule="evenodd" d="M4.15533 4.15533C3.2398 5.07086 2.75 6.57397 2.75 9V15C2.75 17.426 3.2398 18.9291 4.15533 19.8447C5.07086 20.7602 6.57397 21.25 9 21.25H15C17.426 21.25 18.9291 20.7602 19.8447 19.8447C20.7602 18.9291 21.25 17.426 21.25 15V10.75H18C16.4585 10.75 15.1921 10.5028 14.3447 9.65533C13.4972 8.80791 13.25 7.54155 13.25 6V2.75H9C6.57397 2.75 5.07086 3.2398 4.15533 4.15533ZM14.75 3.81066L20.1893 9.25H18C16.5415 9.25 15.8079 8.99725 15.4053 8.59467C15.0028 8.19209 14.75 7.45845 14.75 6V3.81066ZM3.09467 3.09467C4.42914 1.7602 6.42603 1.25 9 1.25H14C14.1989 1.25 14.3897 1.32902 14.5303 1.46967L22.5303 9.46967C22.671 9.61032 22.75 9.80109 22.75 10V15C22.75 17.574 22.2398 19.5709 20.9053 20.9053C19.5709 22.2398 17.574 22.75 15 22.75H9C6.42603 22.75 4.42914 22.2398 3.09467 20.9053C1.7602 19.5709 1.25 17.574 1.25 15V9C1.25 6.42603 1.7602 4.42914 3.09467 3.09467ZM10.8396 13.7937C10.5061 13.6869 10.1748 13.7992 10.0391 14.0084C9.90375 14.2168 9.6739 14.3447 9.42539 14.3498C9.17688 14.3549 8.94198 14.2366 8.7982 14.0338C8.63015 13.7968 8.29552 13.6958 7.9795 13.794C7.43372 13.9754 7.08466 14.7208 7.33395 15.5003C7.53545 16.1229 7.98413 16.6212 8.47057 16.9743C8.71081 17.1487 8.9464 17.2772 9.13886 17.3602C9.29158 17.4261 9.38375 17.449 9.41607 17.4566C9.44665 17.4495 9.53797 17.4279 9.69202 17.362C9.88622 17.2791 10.1239 17.1497 10.3658 16.9742C10.8566 16.6182 11.3021 16.1193 11.494 15.5067C11.7391 14.7167 11.3918 13.9733 10.8396 13.7937ZM9.39853 12.5819C9.99492 12.2095 10.7353 12.1846 11.2995 12.366L11.3012 12.3665C12.9083 12.8874 13.3206 14.6832 12.9262 15.9525L12.9258 15.954C12.6075 16.9711 11.9033 17.712 11.2467 18.1883C10.9148 18.4291 10.5794 18.6141 10.2814 18.7414C10.0092 18.8577 9.68997 18.96 9.41 18.96L9.3947 18.9598C9.12484 18.9543 8.81465 18.8539 8.54489 18.7376C8.2511 18.6109 7.91919 18.4276 7.58943 18.1882C6.93611 17.714 6.23498 16.9776 5.90634 15.9606L5.90576 15.9588C5.49616 14.6804 5.92492 12.8879 7.51683 12.3672L7.52414 12.3648L7.52415 12.3648C8.11035 12.1797 8.8186 12.2275 9.39853 12.5819Z" fill="#595854"/>
</svg>
