<svg width="24" height="24" viewBox="0 0 24 24" fill="none" xmlns="http://www.w3.org/2000/svg">
<path fill-rule="evenodd" clip-rule="evenodd" d="M3.87596 1.58397C4.01506 1.37533 4.24924 1.25 4.5 1.25H21.5C21.9142 1.25 22.25 1.58579 22.25 2V14C22.25 14.1989 22.171 14.3897 22.0303 14.5303L17.0303 19.5303C16.8897 19.671 16.6989 19.75 16.5 19.75H11.9014L10.124 22.416C9.98494 22.6247 9.75076 22.75 9.5 22.75H6.5C6.08579 22.75 5.75 22.4142 5.75 22V19.75H2.5C2.08579 19.75 1.75 19.4142 1.75 19V5C1.75 4.85193 1.79383 4.70718 1.87596 4.58397L3.87596 1.58397ZM4.90139 2.75L3.25 5.22708V18.25H6.5C6.91421 18.25 7.25 18.5858 7.25 19V21.25H9.09861L10.876 18.584C11.0151 18.3753 11.2492 18.25 11.5 18.25H16.1893L20.75 13.6893V2.75H4.90139ZM8.25 7C8.25 6.58579 8.58579 6.25 9 6.25H11C11.4142 6.25 11.75 6.58579 11.75 7V13C11.75 13.4142 11.4142 13.75 11 13.75H9C8.58579 13.75 8.25 13.4142 8.25 13V7ZM9.75 7.75V12.25H10.25V7.75H9.75ZM13.25 7C13.25 6.58579 13.5858 6.25 14 6.25H16C16.4142 6.25 16.75 6.58579 16.75 7V13C16.75 13.4142 16.4142 13.75 16 13.75H14C13.5858 13.75 13.25 13.4142 13.25 13V7ZM14.75 7.75V12.25H15.25V7.75H14.75Z" fill="#595854"/>
</svg>
