<svg width="24" height="24" viewBox="0 0 24 24" fill="none" xmlns="http://www.w3.org/2000/svg">
<path fill-rule="evenodd" clip-rule="evenodd" d="M12 2.75C6.89137 2.75 2.75 6.89137 2.75 12C2.75 17.1086 6.89137 21.25 12 21.25C17.1086 21.25 21.25 17.1086 21.25 12C21.25 6.89137 17.1086 2.75 12 2.75ZM1.25 12C1.25 6.06294 6.06294 1.25 12 1.25C17.9371 1.25 22.75 6.06294 22.75 12C22.75 17.9371 17.9371 22.75 12 22.75C6.06294 22.75 1.25 17.9371 1.25 12ZM8.2 6.75C8.61421 6.75 8.95 7.08579 8.95 7.5V9.35H15.05V7.5C15.05 7.08579 15.3858 6.75 15.8 6.75C16.2142 6.75 16.55 7.08579 16.55 7.5V16.5C16.55 16.9142 16.2142 17.25 15.8 17.25C15.3858 17.25 15.05 16.9142 15.05 16.5V14.65H8.95V16.5C8.95 16.9142 8.61421 17.25 8.2 17.25C7.78579 17.25 7.45 16.9142 7.45 16.5V7.5C7.45 7.08579 7.78579 6.75 8.2 6.75ZM8.95 10.85V13.15H15.05V10.85H8.95Z" fill="#595854"/>
</svg>
