<svg width="24" height="24" viewBox="0 0 24 24" fill="none" xmlns="http://www.w3.org/2000/svg">
<path fill-rule="evenodd" clip-rule="evenodd" d="M3.09467 3.09467C4.42914 1.7602 6.42603 1.25 9 1.25H15C17.574 1.25 19.5709 1.7602 20.9053 3.09467C22.2398 4.42914 22.75 6.42603 22.75 9V15C22.75 17.574 22.2398 19.5709 20.9053 20.9053C19.5709 22.2398 17.574 22.75 15 22.75H9C6.42603 22.75 4.42914 22.2398 3.09467 20.9053C1.7602 19.5709 1.25 17.574 1.25 15V9C1.25 6.42603 1.7602 4.42914 3.09467 3.09467ZM4.15533 4.15533C3.2398 5.07086 2.75 6.57397 2.75 9V15C2.75 17.426 3.2398 18.9291 4.15533 19.8447C5.07086 20.7602 6.57397 21.25 9 21.25H15C17.426 21.25 18.9291 20.7602 19.8447 19.8447C20.7602 18.9291 21.25 17.426 21.25 15V9C21.25 6.57397 20.7602 5.07086 19.8447 4.15533C18.9291 3.2398 17.426 2.75 15 2.75H9C6.57397 2.75 5.07086 3.2398 4.15533 4.15533ZM11.772 5.17392C12.0846 5.44563 12.1178 5.91935 11.8461 6.23199L11.5933 6.52281C11.7258 6.51443 11.8614 6.51 12 6.51C15.1742 6.51 17.75 9.08579 17.75 12.26C17.75 15.4342 15.1742 18.01 12 18.01C8.82579 18.01 6.25 15.4342 6.25 12.26C6.25 11.076 6.60718 9.98288 7.21476 9.06578C7.44353 8.72047 7.90891 8.626 8.25422 8.85477C8.59953 9.08353 8.694 9.54891 8.46523 9.89422C8.01281 10.5771 7.75 11.3841 7.75 12.26C7.75 14.6058 9.65421 16.51 12 16.51C14.3458 16.51 16.25 14.6058 16.25 12.26C16.25 9.91422 14.3458 8.01 12 8.01C11.8013 8.01 11.6108 8.02181 11.4273 8.04339L12.003 8.4648C12.3372 8.70945 12.4099 9.17874 12.1652 9.51298C11.9205 9.84722 11.4513 9.91985 11.117 9.6752L9.17701 8.2552C9.00772 8.13128 8.89806 7.94212 8.87467 7.73362C8.85128 7.52513 8.91629 7.31637 9.05391 7.15801L10.7139 5.24801C10.9856 4.93537 11.4593 4.9022 11.772 5.17392Z" fill="#595854"/>
</svg>
