<svg width="24" height="24" viewBox="0 0 24 24" fill="none" xmlns="http://www.w3.org/2000/svg">
<path fill-rule="evenodd" clip-rule="evenodd" d="M14.0127 3.93301C15.1746 4.57502 15.75 5.92838 15.75 7.56947V16.7495C15.75 18.3865 15.1741 19.7387 14.0135 20.3818C12.8526 21.025 11.4007 20.7958 10.0117 19.925C10.0117 19.9249 10.0118 19.925 10.0117 19.925L7.10012 18.1002C6.8875 17.9756 6.65132 17.9095 6.43 17.9095H5C3.88439 17.9095 2.90993 17.6301 2.21967 16.9398C1.52941 16.2495 1.25 15.2751 1.25 14.1595V10.1595C1.25 9.04386 1.52941 8.0694 2.21967 7.37914C2.90993 6.68888 3.88439 6.40947 5 6.40947H6.43C6.65133 6.40947 6.88751 6.34334 7.10014 6.21868L10.0116 4.39404C10.0116 4.39406 10.0116 4.39401 10.0116 4.39404C11.3994 3.52395 12.8512 3.29123 14.0127 3.93301ZM13.2873 5.24592C12.7838 4.96773 11.9406 4.95505 10.8084 5.6649L7.88065 7.49976L7.8729 7.50436C7.44733 7.75704 6.94625 7.90947 6.43 7.90947H5C4.11561 7.90947 3.59007 8.13006 3.28033 8.4398C2.97059 8.74954 2.75 9.27508 2.75 10.1595V14.1595C2.75 15.0439 2.97059 15.5694 3.28033 15.8791C3.59007 16.1889 4.11561 16.4095 5 16.4095H6.43C6.94625 16.4095 7.44733 16.5619 7.8729 16.8146L7.88065 16.8192L10.8083 18.654C11.9393 19.3631 12.7825 19.349 13.2865 19.0697C13.7909 18.7902 14.25 18.0824 14.25 16.7495V7.56947C14.25 6.23055 13.7904 5.52391 13.2873 5.24592ZM17.5097 9.62914C17.8026 9.33624 18.2774 9.33624 18.5703 9.62914L20.02 11.0788L21.4297 9.66914C21.7226 9.37624 22.1974 9.37624 22.4903 9.66914C22.7832 9.96203 22.7832 10.4369 22.4903 10.7298L21.0807 12.1395L22.5303 13.5891C22.8232 13.882 22.8232 14.3569 22.5303 14.6498C22.2374 14.9427 21.7626 14.9427 21.4697 14.6498L20.02 13.2001L18.5303 14.6898C18.2374 14.9827 17.7626 14.9827 17.4697 14.6898C17.1768 14.3969 17.1768 13.922 17.4697 13.6291L18.9593 12.1395L17.5097 10.6898C17.2168 10.3969 17.2168 9.92203 17.5097 9.62914Z" fill="#595854"/>
</svg>
