<svg width="24" height="24" viewBox="0 0 24 24" fill="none" xmlns="http://www.w3.org/2000/svg">
<path fill-rule="evenodd" clip-rule="evenodd" d="M12 2.75C6.89137 2.75 2.75 6.89137 2.75 12C2.75 17.1086 6.89137 21.25 12 21.25C17.1086 21.25 21.25 17.1086 21.25 12C21.25 6.89137 17.1086 2.75 12 2.75ZM1.25 12C1.25 6.06294 6.06294 1.25 12 1.25C17.9371 1.25 22.75 6.06294 22.75 12C22.75 17.9371 17.9371 22.75 12 22.75C6.06294 22.75 1.25 17.9371 1.25 12ZM13.2958 8.98078C13.6764 9.14414 13.8526 9.58514 13.6892 9.96578L11.6892 14.6258C11.5258 15.0064 11.0848 15.1826 10.7042 15.0192C10.3236 14.8559 10.1474 14.4149 10.3108 14.0342L12.3108 9.37419C12.4742 8.99355 12.9152 8.81741 13.2958 8.98078ZM8.53033 9.46967C8.82322 9.76256 8.82322 10.2374 8.53033 10.5303L7.06066 12L8.53033 13.4697C8.82322 13.7626 8.82322 14.2374 8.53033 14.5303C8.23744 14.8232 7.76256 14.8232 7.46967 14.5303L5.46967 12.5303C5.17678 12.2374 5.17678 11.7626 5.46967 11.4697L7.46967 9.46967C7.76256 9.17678 8.23744 9.17678 8.53033 9.46967ZM15.4697 9.46967C15.7626 9.17678 16.2374 9.17678 16.5303 9.46967L18.5303 11.4697C18.8232 11.7626 18.8232 12.2374 18.5303 12.5303L16.5303 14.5303C16.2374 14.8232 15.7626 14.8232 15.4697 14.5303C15.1768 14.2374 15.1768 13.7626 15.4697 13.4697L16.9393 12L15.4697 10.5303C15.1768 10.2374 15.1768 9.76256 15.4697 9.46967Z" fill="#595854"/>
</svg>
