<svg width="24" height="24" viewBox="0 0 24 24" fill="none" xmlns="http://www.w3.org/2000/svg">
<path fill-rule="evenodd" clip-rule="evenodd" d="M2.7907 7.85999C2.76367 8.21528 2.75 8.59477 2.75 9V15C2.75 17.426 3.2398 18.9291 4.15533 19.8447C5.07086 20.7602 6.57397 21.25 9 21.25H14.0335C14.0244 21.2351 14.0154 21.2202 14.0065 21.2052C13.5303 20.4147 13.25 19.4824 13.25 18.5C13.25 17.0799 13.8096 15.7832 14.7331 14.8363C15.6891 13.857 17.0307 13.25 18.5 13.25C19.504 13.25 20.4498 13.5326 21.25 14.0266V9C21.25 8.59477 21.2363 8.21528 21.2093 7.85999H2.7907ZM3.01556 6.35999H7.77V2.79787C6.04848 2.9415 4.90495 3.40571 4.15533 4.15533C3.63271 4.67795 3.24881 5.39205 3.01556 6.35999ZM9.27 2.75V6.35999H14.73V2.75H9.27ZM16.23 2.79787V6.35999H20.9844C20.7512 5.39205 20.3673 4.67795 19.8447 4.15533C19.095 3.40571 17.9515 2.9415 16.23 2.79787ZM22.7452 15.4315C22.75 15.2856 22.75 15.1448 22.75 15.0141V9C22.75 6.42603 22.2398 4.42914 20.9053 3.09467C19.5709 1.7602 17.574 1.25 15 1.25H9C6.42603 1.25 4.42914 1.7602 3.09467 3.09467C1.7602 4.42914 1.25 6.42603 1.25 9V15C1.25 17.574 1.7602 19.5709 3.09467 20.9053C4.42914 22.2398 6.42603 22.75 9 22.75H15.0161C15.1461 22.75 15.2909 22.75 15.4387 22.7451C16.2932 23.3803 17.351 23.75 18.5 23.75C20.4149 23.75 22.0836 22.7218 22.9931 21.2059L22.996 21.201C23.2599 20.7535 23.4683 20.2579 23.5969 19.7349C23.7043 19.3265 23.75 18.9135 23.75 18.5C23.75 17.3588 23.3796 16.2938 22.7452 15.4315ZM16.081 21.3462C16.1096 21.3643 16.137 21.3843 16.1631 21.4063C16.7904 21.9345 17.6 22.25 18.5 22.25C19.8641 22.25 21.0546 21.5193 21.7054 20.4366C21.8997 20.1067 22.0501 19.7455 22.1414 19.3719L22.145 19.3581C22.2163 19.0887 22.25 18.8041 22.25 18.5C22.25 17.6099 21.9344 16.7885 21.4032 16.1494C21.3864 16.1291 21.3706 16.1079 21.356 16.086C21.3454 16.0702 21.3275 16.0482 21.3097 16.0303C21.287 16.0077 21.2692 15.9871 21.2565 15.9717C21.2445 15.9571 21.2348 15.9441 21.2276 15.9343C20.5582 15.2059 19.5807 14.75 18.5 14.75C17.4494 14.75 16.4909 15.1831 15.8069 15.8836C15.1504 16.5568 14.75 17.4801 14.75 18.5C14.75 19.1968 14.9492 19.8637 15.2923 20.4327L15.2947 20.4367C15.4671 20.7267 15.6835 20.9926 15.9264 21.2122C15.9848 21.2541 16.0225 21.2919 16.0391 21.3084L16.0403 21.3097C16.0513 21.3207 16.0609 21.3293 16.081 21.3462ZM18.5 16.09C18.9142 16.09 19.25 16.4258 19.25 16.84V17.73H20.18C20.5942 17.73 20.93 18.0658 20.93 18.48C20.93 18.8942 20.5942 19.23 20.18 19.23H19.25V20.2C19.25 20.6142 18.9142 20.95 18.5 20.95C18.0858 20.95 17.75 20.6142 17.75 20.2V19.23H16.82C16.4058 19.23 16.07 18.8942 16.07 18.48C16.07 18.0658 16.4058 17.73 16.82 17.73H17.75V16.84C17.75 16.4258 18.0858 16.09 18.5 16.09Z" fill="#595854"/>
</svg>
