<svg width="24" height="24" viewBox="0 0 24 24" fill="none" xmlns="http://www.w3.org/2000/svg">
<path fill-rule="evenodd" clip-rule="evenodd" d="M16.5412 8.84106C16.1765 8.92327 15.8228 9.05015 15.4847 9.21921C15.1142 9.40445 14.9641 9.85496 15.1493 10.2254C15.3345 10.5959 15.785 10.7461 16.1555 10.5609C16.5688 10.3542 17.009 10.2426 17.4642 10.2305C21.0443 10.7792 22.4907 15.6365 19.7364 18.0455L19.7256 18.0551C18.8733 18.8299 17.7648 19.2586 16.6157 19.2501C16.2015 19.247 15.8632 19.5802 15.8601 19.9944C15.857 20.4086 16.1903 20.7469 16.6045 20.75C18.1331 20.7614 19.6024 20.1919 20.7293 19.1698C24.3369 16.0068 22.627 9.8328 18.0787 8.82033C17.5838 6.57545 16.4005 5.01502 14.8758 4.11627C13.2521 3.15912 11.3139 2.99513 9.56617 3.4533C7.81848 3.91147 6.20812 5.00569 5.25692 6.63522C4.41149 8.08356 4.11952 9.89905 4.64901 11.9539C-0.0631053 13.086 0.253192 20.3846 5.51702 20.7582C5.9302 20.7875 6.28891 20.4763 6.31823 20.0631C6.34756 19.6499 6.03638 19.2912 5.62321 19.2619C1.89835 18.9976 1.90334 13.6014 5.60266 13.3197C6.05999 13.3152 6.52175 13.4254 6.93967 13.6383C7.30875 13.8263 7.76037 13.6796 7.9484 13.3105C8.13642 12.9414 7.98964 12.4898 7.62056 12.3018C7.16907 12.0717 6.67984 11.9195 6.17779 11.8548C5.6344 10.0248 5.89095 8.52451 6.55237 7.3914C7.27774 6.14874 8.53301 5.27484 9.94656 4.90426C11.3601 4.53368 12.8788 4.68031 14.1141 5.40848C15.1824 6.03821 16.0951 7.13583 16.5412 8.84106ZM10.8329 15.2593C11.5422 14.4315 12.8001 15.0215 12.8001 16V17.58H13.0501C13.3673 17.58 13.9149 17.677 14.1539 18.2016C14.3938 18.7282 14.1047 19.2053 13.8934 19.4452C13.8931 19.4455 13.8928 19.4459 13.8925 19.4462L11.4473 22.2308C10.738 23.0586 9.48012 22.4686 9.48012 21.49V19.91H9.23012C8.9129 19.91 8.36532 19.813 8.12635 19.2885C7.88639 18.7617 8.17564 18.2846 8.38694 18.0447C8.3872 18.0444 8.38747 18.0441 8.38774 18.0438L10.8329 15.2593ZM11.3001 17.0005L10.0624 18.41H10.2301C10.6443 18.41 10.9801 18.7458 10.9801 19.16V20.4895L12.2178 19.08H12.0501C11.6359 19.08 11.3001 18.7442 11.3001 18.33V17.0005ZM13.0726 19.0811C13.0726 19.0811 13.072 19.0811 13.0709 19.0809L13.0726 19.0811ZM12.7811 18.4374C12.7816 18.4365 12.782 18.436 12.782 18.436L12.7811 18.4374ZM9.20768 18.4089C9.2077 18.4089 9.20825 18.409 9.2093 18.4092L9.20768 18.4089ZM9.49916 19.0527C9.49859 19.0536 9.49826 19.0541 9.49823 19.0541L9.49916 19.0527Z" fill="#595854"/>
</svg>
