<svg width="24" height="24" viewBox="0 0 24 24" fill="none" xmlns="http://www.w3.org/2000/svg">
<path fill-rule="evenodd" clip-rule="evenodd" d="M2.833 2.91922C3.86523 1.83998 5.31925 1.25 7 1.25H17C18.6808 1.25 20.1348 1.83998 21.167 2.91922C22.1964 3.99545 22.75 5.4987 22.75 7.22769V13.5009C22.75 15.2299 22.1964 16.7332 21.167 17.8094C20.2917 18.7246 19.113 19.288 17.75 19.4381V20.9556C17.75 22.3386 16.2268 23.2784 15.0218 22.4392M15.0218 22.4392L10.7648 19.4786H7C5.31925 19.4786 3.86523 18.8886 2.833 17.8094C1.80364 16.7332 1.25 15.2299 1.25 13.5009V7.22769C1.25 5.4987 1.80364 3.99545 2.833 2.91922M3.917 3.95601C3.19636 4.70947 2.75 5.82007 2.75 7.22769V13.5009C2.75 14.9086 3.19636 16.0191 3.917 16.7726C4.63477 17.5231 5.68075 17.9786 7 17.9786H11C11.1531 17.9786 11.3025 18.0255 11.4282 18.1129L15.8782 21.2077C15.9551 21.2613 16.0334 21.2618 16.1075 21.2205C16.1834 21.1782 16.25 21.0921 16.25 20.9556V18.7286C16.25 18.3144 16.5858 17.9786 17 17.9786C18.3192 17.9786 19.3652 17.5231 20.083 16.7726C20.8036 16.0191 21.25 14.9086 21.25 13.5009V7.22769C21.25 5.82007 20.8036 4.70947 20.083 3.95601C19.3652 3.20556 18.3192 2.75 17 2.75H7C5.68075 2.75 4.63477 3.20556 3.917 3.95601ZM7.75 10.4375C7.75 10.0233 8.08579 9.6875 8.5 9.6875H15.5C15.9142 9.6875 16.25 10.0233 16.25 10.4375C16.25 10.8517 15.9142 11.1875 15.5 11.1875H8.5C8.08579 11.1875 7.75 10.8517 7.75 10.4375Z" fill="#595854"/>
</svg>
