<svg width="24" height="24" viewBox="0 0 24 24" fill="none" xmlns="http://www.w3.org/2000/svg">
<path fill-rule="evenodd" clip-rule="evenodd" d="M12 2.75C6.89137 2.75 2.75 6.89137 2.75 12C2.75 17.1086 6.89137 21.25 12 21.25C17.1086 21.25 21.25 17.1086 21.25 12C21.25 6.89137 17.1086 2.75 12 2.75ZM1.25 12C1.25 6.06294 6.06294 1.25 12 1.25C17.9371 1.25 22.75 6.06294 22.75 12C22.75 17.9371 17.9371 22.75 12 22.75C6.06294 22.75 1.25 17.9371 1.25 12ZM15.5303 8.46967C15.8232 8.76256 15.8232 9.23744 15.5303 9.53033L9.53033 15.5303C9.23744 15.8232 8.76256 15.8232 8.46967 15.5303C8.17678 15.2374 8.17678 14.7626 8.46967 14.4697L14.4697 8.46967C14.7626 8.17678 15.2374 8.17678 15.5303 8.46967ZM8.74451 9.5C8.74451 9.08579 9.08029 8.75 9.49451 8.75H9.50349C9.9177 8.75 10.2535 9.08579 10.2535 9.5C10.2535 9.91421 9.9177 10.25 9.50349 10.25H9.49451C9.08029 10.25 8.74451 9.91421 8.74451 9.5ZM13.7445 14.5C13.7445 14.0858 14.0803 13.75 14.4945 13.75H14.5035C14.9177 13.75 15.2535 14.0858 15.2535 14.5C15.2535 14.9142 14.9177 15.25 14.5035 15.25H14.4945C14.0803 15.25 13.7445 14.9142 13.7445 14.5Z" fill="#595854"/>
</svg>
