<svg width="24" height="24" viewBox="0 0 24 24" fill="none" xmlns="http://www.w3.org/2000/svg">
<path fill-rule="evenodd" clip-rule="evenodd" d="M7.56 3.84998C4.90772 3.84998 2.75 6.0107 2.75 8.69C2.75 11.9405 4.25068 14.5449 6.13923 16.4799C8.03683 18.4242 10.28 19.642 11.6223 20.1002L11.6296 20.1027L11.6296 20.1028C11.6944 20.1256 11.8286 20.15 12 20.15C12.1714 20.15 12.3056 20.1256 12.3704 20.1028L12.3828 20.0984L12.3828 20.0985C12.4055 20.0909 12.4284 20.0831 12.4518 20.075C11.943 19.2365 11.65 18.2525 11.65 17.2C11.65 14.1348 14.1348 11.65 17.2 11.65C17.2298 11.65 17.2596 11.6503 17.2893 11.6507C18.464 11.6693 19.5501 12.0527 20.4391 12.6928C20.9455 11.4939 21.25 10.161 21.25 8.69C21.25 6.0107 19.0923 3.84998 16.44 3.84998C14.8774 3.84998 13.4756 4.6096 12.6005 5.7793C12.4589 5.96858 12.2364 6.08002 12 6.08002C11.7636 6.08002 11.5411 5.96858 11.3995 5.7793C10.5244 4.6096 9.12263 3.84998 7.56 3.84998ZM17.2524 13.1504C18.3853 13.1649 19.411 13.6495 20.1452 14.4255C20.1607 14.4419 20.1769 14.4575 20.1937 14.4723C20.8499 15.192 21.25 16.1493 21.25 17.2C21.25 19.4368 19.4368 21.25 17.2 21.25C16.0327 21.25 14.9808 20.7562 14.2417 19.966C14.2255 19.9432 14.208 19.9212 14.1891 19.9001C13.5447 19.1794 13.15 18.2349 13.15 17.2C13.15 14.9633 14.9633 13.15 17.2 13.15C17.2175 13.15 17.2349 13.1501 17.2524 13.1504ZM13.4547 21.2958C14.4419 22.199 15.7566 22.75 17.2 22.75C20.2652 22.75 22.75 20.2652 22.75 17.2C22.75 15.9183 22.3155 14.7381 21.5858 13.7985C22.3024 12.3004 22.75 10.5956 22.75 8.69C22.75 5.1893 19.9277 2.34998 16.44 2.34998C14.7116 2.34998 13.1379 3.05603 12 4.18913C10.8621 3.05603 9.28835 2.34998 7.56 2.34998C4.07228 2.34998 1.25 5.1893 1.25 8.69C1.25 12.4395 2.98932 15.4001 5.06577 17.5276C7.13169 19.6443 9.57655 20.9861 11.1343 21.5186C11.4086 21.6147 11.7227 21.65 12 21.65C12.2763 21.65 12.5892 21.615 12.8628 21.5196C13.0509 21.4567 13.2491 21.3812 13.4547 21.2958ZM17.2 14.76C17.6142 14.76 17.95 15.0958 17.95 15.51V16.51H18.99C19.4042 16.51 19.74 16.8458 19.74 17.26C19.74 17.6742 19.4042 18.01 18.99 18.01H17.95V19.1C17.95 19.5142 17.6142 19.85 17.2 19.85C16.7858 19.85 16.45 19.5142 16.45 19.1V18.01H15.41C14.9958 18.01 14.66 17.6742 14.66 17.26C14.66 16.8458 14.9958 16.51 15.41 16.51H16.45V15.51C16.45 15.0958 16.7858 14.76 17.2 14.76Z" fill="#595854"/>
</svg>
