<svg width="24" height="24" viewBox="0 0 24 24" fill="none" xmlns="http://www.w3.org/2000/svg">
<path fill-rule="evenodd" clip-rule="evenodd" d="M1.25 12C1.25 6.06579 6.06579 1.25 12 1.25C17.9342 1.25 22.75 6.06579 22.75 12C22.75 17.9342 17.9342 22.75 12 22.75C6.06579 22.75 1.25 17.9342 1.25 12ZM12 2.75C6.89421 2.75 2.75 6.89421 2.75 12C2.75 14.2576 3.56025 16.3272 4.90561 17.9337L17.9337 4.90561C16.3272 3.56025 14.2576 2.75 12 2.75ZM19.0025 5.9582L5.9582 19.0025C7.57942 20.4028 9.69142 21.25 12 21.25C17.1058 21.25 21.25 17.1058 21.25 12C21.25 9.69142 20.4028 7.57942 19.0025 5.9582Z" fill="#595854"/>
</svg>
