<svg width="24" height="24" viewBox="0 0 24 24" fill="none" xmlns="http://www.w3.org/2000/svg">
<path fill-rule="evenodd" clip-rule="evenodd" d="M1.25 8.69C1.25 5.1893 4.07228 2.34998 7.56 2.34998C9.28783 2.34998 10.8615 3.05566 11.9997 4.19474C13.1354 3.05601 14.7033 2.34998 16.44 2.34998C19.9277 2.34998 22.75 5.1893 22.75 8.69C22.75 9.96153 22.5467 11.1372 22.2056 12.2245C22.0816 12.6197 21.6607 12.8396 21.2655 12.7156C20.8703 12.5916 20.6504 12.1707 20.7744 11.7755C21.0733 10.8228 21.25 9.79847 21.25 8.69C21.25 6.0107 19.0923 3.84998 16.44 3.84998C14.8685 3.84998 13.4775 4.60851 12.6021 5.78719C12.4606 5.97771 12.2373 6.09003 12 6.09003C11.7627 6.09003 11.5394 5.97771 11.3979 5.78719C10.523 4.60913 9.12219 3.84998 7.56 3.84998C4.90772 3.84998 2.75 6.0107 2.75 8.69C2.75 11.9405 4.25066 14.545 6.13939 16.4813C8.03701 18.4268 10.2807 19.6476 11.6245 20.111L11.6296 20.1127C11.695 20.1358 11.8245 20.16 12 20.16C12.4142 20.16 12.75 20.4958 12.75 20.91C12.75 21.3242 12.4142 21.66 12 21.66C11.7165 21.66 11.4072 21.6244 11.1332 21.5283C9.57697 20.9911 7.13198 19.6472 5.06561 17.5287C2.98934 15.4001 1.25 12.4395 1.25 8.69ZM17.74 15.35C16.3869 15.35 15.29 16.4469 15.29 17.8C15.29 19.1531 16.3869 20.25 17.74 20.25C19.0931 20.25 20.19 19.1531 20.19 17.8C20.19 16.4469 19.0931 15.35 17.74 15.35ZM13.79 17.8C13.79 15.6185 15.5585 13.85 17.74 13.85C19.9215 13.85 21.69 15.6185 21.69 17.8C21.69 18.6212 21.4394 19.3839 21.0104 20.0158C21.0311 20.0325 21.0511 20.0504 21.0703 20.0696L22.0703 21.0696C22.3632 21.3625 22.3632 21.8374 22.0703 22.1303C21.7774 22.4232 21.3026 22.4232 21.0097 22.1303L20.0097 21.1303C19.9905 21.1111 19.9725 21.0911 19.9558 21.0704C19.324 21.4994 18.5612 21.75 17.74 21.75C15.5585 21.75 13.79 19.9815 13.79 17.8Z" fill="#595854"/>
</svg>
