<svg width="24" height="24" viewBox="0 0 24 24" fill="none" xmlns="http://www.w3.org/2000/svg">
<path fill-rule="evenodd" clip-rule="evenodd" d="M18.76 1.25C19.1742 1.25 19.51 1.58579 19.51 2V2.5H20.13C21.2608 2.5 22.13 3.49286 22.13 4.5C22.13 4.83174 22.0491 5.14467 21.9061 5.42015C22.4057 5.77126 22.75 6.32289 22.75 7C22.75 8.1956 21.6765 9 20.57 9H19.51V9.5C19.51 9.91421 19.1742 10.25 18.76 10.25C18.3458 10.25 18.01 9.91421 18.01 9.5V9H16C15.5858 9 15.25 8.66421 15.25 8.25C15.25 7.83579 15.5858 7.5 16 7.5H16.25V4H16C15.5858 4 15.25 3.66421 15.25 3.25C15.25 2.83579 15.5858 2.5 16 2.5H18.01V2C18.01 1.58579 18.3458 1.25 18.76 1.25ZM17.75 4V5H20.13C20.4058 5 20.63 4.77579 20.63 4.5C20.63 4.26714 20.3792 4 20.13 4H17.75ZM17.75 6.5V7.5H20.57C21.0435 7.5 21.25 7.1844 21.25 7C21.25 6.8156 21.0435 6.5 20.57 6.5H17.75ZM2.75052 7.75C2.76311 6.08844 3.00245 5.32104 3.41607 4.91208C3.84409 4.48888 4.65901 4.25 6.44 4.25H13.28C13.6942 4.25 14.03 3.91421 14.03 3.5C14.03 3.08579 13.6942 2.75 13.28 2.75H6.44C4.67099 2.75 3.26591 2.95113 2.36143 3.84544C1.45399 4.74266 1.25 6.13884 1.25 7.89001V16.11C1.25 17.8612 1.45399 19.2573 2.36143 20.1546C3.26591 21.0489 4.67099 21.25 6.44 21.25H17.56C19.329 21.25 20.7341 21.0489 21.6386 20.1546C22.546 19.2573 22.75 17.8612 22.75 16.11V11.33C22.75 10.9158 22.4142 10.58 22 10.58C21.5858 10.58 21.25 10.9158 21.25 11.33V16.11C21.25 17.8688 21.009 18.6676 20.5839 19.0879C20.1559 19.5111 19.341 19.75 17.56 19.75H6.44C4.65901 19.75 3.84409 19.5111 3.41607 19.0879C2.99101 18.6676 2.75 17.8688 2.75 16.11V9.25H13C13.4142 9.25 13.75 8.91421 13.75 8.5C13.75 8.08579 13.4142 7.75 13 7.75H2.75052ZM5.25 16.5C5.25 16.0858 5.58579 15.75 6 15.75H8C8.41421 15.75 8.75 16.0858 8.75 16.5C8.75 16.9142 8.41421 17.25 8 17.25H6C5.58579 17.25 5.25 16.9142 5.25 16.5ZM9.75 16.5C9.75 16.0858 10.0858 15.75 10.5 15.75H14.5C14.9142 15.75 15.25 16.0858 15.25 16.5C15.25 16.9142 14.9142 17.25 14.5 17.25H10.5C10.0858 17.25 9.75 16.9142 9.75 16.5Z" fill="#595854"/>
</svg>
