<svg width="24" height="24" viewBox="0 0 24 24" fill="none" xmlns="http://www.w3.org/2000/svg">
<path fill-rule="evenodd" clip-rule="evenodd" d="M4.15533 4.15533C3.2398 5.07086 2.75 6.57397 2.75 9V15C2.75 17.426 3.2398 18.9291 4.15533 19.8447C5.07086 20.7602 6.57397 21.25 9 21.25H15C17.426 21.25 18.9291 20.7602 19.8447 19.8447C20.7602 18.9291 21.25 17.426 21.25 15V9C21.25 6.57397 20.7602 5.07086 19.8447 4.15533C18.9291 3.2398 17.426 2.75 15 2.75H9C6.57397 2.75 5.07086 3.2398 4.15533 4.15533ZM3.09467 3.09467C4.42914 1.7602 6.42603 1.25 9 1.25H15C17.574 1.25 19.5709 1.7602 20.9053 3.09467C22.2398 4.42914 22.75 6.42603 22.75 9V15C22.75 17.574 22.2398 19.5709 20.9053 20.9053C19.5709 22.2398 17.574 22.75 15 22.75H9C6.42603 22.75 4.42914 22.2398 3.09467 20.9053C1.7602 19.5709 1.25 17.574 1.25 15V9C1.25 6.42603 1.7602 4.42914 3.09467 3.09467ZM5.52643 7.91842C5.84763 7.65688 6.32003 7.70523 6.58158 8.02643L8.85 10.8122L11.1184 8.02643C11.38 7.70523 11.8524 7.65688 12.1736 7.91842C12.4948 8.17997 12.5431 8.65237 12.2816 8.97357L9.8172 12L12.2816 15.0264C12.5431 15.3476 12.4948 15.82 12.1736 16.0816C11.8524 16.3431 11.38 16.2948 11.1184 15.9736L8.85 13.1878L6.58158 15.9736C6.32003 16.2948 5.84763 16.3431 5.52643 16.0816C5.20523 15.82 5.15688 15.3476 5.41842 15.0264L7.8828 12L5.41842 8.97357C5.15688 8.65237 5.20523 8.17997 5.52643 7.91842ZM18 7.75C18.4142 7.75 18.75 8.08579 18.75 8.5V15.6C18.75 16.0142 18.4142 16.35 18 16.35H16.2C14.7858 16.35 13.65 15.2142 13.65 13.8C13.65 12.3858 14.7858 11.25 16.2 11.25H17.25V8.5C17.25 8.08579 17.5858 7.75 18 7.75ZM17.25 12.75H16.2C15.6142 12.75 15.15 13.2142 15.15 13.8C15.15 14.3858 15.6142 14.85 16.2 14.85H17.25V12.75Z" fill="#595854"/>
</svg>
