<svg width="24" height="24" viewBox="0 0 24 24" fill="none" xmlns="http://www.w3.org/2000/svg">
<path fill-rule="evenodd" clip-rule="evenodd" d="M8.15188 2.62241C8.28624 2.39182 8.53302 2.25 8.7999 2.25H15.1999C15.4668 2.25 15.7136 2.39182 15.8479 2.62241L15.1999 3C15.8479 2.62241 15.8479 2.62232 15.8479 2.62241L16.1658 3.16776C16.3681 3.51477 16.6571 4.01041 17.004 4.60486C17.6976 5.79378 18.6225 7.37789 19.5473 8.9588C20.4722 10.5399 21.3966 12.1171 22.0897 13.2925C22.4364 13.8805 22.7244 14.3665 22.9253 14.7018C23.0261 14.8701 23.1033 14.9975 23.1544 15.0801C23.1695 15.1044 23.181 15.1228 23.1895 15.1361C23.2309 15.189 23.2628 15.244 23.2859 15.2962C23.3461 15.4327 23.3499 15.5519 23.3499 15.6C23.3465 15.6715 23.3027 15.862 23.2498 15.9747C23.1341 16.126 22.8128 16.3151 22.6181 16.3485C22.7388 16.3453 22.8313 16.3135 22.8778 16.2949C22.9584 16.2625 23.0151 16.2233 23.0415 16.2039C23.0959 16.1639 23.1318 16.1258 23.1421 16.1147C23.1573 16.0985 23.1682 16.0853 23.1735 16.0788C23.1899 16.0585 23.1967 16.0473 23.186 16.0632C23.1707 16.0859 23.1424 16.13 23.0994 16.1992C23.0155 16.3343 22.8931 16.5365 22.7436 16.7865C22.4452 17.2854 22.0464 17.9614 21.6467 18.6422C21.2471 19.3227 20.8475 20.0065 20.5477 20.5202C20.3978 20.7771 20.2729 20.9913 20.1854 21.1414L20.0487 21.3762L20.0482 21.3771C19.9139 21.6079 19.667 21.75 19.3999 21.75H4.5999C4.3372 21.75 4.09364 21.6125 3.95785 21.3877L0.757854 16.0877C0.616089 15.8529 0.613799 15.5594 0.751883 15.3224L8.15188 2.62241ZM18.0879 20.25H5.91195L8.14973 16.45H15.8501L18.0879 20.25ZM17.5908 16.45L19.3967 19.5165C19.6749 19.0401 20.014 18.4604 20.3531 17.8828C20.6476 17.3813 20.9426 16.8805 21.1981 16.45H17.5908ZM22.414 16.3254C22.4743 16.3408 22.5312 16.3475 22.5836 16.3486C22.5348 16.3432 22.4786 16.3318 22.4247 16.3182C22.4212 16.3206 22.4176 16.323 22.414 16.3254ZM21.3271 14.95H16.7075L12.8703 8.43396L15.1966 4.48354C15.3469 4.7411 15.519 5.03621 15.7083 5.36077C16.4022 6.54997 17.3273 8.13461 18.2525 9.7162C19.1776 11.2976 20.1032 12.8767 20.7976 14.0544C20.9941 14.3877 21.1724 14.6893 21.3271 14.95ZM11.9999 9.91197L14.9667 14.95H9.03306L11.9999 9.91197ZM11.9999 6.95595L13.8879 3.75H10.112L11.9999 6.95595ZM8.80333 4.48384L11.1295 8.43396L7.2923 14.95H2.70494L8.80333 4.48384ZM2.72883 16.45L4.59186 19.5356L6.40896 16.45H2.72883Z" fill="#595854"/>
</svg>
