<svg width="24" height="24" viewBox="0 0 24 24" fill="none" xmlns="http://www.w3.org/2000/svg">
<path fill-rule="evenodd" clip-rule="evenodd" d="M5.45981 3.11569C6.13632 2.42361 7.12128 2.07996 8.48989 2.07996H15.5099C16.8785 2.07996 17.8635 2.42361 18.54 3.11569C19.1892 3.77982 19.4399 4.65683 19.6038 5.43545L19.604 5.43661L19.9828 7.25015C19.9885 7.25002 19.9942 7.24996 19.9999 7.24996H20.9999C21.4141 7.24996 21.7499 7.58574 21.7499 7.99996C21.7499 8.41417 21.4141 8.74996 20.9999 8.74996H20.2961L20.7124 10.7429C20.9817 10.8965 21.2132 11.0877 21.4082 11.3189C21.9953 12.015 22.1082 12.927 22.1766 13.6603L22.1767 13.6613L22.7366 19.7498C22.7366 19.7496 22.7366 19.7499 22.7366 19.7498C22.8893 21.3761 21.585 22.75 19.9599 22.75H18.0799C17.4435 22.75 16.9121 22.615 16.5198 22.2427C16.1846 21.9245 16.0464 21.5048 15.9637 21.2535C15.9584 21.2373 15.9533 21.2218 15.9484 21.2071L15.7501 20.6123C15.7498 20.6115 15.7495 20.6106 15.7493 20.6098C15.5927 20.1515 15.5291 20.0143 15.4362 19.9286C15.379 19.8758 15.2024 19.75 14.5599 19.75H9.43989C8.81854 19.75 8.62751 19.884 8.55823 19.9493C8.45542 20.0463 8.38876 20.195 8.2514 20.6071L8.0514 21.2071C8.04649 21.2218 8.04139 21.2373 8.03606 21.2535C7.95336 21.5048 7.81522 21.9245 7.47993 22.2427C7.08767 22.615 6.5563 22.75 5.91989 22.75H4.03989C2.41489 22.75 1.1107 21.3766 1.2631 19.7506C1.26308 19.7508 1.26313 19.7503 1.2631 19.7506L1.82313 13.6603C1.89157 12.927 2.00446 12.015 2.59158 11.3189C2.7866 11.0877 3.01811 10.8965 3.28739 10.7429L3.70366 8.74996H2.99989C2.58567 8.74996 2.24989 8.41417 2.24989 7.99996C2.24989 7.58574 2.58567 7.24996 2.99989 7.24996H3.99989C4.00558 7.24996 4.01127 7.25002 4.01693 7.25015L4.39598 5.43545C4.55989 4.65683 4.81062 3.77982 5.45981 3.11569ZM4.92273 10.25H19.077L18.136 5.74446C18.1359 5.74422 18.136 5.7447 18.136 5.74446C17.9799 5.00348 17.7955 4.49998 17.4673 4.16422C17.1663 3.8563 16.6313 3.57996 15.5099 3.57996H12.7499V4.24996H13.4999C13.9141 4.24996 14.2499 4.58574 14.2499 4.99996C14.2499 5.41417 13.9141 5.74996 13.4999 5.74996H10.4999C10.0857 5.74996 9.74989 5.41417 9.74989 4.99996C9.74989 4.58574 10.0857 4.24996 10.4999 4.24996H11.2499V3.57996H8.48989C7.36849 3.57996 6.83345 3.8563 6.53247 4.16422C6.20424 4.5 6.01998 5.0028 5.86393 5.74385C5.86389 5.74406 5.86397 5.74365 5.86393 5.74385L4.92273 10.25ZM5.61989 11.75C4.40968 11.75 3.95015 12.0347 3.73819 12.286C3.49037 12.5798 3.38825 13.0327 3.31669 13.7991C3.31667 13.7993 3.31671 13.799 3.31669 13.7991L2.75674 19.8886L2.75659 19.8902C2.68951 20.6037 3.26515 21.25 4.03989 21.25H5.91989C6.35982 21.25 6.44571 21.1565 6.44733 21.1547C6.48293 21.1209 6.51943 21.0596 6.62837 20.7328L6.82837 20.1328C6.83363 20.117 6.839 20.1008 6.8445 20.0842C6.95683 19.7451 7.12418 19.2399 7.52905 18.8581C7.98727 18.4259 8.62123 18.25 9.43989 18.25H14.5599C15.3574 18.25 15.9908 18.3991 16.4536 18.8264C16.8548 19.1967 17.0259 19.7027 17.147 20.0608C17.1547 20.0837 17.1623 20.106 17.1696 20.1276L17.1714 20.1328L17.3714 20.7328C17.4803 21.0596 17.5168 21.1209 17.5524 21.1547C17.5527 21.1549 17.6363 21.25 18.0799 21.25H19.9599C20.7346 21.25 21.3103 20.6037 21.2432 19.8902L20.6831 13.7997C20.6831 13.7993 20.6831 13.799 20.683 13.7986C20.6115 13.0325 20.5093 12.5798 20.2616 12.286C20.0496 12.0347 19.5901 11.75 18.3799 11.75H5.61989ZM5.24989 15C5.24989 14.5857 5.58567 14.25 5.99989 14.25H8.99989C9.4141 14.25 9.74989 14.5857 9.74989 15C9.74989 15.4142 9.4141 15.75 8.99989 15.75H5.99989C5.58567 15.75 5.24989 15.4142 5.24989 15ZM14.2499 15C14.2499 14.5857 14.5857 14.25 14.9999 14.25H17.9999C18.4141 14.25 18.7499 14.5857 18.7499 15C18.7499 15.4142 18.4141 15.75 17.9999 15.75H14.9999C14.5857 15.75 14.2499 15.4142 14.2499 15Z" fill="#595854"/>
</svg>
