<svg width="24" height="24" viewBox="0 0 24 24" fill="none" xmlns="http://www.w3.org/2000/svg">
<path fill-rule="evenodd" clip-rule="evenodd" d="M6.5 2.75C5.61698 2.75 4.80173 3.05774 4.16037 3.57416L4.15439 3.57897C3.29155 4.25929 2.75 5.31377 2.75 6.5C2.75 7.19677 2.94918 7.86371 3.29228 8.43275L3.29312 8.43413C3.74356 9.18488 4.45167 9.76666 5.29717 10.0485L5.31126 10.0533C5.67526 10.1828 6.06976 10.25 6.5 10.25C7.45055 10.25 8.30509 9.90127 8.9626 9.31866L8.97183 9.31049C9.25775 9.06541 9.50637 8.76833 9.70689 8.43414C9.88251 8.14143 10.0152 7.83422 10.1068 7.50114L10.1095 7.49145C10.2002 7.17823 10.25 6.83841 10.25 6.5C10.25 4.42421 8.57579 2.75 6.5 2.75ZM3.22262 2.40342C4.12081 1.68128 5.26439 1.25 6.5 1.25C9.40421 1.25 11.75 3.59579 11.75 6.5C11.75 6.66888 11.7414 6.83759 11.7246 7.00475L12.1835 7.03359L13.7148 4.61117C13.7151 4.61082 13.7153 4.61047 13.7155 4.61012C14.2491 3.76095 15.0878 3.28807 16.0041 3.25182C16.9077 3.21607 17.8157 3.60504 18.5403 4.32964L21.718 7.5073C21.7185 7.50776 21.7189 7.50822 21.7194 7.50868C23.1197 8.89822 23.1581 11.2575 21.4526 12.3428L21.4507 12.344L19.025 13.8773L19.2378 17.5311C19.3564 18.7367 19.2329 19.7676 18.5892 20.5218C17.9527 21.2677 16.9596 21.5598 15.8288 21.6947L7.10797 22.7248L7.10504 22.7251C5.98337 22.8532 4.95863 22.5168 4.24717 21.8053C3.53545 21.0936 3.20095 20.0702 3.33526 18.9513C3.33523 18.9515 3.33529 18.951 3.33526 18.9513L4.24789 11.2405C3.31035 10.7966 2.53238 10.0817 2.00687 9.20588L2.64999 8.82001L2.00771 9.20727C1.53081 8.41631 1.25 7.48323 1.25 6.5C1.25 4.84759 2.00723 3.36317 3.22262 2.40342ZM5.70503 11.6911C5.96459 11.7305 6.22975 11.75 6.5 11.75C7.82724 11.75 9.03089 11.2604 9.95278 10.4454C10.3648 10.0913 10.7147 9.66992 10.9931 9.20588C11.1321 8.97418 11.2527 8.73424 11.3544 8.48445L12.2501 8.54073L17.5185 13.8091L17.7413 17.6336C17.7419 17.6439 17.7427 17.6543 17.7437 17.6646C17.8525 18.7522 17.6893 19.2656 17.4482 19.5481C17.1973 19.8422 16.7004 20.0801 15.6512 20.2052L6.93494 21.2348C6.93453 21.2349 6.93412 21.2349 6.93371 21.235C6.56927 21.2764 6.24683 21.2404 5.97144 21.1487L8.99116 18.1195C9.28359 17.8261 9.28284 17.3512 8.98948 17.0588C8.69613 16.7664 8.22125 16.7671 7.92882 17.0605L4.90815 20.0907C4.81602 19.8156 4.78087 19.4935 4.82463 19.1296L5.70503 11.6911ZM18.3562 12.5255L20.6473 11.0773C20.6477 11.077 20.648 11.0768 20.6483 11.0766C21.3615 10.6218 21.54 9.44287 20.662 8.57263L20.6597 8.57029L17.4797 5.3903C17.0043 4.9149 16.4873 4.73388 16.0634 4.75065C15.6526 4.7669 15.2616 4.96865 14.9852 5.40882L14.984 5.41075L13.5344 7.70376L18.3562 12.5255ZM4.04999 6.5C4.04999 6.08579 4.38577 5.75 4.79999 5.75H8.16C8.57422 5.75 8.91 6.08579 8.91 6.5C8.91 6.91421 8.57422 7.25 8.16 7.25H4.79999C4.38577 7.25 4.04999 6.91421 4.04999 6.5Z" fill="#595854"/>
</svg>
