<svg width="24" height="24" viewBox="0 0 24 24" fill="none" xmlns="http://www.w3.org/2000/svg">
<path fill-rule="evenodd" clip-rule="evenodd" d="M3.09467 3.09467C4.42914 1.7602 6.42603 1.25 9 1.25H15C17.574 1.25 19.5709 1.7602 20.9053 3.09467C22.2398 4.42914 22.75 6.42603 22.75 9V15C22.75 17.574 22.2398 19.5709 20.9053 20.9053C19.5709 22.2398 17.574 22.75 15 22.75H9C6.42603 22.75 4.42914 22.2398 3.09467 20.9053C1.7602 19.5709 1.25 17.574 1.25 15V9C1.25 6.42603 1.7602 4.42914 3.09467 3.09467ZM4.15533 4.15533C3.2398 5.07086 2.75 6.57397 2.75 9V15C2.75 17.426 3.2398 18.9291 4.15533 19.8447C5.07086 20.7602 6.57397 21.25 9 21.25H15C17.426 21.25 18.9291 20.7602 19.8447 19.8447C20.7602 18.9291 21.25 17.426 21.25 15V9C21.25 6.57397 20.7602 5.07086 19.8447 4.15533C18.9291 3.2398 17.426 2.75 15 2.75H9C6.57397 2.75 5.07086 3.2398 4.15533 4.15533ZM16.8099 7.47303C16.3758 7.03721 15.6681 6.75549 14.553 6.76L14.55 6.76001H9.51999C9.34433 6.76001 9.17061 6.76882 9.00851 6.78589L8.99344 6.78732C8.0695 6.86577 7.48304 7.16517 7.11605 7.5962C6.74093 8.03679 6.5 8.72621 6.5 9.76999V12.91C6.5 14.4164 6.80664 15.0744 7.18239 15.4029C7.58319 15.7533 8.26685 15.92 9.51001 15.92H9.82001C10.0611 15.92 10.2794 15.9983 10.4353 16.0773C10.5919 16.1567 10.776 16.2827 10.9145 16.4627L10.9212 16.4715L11.86 17.73C11.8598 17.7298 11.8602 17.7302 11.86 17.73C11.9074 17.793 11.9488 17.8233 11.973 17.8364C11.9963 17.8492 12.0097 17.85 12.015 17.85C12.0203 17.85 12.0337 17.8492 12.057 17.8364C12.0812 17.8233 12.1221 17.7936 12.1695 17.7306C12.1693 17.7308 12.1697 17.7304 12.1695 17.7306L13.102 16.4807C13.3692 16.103 13.7988 15.92 14.21 15.92H14.52C15.5638 15.92 16.2532 15.6791 16.6938 15.3039C17.1248 14.9369 17.4242 14.3505 17.5027 13.4265L17.5041 13.4115C17.5212 13.2494 17.53 13.0757 17.53 12.9V9.76001C17.53 8.62688 17.245 7.90993 16.8099 7.47303ZM17.8726 6.41449C18.685 7.23009 19.03 8.39313 19.03 9.76001V12.9C19.03 13.1217 19.0191 13.3454 18.9967 13.5609C18.894 14.7537 18.4785 15.7545 17.6662 16.4461C16.8618 17.1309 15.7762 17.42 14.52 17.42H14.2727L13.37 18.63C13.0429 19.0661 12.5617 19.35 12.015 19.35C11.4683 19.35 10.9871 19.0661 10.66 18.63L9.75731 17.42H9.51001C8.24317 17.42 7.04683 17.2768 6.19512 16.5321C5.31837 15.7656 5 14.5436 5 12.91V9.76999C5 8.51377 5.28907 7.42819 5.97394 6.62379C6.6655 5.81154 7.66629 5.39599 8.85903 5.29334C9.0746 5.27094 9.29824 5.26001 9.51999 5.26001H14.5485C15.9028 5.25479 17.0595 5.59812 17.8726 6.41449Z" fill="#595854"/>
</svg>
