<svg width="24" height="24" viewBox="0 0 24 24" fill="none" xmlns="http://www.w3.org/2000/svg">
<path fill-rule="evenodd" clip-rule="evenodd" d="M7.90872 6.61079C7.27421 6.97708 6.75 7.83611 6.75 9.33V14.67C6.75 16.1689 7.27432 17.0288 7.91 17.3975C8.54616 17.7664 9.55264 17.7935 10.8467 17.0595L15.4637 14.3813C16.7599 13.6315 17.2425 12.7474 17.2425 12.015C17.2425 11.2826 16.7607 10.399 15.4645 9.64923L10.8445 6.96923C10.8444 6.96917 10.8446 6.96928 10.8445 6.96923C9.54918 6.22011 8.54295 6.24466 7.90872 6.61079ZM7.15879 5.31171C8.41701 4.58537 10.021 4.76007 11.5955 5.67078L16.2155 8.35078C16.2153 8.35067 16.2157 8.35088 16.2155 8.35078C17.7889 9.26103 18.7425 10.5625 18.7425 12.015C18.7425 13.4674 17.7896 14.7685 16.2163 15.6788M16.2163 15.6788L11.5904 18.3622C10.0159 19.2564 8.41336 19.4233 7.1575 18.695C5.90068 17.9662 5.25 16.4911 5.25 14.67V9.33C5.25 7.5139 5.90079 6.03793 7.15879 5.31171" fill="#595854"/>
</svg>
