<svg width="24" height="24" viewBox="0 0 24 24" fill="none" xmlns="http://www.w3.org/2000/svg">
<path fill-rule="evenodd" clip-rule="evenodd" d="M5.33008 2.75C4.65781 2.75 4.06006 3.3003 4.06006 4.12V6.45001C4.06006 6.6042 4.12011 6.87215 4.26136 7.1857C4.39915 7.49157 4.58116 7.76703 4.75559 7.94495L4.76371 7.95323L4.76365 7.9533L8.60367 11.9933C8.61836 12.0088 8.63239 12.0248 8.64571 12.0415C8.8988 12.3578 9.13578 12.7765 9.31078 13.2111C9.48409 13.6416 9.62006 14.1456 9.62006 14.63V19.98C9.62006 20.9693 10.7551 21.5824 11.6002 21.0655L13.0033 20.1599C13.012 20.1542 13.0208 20.1488 13.0298 20.1436C13.1216 20.0896 13.2651 19.9432 13.3903 19.7014C13.4989 19.4917 13.5562 19.2817 13.5678 19.1267C13.0027 18.7096 12.5336 18.1825 12.1781 17.5877C11.6696 16.7543 11.3801 15.7808 11.3801 14.75C11.3801 11.7158 13.8459 9.25 16.8801 9.25C17.1577 9.25 17.4329 9.27061 17.7019 9.31269L19.1617 8.02713C19.3344 7.84521 19.5333 7.551 19.6899 7.20684C19.853 6.84853 19.9401 6.50245 19.9401 6.23999V4.01999C19.9401 3.32422 19.3658 2.75 18.67 2.75H5.33008ZM19.3662 9.8458L20.1757 9.13286C20.1895 9.12075 20.2028 9.10814 20.2156 9.09506C20.539 8.76523 20.837 8.30752 21.0552 7.82816C21.2721 7.35146 21.4401 6.78754 21.4401 6.23999V4.01999C21.4401 2.49576 20.1942 1.25 18.67 1.25H5.33008C3.78235 1.25 2.56006 2.51969 2.56006 4.12V6.45001C2.56006 6.89582 2.705 7.38286 2.89373 7.80181C3.08506 8.22653 3.35647 8.65909 3.68012 8.9906L7.49247 13.0015C7.63495 13.1856 7.79463 13.4617 7.91933 13.7714C8.05103 14.0985 8.12006 14.4044 8.12006 14.63V19.98C8.12006 22.2286 10.6202 23.435 12.3945 22.3379L12.4068 22.3302L13.8054 21.4275C14.216 21.1806 14.5224 20.7771 14.7223 20.3911C14.8041 20.2332 14.8759 20.0631 14.9328 19.8869C15.5395 20.1222 16.1965 20.25 16.8801 20.25C18.8928 20.25 20.6413 19.1739 21.5918 17.5882C22.1035 16.7496 22.3801 15.7751 22.3801 14.75C22.3801 12.6121 21.159 10.7522 19.3662 9.8458ZM16.8801 10.75C14.6743 10.75 12.8801 12.5442 12.8801 14.75C12.8801 15.4978 13.0898 16.2031 13.46 16.8089L13.4641 16.8156L13.4641 16.8157C13.7753 17.3372 14.201 17.7773 14.712 18.0906C14.7195 18.0951 14.7268 18.0998 14.7341 18.1047C15.3547 18.5156 16.0913 18.75 16.8801 18.75C18.3461 18.75 19.6166 17.9675 20.3065 16.8148L20.3101 16.8089L20.3101 16.8089C20.6773 16.2081 20.8801 15.5037 20.8801 14.75C20.8801 12.8471 19.5499 11.2477 17.7584 10.8524L17.7433 10.8489C17.4753 10.7839 17.185 10.75 16.8801 10.75ZM19.2806 13.0707C19.5619 13.3748 19.5434 13.8493 19.2393 14.1306L16.7093 16.4706C16.4136 16.7441 15.9546 16.7352 15.6697 16.4503L14.4998 15.2803C14.2069 14.9874 14.2069 14.5126 14.4998 14.2197C14.7927 13.9268 15.2675 13.9268 15.5604 14.2197L16.2204 14.8796L18.2208 13.0294C18.5249 12.7481 18.9994 12.7666 19.2806 13.0707Z" fill="#595854"/>
</svg>
