<svg width="24" height="24" viewBox="0 0 24 24" fill="none" xmlns="http://www.w3.org/2000/svg">
<path fill-rule="evenodd" clip-rule="evenodd" d="M12 2.75C6.89137 2.75 2.75 6.89137 2.75 12C2.75 17.1086 6.89137 21.25 12 21.25C17.1086 21.25 21.25 17.1086 21.25 12C21.25 6.89137 17.1086 2.75 12 2.75ZM1.25 12C1.25 6.06294 6.06294 1.25 12 1.25C17.9371 1.25 22.75 6.06294 22.75 12C22.75 17.9371 17.9371 22.75 12 22.75C6.06294 22.75 1.25 17.9371 1.25 12ZM10.2104 7.93892C10.5037 7.64644 10.9786 7.64711 11.2711 7.94042L14.7911 11.4704C15.083 11.7631 15.083 12.2369 14.7911 12.5296L11.2711 16.0596C10.9786 16.3529 10.5037 16.3536 10.2104 16.0611C9.91711 15.7686 9.91644 15.2937 10.2089 15.0004L13.2008 12L10.2089 8.99958C9.91644 8.70627 9.91711 8.2314 10.2104 7.93892Z" fill="#595854"/>
</svg>
