<svg width="24" height="24" viewBox="0 0 24 24" fill="none" xmlns="http://www.w3.org/2000/svg">
<path fill-rule="evenodd" clip-rule="evenodd" d="M12.0087 1.245C12.9804 1.245 13.9065 1.71425 14.5786 2.56512L19.7689 9.14552C20.4472 10.0065 20.9122 10.8724 20.8243 11.8158C20.7367 12.7556 20.122 13.5405 19.2687 14.3002L19.2679 14.3009L16.6668 16.61L17.2614 19.264C17.2615 19.2643 17.2616 19.2647 17.2616 19.265C17.4748 20.2059 17.2241 21.1013 16.6238 21.7522C16.0316 22.3944 15.1475 22.75 14.16 22.75H9.87C7.97735 22.75 6.33634 21.1716 6.77878 19.2632C6.77905 19.262 6.77931 19.2609 6.77958 19.2597L7.36984 16.6248L4.76211 14.3098C3.86658 13.5692 3.24405 12.7813 3.16857 11.8239C3.09391 10.877 3.5763 10.0021 4.25069 9.14608C4.25063 9.14615 4.25076 9.146 4.25069 9.14608L9.43351 2.5625C10.11 1.71375 11.0375 1.245 12.0087 1.245ZM8.80057 17.1L8.24045 19.6003C8.06564 20.3502 8.70377 21.25 9.87 21.25H14.16C14.7925 21.25 15.2534 21.0256 15.5212 20.7353C15.7807 20.4539 15.905 20.0648 15.7986 19.596L15.7981 19.594L15.2394 17.1H8.80057ZM15.5451 15.6H8.47487L5.74792 13.1791C5.7411 13.1731 5.73417 13.1671 5.72713 13.1613C4.91843 12.4945 4.69064 12.0449 4.66393 11.706C4.6361 11.3531 4.80361 10.8681 5.42912 10.0741L10.6065 3.49748C10.6069 3.49693 10.6074 3.49637 10.6078 3.49582C10.8099 3.24274 11.0322 3.06017 11.26 2.93847V6.97C11.26 7.38421 11.5958 7.72 12.01 7.72C12.4242 7.72 12.76 7.38421 12.76 6.97V2.94092C12.9846 3.06242 13.2031 3.24383 13.4011 3.49447M13.4011 3.49447L18.5909 10.0741C19.2125 10.8631 19.3628 11.3326 19.3307 11.6766C19.2983 12.0243 19.0582 12.4792 18.2719 13.1793C18.2717 13.1794 18.2721 13.1791 18.2719 13.1793L15.5451 15.6" fill="#595854"/>
</svg>
