<svg width="24" height="24" viewBox="0 0 24 24" fill="none" xmlns="http://www.w3.org/2000/svg">
<path fill-rule="evenodd" clip-rule="evenodd" d="M10.0828 2.25459C10.4945 2.30033 10.7912 2.67115 10.7454 3.08283L10.1713 8.25001H14.6621L15.2546 2.91718C15.3003 2.5055 15.6711 2.20885 16.0828 2.25459C16.4945 2.30033 16.7912 2.67115 16.7454 3.08283L16.1713 8.25001H21.5C21.9142 8.25001 22.25 8.58579 22.25 9.00001C22.25 9.41422 21.9142 9.75001 21.5 9.75001H16.0046L15.5046 14.25H20.5C20.9142 14.25 21.25 14.5858 21.25 15C21.25 15.4142 20.9142 15.75 20.5 15.75H15.3379L14.7454 21.0828C14.6997 21.4945 14.3289 21.7912 13.9172 21.7454C13.5055 21.6997 13.2088 21.3289 13.2546 20.9172L13.8287 15.75H9.33795L8.74541 21.0828C8.69967 21.4945 8.32886 21.7912 7.91718 21.7454C7.5055 21.6997 7.20885 21.3289 7.25459 20.9172L7.82872 15.75H2.5C2.08579 15.75 1.75 15.4142 1.75 15C1.75 14.5858 2.08579 14.25 2.5 14.25H7.99538L8.49538 9.75001H3.5C3.08579 9.75001 2.75 9.41422 2.75 9.00001C2.75 8.58579 3.08579 8.25001 3.5 8.25001H8.66205L9.25459 2.91718C9.30033 2.5055 9.67114 2.20885 10.0828 2.25459ZM10.0046 9.75001L9.50462 14.25H13.9954L14.4954 9.75001H10.0046Z" fill="#595854"/>
</svg>
