<svg width="24" height="24" viewBox="0 0 24 24" fill="none" xmlns="http://www.w3.org/2000/svg">
<path fill-rule="evenodd" clip-rule="evenodd" d="M13.877 1.8216C13.8776 1.82197 13.8782 1.82235 13.8789 1.82272L19.3754 5.0007C19.3905 5.0094 19.4052 5.01862 19.4196 5.02835L19.4439 5.04472C19.9233 5.3683 20.3182 5.63485 20.622 5.87555C20.9359 6.12422 21.2064 6.38581 21.3993 6.71965C21.5966 7.06099 21.6779 7.41653 21.7152 7.79566C21.75 8.15043 21.75 8.57742 21.75 9.07557V14.9244C21.75 15.4226 21.75 15.8495 21.7152 16.2043C21.6779 16.5834 21.5966 16.939 21.3993 17.2803C21.2064 17.6142 20.9359 17.8757 20.622 18.1244C20.3182 18.3651 19.9233 18.6317 19.4439 18.9552L19.4196 18.9716C19.4052 18.9813 19.3905 18.9906 19.3754 18.9993L13.8789 22.1772C13.8783 22.1776 13.8777 22.178 13.8771 22.1783C13.3243 22.5013 12.643 22.64 12.0038 22.64C11.3633 22.64 10.6806 22.5008 10.1245 22.1792L4.6246 18.9993C4.60955 18.9906 4.59481 18.9813 4.5804 18.9716L4.55605 18.9552C4.07673 18.6317 3.68174 18.365 3.37782 18.1241C3.06369 17.8751 2.79314 17.613 2.60021 17.2783C2.4031 16.9363 2.32203 16.5799 2.28482 16.1998C2.24997 15.8438 2.24998 15.415 2.25 14.9143V9.07557C2.24998 8.57742 2.24997 8.15043 2.28485 7.79566C2.32213 7.41653 2.40337 7.06099 2.60068 6.71965C2.79365 6.38581 3.06413 6.12422 3.37802 5.87555C3.68185 5.63485 4.07675 5.3683 4.55615 5.04472L4.5804 5.02835C4.59481 5.01862 4.60955 5.0094 4.6246 5.0007L10.1245 1.82074C10.1245 1.82075 10.1246 1.82072 10.1245 1.82074C10.6806 1.49916 11.3633 1.35999 12.0038 1.35999C12.643 1.35999 13.3242 1.49864 13.877 1.8216ZM12.0038 2.85999C11.5567 2.85999 11.1494 2.96084 10.8755 3.11923L5.39799 6.28621C4.90011 6.6223 4.55944 6.85327 4.30948 7.0513C4.06088 7.24825 3.95635 7.37166 3.89933 7.47032C3.84664 7.56148 3.80287 7.68594 3.77765 7.94244C3.75084 8.21515 3.75 8.56791 3.75 9.10998V14.88C3.75 15.4245 3.75083 15.7793 3.77768 16.0536C3.80297 16.3119 3.8469 16.4374 3.8998 16.5292C3.95687 16.6282 4.06131 16.7518 4.30968 16.9487C4.55953 17.1468 4.90008 17.3776 5.39799 17.7138L10.8754 20.8807C11.1493 21.0391 11.5567 21.14 12.0038 21.14C12.4513 21.14 12.8542 21.039 13.1211 20.8827L13.1246 20.8807L18.602 17.7138C19.0999 17.3777 19.4406 17.1467 19.6905 16.9487C19.9391 16.7517 20.0436 16.6283 20.1007 16.5297C20.1534 16.4385 20.1971 16.314 20.2224 16.0575C20.2492 15.7848 20.25 15.4321 20.25 14.89V9.10998C20.25 8.56791 20.2492 8.21515 20.2224 7.94244C20.1971 7.68594 20.1534 7.56148 20.1007 7.47032C20.0436 7.37166 19.9391 7.24825 19.6905 7.0513C19.4406 6.85327 19.0999 6.62231 18.602 6.28622L13.1211 3.11726C12.8542 2.96101 12.4513 2.85999 12.0038 2.85999ZM12 9.74998C10.7574 9.74998 9.75 10.7573 9.75 12C9.75 13.2426 10.7574 14.25 12 14.25C13.2426 14.25 14.25 13.2426 14.25 12C14.25 10.7573 13.2426 9.74998 12 9.74998ZM8.25 12C8.25 9.92892 9.92893 8.24999 12 8.24999C14.0711 8.24999 15.75 9.92892 15.75 12C15.75 14.0711 14.0711 15.75 12 15.75C9.92893 15.75 8.25 14.0711 8.25 12Z" fill="#595854"/>
</svg>
