<svg width="24" height="24" viewBox="0 0 24 24" fill="none" xmlns="http://www.w3.org/2000/svg">
<path fill-rule="evenodd" clip-rule="evenodd" d="M1.25 3C1.25 2.58579 1.58579 2.25 2 2.25H22C22.4142 2.25 22.75 2.58579 22.75 3C22.75 3.41421 22.4142 3.75 22 3.75H2C1.58579 3.75 1.25 3.41421 1.25 3ZM3.65762 7.73588L11.6187 20.0755C11.7266 20.2193 11.8695 20.275 11.9875 20.275C12.1039 20.275 12.1934 20.2249 12.2488 20.1279C12.2555 20.1162 12.2625 20.1047 12.2698 20.0934L20.2698 7.69341C20.2762 7.68347 20.2828 7.67369 20.2897 7.66407C20.4312 7.46594 20.2967 7.15 20 7.15H4C3.76869 7.15 3.53377 7.44083 3.65762 7.73588ZM2.32918 8.43541C1.68148 7.14 2.63881 5.65 4 5.65H20C21.4965 5.65 22.361 7.31895 21.5218 8.51969L13.5399 20.8915C12.8166 22.1258 11.1484 21.998 10.3897 20.9359C10.3828 20.9263 10.3762 20.9165 10.3698 20.9066L2.36978 8.5066C2.35496 8.48362 2.3414 8.45986 2.32918 8.43541Z" fill="#595854"/>
</svg>
