<svg width="24" height="24" viewBox="0 0 24 24" fill="none" xmlns="http://www.w3.org/2000/svg">
<path fill-rule="evenodd" clip-rule="evenodd" d="M3.84467 2.85468C4.87925 1.8201 6.32956 1.26001 8 1.26001H12.93C14.4565 1.26001 15.918 1.8573 17.0003 2.93964L20.0703 6.00965C21.1413 7.08063 21.75 8.54157 21.75 10.08V17.01C21.75 18.6804 21.1899 20.1308 20.1553 21.1653C19.1207 22.1999 17.6704 22.76 16 22.76H8C6.32956 22.76 4.87925 22.1999 3.84467 21.1653C2.81009 20.1308 2.25 18.6804 2.25 17.01V7.01001C2.25 5.33957 2.81009 3.88926 3.84467 2.85468ZM4.90533 3.91534C4.18991 4.63076 3.75 5.68045 3.75 7.01001V17.01C3.75 18.3396 4.18991 19.3893 4.90533 20.1047C5.62075 20.8201 6.67044 21.26 8 21.26H16C17.3296 21.26 18.3793 20.8201 19.0947 20.1047C19.8101 19.3893 20.25 18.3396 20.25 17.01V10.08C20.25 8.93847 19.7987 7.85933 19.0097 7.07031L15.9397 4.0003C15.142 3.20264 14.0635 2.76001 12.93 2.76001H8C6.67044 2.76001 5.62075 3.19992 4.90533 3.91534ZM10.0303 13.4697C10.3232 13.7626 10.3232 14.2374 10.0303 14.5303L8.56066 16L10.0303 17.4697C10.3232 17.7626 10.3232 18.2374 10.0303 18.5303C9.73744 18.8232 9.26256 18.8232 8.96967 18.5303L6.96967 16.5303C6.67678 16.2374 6.67678 15.7626 6.96967 15.4697L8.96967 13.4697C9.26256 13.1768 9.73744 13.1768 10.0303 13.4697ZM13.9697 13.4697C14.2626 13.1768 14.7374 13.1768 15.0303 13.4697L17.0303 15.4697C17.3232 15.7626 17.3232 16.2374 17.0303 16.5303L15.0303 18.5303C14.7374 18.8232 14.2626 18.8232 13.9697 18.5303C13.6768 18.2374 13.6768 17.7626 13.9697 17.4697L15.4393 16L13.9697 14.5303C13.6768 14.2374 13.6768 13.7626 13.9697 13.4697Z" fill="#595854"/>
</svg>
