<svg width="24" height="24" viewBox="0 0 24 24" fill="none" xmlns="http://www.w3.org/2000/svg">
<path fill-rule="evenodd" clip-rule="evenodd" d="M3.53033 3.53033C3.01884 4.04182 2.75 4.99464 2.75 7V17C2.75 19.0054 3.01884 19.9582 3.53033 20.4697C4.04182 20.9812 4.99464 21.25 7 21.25H17C19.0054 21.25 19.9582 20.9812 20.4697 20.4697C20.9812 19.9582 21.25 19.0054 21.25 17V11C21.25 8.99464 20.9812 8.04182 20.4697 7.53033C20.2972 7.35786 20.0746 7.21298 19.7783 7.09669C19.75 7.08796 19.7225 7.0776 19.6957 7.06572C19.1149 6.85744 18.2678 6.75 17 6.75H14C13.4323 6.75 12.9717 6.66638 12.5796 6.42937C12.2295 6.21777 12.0015 5.91639 11.8342 5.6952C11.8235 5.68106 11.8131 5.66725 11.8029 5.65381L11.8 5.65001L10.3 3.65C9.9971 3.24613 9.85612 3.07421 9.66253 2.95791C9.48669 2.85228 9.18507 2.75 8.5 2.75H7C4.99464 2.75 4.04182 3.01884 3.53033 3.53033ZM7 1.25C5.00536 1.25 3.45818 1.48116 2.46967 2.46967C1.48116 3.45818 1.25 5.00536 1.25 7V17C1.25 18.9946 1.48116 20.5418 2.46967 21.5303C3.45818 22.5188 5.00536 22.75 7 22.75H17C18.9946 22.75 20.5418 22.5188 21.5303 21.5303C22.5188 20.5418 22.75 18.9946 22.75 17V11C22.75 9.00536 22.5188 7.45818 21.5303 6.46967C21.3001 6.23941 21.0395 6.05024 20.75 5.89551V5C20.75 3.88439 20.4706 2.90993 19.7803 2.21967C19.0901 1.52941 18.1156 1.25 17 1.25H7ZM11.5 2.75L12.9986 4.74816C13.2074 5.02285 13.2731 5.09587 13.3554 5.14563C13.4183 5.18362 13.5677 5.25 14 5.25H17C17.8302 5.25 18.5829 5.29004 19.25 5.40807V5C19.25 4.11561 19.0294 3.59007 18.7197 3.28033C18.4099 2.97059 17.8844 2.75 17 2.75H11.5Z" fill="#595854"/>
</svg>
