<svg width="24" height="24" viewBox="0 0 24 24" fill="none" xmlns="http://www.w3.org/2000/svg">
<path fill-rule="evenodd" clip-rule="evenodd" d="M3.88534 5.2371C3.20538 5.86848 2.75 6.89295 2.75 8.5V15.5C2.75 17.107 3.20538 18.1315 3.88534 18.7629C4.57535 19.4036 5.61497 19.75 7 19.75H12C12.4142 19.75 12.75 20.0858 12.75 20.5C12.75 20.9142 12.4142 21.25 12 21.25H7C5.38503 21.25 3.92465 20.8464 2.86466 19.8621C1.79462 18.8685 1.25 17.393 1.25 15.5V8.5C1.25 6.60705 1.79462 5.13152 2.86466 4.1379C3.92465 3.15363 5.38503 2.75 7 2.75H17C18.615 2.75 20.0754 3.15363 21.1353 4.1379C22.2054 5.13152 22.75 6.60705 22.75 8.5V11.5C22.75 11.9142 22.4142 12.25 22 12.25C21.5858 12.25 21.25 11.9142 21.25 11.5V8.5C21.25 6.89295 20.7946 5.86848 20.1147 5.2371C19.4246 4.59637 18.385 4.25 17 4.25H7C5.61497 4.25 4.57535 4.59637 3.88534 5.2371ZM17.586 8.53194C17.8445 8.85558 17.7917 9.32751 17.4681 9.58602L14.3371 12.0868C13.0337 13.1244 10.9563 13.1244 9.65286 12.0868L9.65102 12.0853L6.53102 9.58529C6.20778 9.32627 6.1557 8.85426 6.41471 8.53102C6.67373 8.20778 7.14574 8.1557 7.46898 8.41471L10.5871 10.9132C10.5874 10.9135 10.5877 10.9137 10.5879 10.9139C11.3445 11.5155 12.646 11.5154 13.4024 10.9136C13.4022 10.9137 13.4025 10.9135 13.4024 10.9136L16.5319 8.41398C16.8556 8.15548 17.3275 8.20829 17.586 8.53194ZM20.1334 13.4564C20.7966 13.3883 21.4069 13.6862 21.9504 14.2297C22.4969 14.7763 22.7984 15.3878 22.7326 16.0526C22.6708 16.6778 22.298 17.1627 21.9504 17.5104L21.5435 17.9172C21.4885 17.9994 21.4183 18.0689 21.3379 18.1228L18.4179 21.0428C18.2714 21.1963 18.091 21.308 17.9429 21.3821C17.7871 21.46 17.5977 21.5307 17.407 21.5608L17.3946 21.5628L16.0461 21.7525C16.0459 21.7525 16.0462 21.7525 16.0461 21.7525C15.6044 21.8155 15.1487 21.6994 14.8197 21.3703C14.4908 21.0415 14.3746 20.5864 14.4374 20.1449C14.4374 20.1452 14.4374 20.1446 14.4374 20.1449L14.6291 18.783C14.6597 18.5893 14.732 18.401 14.8095 18.2477C14.8871 18.0943 14.9974 17.922 15.1397 17.7797L18.1605 14.7589C18.1668 14.7523 18.1733 14.7458 18.1799 14.7395L18.6797 14.2397C19.0273 13.892 19.5113 13.5203 20.1334 13.4564ZM18.4686 16.5721L16.2017 18.839C16.2017 18.839 16.2017 18.8389 16.2017 18.839C16.2012 18.8396 16.1956 18.846 16.1863 18.8595C16.1744 18.8768 16.161 18.8992 16.148 18.9248C16.135 18.9505 16.1249 18.9747 16.118 18.9945C16.1136 19.0069 16.1116 19.0146 16.1108 19.0176L15.937 20.2531L17.173 20.0791C17.1762 20.0783 17.1853 20.076 17.2001 20.071C17.2215 20.0636 17.2466 20.0532 17.2721 20.0405C17.2978 20.0276 17.3182 20.0152 17.3318 20.0058C17.335 20.0036 17.3374 20.0018 17.339 20.0005C17.3425 19.9969 17.3461 19.9933 17.3497 19.9897L19.6158 17.7235C19.1575 17.4238 18.7667 17.0316 18.4686 16.5721ZM20.7146 16.6248C20.2117 16.3831 19.8075 15.9765 19.5688 15.4719L19.7403 15.3003C20.0027 15.038 20.1788 14.9597 20.2866 14.9486C20.3534 14.9417 20.5432 14.9439 20.8897 15.2904C21.2431 15.6438 21.2466 15.8372 21.2399 15.9049C21.2293 16.0123 21.1521 16.1873 20.8897 16.4497L20.7146 16.6248Z" fill="#595854"/>
</svg>
