<svg width="24" height="24" viewBox="0 0 24 24" fill="none" xmlns="http://www.w3.org/2000/svg">
<path fill-rule="evenodd" clip-rule="evenodd" d="M8 1.25C8.41421 1.25 8.75 1.58579 8.75 2V2.75H15.25V2C15.25 1.58579 15.5858 1.25 16 1.25C16.4142 1.25 16.75 1.58579 16.75 2V2.78025C18.2859 2.90808 19.5038 3.44034 20.3621 4.36466C21.3464 5.42465 21.75 6.88503 21.75 8.5V16.0842C22.3767 16.889 22.75 17.9009 22.75 19C22.75 21.6234 20.6234 23.75 18 23.75C16.9009 23.75 15.889 23.3767 15.0842 22.75H8C6.10705 22.75 4.63152 22.2054 3.6379 21.1353C2.65363 20.0754 2.25 18.615 2.25 17V8.5C2.25 6.88503 2.65363 5.42465 3.6379 4.36466C4.4962 3.44034 5.71409 2.90808 7.25 2.78025V2C7.25 1.58579 7.58579 1.25 8 1.25ZM7.25 4.28628C6.06502 4.40668 5.26412 4.81778 4.7371 5.38534C4.12128 6.04852 3.77738 7.03465 3.75157 8.34H20.2484C20.2226 7.03465 19.8787 6.04852 19.2629 5.38534C18.7359 4.81778 17.935 4.40668 16.75 4.28628V5C16.75 5.41421 16.4142 5.75 16 5.75C15.5858 5.75 15.25 5.41421 15.25 5V4.25H8.75V5C8.75 5.41421 8.41421 5.75 8 5.75C7.58579 5.75 7.25 5.41421 7.25 5V4.28628ZM20.25 9.84H3.75V17C3.75 18.385 4.09637 19.4246 4.7371 20.1147C5.36848 20.7946 6.39295 21.25 8 21.25H13.8157C13.4548 20.5803 13.25 19.8141 13.25 19C13.25 16.3766 15.3766 14.25 18 14.25C18.0456 14.25 18.091 14.2506 18.1362 14.2519C18.8995 14.2734 19.6178 14.475 20.25 14.8157V9.84ZM18 15.75C16.2051 15.75 14.75 17.2051 14.75 19C14.75 19.6094 14.9205 20.1833 15.2184 20.6663L15.2278 20.6821C15.3949 20.9684 15.609 21.2216 15.852 21.4254C15.8855 21.4535 15.9162 21.4842 15.9438 21.5169C16.5039 21.9751 17.2199 22.25 18 22.25C19.7949 22.25 21.25 20.7949 21.25 19C21.25 18.2017 20.9622 17.4707 20.4847 16.905C20.4681 16.8893 20.4521 16.8727 20.4368 16.8553C19.8676 16.2081 19.0481 15.7875 18.1256 15.7524C18.084 15.7508 18.0421 15.75 18 15.75ZM7.54431 13.7C7.54431 13.2858 7.8801 12.95 8.29431 12.95H8.30329C8.71751 12.95 9.05329 13.2858 9.05329 13.7C9.05329 14.1142 8.71751 14.45 8.30329 14.45H8.29431C7.8801 14.45 7.54431 14.1142 7.54431 13.7ZM11.2455 13.7C11.2455 13.2858 11.5813 12.95 11.9955 12.95H12.0045C12.4187 12.95 12.7545 13.2858 12.7545 13.7C12.7545 14.1142 12.4187 14.45 12.0045 14.45H11.9955C11.5813 14.45 11.2455 14.1142 11.2455 13.7ZM7.54431 16.7C7.54431 16.2858 7.8801 15.95 8.29431 15.95H8.30329C8.71751 15.95 9.05329 16.2858 9.05329 16.7C9.05329 17.1142 8.71751 17.45 8.30329 17.45H8.29431C7.8801 17.45 7.54431 17.1142 7.54431 16.7ZM16.4184 17.4709C16.7106 17.1773 17.1855 17.1762 17.4791 17.4684L18.0113 17.9981L18.5197 17.4897C18.8126 17.1968 19.2874 17.1968 19.5803 17.4897C19.8732 17.7826 19.8732 18.2574 19.5803 18.5503L19.0744 19.0562L19.5991 19.5784C19.8927 19.8706 19.8938 20.3455 19.6016 20.6391C19.3094 20.9326 18.8345 20.9338 18.5409 20.6416L18.0138 20.1169L17.4603 20.6703C17.1674 20.9632 16.6926 20.9632 16.3997 20.6703C16.1068 20.3775 16.1068 19.9026 16.3997 19.6097L16.9506 19.0588L16.4209 18.5316C16.1273 18.2394 16.1262 17.7645 16.4184 17.4709Z" fill="#595854"/>
</svg>
