<svg width="24" height="24" viewBox="0 0 24 24" fill="none" xmlns="http://www.w3.org/2000/svg">
<path fill-rule="evenodd" clip-rule="evenodd" d="M8.19227 2.40425C7.67982 2.40425 7.08548 2.65527 6.40662 3.33333L3.35904 6.37737C2.67798 7.06743 2.42749 7.66114 2.42749 8.17178C2.42749 8.68282 2.67838 9.27707 3.36066 9.96783C3.63316 10.2437 3.63042 10.6883 3.35454 10.9608C3.07865 11.2333 2.6341 11.2305 2.3616 10.9546C1.52954 10.1122 1.02325 9.18361 1.02325 8.17178C1.02325 7.15994 1.52954 6.23132 2.3616 5.38891L2.36494 5.38554L5.41425 2.3398C6.24975 1.50527 7.18006 1 8.19227 1C9.20448 1 10.1348 1.50527 10.9703 2.3398L11.7326 3.10124C11.7343 3.10295 11.736 3.10466 11.7377 3.10639C11.7396 3.10828 11.7416 3.11019 11.7435 3.11211C12.0175 3.38646 12.0173 3.83102 11.7429 4.10506L7.93128 7.91225C7.65692 8.18629 7.21236 8.18603 6.93833 7.91167C6.66429 7.63731 6.66455 7.19275 6.93891 6.91872L10.2532 3.60829L9.97791 3.33333C9.29905 2.65527 8.70471 2.40425 8.19227 2.40425ZM20.4816 2.47338C18.5847 3.23158 16.3059 4.58548 14.164 6.17136C12.903 7.10495 11.7049 8.1076 10.6717 9.10029C12.7365 9.56065 14.3716 11.1669 14.8711 13.2155C17.549 10.4218 20.2525 6.48107 21.4738 3.43929L21.4766 3.43216C21.6004 3.13347 21.5179 2.84611 21.3061 2.6402L21.2927 2.62679C21.1171 2.44648 20.8259 2.34781 20.4816 2.47338ZM13.6236 14.4331C13.5688 12.1834 11.7215 10.3711 9.45423 10.3711C9.44842 10.3711 9.44263 10.371 9.43685 10.3708C9.20119 10.6328 8.98078 10.8915 8.77764 11.1455C8.77732 11.1459 8.77699 11.1463 8.77667 11.1467L7.308 12.9992C8.16764 13.2003 8.98804 13.6448 9.67399 14.3393C10.3368 15.0019 10.7707 15.7687 10.9739 16.6001L12.796 15.1404C13.0677 14.9228 13.3442 14.6862 13.6236 14.4331ZM5.64482 12.9294C5.76583 12.6977 5.91294 12.4806 6.0811 12.2864L7.67813 10.272L7.67997 10.2697C9.05914 8.54506 11.1236 6.67518 13.3284 5.04278C15.5332 3.41033 17.9226 1.98252 19.9696 1.16576L19.9848 1.15991C20.8497 0.837758 21.7268 1.06518 22.292 1.64015C22.8578 2.19526 23.1424 3.07566 22.7756 3.96569C21.1436 8.02807 17.0954 13.496 13.6739 16.2364C13.6739 16.2364 13.6739 16.2364 13.6739 16.2364L11.6445 17.8622C11.635 17.8698 11.6253 17.8771 11.6155 17.8842C11.4533 18.0008 11.2774 18.12 11.0842 18.228C10.9824 19.3768 10.4916 20.4599 9.65478 21.3063L9.65166 21.3094C8.90923 22.051 7.90986 22.5495 6.74347 22.7024L6.72868 22.7042L4.19596 22.9819L4.19446 22.982C2.36951 23.1851 0.803946 21.6365 1.02 19.7868C1.02012 19.7858 1.02023 19.7848 1.02034 19.7839L1.29786 17.2582C1.29785 17.2582 1.29786 17.2581 1.29786 17.2582C1.56808 14.7958 3.50943 13.1759 5.64482 12.9294ZM6.58203 14.3048C6.43168 14.2979 6.29145 14.2944 6.1618 14.3008C6.15495 14.3012 6.14809 14.3014 6.14123 14.3016C4.45646 14.3363 2.89842 15.5456 2.69372 17.4113L2.41497 19.9482C2.30339 20.8955 3.1056 21.6908 4.03992 21.5863L6.56801 21.3092C7.43719 21.1937 8.14487 20.829 8.65771 20.3175C9.33885 19.6277 9.69986 18.7261 9.69986 17.7772C9.69986 17.6696 9.69339 17.5796 9.68537 17.4679C9.68377 17.4456 9.68211 17.4224 9.68042 17.398C9.67665 17.3647 9.67229 17.3321 9.66726 17.3003L9.66461 17.282C9.57234 16.5782 9.25538 15.9162 8.66959 15.3311C8.08212 14.7443 7.3784 14.407 6.6702 14.3096C6.63883 14.308 6.60954 14.3064 6.58203 14.3048ZM20.3818 11.7574L21.6395 12.9966L21.6428 12.9999C22.4851 13.8413 23 14.7708 23 15.7862C23 16.8015 22.4851 17.7311 21.6428 18.5724L18.5935 21.6181C17.758 22.4527 16.8277 22.9579 15.8155 22.9579C14.8033 22.9579 13.873 22.4527 13.0375 21.6181C12.7632 21.3441 12.7629 20.8995 13.0369 20.6252C13.311 20.3508 13.7555 20.3506 14.0299 20.6246C14.7087 21.3027 15.3031 21.5537 15.8155 21.5537C16.328 21.5537 16.9223 21.3027 17.6012 20.6246L20.6505 17.5788C21.3431 16.887 21.5958 16.2937 21.5958 15.7862C21.5958 15.279 21.3435 14.6862 20.6521 13.9951C20.6515 13.9945 20.651 13.994 20.6505 13.9935L20.3869 13.7337L17.8304 16.2786C17.5556 16.5522 17.111 16.5512 16.8374 16.2764C16.5639 16.0015 16.5649 15.557 16.8397 15.2834L20.3818 11.7574Z" fill="#595854"/>
</svg>
