<svg width="24" height="24" viewBox="0 0 24 24" fill="none" xmlns="http://www.w3.org/2000/svg">
<path fill-rule="evenodd" clip-rule="evenodd" d="M12.2492 4.05103C12.2553 4.04529 12.2613 4.03927 12.2672 4.03297C12.3536 3.94084 12.4161 3.72285 12.2502 3.54985C12.2447 3.54414 12.239 3.53847 12.233 3.53285C12.1411 3.44665 11.9237 3.38424 11.7509 3.54891C11.7449 3.55468 11.7389 3.56072 11.7329 3.56705C11.6218 3.68561 11.5979 3.89747 11.7488 4.04938C11.7491 4.0497 11.7494 4.05002 11.7497 4.05034C11.8214 4.12203 11.9097 4.15271 11.9909 4.1537C12.07 4.15467 12.1683 4.12688 12.2492 4.05103ZM11.1729 3.00705C11.6402 2.50867 12.39 2.56926 12.8104 2.98968C13.2624 3.44165 13.2386 4.15416 12.8272 4.59296C12.3518 5.10011 11.6223 5.01638 11.2071 4.62716C10.7 4.15171 10.7837 3.42222 11.1729 3.00705ZM5.45914 6.87102C5.46532 6.86525 5.47135 6.85924 5.47722 6.85297C5.58861 6.73416 5.61237 6.52165 5.4604 6.36968L4.96 6.87008C5.1013 7.00301 5.3175 7.00332 5.45914 6.87102ZM4.95901 6.86915L5.44303 6.35286C5.35108 6.26666 5.13374 6.20425 4.9609 6.36892C4.95485 6.37468 4.94885 6.38072 4.94292 6.38706C4.83577 6.50134 4.8097 6.70234 4.94315 6.85275C4.94573 6.85565 4.94836 6.85853 4.95105 6.86139C4.95368 6.86403 4.95633 6.86661 4.95901 6.86915ZM6.02881 5.81818C5.5814 5.35102 4.82643 5.35398 4.38292 5.82706C3.97154 6.26587 3.94777 6.97837 4.39974 7.43034L4.40829 7.43889L4.41712 7.44716C4.83228 7.83638 5.56177 7.92012 6.03722 7.41297C6.44603 6.9769 6.47206 6.27055 6.02881 5.81818ZM19.0402 6.87009C19.046 6.86461 19.0517 6.8589 19.0572 6.85297C19.1436 6.76085 19.2061 6.54286 19.0402 6.36986C19.0399 6.36953 19.0396 6.3692 19.0393 6.36888C19.0341 6.36349 19.0287 6.35815 19.023 6.35286C18.9045 6.24171 18.6926 6.21781 18.5407 6.36873C18.5404 6.36904 18.5401 6.36936 18.5398 6.36968L19.0402 6.87009ZM19.0392 6.87102C18.8975 7.00332 18.6813 7.00301 18.54 6.87008C18.5397 6.86977 18.5393 6.86946 18.539 6.86915C18.5363 6.86661 18.5337 6.86403 18.5311 6.86139C18.5284 6.85853 18.5257 6.85565 18.5232 6.85275C18.3897 6.70234 18.4158 6.50134 18.5229 6.38706L19.0392 6.87102ZM19.6088 5.81818C19.1614 5.35102 18.4064 5.35398 17.9629 5.82706C17.5737 6.24223 17.49 6.97171 17.9971 7.44716C18.4359 7.85855 19.1484 7.88232 19.6004 7.43034L19.609 7.42179L19.6172 7.41297C20.026 6.9769 20.0521 6.27054 19.6088 5.81818ZM15.1884 10.219C13.4316 8.45366 10.5685 8.45366 8.81167 10.219L8.80909 10.2216C7.04442 11.9777 7.04256 14.8319 8.81038 16.5997L8.81167 16.601C10.5678 18.3656 13.4219 18.3675 15.1897 16.5997L15.191 16.5984C16.9557 14.8423 16.9575 11.9882 15.1897 10.2203L15.1884 10.219ZM16.251 9.16032C13.9082 6.80678 10.0928 6.80656 7.74972 9.15967C5.3959 11.5035 5.39797 15.3079 7.74908 17.6597C10.0928 20.0142 13.8977 20.0123 16.2497 17.661C18.6042 15.3172 18.6023 11.5123 16.251 9.16032ZM2.63945 13.6613C2.63977 13.6609 2.64008 13.6606 2.64039 13.6603L2.39008 13.41L2.13999 13.6601C2.13998 13.6601 2.13999 13.6601 2.13999 13.6601C2.29502 13.8065 2.52054 13.7791 2.63945 13.6613ZM2.139 13.6591L2.38081 13.4012L2.13992 13.1599C2.13421 13.1653 2.12855 13.1711 2.12294 13.177C2.01579 13.2913 1.98972 13.4923 2.12318 13.6427C2.1258 13.6457 2.12849 13.6486 2.13123 13.6515C2.1338 13.6541 2.13639 13.6566 2.139 13.6591ZM2.14091 13.1589L2.38948 13.3919L2.62302 13.1428C2.53107 13.0566 2.31375 12.9942 2.14091 13.1589ZM2.39909 13.401L2.64039 13.1597C2.64039 13.1597 2.6404 13.1597 2.64039 13.1597C2.79235 13.3116 2.7686 13.5241 2.65722 13.6429L2.39909 13.401ZM3.20899 12.6083C2.75286 12.1315 2.02015 12.1592 1.57973 12.5997L1.57118 12.6082L1.56291 12.617C1.15153 13.0558 1.12776 13.7683 1.57973 14.2203L1.58829 14.2289L1.59711 14.2371C2.01228 14.6264 2.74179 14.7101 3.21724 14.2029C3.62601 13.7669 3.65208 13.0607 3.20899 12.6083ZM21.8502 13.6601C21.856 13.6546 21.8617 13.6489 21.8672 13.6429C21.9536 13.5508 22.0161 13.3328 21.8502 13.1598C21.8499 13.1595 21.8496 13.1592 21.8493 13.1589C21.8441 13.1535 21.8387 13.1481 21.833 13.1428C21.7145 13.0317 21.5026 13.0078 21.3507 13.1587C21.3504 13.159 21.3501 13.1593 21.3497 13.1597L21.8502 13.6601ZM21.8492 13.661C21.7075 13.7933 21.4913 13.793 21.35 13.6601C21.3497 13.6598 21.3493 13.6594 21.349 13.6591C21.3463 13.6566 21.3437 13.654 21.3411 13.6514C21.3384 13.6485 21.3357 13.6456 21.3332 13.6427C21.1997 13.4923 21.2258 13.2913 21.3329 13.177L21.8492 13.661ZM22.4188 12.6082C21.9714 12.141 21.2164 12.144 20.7729 12.617C20.3837 13.0322 20.3 13.7617 20.8071 14.2371C21.2459 14.6485 21.9584 14.6723 22.4104 14.2203L22.419 14.2118L22.4272 14.2029C22.836 13.7669 22.8621 13.0605 22.4188 12.6082ZM12.5304 12.8796C12.8233 13.1725 12.8233 13.6474 12.5304 13.9403L10.9404 15.5303C10.6475 15.8232 10.1726 15.8232 9.87974 15.5303C9.58685 15.2374 9.58684 14.7626 9.87973 14.4697L11.4697 12.8796C11.7626 12.5867 12.2375 12.5867 12.5304 12.8796ZM19.0395 20.4513L18.772 20.2006L18.5229 19.967C18.4158 20.0813 18.3897 20.2823 18.5232 20.4327C18.5258 20.4357 18.5285 20.4386 18.5312 20.4415C18.5338 20.4441 18.5364 20.4466 18.539 20.4491C18.5393 20.4494 18.5397 20.4497 18.54 20.4501C18.695 20.5965 18.9205 20.5691 19.0395 20.4513ZM19.609 19.3983C19.1529 18.9215 18.4202 18.9492 17.9798 19.3896L17.9712 19.3982L17.9629 19.407C17.5737 19.8222 17.49 20.5517 17.9971 21.0271C18.4359 21.4385 19.1484 21.4623 19.6004 21.0103L19.609 21.0017L19.6172 20.9929C20.026 20.5569 20.0521 19.8507 19.609 19.3983ZM18.5407 19.9487C18.6926 19.7978 18.9045 19.8217 19.023 19.9328C19.0287 19.9381 19.0341 19.9434 19.0393 19.9488C19.0396 19.9492 19.0399 19.9495 19.0402 19.9498C19.2061 20.1228 19.1436 20.3408 19.0572 20.4329L18.5407 19.9487ZM5.45914 20.451C5.46532 20.4452 5.47135 20.4392 5.47722 20.4329C5.58861 20.3141 5.61237 20.1016 5.4604 19.9496L4.96 20.45C5.1013 20.583 5.3175 20.5833 5.45914 20.451ZM4.95901 20.4491L5.44303 19.9328C5.35108 19.8466 5.13374 19.7842 4.9609 19.9489C4.95485 19.9546 4.94885 19.9607 4.94292 19.967C4.83577 20.0813 4.8097 20.2823 4.94315 20.4327C4.94573 20.4356 4.94836 20.4385 4.95106 20.4414C4.95368 20.444 4.95633 20.4466 4.95901 20.4491ZM6.02886 19.3982C5.58146 18.931 4.82645 18.9339 4.38292 19.407C3.97154 19.8458 3.94777 20.5583 4.39974 21.0103L4.40829 21.0189L4.41712 21.0271C4.83228 21.4163 5.56177 21.5001 6.03722 20.9929C6.44602 20.5569 6.47206 19.8506 6.02886 19.3982Z" fill="#595854"/>
</svg>
