<svg width="24" height="24" viewBox="0 0 24 24" fill="none" xmlns="http://www.w3.org/2000/svg">
<path fill-rule="evenodd" clip-rule="evenodd" d="M11.4837 1.26893C12.5191 1.24465 13.5961 1.50772 14.4501 2.10555L20.6288 6.43468C20.6286 6.43452 20.6291 6.43483 20.6288 6.43468C21.2484 6.86672 21.7707 7.53283 22.1361 8.23291C22.5017 8.9333 22.75 9.74277 22.75 10.5V17.78C22.75 20.503 20.5254 22.74 17.79 22.74H6.21C3.47347 22.74 1.25 20.5019 1.25 17.77V10.36C1.25 9.6495 1.47441 8.88048 1.80418 8.20836C2.134 7.53615 2.60552 6.88682 3.16901 6.44837L8.55901 2.24837C9.38375 1.60692 10.4482 1.29321 11.4837 1.26893ZM9.48046 3.43199C9.48037 3.43205 9.48054 3.43192 9.48046 3.43199L4.09099 7.63157C3.75471 7.89312 3.4109 8.33901 3.15082 8.86909C2.89059 9.39946 2.75 9.94045 2.75 10.36V17.77C2.75 19.6781 4.30653 21.24 6.21 21.24H17.79C19.6946 21.24 21.25 19.6769 21.25 17.78V10.5C21.25 10.0472 21.0933 9.47665 20.8064 8.92703C20.5195 8.37737 20.1413 7.92324 19.7712 7.66527L19.7696 7.66421L13.5899 3.3344C13.5898 3.33434 13.59 3.33446 13.5899 3.3344C13.044 2.95235 12.2958 2.7503 11.5188 2.76852C10.7419 2.78674 10.0057 3.02357 9.48046 3.43199ZM6.75 12C6.75 9.93576 8.43579 8.24997 10.5 8.24997H13.5C15.5642 8.24997 17.25 9.93576 17.25 12V15C17.25 17.0642 15.5642 18.75 13.5 18.75H10.5C8.43579 18.75 6.75 17.0642 6.75 15V12ZM8.25 14.25V15C8.25 16.2358 9.26421 17.25 10.5 17.25H11.25V14.25H8.25ZM11.25 12.75H8.25V12C8.25 10.7642 9.26421 9.74997 10.5 9.74997H11.25V12.75ZM12.75 14.25V17.25H13.5C14.7358 17.25 15.75 16.2358 15.75 15V14.25H12.75ZM15.75 12.75H12.75V9.74997H13.5C14.7358 9.74997 15.75 10.7642 15.75 12V12.75Z" fill="#595854"/>
</svg>
