<svg width="24" height="24" viewBox="0 0 24 24" fill="none" xmlns="http://www.w3.org/2000/svg">
<path fill-rule="evenodd" clip-rule="evenodd" d="M9.75174 8.35724C12.7491 8.87968 15.1203 11.2509 15.6428 14.2483C18.7526 14.1725 21.25 11.6281 21.25 8.5C21.25 5.32421 18.6758 2.75 15.5 2.75C12.3719 2.75 9.82751 5.24742 9.75174 8.35724ZM14.2318 15.0317C14.0076 12.2352 11.7648 9.99236 8.96829 9.76824C8.79941 9.75834 8.64279 9.75 8.5 9.75C5.32421 9.75 2.75 12.3242 2.75 15.5C2.75 18.6758 5.32421 21.25 8.5 21.25C11.6758 21.25 14.25 18.6758 14.25 15.5C14.25 15.3572 14.2417 15.2006 14.2318 15.0317ZM8.25409 8.25409C4.36374 8.38374 1.25 11.5781 1.25 15.5C1.25 19.5042 4.49579 22.75 8.5 22.75C12.4219 22.75 15.6163 19.6363 15.7459 15.7459C19.6363 15.6163 22.75 12.4219 22.75 8.5C22.75 4.49579 19.5042 1.25 15.5 1.25C11.5781 1.25 8.38374 4.36374 8.25409 8.25409ZM8.5 12.25C8.77492 12.25 9.02781 12.4004 9.15904 12.642L9.93308 14.0669L11.358 14.841C11.5996 14.9722 11.75 15.2251 11.75 15.5C11.75 15.7749 11.5996 16.0278 11.358 16.159L9.93308 16.9331L9.15904 18.358C9.02781 18.5996 8.77492 18.75 8.5 18.75C8.22508 18.75 7.97219 18.5996 7.84096 18.358L7.06692 16.9331L5.642 16.159C5.40042 16.0278 5.25 15.7749 5.25 15.5C5.25 15.2251 5.40042 14.9722 5.642 14.841L7.06692 14.0669L7.84096 12.642C7.97219 12.4004 8.22508 12.25 8.5 12.25ZM8.5 14.5712L8.27904 14.978C8.20988 15.1053 8.10531 15.2099 7.978 15.279L7.57123 15.5L7.978 15.721C8.10531 15.7901 8.20988 15.8947 8.27904 16.022L8.5 16.4288L8.72096 16.022C8.79012 15.8947 8.89469 15.7901 9.022 15.721L9.42877 15.5L9.022 15.279C8.89469 15.2099 8.79012 15.1053 8.72096 14.978L8.5 14.5712Z" fill="#595854"/>
</svg>
