<svg width="24" height="24" viewBox="0 0 24 24" fill="none" xmlns="http://www.w3.org/2000/svg">
<path fill-rule="evenodd" clip-rule="evenodd" d="M3.09467 3.09467C4.42914 1.7602 6.42603 1.25 9 1.25H15C17.574 1.25 19.5709 1.7602 20.9053 3.09467C22.2398 4.42914 22.75 6.42603 22.75 9V15C22.75 17.574 22.2398 19.5709 20.9053 20.9053C19.5709 22.2398 17.574 22.75 15 22.75H9C6.42603 22.75 4.42914 22.2398 3.09467 20.9053C1.7602 19.5709 1.25 17.574 1.25 15V9C1.25 6.42603 1.7602 4.42914 3.09467 3.09467ZM4.15533 4.15533C3.2398 5.07086 2.75 6.57397 2.75 9V15C2.75 17.426 3.2398 18.9291 4.15533 19.8447C5.07086 20.7602 6.57397 21.25 9 21.25H15C17.426 21.25 18.9291 20.7602 19.8447 19.8447C20.7602 18.9291 21.25 17.426 21.25 15V9C21.25 6.57397 20.7602 5.07086 19.8447 4.15533C18.9291 3.2398 17.426 2.75 15 2.75H9C6.57397 2.75 5.07086 3.2398 4.15533 4.15533ZM8.41998 7.81C7.77382 7.81 7.25 8.33381 7.25 8.98C7.25 9.62618 7.77382 10.15 8.41998 10.15C8.878 10.15 9.27455 9.88682 9.46667 9.50346C9.47496 9.48345 9.48417 9.46368 9.49431 9.44422C9.55589 9.3019 9.59003 9.14493 9.59003 8.98C9.59003 8.33385 9.06618 7.81 8.41998 7.81ZM11.0375 9.50974C11.0719 9.33852 11.09 9.16137 11.09 8.98C11.09 7.50537 9.89456 6.31 8.41998 6.31C6.94537 6.31 5.75 7.5054 5.75 8.98C5.75 10.4546 6.94537 11.65 8.41998 11.65C9.1662 11.65 9.84094 11.3439 10.3254 10.8503L11.8491 11.99L10.3141 13.1382C9.83042 12.6514 9.16039 12.35 8.41998 12.35C6.94537 12.35 5.75 13.5454 5.75 15.02C5.75 16.4946 6.94537 17.69 8.41998 17.69C9.89456 17.69 11.09 16.4946 11.09 15.02C11.09 14.8325 11.0707 14.6495 11.0339 14.4729L13.1013 12.9266L17.0508 15.8806C17.3825 16.1287 17.8525 16.0609 18.1006 15.7292C18.3487 15.3975 18.2809 14.9275 17.9492 14.6794L14.3535 11.99L17.9492 9.30059C18.2809 9.05249 18.3487 8.58248 18.1006 8.25078C17.8525 7.91909 17.3825 7.85131 17.0508 8.09941L13.1013 11.0534L11.0375 9.50974ZM8.41998 13.85C7.77382 13.85 7.25 14.3738 7.25 15.02C7.25 15.6662 7.77382 16.19 8.41998 16.19C9.06618 16.19 9.59003 15.6662 9.59003 15.02C9.59003 14.3739 9.06618 13.85 8.41998 13.85Z" fill="#595854"/>
</svg>
