<svg width="24" height="24" viewBox="0 0 24 24" fill="none" xmlns="http://www.w3.org/2000/svg">
<path fill-rule="evenodd" clip-rule="evenodd" d="M5.33008 2.76001C4.65781 2.76001 4.06006 3.31031 4.06006 4.13V6.45001C4.06006 6.6129 4.11982 6.88231 4.25809 7.19052C4.39356 7.49249 4.5738 7.76311 4.75036 7.93967L4.76365 7.9533L8.60367 11.9933C8.61628 12.0066 8.6284 12.0203 8.64001 12.0345C8.90276 12.3549 9.14136 12.7775 9.31532 13.2131C9.48804 13.6456 9.62006 14.1484 9.62006 14.63V19.98C9.62006 20.9693 10.7551 21.5824 11.6002 21.0655L13.0033 20.1599C13.3514 19.9352 13.8156 20.0353 14.0402 20.3833C14.2648 20.7313 14.1648 21.1955 13.8167 21.4202L12.4068 22.3302L12.3945 22.3379C10.6202 23.435 8.12006 22.2286 8.12006 19.98V14.63C8.12006 14.4016 8.05207 14.0944 7.92229 13.7694C7.79829 13.4589 7.63905 13.1851 7.49575 13.0049L3.68249 8.9931C3.3523 8.66063 3.08013 8.22943 2.8895 7.80449C2.70028 7.38271 2.56006 6.89712 2.56006 6.45001V4.13C2.56006 2.5297 3.78235 1.26001 5.33008 1.26001H18.67C20.1942 1.26001 21.4401 2.50577 21.4401 4.03V6.25C21.4401 6.79751 21.2722 7.36158 21.0548 7.83769C20.8366 8.31586 20.5373 8.77344 20.2104 9.10034C19.9175 9.39323 19.4426 9.39323 19.1497 9.10034C18.8568 8.80744 18.8568 8.33257 19.1497 8.03968C19.3228 7.86657 19.5285 7.56915 19.6903 7.21482C19.853 6.85843 19.9401 6.51249 19.9401 6.25V4.03C19.9401 3.33423 19.3658 2.76001 18.67 2.76001H5.33008ZM18.0034 10.5764C18.6666 10.5083 19.2769 10.8062 19.8203 11.3497C20.3669 11.8963 20.6684 12.5078 20.6026 13.1726C20.5407 13.7978 20.168 14.2827 19.8203 14.6303L19.4236 15.027C19.3686 15.1094 19.2983 15.179 19.2178 15.2329L16.288 18.1627C16.1414 18.3164 15.961 18.428 15.8129 18.5021C15.657 18.58 15.4676 18.6507 15.277 18.6808L15.2646 18.6828L13.9161 18.8725C13.9159 18.8725 13.9163 18.8724 13.9161 18.8725C13.4745 18.9354 13.0187 18.8193 12.6897 18.4903C12.3608 18.1614 12.2446 17.7064 12.3074 17.2649C12.3074 17.2652 12.3075 17.2646 12.3074 17.2649L12.4991 15.903C12.5297 15.7093 12.602 15.521 12.6795 15.3677C12.7571 15.2143 12.8674 15.042 13.0097 14.8997L16.0412 11.8682C16.0471 11.8621 16.0531 11.8561 16.0592 11.8502L16.5497 11.3597C16.8974 11.012 17.3813 10.6404 18.0034 10.5764ZM16.3486 13.6821L14.0717 15.959C14.0711 15.9597 14.0656 15.966 14.0563 15.9795C14.0444 15.9967 14.031 16.0191 14.018 16.0448C14.005 16.0704 13.9949 16.0946 13.988 16.1144C13.9837 16.1269 13.9816 16.1346 13.9809 16.1376L13.807 17.373L15.043 17.1991C15.0462 17.1983 15.0554 17.196 15.0702 17.1909C15.0915 17.1836 15.1167 17.1732 15.1421 17.1604C15.1678 17.1476 15.1883 17.1352 15.2019 17.1257C15.205 17.1235 15.2074 17.1218 15.2091 17.1205C15.2126 17.1169 15.2161 17.1133 15.2197 17.1097L17.4958 14.8335C17.0375 14.5338 16.6467 14.1416 16.3486 13.6821ZM18.5946 13.7348C18.0917 13.4931 17.6876 13.0865 17.4488 12.5819L17.6104 12.4203C17.8727 12.158 18.0488 12.0797 18.1567 12.0686C18.2235 12.0617 18.4132 12.0638 18.7597 12.4103C19.1131 12.7637 19.1166 12.9572 19.1099 13.0249C19.0993 13.1323 19.0221 13.3073 18.7597 13.5697L18.5946 13.7348Z" fill="#595854"/>
</svg>
