<svg width="24" height="24" viewBox="0 0 24 24" fill="none" xmlns="http://www.w3.org/2000/svg">
<path fill-rule="evenodd" clip-rule="evenodd" d="M10.5511 3.55098C10.5507 3.55141 10.5502 3.55184 10.5498 3.55227L7.86039 6.24998H16.8232C16.6906 5.91445 16.4853 5.60009 16.2052 5.32445L16.198 5.31732L14.4507 3.54994C13.3733 2.48301 11.628 2.48335 10.5511 3.55098ZM6.24109 5.74968L9.49028 2.49049L9.49304 2.48773C11.1555 0.837423 13.8473 0.837423 15.5098 2.48773L15.5147 2.49266L17.2613 4.25921C17.8776 4.86735 18.2673 5.61106 18.4251 6.40091C19.629 6.65552 20.6561 7.246 21.4103 8.12C22.2833 9.13163 22.75 10.4753 22.75 12V17C22.75 18.6704 22.1899 20.1207 21.1553 21.1553C20.1207 22.1899 18.6704 22.75 17 22.75H7.90348C7.1002 23.3845 6.09126 23.75 5 23.75C3.26804 23.75 1.7594 22.8246 0.938516 21.4486C0.498332 20.7327 0.25 19.8885 0.25 19C0.25 17.9021 0.627804 16.896 1.25 16.0918V12C1.25 10.4871 1.70803 9.15239 2.56796 8.14349C3.35439 7.22081 4.44342 6.61048 5.72476 6.37343C5.87571 6.14656 6.05218 5.93864 6.24109 5.74968C6.24124 5.74953 6.24094 5.74983 6.24109 5.74968ZM6.27018 7.80584C5.16914 7.9469 4.30322 8.41999 3.70955 9.11651C3.11197 9.81761 2.75 10.7929 2.75 12V14.818C3.4178 14.4568 4.18354 14.25 5 14.25C7.62421 14.25 9.75 16.3758 9.75 19C9.75 19.8077 9.54481 20.5787 9.17686 21.25H17C18.3296 21.25 19.3793 20.8101 20.0947 20.0947C20.7646 19.4247 21.193 18.4616 21.2447 17.25H19C17.4858 17.25 16.25 16.0142 16.25 14.5C16.25 12.9858 17.4858 11.75 19 11.75H21.2447C21.1976 10.6496 20.8395 9.75448 20.2747 9.09999C19.6691 8.39822 18.7851 7.92541 17.6634 7.79497C17.6511 7.79354 17.6389 7.79181 17.6267 7.78978C17.4468 7.7598 17.2446 7.75 17 7.75H7C6.97543 7.75 6.95099 7.75018 6.92667 7.75053C6.70975 7.75373 6.50283 7.77089 6.30545 7.80126C6.29369 7.80307 6.28193 7.80459 6.27018 7.80584ZM21.25 13.25H19C18.3142 13.25 17.75 13.8142 17.75 14.5C17.75 15.1858 18.3142 15.75 19 15.75H21.25V13.25ZM2.56398 16.8544C2.05611 17.4365 1.75 18.1834 1.75 19C1.75 19.6094 1.92053 20.1833 2.2184 20.6663L2.22469 20.6765C2.7845 21.6177 3.81413 22.25 5 22.25C5.82269 22.25 6.56449 21.9499 7.12828 21.4425C7.13477 21.4367 7.14136 21.431 7.14805 21.4254C7.39098 21.2216 7.60513 20.9684 7.77215 20.6821L7.7816 20.6663C8.07947 20.1833 8.25 19.6094 8.25 19C8.25 17.2042 6.79579 15.75 5 15.75C4.02693 15.75 3.15892 16.1785 2.56398 16.8544ZM3.43091 17.3997C3.72381 17.1068 4.19868 17.1068 4.49157 17.3997L5.01562 17.9237L5.50965 17.4297C5.80254 17.1368 6.27741 17.1368 6.57031 17.4297C6.8632 17.7226 6.8632 18.1975 6.57031 18.4904L6.07629 18.9844L6.60156 19.5096C6.89445 19.8025 6.89445 20.2774 6.60156 20.5703C6.30866 20.8632 5.83379 20.8632 5.5409 20.5703L5.01562 20.045L4.46032 20.6003C4.16743 20.8932 3.69256 20.8932 3.39966 20.6003C3.10677 20.3074 3.10677 19.8326 3.39966 19.5397L3.95496 18.9844L3.43091 18.4603C3.13802 18.1674 3.13802 17.6926 3.43091 17.3997Z" fill="#595854"/>
</svg>
