<svg width="24" height="24" viewBox="0 0 24 24" fill="none" xmlns="http://www.w3.org/2000/svg">
<path fill-rule="evenodd" clip-rule="evenodd" d="M12 2.75C6.89137 2.75 2.75 6.89137 2.75 12C2.75 17.1086 6.89137 21.25 12 21.25C17.1086 21.25 21.25 17.1086 21.25 12C21.25 6.89137 17.1086 2.75 12 2.75ZM1.25 12C1.25 6.06294 6.06294 1.25 12 1.25C17.9371 1.25 22.75 6.06294 22.75 12C22.75 17.9371 17.9371 22.75 12 22.75C6.06294 22.75 1.25 17.9371 1.25 12ZM7.25 8C7.25 6.48579 8.48579 5.25 10 5.25H14C15.5142 5.25 16.75 6.48579 16.75 8C16.75 8.7865 16.4166 9.49789 15.8839 10C16.4166 10.5021 16.75 11.2135 16.75 12C16.75 13.5142 15.5142 14.75 14 14.75C13.5504 14.75 13.1254 14.6411 12.75 14.4483V16C12.75 17.5142 11.5142 18.75 10 18.75C8.48579 18.75 7.25 17.5142 7.25 16C7.25 15.2135 7.5834 14.5021 8.11605 14C7.5834 13.4979 7.25 12.7865 7.25 12C7.25 11.2135 7.5834 10.5021 8.11605 10C7.5834 9.49789 7.25 8.7865 7.25 8ZM10 9.25C9.31421 9.25 8.75 8.68579 8.75 8C8.75 7.31421 9.31421 6.75 10 6.75H11.25V9.25H10ZM11.25 10.75H10C9.31421 10.75 8.75 11.3142 8.75 12C8.75 12.6858 9.31421 13.25 10 13.25H11.25V10.75ZM11.25 14.75H10C9.31421 14.75 8.75 15.3142 8.75 16C8.75 16.6858 9.31421 17.25 10 17.25C10.6858 17.25 11.25 16.6858 11.25 16V14.75ZM14 10.75C13.3142 10.75 12.75 11.3142 12.75 12C12.75 12.6858 13.3142 13.25 14 13.25C14.6858 13.25 15.25 12.6858 15.25 12C15.25 11.3142 14.6858 10.75 14 10.75ZM12.75 9.25V6.75H14C14.6858 6.75 15.25 7.31421 15.25 8C15.25 8.68579 14.6858 9.25 14 9.25H12.75Z" fill="#595854"/>
</svg>
