<svg width="24" height="24" viewBox="0 0 24 24" fill="none" xmlns="http://www.w3.org/2000/svg">
<path fill-rule="evenodd" clip-rule="evenodd" d="M3.91689 3.9555C3.1963 4.70858 2.75 5.81857 2.75 7.22542V13.4048C3.42026 13.0311 4.18711 12.8191 5 12.8191C6.40883 12.8191 7.68453 13.4555 8.54112 14.4729C9.29379 15.3473 9.75 16.501 9.75 17.7494C9.75 17.8237 9.74833 17.8977 9.74497 17.9714H11C11.1535 17.9714 11.3032 18.0184 11.4291 18.1062L15.8788 21.2099C15.8789 21.21 15.879 21.2101 15.8791 21.2102C15.9523 21.261 16.0275 21.2623 16.1034 21.2194C16.1822 21.1749 16.25 21.0847 16.25 20.9474V18.7214C16.25 18.3071 16.5858 17.9714 17 17.9714C18.32 17.9714 19.3658 17.5155 20.0781 16.7711C20.8041 16.0124 21.25 14.9022 21.25 13.4959V7.22542C21.25 5.81857 20.8037 4.70858 20.0831 3.9555C19.3654 3.2054 18.3194 2.75 17 2.75H7C5.68065 2.75 4.63463 3.2054 3.91689 3.9555ZM9.44465 19.4714H10.7643L15.0209 22.4404L15.0213 22.4407C16.2373 23.2879 17.75 22.3166 17.75 20.9474V19.4309C19.1124 19.281 20.2905 18.7188 21.1619 17.8081C22.1959 16.7274 22.75 15.2249 22.75 13.4959V7.22542C22.75 5.49702 22.1963 3.9943 21.1669 2.91848C20.1346 1.83968 18.6806 1.25 17 1.25H7C5.31935 1.25 3.86537 1.83968 2.83311 2.91848C1.8037 3.9943 1.25 5.49702 1.25 7.22542V13.4959C1.25 13.876 1.27395 14.2517 1.32867 14.6167C0.651863 15.4721 0.25 16.5696 0.25 17.7494C0.25 18.6645 0.494408 19.5357 0.930201 20.2769C1.16812 20.6979 1.47508 21.0804 1.82912 21.4025C2.65945 22.1925 3.76923 22.6798 5 22.6798C6.74817 22.6798 8.25531 21.7037 9.0688 20.2786C9.21727 20.0266 9.34396 19.7544 9.44465 19.4714ZM7.75 10.4338C7.75 10.0196 8.08579 9.68384 8.5 9.68384H15.5C15.9142 9.68384 16.25 10.0196 16.25 10.4338C16.25 10.8481 15.9142 11.1838 15.5 11.1838H8.5C8.08579 11.1838 7.75 10.8481 7.75 10.4338ZM2.67884 15.3448C2.10705 15.9596 1.75 16.812 1.75 17.7494C1.75 18.3993 1.92412 19.0097 2.22592 19.5212L2.23357 19.5344C2.39347 19.8185 2.60253 20.0792 2.84348 20.2974L2.85813 20.3111C3.427 20.8546 4.17435 21.1798 5 21.1798C6.16966 21.1798 7.20097 20.5279 7.7682 19.5313L7.77426 19.5207L7.77434 19.5207C7.94292 19.2355 8.0736 18.9035 8.1468 18.5635C8.14879 18.5543 8.15095 18.5451 8.15329 18.5359C8.21731 18.285 8.25 18.0234 8.25 17.7494C8.25 16.8677 7.92751 16.0581 7.40207 15.4489L7.39572 15.4416L7.39577 15.4415C6.81238 14.7472 5.94946 14.3191 5 14.3191C4.10032 14.3191 3.27549 14.7042 2.67886 15.3448M3.43022 16.0905C3.72882 15.8035 4.2036 15.8128 4.49067 16.1114L5.01509 16.6569L5.50933 16.1428C5.7964 15.8442 6.27118 15.8348 6.56978 16.1219C6.86838 16.409 6.87772 16.8838 6.59065 17.1824L6.05548 17.739L6.61067 18.3165C6.89774 18.6151 6.8884 19.0899 6.5898 19.377C6.2912 19.664 5.81642 19.6547 5.52935 19.3561L5.01509 18.8212L4.47065 19.3875C4.18358 19.6861 3.7088 19.6954 3.4102 19.4083C3.1116 19.1213 3.10226 18.6465 3.38933 18.3479L3.9747 17.739L3.40935 17.151C3.12228 16.8524 3.13162 16.3776 3.43022 16.0905Z" fill="#595854"/>
</svg>
