<svg width="24" height="24" viewBox="0 0 24 24" fill="none" xmlns="http://www.w3.org/2000/svg">
<path fill-rule="evenodd" clip-rule="evenodd" d="M12.7664 4.52096C12.3088 4.18038 11.679 4.18393 11.2356 4.51947L4.6849 9.48146C4.38443 9.71375 4.21277 10.0603 4.21277 10.4097L4.21276 10.4124L4.16867 20.7333H9.02128V18.1789C9.02128 17.0614 9.94618 16.1793 11.0638 16.1793H12.9362C14.0538 16.1793 14.9787 17.0614 14.9787 18.1789V20.7333H19.7872V10.4097C19.7872 10.0428 19.6183 9.70109 19.3183 9.47479L14.0946 5.52518C14.042 5.49595 13.9939 5.45953 13.9519 5.41727L12.7678 4.52201C12.7673 4.52166 12.7669 4.52131 12.7664 4.52096ZM14.6318 4.33886L13.5384 3.51212L13.5352 3.50974C12.6261 2.83127 11.3656 2.82806 10.4614 3.51228L3.908 8.47636L3.90392 8.47947C3.30717 8.9391 2.93664 9.64771 2.93617 10.4082C2.93617 10.4087 2.93617 10.4092 2.93617 10.4097L2.89206 20.7333H2.6383C2.28578 20.7333 2 21.0169 2 21.3667C2 21.7164 2.28578 22 2.6383 22H21.3617C21.7142 22 22 21.7164 22 21.3667C22 21.0169 21.7142 20.7333 21.3617 20.7333H21.0638V10.4097C21.0638 9.64739 20.7088 8.93282 20.0916 8.4669M20.0916 8.4669L19.1867 7.78274C19.1901 7.75505 19.1918 7.72681 19.1915 7.69814L19.1634 4.96573C19.1598 4.61849 18.8751 4.33886 18.5251 4.33886H14.6318M16.3071 5.60552L17.9057 6.81421L17.8933 5.60552H16.3071ZM13.7021 20.7333V18.1789C13.7021 17.7843 13.3726 17.446 12.9362 17.446H11.0638C10.6274 17.446 10.2979 17.7843 10.2979 18.1789V20.7333H13.7021ZM7.78723 11.298C7.61297 11.298 7.48936 11.436 7.48936 11.5755V12.9417C7.48936 13.0812 7.61297 13.2192 7.78723 13.2192H9.65957C9.83384 13.2192 9.95745 13.0812 9.95745 12.9417V11.5755C9.95745 11.436 9.83384 11.298 9.65957 11.298H7.78723ZM6.21277 11.5755C6.21277 10.7131 6.93171 10.0314 7.78723 10.0314H9.65957C10.5151 10.0314 11.234 10.7131 11.234 11.5755V12.9417C11.234 13.8041 10.5151 14.4859 9.65957 14.4859H7.78723C6.93171 14.4859 6.21277 13.8041 6.21277 12.9417V11.5755ZM14.3404 11.298C14.1662 11.298 14.0426 11.436 14.0426 11.5755V12.9417C14.0426 13.0812 14.1662 13.2192 14.3404 13.2192H16.2128C16.387 13.2192 16.5106 13.0812 16.5106 12.9417V11.5755C16.5106 11.436 16.387 11.298 16.2128 11.298H14.3404ZM12.766 11.5755C12.766 10.7131 13.4849 10.0314 14.3404 10.0314H16.2128C17.0683 10.0314 17.7872 10.7131 17.7872 11.5755V12.9417C17.7872 13.8041 17.0683 14.4859 16.2128 14.4859H14.3404C13.4849 14.4859 12.766 13.8041 12.766 12.9417V11.5755Z" fill="#595854"/>
</svg>
