<svg width="24" height="24" viewBox="0 0 24 24" fill="none" xmlns="http://www.w3.org/2000/svg">
<path fill-rule="evenodd" clip-rule="evenodd" d="M15.5174 1.43732C16.6841 1.28812 17.8645 1.76524 19.0639 2.89379L19.0653 2.89509C20.2688 4.03318 20.8166 5.18768 20.7344 6.36356C20.655 7.49981 19.9963 8.46152 19.2452 9.25507M19.2452 9.25507L17.9748 10.5997C17.9225 10.6826 17.8546 10.7541 17.7756 10.8105L11.0393 17.9407C10.8079 18.1927 10.4964 18.406 10.2011 18.5639C9.90203 18.7238 9.55607 18.8607 9.23128 18.9184L9.22628 18.9193L6.00743 19.4691C5.22687 19.6037 4.47837 19.4086 3.94516 18.903C3.41271 18.398 3.17742 17.6617 3.26459 16.8772L3.26484 16.8749L3.63645 13.6209C3.67961 13.2972 3.79982 12.9469 3.94153 12.643C4.08273 12.3402 4.27538 12.0192 4.50336 11.7765L4.50483 11.775L11.3367 4.54363C11.3423 4.53753 11.348 4.53152 11.3538 4.52559L12.7148 3.08495C13.4664 2.29108 14.3899 1.58149 15.5174 1.43732M11.5121 6.54223L5.59664 12.8035C5.59646 12.8037 5.59681 12.8033 5.59664 12.8035C5.51467 12.891 5.40206 13.0602 5.30097 13.277C5.20171 13.4898 5.14209 13.6868 5.12422 13.8133L4.75541 17.0428C4.75538 17.0432 4.75534 17.0435 4.7553 17.0438C4.71279 17.4288 4.83242 17.6771 4.97734 17.8146C5.12163 17.9514 5.37313 18.0563 5.75257 17.9909L5.75372 17.9907L8.97083 17.4412C9.09611 17.4186 9.28912 17.3506 9.49388 17.2411C9.70146 17.1301 9.85762 17.0104 9.93578 16.9247L9.94474 16.9149L15.8586 10.6555C13.8601 10.0198 12.2545 8.50386 11.5121 6.54223ZM17.0417 9.40313C14.892 9.03552 13.175 7.41161 12.698 5.28699L13.8047 4.11562C13.8045 4.11575 13.8048 4.11548 13.8047 4.11562C14.473 3.40974 15.0952 3.00352 15.7076 2.9252C16.2808 2.85191 17.0352 3.04471 18.0355 3.9857C19.0414 4.93725 19.2784 5.6825 19.2381 6.25896C19.195 6.87495 18.824 7.51806 18.1553 8.2244L17.0417 9.40313ZM2.25 22C2.25 21.5858 2.58579 21.25 3 21.25H21C21.4142 21.25 21.75 21.5858 21.75 22C21.75 22.4142 21.4142 22.75 21 22.75H3C2.58579 22.75 2.25 22.4142 2.25 22Z" fill="#595854"/>
</svg>
