<svg width="24" height="24" viewBox="0 0 24 24" fill="none" xmlns="http://www.w3.org/2000/svg">
<path fill-rule="evenodd" clip-rule="evenodd" d="M6.45001 1.25C6.86423 1.25 7.20001 1.58579 7.20001 2V3.29286C7.21593 3.29851 7.23177 3.30473 7.2475 3.31152L15.3453 6.81057C17.0799 7.54702 18.2632 8.67913 18.2998 10.1058C18.3361 11.5227 17.225 12.7247 15.594 13.5665L15.5822 13.5725L15.5822 13.5724L7.28218 17.6724C7.25516 17.6858 7.22773 17.6973 7.20001 17.7072V22C7.20001 22.4142 6.86423 22.75 6.45001 22.75C6.0358 22.75 5.70001 22.4142 5.70001 22V2C5.70001 1.58579 6.0358 1.25 6.45001 1.25ZM7.20001 16.04L14.9118 12.2306C16.3762 11.4733 16.8139 10.6766 16.8003 10.1442C16.7869 9.62152 16.3212 8.85401 14.7571 8.19044L14.7525 8.18849L14.7525 8.18848L7.20001 4.92505V16.04Z" fill="#595854"/>
</svg>
