<svg width="24" height="24" viewBox="0 0 24 24" fill="none" xmlns="http://www.w3.org/2000/svg">
<path fill-rule="evenodd" clip-rule="evenodd" d="M6.52188 5.92394C5.80279 7.15681 5.56033 8.82036 6.29576 10.8663C6.43587 11.2561 6.23347 11.6856 5.84367 11.8258C5.75283 11.8584 5.65982 11.8725 5.56883 11.8699C1.85072 12.155 1.85027 17.5536 5.56748 17.84H6.40204C6.30144 17.4185 6.24994 16.9793 6.24994 16.53C6.24994 13.3558 8.82573 10.78 11.9999 10.78C15.1742 10.78 17.7499 13.3558 17.7499 16.53C17.7499 16.944 17.7062 17.3494 17.6206 17.7403C18.4131 17.5719 19.1514 17.1938 19.7652 16.6353L19.7761 16.6256C21.1577 15.4166 21.5041 13.5805 21.0061 11.9432C20.5083 10.3063 19.1991 8.97565 17.3754 8.74401C17.0465 8.70222 16.784 8.4494 16.7299 8.12226C16.3747 5.97225 15.3533 4.64118 14.1283 3.92107C12.8855 3.19052 11.3578 3.04481 9.93583 3.41903C8.51393 3.79325 7.25128 4.6734 6.52188 5.92394ZM16.9106 19.49C15.92 21.1545 14.0922 22.28 11.9999 22.28C9.90767 22.28 8.07989 21.1545 7.08927 19.49C7.05856 19.4407 7.02872 19.3907 6.99974 19.34H5.53991C5.52231 19.34 5.50471 19.3394 5.48715 19.3381C0.184792 18.9642 -0.105675 11.6397 4.61576 10.5043C4.08514 8.44329 4.37827 6.62191 5.22617 5.1682C6.18113 3.53094 7.79847 2.43046 9.55406 1.96843C11.3096 1.5064 13.2568 1.66882 14.8884 2.62795C16.4212 3.52901 17.6111 5.09557 18.1086 7.35109C20.3212 7.84687 21.849 9.55947 22.4412 11.5067C23.0802 13.6075 22.663 16.0886 20.7693 17.7496C19.7267 18.6962 18.4043 19.2538 17.0053 19.3309C16.9747 19.3847 16.9432 19.4377 16.9106 19.49ZM11.9999 12.28C9.65415 12.28 7.74994 14.1842 7.74994 16.53C7.74994 17.1614 7.88628 17.7491 8.13507 18.2633C8.1386 18.2706 8.14202 18.278 8.14531 18.2854C8.21171 18.4348 8.28537 18.5736 8.36592 18.7025L8.37499 18.7174C9.1054 19.9489 10.4553 20.78 11.9999 20.78C13.5445 20.78 14.8945 19.9489 15.6249 18.7174L15.634 18.7025C15.7145 18.5736 15.7882 18.4348 15.8546 18.2854C15.8579 18.278 15.8613 18.2706 15.8648 18.2633C16.1136 17.7491 16.2499 17.1613 16.2499 16.53C16.2499 14.1842 14.3457 12.28 11.9999 12.28ZM14.1105 15.0407C14.3918 15.3448 14.3733 15.8194 14.0692 16.1006L11.9392 18.0706C11.6434 18.3441 11.1844 18.3352 10.8996 18.0503L9.90961 17.0603C9.61672 16.7674 9.61672 16.2925 9.90962 15.9997C10.2025 15.7068 10.6774 15.7068 10.9703 15.9997L11.4502 16.4796L13.0507 14.9994C13.3548 14.7181 13.8293 14.7367 14.1105 15.0407Z" fill="#595854"/>
</svg>
