<svg width="24" height="24" viewBox="0 0 24 24" fill="none" xmlns="http://www.w3.org/2000/svg">
<path fill-rule="evenodd" clip-rule="evenodd" d="M1.25 8.69C1.25 5.1893 4.07228 2.34998 7.56 2.34998C9.28784 2.34998 10.8615 3.05566 11.9997 4.19474C13.1354 3.05601 14.7033 2.34998 16.44 2.34998C19.9277 2.34998 22.75 5.1893 22.75 8.69C22.75 9.96153 22.5467 11.1372 22.2056 12.2245C22.0816 12.6197 21.6607 12.8396 21.2655 12.7156C20.8703 12.5916 20.6504 12.1707 20.7744 11.7755C21.0733 10.8228 21.25 9.79847 21.25 8.69C21.25 6.0107 19.0923 3.84998 16.44 3.84998C14.8685 3.84998 13.4775 4.60851 12.6021 5.78719C12.4606 5.97771 12.2373 6.09003 12 6.09003C11.7627 6.09003 11.5394 5.97771 11.3979 5.78719C10.523 4.60913 9.12219 3.84998 7.56 3.84998C4.90772 3.84998 2.75 6.0107 2.75 8.69C2.75 11.9405 4.25066 14.545 6.13939 16.4813C8.03701 18.4268 10.2807 19.6476 11.6245 20.111L11.6296 20.1127C11.695 20.1358 11.8245 20.16 12 20.16C12.4142 20.16 12.75 20.4958 12.75 20.91C12.75 21.3242 12.4142 21.66 12 21.66C11.7165 21.66 11.4072 21.6244 11.1332 21.5283C9.57697 20.9911 7.13199 19.6472 5.06561 17.5287C2.98934 15.4001 1.25 12.4395 1.25 8.69ZM20.1333 14.4264C20.7966 14.3583 21.4068 14.6562 21.9503 15.1997C22.4969 15.7463 22.7984 16.3578 22.7326 17.0226C22.6707 17.6478 22.298 18.1327 21.9503 18.4804L21.5434 18.8873C21.4885 18.9694 21.4183 19.0389 21.338 19.0927L18.4179 22.0128C18.2713 22.1664 18.091 22.278 17.9429 22.3521C17.787 22.43 17.5976 22.5007 17.407 22.5308L17.3945 22.5328L16.0461 22.7225C16.0459 22.7225 16.0462 22.7225 16.0461 22.7225C15.6044 22.7855 15.1487 22.6694 14.8197 22.3403C14.4908 22.0114 14.3746 21.5564 14.4374 21.1149C14.4374 21.1152 14.4374 21.1146 14.4374 21.1149L14.6291 19.753C14.6597 19.5593 14.7319 19.3711 14.8095 19.2177C14.8871 19.0644 14.9974 18.892 15.1397 18.7497L18.1596 15.7297C18.1665 15.7226 18.1735 15.7155 18.1807 15.7086L18.6797 15.2097C19.0273 14.862 19.5112 14.4904 20.1333 14.4264ZM18.4686 17.5421L16.2017 19.8091C16.2012 19.8097 16.1956 19.816 16.1862 19.8296C16.1744 19.8468 16.161 19.8692 16.148 19.8949C16.135 19.9205 16.1249 19.9447 16.118 19.9645C16.1136 19.9769 16.1116 19.9846 16.1108 19.9877L15.937 21.223L17.173 21.0491C17.1762 21.0483 17.1853 21.046 17.2002 21.0409C17.2215 21.0336 17.2466 21.0232 17.2721 21.0104C17.2978 20.9976 17.3182 20.9852 17.3318 20.9758C17.335 20.9736 17.3374 20.9718 17.339 20.9705C17.3425 20.9669 17.3461 20.9633 17.3497 20.9597L19.6158 18.6935C19.1575 18.3938 18.7667 18.0016 18.4686 17.5421ZM20.7146 17.5948C20.2117 17.3531 19.8075 16.9465 19.5688 16.4419L19.7403 16.2703C20.0027 16.008 20.1788 15.9297 20.2867 15.9186C20.3534 15.9117 20.5432 15.9138 20.8897 16.2603C21.2431 16.6138 21.2466 16.8072 21.2399 16.8749C21.2293 16.9823 21.152 17.1573 20.8897 17.4197L20.7146 17.5948Z" fill="#595854"/>
</svg>
