<svg width="24" height="24" viewBox="0 0 24 24" fill="none" xmlns="http://www.w3.org/2000/svg">
<path fill-rule="evenodd" clip-rule="evenodd" d="M13.6393 2.92253C8.97517 1.90693 4.86011 5.42083 4.86011 9.89997C4.86011 12.4659 6.56493 14.955 8.68803 16.2381C8.91277 16.3739 9.05011 16.6174 9.05011 16.88V18.04C9.05011 18.1068 9.04823 18.1733 9.04674 18.2258C9.04666 18.2286 9.04658 18.2314 9.04651 18.2342C9.10183 18.2384 9.17001 18.2408 9.25329 18.24L9.26011 18.2399V18.24H14.7701C14.8712 18.24 14.9396 18.2316 14.9832 18.2229C14.9834 18.2077 14.9833 18.1902 14.9829 18.1694C14.9825 18.1495 14.982 18.1326 14.9813 18.1081C14.9808 18.0866 14.9801 18.0586 14.9801 18.03V16.87C14.9801 16.6073 15.1176 16.3637 15.3425 16.2279C18.3218 14.4292 20.2743 10.3633 18.3986 6.5941L18.3986 6.59408C17.4738 4.7355 15.6866 3.37585 13.6393 2.92253ZM9.04765 18.4219C9.04763 18.4219 9.04749 18.4212 9.04727 18.4195L9.04765 18.4219ZM3.36011 9.89997C3.36011 4.47947 8.34439 0.233577 13.9598 1.45717L13.9621 1.45768C16.4343 2.00462 18.6066 3.64481 19.7416 5.92586C21.9651 10.3942 19.7643 15.0704 16.4801 17.2808V18.03C16.4801 18.031 16.4803 18.034 16.4807 18.0388C16.4856 18.1099 16.5184 18.578 16.3164 18.9655C16.0327 19.5096 15.4621 19.74 14.7701 19.74H9.26344C8.70273 19.7447 8.0543 19.6584 7.72285 19.1006C7.57531 18.8523 7.55148 18.5978 7.54589 18.44C7.54295 18.357 7.54482 18.2762 7.54651 18.2132C7.54684 18.2009 7.54717 18.1892 7.54748 18.1779C7.54894 18.1257 7.55011 18.0838 7.55011 18.04V17.2909C5.23633 15.7362 3.36011 12.937 3.36011 9.89997ZM12.3741 7.23987C12.7331 7.44641 12.8568 7.90491 12.6502 8.26396L11.7954 9.74997H12.6301C13.0304 9.74997 13.5097 9.89808 13.767 10.3504C14.0221 10.7988 13.9086 11.2826 13.7099 11.6245L12.6517 13.4813C12.4466 13.8412 11.9886 13.9667 11.6288 13.7616C11.2689 13.5565 11.1434 13.0985 11.3485 12.7386L12.1969 11.25H11.3601C10.959 11.25 10.4864 11.0985 10.2295 10.654C9.97216 10.2088 10.0776 9.72327 10.2812 9.3739L11.35 7.51599C11.5565 7.15694 12.015 7.03332 12.3741 7.23987ZM15.2953 22.7215C13.1392 22.1095 10.861 22.1095 8.7049 22.7215C8.30643 22.8346 7.89171 22.6032 7.77861 22.2048C7.66551 21.8063 7.89684 21.3916 8.29532 21.2785C10.7192 20.5905 13.281 20.5905 15.7049 21.2785C16.1034 21.3916 16.3347 21.8063 16.2216 22.2048C16.1085 22.6032 15.6938 22.8346 15.2953 22.7215Z" fill="#595854"/>
</svg>
