<svg width="24" height="24" viewBox="0 0 24 24" fill="none" xmlns="http://www.w3.org/2000/svg">
<path fill-rule="evenodd" clip-rule="evenodd" d="M12.7841 3.02131C12.361 2.66716 11.644 2.67242 11.2374 3.02003L9.65898 4.3687C9.42044 4.57477 9.11635 4.73099 8.83499 4.83554C8.55286 4.94038 8.22155 5.02001 7.91001 5.02001H6.18001C5.53422 5.02001 5.00001 5.55422 5.00001 6.20001V7.92001C5.00001 8.23205 4.92013 8.56084 4.81712 8.83912C4.71373 9.11843 4.56151 9.41574 4.36617 9.65015L4.36175 9.65545L3.01412 11.2426C3.01377 11.243 3.01342 11.2434 3.01308 11.2438C2.66899 11.6546 2.66899 12.3654 3.01308 12.7762C3.01342 12.7766 3.01377 12.777 3.01412 12.7774L4.3662 14.3698C4.56153 14.6043 4.71373 14.9016 4.81712 15.1809C4.92013 15.4592 5.00001 15.788 5.00001 16.1V17.81C5.00001 18.4558 5.53422 18.99 6.18001 18.99H7.91001C8.22554 18.99 8.55682 19.0691 8.84 19.1749C9.12263 19.2805 9.42314 19.4373 9.65993 19.6421C9.66035 19.6425 9.66078 19.6429 9.66121 19.6432L11.236 20.9987C11.6587 21.3526 12.3748 21.3476 12.7816 21.0009C12.7819 21.0006 12.7822 21.0003 12.7826 21L14.3588 19.6432C14.3593 19.6428 14.3597 19.6424 14.3602 19.642C14.5989 19.4356 14.9033 19.2791 15.185 19.1745C15.4672 19.0696 15.7985 18.99 16.11 18.99H17.81C18.4558 18.99 18.99 18.4558 18.99 17.81V16.11C18.99 15.7945 19.0691 15.4632 19.1749 15.18C19.2805 14.8974 19.4373 14.597 19.6421 14.3602C19.6425 14.3597 19.6428 14.3593 19.6432 14.3588L20.9987 12.784C21.3526 12.3613 21.3476 11.6452 21.0009 11.2385C21.0006 11.2381 21.0003 11.2378 21 11.2374L19.6432 9.66121C19.6429 9.66078 19.6425 9.66035 19.6421 9.65992C19.4357 9.42124 19.2792 9.11672 19.1745 8.83499C19.0696 8.55286 18.99 8.22155 18.99 7.91001V6.21001C18.99 5.56422 18.4558 5.03001 17.81 5.03001H16.11C15.7945 5.03001 15.4632 4.95088 15.18 4.84507C14.8974 4.73946 14.5968 4.58269 14.36 4.37782C14.3596 4.37747 14.3592 4.37712 14.3588 4.37677L12.7841 3.02131ZM10.2628 1.8798C11.2355 1.04831 12.7762 1.05293 13.7534 1.87654L13.7593 1.88155L15.3412 3.24324C15.4042 3.29786 15.5331 3.37573 15.705 3.43994C15.8768 3.50414 16.0255 3.53001 16.11 3.53001H17.81C19.2842 3.53001 20.49 4.73579 20.49 6.21001V7.91001C20.49 7.98846 20.5154 8.13716 20.5805 8.31252C20.6457 8.48779 20.7238 8.61768 20.7768 8.67881L20.7784 8.68073L22.14 10.2626C22.9717 11.2352 22.9671 12.7761 22.1435 13.7534L22.1385 13.7593L20.7784 15.3393L20.7768 15.3412C20.7222 15.4042 20.6443 15.5331 20.5801 15.705C20.5159 15.8768 20.49 16.0255 20.49 16.11V17.81C20.49 19.2842 19.2842 20.49 17.81 20.49H16.11C16.0316 20.49 15.8829 20.5154 15.7075 20.5805C15.5322 20.6457 15.4023 20.7238 15.3412 20.7768L15.3393 20.7784L13.7593 22.1384L13.7574 22.14C12.7848 22.9717 11.2439 22.9671 10.2667 22.1435L10.2607 22.1385L8.68073 20.7784L8.67881 20.7768C8.61579 20.7222 8.48687 20.6443 8.31501 20.5801C8.1432 20.5159 7.99447 20.49 7.91001 20.49H6.18001C4.70579 20.49 3.50001 19.2842 3.50001 17.81V16.1C3.50001 16.022 3.47489 15.8758 3.4104 15.7016C3.34694 15.5302 3.27009 15.3985 3.21552 15.3322L1.86589 13.7426C1.05137 12.7736 1.05138 11.2464 1.86589 10.2774L1.86828 10.2746L3.21551 8.68785C3.27009 8.62157 3.34694 8.48983 3.4104 8.3184C3.47489 8.14418 3.50001 7.99797 3.50001 7.92001V6.20001C3.50001 4.72579 4.70579 3.52001 6.18001 3.52001H7.91001C7.98846 3.52001 8.13716 3.49464 8.31252 3.42947C8.48779 3.36435 8.61768 3.28622 8.67881 3.23324L8.6828 3.22979L10.2628 1.8798C10.2629 1.87974 10.2627 1.87986 10.2628 1.8798ZM16.1498 9.04913C16.443 9.34172 16.4435 9.81659 16.1509 10.1098L11.3209 14.9498C11.1801 15.0909 10.9889 15.1701 10.7896 15.17C10.5903 15.1699 10.3992 15.0905 10.2586 14.9492L7.84858 12.5292C7.55629 12.2357 7.55728 11.7609 7.85078 11.4686C8.14428 11.1763 8.61915 11.1773 8.91144 11.4708L10.7906 13.3577L15.0891 9.05023C15.3817 8.75703 15.8566 8.75654 16.1498 9.04913Z" fill="#595854"/>
</svg>
