<svg width="24" height="24" viewBox="0 0 24 24" fill="none" xmlns="http://www.w3.org/2000/svg">
<path fill-rule="evenodd" clip-rule="evenodd" d="M2.56995 5.86C2.56995 3.32705 4.63447 1.25 7.17995 1.25H16.8199C19.3661 1.25 21.428 3.32697 21.4399 5.85646L21.44 5.86L21.4399 19.95C21.4399 21.0187 21.0529 21.9642 20.2281 22.45C19.403 22.9359 18.3892 22.8153 17.4558 22.2957M17.4558 22.2957L12.5692 19.582C12.4556 19.5174 12.2547 19.4625 12.0087 19.4625C11.7635 19.4625 11.557 19.5171 11.4352 19.585L6.55406 22.2957L6.5517 22.297C5.61743 22.8114 4.60483 22.9272 3.78184 22.4425C2.95828 21.9575 2.56995 21.0157 2.56995 19.95V5.86M7.17995 2.75C5.46542 2.75 4.06995 4.15295 4.06995 5.86V19.95C4.06995 20.6843 4.32662 21.0225 4.54305 21.15C4.75993 21.2777 5.18195 21.3385 5.82701 20.9837L5.82819 20.983L10.7046 18.275C11.1028 18.0531 11.5766 17.9625 12.0087 17.9625C12.4389 17.9625 12.9113 18.0521 13.307 18.276L18.1841 20.9843C18.8305 21.3444 19.2521 21.284 19.4668 21.1575C19.682 21.0308 19.9399 20.6913 19.9399 19.95V5.862C19.931 4.15219 18.5333 2.75 16.8199 2.75H7.17995ZM11.9999 7.46C12.4142 7.46 12.7499 7.79579 12.7499 8.21V9.9H14.4999C14.9142 9.9 15.2499 10.2358 15.2499 10.65C15.2499 11.0642 14.9142 11.4 14.4999 11.4H12.7499V13.21C12.7499 13.6242 12.4142 13.96 11.9999 13.96C11.5857 13.96 11.2499 13.6242 11.2499 13.21V11.4H9.49995C9.08573 11.4 8.74995 11.0642 8.74995 10.65C8.74995 10.2358 9.08573 9.9 9.49995 9.9H11.2499V8.21C11.2499 7.79579 11.5857 7.46 11.9999 7.46Z" fill="#595854"/>
</svg>
