<svg width="24" height="24" viewBox="0 0 24 24" fill="none" xmlns="http://www.w3.org/2000/svg">
<path fill-rule="evenodd" clip-rule="evenodd" d="M4.15533 4.15533C3.2398 5.07086 2.75 6.57397 2.75 9V15C2.75 17.426 3.2398 18.9291 4.15533 19.8447C5.07086 20.7602 6.57397 21.25 9 21.25H15C17.426 21.25 18.9291 20.7602 19.8447 19.8447C20.7602 18.9291 21.25 17.426 21.25 15V9C21.25 6.57397 20.7602 5.07086 19.8447 4.15533C18.9291 3.2398 17.426 2.75 15 2.75H9C6.57397 2.75 5.07086 3.2398 4.15533 4.15533ZM3.09467 3.09467C4.42914 1.7602 6.42603 1.25 9 1.25H15C17.574 1.25 19.5709 1.7602 20.9053 3.09467C22.2398 4.42914 22.75 6.42603 22.75 9V15C22.75 17.574 22.2398 19.5709 20.9053 20.9053C19.5709 22.2398 17.574 22.75 15 22.75H9C6.42603 22.75 4.42914 22.2398 3.09467 20.9053C1.7602 19.5709 1.25 17.574 1.25 15V9C1.25 6.42603 1.7602 4.42914 3.09467 3.09467ZM9 5.75C7.21421 5.75 5.75 7.21421 5.75 9V10.25H7.25V9C7.25 8.52956 7.41009 8.07925 7.74467 7.74467C8.07925 7.41009 8.52956 7.25 9 7.25H10.25V5.75H9ZM4.25 9C4.25 6.38579 6.38579 4.25 9 4.25H11C11.4142 4.25 11.75 4.58579 11.75 5V8C11.75 8.41421 11.4142 8.75 11 8.75H9C8.87044 8.75 8.82075 8.78991 8.80533 8.80533C8.78991 8.82075 8.75 8.87044 8.75 9V11C8.75 11.4142 8.41421 11.75 8 11.75H5C4.58579 11.75 4.25 11.4142 4.25 11V9ZM15.25 13C15.25 12.5858 15.5858 12.25 16 12.25H19C19.4142 12.25 19.75 12.5858 19.75 13V15C19.75 17.6142 17.6142 19.75 15 19.75H13C12.5858 19.75 12.25 19.4142 12.25 19V16C12.25 15.5858 12.5858 15.25 13 15.25H15C15.1296 15.25 15.1793 15.2101 15.1947 15.1947C15.2101 15.1793 15.25 15.1296 15.25 15V13ZM16.75 13.75V15C16.75 15.4704 16.5899 15.9207 16.2553 16.2553C15.9207 16.5899 15.4704 16.75 15 16.75H13.75V18.25H15C16.7858 18.25 18.25 16.7858 18.25 15V13.75H16.75Z" fill="#595854"/>
</svg>
