<svg width="24" height="24" viewBox="0 0 24 24" fill="none" xmlns="http://www.w3.org/2000/svg">
<path fill-rule="evenodd" clip-rule="evenodd" d="M3.40537 5.54416C5.36747 2.93689 8.48785 1.25 12 1.25C16.3829 1.25 20.1556 3.87698 21.8287 7.64133C21.8495 7.67958 21.8671 7.71966 21.8811 7.76117C22.4403 9.06197 22.75 10.495 22.75 12C22.75 17.9342 17.9342 22.75 12 22.75C11.613 22.75 11.2307 22.7295 10.8542 22.6896C10.8156 22.6883 10.777 22.684 10.7388 22.6767C5.39821 22.0517 1.25 17.5076 1.25 12C1.25 9.64274 2.0099 7.46196 3.29795 5.68941C3.32767 5.63708 3.36368 5.58824 3.40537 5.54416ZM3.78783 7.74106C3.1248 9.01603 2.75 10.4645 2.75 12C2.75 16.625 6.15054 20.4611 10.586 21.1424C11.8289 19.7198 12.8689 18.1386 13.6809 16.4442C13.1584 16.6419 12.5919 16.75 12 16.75C10.2596 16.75 8.73835 15.8149 7.91114 14.4196C6.18957 12.4253 4.79932 10.1672 3.78783 7.74106ZM7.3216 11.1734C6.28622 9.62504 5.43761 7.95447 4.79534 6.20048C6.49139 4.09667 9.08946 2.75 12 2.75C15.2577 2.75 18.1239 4.43708 19.7721 6.98458C17.1627 6.60663 14.5013 6.69534 11.9163 7.25072C9.61155 7.29048 7.70789 8.97013 7.3216 11.1734ZM9.22365 13.6911C9.20342 13.6464 9.17854 13.6032 9.14895 13.5621C8.89461 13.0986 8.75 12.5663 8.75 12C8.75 10.2042 10.2042 8.75 12 8.75C13.7958 8.75 15.25 10.2042 15.25 12C15.25 12.5659 15.1056 13.0979 14.8516 13.5611C14.823 13.6008 14.7979 13.6439 14.7771 13.6899C14.2067 14.6256 13.1767 15.25 12 15.25C10.8238 15.25 9.79415 14.6262 9.22365 13.6911ZM16.133 14.3434C15.3216 16.8421 14.0754 19.1761 12.4536 21.2391C17.349 21.0023 21.25 16.9537 21.25 12C21.25 10.8196 21.0285 9.69065 20.6249 8.65239C18.7705 8.2839 16.8771 8.17168 14.999 8.31573C16.0677 9.18657 16.75 10.5133 16.75 12C16.75 12.8523 16.5258 13.652 16.133 14.3434Z" fill="#595854"/>
</svg>
