<svg width="24" height="24" viewBox="0 0 24 24" fill="none" xmlns="http://www.w3.org/2000/svg">
<path fill-rule="evenodd" clip-rule="evenodd" d="M6.99999 3.75C6.75672 3.75 6.52596 3.76784 6.30704 3.80243C6.3 3.80354 6.29294 3.80455 6.28586 3.80547C5.18399 3.94747 4.31414 4.43214 3.71588 5.153C3.11503 5.87698 2.75 6.88611 2.75 8.13503V10.189C2.75 10.6033 2.41421 10.939 2 10.939C1.58579 10.939 1.25 10.6033 1.25 10.189V8.13503C1.25 6.5905 1.70497 5.22724 2.56162 4.19504C3.41877 3.16224 4.64006 2.50759 6.08358 2.31914C6.38131 2.27269 6.687 2.25 6.99999 2.25H16C16.27 2.25 16.5621 2.26002 16.8572 2.30884C18.313 2.48687 19.5481 3.1373 20.4167 4.17099C21.2864 5.20606 21.75 6.57846 21.75 8.13503L21.75 9.05627C22.3469 9.35053 22.75 9.96806 22.75 10.6717V12.7874C22.75 13.4911 22.3469 14.1086 21.75 14.4028L21.75 15.3241C21.75 17.0291 21.1938 18.5108 20.1623 19.5702C19.1291 20.6313 17.6765 21.2091 16 21.2091H13.5C13.0858 21.2091 12.75 20.8733 12.75 20.4591C12.75 20.0449 13.0858 19.7091 13.5 19.7091H16C17.3234 19.7091 18.3709 19.2599 19.0876 18.5238C19.8061 17.7859 20.25 16.7001 20.25 15.3241L20.25 14.5849H19.04C17.6128 14.5849 16.2599 13.5163 16.1328 11.9793C16.0533 11.1078 16.3757 10.2893 16.9423 9.71746C17.4522 9.18335 18.1557 8.87421 18.92 8.87421H20.25L20.25 8.13503C20.25 6.87761 19.8785 5.86221 19.2683 5.13596C18.6605 4.41265 17.7773 3.92935 16.661 3.79605C16.6485 3.79454 16.6359 3.79272 16.6234 3.79059C16.4451 3.76006 16.2441 3.75 16 3.75H6.99999ZM20.9819 10.3742H18.92C18.5676 10.3742 18.2539 10.5142 18.0243 10.7564L18.011 10.77C17.7427 11.0391 17.5881 11.4277 17.6268 11.8452L17.6276 11.8538C17.6827 12.5329 18.3085 13.0849 19.04 13.0849H20.9819C21.1273 13.0747 21.25 12.9525 21.25 12.7874V10.6717C21.25 10.5066 21.1273 10.3844 20.9819 10.3742ZM5.7316 11.7945C4.88352 12.2336 4.35156 13.0416 4.35156 13.8965V14.1134C4.38254 14.4019 4.47484 14.6696 4.61556 14.9115C5.04701 15.6292 5.98517 16.1659 7.16997 16.1659C8.35953 16.1659 9.29414 15.6361 9.72352 14.913C9.89945 14.6111 9.99999 14.2691 9.99999 13.8965C9.99999 13.2486 9.70855 12.6504 9.20232 12.2172L9.19293 12.2091C8.68044 11.7557 7.96738 11.4628 7.15997 11.4628C6.63075 11.4628 6.14553 11.584 5.7316 11.7945ZM10.0005 16.7862C9.22447 17.3562 8.22394 17.6659 7.16997 17.6659C6.11968 17.6659 5.12556 17.3544 4.35283 16.7913C4.39556 17.9751 5.51728 18.9906 7.18157 18.9906C8.84546 18.9906 9.96117 17.9745 10.0005 16.7862ZM2.85156 14.1826C2.84393 14.0885 2.84002 13.9931 2.84002 13.8965C2.84002 12.776 3.34962 11.7896 4.1287 11.0895C4.60685 10.6591 5.1856 10.3383 5.8254 10.1513C6.2558 10.0219 6.71266 9.95255 7.18157 9.95255C8.35416 9.95255 9.42108 10.3786 10.2086 11.0754L10.2129 11.0792C10.9942 11.7813 11.5016 12.7787 11.5016 13.8965V18.806C11.5016 21.0636 9.48447 22.75 7.18157 22.75C4.88154 22.75 2.85156 21.0661 2.85156 18.806V14.1826ZM9.77088 19.7678C9.03045 20.2346 8.12073 20.4906 7.18157 20.4906C6.23848 20.4906 5.32607 20.2346 4.58398 19.7676C5.00703 20.6128 5.97191 21.25 7.18157 21.25C8.38956 21.25 9.35025 20.6137 9.77088 19.7678Z" fill="#595854"/>
</svg>
