<svg width="24" height="24" viewBox="0 0 24 24" fill="none" xmlns="http://www.w3.org/2000/svg">
<path fill-rule="evenodd" clip-rule="evenodd" d="M6.5782 1.88191C3.8091 2.52434 1.75 5.00339 1.75 7.96997C1.75 8.38418 1.41421 8.71997 1 8.71997C0.585786 8.71997 0.25 8.38418 0.25 7.96997C0.25 3.68576 3.71579 0.219971 8 0.219971C8.2702 0.219971 8.51952 0.365315 8.65265 0.600446C8.78578 0.835578 8.78214 1.12414 8.64312 1.35584L7.59312 3.10584C7.38001 3.46103 6.91931 3.5762 6.56413 3.36309C6.20894 3.14998 6.09377 2.68928 6.30688 2.3341L6.5782 1.88191ZM15.5954 15.585C15.4614 19.2909 12.4188 22.25 8.68 22.25C4.85579 22.25 1.76 19.1542 1.76 15.33C1.76 11.5947 4.71357 8.55425 8.4146 8.41496C8.5486 4.70908 11.5912 1.75 15.33 1.75C19.1542 1.75 22.25 4.84577 22.25 8.66998C22.25 12.4053 19.2964 15.4458 15.5954 15.585ZM9.10937 9.92831C9.09463 9.92744 9.08027 9.92659 9.06624 9.92576C8.91304 9.91667 8.80009 9.90997 8.68 9.90997C5.68422 9.90997 3.26 12.3342 3.26 15.33C3.26 18.3258 5.68421 20.75 8.68 20.75C11.6758 20.75 14.1 18.3258 14.1 15.33C14.1 15.2586 14.0979 15.1898 14.0954 15.1117L14.095 15.1008C14.093 15.0374 14.0906 14.9651 14.0901 14.8907C13.8765 12.2444 11.7584 10.1324 9.10937 9.92831ZM15.4995 14.0874C18.4167 13.998 20.75 11.6091 20.75 8.66998C20.75 5.6742 18.3258 3.25 15.33 3.25C12.3909 3.25 10.002 5.58329 9.91259 8.50048C12.752 9.00849 14.9915 11.248 15.4995 14.0874ZM8.42 11.2C8.83421 11.2 9.17 11.5358 9.17 11.95V12.32H9.43C10.4853 12.32 11.31 13.2372 11.31 14.2C11.31 14.4863 11.2457 14.7587 11.1304 15.0028C11.5749 15.3317 11.88 15.8365 11.88 16.46C11.88 17.5837 10.8687 18.34 9.84 18.34H9.17V18.7C9.17 19.1142 8.83421 19.45 8.42 19.45C8.00578 19.45 7.67 19.1142 7.67 18.7V18.34H6.62C6.20579 18.34 5.87 18.0042 5.87 17.59V13.07C5.87 12.6558 6.20579 12.32 6.62 12.32H7.67V11.95C7.67 11.5358 8.00578 11.2 8.42 11.2ZM7.37 13.82V14.58H9.43C9.64147 14.58 9.81 14.4101 9.81 14.2C9.81 14.0228 9.61471 13.82 9.43 13.82H7.37ZM7.37 16.08V16.84H8.29716C8.33713 16.8334 8.37817 16.83 8.42 16.83C8.46183 16.83 8.50286 16.8334 8.54283 16.84H9.84C10.0164 16.84 10.1623 16.7765 10.2567 16.6937C10.3503 16.6116 10.38 16.5262 10.38 16.46C10.38 16.3867 10.3485 16.3027 10.2584 16.2241C10.1661 16.1436 10.0203 16.08 9.84 16.08H7.37ZM23 15.22C23.4142 15.22 23.75 15.5558 23.75 15.97C23.75 20.2542 20.2842 23.72 16 23.72C15.7298 23.72 15.4805 23.5746 15.3474 23.3395C15.2142 23.1044 15.2179 22.8158 15.3569 22.5841L16.4069 20.8341C16.62 20.4789 17.0807 20.3637 17.4359 20.5769C17.7911 20.79 17.9062 21.2507 17.6931 21.6058L17.4218 22.058C20.1909 21.4156 22.25 18.9365 22.25 15.97C22.25 15.5558 22.5858 15.22 23 15.22Z" fill="#595854"/>
</svg>
