<svg width="24" height="24" viewBox="0 0 24 24" fill="none" xmlns="http://www.w3.org/2000/svg">
<path fill-rule="evenodd" clip-rule="evenodd" d="M4.15533 4.15533C3.2398 5.07086 2.75 6.57397 2.75 9V15C2.75 16.9672 3.0749 18.3252 3.68068 19.2587L19.2587 3.68061C18.3311 3.07105 16.9716 2.75 15 2.75H9C6.57397 2.75 5.07086 3.2398 4.15533 4.15533ZM20.3354 2.60397C19.0271 1.62987 17.2339 1.25 15 1.25H9C6.42603 1.25 4.42914 1.7602 3.09467 3.09467C1.7602 4.42914 1.25 6.42603 1.25 9V15C1.25 17.24 1.63867 19.0277 2.60294 20.3364L1.46967 21.4697C1.17678 21.7626 1.17678 22.2374 1.46967 22.5303C1.76256 22.8232 2.23744 22.8232 2.53033 22.5303L22.5303 2.53033C22.8232 2.23744 22.8232 1.76256 22.5303 1.46967C22.2374 1.17678 21.7626 1.17678 21.4697 1.46967L20.3354 2.60397ZM8 6.75C7.30964 6.75 6.75 7.30964 6.75 8C6.75 8.69036 7.30964 9.25 8 9.25C8.69036 9.25 9.25 8.69036 9.25 8C9.25 7.30964 8.69036 6.75 8 6.75ZM5.25 8C5.25 6.48122 6.48122 5.25 8 5.25C9.51878 5.25 10.75 6.48122 10.75 8C10.75 9.51878 9.51878 10.75 8 10.75C6.48122 10.75 5.25 9.51878 5.25 8ZM21.9232 7.24146C22.3366 7.21562 22.6927 7.52981 22.7185 7.94322C22.7396 8.28034 22.75 8.63602 22.75 9V15C22.75 17.574 22.2398 19.5709 20.9053 20.9053C19.5709 22.2398 17.574 22.75 15 22.75H9C8.23513 22.75 7.51262 22.7088 6.84058 22.6004C6.43165 22.5345 6.15361 22.1495 6.21957 21.7406C6.28553 21.3316 6.6705 21.0536 7.07942 21.1196C7.64738 21.2112 8.28487 21.25 9 21.25H15C17.426 21.25 18.9291 20.7602 19.8447 19.8447C20.7602 18.9291 21.25 17.426 21.25 15V13.3593L19.8397 11.9403C19.8394 11.9401 19.8392 11.9398 19.8389 11.9396C19.3519 11.4534 18.5676 11.4535 18.0808 11.9399C18.0806 11.94 18.0809 11.9398 18.0808 11.9399L13.0509 16.9798C12.458 17.5727 11.4926 17.5732 10.8997 16.9803C10.6068 16.6874 10.6068 16.2126 10.8997 15.9197C11.1926 15.6268 11.6674 15.6268 11.9603 15.9197C11.9626 15.9219 11.9641 15.9227 11.9657 15.9234C11.9677 15.9242 11.971 15.925 11.975 15.925C11.9791 15.925 11.9823 15.9242 11.9843 15.9234C11.9859 15.9228 11.9874 15.9219 11.9895 15.9198C11.9895 15.9198 11.9896 15.9198 11.9895 15.9198L17.0191 10.8802C18.092 9.8073 19.8274 9.80678 20.9003 10.8797L20.902 10.8813L21.25 11.2315V9C21.25 8.66398 21.2404 8.33966 21.2215 8.03678C21.1956 7.62338 21.5098 7.2673 21.9232 7.24146Z" fill="#595854"/>
</svg>
