<svg width="24" height="24" viewBox="0 0 24 24" fill="none" xmlns="http://www.w3.org/2000/svg">
<path fill-rule="evenodd" clip-rule="evenodd" d="M8 1.25C8.41421 1.25 8.75 1.58579 8.75 2V2.75H15.25V2C15.25 1.58579 15.5858 1.25 16 1.25C16.4142 1.25 16.75 1.58579 16.75 2V2.80835C18.1785 2.96604 19.4152 3.38705 20.3065 4.37861C21.3291 5.51622 21.75 7.24345 21.75 9.65V16C21.75 16.1989 21.671 16.3897 21.5303 16.5303L15.5303 22.5303C15.3897 22.671 15.1989 22.75 15 22.75H9C6.42996 22.75 4.64561 22.2262 3.55341 20.9406C2.48827 19.6868 2.25 17.8908 2.25 15.82V9.65C2.25 7.24339 2.67087 5.51842 3.69382 4.38198C4.5852 3.3917 5.82197 2.97093 7.25 2.81014V2C7.25 1.58579 7.58579 1.25 8 1.25ZM7.25 4.32119C6.09847 4.47237 5.32927 4.80717 4.80868 5.38552C4.16413 6.10158 3.75 7.35661 3.75 9.65V15.82C3.75 17.8692 4.01173 19.1632 4.69659 19.9694C5.35439 20.7438 6.57004 21.25 9 21.25H14.25V19C14.25 17.8844 14.5294 16.9099 15.2197 16.2197C15.9099 15.5294 16.8844 15.25 18 15.25H20.25V9.65C20.25 7.35655 19.8359 6.09878 19.191 5.38139C18.6705 4.80233 17.9013 4.46735 16.75 4.31897V5C16.75 5.41421 16.4142 5.75 16 5.75C15.5858 5.75 15.25 5.41421 15.25 5V4.25H8.75V5C8.75 5.41421 8.41421 5.75 8 5.75C7.58579 5.75 7.25 5.41421 7.25 5V4.32119ZM19.1893 16.75H18C17.1156 16.75 16.5901 16.9706 16.2803 17.2803C15.9706 17.5901 15.75 18.1156 15.75 19V20.1893L19.1893 16.75ZM6.25 11C6.25 10.5858 6.58579 10.25 7 10.25H15C15.4142 10.25 15.75 10.5858 15.75 11C15.75 11.4142 15.4142 11.75 15 11.75H7C6.58579 11.75 6.25 11.4142 6.25 11ZM6.25 15C6.25 14.5858 6.58579 14.25 7 14.25H12C12.4142 14.25 12.75 14.5858 12.75 15C12.75 15.4142 12.4142 15.75 12 15.75H7C6.58579 15.75 6.25 15.4142 6.25 15Z" fill="#595854"/>
</svg>
