<svg width="24" height="24" viewBox="0 0 24 24" fill="none" xmlns="http://www.w3.org/2000/svg">
<path fill-rule="evenodd" clip-rule="evenodd" d="M3.09467 3.09467C4.42914 1.7602 6.42603 1.25 9 1.25H15C17.574 1.25 19.5709 1.7602 20.9053 3.09467C22.2398 4.42914 22.75 6.42603 22.75 9V15C22.75 16.9506 22.4585 18.5641 21.7401 19.8128C21.0045 21.0912 19.8665 21.9098 18.3484 22.3405C17.3785 22.6264 16.2632 22.75 15 22.75H9C7.7368 22.75 6.62145 22.6264 5.65163 22.3405C4.13348 21.9098 2.99547 21.0912 2.25993 19.8128C1.54148 18.5641 1.25 16.9506 1.25 15V9C1.25 6.42603 1.7602 4.42914 3.09467 3.09467ZM6.72205 21.0585C7.37539 21.1863 8.12961 21.25 9 21.25H15C15.8704 21.25 16.6246 21.1863 17.278 21.0585C16.7593 19.2324 14.6909 17.72 12 17.72C9.30909 17.72 7.24066 19.2324 6.72205 21.0585ZM18.7149 20.6155C19.4916 20.2603 20.0468 19.748 20.4399 19.0647C20.9715 18.1409 21.25 16.8294 21.25 15V9C21.25 6.57397 20.7602 5.07086 19.8447 4.15533C18.9291 3.2398 17.426 2.75 15 2.75H9C6.57397 2.75 5.07086 3.2398 4.15533 4.15533C3.2398 5.07086 2.75 6.57397 2.75 9V15C2.75 16.8294 3.02852 18.1409 3.56007 19.0647C3.95322 19.748 4.50844 20.2603 5.28506 20.6155C6.02949 18.0088 8.85826 16.22 12 16.22C15.1417 16.22 17.9705 18.0088 18.7149 20.6155ZM12 7.75C10.4342 7.75 9.17 9.01423 9.17 10.58C9.17 12.1485 10.4369 13.42 12 13.42C13.5631 13.42 14.83 12.1485 14.83 10.58C14.83 9.01423 13.5658 7.75 12 7.75ZM7.67 10.58C7.67 8.18581 9.60578 6.25 12 6.25C14.3942 6.25 16.33 8.18581 16.33 10.58C16.33 12.9715 14.3969 14.92 12 14.92C9.60307 14.92 7.67 12.9715 7.67 10.58Z" fill="#595854"/>
</svg>
