<svg width="24" height="24" viewBox="0 0 24 24" fill="none" xmlns="http://www.w3.org/2000/svg">
<path fill-rule="evenodd" clip-rule="evenodd" d="M3.28217 3.28224C2.97105 3.5926 2.75 4.11967 2.75 5.01001V8.92999C2.75 9.85715 2.97443 10.3968 3.28349 10.7066C3.58934 11.0132 4.11121 11.2279 5.00516 11.2102L5.02 11.21H8.94L8.95811 11.2102C9.88302 11.2326 10.413 11.0164 10.7147 10.7147C11.0163 10.413 11.2326 9.88302 11.2102 8.95811L11.21 8.94V5.02002L11.2102 5.00146C11.2324 4.10807 11.0193 3.58751 10.7147 3.28284C10.4064 2.97458 9.86749 2.75 8.94 2.75H5.02C4.12373 2.75 3.59364 2.97155 3.28217 3.28224ZM2.22283 2.22027C2.91636 1.52846 3.89628 1.25 5.02 1.25H8.94C10.0825 1.25 11.0786 1.52543 11.7753 2.22218C12.4737 2.92054 12.7362 3.90637 12.71 5.02901V8.93119C12.736 10.0724 12.4768 11.0739 11.7753 11.7753C11.0739 12.4768 10.0724 12.7361 8.93119 12.71H5.02722C3.90433 12.731 2.91909 12.4652 2.22151 11.7659C1.52557 11.0682 1.25 10.0728 1.25 8.92999V5.01001C1.25 3.89035 1.52896 2.91242 2.22283 2.22027ZM14.3474 1.63048C14.4805 1.39534 14.7298 1.25 15 1.25C19.2842 1.25 22.75 4.71579 22.75 9C22.75 9.41421 22.4142 9.75 22 9.75C21.5858 9.75 21.25 9.41421 21.25 9C21.25 6.03342 19.1909 3.55437 16.4218 2.91194L16.6931 3.36413C16.9062 3.71931 16.7911 4.18001 16.4359 4.39312C16.0807 4.60623 15.62 4.49106 15.4069 4.13587L14.3569 2.38587C14.2179 2.15417 14.2142 1.86561 14.3474 1.63048ZM8.11247 5.09998C8.07262 5.09343 8.03171 5.09003 7.99001 5.09003C7.9483 5.09003 7.90739 5.09343 7.86754 5.09998H7.71678C7.68147 4.71859 7.36061 4.41998 6.97 4.41998C6.57939 4.41998 6.25853 4.71859 6.22323 5.09998H4.95C4.53578 5.09998 4.2 5.43576 4.2 5.84998C4.2 6.26419 4.53578 6.59998 4.95 6.59998H7.12456C7.02692 6.91059 6.87118 7.19157 6.6721 7.43035C6.62224 7.47297 6.57924 7.52096 6.54331 7.57281C6.12426 8.00046 5.55407 8.26001 4.94 8.26001C4.52579 8.26001 4.19 8.5958 4.19 9.01001C4.19 9.42422 4.52579 9.76001 4.94 9.76001C5.75635 9.76001 6.50731 9.49583 7.12225 9.04894C7.64168 9.48527 8.28894 9.76001 9.00999 9.76001C9.42421 9.76001 9.75999 9.42422 9.75999 9.01001C9.75999 8.5958 9.42421 8.26001 9.00999 8.26001C8.71276 8.26001 8.41303 8.15488 8.14319 7.94646C8.3943 7.54085 8.57488 7.08551 8.66801 6.59998H9.00999C9.42421 6.59998 9.75999 6.26419 9.75999 5.84998C9.75999 5.43576 9.42421 5.09998 9.00999 5.09998H8.11247ZM16.92 12.59C14.5252 12.59 12.59 14.5332 12.59 16.92C12.59 19.3148 14.5333 21.25 16.92 21.25C19.3158 21.25 21.25 19.3158 21.25 16.92C21.25 14.5252 19.3068 12.59 16.92 12.59ZM11.09 16.92C11.09 13.7067 13.6948 11.09 16.92 11.09C20.1332 11.09 22.75 13.6948 22.75 16.92C22.75 20.1442 20.1442 22.75 16.92 22.75C13.7067 22.75 11.09 20.1452 11.09 16.92ZM16.92 13.65C17.2038 13.65 17.4633 13.8102 17.5905 14.064L19.2976 17.4703C19.3449 17.5354 19.3819 17.6085 19.4063 17.6872L19.7305 18.3339C19.9161 18.7043 19.7663 19.1549 19.396 19.3405C19.0257 19.5261 18.5751 19.3763 18.3895 19.006L18.2161 18.66H15.6239L15.4505 19.006C15.2649 19.3763 14.8143 19.5261 14.444 19.3405C14.0736 19.1549 13.9239 18.7043 14.1095 18.3339L16.2495 14.064C16.3767 13.8102 16.6362 13.65 16.92 13.65ZM16.3757 17.16H17.4643L16.92 16.0739L16.3757 17.16ZM2 14.25C2.41421 14.25 2.75 14.5858 2.75 15C2.75 17.9666 4.8091 20.4456 7.57819 21.0881L7.30688 20.6359C7.09377 20.2807 7.20894 19.82 7.56412 19.6069C7.91931 19.3938 8.38 19.5089 8.59312 19.8641L9.64312 21.6141C9.78214 21.8458 9.78578 22.1344 9.65265 22.3695C9.51952 22.6047 9.2702 22.75 9 22.75C4.71579 22.75 1.25 19.2842 1.25 15C1.25 14.5858 1.58579 14.25 2 14.25Z" fill="#595854"/>
</svg>
