<svg width="24" height="24" viewBox="0 0 24 24" fill="none" xmlns="http://www.w3.org/2000/svg">
<path fill-rule="evenodd" clip-rule="evenodd" d="M10.5511 3.55098C10.5507 3.55141 10.5502 3.55184 10.5498 3.55227L7.86036 6.25H16.8232C16.6906 5.91448 16.4853 5.60014 16.2053 5.32451L16.198 5.31737L14.4507 3.54996C13.3734 2.48301 11.628 2.48335 10.5511 3.55098ZM6.24108 5.74968C6.24093 5.74983 6.24122 5.74953 6.24108 5.74968L9.49026 2.49049L9.49302 2.48773C11.1555 0.837423 13.8473 0.837423 15.5098 2.48773L15.5148 2.49267L17.2613 4.25925C17.8776 4.86739 18.2673 5.61108 18.4251 6.40091C19.629 6.65552 20.6561 7.246 21.4103 8.12C22.2833 9.13163 22.75 10.4753 22.75 12V17C22.75 18.6704 22.1899 20.1207 21.1553 21.1553C20.1207 22.1899 18.6704 22.75 17 22.75H7C5.32956 22.75 3.87925 22.1899 2.84467 21.1553C1.81009 20.1207 1.25 18.6704 1.25 17V12C1.25 10.4871 1.70803 9.15239 2.56795 8.14349C3.3544 7.2208 4.44342 6.61047 5.72478 6.37343C5.8757 6.14658 6.05215 5.93865 6.24108 5.74968ZM6.26897 7.80599C5.16851 7.94724 4.303 8.42025 3.70955 9.11651C3.11197 9.81761 2.75 10.7929 2.75 12V17C2.75 18.3296 3.18991 19.3793 3.90533 20.0947C4.62075 20.8101 5.67044 21.25 7 21.25H17C18.3296 21.25 19.3793 20.8101 20.0947 20.0947C20.7646 19.4247 21.193 18.4616 21.2447 17.25H19C17.4858 17.25 16.25 16.0142 16.25 14.5C16.25 12.9858 17.4858 11.75 19 11.75H21.2447C21.1976 10.6496 20.8395 9.75448 20.2747 9.09999C19.6691 8.39822 18.7851 7.92541 17.6634 7.79497C17.6511 7.79354 17.6389 7.79181 17.6267 7.78978C17.4693 7.76355 17.2948 7.75277 17.0898 7.75048C17.0684 7.75024 17.0467 7.7501 17.0247 7.75003C17.017 7.75001 17.0092 7.75 17.0014 7.75M21.25 13.25H19C18.3142 13.25 17.75 13.8142 17.75 14.5C17.75 15.1858 18.3142 15.75 19 15.75H21.25V13.25ZM6.26897 7.80599C6.28113 7.80472 6.29329 7.80316 6.30545 7.80129C6.52538 7.76745 6.75715 7.75001 7.00141 7.75001" fill="#595854"/>
</svg>
