<svg width="24" height="24" viewBox="0 0 24 24" fill="none" xmlns="http://www.w3.org/2000/svg">
<path fill-rule="evenodd" clip-rule="evenodd" d="M11.5795 1.37895C11.7856 1.23943 12.0475 1.21121 12.2785 1.30364C13.6997 1.87212 15.3003 1.87212 16.7215 1.30364C16.9525 1.21121 17.2144 1.23943 17.4205 1.37895C17.6266 1.51847 17.75 1.75113 17.75 2V5C17.75 5.30668 17.5633 5.58246 17.2785 5.69636C15.8357 6.27349 14.2477 6.3825 12.75 6.02337V7.25H17C18.1156 7.25 19.0901 7.52941 19.7803 8.21967C20.4706 8.90993 20.75 9.88439 20.75 11V21.25H22C22.4142 21.25 22.75 21.5858 22.75 22C22.75 22.4142 22.4142 22.75 22 22.75H2C1.58579 22.75 1.25 22.4142 1.25 22C1.25 21.5858 1.58579 21.25 2 21.25H3.25V11C3.25 9.88439 3.52941 8.90993 4.21967 8.21967C4.90993 7.52941 5.88439 7.25 7 7.25H11.25V2C11.25 1.75113 11.3734 1.51847 11.5795 1.37895ZM7 8.75C6.11561 8.75 5.59007 8.97059 5.28033 9.28033C4.97059 9.59007 4.75 10.1156 4.75 11V11.25H19.25V11C19.25 10.1156 19.0294 9.59007 18.7197 9.28033C18.4099 8.97059 17.8844 8.75 17 8.75H7ZM19.25 12.75H16.74V21.25H19.25V12.75ZM15.24 21.25V12.75H12.74V21.25H15.24ZM11.24 21.25V12.75H8.74V21.25H11.24ZM7.24 21.25V12.75H4.75V21.25H7.24ZM12.75 4.46952C13.8881 4.81683 15.1119 4.81683 16.25 4.46952V3.02337C15.1011 3.29888 13.8989 3.29888 12.75 3.02337V4.46952Z" fill="#595854"/>
</svg>
