<svg width="24" height="24" viewBox="0 0 24 24" fill="none" xmlns="http://www.w3.org/2000/svg">
<path fill-rule="evenodd" clip-rule="evenodd" d="M11.4837 1.26896C12.5191 1.24468 13.5961 1.50775 14.4501 2.10558L20.6288 6.43471C20.6286 6.43455 20.6291 6.43486 20.6288 6.43471C21.2484 6.86675 21.7707 7.53286 22.1361 8.23294C22.5017 8.93333 22.75 9.7428 22.75 10.5V17.78C22.75 20.5031 20.5254 22.74 17.79 22.74H6.21C3.47347 22.74 1.25 20.5019 1.25 17.77V10.36C1.25 9.64953 1.47441 8.88052 1.80418 8.20839C2.134 7.53618 2.60552 6.88685 3.16901 6.4484L8.55901 2.2484C9.38375 1.60695 10.4482 1.29324 11.4837 1.26896ZM9.48046 3.43202C9.48037 3.43209 9.48054 3.43195 9.48046 3.43202L4.09099 7.63161C3.75471 7.89315 3.4109 8.33904 3.15082 8.86912C2.89059 9.39949 2.75 9.94048 2.75 10.36V17.77C2.75 19.6781 4.30653 21.24 6.21 21.24H17.79C19.6946 21.24 21.25 19.677 21.25 17.78V10.5C21.25 10.0472 21.0933 9.47668 20.8064 8.92707C20.5195 8.3774 20.1413 7.92327 19.7712 7.6653L19.7696 7.66424L13.5899 3.33443C13.5898 3.33437 13.59 3.33449 13.5899 3.33443C13.044 2.95238 12.2958 2.75033 11.5188 2.76855C10.7419 2.78677 10.0057 3.0236 9.48046 3.43202ZM12 14.24C12.4142 14.24 12.75 14.5758 12.75 14.99V17.99C12.75 18.4042 12.4142 18.74 12 18.74C11.5858 18.74 11.25 18.4042 11.25 17.99V14.99C11.25 14.5758 11.5858 14.24 12 14.24Z" fill="#595854"/>
</svg>
