<svg width="24" height="24" viewBox="0 0 24 24" fill="none" xmlns="http://www.w3.org/2000/svg">
<path fill-rule="evenodd" clip-rule="evenodd" d="M12 1.25C12.4142 1.25 12.75 1.58579 12.75 2V4.5H15.4C16.2349 4.5 17.0134 4.6751 17.5588 5.25485C18.0933 5.82309 18.25 6.61968 18.25 7.48V8.52C18.25 9.38032 18.0933 10.1769 17.5588 10.7452C17.0134 11.3249 16.2349 11.5 15.4 11.5H12.75V13H17.4C18.2349 13 19.0134 13.1751 19.5588 13.7548C20.0933 14.3231 20.25 15.1197 20.25 15.98V17.02C20.25 17.8803 20.0933 18.6769 19.5588 19.2452C19.0134 19.8249 18.2349 20 17.4 20H12.75V22C12.75 22.4142 12.4142 22.75 12 22.75C11.5858 22.75 11.25 22.4142 11.25 22V20H6.6C5.76514 20 4.98664 19.8249 4.44124 19.2452C3.90666 18.6769 3.75 17.8803 3.75 17.02V15.98C3.75 15.1197 3.90666 14.3231 4.44124 13.7548C4.98664 13.1751 5.76514 13 6.6 13H11.25V11.5H8.6C7.76514 11.5 6.98664 11.3249 6.44124 10.7452C5.90666 10.1769 5.75 9.38032 5.75 8.52V7.48C5.75 6.61968 5.90666 5.82309 6.44124 5.25485C6.98664 4.6751 7.76514 4.5 8.6 4.5H11.25V2C11.25 1.58579 11.5858 1.25 12 1.25ZM7.53376 6.28265C7.39334 6.43191 7.25 6.75032 7.25 7.48V8.52C7.25 9.24969 7.39334 9.56809 7.53376 9.71735C7.66336 9.8551 7.93486 10 8.6 10H15.4C16.0651 10 16.3366 9.8551 16.4662 9.71735C16.6067 9.56809 16.75 9.24969 16.75 8.52V7.48C16.75 6.75032 16.6067 6.43191 16.4662 6.28265C16.3366 6.1449 16.0651 6 15.4 6H8.6C7.93486 6 7.66336 6.1449 7.53376 6.28265ZM5.53376 14.7827C5.39334 14.9319 5.25 15.2503 5.25 15.98V17.02C5.25 17.7497 5.39334 18.0681 5.53376 18.2173C5.66336 18.3551 5.93486 18.5 6.6 18.5H17.4C18.0651 18.5 18.3366 18.3551 18.4662 18.2173C18.6067 18.0681 18.75 17.7497 18.75 17.02V15.98C18.75 15.2503 18.6067 14.9319 18.4662 14.7827C18.3366 14.6449 18.0651 14.5 17.4 14.5H6.6C5.93486 14.5 5.66336 14.6449 5.53376 14.7827Z" fill="#595854"/>
</svg>
