<svg width="24" height="24" viewBox="0 0 24 24" fill="none" xmlns="http://www.w3.org/2000/svg">
<path fill-rule="evenodd" clip-rule="evenodd" d="M3.09467 3.09467C4.42914 1.7602 6.42603 1.25 9 1.25H15C17.574 1.25 19.5709 1.7602 20.9053 3.09467C22.2398 4.42914 22.75 6.42603 22.75 9V15C22.75 17.574 22.2398 19.5709 20.9053 20.9053C19.5709 22.2398 17.574 22.75 15 22.75H9C6.42603 22.75 4.42914 22.2398 3.09467 20.9053C1.7602 19.5709 1.25 17.574 1.25 15V9C1.25 6.42603 1.7602 4.42914 3.09467 3.09467ZM4.15533 4.15533C3.2398 5.07086 2.75 6.57397 2.75 9V15C2.75 17.426 3.2398 18.9291 4.15533 19.8447C5.07086 20.7602 6.57397 21.25 9 21.25H15C17.426 21.25 18.9291 20.7602 19.8447 19.8447C20.7602 18.9291 21.25 17.426 21.25 15V9C21.25 6.57397 20.7602 5.07086 19.8447 4.15533C18.9291 3.2398 17.426 2.75 15 2.75H9C6.57397 2.75 5.07086 3.2398 4.15533 4.15533ZM8.11504 8.03476C9.15586 7.05176 10.5507 6.5 12 6.5C13.4577 6.5 14.8547 7.0508 15.888 8.03764C16.9217 9.02485 17.51 10.369 17.51 11.78C17.51 13.1311 16.9975 14.4381 16.0778 15.4613L16.0761 15.4632L15.5903 16H17C17.4142 16 17.75 16.3358 17.75 16.75C17.75 17.1642 17.4142 17.5 17 17.5H13.9C13.6035 17.5 13.3348 17.3253 13.2145 17.0542C13.0942 16.7831 13.1449 16.4666 13.3439 16.2467L14.9622 14.4586C14.9625 14.4583 14.9628 14.4579 14.9631 14.4576C15.6428 13.701 16.01 12.7486 16.01 11.78C16.01 10.7911 15.5983 9.83518 14.852 9.1224C14.1053 8.40924 13.0823 8 12 8C10.93 8 9.90552 8.40773 9.1465 9.12384C8.40112 9.83647 7.98999 10.7917 7.98999 11.78C7.98999 12.7605 8.35843 13.7113 9.03494 14.4555L9.03607 14.4567L10.6561 16.2467C10.8551 16.4666 10.9058 16.7831 10.7855 17.0542C10.6652 17.3253 10.3965 17.5 10.1 17.5H7C6.58579 17.5 6.25 17.1642 6.25 16.75C6.25 16.3358 6.58579 16 7 16H8.40968L7.92503 15.4645C7.92477 15.4642 7.92451 15.4639 7.92425 15.4636C7.00125 14.4479 6.48999 13.1392 6.48999 11.78C6.48999 10.369 7.07833 9.02485 8.112 8.03764L8.11503 8.03475L8.11504 8.03476Z" fill="#595854"/>
</svg>
