<svg width="24" height="24" viewBox="0 0 24 24" fill="none" xmlns="http://www.w3.org/2000/svg">
<path fill-rule="evenodd" clip-rule="evenodd" d="M3.09467 3.09467C4.42914 1.7602 6.42603 1.25 9 1.25H15C17.574 1.25 19.5709 1.7602 20.9053 3.09467C22.2398 4.42914 22.75 6.42603 22.75 9V15C22.75 17.574 22.2398 19.5709 20.9053 20.9053C19.5709 22.2398 17.574 22.75 15 22.75H9C6.42603 22.75 4.42914 22.2398 3.09467 20.9053C1.7602 19.5709 1.25 17.574 1.25 15V9C1.25 6.42603 1.7602 4.42914 3.09467 3.09467ZM4.15533 4.15533C3.2398 5.07086 2.75 6.57397 2.75 9V15C2.75 17.426 3.2398 18.9291 4.15533 19.8447C5.07086 20.7602 6.57397 21.25 9 21.25H15C17.426 21.25 18.9291 20.7602 19.8447 19.8447C20.7602 18.9291 21.25 17.426 21.25 15V9C21.25 6.57397 20.7602 5.07086 19.8447 4.15533C18.9291 3.2398 17.426 2.75 15 2.75H9C6.57397 2.75 5.07086 3.2398 4.15533 4.15533ZM8.43 4.75C8.84421 4.75 9.18 5.08579 9.18 5.5V9.4C9.18 9.81421 8.84421 10.15 8.43 10.15C8.01579 10.15 7.68 9.81421 7.68 9.4V5.5C7.68 5.08579 8.01579 4.75 8.43 4.75ZM15.57 4.75C15.9842 4.75 16.32 5.08579 16.32 5.5V6.78428C17.8091 7.12485 18.92 8.45769 18.92 10.05C18.92 11.9002 17.4202 13.4 15.57 13.4C13.7198 13.4 12.22 11.9002 12.22 10.05C12.22 8.45769 13.3309 7.12485 14.82 6.78428V5.5C14.82 5.08579 15.1558 4.75 15.57 4.75ZM15.57 8.2C14.5483 8.2 13.72 9.02827 13.72 10.05C13.72 11.0717 14.5483 11.9 15.57 11.9C16.5917 11.9 17.42 11.0717 17.42 10.05C17.42 9.02827 16.5917 8.2 15.57 8.2ZM8.43 12.1C7.40827 12.1 6.58 12.9283 6.58 13.95C6.58 14.9717 7.40827 15.8 8.43 15.8C9.45173 15.8 10.28 14.9717 10.28 13.95C10.28 12.9283 9.45173 12.1 8.43 12.1ZM5.08 13.95C5.08 12.0998 6.57985 10.6 8.43 10.6C10.2802 10.6 11.78 12.0998 11.78 13.95C11.78 15.5423 10.6691 16.8752 9.18 17.2157V18.5C9.18 18.9142 8.84421 19.25 8.43 19.25C8.01579 19.25 7.68 18.9142 7.68 18.5V17.2157C6.19093 16.8752 5.08 15.5423 5.08 13.95ZM15.57 13.85C15.9842 13.85 16.32 14.1858 16.32 14.6V18.5C16.32 18.9142 15.9842 19.25 15.57 19.25C15.1558 19.25 14.82 18.9142 14.82 18.5V14.6C14.82 14.1858 15.1558 13.85 15.57 13.85Z" fill="#595854"/>
</svg>
