<svg width="24" height="24" viewBox="0 0 24 24" fill="none" xmlns="http://www.w3.org/2000/svg">
<path fill-rule="evenodd" clip-rule="evenodd" d="M3.91689 3.9555C3.1963 4.70858 2.75 5.81857 2.75 7.22542V13.4048C3.42026 13.0311 4.18711 12.8191 5 12.8191C5.02804 12.8191 5.05603 12.8194 5.08397 12.8199C7.69907 12.8664 9.75 15.0855 9.75 17.7494C9.75 17.8238 9.74841 17.8978 9.74525 17.9714H11C11.1535 17.9714 11.3032 18.0184 11.4291 18.1062L15.8788 21.2099C15.8789 21.21 15.879 21.2101 15.8791 21.2102C15.9523 21.261 16.0275 21.2623 16.1034 21.2194C16.1822 21.1749 16.25 21.0847 16.25 20.9474V18.7214C16.25 18.3071 16.5858 17.9714 17 17.9714C18.32 17.9714 19.3658 17.5155 20.0781 16.7711C20.8041 16.0124 21.25 14.9022 21.25 13.4959V7.22542C21.25 5.81857 20.8037 4.70858 20.0831 3.9555C19.3654 3.2054 18.3194 2.75 17 2.75H7C5.68065 2.75 4.63463 3.2054 3.91689 3.9555ZM6.93081 14.9904C7.10008 15.124 7.25595 15.2751 7.39577 15.4415L7.39572 15.4416L7.40207 15.4489C7.92751 16.0581 8.25 16.8677 8.25 17.7494C8.25 18.0234 8.21731 18.285 8.15329 18.5359C8.14224 18.5792 8.13517 18.6231 8.13198 18.6669C7.95851 19.3247 7.60366 19.8991 7.13328 20.3318C6.54949 20.8641 5.80658 21.1798 5 21.1798C3.23504 21.1798 1.75 19.6764 1.75 17.7494C1.75 16.6544 2.23165 15.6856 2.97875 15.0661L2.98004 15.065C3.54498 14.5944 4.24765 14.3191 5 14.3191C5.71665 14.3191 6.38714 14.567 6.93081 14.9904ZM1.32899 14.6189C0.649389 15.4739 0.25 16.5688 0.25 17.7494C0.25 20.4418 2.34496 22.6798 5 22.6798C6.21289 22.6798 7.30955 22.2017 8.14559 21.4387L8.14756 21.4369C8.7238 20.9072 9.17599 20.2342 9.45104 19.4714H10.7643L15.0209 22.4404L15.0213 22.4407C16.2373 23.2879 17.75 22.3166 17.75 20.9474V19.4309C19.1124 19.281 20.2905 18.7188 21.1619 17.8081C22.1959 16.7274 22.75 15.2249 22.75 13.4959V7.22542C22.75 5.49702 22.1963 3.9943 21.1669 2.91848C20.1346 1.83968 18.6806 1.25 17 1.25H7C5.31935 1.25 3.86537 1.83968 2.83311 2.91848C1.8037 3.9943 1.25 5.49702 1.25 7.22542V13.4959C1.25 13.8767 1.27405 14.2532 1.32899 14.6189ZM7.75 10.4338C7.75 10.0196 8.08579 9.68384 8.5 9.68384H15.5C15.9142 9.68384 16.25 10.0196 16.25 10.4338C16.25 10.8481 15.9142 11.1838 15.5 11.1838H8.5C8.08579 11.1838 7.75 10.8481 7.75 10.4338ZM5.25 15.6931C5.66421 15.6931 6 16.0289 6 16.4431V18.0107C6 18.2689 5.86719 18.509 5.64844 18.6461L4.39844 19.4299C4.04751 19.65 3.58464 19.5439 3.36459 19.193C3.14454 18.842 3.25064 18.3792 3.60156 18.1591L4.5 17.5957V16.4431C4.5 16.0289 4.83579 15.6931 5.25 15.6931Z" fill="#595854"/>
</svg>
