<svg width="24" height="24" viewBox="0 0 24 24" fill="none" xmlns="http://www.w3.org/2000/svg">
<path fill-rule="evenodd" clip-rule="evenodd" d="M18.1926 3.15184C18.1924 3.15221 18.1922 3.15257 18.192 3.15294L17.9108 3.72541C17.7756 3.99582 17.5614 4.21769 17.35 4.37624C17.1398 4.5339 16.8648 4.67954 16.5633 4.7298L16.557 4.73085L16.1804 4.79028C15.8586 4.8444 15.7665 4.94113 15.7464 4.96846C15.7467 5.00232 15.7639 5.13982 16.002 5.38139C16.0025 5.38189 16.003 5.38239 16.0035 5.38289L16.3503 5.72965L16.3615 5.74106C16.5829 5.97215 16.7228 6.26677 16.799 6.53526C16.875 6.80321 16.911 7.12766 16.8427 7.44027L16.8397 7.45369L16.7906 7.65942C16.7905 7.66007 16.7903 7.66071 16.7902 7.66136C16.7255 7.941 16.7274 8.12475 16.7459 8.22683C16.7478 8.23751 16.7498 8.24679 16.7518 8.2548C16.7585 8.25426 16.766 8.25348 16.7744 8.25238C16.8738 8.23941 17.047 8.18594 17.2926 8.03781L17.3052 8.03034L17.5634 7.8814C17.5639 7.88114 17.5643 7.88088 17.5648 7.88061C17.8602 7.70949 18.1999 7.64499 18.5 7.64499C18.8003 7.64499 19.1402 7.70956 19.4357 7.88086C19.436 7.88104 19.4363 7.88122 19.4366 7.8814L19.7059 8.03677C19.9489 8.18257 20.1203 8.2353 20.219 8.24804C20.2279 8.24919 20.2358 8.24998 20.2428 8.25052C20.245 8.2422 20.2471 8.23247 20.2493 8.22116C20.2683 8.11973 20.2713 7.93722 20.2092 7.65882L20.1572 7.44029C20.0888 7.12769 20.125 6.80321 20.201 6.53526C20.2772 6.26677 20.417 5.97215 20.6385 5.74106L20.6497 5.72965L20.9965 5.38289C20.997 5.38239 20.9974 5.38189 20.9979 5.38139C21.2361 5.13981 21.2533 5.00232 21.2536 4.96846C21.2335 4.94113 21.1414 4.8444 20.8196 4.79029C20.8187 4.79012 20.8177 4.78996 20.8167 4.78979L20.443 4.73082C20.4345 4.72948 20.426 4.72798 20.4175 4.72634C20.1272 4.67016 19.8596 4.53202 19.6471 4.37312C19.4352 4.21469 19.224 3.99497 19.0892 3.7254L19.0868 3.72068L18.808 3.15294C18.8078 3.15257 18.8076 3.15221 18.8074 3.15184C18.7063 2.94797 18.6103 2.83911 18.5475 2.78783C18.5255 2.76983 18.5097 2.76041 18.5 2.75565C18.4903 2.76041 18.4745 2.76983 18.4524 2.78783C18.3896 2.83911 18.2937 2.94797 18.1926 3.15184ZM18.5 1.2525C19.276 1.2525 19.8299 1.83677 20.1521 2.48706L20.1532 2.48932L20.4308 3.05458C20.4306 3.0542 20.4308 3.05457 20.4308 3.05458C20.4311 3.0551 20.4319 3.05651 20.4326 3.05772C20.4339 3.05983 20.4357 3.0628 20.4383 3.06656C20.4436 3.07422 20.4513 3.08418 20.4617 3.09593C20.483 3.11994 20.5114 3.14646 20.5454 3.17188C20.6139 3.2231 20.6718 3.24578 20.6964 3.25225L21.0633 3.31018C21.7685 3.42771 22.4553 3.7925 22.6846 4.51238C22.9131 5.22974 22.5678 5.92666 22.0635 6.43711L22.0603 6.44034L21.7199 6.78074C21.7183 6.7826 21.7157 6.78591 21.7122 6.79093C21.7062 6.79947 21.6986 6.81145 21.6903 6.8271C21.6734 6.85911 21.6568 6.89952 21.644 6.94472C21.6312 6.98995 21.6242 7.03253 21.6219 7.06772C21.62 7.09698 21.6218 7.11364 21.6225 7.11838L21.6718 7.32561C21.8409 8.07843 21.8183 8.98069 21.1392 9.47771C20.4582 9.97612 19.5962 9.71883 18.9399 9.32658L18.6852 9.17965L18.6834 9.17859C18.6691 9.1703 18.6044 9.14499 18.5 9.14499C18.3956 9.14499 18.3309 9.1703 18.3166 9.17859L18.3148 9.17965L18.0608 9.32614C17.4006 9.72272 16.5341 9.98264 15.8516 9.48023C15.1714 8.97952 15.1549 8.07281 15.3294 7.32058L15.3304 7.31633L15.3775 7.11839C15.3781 7.11366 15.38 7.097 15.3781 7.06772C15.3758 7.03253 15.3688 6.98995 15.356 6.94472C15.3431 6.89952 15.3266 6.85911 15.3096 6.8271C15.3013 6.81145 15.2938 6.79947 15.2878 6.79093C15.2843 6.78591 15.2816 6.78259 15.2801 6.78074L14.9365 6.43711C14.4322 5.92667 14.0869 5.22974 14.3154 4.51238C14.5447 3.7925 15.2315 3.42774 15.9367 3.3102L15.943 3.30915L16.3155 3.25037C16.3175 3.2498 16.3302 3.24639 16.3528 3.23577C16.3812 3.22246 16.4151 3.20245 16.45 3.17626C16.4848 3.15011 16.5147 3.12232 16.5373 3.09691C16.5483 3.08449 16.5564 3.074 16.5619 3.06603C16.5662 3.05989 16.5683 3.05612 16.569 3.05493L16.8468 2.48932L16.8479 2.48706C17.1701 1.83677 17.724 1.2525 18.5 1.2525ZM3.88534 5.2371C3.20538 5.86848 2.75 6.89295 2.75 8.5V15.5C2.75 17.107 3.20538 18.1315 3.88534 18.7629C4.57535 19.4036 5.61497 19.75 7 19.75H17C18.385 19.75 19.4246 19.4036 20.1147 18.7629C20.7946 18.1315 21.25 17.107 21.25 15.5V11.5C21.25 11.0858 21.5858 10.75 22 10.75C22.4142 10.75 22.75 11.0858 22.75 11.5V15.5C22.75 17.393 22.2054 18.8685 21.1353 19.8621C20.0754 20.8464 18.615 21.25 17 21.25H7C5.38503 21.25 3.92465 20.8464 2.86466 19.8621C1.79462 18.8685 1.25 17.393 1.25 15.5V8.5C1.25 6.60705 1.79462 5.13152 2.86466 4.1379C3.92465 3.15363 5.38503 2.75 7 2.75H12C12.4142 2.75 12.75 3.08579 12.75 3.5C12.75 3.91421 12.4142 4.25 12 4.25H7C5.61497 4.25 4.57535 4.59637 3.88534 5.2371ZM6.41398 8.53194C6.67249 8.20829 7.14442 8.15548 7.46806 8.41398L10.5971 10.9132C10.597 10.9132 10.5972 10.9133 10.5971 10.9132C11.3538 11.5153 12.6564 11.5155 13.4129 10.9132C13.7369 10.6552 14.2088 10.7088 14.4668 11.0329C14.7248 11.3569 14.6712 11.8288 14.3471 12.0868C13.0437 13.1244 10.9663 13.1244 9.66287 12.0868L6.53194 9.58602C6.20829 9.32751 6.15548 8.85558 6.41398 8.53194Z" fill="#595854"/>
</svg>
