<svg width="24" height="24" viewBox="0 0 24 24" fill="none" xmlns="http://www.w3.org/2000/svg">
<path fill-rule="evenodd" clip-rule="evenodd" d="M12 2.75C6.89421 2.75 2.75 6.89421 2.75 12C2.75 17.1058 6.89421 21.25 12 21.25C12.9165 21.25 13.8009 21.1145 14.6341 20.8634C14.3856 20.2891 14.25 19.6566 14.25 19C14.25 17.5059 14.9386 16.162 16.0328 15.2933C16.8487 14.6431 17.8817 14.25 19 14.25C19.6639 14.25 20.2958 14.3861 20.8696 14.6318C21.1188 13.7987 21.25 12.9138 21.25 12C21.25 6.89421 17.1058 2.75 12 2.75ZM22.1761 15.4674C22.5526 14.3754 22.75 13.2058 22.75 12C22.75 6.06579 17.9342 1.25 12 1.25C6.06579 1.25 1.25 6.06579 1.25 12C1.25 17.9342 6.06579 22.75 12 22.75C13.2134 22.75 14.3809 22.5456 15.4679 22.1699C16.3312 23.1383 17.5918 23.75 19 23.75C20.1927 23.75 21.2871 23.3134 22.122 22.5662C22.4925 22.2534 22.8131 21.8725 23.0632 21.4459C23.5023 20.7305 23.75 19.8874 23.75 19C23.75 17.5971 23.1425 16.3367 22.1761 15.4674ZM19 15.75C19.678 15.75 20.3205 15.9679 20.8531 16.3366C20.8763 16.3527 20.9003 16.3674 20.925 16.3806C21.7287 16.9721 22.25 17.9248 22.25 19C22.25 19.6094 22.0795 20.1833 21.7816 20.6663L21.7722 20.6821C21.6052 20.9684 21.391 21.2216 21.148 21.4254C21.1414 21.431 21.1348 21.4367 21.1283 21.4425C20.5645 21.9499 19.8227 22.25 19 22.25C17.9355 22.25 16.9968 21.7405 16.4109 20.9555C16.3822 20.8935 16.3449 20.835 16.2995 20.7819C16.2755 20.754 16.2577 20.7299 16.2447 20.7099C16.2379 20.6988 16.2312 20.6877 16.2246 20.6766L16.2184 20.6663C15.9205 20.1833 15.75 19.6094 15.75 19C15.75 17.9745 16.221 17.0588 16.9662 16.4675L16.9675 16.4665C17.5316 16.0169 18.2385 15.75 19 15.75ZM10.5526 9.50624C10.3719 9.61106 10.13 9.91094 10.13 10.61V13.36C10.13 14.0657 10.3729 14.3637 10.5514 14.4668C10.73 14.57 11.1084 14.6306 11.7151 14.2805L14.1151 12.9004C14.115 12.9005 14.1152 12.9004 14.1151 12.9004C14.7202 12.5511 14.8575 12.1925 14.8575 11.985C14.8575 11.7776 14.7206 11.4193 14.1157 11.0699C14.1155 11.0698 14.1159 11.07 14.1157 11.0699L11.7151 9.68957C11.1105 9.34061 10.7323 9.40197 10.5526 9.50624ZM12.4642 8.39005C11.579 7.87933 10.6025 7.74317 9.79988 8.20878C8.99806 8.67397 8.63 9.58909 8.63 10.61V13.36C8.63 14.3843 8.99714 15.3013 9.80112 15.7657C10.6048 16.2299 11.5813 16.0895 12.4645 15.5798C12.4644 15.5799 12.4647 15.5797 12.4645 15.5798L14.8649 14.1996C15.7495 13.689 16.3575 12.9125 16.3575 11.985C16.3575 11.0575 15.7495 10.281 14.8649 9.77044L12.4642 8.39005C12.4645 8.39018 12.464 8.38992 12.4642 8.39005ZM19 16.77C19.4142 16.77 19.75 17.1058 19.75 17.52V18.23H20.49C20.9042 18.23 21.24 18.5658 21.24 18.98C21.24 19.3942 20.9042 19.73 20.49 19.73H19.75V20.51C19.75 20.9242 19.4142 21.26 19 21.26C18.5858 21.26 18.25 20.9242 18.25 20.51V19.73H17.51C17.0958 19.73 16.76 19.3942 16.76 18.98C16.76 18.5658 17.0958 18.23 17.51 18.23H18.25V17.52C18.25 17.1058 18.5858 16.77 19 16.77Z" fill="#595854"/>
</svg>
