<svg width="24" height="24" viewBox="0 0 24 24" fill="none" xmlns="http://www.w3.org/2000/svg">
<path fill-rule="evenodd" clip-rule="evenodd" d="M9.21783 3.21783C8.93992 3.49575 8.75 3.92044 8.75 4.5V5.75H15.25V4.5C15.25 3.92044 15.0601 3.49575 14.7822 3.21783C14.5043 2.93991 14.0796 2.75 13.5 2.75H10.5C9.92044 2.75 9.49575 2.93991 9.21783 3.21783ZM16.75 5.81737V4.5C16.75 3.57956 16.4399 2.75425 15.8428 2.15717C15.2457 1.56009 14.4204 1.25 13.5 1.25H10.5C9.57957 1.25 8.75426 1.56009 8.15717 2.15717C7.56009 2.75425 7.25 3.57956 7.25 4.5V5.81737C6.07039 5.96814 5.22528 6.37395 4.65318 7.05516C3.95039 7.89197 3.80183 9.00186 3.69506 9.94306L2.79551 17.4392C2.79548 17.4395 2.79554 17.439 2.79551 17.4392C2.63707 18.7393 2.7325 20.0913 3.49046 21.1297C4.27453 22.2038 5.6191 22.75 7.51 22.75H16.5C18.3869 22.75 19.7284 22.2032 20.512 21.1297C21.2693 20.0922 21.3681 18.7419 21.2148 17.4422L21.1558 16.9504C21.1551 16.9432 21.1542 16.9361 21.1533 16.9291L20.3148 9.9417C20.3148 9.94142 20.3148 9.94198 20.3148 9.9417C20.2033 9.0013 20.0514 7.89061 19.3475 7.0545C18.7746 6.3739 17.9297 5.96813 16.75 5.81737ZM15.25 7.25V8C15.25 8.41421 15.5858 8.75 16 8.75C16.4142 8.75 16.75 8.41421 16.75 8V7.33237C17.5515 7.46425 17.9613 7.73694 18.2 8.0205C18.5735 8.46414 18.7067 9.11887 18.8252 10.1183L19.5646 16.28H8C7.58579 16.28 7.25 16.6158 7.25 17.03C7.25 17.4442 7.58579 17.78 8 17.78H19.7427C19.8485 18.8608 19.7057 19.6902 19.3005 20.2453C18.9016 20.7918 18.1131 21.25 16.5 21.25H7.51C5.8909 21.25 5.10047 20.7912 4.70203 20.2453C4.27764 19.6639 4.14306 18.7805 4.28448 17.6208L5.18466 10.1194L5.18523 10.1145C5.29844 9.11622 5.43023 8.4623 5.80183 8.01984C6.03949 7.73686 6.44867 7.46425 7.25 7.33237V8C7.25 8.41421 7.58579 8.75 8 8.75C8.41422 8.75 8.75 8.41421 8.75 8V7.25H15.25Z" fill="#595854"/>
</svg>
