<svg width="24" height="24" viewBox="0 0 24 24" fill="none" xmlns="http://www.w3.org/2000/svg">
<path fill-rule="evenodd" clip-rule="evenodd" d="M3.61822 3.06966C4.3177 2.38324 5.13543 2 6.03721 2C6.39366 2 6.75638 2.0757 7.08782 2.23386C7.43029 2.39283 7.74242 2.63622 7.98509 2.98534L10.1397 6.02229C10.3305 6.28746 10.4797 6.54692 10.5877 6.80962C10.6974 7.06706 10.7721 7.35482 10.7721 7.64651C10.7721 8.00638 10.6672 8.35035 10.481 8.65988C10.3226 8.93752 10.1063 9.20527 9.8564 9.45583L9.2157 10.1218C9.22219 10.1371 9.2309 10.1578 9.24031 10.1818C9.37953 10.4259 9.62605 10.7695 9.99987 11.2115C10.2721 11.526 10.5553 11.8433 10.8522 12.1611L20.809 2.20434C21.0815 1.93189 21.5232 1.93189 21.7957 2.20434C22.0681 2.4768 22.0681 2.91855 21.7957 3.191L3.191 21.7957C2.91855 22.0681 2.4768 22.0681 2.20434 21.7957C1.93189 21.5232 1.93189 21.0815 2.20434 20.809L6.82579 16.1875C6.02634 15.3416 5.29316 14.4609 4.62668 13.5455C4.62589 13.5444 4.6251 13.5434 4.62432 13.5423C3.83698 12.4477 3.19544 11.3424 2.7253 10.2356L2.72444 10.2335C2.24855 9.1033 2 7.99722 2 6.92093C2 6.20637 2.12614 5.51379 2.38405 4.8683C2.64638 4.20236 3.05844 3.59911 3.61822 3.06966ZM7.81287 15.2005L9.86504 13.1483C9.54101 12.8026 9.23436 12.4593 8.94221 12.1217C8.94052 12.1197 8.93884 12.1177 8.93717 12.1158C8.51553 11.6175 8.19258 11.1759 7.99217 10.8085C7.97238 10.7722 7.95585 10.7343 7.94278 10.695C7.94284 10.6952 7.94287 10.6953 7.94287 10.6953C7.94286 10.6953 7.94048 10.6888 7.9284 10.6602C7.92737 10.6578 7.92627 10.6552 7.92511 10.6525C7.91351 10.6251 7.89521 10.582 7.87698 10.5333C7.86769 10.5086 7.85981 10.4833 7.85339 10.4576C7.82333 10.3374 7.80465 10.2149 7.80465 10.0744C7.80465 9.75886 7.91218 9.45767 8.15218 9.21469L8.85536 8.48375C8.85848 8.48051 8.86163 8.47729 8.86481 8.47411C9.05645 8.28247 9.18973 8.1087 9.2717 7.96368C9.2754 7.95713 9.27921 7.95065 9.28312 7.94422C9.35362 7.8284 9.37674 7.72933 9.37674 7.64651C9.37674 7.58675 9.35945 7.48579 9.30292 7.3539C9.3014 7.35035 9.29991 7.3468 9.29846 7.34323C9.2395 7.19911 9.14807 7.03301 9.00591 6.83556C9.00559 6.83512 9.00527 6.83468 9.00495 6.83423C9.00433 6.83336 9.0037 6.83249 9.00308 6.83161L6.84494 3.78975C6.84339 3.78756 6.84186 3.78537 6.84033 3.78317C6.74959 3.6521 6.63655 3.56237 6.49833 3.49858C6.49514 3.4971 6.49196 3.49561 6.48879 3.49409C6.35641 3.43054 6.19998 3.39535 6.03721 3.39535C5.56453 3.39535 5.0818 3.58691 4.59176 4.06929C4.58824 4.07276 4.58468 4.07619 4.58108 4.07958C4.15805 4.47866 3.86517 4.91493 3.68179 5.38102C3.68131 5.38224 3.68082 5.38347 3.68033 5.38469C3.49222 5.85496 3.39535 6.37105 3.39535 6.92093C3.39535 7.77924 3.59317 8.70073 4.01002 9.69105C4.43264 10.6857 5.01846 11.7004 5.75588 12.7258C6.37848 13.5808 7.064 14.4057 7.81287 15.2005ZM15.3127 13.4852C15.6169 13.3041 15.9486 13.2 16.3163 13.2C16.5953 13.2 16.8709 13.2596 17.1479 13.3729C17.4111 13.4806 17.6687 13.6287 17.9272 13.8045C17.9297 13.8062 17.9321 13.8078 17.9346 13.8096C17.936 13.8105 17.9374 13.8115 17.9388 13.8125L21.0147 15.9963C21.3446 16.2255 21.6031 16.5158 21.7642 16.8818C21.7674 16.889 21.7704 16.8963 21.7734 16.9037C21.8919 17.2 21.9721 17.521 21.9721 17.8884C21.9721 18.3279 21.8742 18.7737 21.6727 19.2002C21.4869 19.5937 21.2448 19.9682 20.9263 20.3197L20.926 20.32C20.4092 20.8895 19.8239 21.3172 19.1502 21.5936C18.5044 21.8624 17.8088 22 17.0698 22C16.0106 22 14.9035 21.7508 13.7637 21.2651C12.6405 20.7865 11.5251 20.1452 10.4266 19.3454L10.4246 19.344C10.3981 19.3246 10.371 19.3048 10.3433 19.2846C10.2351 19.2057 10.1195 19.1214 10.0062 19.0323C9.70319 18.7943 9.65056 18.3557 9.88861 18.0527C10.1267 17.7497 10.5653 17.6971 10.8682 17.9351C10.9601 18.0073 11.0497 18.0727 11.1549 18.1494C11.1849 18.1713 11.2161 18.1941 11.2489 18.2182C12.271 18.9622 13.2948 19.5485 14.3107 19.9814C15.3104 20.4074 16.2313 20.6047 17.0698 20.6047C17.6324 20.6047 18.1455 20.5006 18.6154 20.3048C18.6166 20.3043 18.6179 20.3038 18.6191 20.3033C19.0794 20.1146 19.4981 19.8171 19.8923 19.3827C20.1134 19.1388 20.2805 18.8807 20.411 18.6044C20.5258 18.3612 20.5767 18.1186 20.5767 17.8884C20.5767 17.7385 20.5469 17.5978 20.4827 17.4342C20.439 17.3395 20.364 17.2429 20.2168 17.1411C20.2146 17.1395 20.2123 17.1379 20.2101 17.1363L17.1369 14.9545C16.9328 14.8161 16.7643 14.7235 16.6196 14.6643C16.4872 14.6102 16.3908 14.5953 16.3163 14.5953C16.2268 14.5953 16.1369 14.6169 16.0186 14.689C16.0055 14.6969 15.9921 14.7045 15.9785 14.7116C15.8501 14.7786 15.6837 14.9029 15.4794 15.1073C15.4783 15.1084 15.4772 15.1095 15.4761 15.1105L14.7705 15.8069C14.5447 16.0317 14.2498 16.1674 13.8977 16.1674C13.7599 16.1674 13.5965 16.152 13.4201 16.0858C13.4101 16.082 13.4001 16.078 13.3903 16.0738C13.3519 16.0574 13.3163 16.041 13.291 16.0294L13.2837 16.0261C13.2536 16.0123 13.2433 16.0078 13.2386 16.0059C13.2161 15.9969 13.1941 15.9868 13.1727 15.9755C12.957 15.862 12.7211 15.7106 12.4744 15.5256C12.1662 15.2944 12.1037 14.8571 12.3349 14.5488C12.5661 14.2406 13.0034 14.1781 13.3116 14.4093C13.4995 14.5502 13.6639 14.655 13.7974 14.7273C13.8181 14.7362 13.8373 14.7449 13.8529 14.752L14.4944 14.1189C14.7488 13.8648 15.0215 13.6408 15.3127 13.4852Z" fill="#595854"/>
</svg>
