<svg width="24" height="24" viewBox="0 0 24 24" fill="none" xmlns="http://www.w3.org/2000/svg">
<path fill-rule="evenodd" clip-rule="evenodd" d="M7.8756 1C8.28018 1 8.60815 1.32833 8.60815 1.73334V2.53854H15.3719V1.73334C15.3719 1.32833 15.6999 1 16.1045 1C16.5091 1 16.837 1.32833 16.837 1.73334V2.56656C18.4257 2.69173 19.6804 3.23559 20.5619 4.18216C21.566 5.26047 21.9801 6.74871 21.9801 8.40035V11.9903C21.9801 12.3953 21.6521 12.7236 21.2475 12.7236C20.843 12.7236 20.515 12.3953 20.515 11.9903V9.73884H3.46511V17.1187C3.46511 18.5442 3.82251 19.6202 4.48986 20.3368C5.14851 21.0441 6.21432 21.5139 7.8756 21.5139H11.99C12.3946 21.5139 12.7226 21.8422 12.7226 22.2472C12.7226 22.6522 12.3946 22.9806 11.99 22.9806H7.8756C5.93675 22.9806 4.43103 22.4246 3.41819 21.3369C2.41405 20.2586 2 18.7704 2 17.1187V8.40035C2 6.74871 2.41405 5.26047 3.41819 4.18216C4.29964 3.23559 5.55439 2.69173 7.14305 2.56656V1.73334C7.14305 1.32833 7.47102 1 7.8756 1ZM7.14305 4.03843C5.89268 4.15707 5.04608 4.58495 4.48986 5.18226C3.84266 5.87727 3.48697 6.91025 3.46608 8.27217H20.514C20.4931 6.91025 20.1374 5.87727 19.4902 5.18226C18.934 4.58495 18.0874 4.15707 16.837 4.03843V4.81042C16.837 5.21543 16.5091 5.54376 16.1045 5.54376C15.6999 5.54376 15.3719 5.21543 15.3719 4.81042V4.00522H8.60815V4.81042C8.60815 5.21543 8.28018 5.54376 7.8756 5.54376C7.47102 5.54376 7.14305 5.21543 7.14305 4.81042V4.03843ZM7.44578 13.734C7.44578 13.329 7.77376 13.0006 8.17833 13.0006H8.18757C8.59215 13.0006 8.92013 13.329 8.92013 13.734C8.92013 14.139 8.59215 14.4673 8.18757 14.4673H8.17833C7.77376 14.4673 7.44578 14.139 7.44578 13.734ZM11.2528 13.734C11.2528 13.329 11.5808 13.0006 11.9854 13.0006H11.9946C12.3992 13.0006 12.7272 13.329 12.7272 13.734C12.7272 14.139 12.3992 14.4673 11.9946 14.4673H11.9854C11.5808 14.4673 11.2528 14.139 11.2528 13.734ZM20.3604 14.5455C21.0258 14.4774 21.6422 14.7746 22.1965 15.3273C22.7538 15.883 23.0574 16.5007 22.991 17.1695C22.9285 17.7991 22.5518 18.2893 22.1965 18.6435L21.7755 19.0634C21.7206 19.146 21.6501 19.2156 21.5692 19.2691L18.5628 22.2669C18.4161 22.4204 18.2347 22.5326 18.0846 22.6075C17.9268 22.6861 17.736 22.757 17.5452 22.787L17.5331 22.7889L16.146 22.9835C16.1459 22.9835 16.146 22.9835 16.146 22.9835C15.7028 23.0466 15.2476 22.9305 14.9189 22.6027C14.59 22.2747 14.4723 21.8192 14.5358 21.3748C14.5357 21.3751 14.5358 21.3745 14.5358 21.3748L14.7328 19.9784C14.7636 19.7841 14.8365 19.5944 14.9152 19.4394C14.9939 19.2842 15.1053 19.1109 15.2481 18.9685L18.3556 15.8698C18.3619 15.8633 18.3683 15.8569 18.3748 15.8506L18.8893 15.3376C19.245 14.9829 19.7346 14.6096 20.3604 14.5455ZM16.2824 20.0073L18.6506 17.6458L16.2824 20.0073ZM18.6506 17.6458C18.9654 18.143 19.3862 18.5646 19.8826 18.8807L17.5213 21.2353C17.5187 21.2379 17.5161 21.2405 17.5136 21.2432C17.512 21.2447 17.5105 21.2463 17.509 21.2479C17.507 21.2495 17.5033 21.2523 17.4977 21.2562C17.482 21.2671 17.4593 21.2807 17.4314 21.2946C17.4037 21.3085 17.3762 21.3198 17.3524 21.328C17.3337 21.3344 17.3223 21.3371 17.3186 21.3379L15.9944 21.5238L16.1801 20.2077C16.1809 20.2045 16.1833 20.1949 16.1888 20.1792C16.1964 20.1573 16.2075 20.1311 16.2215 20.1035C16.2355 20.076 16.2501 20.0516 16.2633 20.0325C16.2758 20.0142 16.283 20.0067 16.2824 20.0073M20.9624 17.804C20.4174 17.5504 19.9813 17.1134 19.7296 16.5699L19.9233 16.3767C20.195 16.1057 20.3843 16.0174 20.5095 16.0046C20.5949 15.9959 20.8014 16.0063 21.1626 16.3665C21.5311 16.734 21.5412 16.942 21.5331 17.0245C21.521 17.1461 21.4348 17.3329 21.1626 17.6044L20.9624 17.804ZM7.44578 16.8111C7.44578 16.406 7.77376 16.0777 8.17833 16.0777H8.18757C8.59215 16.0777 8.92013 16.406 8.92013 16.8111C8.92013 17.2161 8.59215 17.5444 8.18757 17.5444H8.17833C7.77376 17.5444 7.44578 17.2161 7.44578 16.8111Z" fill="#595854"/>
</svg>
