<svg width="24" height="24" viewBox="0 0 24 24" fill="none" xmlns="http://www.w3.org/2000/svg">
<path fill-rule="evenodd" clip-rule="evenodd" d="M3.09467 3.09467C4.42914 1.7602 6.42603 1.25 9 1.25H15C17.574 1.25 19.5709 1.7602 20.9053 3.09467C22.2398 4.42914 22.75 6.42603 22.75 9V15C22.75 17.574 22.2398 19.5709 20.9053 20.9053C19.5709 22.2398 17.574 22.75 15 22.75H9C6.42603 22.75 4.42914 22.2398 3.09467 20.9053C1.7602 19.5709 1.25 17.574 1.25 15V9C1.25 6.42603 1.7602 4.42914 3.09467 3.09467ZM2.75164 8.75973C2.75055 8.8388 2.75 8.91888 2.75 9V15C2.75 17.426 3.2398 18.9291 4.15533 19.8447C5.07086 20.7602 6.57397 21.25 9 21.25H15C17.426 21.25 18.9291 20.7602 19.8447 19.8447C20.7602 18.9291 21.25 17.426 21.25 15V9C21.25 8.91559 21.2494 8.8323 21.2482 8.75011L2.75164 8.75973ZM2.85197 7.25968L21.1468 7.25016C20.9586 5.8143 20.5161 4.82679 19.8447 4.15533C18.9291 3.2398 17.426 2.75 15 2.75H9C6.57397 2.75 5.07086 3.2398 4.15533 4.15533C3.48239 4.82827 3.03945 5.81867 2.85197 7.25968ZM9.67082 12.6646C9.85606 13.0351 9.70589 13.4856 9.33541 13.6708C8.7955 13.9408 8.34434 14.3412 8.00517 14.8444C7.94161 14.943 7.94161 15.057 8.00517 15.1556C8.34434 15.6588 8.7955 16.0592 9.33541 16.3292C9.70589 16.5144 9.85606 16.9649 9.67082 17.3354C9.48558 17.7059 9.03507 17.8561 8.66459 17.6708C7.88593 17.2815 7.23806 16.7033 6.75754 15.9884L6.75319 15.9819L6.75322 15.9819C6.35893 15.3819 6.35893 14.6181 6.75322 14.0181L6.7575 14.0116L6.75754 14.0116C7.23806 13.2967 7.88593 12.7185 8.66459 12.3292C9.03507 12.1439 9.48558 12.2941 9.67082 12.6646ZM14.5392 12.6646C14.7244 12.2941 15.1749 12.1439 15.5454 12.3292C16.3241 12.7185 16.9719 13.2967 17.4525 14.0116L17.4568 14.0181L17.4568 14.0181C17.8511 14.6181 17.8511 15.3819 17.4568 15.9819L17.4525 15.9884L17.4525 15.9884C16.9719 16.7033 16.3241 17.2815 15.5454 17.6708C15.1749 17.8561 14.7244 17.7059 14.5392 17.3354C14.3539 16.9649 14.5041 16.5144 14.8746 16.3292C15.4145 16.0592 15.8656 15.6588 16.2048 15.1557C16.2684 15.057 16.2684 14.943 16.2048 14.8443C15.8656 14.3412 15.4145 13.9408 14.8746 13.6708C14.5041 13.4856 14.3539 13.0351 14.5392 12.6646Z" fill="#595854"/>
</svg>
