<svg width="24" height="24" viewBox="0 0 24 24" fill="none" xmlns="http://www.w3.org/2000/svg">
<path fill-rule="evenodd" clip-rule="evenodd" d="M11.11 2.75C9.8142 2.75 8.75 3.8142 8.75 5.10999V5.13H12.89C15.0142 5.13 16.75 6.86578 16.75 8.98999V15.3297L20.052 17.1732C20.0526 17.1735 20.0532 17.1738 20.0538 17.1741C20.5434 17.4434 20.8254 17.3778 20.9411 17.3097C21.056 17.2421 21.25 17.029 21.25 16.47V5.10999C21.25 3.8142 20.1858 2.75 18.89 2.75H11.11ZM16.75 17.0476L19.3244 18.4848L19.328 18.4868C20.1073 18.9164 20.9797 19.0271 21.7014 18.6027C22.424 18.1779 22.75 17.361 22.75 16.47V5.10999C22.75 2.98577 21.0142 1.25 18.89 1.25H11.11C8.98577 1.25 7.25 2.98577 7.25 5.10999V5.13H5.10999C2.98577 5.13 1.25 6.86578 1.25 8.98999V20.35C1.25 21.241 1.57604 22.0579 2.29857 22.4828C3.02025 22.9071 3.89269 22.7964 4.67203 22.3668L4.67508 22.3651L8.60023 20.1778C8.60081 20.1775 8.60139 20.1772 8.60198 20.1769C8.67506 20.1374 8.81748 20.0975 9 20.0975C9.18252 20.0975 9.32494 20.1374 9.39802 20.1769C9.39861 20.1772 9.39919 20.1775 9.39977 20.1778L13.3249 22.3651L13.328 22.3668C14.1073 22.7964 14.9797 22.9071 15.7014 22.4828C16.424 22.0579 16.75 21.241 16.75 20.35V17.0476ZM5.10999 6.63C3.8142 6.63 2.75 7.6942 2.75 8.98999V20.35C2.75 20.909 2.94396 21.1221 3.05893 21.1897C3.17462 21.2578 3.45671 21.3235 3.9464 21.054C3.94692 21.0537 3.94744 21.0534 3.94796 21.0532L7.87974 18.8621C8.22721 18.6719 8.63399 18.5975 9 18.5975C9.36601 18.5975 9.77278 18.6719 10.1202 18.8622L10.1251 18.8648L14.052 21.0532C14.0525 21.0534 14.0531 21.0537 14.0536 21.054C14.5433 21.3235 14.8254 21.2578 14.9411 21.1897C15.056 21.1221 15.25 20.909 15.25 20.35V8.98999C15.25 7.6942 14.1858 6.63 12.89 6.63H5.10999ZM6.25 12C6.25 11.5858 6.58579 11.25 7 11.25H11C11.4142 11.25 11.75 11.5858 11.75 12C11.75 12.4142 11.4142 12.75 11 12.75H7C6.58579 12.75 6.25 12.4142 6.25 12Z" fill="#595854"/>
</svg>
