<svg width="24" height="24" viewBox="0 0 24 24" fill="none" xmlns="http://www.w3.org/2000/svg">
<path fill-rule="evenodd" clip-rule="evenodd" d="M7.31718 4.36457L20.95 18.1841V11.7C20.95 6.87022 17.2396 2.84111 12.5852 2.74985L12.5687 2.74934C10.6529 2.66951 8.79836 3.28755 7.31718 4.36457ZM12.6229 1.2503C10.0201 1.14413 7.53723 2.11982 5.70373 3.73761C5.54916 3.874 5.45753 4.06801 5.4504 4.27404C5.44327 4.48006 5.52125 4.67994 5.66603 4.8267L20.266 19.6267C20.2921 19.6532 20.3202 19.6777 20.3499 19.7C21.2444 20.3708 22.45 19.718 22.45 18.7V11.7C22.45 6.13253 18.1645 1.36361 12.6229 1.2503ZM2.94995 5.71323V12.2C2.94995 17.0346 6.66475 21.1588 11.4144 21.2501L11.4299 21.2506C13.436 21.3308 15.3005 20.7112 16.7803 19.637L2.94995 5.71323ZM1.44995 5.19999C1.44995 4.18195 2.65552 3.52917 3.54995 4.19999C3.57902 4.22179 3.60646 4.24567 3.63206 4.27145L18.4321 19.1714C18.5777 19.318 18.6563 19.5182 18.6495 19.7247C18.6428 19.9311 18.5511 20.1257 18.3962 20.2624C16.5591 21.8833 14.0754 22.8556 11.3777 22.7497C5.73119 22.6367 1.44995 17.7628 1.44995 12.2V5.19999Z" fill="#595854"/>
</svg>
