<svg width="24" height="24" viewBox="0 0 24 24" fill="none" xmlns="http://www.w3.org/2000/svg">
<path fill-rule="evenodd" clip-rule="evenodd" d="M12 1.25C12.4142 1.25 12.75 1.58579 12.75 2V4.25H15.25V3C15.25 2.58579 15.5858 2.25 16 2.25C16.4142 2.25 16.75 2.58579 16.75 3V4.32749C18.1042 4.62242 19.19 5.73119 19.19 7.17V9.56682C20.6011 10.1361 21.63 11.4213 21.63 13V21.25H22C22.4142 21.25 22.75 21.5858 22.75 22C22.75 22.4142 22.4142 22.75 22 22.75H2C1.58579 22.75 1.25 22.4142 1.25 22C1.25 21.5858 1.58579 21.25 2 21.25H2.36V13C2.36 11.4176 3.39379 10.1301 4.81 9.5628V7.17C4.81 5.73201 5.89363 4.62568 7.25 4.32888V3C7.25 2.58579 7.58579 2.25 8 2.25C8.41421 2.25 8.75 2.58579 8.75 3V4.25H11.25V2C11.25 1.58579 11.5858 1.25 12 1.25ZM7.98 5.75C6.97558 5.75 6.31 6.4587 6.31 7.17V9.25191C6.35321 9.25064 6.39655 9.25 6.44 9.25H17.55C17.5968 9.25 17.6435 9.25074 17.69 9.25221V7.17C17.69 6.4568 17.0223 5.75 16.03 5.75H7.98ZM3.86 21.25H20.13V14.76H20.08C19.7478 14.76 19.48 15.0306 19.48 15.36V15.67C19.48 16.8378 18.5306 17.77 17.38 17.77C16.2122 17.77 15.28 16.8206 15.28 15.67V15.36C15.28 15.0278 15.0094 14.76 14.68 14.76C14.3478 14.76 14.08 15.0306 14.08 15.36V15.67C14.08 16.8378 13.1306 17.77 11.98 17.77C10.8122 17.77 9.88 16.8206 9.88 15.67V15.36C9.88 15.0278 9.60941 14.76 9.28 14.76C8.94782 14.76 8.68 15.0306 8.68 15.36V15.67C8.68 16.8378 7.73059 17.77 6.58 17.77C5.41217 17.77 4.48 16.8206 4.48 15.67V15.34C4.48 15.0089 4.21824 14.7444 3.88987 14.7399L3.87973 14.7398L3.86 14.7392V21.25ZM3.86 13.2386L3.91576 13.2402C5.06475 13.2587 5.98 14.193 5.98 15.34V15.67C5.98 15.9994 6.24783 16.27 6.58 16.27C6.90941 16.27 7.18 16.0022 7.18 15.67V15.36C7.18 14.2094 8.11217 13.26 9.28 13.26C10.4306 13.26 11.38 14.1922 11.38 15.36V15.67C11.38 15.9994 11.6478 16.27 11.98 16.27C12.3094 16.27 12.58 16.0022 12.58 15.67V15.36C12.58 14.2094 13.5122 13.26 14.68 13.26C15.8306 13.26 16.78 14.1922 16.78 15.36V15.67C16.78 15.9994 17.0478 16.27 17.38 16.27C17.7094 16.27 17.98 16.0022 17.98 15.67V15.36C17.98 14.2094 18.9122 13.26 20.08 13.26H20.13V13C20.13 11.8263 19.0517 10.75 17.55 10.75H6.44C4.93827 10.75 3.86 11.8263 3.86 13V13.2386Z" fill="#595854"/>
</svg>
