<svg width="24" height="24" viewBox="0 0 24 24" fill="none" xmlns="http://www.w3.org/2000/svg">
<path fill-rule="evenodd" clip-rule="evenodd" d="M11.6803 2.46034C11.6803 2.46034 11.6803 2.46034 11.6803 2.46034L10.9003 3.24036C10.7232 3.41747 10.7232 3.70255 10.9003 3.87966L11.2868 4.26615C11.288 4.26732 11.2892 4.26848 11.2903 4.26965C11.2915 4.27083 11.2927 4.27201 11.2939 4.2732L11.6803 4.65969C11.6803 4.65969 11.6803 4.65969 11.6803 4.65969C11.8574 4.83678 12.1426 4.83679 12.3197 4.6597C12.3197 4.6597 12.3197 4.6597 12.3197 4.6597L12.7063 4.27305C12.7074 4.27191 12.7085 4.27078 12.7097 4.26965C12.7108 4.26853 12.7119 4.26741 12.713 4.2663L13.0997 3.87967C13.2768 3.70256 13.2768 3.41748 13.0997 3.24037L12.3197 2.46034C12.3197 2.46034 12.3197 2.46034 12.3197 2.46034C12.1426 2.28325 11.8574 2.28325 11.6803 2.46034ZM13.233 5.85363L17.6471 10.2677C17.5523 10.4967 17.5 10.7474 17.5 11.01V12.11C17.5 13.1841 18.3757 14.0601 19.45 14.0601H20.55C21.6243 14.0601 22.5 13.1841 22.5 12.11V11.01C22.5 9.9358 21.6242 9.05999 20.55 9.05999H19.45C19.1874 9.05999 18.9367 9.11232 18.7078 9.20707L14.2936 4.79295C14.9203 4.02588 14.8758 2.89524 14.1603 2.17972C14.1603 2.17972 14.1603 2.17972 14.1603 2.17972L13.3803 1.39969C12.6174 0.636797 11.3826 0.636786 10.6197 1.39968L9.83967 2.17971C9.83967 2.17971 9.83968 2.17971 9.83967 2.17971C9.12417 2.89523 9.07972 4.02588 9.70637 4.79296L5.29224 9.20707C5.06328 9.11232 4.81257 9.05999 4.55 9.05999H3.45C2.37577 9.05999 1.5 9.9358 1.5 11.01V12.11C1.5 13.1841 2.37572 14.0601 3.45 14.0601H4.55C5.62428 14.0601 6.5 13.1841 6.5 12.11V11.01C6.5 10.7474 6.44767 10.4967 6.35291 10.2677L10.767 5.85363C11.4833 6.43882 12.5167 6.43881 13.233 5.85363ZM3.45 10.56C3.20422 10.56 3 10.7642 3 11.01V12.11C3 12.3558 3.20427 12.5601 3.45 12.5601H4.55C4.79573 12.5601 5 12.3558 5 12.11V11.01C5 10.7642 4.79578 10.56 4.55 10.56H3.45ZM19.45 10.56C19.2042 10.56 19 10.7642 19 11.01V12.11C19 12.3558 19.2043 12.5601 19.45 12.5601H20.55C20.7957 12.5601 21 12.3558 21 12.11V11.01C21 10.7642 20.7958 10.56 20.55 10.56H19.45ZM12.015 9.97253C12.6895 9.97253 13.3208 10.2985 13.7685 10.8651L16.8174 14.7337C16.8177 14.7341 16.8181 14.7345 16.8184 14.7349C17.231 15.2549 17.5721 15.8457 17.5093 16.5253C17.4468 17.2015 17.0056 17.7319 16.4878 18.1909C16.4877 18.191 16.4879 18.1909 16.4878 18.1909L15.0874 19.4377L15.403 20.831C15.5432 21.4773 15.3721 22.1058 14.9488 22.5647C14.5331 23.0154 13.9259 23.25 13.27 23.25H10.75C9.49447 23.25 8.30497 22.1879 8.61883 20.823C8.61896 20.8224 8.61908 20.8219 8.6192 20.8213L8.93432 19.4303L7.55203 18.1997C7.00648 17.7491 6.55891 17.2162 6.5048 16.5261C6.45142 15.8455 6.80259 15.2504 7.21173 14.7347C7.21201 14.7344 7.2123 14.734 7.21258 14.7337L10.2609 10.8658C10.7086 10.2992 11.3405 9.97253 12.015 9.97253ZM10.3591 19.93L10.0815 21.1557L10.0808 21.1586C10.0531 21.2785 10.0835 21.4075 10.1946 21.5272C10.3089 21.6503 10.5029 21.75 10.75 21.75H13.27C13.5741 21.75 13.7569 21.6445 13.8462 21.5477C13.9275 21.4596 13.9764 21.3339 13.9376 21.1517L13.6609 19.93H10.3591ZM13.9633 18.43H10.0667L8.53868 17.0698C8.53131 17.0633 8.5238 17.0568 8.51618 17.0506C8.05706 16.6733 8.0057 16.4789 8.00021 16.4088C7.99362 16.3249 8.02692 16.1204 8.38742 15.6663L8.38905 15.6642L11.26 12.0215V13.65C11.26 14.0642 11.5958 14.4 12.01 14.4C12.4242 14.4 12.76 14.0642 12.76 13.65V12.0088L15.641 15.6642L15.6426 15.6663C15.9995 16.1159 16.0228 16.3098 16.0157 16.3872C16.0082 16.4684 15.9446 16.668 15.4924 17.0688L13.9633 18.43Z" fill="#595854"/>
</svg>
