<svg width="24" height="24" viewBox="0 0 24 24" fill="none" xmlns="http://www.w3.org/2000/svg">
<path fill-rule="evenodd" clip-rule="evenodd" d="M2.96967 2.96967C4.15993 1.77941 5.88439 1.25 8 1.25H16C18.1156 1.25 19.8401 1.77941 21.0303 2.96967C22.2206 4.15993 22.75 5.88439 22.75 8V16C22.75 18.1156 22.2206 19.8401 21.0303 21.0303C19.8401 22.2206 18.1156 22.75 16 22.75H3C2.03579 22.75 1.25 21.9642 1.25 21V8C1.25 5.88439 1.77941 4.15993 2.96967 2.96967ZM4.03033 4.03033C3.22059 4.84007 2.75 6.11561 2.75 8V21C2.75 21.1358 2.86421 21.25 3 21.25H16C17.8844 21.25 19.1599 20.7794 19.9697 19.9697C20.7794 19.1599 21.25 17.8844 21.25 16V8C21.25 6.11561 20.7794 4.84007 19.9697 4.03033C19.1599 3.22059 17.8844 2.75 16 2.75H8C6.11561 2.75 4.84007 3.22059 4.03033 4.03033ZM6.25 9.5C6.25 9.08579 6.58579 8.75 7 8.75H17C17.4142 8.75 17.75 9.08579 17.75 9.5C17.75 9.91421 17.4142 10.25 17 10.25H7C6.58579 10.25 6.25 9.91421 6.25 9.5ZM6.25 14.5C6.25 14.0858 6.58579 13.75 7 13.75H14C14.4142 13.75 14.75 14.0858 14.75 14.5C14.75 14.9142 14.4142 15.25 14 15.25H7C6.58579 15.25 6.25 14.9142 6.25 14.5Z" fill="#595854"/>
</svg>
