<svg width="24" height="24" viewBox="0 0 24 24" fill="none" xmlns="http://www.w3.org/2000/svg">
<path fill-rule="evenodd" clip-rule="evenodd" d="M4.15533 4.15533C3.2398 5.07086 2.75 6.57397 2.75 9V15C2.75 16.9167 3.05795 18.2629 3.64147 19.1925C4.14893 20.001 4.90987 20.5652 6.04287 20.8965L20.8965 6.04288C20.5653 4.90989 20.001 4.14894 19.1925 3.64148C18.2629 3.05795 16.9167 2.75 15 2.75H9C6.57397 2.75 5.07086 3.2398 4.15533 4.15533ZM7.85332 21.2073L14 15.0607L19.261 20.3217C18.3252 20.9289 16.9643 21.25 15 21.25H9C8.59266 21.25 8.21127 21.2356 7.85332 21.2073ZM20.3217 19.261C20.9289 18.3252 21.25 16.9643 21.25 15V9C21.25 8.59267 21.2356 8.21128 21.2073 7.85334L15.0607 14L20.3217 19.261ZM3.09467 3.09467C4.42914 1.7602 6.42603 1.25 9 1.25H15C17.0433 1.25 18.7171 1.57205 19.99 2.37102C21.2935 3.18925 22.0815 4.44655 22.4611 6.10242C22.6563 6.95925 22.75 7.91796 22.75 9V15C22.75 17.5747 22.2395 19.5693 20.9127 20.908L20.908 20.9127C19.5693 22.2395 17.5747 22.75 15 22.75H9C7.91795 22.75 6.96019 22.6565 6.10337 22.4613C4.4475 22.0817 3.18924 21.2935 2.37102 19.99C1.57205 18.7171 1.25 17.0433 1.25 15V9C1.25 6.42603 1.7602 4.42914 3.09467 3.09467ZM9.11999 6.5325C8.12403 6.5325 7.21594 7.09231 6.97057 8.14956C6.66784 9.45131 7.48039 10.648 8.39497 11.5147C8.80816 11.9039 9.44375 11.8985 9.84157 11.518L9.84417 11.5155C10.7551 10.6525 11.5641 9.45377 11.269 8.14768C11.023 7.09165 10.1154 6.5325 9.11999 6.5325ZM9.11999 5.0325C10.664 5.0325 12.2959 5.93769 12.7306 7.81045L12.7314 7.81415C13.2149 9.94633 11.8657 11.6663 10.8772 12.6031C9.89512 13.5413 8.35192 13.5358 7.36549 12.6057L7.36419 12.6045C6.37917 11.6713 5.01245 9.94814 5.50941 7.81045M9.11999 5.0325C7.57604 5.0325 5.94415 5.93792 5.50941 7.81045L9.11999 5.0325ZM8.3446 8.70001C8.3446 8.2858 8.68039 7.95001 9.0946 7.95001H9.10359C9.5178 7.95001 9.85359 8.2858 9.85359 8.70001C9.85359 9.11423 9.5178 9.45001 9.10359 9.45001H9.0946C8.68039 9.45001 8.3446 9.11423 8.3446 8.70001Z" fill="#595854"/>
</svg>
