<svg width="24" height="24" viewBox="0 0 24 24" fill="none" xmlns="http://www.w3.org/2000/svg">
<path fill-rule="evenodd" clip-rule="evenodd" d="M7.27029 1.46967C7.56318 1.76257 7.56318 2.23744 7.27029 2.53033L5.39063 4.40997H17.42C19.4942 4.40997 21.17 6.08576 21.17 8.15997V11.48C21.17 11.8942 20.8342 12.23 20.42 12.23C20.0058 12.23 19.67 11.8942 19.67 11.48V8.15997C19.67 6.91419 18.6658 5.90997 17.42 5.90997H5.3906L7.27029 7.78968C7.56318 8.08257 7.56318 8.55745 7.27029 8.85034C6.97739 9.14323 6.50252 9.14323 6.20963 8.85033L3.04962 5.6903C2.90897 5.54965 2.82996 5.35888 2.82996 5.15997C2.82996 4.96106 2.90898 4.77029 3.04963 4.62964L6.20963 1.46967C6.50253 1.17678 6.9774 1.17678 7.27029 1.46967ZM3.57996 11.77C3.99417 11.77 4.32996 12.1058 4.32996 12.52V15.84C4.32996 17.0858 5.33417 18.09 6.57996 18.09H18.6093L16.7296 16.2103C16.4368 15.9174 16.4368 15.4426 16.7297 15.1497C17.0225 14.8568 17.4974 14.8568 17.7903 15.1497L20.9503 18.3097C21.091 18.4504 21.17 18.6411 21.17 18.84C21.17 19.0389 21.091 19.2297 20.9503 19.3704L17.7903 22.5303C17.4974 22.8232 17.0225 22.8232 16.7296 22.5303C16.4368 22.2374 16.4368 21.7626 16.7297 21.4697L18.6093 19.59H6.57996C4.50574 19.59 2.82996 17.9142 2.82996 15.84V12.52C2.82996 12.1058 3.16574 11.77 3.57996 11.77Z" fill="#595854"/>
</svg>
