<svg width="24" height="24" viewBox="0 0 24 24" fill="none" xmlns="http://www.w3.org/2000/svg">
<path fill-rule="evenodd" clip-rule="evenodd" d="M2.75469 5.4405C2.76591 5.96596 2.79711 6.47701 2.84639 6.97385C3.59047 9.32803 4.5118 10.5551 5.38061 11.1546C6.23526 11.7442 7.14125 11.7961 8.02957 11.5727C8.93837 11.3441 9.79389 10.8322 10.4419 10.351C10.7613 10.1139 11.0198 9.89202 11.1971 9.73071C11.1986 9.7294 11.2 9.72809 11.2014 9.72679C10.8099 6.69934 11.892 4.78454 13.176 3.64013C13.3882 3.45101 13.6036 3.28482 13.8155 3.13909C11.8469 2.98564 10.0066 3.16354 8.39709 3.48545C6.58358 3.84815 5.07127 4.39259 4.01419 4.84563C3.48621 5.0719 3.07342 5.27468 2.79523 5.41934C2.78138 5.42654 2.76787 5.4336 2.75469 5.4405ZM16.2471 3.63584C16.2424 3.63701 16.2364 3.63849 16.2294 3.6403C16.2022 3.64727 16.1585 3.65908 16.1009 3.67658C15.9856 3.71165 15.8158 3.76916 15.6125 3.85572C15.2034 4.02985 14.6728 4.31536 14.174 4.7599C13.2602 5.57444 12.3738 6.98779 12.6826 9.48323C16.1064 11.0707 17.3162 13.314 17.5689 15.2794C17.5901 15.4441 17.6044 15.6058 17.6128 15.7636C18.7314 14.1472 19.5063 12.5026 20.0437 10.9978C20.6481 9.30533 20.9502 7.79429 21.1009 6.70934C21.1762 6.16735 21.2135 5.73314 21.2319 5.43761C21.2323 5.43184 21.2326 5.42612 21.233 5.42045C19.6707 4.53199 18.1115 3.94242 16.5961 3.57767L16.2471 3.63584ZM16.6556 2.05127C13.4994 1.34436 10.5385 1.52746 8.10291 2.01458C6.16642 2.40188 4.55373 2.98245 3.42331 3.46691C2.85754 3.70938 2.41095 3.92848 2.1032 4.08851C1.94928 4.16855 1.82995 4.23389 1.74765 4.28008C1.7065 4.30318 1.67459 4.3215 1.65224 4.33448L1.62591 4.3499L1.61819 4.35447L1.6157 4.35596L1.6148 4.3565C1.61444 4.35671 1.61413 4.3569 2 5.00002L1.6148 4.3565L1.25 4.57537V5.00002C1.25 5.71895 1.28465 6.41381 1.34995 7.08498C1.34877 7.14423 1.35465 7.20438 1.36818 7.26433C1.90396 12.3158 4.17704 16.0097 6.44504 18.5045C7.73989 19.9289 9.03438 20.9646 10.0074 21.6457C10.4944 21.9866 10.9022 22.2396 11.1913 22.4089C11.3358 22.4936 11.4508 22.5574 11.5313 22.6009C11.5716 22.6226 11.6032 22.6393 11.6256 22.6509L11.6523 22.6646L11.6602 22.6687L11.6629 22.67L11.6638 22.6705C11.6642 22.6707 11.6646 22.6708 12 22L11.6638 22.6705L12.0328 22.855L12.3859 22.6431C14.1298 21.5968 15.5805 20.4033 16.7871 19.1425C16.9021 19.0733 16.9998 18.9726 17.0657 18.8455C19.2808 16.4367 20.6328 13.8082 21.4563 11.5023C22.1019 9.6947 22.4248 8.08074 22.5866 6.91569C22.6676 6.33269 22.7084 5.86065 22.729 5.53118C22.7393 5.36639 22.7446 5.23713 22.7472 5.14733C22.7486 5.10242 22.7493 5.06737 22.7496 5.04266L22.7499 5.0134L22.75 5.0047L22.75 5.00081C22.75 5.00039 22.75 5.00002 22 5.00002L22.75 5.00081V4.57537L22.3859 4.3569C20.5973 3.28373 18.8087 2.58002 17.0742 2.15002C16.9505 2.07871 16.8059 2.04217 16.6556 2.05127ZM15.7877 18.0164C15.7898 18.0108 15.7919 18.005 15.7941 17.9991C15.8428 17.8665 15.908 17.6682 15.9674 17.4195C16.0869 16.9193 16.1791 16.2324 16.0811 15.4707C15.9019 14.077 15.0677 12.2735 12.1509 10.8905C11.948 11.0724 11.6711 11.3066 11.3362 11.5553C10.6124 12.0928 9.57413 12.7309 8.39543 13.0274C7.19625 13.329 5.82099 13.2808 4.52876 12.3892C4.38229 12.2882 4.23833 12.1772 4.09703 12.0561C5.01177 14.2956 6.28244 16.0957 7.55496 17.4955C8.76011 18.8212 9.96562 19.7855 10.8676 20.4168C11.3181 20.7322 11.6915 20.9636 11.9494 21.1146C11.9597 21.1206 11.9698 21.1265 11.9798 21.1323C13.4784 20.1904 14.7346 19.1311 15.7877 18.0164ZM15.7212 18.181C15.7211 18.1812 15.7213 18.1808 15.7212 18.181V18.181Z" fill="#595854"/>
</svg>
