<svg width="24" height="24" viewBox="0 0 24 24" fill="none" xmlns="http://www.w3.org/2000/svg">
<path fill-rule="evenodd" clip-rule="evenodd" d="M12 2.75C9.9191 2.75 7.99548 3.4432 6.44942 4.60043C6.11782 4.84864 5.64778 4.78103 5.39957 4.44942C5.15136 4.11782 5.21897 3.64778 5.55058 3.39957C7.34452 2.0568 9.5809 1.25 12 1.25C17.9342 1.25 22.75 6.06579 22.75 12C22.75 17.9342 17.9342 22.75 12 22.75C6.06579 22.75 1.25 17.9342 1.25 12C1.25 10.0556 1.76602 8.22645 2.68072 6.64456C2.88764 6.28671 3.3451 6.16375 3.70354 6.36964L12.3736 11.3497C12.7327 11.556 12.8567 12.0144 12.6503 12.3736C12.444 12.7327 11.9856 12.8567 11.6264 12.6503L3.6314 8.05804C3.06416 9.25503 2.75 10.5904 2.75 12C2.75 17.1058 6.89421 21.25 12 21.25C17.1058 21.25 21.25 17.1058 21.25 12C21.25 6.89421 17.1058 2.75 12 2.75Z" fill="#595854"/>
</svg>
