<svg width="24" height="24" viewBox="0 0 24 24" fill="none" xmlns="http://www.w3.org/2000/svg">
<path fill-rule="evenodd" clip-rule="evenodd" d="M9.66783 3.66783C9.0898 4.24586 8.75 5.22397 8.75 6.9V7.25H11.1C12.924 7.25 14.3959 7.6102 15.3928 8.60717C16.3898 9.60414 16.75 11.076 16.75 12.9V15.25H17.1C18.776 15.25 19.7541 14.9102 20.3322 14.3322C20.9102 13.7541 21.25 12.776 21.25 11.1V6.9C21.25 5.22397 20.9102 4.24586 20.3322 3.66783C19.7541 3.0898 18.776 2.75 17.1 2.75H12.9C11.224 2.75 10.2459 3.0898 9.66783 3.66783ZM16.75 16.75H17.1C18.924 16.75 20.3959 16.3898 21.3928 15.3928C22.3898 14.3959 22.75 12.924 22.75 11.1V6.9C22.75 5.07603 22.3898 3.60414 21.3928 2.60717C20.3959 1.6102 18.924 1.25 17.1 1.25H12.9C11.076 1.25 9.60414 1.6102 8.60717 2.60717C7.6102 3.60414 7.25 5.07603 7.25 6.9V7.25H6.9C5.07603 7.25 3.60414 7.6102 2.60717 8.60717C1.6102 9.60414 1.25 11.076 1.25 12.9V17.1C1.25 18.924 1.6102 20.3959 2.60717 21.3928C3.60414 22.3898 5.07603 22.75 6.9 22.75H11.1C12.924 22.75 14.3959 22.3898 15.3928 21.3928C16.3898 20.3959 16.75 18.924 16.75 17.1V16.75ZM6.9 8.75C5.22397 8.75 4.24586 9.0898 3.66783 9.66783C3.0898 10.2459 2.75 11.224 2.75 12.9V17.1C2.75 18.776 3.0898 19.7541 3.66783 20.3322C4.24586 20.9102 5.22397 21.25 6.9 21.25H11.1C12.776 21.25 13.7541 20.9102 14.3322 20.3322C14.9102 19.7541 15.25 18.776 15.25 17.1V12.9C15.25 11.224 14.9102 10.2459 14.3322 9.66783C13.7541 9.0898 12.776 8.75 11.1 8.75H6.9Z" fill="#595854"/>
</svg>
