<svg width="24" height="24" viewBox="0 0 24 24" fill="none" xmlns="http://www.w3.org/2000/svg">
<path fill-rule="evenodd" clip-rule="evenodd" d="M17.5127 3.77353C18.6746 4.41554 19.25 5.7689 19.25 7.40998V16.59C19.25 18.227 18.6741 19.5792 17.5135 20.2223C16.3526 20.8655 14.9007 20.6363 13.5117 19.7655C13.5117 19.7655 13.5118 19.7655 13.5117 19.7655L10.6001 17.9408C10.3875 17.8161 10.1513 17.75 9.93 17.75H8.5C7.38439 17.75 6.40993 17.4706 5.71967 16.7803C5.02941 16.0901 4.75 15.1156 4.75 14V9.99998C4.75 8.88437 5.02941 7.90991 5.71967 7.21965C6.40993 6.52939 7.38439 6.24998 8.5 6.24998H9.93C10.1513 6.24998 10.3875 6.18386 10.6001 6.0592L13.5116 4.23455C13.5116 4.23458 13.5116 4.23453 13.5116 4.23455C14.8994 3.36446 16.3512 3.13174 17.5127 3.77353ZM16.7873 5.08644C16.2838 4.80824 15.4406 4.79556 14.3084 5.50541L11.3806 7.34027L11.3729 7.34487C10.9473 7.59756 10.4463 7.74998 9.93 7.74998H8.5C7.61561 7.74998 7.09007 7.97057 6.78033 8.28031C6.47059 8.59005 6.25 9.11559 6.25 9.99998V14C6.25 14.8844 6.47059 15.4099 6.78033 15.7197C7.09007 16.0294 7.61561 16.25 8.5 16.25H9.93C10.4463 16.25 10.9473 16.4024 11.3729 16.6551L11.3806 16.6597L14.3083 18.4945C15.4393 19.2036 16.2825 19.1895 16.7865 18.9102C17.2909 18.6307 17.75 17.9229 17.75 16.59V7.40998C17.75 6.07107 17.2904 5.36443 16.7873 5.08644Z" fill="#595854"/>
</svg>
