<svg width="24" height="24" viewBox="0 0 24 24" fill="none" xmlns="http://www.w3.org/2000/svg">
<path fill-rule="evenodd" clip-rule="evenodd" d="M8.44 2.75C7.54627 2.75 6.82 3.48215 6.82 4.37C6.82 4.81802 6.99853 5.22467 7.2942 5.51361L7.30036 5.51964C7.59131 5.81059 8.00117 5.99 8.45 5.99H8.75C9.00343 5.99 9.23972 6.11799 9.37818 6.33026C9.51663 6.54252 9.53853 6.81036 9.43638 7.04229L7.08347 12.3848C7.32849 12.3957 7.6053 12.4124 7.90728 12.4376C9.08282 12.5356 10.6615 12.7633 12.2372 13.2885C13.5326 13.7203 14.816 13.5352 15.8108 13.2159C16.3042 13.0575 16.7128 12.8703 16.9962 12.7236C17.0185 12.712 17.0401 12.7008 17.0607 12.6898L14.5927 7.04024C14.4914 6.80837 14.5139 6.54105 14.6524 6.32932C14.791 6.11759 15.027 5.99 15.28 5.99H15.44C16.253 5.99 16.9551 5.47098 17.1317 4.77104C17.2753 4.17145 17.0857 3.61634 16.6997 3.23033C16.4017 2.93235 15.9992 2.75 15.55 2.75H8.44ZM17.6627 14.0676C17.323 14.2421 16.8451 14.4592 16.2692 14.6441C15.099 15.0198 13.4674 15.2797 11.7628 14.7115C10.3385 14.2367 8.88717 14.0244 7.78271 13.9324C7.23275 13.8866 6.77421 13.871 6.45517 13.8668C6.44698 13.8667 6.43889 13.8666 6.43089 13.8665L5.18638 16.6923C4.54337 18.1485 4.51449 19.2737 4.90887 19.9871C5.28044 20.6593 6.1945 21.25 8.16 21.25H15.83C17.7732 21.25 18.6915 20.6628 19.0695 19.9884C19.4689 19.2755 19.4497 18.1535 18.8131 16.7011L17.6627 14.0676ZM5.26222 12.7985L7.6459 7.38617C7.11059 7.24517 6.62655 6.96614 6.2427 6.58336C5.66025 6.01253 5.32 5.22048 5.32 4.37C5.32 2.65785 6.71373 1.25 8.44 1.25H15.55C16.4208 1.25 17.1983 1.60765 17.7603 2.16967C18.4937 2.90302 18.8641 3.98671 18.5891 5.12598L18.5876 5.13191C18.3046 6.264 17.4116 7.05929 16.3687 7.35861L20.1869 16.0989C20.1868 16.0988 20.187 16.0991 20.1869 16.0989C20.9001 17.7263 21.116 19.4046 20.378 20.7216C19.6185 22.0772 18.0268 22.75 15.83 22.75H8.16C5.94549 22.75 4.34955 22.0757 3.59612 20.7129C2.8655 19.3913 3.09691 17.7108 3.8139 16.087L5.24482 12.838C5.25025 12.8247 5.25606 12.8115 5.26222 12.7985Z" fill="#595854"/>
</svg>
