<svg width="24" height="24" viewBox="0 0 24 24" fill="none" xmlns="http://www.w3.org/2000/svg">
<path fill-rule="evenodd" clip-rule="evenodd" d="M12.7475 1.4343C13.06 1.16234 13.5337 1.19514 13.8057 1.50757L16.6957 4.82757C16.8336 4.98602 16.8987 5.19506 16.8753 5.40381C16.8518 5.61257 16.7418 5.80192 16.5722 5.92577L13.2022 8.38577C12.8676 8.62999 12.3984 8.55676 12.1542 8.2222C11.91 7.88764 11.9832 7.41844 12.3178 7.17423L14.3333 5.70291C13.6173 5.51614 12.8422 5.4 12 5.4C7.62417 5.4 4.07996 8.94421 4.07996 13.32C4.07996 17.7063 7.62473 21.25 12 21.25C16.3757 21.25 19.92 17.7058 19.92 13.33C19.92 11.7036 19.4269 10.1875 18.5859 8.92602C18.3562 8.58138 18.4493 8.11573 18.7939 7.88596C19.1386 7.6562 19.6042 7.74933 19.834 8.09397C20.833 9.59247 21.42 11.3964 21.42 13.33C21.42 18.5342 17.2042 22.75 12 22.75C6.79518 22.75 2.57996 18.5336 2.57996 13.32C2.57996 8.11579 6.79574 3.9 12 3.9C12.7379 3.9 13.4302 3.97658 14.0787 4.1058L12.6743 2.49243C12.4023 2.18 12.4351 1.70626 12.7475 1.4343Z" fill="#595854"/>
</svg>
