<svg width="24" height="24" viewBox="0 0 24 24" fill="none" xmlns="http://www.w3.org/2000/svg">
<path fill-rule="evenodd" clip-rule="evenodd" d="M5.33055 2.10463C5.93967 1.64862 6.71764 1.40002 7.70003 1.40002H16.29C17.2724 1.40002 18.0498 1.64862 18.6584 2.10259C19.2569 2.54901 19.6263 3.14524 19.8848 3.72418L19.8854 3.72542L22.4435 9.48116C22.4438 9.48186 22.4441 9.48257 22.4444 9.48327C22.7522 10.1656 22.8082 10.9645 22.6905 11.6955C22.5727 12.4275 22.2683 13.169 21.7659 13.7236L14.9155 21.274C13.3267 23.0228 10.693 23.0199 9.09684 21.2765L9.09527 21.2747L2.23716 13.7368C2.23679 13.7364 2.23643 13.736 2.23607 13.7356C1.73113 13.1842 1.42736 12.4412 1.3085 11.7104C1.18955 10.9791 1.24252 10.1785 1.54412 9.49664L4.10412 3.73664C4.10402 3.73688 4.10422 3.73641 4.10412 3.73664C4.36248 3.15271 4.73189 2.55281 5.33055 2.10463ZM6.2295 3.30542C5.9134 3.54206 5.67755 3.88756 5.47592 4.3434L4.1841 7.25002H19.8104L18.5152 4.33586C18.5151 4.3357 18.5153 4.33602 18.5152 4.33586C18.3138 3.88504 18.078 3.54095 17.7616 3.30495C17.4552 3.07643 17.0076 2.90002 16.29 2.90002H7.70003C6.98241 2.90002 6.53538 3.07643 6.2295 3.30542ZM20.4771 8.75002H3.51743L2.91593 10.1034C2.91585 10.1036 2.91601 10.1032 2.91593 10.1034C2.75771 10.4615 2.70554 10.9562 2.78905 11.4696C2.8726 11.9833 3.07848 12.4348 3.34289 12.7232L3.34478 12.7253L10.2032 20.2636C10.203 20.2633 10.2034 20.2638 10.2032 20.2636C11.2071 21.3594 12.8138 21.3566 13.8049 20.2657L20.6542 12.7165" fill="#595854"/>
</svg>
