<svg width="24" height="24" viewBox="0 0 24 24" fill="none" xmlns="http://www.w3.org/2000/svg">
<path fill-rule="evenodd" clip-rule="evenodd" d="M13.3959 1.96269L19.8594 5.74136C20.7255 6.18718 21.25 7.15521 21.25 8.09999V15.8C21.25 16.8103 20.6697 17.6216 19.916 18.124C19.9038 18.1322 19.8913 18.14 19.8785 18.1475L13.3959 21.9373C12.5531 22.4876 11.4469 22.4876 10.6041 21.9373L4.14056 18.1586C3.27453 17.7128 2.75 16.7448 2.75 15.8V8.09999C2.75 7.08968 3.33028 6.27842 4.08397 5.77595C4.09624 5.76777 4.10875 5.75996 4.12148 5.75252L10.6041 1.96269C11.4469 1.41242 12.5531 1.41242 13.3959 1.96269ZM12.584 3.22403C12.2359 2.99198 11.7641 2.99198 11.416 3.22403C11.4038 3.2322 11.3913 3.24002 11.3785 3.24746L4.89906 7.03545C4.46415 7.33148 4.25 7.71527 4.25 8.09999V15.8C4.25 16.2465 4.51575 16.6693 4.83541 16.8292C4.85003 16.8365 4.86441 16.8443 4.87852 16.8525L11.3785 20.6525C11.3913 20.66 11.4038 20.6678 11.416 20.676C11.7641 20.908 12.2359 20.908 12.584 20.676C12.5962 20.6678 12.6087 20.66 12.6215 20.6525L19.1009 16.8645C19.5358 16.5685 19.75 16.1847 19.75 15.8V8.09999C19.75 7.65348 19.4842 7.23064 19.1646 7.07081C19.15 7.0635 19.1356 7.05571 19.1215 7.04746L12.6215 3.24746C12.6087 3.24002 12.5962 3.2322 12.584 3.22403ZM11.6141 5.35687C11.8516 5.21436 12.1484 5.21436 12.3859 5.35687L17.3859 8.35687C17.7411 8.56998 17.8562 9.03067 17.6431 9.38586C17.43 9.74104 16.9693 9.85622 16.6141 9.64311L12 6.87463L8.45774 8.99999L10.3212 10.1181L10.9697 9.46966C11.2626 9.17676 11.7374 9.17676 12.0303 9.46966C12.3232 9.76255 12.3232 10.2374 12.0303 10.5303L11.6471 10.9136L13.4462 11.9931L13.9697 11.4697C14.2626 11.1768 14.7374 11.1768 15.0303 11.4697C15.3232 11.7626 15.3232 12.2374 15.0303 12.5303L14.7721 12.7886L17.3859 14.3569C17.6118 14.4924 17.75 14.7365 17.75 15C17.75 15.2634 17.6118 15.5076 17.3859 15.6431L12.3859 18.6431C12.1484 18.7856 11.8516 18.7856 11.6141 18.6431L6.61413 15.6431C6.25894 15.43 6.14377 14.9693 6.35688 14.6141C6.56999 14.2589 7.03069 14.1438 7.38587 14.3569L12 17.1253L15.5423 15L13.6788 13.8819L13.0303 14.5303C12.7374 14.8232 12.2626 14.8232 11.9697 14.5303C11.6768 14.2374 11.6768 13.7626 11.9697 13.4697L12.3529 13.0864L10.5538 12.0069L10.0303 12.5303C9.73744 12.8232 9.26256 12.8232 8.96967 12.5303C8.67678 12.2374 8.67678 11.7626 8.96967 11.4697L9.22794 11.2114L6.61413 9.64311C6.38822 9.50757 6.25 9.26343 6.25 8.99999C6.25 8.73654 6.38822 8.49241 6.61413 8.35687L11.6141 5.35687Z" fill="#595854"/>
</svg>
