<svg width="24" height="24" viewBox="0 0 24 24" fill="none" xmlns="http://www.w3.org/2000/svg">
<path fill-rule="evenodd" clip-rule="evenodd" d="M7.97 6.75C5.07421 6.75 2.72 9.10421 2.72 12C2.72 14.8958 5.07421 17.25 7.97 17.25C9.31739 17.25 10.5396 16.7436 11.4665 15.9041L11.4725 15.8987L11.4726 15.8987C12.5468 14.9467 13.22 13.5489 13.22 12C13.22 10.4511 12.5468 9.05329 11.4726 8.10131L11.4665 8.09594L11.4665 8.0959C10.5396 7.25637 9.31739 6.75 7.97 6.75ZM1.22 12C1.22 8.27579 4.24579 5.25 7.97 5.25C9.46879 5.25 10.8518 5.73912 11.97 6.57054C13.0882 5.73912 14.4712 5.25 15.97 5.25C19.6942 5.25 22.72 8.27579 22.72 12C22.72 15.7242 19.6942 18.75 15.97 18.75C14.4712 18.75 13.0882 18.2609 11.97 17.4295C10.8518 18.2609 9.46879 18.75 7.97 18.75C4.24579 18.75 1.22 15.7242 1.22 12ZM13.0937 16.3865C13.9183 16.9337 14.905 17.25 15.97 17.25C18.8658 17.25 21.22 14.8958 21.22 12C21.22 9.10421 18.8658 6.75 15.97 6.75C14.905 6.75 13.9183 7.06633 13.0937 7.61348C14.1093 8.79071 14.72 10.3288 14.72 12C14.72 13.6712 14.1093 15.2093 13.0937 16.3865Z" fill="#595854"/>
</svg>
