<svg width="24" height="24" viewBox="0 0 24 24" fill="none" xmlns="http://www.w3.org/2000/svg">
<path fill-rule="evenodd" clip-rule="evenodd" d="M20.6828 2.77869C19.2331 3.3625 17.4804 4.40756 15.8258 5.63595C14.9576 6.28053 14.1293 6.96601 13.3962 7.6486C14.7891 8.08669 15.8889 9.17716 16.3434 10.5591C17.0189 9.83106 17.6963 9.00981 18.3334 8.14888C19.5585 6.49336 20.6002 4.73761 21.1838 3.28108L21.1847 3.27892C21.2217 3.18728 21.2222 3.11183 21.208 3.04991C21.1927 2.98375 21.1563 2.91702 21.0997 2.86035C21.0042 2.76488 20.8544 2.71484 20.6828 2.77869ZM15.066 11.8229C14.986 10.2491 13.7113 8.98866 12.1225 8.94139C11.9637 9.11963 11.8144 9.29562 11.6757 9.46852C11.6754 9.4688 11.6752 9.46908 11.675 9.46937L10.7228 10.6634C11.3127 10.8543 11.8694 11.1887 12.3503 11.6697C12.8173 12.1367 13.144 12.664 13.3331 13.2341L14.5106 12.295C14.5109 12.2948 14.5112 12.2946 14.5115 12.2943C14.6933 12.1484 14.8785 11.9909 15.066 11.8229ZM9.25569 10.0973L10.5036 8.5324L10.505 8.53067C11.5931 7.17448 13.2113 5.70878 14.9317 4.43158C16.652 3.15442 18.5213 2.03086 20.1303 1.38413L20.1417 1.37953C20.9082 1.08598 21.6766 1.316 22.1603 1.79969C22.6503 2.28967 22.8895 3.06278 22.5758 3.84003C21.9293 5.45326 20.8113 7.32206 19.5391 9.04115C18.2668 10.7605 16.8059 12.3766 15.4494 13.465L15.4476 13.4664L13.8676 14.7264C13.8618 14.731 13.8559 14.7356 13.85 14.74C13.7388 14.8234 13.6237 14.902 13.5016 14.9743C13.3958 15.8721 12.9966 16.7137 12.3445 17.3762L12.3403 17.3804C11.7317 17.989 10.9179 18.4034 9.96419 18.5241L9.9495 18.5258L7.98359 18.7353C7.98278 18.7354 7.98198 18.7355 7.98117 18.7356C6.43342 18.9077 5.11296 17.594 5.28435 16.0293C5.2844 16.0289 5.28446 16.0284 5.28451 16.0279L5.49438 14.0591C5.70917 12.0808 7.23944 10.7679 8.949 10.5288C9.03573 10.377 9.13758 10.2318 9.25569 10.0973ZM9.34975 11.9946C8.17239 12.0685 7.12643 12.927 6.98569 14.2203C6.98567 14.2205 6.98571 14.2201 6.98569 14.2203L6.77578 16.1895L6.7755 16.1921C6.70792 16.806 7.22567 17.3109 7.81641 17.2447L7.8205 17.2442L9.78277 17.0351C10.4046 16.9549 10.9077 16.6907 11.2775 16.3218C11.7402 15.8509 11.9996 15.2457 12.0275 14.6057C12.0225 14.571 12.02 14.5357 12.02 14.5C12.02 14.3853 12.0125 14.2676 11.9962 14.1365C11.9278 13.6326 11.7043 13.1571 11.2847 12.7453L11.2796 12.7404C10.8527 12.3134 10.3535 12.0792 9.84572 12.0068C9.69278 11.9974 9.58634 11.9923 9.48678 11.9986C9.44064 12.0014 9.39479 12 9.34975 11.9946ZM3.06467 3.09469C4.39914 1.76022 6.39603 1.25002 8.97 1.25002H10.97C11.3842 1.25002 11.72 1.5858 11.72 2.00002C11.72 2.41423 11.3842 2.75002 10.97 2.75002H8.97C6.54397 2.75002 5.04086 3.23982 4.12533 4.15535C3.2098 5.07088 2.72 6.57399 2.72 9.00002V15C2.72 17.426 3.2098 18.9292 4.12533 19.8447C5.04086 20.7602 6.54397 21.25 8.97 21.25H14.97C17.396 21.25 18.8991 20.7602 19.8147 19.8447C20.7302 18.9292 21.22 17.426 21.22 15V13C21.22 12.5858 21.5558 12.25 21.97 12.25C22.3842 12.25 22.72 12.5858 22.72 13V15C22.72 17.574 22.2098 19.5709 20.8753 20.9053C19.5409 22.2398 17.544 22.75 14.97 22.75H8.97C6.39603 22.75 4.39914 22.2398 3.06467 20.9053C1.7302 19.5709 1.22 17.574 1.22 15V9.00002C1.22 6.42604 1.7302 4.42916 3.06467 3.09469Z" fill="#595854"/>
</svg>
