<svg width="24" height="24" viewBox="0 0 24 24" fill="none" xmlns="http://www.w3.org/2000/svg">
<path fill-rule="evenodd" clip-rule="evenodd" d="M12 2.75C6.89137 2.75 2.75 6.89137 2.75 12C2.75 17.1086 6.89137 21.25 12 21.25C17.1086 21.25 21.25 17.1086 21.25 12C21.25 6.89137 17.1086 2.75 12 2.75ZM1.25 12C1.25 6.06294 6.06294 1.25 12 1.25C17.9371 1.25 22.75 6.06294 22.75 12C22.75 17.9371 17.9371 22.75 12 22.75C6.06294 22.75 1.25 17.9371 1.25 12ZM9.7219 6.13121C10.0139 6.42497 10.0125 6.89984 9.71877 7.19187L9.31825 7.59003H14.9C16.2072 7.59003 17.25 8.64883 17.25 9.94V11.71C17.25 12.1242 16.9142 12.46 16.5 12.46C16.0858 12.46 15.75 12.1242 15.75 11.71V9.94C15.75 9.47118 15.3727 9.09003 14.9 9.09003H9.31066L9.72033 9.4997C10.0132 9.79259 10.0132 10.2675 9.72033 10.5604C9.42744 10.8533 8.95257 10.8533 8.65967 10.5604L6.96967 8.87036C6.82875 8.72943 6.74971 8.53822 6.75 8.33892C6.7503 8.13962 6.8299 7.94864 6.97124 7.80813L8.66124 6.12808C8.955 5.83605 9.42987 5.83745 9.7219 6.13121ZM7.5 11.54C7.91421 11.54 8.25 11.8758 8.25 12.29V14.06C8.25 14.5288 8.62725 14.91 9.10001 14.91H14.6893L14.2797 14.5003C13.9868 14.2074 13.9868 13.7325 14.2797 13.4396C14.5726 13.1467 15.0474 13.1467 15.3403 13.4396L17.0303 15.1296C17.1713 15.2706 17.2503 15.4618 17.25 15.6611C17.2497 15.8604 17.1701 16.0514 17.0288 16.1919L15.3388 17.8719C15.045 18.1639 14.5701 18.1625 14.2781 17.8688C13.9861 17.575 13.9875 17.1002 14.2812 16.8081L14.6818 16.41H9.10001C7.79276 16.41 6.75 15.3512 6.75 14.06V12.29C6.75 11.8758 7.08579 11.54 7.5 11.54Z" fill="#595854"/>
</svg>
