<svg width="24" height="24" viewBox="0 0 24 24" fill="none" xmlns="http://www.w3.org/2000/svg">
<path fill-rule="evenodd" clip-rule="evenodd" d="M14.4154 2.60111C13.9484 1.75781 13.0497 1.19 12.02 1.19C10.9918 1.19 10.0941 1.75625 9.62665 2.59763C7.08165 3.56479 5.27005 6.02832 5.27005 8.91V11.8C5.27005 12.0146 5.22147 12.3287 5.12862 12.6631C5.03606 12.9966 4.9161 13.2906 4.8066 13.4747C4.80634 13.4751 4.80609 13.4755 4.80584 13.476L3.65752 15.3831C3.19649 16.1494 3.10017 17.0092 3.38297 17.7729C3.66544 18.5358 4.29719 19.1253 5.1396 19.4104L5.14238 19.4114C6.23098 19.7751 7.34054 20.0501 8.46084 20.2364C8.64779 20.7987 8.96355 21.3042 9.36972 21.7103C10.0442 22.3848 10.9926 22.81 12.02 22.81C13.6745 22.81 15.0858 21.7271 15.5809 20.2345C16.6969 20.0482 17.8021 19.774 18.8866 19.4117C20.5548 18.8595 21.2787 16.8934 20.3732 15.3841L19.2265 13.4797C19.1195 13.2924 19.0019 12.9974 18.9108 12.6654C18.8187 12.3294 18.77 12.0149 18.77 11.8V8.91C18.77 6.03831 16.9553 3.57217 14.4154 2.60111ZM10.4335 3.90476C11.1747 3.69734 11.9732 3.63873 12.817 3.74421L12.8198 3.74455C13.0664 3.77444 13.3101 3.82424 13.5517 3.88962C15.6974 4.54965 17.27 6.55635 17.27 8.91V11.8C17.27 12.1951 17.3514 12.6507 17.4643 13.0621C17.5773 13.4744 17.7383 13.9018 17.9304 14.2348L19.0869 16.1559C19.0868 16.1557 19.087 16.1561 19.0869 16.1559C19.5007 16.8462 19.1654 17.7397 18.4146 17.9879L18.4124 17.9887C14.2571 19.377 9.77437 19.3771 5.61898 17.9891C5.16232 17.8341 4.89954 17.5489 4.78963 17.2521C4.67994 16.9558 4.69372 16.5706 4.94257 16.1569C4.94254 16.1569 4.94261 16.1568 4.94257 16.1569L6.09257 14.2469L6.09426 14.2441C6.29455 13.9081 6.45925 13.4776 6.57397 13.0644C6.68862 12.6513 6.77005 12.1954 6.77005 11.8V8.91C6.77005 6.567 8.31124 4.57854 10.4335 3.90476ZM13.7786 20.4581C12.6078 20.5537 11.4312 20.554 10.2603 20.4588C10.3135 20.5258 10.3703 20.5896 10.4304 20.6497C10.8359 21.0552 11.4075 21.31 12.02 21.31C12.7291 21.31 13.3652 20.9761 13.7786 20.4581Z" fill="#595854"/>
</svg>
