<svg width="24" height="24" viewBox="0 0 24 24" fill="none" xmlns="http://www.w3.org/2000/svg">
<path fill-rule="evenodd" clip-rule="evenodd" d="M8 1.25C8.41421 1.25 8.75 1.58579 8.75 2V2.75H15.25V2C15.25 1.58579 15.5858 1.25 16 1.25C16.4142 1.25 16.75 1.58579 16.75 2V2.78025C18.2859 2.90808 19.5038 3.44034 20.3621 4.36466C21.3464 5.42465 21.75 6.88503 21.75 8.5V16.0918C22.3722 16.896 22.75 17.9021 22.75 19C22.75 19.8885 22.5017 20.7327 22.0615 21.4486C21.2406 22.8246 19.732 23.75 18 23.75C16.9087 23.75 15.8998 23.3845 15.0965 22.75H8C6.10705 22.75 4.63152 22.2054 3.6379 21.1353C2.65363 20.0754 2.25 18.615 2.25 17V8.5C2.25 6.88503 2.65363 5.42465 3.6379 4.36466C4.4962 3.44034 5.71409 2.90808 7.25 2.78025V2C7.25 1.58579 7.58579 1.25 8 1.25ZM7.25 4.28628C6.06502 4.40668 5.26412 4.81778 4.7371 5.38534C4.12128 6.04852 3.77738 7.03465 3.75157 8.34H20.2484C20.2226 7.03465 19.8787 6.04852 19.2629 5.38534C18.7359 4.81778 17.935 4.40668 16.75 4.28628V5C16.75 5.41421 16.4142 5.75 16 5.75C15.5858 5.75 15.25 5.41421 15.25 5V4.25H8.75V5C8.75 5.41421 8.41421 5.75 8 5.75C7.58579 5.75 7.25 5.41421 7.25 5V4.28628ZM20.25 9.84H3.75V17C3.75 18.385 4.09637 19.4246 4.7371 20.1147C5.36848 20.7946 6.39295 21.25 8 21.25H13.8231C13.4552 20.5787 13.25 19.8077 13.25 19C13.25 16.3758 15.3758 14.25 18 14.25C18.8165 14.25 19.5822 14.4568 20.25 14.818V9.84ZM20.4361 16.8545C19.8412 16.1785 18.9731 15.75 18 15.75C16.2042 15.75 14.75 17.2042 14.75 19C14.75 19.6094 14.9205 20.1833 15.2184 20.6663L15.2278 20.6821C15.3948 20.9684 15.609 21.2216 15.852 21.4254C15.8531 21.4263 15.8542 21.4273 15.8554 21.4282C15.8609 21.4329 15.8663 21.4377 15.8717 21.4425C16.4355 21.9499 17.1773 22.25 18 22.25C19.1859 22.25 20.2156 21.6177 20.7754 20.6766L20.7815 20.6663L20.7816 20.6663C21.0795 20.1833 21.25 19.6094 21.25 19C21.25 18.1834 20.9439 17.4365 20.4361 16.8545ZM7.54431 13.7C7.54431 13.2858 7.8801 12.95 8.29431 12.95H8.30329C8.71751 12.95 9.05329 13.2858 9.05329 13.7C9.05329 14.1142 8.71751 14.45 8.30329 14.45H8.29431C7.8801 14.45 7.54431 14.1142 7.54431 13.7ZM11.2455 13.7C11.2455 13.2858 11.5813 12.95 11.9955 12.95H12.0045C12.4187 12.95 12.7545 13.2858 12.7545 13.7C12.7545 14.1142 12.4187 14.45 12.0045 14.45H11.9955C11.5813 14.45 11.2455 14.1142 11.2455 13.7ZM7.54431 16.7C7.54431 16.2858 7.8801 15.95 8.29431 15.95H8.30329C8.71751 15.95 9.05329 16.2858 9.05329 16.7C9.05329 17.1142 8.71751 17.45 8.30329 17.45H8.29431C7.8801 17.45 7.54431 17.1142 7.54431 16.7ZM20.1106 17.5107C20.3919 17.8148 20.3733 18.2893 20.0692 18.5706L17.9392 20.5406C17.6435 20.8141 17.1845 20.8052 16.8997 20.5203L15.9097 19.5303C15.6168 19.2374 15.6168 18.7626 15.9097 18.4697C16.2026 18.1768 16.6774 18.1768 16.9703 18.4697L17.4503 18.9496L19.0508 17.4694C19.3548 17.1881 19.8294 17.2067 20.1106 17.5107Z" fill="#595854"/>
</svg>
