<svg width="24" height="24" viewBox="0 0 24 24" fill="none" xmlns="http://www.w3.org/2000/svg">
<path fill-rule="evenodd" clip-rule="evenodd" d="M12 2.75C6.89137 2.75 2.75 6.89137 2.75 12C2.75 17.1086 6.89137 21.25 12 21.25C17.1086 21.25 21.25 17.1086 21.25 12C21.25 6.89137 17.1086 2.75 12 2.75ZM1.25 12C1.25 6.06294 6.06294 1.25 12 1.25C17.9371 1.25 22.75 6.06294 22.75 12C22.75 17.9371 17.9371 22.75 12 22.75C6.06294 22.75 1.25 17.9371 1.25 12ZM10.2778 6.19753C10.3686 5.87378 10.6638 5.65 11 5.65H14.1C14.3329 5.65 14.5526 5.7582 14.6946 5.94284C14.8365 6.12747 14.8847 6.36759 14.8248 6.59268L13.7939 10.4709L14.8566 10.2638C15.2632 10.1846 15.657 10.45 15.7362 10.8566C15.8154 11.2632 15.55 11.657 15.1434 11.7362L13.3655 12.0825L12.9754 13.55H16.2C16.422 13.55 16.6326 13.6483 16.7751 13.8185C16.9176 13.9887 16.9773 14.2133 16.9383 14.4318L16.4383 17.2318C16.3744 17.5895 16.0634 17.85 15.7 17.85H8C7.76531 17.85 7.54415 17.7401 7.40236 17.5531C7.26056 17.3661 7.21449 17.1235 7.27785 16.8975L8.35414 13.0587L7.44341 13.2362C7.03684 13.3154 6.64304 13.05 6.56384 12.6434C6.48464 12.2368 6.75002 11.843 7.15659 11.7638L8.80736 11.4423L10.2778 6.19753ZM10.002 12.7377L8.9892 16.35H15.0721L15.3042 15.05H12C11.7671 15.05 11.5474 14.9418 11.4054 14.7572C11.2635 14.5725 11.2153 14.3324 11.2752 14.1073L11.7287 12.4014L10.002 12.7377ZM12.1571 10.7897L10.4552 11.1213L11.5686 7.15H13.1246L12.1571 10.7897Z" fill="#595854"/>
</svg>
