<svg width="24" height="24" viewBox="0 0 24 24" fill="none" xmlns="http://www.w3.org/2000/svg">
<path fill-rule="evenodd" clip-rule="evenodd" d="M11.6677 1.32768C11.8772 1.22411 12.123 1.22411 12.3325 1.32768L21.2325 5.72768C21.4882 5.85411 21.6501 6.1147 21.6501 6.4V9.8C21.6501 10.2142 21.3143 10.55 20.9001 10.55C20.4859 10.55 20.1501 10.2142 20.1501 9.8V6.86586L12.0001 2.83665L3.8501 6.86586V9.8C3.8501 10.2142 3.51431 10.55 3.1001 10.55C2.68588 10.55 2.3501 10.2142 2.3501 9.8V6.4C2.3501 6.1147 2.51196 5.85411 2.76771 5.72768L11.6677 1.32768ZM12.0001 8.35C9.98426 8.35 8.3501 9.98416 8.3501 12C8.3501 14.0158 9.98426 15.65 12.0001 15.65C14.0159 15.65 15.6501 14.0158 15.6501 12C15.6501 9.98416 14.0159 8.35 12.0001 8.35ZM6.8501 12C6.8501 9.15573 9.15583 6.85 12.0001 6.85C14.8444 6.85 17.1501 9.15573 17.1501 12C17.1501 14.5895 15.2389 16.7327 12.7501 17.0958V20.7926L20.1501 17.1341V14.2C20.1501 13.7858 20.4859 13.45 20.9001 13.45C21.3143 13.45 21.6501 13.7858 21.6501 14.2V17.6C21.6501 17.8853 21.4882 18.1459 21.2325 18.2723L12.3325 22.6723C12.123 22.7759 11.8772 22.7759 11.6677 22.6723L2.76771 18.2723C2.51196 18.1459 2.3501 17.8853 2.3501 17.6V14.2C2.3501 13.7858 2.68588 13.45 3.1001 13.45C3.51431 13.45 3.8501 13.7858 3.8501 14.2V17.1341L11.2501 20.7926V17.0958C8.76131 16.7327 6.8501 14.5895 6.8501 12Z" fill="#595854"/>
</svg>
