<svg width="24" height="24" viewBox="0 0 24 24" fill="none" xmlns="http://www.w3.org/2000/svg">
<path fill-rule="evenodd" clip-rule="evenodd" d="M19.25 7.61103C19.25 6.11711 17.7662 5.32929 16.6706 5.99402L12.6424 8.43561L8.61323 10.888L8.61232 10.8885C7.44312 11.5979 7.44312 13.403 8.61232 14.1123L8.61323 14.1129L12.6424 16.5652L16.6703 19.0067C17.7637 19.6701 19.25 18.8762 19.25 17.3899V7.61103ZM15.8928 4.71143C18.0981 3.37371 20.75 5.07908 20.75 7.61103V17.3899C20.75 19.9089 18.1003 21.6285 15.8928 20.2895C15.8927 20.2894 15.8929 20.2895 15.8928 20.2895L11.8637 17.8473L7.83425 15.3948C7.83412 15.3947 7.83438 15.3948 7.83425 15.3948C5.70318 14.1014 5.70261 10.9003 7.83335 9.60665C7.8333 9.60668 7.83339 9.60662 7.83335 9.60665C7.8336 9.60649 7.83399 9.60626 7.83425 9.6061L11.8625 7.15429L15.8928 4.71143C15.8929 4.71137 15.8927 4.71149 15.8928 4.71143ZM4 5.43049C4.41421 5.43049 4.75 5.76628 4.75 6.18049L4.75 18.8102C4.75 19.2244 4.41421 19.5602 4 19.5602C3.58579 19.5602 3.25 19.2244 3.25 18.8102L3.25 6.18049C3.25 5.76628 3.58579 5.43049 4 5.43049Z" fill="#595854"/>
</svg>
