<svg width="24" height="24" viewBox="0 0 24 24" fill="none" xmlns="http://www.w3.org/2000/svg">
<path fill-rule="evenodd" clip-rule="evenodd" d="M11.0835 2.40423C9.71016 2.40423 8.58298 3.53137 8.58298 4.90395V4.9946H12.9165C13.0088 4.9946 13.1004 4.99784 13.1911 5.00422C15.2127 5.14616 16.8213 6.84242 16.8213 8.89855V15.4666L20.2579 17.3847C20.2584 17.385 20.2589 17.3852 20.2594 17.3855C20.7773 17.6705 21.0955 17.6111 21.2431 17.5244C21.3899 17.438 21.5957 17.1904 21.5957 16.5995V4.90395C21.5957 3.53137 20.4686 2.40423 19.0952 2.40423H11.0835ZM16.8213 17.0747L19.5769 18.6127L19.5802 18.6146C20.3692 19.0494 21.24 19.1551 21.9548 18.7349C22.6704 18.3142 23 17.5014 23 16.5995V4.90395C23 2.75553 21.2438 1 19.0952 1H11.0835C8.93491 1 7.17872 2.75553 7.17872 4.90395V4.9946H4.90475C2.75619 4.9946 1 6.75013 1 8.89855V20.5941C1 20.7067 1.00514 20.818 1.01554 20.9274C1.0883 21.6929 1.41846 22.363 2.0439 22.7325C2.76005 23.1557 3.63284 23.0489 4.42324 22.6072C4.42316 22.6073 4.42333 22.6072 4.42324 22.6072L8.46517 20.3554C8.46571 20.3551 8.46624 20.3548 8.46678 20.3545C8.4884 20.3428 8.51431 20.3314 8.54398 20.3209C8.63503 20.2885 8.76181 20.2641 8.90999 20.2641C9.10702 20.2642 9.26069 20.3077 9.33952 20.3519L9.34126 20.3529L13.3875 22.6071C13.3874 22.607 13.3876 22.6072 13.3875 22.6071C14.0927 23.0012 14.8639 23.1288 15.5305 22.8511C15.6141 22.8169 15.696 22.7765 15.776 22.7295C16.4917 22.3088 16.8213 21.496 16.8213 20.5941V17.0747ZM10.0254 19.1266C9.68232 18.9345 9.27545 18.8598 8.90935 18.8598C8.54199 18.8598 8.13555 18.935 7.79081 19.1237L3.74207 21.3793C3.7416 21.3796 3.74113 21.3798 3.74067 21.3801C3.22269 21.6651 2.90448 21.6057 2.75694 21.519C2.63141 21.4452 2.4627 21.2534 2.41642 20.83C2.40858 20.7582 2.40426 20.6797 2.40426 20.5941V8.89855C2.40426 7.52597 3.53144 6.39883 4.90475 6.39883H12.9165C13.2826 6.39883 13.6312 6.47892 13.9456 6.62241C14.8096 7.017 15.4126 7.89077 15.4067 8.89444L15.4067 20.5941C15.4067 21.1856 15.2003 21.4364 15.0527 21.5236C15.0374 21.5326 15.0203 21.5413 15.0014 21.5494C14.8346 21.6151 14.5342 21.6297 14.0806 21.3801C14.0801 21.3798 14.0797 21.3796 14.0792 21.3793" fill="#595854"/>
</svg>
