<svg width="24" height="24" viewBox="0 0 24 24" fill="none" xmlns="http://www.w3.org/2000/svg">
<path fill-rule="evenodd" clip-rule="evenodd" d="M7.17482 2.89695C7.38638 3.25306 7.26921 3.71325 6.91311 3.92482C5.19897 4.94322 4.24059 5.60952 3.64381 6.67124C3.09088 7.65497 2.80227 9.0673 2.75649 11.6H7.79999C9.76515 11.6 11.13 13.117 11.13 14.93V18.15C11.13 19.963 9.76513 21.48 7.79999 21.48H4.58002C2.74583 21.48 1.25 19.9843 1.25 18.15V12.35C1.25 9.3114 1.52648 7.37688 2.33621 5.93627C3.15446 4.48052 4.46109 3.63684 6.14695 2.63524C6.50306 2.42368 6.96325 2.54085 7.17482 2.89695ZM2.75 13.1V18.15C2.75 19.1558 3.57421 19.98 4.58002 19.98H7.79999C8.89485 19.98 9.63 19.1771 9.63 18.15V14.93C9.63 13.9029 8.89483 13.1 7.79999 13.1H2.75ZM18.8048 2.89695C19.0163 3.25306 18.8992 3.71325 18.5431 3.92482C16.8289 4.94322 15.8705 5.60951 15.2738 6.67123C14.7209 7.65497 14.4323 9.0673 14.3865 11.6H19.43C21.3952 11.6 22.76 13.117 22.76 14.93V18.15C22.76 19.963 21.3951 21.48 19.43 21.48H16.21C14.3758 21.48 12.88 19.9843 12.88 18.15V12.35C12.88 9.31141 13.1565 7.37689 13.9662 5.93627C14.7844 4.48052 16.091 3.63685 17.7769 2.63524C18.133 2.42368 18.5932 2.54085 18.8048 2.89695ZM14.38 13.1V18.15C14.38 19.1558 15.2042 19.98 16.21 19.98H19.43C20.5249 19.98 21.26 19.1771 21.26 18.15V14.93C21.26 13.9029 20.5248 13.1 19.43 13.1H14.38Z" fill="#595854"/>
</svg>
