<svg width="24" height="24" viewBox="0 0 24 24" fill="none" xmlns="http://www.w3.org/2000/svg">
<path fill-rule="evenodd" clip-rule="evenodd" d="M7.72918 4.13541C7.25087 3.1788 8.00863 2.25 8.9 2.25H15.7C15.9138 2.25 16.1289 2.30092 16.3104 2.39168C16.4008 2.43686 16.5135 2.50718 16.6139 2.61482C16.6728 2.67791 16.7477 2.77663 16.7971 2.90815L23.4184 14.4706C23.5786 14.6821 23.625 14.924 23.625 15.1125C23.625 15.3368 23.5629 15.5512 23.4708 15.7354L23.4492 15.7786L19.6817 21.3789L19.6303 21.4303C19.6269 21.4338 19.6233 21.4374 19.6194 21.4413C19.5036 21.5578 19.2129 21.85 18.7 21.85H12.2C11.6871 21.85 11.3965 21.5578 11.2806 21.4413C11.2767 21.4374 11.2731 21.4338 11.2697 21.4303L11.2158 21.3765L8.31208 16.974L6.07512 20.7321C5.86347 21.2173 5.37703 21.375 5.0375 21.375C4.66637 21.375 4.23691 21.2075 3.97596 20.816L0.550062 15.6772L0.52918 15.6354C0.323607 15.2243 0.323607 14.7757 0.52918 14.3646L0.550766 14.3214L4.21864 8.86918C4.26733 8.75698 4.33317 8.67152 4.38608 8.61482C4.48655 8.50718 4.59923 8.43686 4.68959 8.39168C4.8711 8.30092 5.08624 8.25 5.3 8.25H10.1797L7.74158 4.16022L7.72918 4.13541ZM10.6362 9.75H5.43392L1.90174 15.0005L4.98672 19.628L7.26533 15.7999L7.27596 15.784C7.28363 15.7725 7.29143 15.7611 7.29936 15.75H7.20762L10.6362 9.75ZM9.30064 15.75C9.30857 15.7611 9.31637 15.7725 9.32404 15.784L9.32609 15.787L12.3357 20.35H18.5661L22.0722 15.1383L15.5507 3.75H9.24335L12.8203 9.75H12.7724L15.1391 13.8072C15.3938 14.2084 15.3659 14.6803 15.206 15.0268C15.0359 15.3953 14.6529 15.75 14.1 15.75H9.30064ZM11.7067 10.9L9.79239 14.25H13.6609L11.7067 10.9Z" fill="#595854"/>
</svg>
