<svg width="24" height="24" viewBox="0 0 24 24" fill="none" xmlns="http://www.w3.org/2000/svg">
<path fill-rule="evenodd" clip-rule="evenodd" d="M8.60717 2.60717C9.60414 1.6102 11.076 1.25 12.9 1.25H17.1C18.924 1.25 20.3959 1.6102 21.3928 2.60717C22.3898 3.60414 22.75 5.07603 22.75 6.9V11.1C22.75 12.924 22.3898 14.3959 21.3928 15.3928C20.3959 16.3898 18.924 16.75 17.1 16.75H16.75V17.1C16.75 18.924 16.3898 20.3959 15.3928 21.3928C14.3959 22.3898 12.924 22.75 11.1 22.75H6.9C5.07603 22.75 3.60414 22.3898 2.60717 21.3928C1.6102 20.3959 1.25 18.924 1.25 17.1V12.9C1.25 11.076 1.6102 9.60414 2.60717 8.60717C3.60414 7.6102 5.07603 7.25 6.9 7.25H7.25V6.9C7.25 5.07603 7.6102 3.60414 8.60717 2.60717ZM8.75 7.25H11.1C12.924 7.25 14.3959 7.6102 15.3928 8.60717C16.3898 9.60414 16.75 11.076 16.75 12.9V15.25H17.1C18.776 15.25 19.7541 14.9102 20.3322 14.3322C20.9102 13.7541 21.25 12.776 21.25 11.1V6.9C21.25 5.22397 20.9102 4.24586 20.3322 3.66783C19.7541 3.0898 18.776 2.75 17.1 2.75H12.9C11.224 2.75 10.2459 3.0898 9.66783 3.66783C9.0898 4.24586 8.75 5.22397 8.75 6.9V7.25ZM6.9 8.75C5.22397 8.75 4.24586 9.0898 3.66783 9.66783C3.0898 10.2459 2.75 11.224 2.75 12.9V17.1C2.75 18.776 3.0898 19.7541 3.66783 20.3322C4.24586 20.9102 5.22397 21.25 6.9 21.25H11.1C12.776 21.25 13.7541 20.9102 14.3322 20.3322C14.9102 19.7541 15.25 18.776 15.25 17.1V12.9C15.25 11.224 14.9102 10.2459 14.3322 9.66783C13.7541 9.0898 12.776 8.75 11.1 8.75H6.9ZM12.4497 12.519C12.743 12.8115 12.7436 13.2864 12.4511 13.5796L8.56109 17.4796C8.4205 17.6206 8.22964 17.6999 8.03056 17.7C7.83148 17.7001 7.64052 17.6211 7.49975 17.4803L5.54975 15.5303C5.25686 15.2374 5.25686 14.7626 5.54975 14.4697C5.84264 14.1768 6.31752 14.1768 6.61041 14.4697L8.0294 15.8886L11.3891 12.5203C11.6816 12.2271 12.1565 12.2265 12.4497 12.519Z" fill="#595854"/>
</svg>
