<svg width="24" height="24" viewBox="0 0 24 24" fill="none" xmlns="http://www.w3.org/2000/svg">
<path fill-rule="evenodd" clip-rule="evenodd" d="M4.09467 3.09467C5.42914 1.7602 7.42603 1.25 10 1.25H14C16.574 1.25 18.5709 1.7602 19.9053 3.09467C21.2398 4.42914 21.75 6.42603 21.75 9V15C21.75 17.574 21.2398 19.5709 19.9053 20.9053C18.5709 22.2398 16.574 22.75 14 22.75H10C7.42603 22.75 5.42914 22.2398 4.09467 20.9053C2.7602 19.5709 2.25 17.574 2.25 15V9C2.25 6.42603 2.7602 4.42914 4.09467 3.09467ZM5.15533 4.15533C4.2398 5.07086 3.75 6.57397 3.75 9V15C3.75 17.426 4.2398 18.9291 5.15533 19.8447C6.07086 20.7602 7.57397 21.25 10 21.25H14C16.426 21.25 17.9291 20.7602 18.8447 19.8447C19.7602 18.9291 20.25 17.426 20.25 15V9C20.25 6.57397 19.7602 5.07086 18.8447 4.15533C17.9291 3.2398 16.426 2.75 14 2.75H10C7.57397 2.75 6.07086 3.2398 5.15533 4.15533ZM9 6.83C8.58746 6.83 8.25 7.17096 8.25 7.58V8.58C8.25 8.99254 8.59096 9.33 9 9.33H15C15.4125 9.33 15.75 8.98904 15.75 8.58V7.58C15.75 7.16421 15.4158 6.83 15 6.83H9ZM6.75 7.58C6.75 6.34904 7.75254 5.33 9 5.33H15C16.2442 5.33 17.25 6.33579 17.25 7.58V8.58C17.25 9.81096 16.2475 10.83 15 10.83H9C7.76904 10.83 6.75 9.82746 6.75 8.58V7.58ZM7.38612 14C7.38612 13.5858 7.72191 13.25 8.13612 13.25H8.14767C8.56189 13.25 8.89767 13.5858 8.89767 14C8.89767 14.4142 8.56189 14.75 8.14767 14.75H8.13612C7.72191 14.75 7.38612 14.4142 7.38612 14ZM11.2452 14C11.2452 13.5858 11.581 13.25 11.9952 13.25H12.0068C12.421 13.25 12.7568 13.5858 12.7568 14C12.7568 14.4142 12.421 14.75 12.0068 14.75H11.9952C11.581 14.75 11.2452 14.4142 11.2452 14ZM15.1043 14C15.1043 13.5858 15.4401 13.25 15.8543 13.25H15.8659C16.2801 13.25 16.6159 13.5858 16.6159 14C16.6159 14.4142 16.2801 14.75 15.8659 14.75H15.8543C15.4401 14.75 15.1043 14.4142 15.1043 14ZM7.38612 17.5C7.38612 17.0858 7.72191 16.75 8.13612 16.75H8.14767C8.56189 16.75 8.89767 17.0858 8.89767 17.5C8.89767 17.9142 8.56189 18.25 8.14767 18.25H8.13612C7.72191 18.25 7.38612 17.9142 7.38612 17.5ZM11.2452 17.5C11.2452 17.0858 11.581 16.75 11.9952 16.75H12.0068C12.421 16.75 12.7568 17.0858 12.7568 17.5C12.7568 17.9142 12.421 18.25 12.0068 18.25H11.9952C11.581 18.25 11.2452 17.9142 11.2452 17.5ZM15.1043 17.5C15.1043 17.0858 15.4401 16.75 15.8543 16.75H15.8659C16.2801 16.75 16.6159 17.0858 16.6159 17.5C16.6159 17.9142 16.2801 18.25 15.8659 18.25H15.8543C15.4401 18.25 15.1043 17.9142 15.1043 17.5Z" fill="#595854"/>
</svg>
