<svg width="24" height="24" viewBox="0 0 24 24" fill="none" xmlns="http://www.w3.org/2000/svg">
<path fill-rule="evenodd" clip-rule="evenodd" d="M7.66873 3.49888C7.31483 2.91527 6.53693 2.72476 5.94891 3.08133C5.36549 3.4351 5.17491 4.21259 5.53097 4.80053C5.53084 4.80033 5.53109 4.80074 5.53097 4.80053L6.68721 6.69796L8.82491 5.39622L7.66873 3.49888ZM5.40606 7.47812L4.24873 5.5789C3.46529 4.28692 3.87477 2.58482 5.17115 1.79872C6.46283 1.01547 8.16445 1.42455 8.9508 2.72024C8.95098 2.72053 8.95116 2.72083 8.95134 2.72113L10.1061 4.61607L10.3666 4.45742C10.5365 4.35396 10.7405 4.32223 10.9338 4.36921C11.1271 4.41619 11.2938 4.53803 11.3973 4.70792L13.3136 7.85492C14.9967 7.6422 16.6842 8.36507 17.7127 9.75361L20.4842 13.4956C21.6313 15.0552 21.2312 17.1896 19.5588 18.2014C19.5586 18.2015 19.559 18.2012 19.5588 18.2014L18.9748 18.5565C18.9542 18.5722 18.9327 18.5869 18.9101 18.6007C18.8872 18.6146 18.864 18.6271 18.8403 18.6383L16.4322 20.1027C16.4064 20.1235 16.3789 20.1429 16.3498 20.1606C16.3205 20.1785 16.2904 20.1941 16.2598 20.2075L13.8881 21.6497C13.8578 21.6755 13.8251 21.6993 13.7901 21.7206C13.7547 21.7422 13.7183 21.7604 13.6812 21.7755L13.1339 22.1082C13.1332 22.1087 13.1324 22.1092 13.1316 22.1096C11.472 23.1322 9.37966 22.5139 8.52665 20.7703L6.47772 16.5924C6.47753 16.5921 6.47733 16.5917 6.47713 16.5913C5.69562 15.0096 5.85727 13.1245 6.88193 11.7131L4.9915 8.60867C4.77607 8.25489 4.88822 7.79345 5.242 7.57802L5.40606 7.47812ZM11.8064 8.26389L10.5062 6.12865L10.4174 6.18268C10.3713 6.23192 10.3184 6.27513 10.2598 6.3108L6.83976 8.39081C6.78308 8.42529 6.72364 8.45135 6.6629 8.46937L7.96298 10.6043L11.8064 8.26389ZM9.05 11.7207C7.55481 12.6308 7.09798 14.4626 7.82234 15.9276L7.82341 15.9298L9.87341 20.1098C10.3403 21.0647 11.4464 21.3871 12.3461 20.8318L12.3504 20.8292L12.3641 20.8208L11.1094 18.7601C10.894 18.4063 11.0062 17.9448 11.36 17.7294C11.7138 17.514 12.1752 17.6262 12.3906 17.98L13.6458 20.0415L14.9254 19.2633L13.6692 17.2C13.4538 16.8462 13.566 16.3848 13.9197 16.1694C14.2735 15.9539 14.735 16.0661 14.9504 16.4199L16.2071 18.484L17.4871 17.7056L16.2294 15.6401C16.014 15.2863 16.1262 14.8248 16.48 14.6094C16.8338 14.394 17.2952 14.5062 17.5106 14.86L18.7687 16.9263L18.7804 16.9192L18.782 16.9182C19.6886 16.37 19.9084 15.2454 19.2766 14.3853C19.2763 14.385 19.2761 14.3847 19.2759 14.3844L16.5074 10.6465C16.5074 10.6464 16.5074 10.6465 16.5074 10.6465C15.5274 9.32354 13.7033 8.89165 12.21 9.80064L9.05 11.7207Z" fill="#595854"/>
</svg>
