<svg width="24" height="24" viewBox="0 0 24 24" fill="none" xmlns="http://www.w3.org/2000/svg">
<path fill-rule="evenodd" clip-rule="evenodd" d="M16.1037 2.81006C15.9379 2.72286 15.5101 2.66973 14.7796 3.19776L11.7017 5.41623C11.3674 5.66169 10.9514 5.79906 10.5686 5.85759C10.183 5.91655 9.74875 5.90815 9.36165 5.78428L9.35595 5.78245L6.40645 4.81259C5.58686 4.54385 5.19709 4.71536 5.05743 4.85339C4.91681 4.99236 4.74033 5.38213 4.99632 6.20695C4.99626 6.20675 4.99638 6.20714 4.99632 6.20695L6.00557 9.43474C6.0055 9.4345 6.00564 9.43497 6.00557 9.43474C6.13914 9.8596 6.12763 10.3313 6.04166 10.7404C5.95554 11.1503 5.77688 11.5842 5.4887 11.9191L3.50965 14.2181C3.50948 14.2182 3.50982 14.2179 3.50965 14.2181C2.77335 15.0773 2.82453 15.5393 2.88718 15.6669C2.94998 15.7948 3.28392 16.1176 4.41261 16.0609L7.75206 15.8909C8.21614 15.8677 8.68922 16.0043 9.08144 16.2084C9.47349 16.4125 9.86017 16.723 10.1086 17.1263C10.1084 17.1261 10.1087 17.1265 10.1086 17.1263L11.8683 19.9758C11.8683 19.9758 11.8683 19.9758 11.8683 19.9758C12.4638 20.94 12.9184 21.0292 13.0572 21.0083C13.1972 20.9872 13.6064 20.7662 13.8948 19.6696C13.8947 19.6697 13.8948 19.6694 13.8948 19.6696L14.6634 16.735C14.6636 16.734 14.6639 16.733 14.6641 16.7321C14.775 16.2993 15.0347 15.9053 15.3236 15.6037C15.6136 15.3009 15.9946 15.0269 16.415 14.8945L19.6444 13.8848C19.6441 13.8849 19.6446 13.8847 19.6444 13.8848C20.4696 13.624 20.691 13.2558 20.7252 13.0606C20.759 12.8673 20.6784 12.4493 19.9884 11.9286L19.9871 11.9276L17.5105 10.0501C17.1774 9.80283 16.9228 9.44434 16.7539 9.09555C16.584 8.7446 16.4625 8.32427 16.4703 7.91552L16.5403 4.12611C16.5579 3.2231 16.2706 2.89781 16.1037 2.81006ZM18.0401 4.15382C18.0623 3.00714 17.7046 1.957 16.8017 1.48235C15.8977 1.00712 14.8308 1.31006 13.9013 1.9818C13.9012 1.98191 13.9015 1.98168 13.9013 1.9818L10.8217 4.20152L10.8148 4.20652C10.7298 4.26927 10.5626 4.34107 10.3419 4.37482C10.1239 4.40814 9.93421 4.39198 9.82103 4.35634L6.87449 3.38748C5.80441 3.03645 4.71832 3.07958 4.00303 3.78651C3.28868 4.4925 3.23022 5.57757 3.56397 6.65236L4.5748 9.88517C4.61099 10.0001 4.62269 10.1989 4.57371 10.432C4.52483 10.6646 4.4335 10.8457 4.35168 10.9408L2.37181 13.2407L2.37077 13.2419C1.54759 14.2022 1.05591 15.3407 1.54075 16.328C2.02545 17.3151 3.22652 17.6223 4.48783 17.559L7.82764 17.389C7.96356 17.3822 8.17115 17.4256 8.38892 17.539C8.60668 17.6523 8.7598 17.7966 8.83143 17.913L10.5921 20.764C11.2565 21.8398 12.192 22.6557 13.2807 22.4916C14.3682 22.3277 15.024 21.2737 15.3455 20.0507L16.1157 17.11L16.117 17.105C16.1466 16.9888 16.2414 16.8139 16.4068 16.6412C16.5717 16.4692 16.7455 16.3632 16.8651 16.3254C16.8649 16.3255 16.8652 16.3254 16.8651 16.3254L20.094 15.3158L20.0961 15.3151C21.1701 14.976 22.0294 14.309 22.2027 13.3193C22.3763 12.328 21.7924 11.4112 20.893 10.732C20.8927 10.7318 20.8923 10.7315 20.892 10.7313L18.4133 8.85228L18.4056 8.84653C18.3208 8.78395 18.2019 8.64405 18.104 8.44185C18.0064 8.2403 17.9679 8.05561 17.97 7.94436L18.0401 4.15382C18.0401 4.15356 18.0401 4.15408 18.0401 4.15382ZM18.3499 18.4396C18.6428 18.1467 19.1176 18.1467 19.4105 18.4396L22.4405 21.4696C22.7334 21.7625 22.7334 22.2374 22.4405 22.5303C22.1476 22.8232 21.6727 22.8232 21.3798 22.5303L18.3499 19.5003C18.057 19.2074 18.057 18.7325 18.3499 18.4396Z" fill="#595854"/>
</svg>
