<svg width="24" height="24" viewBox="0 0 24 24" fill="none" xmlns="http://www.w3.org/2000/svg">
<path fill-rule="evenodd" clip-rule="evenodd" d="M11.8548 1.88465C13.0678 1.76853 14.2169 2.48626 15.5303 3.79965L18.9903 7.25965C20.2374 8.50671 20.9324 9.64419 20.8469 10.8565C20.764 12.0318 19.9539 13.0167 18.9903 13.9803L13.4192 19.5514C12.8125 20.1556 12.2679 20.6497 11.7506 20.9942C11.2266 21.3432 10.6791 21.5737 10.0759 21.5775C9.47166 21.5812 8.92029 21.3567 8.38986 21.0078C7.86659 20.6636 7.31519 20.1658 6.69966 19.5503L3.23966 16.0903C2.58584 15.4365 2.06795 14.8653 1.71624 14.335C1.35984 13.7977 1.13367 13.2427 1.15287 12.635C1.17193 12.0318 1.42935 11.4984 1.78689 10.9971C2.14088 10.5008 2.6416 9.97021 3.23856 9.37076L3.23966 9.36965L8.80966 3.79965C9.29857 3.31075 9.77197 2.86627 10.2487 2.53278C10.7306 2.19564 11.2574 1.94183 11.8548 1.88465ZM11.1085 3.76187C10.7468 4.01494 10.3514 4.37922 9.87032 4.86031L4.30143 10.4292C4.30122 10.4294 4.30164 10.429 4.30143 10.4292C4.07168 10.6599 3.86751 10.8695 3.68838 11.0612C8.79495 9.98084 14.0929 10.0816 19.1659 11.3783C19.2781 11.1529 19.3367 10.9478 19.3506 10.751C19.3876 10.2258 19.1126 9.50326 17.9297 8.32031L14.4697 4.86031C13.1931 3.5837 12.4822 3.33144 11.9977 3.37782C11.7463 3.40189 11.465 3.51245 11.1085 3.76187ZM18.1666 12.6777C13.0649 11.4817 7.74411 11.541 2.6634 12.8407C2.69125 13.0052 2.77418 13.2163 2.96625 13.5059C3.23078 13.9047 3.65915 14.3885 4.30032 15.0297L7.76032 18.4897C8.3598 19.0891 8.82339 19.4976 9.21418 19.7546C9.59782 20.007 9.85957 20.0788 10.0666 20.0775C10.2746 20.0762 10.5365 20.0006 10.9191 19.7457C11.3082 19.4866 11.7672 19.0796 12.3603 18.489C12.3602 18.4891 12.3605 18.4888 12.3603 18.489L17.9297 12.9197C18.0128 12.8366 18.0917 12.756 18.1666 12.6777ZM20.1362 15.395C20.8212 15.395 21.374 15.8267 21.7218 16.4019L22.3831 17.4941C22.9287 18.4034 23.0913 19.4102 22.6198 20.2413C22.1486 21.072 21.2011 21.45 20.14 21.45C19.0789 21.45 18.1313 21.072 17.6601 20.2413C17.1887 19.4102 17.3513 18.4034 17.8969 17.4941L17.8984 17.4915L18.5568 16.4041C18.9001 15.8273 19.4507 15.395 20.1362 15.395ZM20.0549 16.9282C20.004 16.9625 19.927 17.0344 19.8451 17.1725L19.8416 17.1785L19.1831 18.2659C19.1829 18.2662 19.1826 18.2666 19.1824 18.267C18.7988 18.907 18.8563 19.3099 18.9648 19.5012C19.0736 19.693 19.3911 19.95 20.14 19.95C20.8889 19.95 21.2063 19.693 21.3151 19.5012C21.4237 19.3099 21.4812 18.907 21.0976 18.267C21.0973 18.2666 21.0971 18.2662 21.0969 18.2659L20.4384 17.1784C20.3542 17.0391 20.2749 16.9653 20.2217 16.9297C20.1715 16.8961 20.1437 16.895 20.1362 16.895C20.129 16.895 20.1027 16.896 20.0549 16.9282Z" fill="#595854"/>
</svg>
