<svg width="24" height="24" viewBox="0 0 24 24" fill="none" xmlns="http://www.w3.org/2000/svg">
<path fill-rule="evenodd" clip-rule="evenodd" d="M6.5435 4.14301C5.51667 4.73313 4.75 6.06919 4.75 8.24072V15.7593C4.75 17.9309 5.51667 19.2669 6.5435 19.857C7.56991 20.4469 9.11626 20.4412 11.0062 19.3595L17.107 15.6063C17.1135 15.6023 17.1201 15.5984 17.1267 15.5946C19.0214 14.5072 19.7996 13.1768 19.7996 12C19.7996 10.8233 19.0214 9.49288 17.1267 8.40545C17.1201 8.40165 17.1135 8.39776 17.107 8.39376L11.0062 4.64056C9.11627 3.5589 7.56991 3.55312 6.5435 4.14301ZM5.79608 2.84248C7.44598 1.89428 9.59068 2.09867 11.7626 3.34518C11.7692 3.34897 11.7757 3.35287 11.7822 3.35686L17.8834 7.11029C20.0487 8.35619 21.2996 10.1016 21.2996 12C21.2996 13.8985 20.0487 15.6439 17.8834 16.8898L11.7822 20.6432C11.7757 20.6472 11.7692 20.6511 11.7626 20.6549C9.59068 21.9014 7.44598 22.1058 5.79608 21.1576C4.14484 20.2086 3.25 18.2553 3.25 15.7593V8.24072C3.25 5.74479 4.14484 3.79146 5.79608 2.84248Z" fill="#595854"/>
</svg>
