<svg width="24" height="24" viewBox="0 0 24 24" fill="none" xmlns="http://www.w3.org/2000/svg">
<path fill-rule="evenodd" clip-rule="evenodd" d="M1.8549 3.68484C2.66205 2.23671 4.21734 1.25 6 1.25H15C15.4142 1.25 15.75 1.58579 15.75 2V4.25H16.84C17.8339 4.25 18.7377 4.788 19.2286 5.63341L19.2311 5.63767L20.9416 8.62859L22.6516 11.6286C22.7161 11.7417 22.75 11.8698 22.75 12V17C22.75 19.0742 21.0742 20.75 19 20.75H18.6465C18.32 21.9043 17.2588 22.75 16 22.75C14.7412 22.75 13.68 21.9043 13.3535 20.75H10.6465C10.32 21.9043 9.25878 22.75 8 22.75C6.74122 22.75 5.67998 21.9043 5.35352 20.75H5C2.92579 20.75 1.25 19.0742 1.25 17C1.25 16.5858 1.58579 16.25 2 16.25C2.41421 16.25 2.75 16.5858 2.75 17C2.75 18.2458 3.75421 19.25 5 19.25H5.35352C5.67998 18.0957 6.74122 17.25 8 17.25C9.25878 17.25 10.32 18.0957 10.6465 19.25H13.3535C13.68 18.0957 14.7412 17.25 16 17.25C17.2588 17.25 18.32 18.0957 18.6465 19.25H19C20.2458 19.25 21.25 18.2458 21.25 17V14.75H19C18.0358 14.75 17.25 13.9642 17.25 13V10C17.25 9.03676 18.0342 8.25159 18.9971 8.25L17.9314 6.38661C17.9311 6.38599 17.9307 6.38537 17.9303 6.38475C17.701 5.99126 17.2855 5.75 16.84 5.75H15.75V12C15.75 13.5142 14.5142 14.75 13 14.75H12C11.5858 14.75 11.25 14.4142 11.25 14C11.25 13.5858 11.5858 13.25 12 13.25H13C13.6858 13.25 14.25 12.6858 14.25 12V2.75H6C4.78266 2.75 3.71797 3.42326 3.16512 4.41513C2.96346 4.77694 2.50667 4.90676 2.14487 4.7051C1.78306 4.50344 1.65324 4.04665 1.8549 3.68484ZM19.8542 9.75H19C18.8642 9.75 18.75 9.86421 18.75 10V13C18.75 13.1358 18.8642 13.25 19 13.25H21.25V12.1987L19.8542 9.75ZM6.75 20C6.75 20.6904 7.30964 21.25 8 21.25C8.69036 21.25 9.25 20.6904 9.25 20C9.25 19.3142 8.68579 18.75 8 18.75C7.31421 18.75 6.75 19.3142 6.75 20ZM14.75 20C14.75 20.6904 15.3096 21.25 16 21.25C16.6904 21.25 17.25 20.6904 17.25 20C17.25 19.3142 16.6858 18.75 16 18.75C15.3142 18.75 14.75 19.3142 14.75 20ZM1.25 8C1.25 7.58579 1.58579 7.25 2 7.25H8C8.41421 7.25 8.75 7.58579 8.75 8C8.75 8.41421 8.41421 8.75 8 8.75H2C1.58579 8.75 1.25 8.41421 1.25 8ZM1.25 11C1.25 10.5858 1.58579 10.25 2 10.25H6C6.41421 10.25 6.75 10.5858 6.75 11C6.75 11.4142 6.41421 11.75 6 11.75H2C1.58579 11.75 1.25 11.4142 1.25 11ZM1.25 14C1.25 13.5858 1.58579 13.25 2 13.25H4C4.41421 13.25 4.75 13.5858 4.75 14C4.75 14.4142 4.41421 14.75 4 14.75H2C1.58579 14.75 1.25 14.4142 1.25 14Z" fill="#595854"/>
</svg>
