<svg width="24" height="24" viewBox="0 0 24 24" fill="none" xmlns="http://www.w3.org/2000/svg">
<path fill-rule="evenodd" clip-rule="evenodd" d="M5.47374 2.755C4.24545 2.755 3.1061 3.44813 2.80071 4.76896C2.42779 6.37965 3.43752 7.83494 4.51666 8.87633C5.05226 9.37609 5.88737 9.37613 6.41256 8.87708C7.50091 7.83711 8.51243 6.38071 8.13932 4.76918L8.13881 4.76695C7.83759 3.44769 6.7019 2.755 5.47374 2.755ZM9.60092 4.43195C9.11175 2.29196 7.24777 1.255 5.47374 1.255C3.69959 1.255 1.834 2.29181 1.33932 4.43083M9.60092 4.43195C10.167 6.87957 8.5993 8.86247 7.44808 9.9623L7.4469 9.96342C6.33313 11.0229 4.59094 11.0038 3.48659 9.96674L3.47943 9.96002C2.34004 8.86169 0.772821 6.87813 1.33932 4.43083M11.25 5.00001C11.25 4.58579 11.5858 4.25001 12 4.25001H14.68C17.2238 4.25001 18.4034 7.39845 16.4947 9.07368L8.50382 16.0645L8.50243 16.0657C7.63643 16.8195 8.1722 18.25 9.31999 18.25H12C12.4142 18.25 12.75 18.5858 12.75 19C12.75 19.4142 12.4142 19.75 12 19.75H9.31999C6.78807 19.75 5.60382 16.6012 7.51689 14.9349C7.51667 14.9351 7.51711 14.9347 7.51689 14.9349L15.5052 7.94633C15.5051 7.94646 15.5054 7.9462 15.5052 7.94633C16.3759 7.18146 15.836 5.75 14.68 5.75H12C11.5858 5.75 11.25 5.41422 11.25 5.00001ZM4.73621 5.5C4.73621 5.08579 5.07199 4.75001 5.48621 4.75001H5.49776C5.91197 4.75001 6.24776 5.08579 6.24776 5.5C6.24776 5.91422 5.91197 6.25 5.49776 6.25H5.48621C5.07199 6.25 4.73621 5.91422 4.73621 5.5ZM18.49 14.755C17.2498 14.755 16.1055 15.4507 15.8007 16.769C15.4278 18.3795 16.4383 19.8359 17.5344 20.8742C18.0701 21.3762 18.9172 21.3768 19.4431 20.8766L19.4443 20.8754C20.541 19.837 21.5523 18.3803 21.1793 16.7692C20.8745 15.451 19.7301 14.755 18.49 14.755ZM22.6407 16.4311C22.1455 14.2893 20.2698 13.255 18.49 13.255C16.7102 13.255 14.8346 14.2892 14.3393 16.4308M14.3393 16.4308C13.7725 18.8796 15.341 20.863 16.5043 21.9646L14.3393 16.4308ZM20.4757 21.9646C21.639 20.863 23.2075 18.8798 22.6407 16.4311L20.4757 21.9646ZM17.7362 17.5C17.7362 17.0858 18.072 16.75 18.4862 16.75H18.4978C18.912 16.75 19.2478 17.0858 19.2478 17.5C19.2478 17.9142 18.912 18.25 18.4978 18.25H18.4862C18.072 18.25 17.7362 17.9142 17.7362 17.5ZM20.4757 21.9646C19.3618 23.0228 17.6105 23.0034 16.5066 21.9667L16.5043 21.9646" fill="#595854"/>
</svg>
