<svg width="24" height="24" viewBox="0 0 24 24" fill="none" xmlns="http://www.w3.org/2000/svg">
<path fill-rule="evenodd" clip-rule="evenodd" d="M13.1532 6.94051L8.53628 9.61875C7.24004 10.3685 6.75745 11.2526 6.75745 11.985C6.75745 12.7174 7.23922 13.601 8.53546 14.3508L13.1555 17.0308C14.4505 17.7796 15.4571 17.7553 16.0912 17.3892C16.7257 17.0229 17.2499 16.1639 17.2499 14.67V9.33C17.2499 7.83109 16.7256 6.97119 16.0899 6.60255C15.4538 6.23362 14.4473 6.20645 13.1532 6.94051ZM16.8424 5.30495C18.0993 6.03381 18.7499 7.50891 18.7499 9.33V14.67C18.7499 16.4861 18.0992 17.9621 16.8412 18.6883C15.5829 19.4146 13.979 19.2399 12.4044 18.3292L7.78444 15.6492C7.78416 15.6491 7.78471 15.6494 7.78444 15.6492C6.21116 14.739 5.25745 13.4374 5.25745 11.985C5.25745 10.5325 6.21046 9.23132 7.78392 8.32107C7.78375 8.32117 7.78409 8.32097 7.78392 8.32107L12.4095 5.63781C13.9841 4.74356 15.5866 4.57666 16.8424 5.30495Z" fill="#595854"/>
</svg>
