<svg width="24" height="24" viewBox="0 0 24 24" fill="none" xmlns="http://www.w3.org/2000/svg">
<path fill-rule="evenodd" clip-rule="evenodd" d="M20.1973 1.55376C21.1267 2.09701 21.59 3.15025 21.59 4.60001V6.3837C21.5903 6.3949 21.5903 6.40607 21.59 6.41721V16.8C21.59 18.9374 19.8574 20.67 17.72 20.67C15.5827 20.67 13.85 18.9373 13.85 16.8C13.85 14.6627 15.5827 12.93 17.72 12.93C18.6129 12.93 19.4352 13.2324 20.09 13.7404V7.38195L10.15 10.0929V18.87C10.15 18.8733 10.15 18.8767 10.15 18.88C10.15 21.0173 8.41738 22.75 6.28003 22.75C4.14269 22.75 2.41003 21.0174 2.41003 18.88C2.41003 16.7427 4.14269 15.01 6.28003 15.01C7.17294 15.01 7.99521 15.3124 8.65003 15.8204V9.5363C8.64978 9.52511 8.64978 9.51396 8.65003 9.50284V6.30001C8.65003 4.64046 9.67749 3.45955 11.1229 3.06637C11.1228 3.0664 11.123 3.06634 11.1229 3.06637L17.3627 1.36644C17.3626 1.36645 17.3628 1.36642 17.3627 1.36644C18.2618 1.12125 19.3255 1.0442 20.1973 1.55376ZM10.15 8.53807V6.30001C10.15 5.35967 10.6824 4.74063 11.5168 4.51373L17.7572 2.81364C18.508 2.60886 19.0846 2.64085 19.4403 2.84876C19.7384 3.023 20.09 3.44977 20.09 4.60001V5.82716L10.15 8.53807ZM20.09 16.8C20.09 15.4911 19.0289 14.43 17.72 14.43C16.4111 14.43 15.35 15.4911 15.35 16.8C15.35 18.1089 16.4111 19.17 17.72 19.17C19.0289 19.17 20.09 18.1089 20.09 16.8ZM6.28003 16.51C4.97112 16.51 3.91003 17.5711 3.91003 18.88C3.91003 20.1889 4.97112 21.25 6.28003 21.25C7.58895 21.25 8.65003 20.1889 8.65003 18.88C8.65003 17.5711 7.58895 16.51 6.28003 16.51Z" fill="#595854"/>
</svg>
