<svg width="24" height="24" viewBox="0 0 24 24" fill="none" xmlns="http://www.w3.org/2000/svg">
<path fill-rule="evenodd" clip-rule="evenodd" d="M7.18 2.75C5.46548 2.75 4.07 4.15295 4.07 5.86V18.8693L19.1463 3.79302C18.5734 3.14966 17.7476 2.75 16.83 2.75H7.18ZM20.2082 2.73117C19.3662 1.82066 18.1648 1.25 16.83 1.25H7.18C4.63452 1.25 2.57 3.32705 2.57 5.86V19.95C2.57 20.0719 2.59907 20.187 2.65065 20.2887L1.46967 21.4697C1.17678 21.7626 1.17678 22.2374 1.46967 22.5303C1.76256 22.8232 2.23744 22.8232 2.53033 22.5303L22.5303 2.53033C22.8232 2.23744 22.8232 1.76256 22.5303 1.46967C22.2374 1.17678 21.7626 1.17678 21.4697 1.46967L20.2082 2.73117ZM20.68 7.96C21.0942 7.96 21.43 8.29579 21.43 8.71V19.71C21.43 20.8802 21.0045 21.8975 20.1203 22.4177C19.2359 22.938 18.1396 22.8157 17.1151 22.2453C17.1041 22.2391 17.0932 22.2327 17.0825 22.226L10.6025 18.176C10.2512 17.9565 10.1445 17.4938 10.364 17.1425C10.5835 16.7912 11.0462 16.6845 11.3975 16.904L17.8607 20.9435C18.5876 21.3435 19.0861 21.2858 19.3597 21.1248C19.6355 20.9625 19.93 20.5498 19.93 19.71V8.71C19.93 8.29579 20.2658 7.96 20.68 7.96Z" fill="#595854"/>
</svg>
