<svg width="24" height="24" viewBox="0 0 24 24" fill="none" xmlns="http://www.w3.org/2000/svg">
<path fill-rule="evenodd" clip-rule="evenodd" d="M1.25 12C1.25 6.08579 6.08579 1.25 12 1.25C17.9142 1.25 22.75 6.08579 22.75 12C22.75 17.9142 17.9142 22.75 12 22.75C6.08579 22.75 1.25 17.9142 1.25 12ZM12 2.75C6.91421 2.75 2.75 6.91421 2.75 12C2.75 17.0858 6.91421 21.25 12 21.25C17.0858 21.25 21.25 17.0858 21.25 12C21.25 6.91421 17.0858 2.75 12 2.75ZM7.24451 12C7.24451 11.5858 7.58029 11.25 7.99451 11.25H8.00349C8.4177 11.25 8.75349 11.5858 8.75349 12C8.75349 12.4142 8.4177 12.75 8.00349 12.75H7.99451C7.58029 12.75 7.24451 12.4142 7.24451 12ZM11.2455 12C11.2455 11.5858 11.5813 11.25 11.9955 11.25H12.0045C12.4187 11.25 12.7545 11.5858 12.7545 12C12.7545 12.4142 12.4187 12.75 12.0045 12.75H11.9955C11.5813 12.75 11.2455 12.4142 11.2455 12ZM15.2465 12C15.2465 11.5858 15.5822 11.25 15.9965 11.25H16.0054C16.4197 11.25 16.7554 11.5858 16.7554 12C16.7554 12.4142 16.4197 12.75 16.0054 12.75H15.9965C15.5822 12.75 15.2465 12.4142 15.2465 12Z" fill="#595854"/>
</svg>
