<svg width="24" height="24" viewBox="0 0 24 24" fill="none" xmlns="http://www.w3.org/2000/svg">
<path fill-rule="evenodd" clip-rule="evenodd" d="M9.08988 7.16C9.08988 5.55579 10.3957 4.25 11.9999 4.25C13.6041 4.25 14.9099 5.55579 14.9099 7.16C14.9099 8.76421 13.6041 10.07 11.9999 10.07C10.3957 10.07 9.08988 8.76421 9.08988 7.16ZM11.9999 5.75C11.2241 5.75 10.5899 6.38421 10.5899 7.16C10.5899 7.93579 11.2241 8.57 11.9999 8.57C12.7757 8.57 13.4099 7.93579 13.4099 7.16C13.4099 6.38421 12.7757 5.75 11.9999 5.75ZM3.87988 16.84C3.87988 15.2358 5.18567 13.93 6.78988 13.93C8.3941 13.93 9.69988 15.2358 9.69988 16.84C9.69988 18.4442 8.3941 19.75 6.78988 19.75C5.17341 19.75 3.87988 18.4419 3.87988 16.84ZM6.78988 15.43C6.0141 15.43 5.37988 16.0642 5.37988 16.84C5.37988 17.6181 6.00636 18.25 6.78988 18.25C7.56567 18.25 8.19988 17.6158 8.19988 16.84C8.19988 16.0642 7.56567 15.43 6.78988 15.43ZM14.2999 16.84C14.2999 15.2358 15.6057 13.93 17.2099 13.93C18.8141 13.93 20.1199 15.2358 20.1199 16.84C20.1199 18.4442 18.8141 19.75 17.2099 19.75C15.6057 19.75 14.2999 18.4442 14.2999 16.84ZM17.2099 15.43C16.4341 15.43 15.7999 16.0642 15.7999 16.84C15.7999 17.6158 16.4341 18.25 17.2099 18.25C17.9857 18.25 18.6199 17.6158 18.6199 16.84C18.6199 16.0642 17.9857 15.43 17.2099 15.43Z" fill="#595854"/>
</svg>
