<svg width="24" height="24" viewBox="0 0 24 24" fill="none" xmlns="http://www.w3.org/2000/svg">
<path fill-rule="evenodd" clip-rule="evenodd" d="M10.5 4.75C10.0942 4.75 9.75 5.09421 9.75 5.5V7.71385C9.75022 7.72422 9.75021 7.73458 9.75 7.74492V8.5C9.75 8.90579 10.0942 9.25 10.5 9.25H13.5C13.9058 9.25 14.25 8.90579 14.25 8.5V7.74492C14.2498 7.73458 14.2498 7.72422 14.25 7.71385V5.5C14.25 5.09421 13.9058 4.75 13.5 4.75H10.5ZM15.75 6.25V5.5C15.75 4.26579 14.7342 3.25 13.5 3.25H10.5C9.26579 3.25 8.25 4.26579 8.25 5.5V6.25H5.64648C5.32002 5.09575 4.25878 4.25 3 4.25C1.48122 4.25 0.25 5.48122 0.25 7C0.25 8.51878 1.48122 9.75 3 9.75C4.25878 9.75 5.32002 8.90425 5.64648 7.75H7.54947C5.60127 9.20134 4.32835 11.5737 4.25349 14.25H4C2.75579 14.25 1.75 15.2558 1.75 16.5V18.5C1.75 19.7442 2.75579 20.75 4 20.75H6C6.33465 20.75 6.63913 20.6738 6.91694 20.5444C7.70351 20.2047 8.25 19.4089 8.25 18.5V16.5C8.25 15.2558 7.24421 14.25 6 14.25H5.75419C5.82638 12.0998 6.82604 10.223 8.31894 9.0501C8.56704 10.0222 9.45526 10.75 10.5 10.75H13.5C14.5447 10.75 15.433 10.0222 15.6811 9.0501C17.174 10.223 18.1736 12.0998 18.2458 14.25H18C16.7558 14.25 15.75 15.2558 15.75 16.5V18.5C15.75 19.4089 16.2965 20.2047 17.0831 20.5444C17.3609 20.6738 17.6654 20.75 18 20.75H20C21.2442 20.75 22.25 19.7442 22.25 18.5V16.5C22.25 15.2558 21.2442 14.25 20 14.25H19.7465C19.6717 11.5737 18.3987 9.20134 16.4505 7.75H18.3535C18.68 8.90425 19.7412 9.75 21 9.75C22.5188 9.75 23.75 8.51878 23.75 7C23.75 5.48122 22.5188 4.25 21 4.25C19.7412 4.25 18.68 5.09575 18.3535 6.25H15.75ZM18.9605 15.75C18.9675 15.7501 18.9744 15.7501 18.9813 15.75H20C20.4158 15.75 20.75 16.0842 20.75 16.5V18.5C20.75 18.9158 20.4158 19.25 20 19.25H18C17.9003 19.25 17.8095 19.2288 17.7111 19.1822C17.7015 19.1777 17.6919 19.1734 17.6822 19.1693C17.4367 19.0654 17.25 18.8054 17.25 18.5V16.5C17.25 16.0842 17.5842 15.75 18 15.75H18.9605ZM5.01867 15.75C5.02558 15.7501 5.03251 15.7501 5.03946 15.75H6C6.41579 15.75 6.75 16.0842 6.75 16.5V18.5C6.75 18.8054 6.56332 19.0654 6.31777 19.1693C6.30807 19.1734 6.29846 19.1777 6.28894 19.1822C6.19055 19.2288 6.09967 19.25 6 19.25H4C3.58421 19.25 3.25 18.9158 3.25 18.5V16.5C3.25 16.0842 3.58421 15.75 4 15.75H5.01867ZM3 5.75C2.30964 5.75 1.75 6.30964 1.75 7C1.75 7.69036 2.30964 8.25 3 8.25C3.69036 8.25 4.25 7.69036 4.25 7C4.25 6.30964 3.69036 5.75 3 5.75ZM21 5.75C20.3096 5.75 19.75 6.30964 19.75 7C19.75 7.69036 20.3096 8.25 21 8.25C21.6904 8.25 22.25 7.69036 22.25 7C22.25 6.30964 21.6904 5.75 21 5.75Z" fill="#595854"/>
</svg>
