<svg width="24" height="24" viewBox="0 0 24 24" fill="none" xmlns="http://www.w3.org/2000/svg">
<path fill-rule="evenodd" clip-rule="evenodd" d="M1.25 2C1.25 1.58579 1.58579 1.25 2 1.25H22C22.4142 1.25 22.75 1.58579 22.75 2C22.75 2.41421 22.4142 2.75 22 2.75H21.7402V14.1C21.7402 15.1754 21.4559 16.12 20.7831 16.7928C20.1103 17.4656 19.1656 17.75 18.0902 17.75H12.75V19.5365L16.3354 21.3292C16.7059 21.5144 16.8561 21.9649 16.6708 22.3354C16.4856 22.7059 16.0351 22.8561 15.6646 22.6708L12 20.8385L8.33541 22.6708C7.96493 22.8561 7.51442 22.7059 7.32918 22.3354C7.14394 21.9649 7.29411 21.5144 7.66459 21.3292L11.25 19.5365V17.75H5.90024C4.82457 17.75 3.88053 17.4655 3.20684 16.7935C2.53349 16.1219 2.2459 15.1786 2.24024 14.104L2.24023 14.1V2.75H2C1.58579 2.75 1.25 2.41421 1.25 2ZM3.74023 2.75V14.098C3.7449 14.9222 3.96222 15.4284 4.26614 15.7315C4.56995 16.0345 5.07591 16.25 5.90024 16.25H18.0902C18.9149 16.25 19.4202 16.0344 19.7224 15.7322C20.0246 15.43 20.2402 14.9246 20.2402 14.1V2.75H3.74023ZM17.0757 7.51932C17.3412 7.83728 17.2986 8.31024 16.9807 8.57572L13.8307 11.2057L13.8185 11.2157C13.5408 11.4379 13.1836 11.5451 12.8217 11.4848C12.4569 11.424 12.1495 11.2031 11.9589 10.8892L11.9569 10.8859L10.9056 9.13367L7.98068 11.5757C7.66272 11.8412 7.18976 11.7986 6.92428 11.4807C6.65881 11.1627 6.70136 10.6898 7.01932 10.4243L10.1676 7.79572C10.1679 7.79544 10.1683 7.79515 10.1686 7.79487C10.4508 7.55832 10.8165 7.44776 11.1849 7.51259C11.5516 7.5771 11.8543 7.80318 12.0411 8.11077L12.0431 8.11412L13.0944 9.86633L16.0193 7.42428C16.3373 7.15881 16.8102 7.20136 17.0757 7.51932Z" fill="#595854"/>
</svg>
