<svg width="24" height="24" viewBox="0 0 24 24" fill="none" xmlns="http://www.w3.org/2000/svg">
<path fill-rule="evenodd" clip-rule="evenodd" d="M14.2333 2.25H9.62012C9.2059 2.25 8.87012 2.58579 8.87012 3C8.87012 3.41421 9.2059 3.75 9.62012 3.75H13.2895L9.16454 20.25H5.12012C4.7059 20.25 4.37012 20.5858 4.37012 21C4.37012 21.4142 4.7059 21.75 5.12012 21.75H9.73441C9.74529 21.7502 9.75614 21.7502 9.76695 21.75H14.3701C14.7843 21.75 15.1201 21.4142 15.1201 21C15.1201 20.5858 14.7843 20.25 14.3701 20.25H10.7107L14.8357 3.75H18.8701C19.2843 3.75 19.6201 3.41421 19.6201 3C19.6201 2.58579 19.2843 2.25 18.8701 2.25H14.2658C14.2549 2.24976 14.2441 2.24976 14.2333 2.25Z" fill="#595854"/>
</svg>
