<svg width="24" height="24" viewBox="0 0 24 24" fill="none" xmlns="http://www.w3.org/2000/svg">
<path fill-rule="evenodd" clip-rule="evenodd" d="M3.2436 2.27407C4.0693 1.51137 5.20317 1.25 6.59 1.25H9.64C9.64499 1.25 9.64997 1.25005 9.65495 1.25015C9.65995 1.25005 9.66497 1.25 9.67 1.25H17.35C18.7368 1.25 19.8707 1.51137 20.6964 2.27407C21.5122 3.02763 21.8853 4.14208 22.0729 5.49714C22.0741 5.50608 22.0752 5.51505 22.0761 5.52403L22.3563 8.27574C22.4574 9.29173 22.2027 10.2345 21.6941 10.9901C21.7174 11.0626 21.73 11.1398 21.73 11.22V15.71C21.73 18.0294 21.2696 19.8485 20.0491 21.0691C18.8285 22.2896 17.0094 22.75 14.69 22.75H9.3C6.98062 22.75 5.16146 22.2896 3.94092 21.0691C2.72037 19.8485 2.26 18.0294 2.26 15.71V11.22C2.26 11.1548 2.26832 11.0916 2.28395 11.0313C1.75678 10.269 1.49084 9.31057 1.59363 8.27627C1.59361 8.27644 1.59365 8.27609 1.59363 8.27627L1.86359 5.52672C1.86456 5.51683 1.86572 5.50697 1.86709 5.49714C2.05471 4.14208 2.42779 3.02763 3.2436 2.27407ZM3.76 12.3134V15.71C3.76 17.8806 4.19962 19.2065 5.00158 20.0084C5.73344 20.7403 6.90162 21.1704 8.75 21.24V19.5C8.75 18.5505 8.98634 17.7005 9.59342 17.0934C10.2005 16.4863 11.0505 16.25 12 16.25C12.9495 16.25 13.7995 16.4863 14.4066 17.0934C15.0137 17.7005 15.25 18.5505 15.25 19.5V21.2396C17.0926 21.1688 18.2579 20.739 18.9884 20.0084C19.7904 19.2065 20.23 17.8806 20.23 15.71V12.293C19.6642 12.5853 19.0131 12.75 18.31 12.75C17.0458 12.75 15.8673 12.1203 15.106 11.1557C14.4372 12.1232 13.3156 12.75 12 12.75C10.6682 12.75 9.53526 12.1077 8.86957 11.1199C8.11136 12.1052 6.91875 12.75 5.64 12.75C4.95338 12.75 4.31642 12.5929 3.76 12.3134ZM8.81138 2.75H6.59C5.35683 2.75 4.68069 2.98863 4.26139 3.37593C3.83388 3.77082 3.52768 4.45258 3.35493 5.68835L3.08641 8.42328C2.93018 9.9934 4.06508 11.25 5.64 11.25C6.90661 11.25 8.07104 10.2005 8.1935 8.93761L8.19371 8.93548L8.81138 2.75ZM9.74632 8.75419C9.60999 10.1444 10.6152 11.25 12 11.25C13.2488 11.25 14.189 10.3509 14.2615 9.15463C14.2588 9.13209 14.2563 9.10951 14.2539 9.08687L14.2537 9.08452L13.6212 2.75H10.3485L9.74632 8.75419C9.74635 8.75393 9.74629 8.75445 9.74632 8.75419ZM15.1678 2.75L15.7464 8.60626C15.762 8.76535 15.7683 8.92282 15.7655 9.07751C15.9661 10.2793 17.0927 11.25 18.31 11.25C19.8848 11.25 21.0198 9.99452 20.8637 8.42453C20.8637 8.42444 20.8637 8.42462 20.8637 8.42453L20.5853 5.68968C20.4125 4.45307 20.1063 3.77097 19.6786 3.37593C19.2593 2.98863 18.5832 2.75 17.35 2.75H15.1678ZM13.75 21.25V19.5C13.75 18.7795 13.5713 18.3795 13.3459 18.1541C13.1205 17.9287 12.7205 17.75 12 17.75C11.2795 17.75 10.8795 17.9287 10.6541 18.1541C10.4287 18.3795 10.25 18.7795 10.25 19.5V21.25H13.75Z" fill="#595854"/>
</svg>
