<svg width="24" height="24" viewBox="0 0 24 24" fill="none" xmlns="http://www.w3.org/2000/svg">
<path fill-rule="evenodd" clip-rule="evenodd" d="M8.2696 5.24967C11.2925 2.22677 16.2074 2.22677 19.2303 5.24967C22.2532 8.27256 22.2532 13.1874 19.2303 16.2103L15.3403 20.1003C13.6774 21.7632 10.9925 21.7632 9.3296 20.1003C7.66671 18.4374 7.66671 15.7526 9.3296 14.0897L11.7996 11.6197C12.0925 11.3268 12.5674 11.3268 12.8603 11.6197C13.1532 11.9126 13.1532 12.3874 12.8603 12.6803L10.3903 15.1503C9.31315 16.2274 9.31315 17.9626 10.3903 19.0397C11.4674 20.1168 13.2025 20.1168 14.2796 19.0397L18.1696 15.1497C20.6067 12.7126 20.6067 8.74744 18.1696 6.31033C15.7325 3.87322 11.7674 3.87322 9.33026 6.31033L5.09026 10.5503C3.04378 12.5968 3.04216 15.9228 5.09139 17.9808C5.38366 18.2743 5.38265 18.7492 5.08913 19.0415C4.79561 19.3337 4.32074 19.3327 4.02847 19.0392C1.39771 16.3972 1.39609 12.1232 4.0296 9.48967L8.2696 5.24967Z" fill="#595854"/>
</svg>
