<svg width="24" height="24" viewBox="0 0 24 24" fill="none" xmlns="http://www.w3.org/2000/svg">
<path fill-rule="evenodd" clip-rule="evenodd" d="M12.4981 1.3864C13.2275 1.0466 14.0015 1.38364 14.5789 1.86287L14.5802 1.86393L18.43 5.0738C18.43 5.07376 18.4301 5.07385 18.43 5.0738C19.3231 5.81816 19.3366 7.0988 18.4981 7.8715L18.4966 7.87287L13.994 12L18.4981 16.1285C19.3366 16.9012 19.3232 18.1817 18.4302 18.926C18.4301 18.9261 18.4302 18.926 18.4302 18.926L14.5802 22.136L14.5789 22.1371C14.0015 22.6163 13.2275 22.9534 12.4981 22.6136C11.7668 22.2728 11.5299 21.4616 11.5299 20.71V14.2586L6.14667 19.1929C5.84132 19.4728 5.3669 19.4521 5.08701 19.1468C4.80713 18.8414 4.82777 18.367 5.13312 18.0871L11.5299 12.2238V11.7761L5.13312 5.91285C4.82777 5.63296 4.80713 5.15854 5.08701 4.85319C5.3669 4.54784 5.84132 4.5272 6.14667 4.80708L11.5299 9.74134V3.28999C11.5299 2.5384 11.7668 1.72716 12.4981 1.3864ZM13.0299 13.151L17.4816 17.2315C17.4814 17.2313 17.4818 17.2317 17.4816 17.2315C17.6625 17.3987 17.6564 17.6183 17.4698 17.7738L13.6209 20.9829C13.6207 20.9831 13.6211 20.9827 13.6209 20.9829C13.427 21.1437 13.28 21.2131 13.1918 21.2378C13.1652 21.2452 13.1464 21.2481 13.1343 21.2491C13.1275 21.2394 13.1183 21.2239 13.1075 21.2001C13.0705 21.1178 13.0299 20.9622 13.0299 20.71V13.151ZM13.0299 10.8489V3.28999C13.0299 3.03774 13.0705 2.88216 13.1075 2.7999C13.1183 2.77604 13.1275 2.76051 13.1343 2.75086C13.1464 2.75182 13.1652 2.75471 13.1918 2.76215C13.2801 2.78682 13.4264 2.85574 13.6203 3.0166C13.6201 3.01644 13.6205 3.01676 13.6203 3.0166L17.4696 6.22601C17.6562 6.38151 17.6631 6.60072 17.4822 6.76791C17.482 6.7681 17.4824 6.76772 17.4822 6.76791L13.0299 10.8489Z" fill="#595854"/>
</svg>
