<svg width="24" height="24" viewBox="0 0 24 24" fill="none" xmlns="http://www.w3.org/2000/svg">
<path fill-rule="evenodd" clip-rule="evenodd" d="M4.56999 4.02002C3.47514 4.02002 2.73999 4.82294 2.73999 5.84998V9.07001C2.73999 10.0971 3.47516 10.9 4.56999 10.9H9.62999V5.84998C9.62999 4.84421 8.80579 4.02002 7.79999 4.02002H4.56999ZM11.1198 11.7737C11.1265 11.7335 11.13 11.6922 11.13 11.65V5.84998C11.13 4.01575 9.63419 2.52002 7.79999 2.52002H4.56999C2.60485 2.52002 1.23999 4.03701 1.23999 5.84998V9.07001C1.23999 10.883 2.60482 12.4 4.56999 12.4H9.6135C9.56772 14.9327 9.27912 16.345 8.72619 17.3288C8.12943 18.3905 7.17105 19.0568 5.45691 20.0752C5.10081 20.2868 4.98363 20.7469 5.1952 21.1031C5.40677 21.4592 5.86696 21.5763 6.22307 21.3648C7.90893 20.3632 9.21556 19.5195 10.0338 18.0637C10.8325 16.6428 11.1124 14.7413 11.1198 11.7737ZM16.2 4.02002C15.1051 4.02002 14.37 4.82294 14.37 5.84998V9.07001C14.37 10.0971 15.1052 10.9 16.2 10.9H21.25V5.84998C21.25 4.84421 20.4258 4.02002 19.42 4.02002H16.2ZM21.2435 12.4C21.1977 14.9327 20.9091 16.345 20.3562 17.3288C19.7594 18.3905 18.801 19.0568 17.0869 20.0752C16.7308 20.2868 16.6136 20.7469 16.8252 21.1031C17.0368 21.4592 17.497 21.5763 17.8531 21.3648C19.5389 20.3632 20.8456 19.5195 21.6638 18.0637C22.4735 16.6231 22.75 14.6886 22.75 11.65V5.84998C22.75 4.01575 21.2542 2.52002 19.42 2.52002H16.2C14.2348 2.52002 12.87 4.03701 12.87 5.84998V9.07001C12.87 10.883 14.2348 12.4 16.2 12.4H21.2435Z" fill="#595854"/>
</svg>
