<svg width="24" height="24" viewBox="0 0 24 24" fill="none" xmlns="http://www.w3.org/2000/svg">
<path fill-rule="evenodd" clip-rule="evenodd" d="M12.0111 2.18866C12.2492 2.52761 12.1674 2.99539 11.8285 3.23348C11.4661 3.48804 11.0587 3.84557 10.5814 4.32282L9.84892 5.05532C9.55603 5.34821 9.08116 5.34821 8.78826 5.05532C8.49537 4.76242 8.49537 4.28755 8.78826 3.99466L9.52076 3.26216C10.0282 2.75474 10.5044 2.33046 10.9663 2.00603C11.3053 1.76794 11.773 1.84971 12.0111 2.18866ZM14.0711 2.18866C14.3092 1.84971 14.7769 1.76794 15.1159 2.00603C15.5778 2.33046 16.054 2.75474 16.5614 3.26216L16.7114 3.41216C16.7635 3.46425 16.8063 3.52211 16.8399 3.58367C16.9015 3.61723 16.9593 3.66006 17.0114 3.71216L17.1614 3.86216C17.3021 4.00281 17.3811 4.19357 17.3811 4.39249C17.3811 4.5914 17.3021 4.78216 17.1614 4.92282C17.0618 5.02239 16.9819 5.13219 16.9208 5.24789C16.8388 5.40321 16.71 5.51787 16.5609 5.58368C16.6658 5.68641 16.7414 5.82047 16.7716 5.97349C17.4788 5.98031 18.1095 6.02266 18.6648 6.11963C19.0728 6.19088 19.3459 6.57942 19.2746 6.98746C19.2034 7.3955 18.8148 7.66852 18.4068 7.59727C17.9163 7.51163 17.3111 7.47249 16.56 7.47249H13.9386C13.5244 7.47249 13.1886 7.1367 13.1886 6.72249C13.1886 6.30827 13.5244 5.97249 13.9386 5.97249H15.3002C15.3477 5.73435 15.5093 5.53187 15.7323 5.43329C15.5015 5.2071 15.4358 4.84794 15.5944 4.54756C15.6094 4.51914 15.6249 4.49093 15.6409 4.46295L15.5008 4.32282C15.0235 3.84557 14.6161 3.48804 14.2537 3.23348C13.9148 2.99539 13.833 2.52761 14.0711 2.18866ZM8.60339 5.97249H9.5325C9.59223 5.97249 9.65034 5.97947 9.70603 5.99266C9.76153 5.97957 9.81941 5.97264 9.87891 5.97264C10.2931 5.97264 10.6289 6.30843 10.6289 6.72264V8.59764C10.6289 9.01186 10.2931 9.34764 9.87891 9.34764C9.46469 9.34764 9.12891 9.01186 9.12891 8.59764V7.47249H7.19C6.43885 7.47249 5.83405 7.51164 5.34424 7.59727C4.93621 7.6686 4.54762 7.39565 4.47629 6.98763C4.40496 6.5796 4.6779 6.19101 5.08593 6.11968C5.59561 6.03057 6.16895 5.98758 6.80705 5.97587L7.32326 5.45966C7.61616 5.16676 8.09103 5.16676 8.38392 5.45966C8.52592 5.60165 8.59907 5.78642 8.60339 5.97249ZM20.985 8.69787C21.3931 8.62662 21.7816 8.89964 21.8529 9.30768C21.9594 9.9178 22 10.6188 22 11.4125V11.6475C22 11.7296 21.9868 11.8086 21.9624 11.8825C21.9868 11.9564 22 12.0354 22 12.1175V12.3525C22 12.7667 21.6642 13.1025 21.25 13.1025C21.0326 13.1025 20.8272 13.1454 20.6405 13.2227C20.2577 13.3809 19.8191 13.199 19.6608 12.8162C19.5025 12.4334 19.6845 11.9948 20.0673 11.8365C20.2073 11.7786 20.3523 11.7307 20.5014 11.6937C20.5005 11.6784 20.5 11.663 20.5 11.6475V11.4125C20.5 10.6614 20.4609 10.0562 20.3752 9.56569C20.304 9.15766 20.577 8.76911 20.985 8.69787ZM2.76936 8.69907C3.17734 8.7707 3.45 9.15949 3.37837 9.56747C3.29995 10.0141 3.2596 10.5557 3.25147 11.2155C3.4014 11.2532 3.54716 11.302 3.68774 11.3608C4.06984 11.5207 4.24997 11.9601 4.09006 12.3422C3.93016 12.7243 3.49077 12.9045 3.10867 12.7446C2.92081 12.6659 2.71554 12.6225 2.5 12.6225C2.08579 12.6225 1.75 12.2867 1.75 11.8725V11.7575C1.75 11.7184 1.75299 11.68 1.75876 11.6425C1.75299 11.605 1.75 11.5666 1.75 11.5275V11.4125L1.75 11.4105C1.75212 10.6177 1.79398 9.91744 1.90097 9.30808C1.97259 8.9001 2.36139 8.62744 2.76936 8.69907ZM9.87891 11.5976C10.2931 11.5976 10.6289 11.9334 10.6289 12.3476V16.0976C10.6289 16.5119 10.2931 16.8476 9.87891 16.8476C9.46469 16.8476 9.12891 16.5119 9.12891 16.0976L9.12891 12.3476C9.12891 11.9334 9.46469 11.5976 9.87891 11.5976ZM4.38026 12.6324C4.76236 12.4725 5.20175 12.6526 5.36165 13.0347C5.51507 13.4013 5.6 13.8031 5.6 14.2225C5.6 14.6419 5.51507 15.0436 5.36165 15.4102C5.20175 15.7923 4.76236 15.9725 4.38026 15.8125C3.99815 15.6526 3.81803 15.2133 3.97793 14.8312C4.05655 14.6433 4.1 14.438 4.1 14.2225C4.1 14.0069 4.05655 13.8017 3.97793 13.6138C3.81803 13.2317 3.99815 12.7923 4.38026 12.6324ZM19.3732 13.1031C19.756 13.2613 19.9381 13.6999 19.7799 14.0827C19.703 14.2687 19.66 14.474 19.66 14.6925C19.66 14.9079 19.7034 15.1122 19.7817 15.2987C19.942 15.6806 19.7623 16.1202 19.3804 16.2805C18.9985 16.4409 18.5589 16.2612 18.3986 15.8793C18.2449 15.5132 18.16 15.1118 18.16 14.6925C18.16 14.2747 18.2427 13.8749 18.3936 13.5098C18.5518 13.127 18.9904 12.9449 19.3732 13.1031ZM4.09006 16.1027C4.24997 16.4848 4.06984 16.9242 3.68774 17.0841C3.54699 17.143 3.40106 17.1918 3.25094 17.2296C3.25734 17.8904 3.29677 18.4325 3.37478 18.8793C3.44603 19.2873 3.17301 19.6759 2.76497 19.7471C2.35693 19.8184 1.96839 19.5453 1.89714 19.1373C1.79061 18.5272 1.75 17.8261 1.75 17.0325V16.9175C1.75 16.8784 1.75299 16.84 1.75876 16.8025C1.75299 16.765 1.75 16.7266 1.75 16.6875V16.5725C1.75 16.1583 2.08579 15.8225 2.5 15.8225C2.71554 15.8225 2.92081 15.779 3.10867 15.7004C3.49077 15.5405 3.93016 15.7206 4.09006 16.1027ZM19.6701 16.5671C19.8288 16.1844 20.2675 16.0028 20.6502 16.1615C20.8381 16.2394 21.0438 16.2825 21.26 16.2825C21.6742 16.2825 22.01 16.6183 22.01 17.0325C22.01 17.8261 21.9694 18.5272 21.8629 19.1373C21.7916 19.5453 21.4031 19.8184 20.995 19.7471C20.587 19.6759 20.314 19.2873 20.3852 18.8793C20.4444 18.5403 20.4814 18.1465 20.4986 17.6876C20.3534 17.6508 20.2122 17.6037 20.0758 17.5471C19.6931 17.3885 19.5115 16.9497 19.6701 16.5671ZM9.87891 19.0976C10.2931 19.0976 10.6289 19.4334 10.6289 19.8476V21.7226C10.6289 22.1369 10.2931 22.4726 9.87891 22.4726C9.81962 22.4726 9.76194 22.4658 9.70662 22.4528C9.6515 22.4657 9.59405 22.4725 9.535 22.4725H7.19C6.39636 22.4725 5.69531 22.4319 5.08519 22.3253C4.67715 22.2541 4.40413 21.8656 4.47538 21.4575C4.54663 21.0495 4.93517 20.7765 5.34321 20.8477C5.83368 20.9333 6.43893 20.9725 7.19 20.9725H9.12891V19.8476C9.12891 19.4334 9.46469 19.0976 9.87891 19.0976ZM19.2846 21.4575C19.3559 21.8656 19.0828 22.2541 18.6748 22.3253C18.0647 22.4319 17.3636 22.4725 16.57 22.4725H14.225C13.8108 22.4725 13.475 22.1367 13.475 21.7225C13.475 21.3083 13.8108 20.9725 14.225 20.9725H16.57C17.3211 20.9725 17.9263 20.9333 18.4168 20.8477C18.8248 20.7765 19.2134 21.0495 19.2846 21.4575Z" fill="#595854"/>
</svg>
