<svg width="24" height="24" viewBox="0 0 24 24" fill="none" xmlns="http://www.w3.org/2000/svg">
<path fill-rule="evenodd" clip-rule="evenodd" d="M2.79113 4.04849C2.78529 4.05906 2.77735 4.07571 2.76946 4.09697C2.76121 4.11923 2.75543 4.14006 2.75211 4.15607C2.75097 4.16162 2.75033 4.16553 2.75 4.16782V6.49535C2.75027 6.49751 2.75104 6.50306 2.75304 6.51194C2.75688 6.52906 2.76338 6.55006 2.7723 6.57149C2.77989 6.5897 2.78722 6.60338 2.79241 6.6119C3.38365 7.13253 3.93653 7.27691 4.36762 7.24456C4.80952 7.2114 5.19504 6.98877 5.4507 6.64901L5.45193 6.64738C5.63511 6.40532 5.75 6.08369 5.75 5.74999V4.84996C5.75 4.78376 5.74547 4.71782 5.73671 4.65262C5.70155 4.39135 5.59865 4.14644 5.45193 3.95257C5.43664 3.93235 5.42247 3.91152 5.40946 3.89017C5.37411 3.84784 5.34079 3.81143 5.30967 3.7803C4.79057 3.26121 3.76464 3.04492 2.79113 4.04849ZM6.40022 2.74999C6.39031 2.73977 6.38034 2.72966 6.37033 2.71964C5.23273 1.58205 3.22847 1.41774 1.68749 3.0321L1.68744 3.03206L1.68042 3.03962C1.52499 3.20701 1.42424 3.41042 1.36305 3.57544C1.30086 3.74315 1.25 3.9511 1.25 4.15995V6.49997C1.25 6.73149 1.30934 6.96038 1.3877 7.14843C1.46387 7.33123 1.58965 7.55142 1.78335 7.72195C2.63639 8.48011 3.58249 8.80769 4.47987 8.74035C5.23057 8.68402 5.89877 8.35375 6.39223 7.84996H7.75V11.3776C6.87542 11.686 6.25 12.5189 6.25 13.5V17.5C6.25 18.4811 6.87542 19.314 7.75 19.6223V22C7.75 22.4142 8.08579 22.75 8.5 22.75C8.91421 22.75 9.25 22.4142 9.25 22V19.6223C10.1246 19.314 10.75 18.4811 10.75 17.5V13.5C10.75 12.5189 10.1246 11.686 9.25 11.3776V7.66791C9.57116 7.53901 9.86038 7.34558 10.1004 7.10033C10.5719 6.63871 10.85 5.98766 10.85 5.29997C10.85 3.89574 9.70419 2.74999 8.29999 2.74999H6.40022ZM7.24737 4.72514C7.24058 4.56395 7.22076 4.40509 7.18906 4.24999H8.29999C8.87579 4.24999 9.35001 4.72421 9.35001 5.29997C9.35001 5.58826 9.23137 5.85366 9.0479 6.03157C9.04238 6.03692 9.03694 6.04236 9.03158 6.04789C8.85212 6.23295 8.59605 6.34996 8.29999 6.34996H7.18899C7.22896 6.15473 7.25 5.95366 7.25 5.74999V4.84996C7.25 4.80822 7.24912 4.7666 7.24737 4.72514ZM17.6297 2.71964C18.7673 1.58205 20.7715 1.41774 22.3125 3.0321L22.3196 3.03957L22.3196 3.03962C22.475 3.20701 22.5758 3.41042 22.637 3.57544C22.6991 3.74315 22.75 3.9511 22.75 4.15995V6.49997C22.75 6.73149 22.6907 6.96038 22.6123 7.14843C22.5361 7.33138 22.4101 7.55178 22.2162 7.72237C21.3632 8.48023 20.4173 8.80768 19.5201 8.74035C18.7694 8.68402 18.1012 8.35375 17.6078 7.84996H16.25V22C16.25 22.4142 15.9142 22.75 15.5 22.75C15.0858 22.75 14.75 22.4142 14.75 22V7.66791C14.4288 7.53901 14.1396 7.34558 13.8996 7.10033C13.4281 6.63871 13.15 5.98766 13.15 5.29997C13.15 3.89574 14.2958 2.74999 15.7 2.74999H17.5998C17.6097 2.73977 17.6197 2.72966 17.6297 2.71964ZM18.2708 4.6031C18.3117 4.36048 18.4107 4.13414 18.5481 3.95257C18.5634 3.93236 18.5775 3.91153 18.5905 3.89017C18.6259 3.84784 18.6592 3.81143 18.6903 3.7803C19.2094 3.26121 20.2354 3.04492 21.2089 4.04849C21.2147 4.05906 21.2227 4.07571 21.2305 4.09697C21.2388 4.11923 21.2446 4.14006 21.2479 4.15607C21.249 4.16161 21.2497 4.16552 21.25 4.16782V6.49534C21.2497 6.49751 21.249 6.50305 21.247 6.51194C21.2431 6.52906 21.2366 6.55006 21.2277 6.57149C21.2201 6.5897 21.2128 6.60338 21.2076 6.6119C20.6164 7.13253 20.0635 7.27691 19.6324 7.24456C19.1905 7.2114 18.805 6.98877 18.5493 6.64901L18.5481 6.64738C18.3649 6.40532 18.25 6.08369 18.25 5.74999V4.84996C18.25 4.76694 18.2571 4.68433 18.2708 4.6031ZM16.75 4.84996C16.75 4.77306 16.753 4.69661 16.7589 4.62075C16.7686 4.49531 16.7861 4.3715 16.8109 4.24999H15.7C15.1242 4.24999 14.65 4.72421 14.65 5.29997C14.65 5.58826 14.7686 5.85366 14.9521 6.03157C14.9576 6.03692 14.9631 6.04236 14.9684 6.04789C15.1479 6.23295 15.404 6.34996 15.7 6.34996H16.811C16.771 6.15473 16.75 5.95366 16.75 5.74999V4.84996ZM8.5 12.75C8.08421 12.75 7.75 13.0842 7.75 13.5V17.5C7.75 17.9158 8.08421 18.25 8.5 18.25C8.91579 18.25 9.25 17.9158 9.25 17.5V13.5C9.25 13.0842 8.91579 12.75 8.5 12.75Z" fill="#595854"/>
</svg>
