<svg width="24" height="24" viewBox="0 0 24 24" fill="none" xmlns="http://www.w3.org/2000/svg">
<path fill-rule="evenodd" clip-rule="evenodd" d="M1.78 4.95C1.78 2.91414 3.44744 1.25 5.49 1.25C7.52421 1.25 9.19 2.91579 9.19 4.95V17.91C9.19 18.225 9.12622 18.5783 9.03898 18.8929C8.95154 19.2083 8.82464 19.542 8.66602 19.811L8.66231 19.8173L7.84348 21.1753C7.84327 21.1756 7.84306 21.176 7.84285 21.1763C7.28509 22.1073 6.45205 22.7175 5.485 22.7175C4.51797 22.7175 3.68493 22.1073 3.12718 21.1764C3.12696 21.176 3.12674 21.1756 3.12652 21.1753L2.30394 19.811C2.14533 19.5421 2.01846 19.2083 1.93102 18.8929C1.84377 18.5783 1.78 18.225 1.78 17.91V4.95ZM3.28 7.75V17.91C3.28 18.045 3.31122 18.2567 3.37648 18.4921C3.44106 18.725 3.5234 18.925 3.59443 19.0463L4.41348 20.4047C4.79572 21.0432 5.20741 21.2175 5.485 21.2175C5.76259 21.2175 6.17428 21.0432 6.55652 20.4047L6.55771 20.4027L7.37558 19.0463C7.4466 18.925 7.52894 18.725 7.59352 18.4921C7.65877 18.2567 7.69 18.045 7.69 17.91V7.75H3.28ZM7.69 6.25H3.28V4.95C3.28 3.74586 4.27256 2.75 5.49 2.75C6.69579 2.75 7.69 3.74421 7.69 4.95V6.25ZM11.6897 2.21967C12.3799 1.52941 13.3544 1.25 14.47 1.25H18.47C19.5856 1.25 20.5601 1.52941 21.2503 2.21967C21.9406 2.90993 22.22 3.88439 22.22 5V19C22.22 20.1156 21.9406 21.0901 21.2503 21.7803C20.5601 22.4706 19.5856 22.75 18.47 22.75H14.47C13.3544 22.75 12.3799 22.4706 11.6897 21.7803C10.9994 21.0901 10.72 20.1156 10.72 19V13.9514C10.72 13.9506 10.72 13.9497 10.72 13.9489V5C10.72 3.88439 10.9994 2.90993 11.6897 2.21967ZM12.22 6.75H16.47C16.8842 6.75 17.22 6.41421 17.22 6C17.22 5.58579 16.8842 5.25 16.47 5.25H12.22V5C12.22 4.11561 12.4406 3.59007 12.7503 3.28033C13.0601 2.97059 13.5856 2.75 14.47 2.75H18.47C19.3544 2.75 19.8799 2.97059 20.1897 3.28033C20.4994 3.59007 20.72 4.11561 20.72 5V19C20.72 19.8844 20.4994 20.4099 20.1897 20.7197C19.8799 21.0294 19.3544 21.25 18.47 21.25H14.47C13.5856 21.25 13.0601 21.0294 12.7503 20.7197C12.4406 20.4099 12.22 19.8844 12.22 19V18.75H15.47C15.8842 18.75 16.22 18.4142 16.22 18C16.22 17.5858 15.8842 17.25 15.47 17.25H12.22V14.7075L16.4625 14.75C16.8767 14.7541 17.2158 14.4217 17.22 14.0075C17.2241 13.5933 16.8917 13.2542 16.4775 13.25L12.22 13.2075V10.75H14.47C14.8842 10.75 15.22 10.4142 15.22 10C15.22 9.58579 14.8842 9.25 14.47 9.25H12.22V6.75Z" fill="#595854"/>
</svg>
