<svg width="24" height="24" viewBox="0 0 24 24" fill="none" xmlns="http://www.w3.org/2000/svg">
<path fill-rule="evenodd" clip-rule="evenodd" d="M3.85112 3.06492L5.74499 19.2126C5.74839 19.2416 5.7501 19.2708 5.7501 19.3C5.7501 19.3495 5.75739 19.3789 5.76249 19.3937C5.7674 19.408 5.77247 19.4153 5.77626 19.4199C5.78288 19.4278 5.80924 19.4542 5.882 19.4724L5.90144 19.4775L12.0014 21.1775C12.0179 21.1821 12.0341 21.1872 12.0501 21.1929C12.0661 21.1872 12.0824 21.1821 12.0988 21.1775L18.1218 19.499C18.2265 19.4403 18.2904 19.3851 18.3239 19.3449C18.3418 19.3234 18.3475 19.3106 18.3489 19.307C18.3498 19.3048 18.3501 19.3039 18.3501 19.3C18.3501 19.2723 18.3516 19.2447 18.3547 19.2172L20.1547 3.01718C20.1562 3.00364 20.1581 2.99014 20.1603 2.9767C20.1688 2.9256 20.1563 2.88154 20.1154 2.83796C20.0694 2.78886 19.9923 2.75 19.9001 2.75H4.1001C4.02337 2.75 3.97679 2.77629 3.93953 2.81888C3.89933 2.86482 3.85809 2.94744 3.85112 3.06492ZM11.9586 21.2318C11.9586 21.2318 11.9592 21.2315 11.9606 21.2311L11.9586 21.2318ZM2.3501 3.1C2.3501 2.18299 2.99494 1.25 4.1001 1.25H19.9001C20.8774 1.25 21.8159 2.07975 21.6435 3.2005L19.8494 19.3478C19.826 20.1496 19.2153 20.6309 18.7355 20.8708C18.6926 20.8923 18.6477 20.9096 18.6014 20.9225L12.5597 22.6062C12.3935 22.6785 12.2068 22.725 12.0126 22.725C11.8552 22.725 11.6605 22.6927 11.4774 22.5887L5.50723 20.9248C5.18374 20.8419 4.8646 20.6689 4.62393 20.3801C4.38576 20.0943 4.2604 19.7378 4.25071 19.349L2.3552 3.18736C2.3518 3.15837 2.3501 3.1292 2.3501 3.1ZM6.7501 7C6.7501 6.58579 7.08588 6.25 7.5001 6.25H16.5001C16.7134 6.25 16.9167 6.34085 17.0589 6.49981C17.2012 6.65877 17.2691 6.8708 17.2455 7.08282L16.8297 10.8254C16.843 10.8814 16.8501 10.9399 16.8501 11C16.8501 11.1186 16.8226 11.2308 16.7735 11.3305L16.2455 16.0828C16.2119 16.3853 15.9988 16.6375 15.7061 16.7211L12.2061 17.7211C12.0715 17.7596 11.9287 17.7596 11.7941 17.7211L8.29406 16.7211C8.03633 16.6475 7.8375 16.4419 7.77249 16.1819L7.27249 14.1819C7.17203 13.7801 7.41635 13.3729 7.8182 13.2724C8.22004 13.1719 8.62724 13.4163 8.7277 13.8181L9.12264 15.3979L12.0001 16.22L14.8103 15.4171L15.2177 11.75H8.0001C7.58588 11.75 7.2501 11.4142 7.2501 11C7.2501 10.5858 7.58588 10.25 8.0001 10.25H15.3844L15.6621 7.75H7.5001C7.08588 7.75 6.7501 7.41421 6.7501 7Z" fill="#595854"/>
</svg>
