<svg width="24" height="24" viewBox="0 0 24 24" fill="none" xmlns="http://www.w3.org/2000/svg">
<path fill-rule="evenodd" clip-rule="evenodd" d="M12 2.75C6.89137 2.75 2.75 6.89137 2.75 12C2.75 17.1086 6.89137 21.25 12 21.25C17.1086 21.25 21.25 17.1086 21.25 12C21.25 6.89137 17.1086 2.75 12 2.75ZM1.25 12C1.25 6.06294 6.06294 1.25 12 1.25C17.9371 1.25 22.75 6.06294 22.75 12C22.75 17.9371 17.9371 22.75 12 22.75C6.06294 22.75 1.25 17.9371 1.25 12ZM7.05 11C7.05 8.98579 8.78579 7.25 10.8 7.25H15.8C16.2142 7.25 16.55 7.58579 16.55 8C16.55 8.41421 16.2142 8.75 15.8 8.75H10.8C9.61421 8.75 8.55 9.81421 8.55 11V11.25H15.8C16.2142 11.25 16.55 11.5858 16.55 12C16.55 12.4142 16.2142 12.75 15.8 12.75H8.55V13C8.55 14.1858 9.61421 15.25 10.8 15.25H15.8C16.2142 15.25 16.55 15.5858 16.55 16C16.55 16.4142 16.2142 16.75 15.8 16.75H10.8C8.78579 16.75 7.05 15.0142 7.05 13V11Z" fill="#595854"/>
</svg>
