<svg width="24" height="24" viewBox="0 0 24 24" fill="none" xmlns="http://www.w3.org/2000/svg">
<path fill-rule="evenodd" clip-rule="evenodd" d="M1.25 3C1.25 2.58579 1.58579 2.25 2 2.25H22C22.4142 2.25 22.75 2.58579 22.75 3C22.75 3.41421 22.4142 3.75 22 3.75H2C1.58579 3.75 1.25 3.41421 1.25 3ZM21.664 7.54209C22.4081 7.97592 22.75 8.80359 22.75 9.85999V11.4037C22.7503 11.4149 22.7503 11.426 22.75 11.4372V18.37C22.75 19.9882 21.4382 21.3 19.82 21.3C18.2018 21.3 16.89 19.9882 16.89 18.37C16.89 16.7518 18.2018 15.44 19.82 15.44C20.3393 15.44 20.827 15.5751 21.25 15.8121V12.4024L14.77 14.1726V19.82C14.77 21.4382 13.4582 22.75 11.84 22.75C10.2218 22.75 8.91 21.4382 8.91 19.82C8.91 18.2018 10.2218 16.89 11.84 16.89C12.3593 16.89 12.847 17.0251 13.27 17.2621V13.6163C13.2697 13.6051 13.2698 13.5939 13.27 13.5828V11.05C13.27 9.7741 14.0734 8.87975 15.1588 8.57749L15.1621 8.57657L15.1621 8.57658L19.5121 7.38657L19.5148 7.38584C20.1637 7.21093 20.9784 7.14232 21.664 7.54209ZM14.77 12.6176L21.25 10.8474V9.85999C21.25 9.1064 21.0219 8.90407 20.9085 8.8379C20.7367 8.73774 20.4069 8.69912 19.9065 8.8338C19.906 8.83392 19.9056 8.83403 19.9052 8.83414L15.5612 10.0225C15.5607 10.0226 15.5602 10.0228 15.5597 10.0229C15.066 10.1609 14.77 10.5064 14.77 11.05V12.6176ZM13.27 19.82C13.27 19.0302 12.6298 18.39 11.84 18.39C11.0502 18.39 10.41 19.0302 10.41 19.82C10.41 20.6098 11.0502 21.25 11.84 21.25C12.6298 21.25 13.27 20.6098 13.27 19.82ZM21.25 18.37C21.25 17.5802 20.6098 16.94 19.82 16.94C19.0302 16.94 18.39 17.5802 18.39 18.37C18.39 19.1598 19.0302 19.8 19.82 19.8C20.6098 19.8 21.25 19.1598 21.25 18.37ZM1.25 9C1.25 8.58579 1.58579 8.25 2 8.25H11C11.4142 8.25 11.75 8.58579 11.75 9C11.75 9.41421 11.4142 9.75 11 9.75H2C1.58579 9.75 1.25 9.41421 1.25 9ZM1.25 15C1.25 14.5858 1.58579 14.25 2 14.25H8C8.41421 14.25 8.75 14.5858 8.75 15C8.75 15.4142 8.41421 15.75 8 15.75H2C1.58579 15.75 1.25 15.4142 1.25 15ZM1.25 21C1.25 20.5858 1.58579 20.25 2 20.25H6C6.41421 20.25 6.75 20.5858 6.75 21C6.75 21.4142 6.41421 21.75 6 21.75H2C1.58579 21.75 1.25 21.4142 1.25 21Z" fill="#595854"/>
</svg>
