<svg width="24" height="24" viewBox="0 0 24 24" fill="none" xmlns="http://www.w3.org/2000/svg">
<path fill-rule="evenodd" clip-rule="evenodd" d="M3.78747 4.78747C2.88048 5.69447 2.4 7.17904 2.4 9.56V15.44C2.4 17.821 2.88048 19.3055 3.78747 20.2125C4.69447 21.1195 6.17904 21.6 8.56 21.6H14.44C16.821 21.6 18.3055 21.1195 19.2125 20.2125C20.1195 19.3055 20.6 17.821 20.6 15.44V9.56C20.6 7.17904 20.1195 5.69447 19.2125 4.78747C18.3055 3.88048 16.821 3.4 14.44 3.4H8.56C6.17904 3.4 4.69447 3.88048 3.78747 4.78747ZM2.79753 3.79753C4.09553 2.49952 6.04096 2 8.56 2H14.44C16.959 2 18.9045 2.49952 20.2025 3.79753C21.5005 5.09553 22 7.04096 22 9.56V15.44C22 17.959 21.5005 19.9045 20.2025 21.2025C18.9045 22.5005 16.959 23 14.44 23H8.56C6.04096 23 4.09553 22.5005 2.79753 21.2025C1.49952 19.9045 1 17.959 1 15.44V9.56C1 7.04096 1.49952 5.09553 2.79753 3.79753ZM7.38399 7.32C6.79636 7.32 6.32 7.79636 6.32 8.38399C6.32 8.97163 6.79637 9.44801 7.38399 9.44801C7.9716 9.44801 8.44798 8.97163 8.44798 8.38399C8.44798 7.79636 7.97162 7.32 7.38399 7.32ZM4.92 8.38399C4.92 7.02316 6.02316 5.92 7.38399 5.92C8.74482 5.92 9.84798 7.02316 9.84798 8.38399C9.84798 9.50164 9.10385 10.4455 8.08399 10.7472V12.2788C8.57138 11.9595 9.15444 11.7752 9.78004 11.7804C9.78048 11.7804 9.78094 11.7804 9.78138 11.7804L11.7984 11.7902C12.8245 11.7967 13.7288 11.246 14.2232 10.4169C13.5763 9.9728 13.152 9.22794 13.152 8.38399C13.152 7.02316 14.2552 5.92 15.616 5.92C16.9768 5.92 18.08 7.02316 18.08 8.38399C18.08 9.7448 16.9769 10.848 15.616 10.848C15.6045 10.848 15.593 10.8479 15.5816 10.8478C14.8895 12.2417 13.4511 13.2007 11.7896 13.1902C11.7896 13.1902 11.7897 13.1902 11.7896 13.1902L9.7718 13.1804L9.769 13.1804C9.16708 13.1751 8.6304 13.4978 8.33312 13.9835C9.3827 14.322 10.142 15.3068 10.142 16.469C10.142 17.911 8.97303 19.08 7.53101 19.08C6.089 19.08 4.92 17.911 4.92 16.469C4.92 15.3234 5.65773 14.3502 6.68399 13.9985V10.7472C5.66412 10.4455 4.92 9.50164 4.92 8.38399ZM15.616 7.32C15.0284 7.32 14.552 7.79636 14.552 8.38399C14.552 8.97163 15.0284 9.44801 15.616 9.44801C16.2036 9.44801 16.68 8.97163 16.68 8.38399C16.68 7.79636 16.2036 7.32 15.616 7.32ZM7.53101 15.258C6.86218 15.258 6.32 15.8002 6.32 16.469C6.32 17.1378 6.8622 17.68 7.53101 17.68C8.19983 17.68 8.74202 17.1378 8.74202 16.469C8.74202 15.8002 8.19984 15.258 7.53101 15.258Z" fill="#595854"/>
</svg>
