<svg width="24" height="24" viewBox="0 0 24 24" fill="none" xmlns="http://www.w3.org/2000/svg">
<path fill-rule="evenodd" clip-rule="evenodd" d="M12 3.10999C9.85381 3.10999 7.88525 3.83994 6.31213 5.07068C5.98589 5.32591 5.51452 5.26835 5.25929 4.94212C5.00406 4.61588 5.06162 4.14451 5.38785 3.88928C7.21473 2.46002 9.50616 1.60999 12 1.60999C14.4429 1.60999 16.691 2.43927 18.4945 3.8134C18.824 4.06443 18.8876 4.53503 18.6366 4.86451C18.3855 5.19398 17.9149 5.25758 17.5855 5.00655C16.029 3.82067 14.0971 3.10999 12 3.10999ZM15.8897 8.48033C13.7426 6.33322 10.2574 6.33322 8.11031 8.48033C5.96321 10.6274 5.96321 14.1125 8.11031 16.2596C10.2574 18.4067 13.7426 18.4067 15.8897 16.2596C18.0368 14.1125 18.0368 10.6274 15.8897 8.48033ZM7.04965 7.41966C9.78255 4.68677 14.2174 4.68677 16.9503 7.41966C19.6832 10.1526 19.6832 14.5874 16.9503 17.3203C14.2174 20.0532 9.78255 20.0532 7.04965 17.3203C4.31676 14.5874 4.31676 10.1526 7.04965 7.41966ZM2.18607 10.3862C2.59687 10.4393 2.88686 10.8153 2.83379 11.2261C2.5839 13.1604 2.93544 15.1835 3.98912 17.0044L3.98956 17.0051C5.06272 18.8647 6.67963 20.2041 8.52852 20.9437C8.91311 21.0975 9.10017 21.534 8.94634 21.9186C8.7925 22.3031 8.35602 22.4902 7.97143 22.3364C5.82033 21.4759 3.93723 19.9154 2.69039 17.7549C1.46441 15.6359 1.05608 13.2793 1.34616 11.0339C1.39922 10.6231 1.77527 10.3331 2.18607 10.3862ZM21.8139 10.3862C22.2247 10.3331 22.6007 10.6231 22.6538 11.0339C22.9439 13.2794 22.5355 15.6362 21.3094 17.7553C20.0625 19.9155 18.1795 21.476 16.0285 22.3364C15.6439 22.4902 15.2075 22.3031 15.0536 21.9186C14.8998 21.534 15.0869 21.0975 15.4714 20.9437C17.3203 20.2041 18.9372 18.8647 20.0104 17.0051L20.0108 17.0044C21.0645 15.1835 21.4161 13.1604 21.1662 11.2261C21.1131 10.8153 21.4031 10.4393 21.8139 10.3862Z" fill="#595854"/>
</svg>
