<svg width="24" height="24" viewBox="0 0 24 24" fill="none" xmlns="http://www.w3.org/2000/svg">
<path fill-rule="evenodd" clip-rule="evenodd" d="M3.09467 3.09467C4.42914 1.7602 6.42603 1.25 9 1.25H15C17.574 1.25 19.5709 1.7602 20.9053 3.09467C22.2398 4.42914 22.75 6.42603 22.75 9V15C22.75 17.574 22.2398 19.5709 20.9053 20.9053C19.5709 22.2398 17.574 22.75 15 22.75H9C6.42603 22.75 4.42914 22.2398 3.09467 20.9053C1.7602 19.5709 1.25 17.574 1.25 15V9C1.25 6.42603 1.7602 4.42914 3.09467 3.09467ZM4.15533 4.15533C3.2398 5.07086 2.75 6.57397 2.75 9V15C2.75 17.426 3.2398 18.9291 4.15533 19.8447C5.07086 20.7602 6.57397 21.25 9 21.25H15C17.426 21.25 18.9291 20.7602 19.8447 19.8447C20.7602 18.9291 21.25 17.426 21.25 15V9C21.25 6.57397 20.7602 5.07086 19.8447 4.15533C19.342 3.6527 18.6623 3.27839 17.75 3.043V12.42C17.75 13.5666 17.3326 14.5715 16.4366 15.0579C15.5483 15.5401 14.4676 15.3602 13.4739 14.763C13.4738 14.7629 13.4741 14.7631 13.4739 14.763L12.1548 13.9735C12.1547 13.9735 12.1504 13.9709 12.1426 13.9678C12.1345 13.9646 12.1231 13.9608 12.1085 13.9572C12.0784 13.9499 12.041 13.945 12 13.945C11.959 13.945 11.9216 13.9499 11.8915 13.9572C11.8769 13.9608 11.8655 13.9646 11.8574 13.9678C11.8493 13.9711 11.8457 13.9732 11.8459 13.9731L10.5237 14.7644C9.5309 15.3555 8.45169 15.5344 7.56455 15.0547C6.66786 14.5699 6.25 13.5671 6.25 12.42V3.043C5.33769 3.27839 4.65796 3.6527 4.15533 4.15533ZM7.75 2.79956V12.42C7.75 13.2429 8.03714 13.6051 8.27795 13.7353C8.52825 13.8706 9.01888 13.9145 9.7558 13.4759C9.75563 13.476 9.75598 13.4758 9.7558 13.4759L11.0741 12.6869C11.366 12.5118 11.7019 12.445 12 12.445C12.2981 12.445 12.634 12.5118 12.9259 12.6869L14.2464 13.4772C14.9827 13.9198 15.4718 13.8748 15.7209 13.7396C15.9624 13.6085 16.25 13.2434 16.25 12.42V2.79956C15.8633 2.76665 15.4473 2.75 15 2.75H9C8.55265 2.75 8.13669 2.76665 7.75 2.79956Z" fill="#595854"/>
</svg>
