<svg width="24" height="24" viewBox="0 0 24 24" fill="none" xmlns="http://www.w3.org/2000/svg">
<path fill-rule="evenodd" clip-rule="evenodd" d="M17.4787 1.31702C17.8836 1.4047 18.1407 1.80396 18.053 2.20879L17.8361 3.20993H19.75C21.0135 3.20993 22.0669 3.98138 22.5098 5.0454C22.6142 5.28385 22.6839 5.53317 22.7196 5.78821C22.7344 5.83853 22.744 5.89118 22.748 5.9456L23.7381 19.5678C23.8581 21.2878 22.5084 22.75 20.78 22.75H3.23995C1.21739 22.75 -0.213984 20.7734 0.383667 18.8476L4.59329 5.32892C4.59319 5.32924 4.59338 5.32861 4.59329 5.32892C4.9791 4.0798 6.13626 3.20993 7.44997 3.20993H9.67171L9.99081 1.88449C10.0878 1.48178 10.4928 1.23392 10.8955 1.33087C11.2982 1.42782 11.5461 1.83287 11.4491 2.23558L11.2146 3.20993H16.3014L16.587 1.89126C16.6747 1.48643 17.0739 1.22934 17.4787 1.31702ZM15.9765 4.70993H10.8534L10.4091 6.55552C10.3122 6.95823 9.90713 7.2061 9.50442 7.10915C9.10171 7.0122 8.85385 6.60714 8.9508 6.20443L9.31059 4.70993H7.44997C6.80401 4.70993 6.2211 5.14075 6.02663 5.77112L6.02604 5.77301L1.81626 19.2922C1.81621 19.2924 1.81631 19.2921 1.81626 19.2922C1.51432 20.2663 2.24268 21.25 3.23995 21.25H16.38C17.0787 21.25 17.672 20.7827 17.8303 20.1166L17.8321 20.1087L21.2007 6.58495C21.2009 6.58401 21.2011 6.58307 21.2013 6.58213C21.2851 6.23063 21.2522 5.91072 21.134 5.64306L21.1302 5.63455L21.1266 5.62594C20.9074 5.09437 20.3831 4.70993 19.75 4.70993H17.5113L17.113 6.54875C17.0253 6.95358 16.626 7.21067 16.2212 7.12299C15.8164 7.03531 15.5593 6.63605 15.647 6.23123L15.9765 4.70993ZM21.6194 11.1099L19.2887 20.4675C19.2216 20.748 19.1166 21.0103 18.9798 21.25H20.78C21.6312 21.25 22.3012 20.5327 22.2419 19.6732C22.2418 19.6729 22.2418 19.6725 22.2418 19.6722L21.6194 11.1099ZM6.94998 12C6.94998 11.5858 7.28577 11.25 7.69998 11.25H15.7C16.1142 11.25 16.45 11.5858 16.45 12C16.45 12.4142 16.1142 12.75 15.7 12.75H7.69998C7.28577 12.75 6.94998 12.4142 6.94998 12ZM5.94998 16C5.94998 15.5858 6.28577 15.25 6.69998 15.25H14.7C15.1142 15.25 15.45 15.5858 15.45 16C15.45 16.4142 15.1142 16.75 14.7 16.75H6.69998C6.28577 16.75 5.94998 16.4142 5.94998 16Z" fill="#595854"/>
</svg>
