<svg width="24" height="24" viewBox="0 0 24 24" fill="none" xmlns="http://www.w3.org/2000/svg">
<path fill-rule="evenodd" clip-rule="evenodd" d="M8.54832 2.589C8.97736 2.57803 9.44948 2.65003 9.8503 2.84666L9.85489 2.84891L15.1104 5.4717C15.2339 5.53461 15.446 5.58276 15.7006 5.57532C15.9547 5.5679 16.1667 5.50759 16.2889 5.43822C16.2888 5.43828 16.289 5.43816 16.2889 5.43822L18.637 4.09931C18.6368 4.09946 18.6373 4.09916 18.637 4.09931C19.598 3.54877 20.6444 3.41157 21.4966 3.90641C22.3488 4.40126 22.75 5.37812 22.75 6.49V16.22C22.75 16.7061 22.5806 17.1909 22.3491 17.5879C22.1173 17.9852 21.7806 18.3677 21.3671 18.6083L21.3627 18.6108L17.0327 21.0908L17.0307 21.092C16.6398 21.3142 16.17 21.4101 15.7416 21.421C15.3126 21.432 14.8405 21.36 14.4397 21.1633L14.434 21.1606L9.17953 18.5283C9.05604 18.4654 8.844 18.4172 8.58937 18.4247C8.33529 18.4321 8.12323 18.4924 8.00104 18.5618C8.00093 18.5618 8.00115 18.5617 8.00104 18.5618L5.65294 19.9007C5.6527 19.9008 5.65318 19.9006 5.65294 19.9007C4.69196 20.4513 3.64562 20.5884 2.79338 20.0936C1.94113 19.5987 1.53998 18.6219 1.53998 17.51V7.78C1.53998 7.30035 1.70586 6.81846 1.93668 6.42165C2.16771 6.02446 2.50583 5.64018 2.92723 5.39919L7.25925 2.91803C7.65012 2.69577 8.11996 2.59994 8.54832 2.589ZM7.80998 4.33121L3.67273 6.70081C3.53442 6.77985 3.36713 6.94574 3.23328 7.17585C3.09909 7.40654 3.03998 7.62965 3.03998 7.78V17.51C3.03998 18.2981 3.31382 18.6613 3.54658 18.7964C3.77912 18.9314 4.22819 18.9884 4.90702 18.5993L4.90847 18.5985L7.25847 17.2585C7.43003 17.1609 7.61801 17.0866 7.81071 17.0334C7.81023 17.0223 7.80998 17.0112 7.80998 17V4.33121ZM9.30998 16.9965C9.4994 17.0393 9.68511 17.1027 9.85796 17.1905C9.85878 17.1909 9.8596 17.1913 9.86042 17.1917L14.98 19.7564V7.00353C14.7908 6.96071 14.6053 6.89744 14.4326 6.80984L9.30998 4.25341V16.9965ZM16.48 6.96637V19.6788L20.6128 17.3117C20.6134 17.3114 20.614 17.3111 20.6146 17.3107C20.7508 17.2308 20.9183 17.0638 21.0534 16.8321C21.1893 16.5991 21.25 16.3739 21.25 16.22V6.49C21.25 5.70188 20.9761 5.33874 20.7434 5.20359C20.5108 5.06857 20.0618 5.01161 19.3829 5.40069L19.3815 5.40152L17.0315 6.74152C16.8601 6.83895 16.6724 6.91322 16.48 6.96637Z" fill="#595854"/>
</svg>
