<svg width="24" height="24" viewBox="0 0 24 24" fill="none" xmlns="http://www.w3.org/2000/svg">
<path fill-rule="evenodd" clip-rule="evenodd" d="M3.09467 3.09467C4.42914 1.7602 6.42603 1.25 9 1.25H15C17.574 1.25 19.5709 1.7602 20.9053 3.09467C22.2398 4.42914 22.75 6.42603 22.75 9V15C22.75 17.574 22.2398 19.5709 20.9053 20.9053C19.5709 22.2398 17.574 22.75 15 22.75H9C6.42603 22.75 4.42914 22.2398 3.09467 20.9053C1.7602 19.5709 1.25 17.574 1.25 15V9C1.25 6.42603 1.7602 4.42914 3.09467 3.09467ZM2.75 13.75V15C2.75 17.426 3.2398 18.9291 4.15533 19.8447C5.07086 20.7602 6.57397 21.25 9 21.25H15C17.426 21.25 18.9291 20.7602 19.8447 19.8447C20.7602 18.9291 21.25 17.426 21.25 15V13.74H18.24C17.7668 13.74 17.3354 14.007 17.1212 14.4347C17.1211 14.4349 17.1213 14.4345 17.1212 14.4347L16.2316 16.2239L16.2308 16.2254C15.7649 17.1573 14.8166 17.75 13.77 17.75H10.24C9.95224 17.75 8.53924 17.7481 7.77163 16.2403L7.7684 16.2339L6.87918 14.4454C6.87906 14.4452 6.8793 14.4456 6.87918 14.4454C6.66498 14.0177 6.23317 13.75 5.76 13.75H2.75ZM21.25 12.24V9C21.25 6.57397 20.7602 5.07086 19.8447 4.15533C18.9291 3.2398 17.426 2.75 15 2.75H9C6.57397 2.75 5.07086 3.2398 4.15533 4.15533C3.2398 5.07086 2.75 6.57397 2.75 9V12.25H5.76C6.80657 12.25 7.75489 12.8427 8.22082 13.7746L8.22157 13.7761L9.10985 15.5626C9.46142 16.25 10.0448 16.25 10.2384 16.25H13.77C14.2432 16.25 14.6746 15.983 14.8888 15.5553C14.8887 15.5555 14.8889 15.5551 14.8888 15.5553L15.7784 13.7661L15.7792 13.7646C16.2451 12.8327 17.1934 12.24 18.24 12.24H21.25Z" fill="#595854"/>
</svg>
