<svg width="24" height="24" viewBox="0 0 24 24" fill="none" xmlns="http://www.w3.org/2000/svg">
<path fill-rule="evenodd" clip-rule="evenodd" d="M12.3941 3.42408C11.9848 3.83336 11.72 4.54897 11.72 5.85V6.25C13.669 6.25 15.2284 6.6352 16.2816 7.68842C17.3348 8.74164 17.72 10.301 17.72 12.25H18.12C19.421 12.25 20.1366 11.9852 20.5459 11.5759C20.9552 11.1666 21.22 10.451 21.22 9.15V5.85C21.22 4.54897 20.9552 3.83336 20.5459 3.42408C20.1366 3.0148 19.421 2.75 18.12 2.75H14.82C13.519 2.75 12.8034 3.0148 12.3941 3.42408ZM17.72 13.75H18.12C19.569 13.75 20.7784 13.4648 21.6066 12.6366C22.4348 11.8084 22.72 10.599 22.72 9.15V5.85C22.72 4.40103 22.4348 3.19164 21.6066 2.36342C20.7784 1.5352 19.569 1.25 18.12 1.25H14.82C13.371 1.25 12.1616 1.5352 11.3334 2.36342C10.5052 3.19164 10.22 4.40103 10.22 5.85V6.25H7.22C5.27103 6.25 3.71164 6.6352 2.65842 7.68842C1.6052 8.74164 1.22 10.301 1.22 12.25V16.75C1.22 18.699 1.6052 20.2584 2.65842 21.3116C3.71164 22.3648 5.27103 22.75 7.22 22.75H11.72C13.669 22.75 15.2284 22.3648 16.2816 21.3116C17.3348 20.2584 17.72 18.699 17.72 16.75V13.75ZM7.22 7.75C5.41897 7.75 4.35336 8.1148 3.71908 8.74908C3.0848 9.38336 2.72 10.449 2.72 12.25V16.75C2.72 18.551 3.0848 19.6166 3.71908 20.2509C4.35336 20.8852 5.41897 21.25 7.22 21.25H11.72C13.521 21.25 14.5866 20.8852 15.2209 20.2509C15.8552 19.6166 16.22 18.551 16.22 16.75V12.25C16.22 10.449 15.8552 9.38336 15.2209 8.74908C14.5866 8.1148 13.521 7.75 11.72 7.75H7.22Z" fill="#595854"/>
</svg>
