<svg width="24" height="24" viewBox="0 0 24 24" fill="none" xmlns="http://www.w3.org/2000/svg">
<path fill-rule="evenodd" clip-rule="evenodd" d="M10.3333 3.08449C10.3332 3.08454 10.3334 3.08445 10.3333 3.08449L4.76009 5.36578C4.54303 5.45317 4.30519 5.64972 4.11865 5.92721C3.93198 6.20489 3.83997 6.49923 3.83997 6.73003V11.12C3.83997 15.6603 7.15239 19.9528 11.6883 21.2067C11.8885 21.2611 12.1114 21.2611 12.3117 21.2067C16.8475 19.9528 20.16 15.6603 20.16 11.12L20.16 11.1183L20.17 6.73003C20.17 6.72979 20.17 6.73028 20.17 6.73003C20.1698 6.50202 20.0771 6.20782 19.8885 5.92864C19.6998 5.64931 19.4605 5.4517 19.2467 5.36449L13.6766 3.08449C13.6764 3.08441 13.6768 3.08457 13.6766 3.08449C12.6085 2.64887 11.4014 2.6488 10.3333 3.08449ZM9.76663 1.69564C11.1982 1.11154 12.8117 1.11154 14.2433 1.69564L19.8132 3.97559C20.359 4.19847 20.8153 4.62101 21.1314 5.08893C21.4476 5.55695 21.67 6.13815 21.67 6.73003L21.67 6.73174L21.66 11.12C21.66 11.1198 21.66 11.1203 21.66 11.12C21.6595 16.359 17.8728 21.2265 12.7097 22.653L12.7073 22.6536C12.2481 22.7789 11.7518 22.7789 11.2926 22.6536L11.2902 22.653C6.12684 21.2264 2.33997 16.3593 2.33997 11.12V6.73003C2.33997 6.14084 2.55796 5.56018 2.87379 5.09036C3.18934 4.62097 3.64572 4.19804 4.19768 3.97519L9.76663 1.69564ZM12 9.25006C11.3096 9.25006 10.75 9.80971 10.75 10.5001C10.75 11.1904 11.3096 11.7501 12 11.7501C12.6903 11.7501 13.25 11.1904 13.25 10.5001C13.25 9.80971 12.6903 9.25006 12 9.25006ZM9.24997 10.5001C9.24997 8.98128 10.4812 7.75006 12 7.75006C13.5188 7.75006 14.75 8.98128 14.75 10.5001C14.75 11.7588 13.9042 12.8201 12.75 13.1465V15.5001C12.75 15.9143 12.4142 16.2501 12 16.2501C11.5858 16.2501 11.25 15.9143 11.25 15.5001V13.1465C10.0957 12.8201 9.24997 11.7588 9.24997 10.5001Z" fill="#595854"/>
</svg>
