<svg width="24" height="24" viewBox="0 0 24 24" fill="none" xmlns="http://www.w3.org/2000/svg">
<path fill-rule="evenodd" clip-rule="evenodd" d="M2.46967 4.46967C3.45818 3.48116 5.00536 3.25 7 3.25H17C18.9946 3.25 20.5418 3.48116 21.5303 4.46967C22.5188 5.45818 22.75 7.00536 22.75 9V10C22.75 10.4142 22.4142 10.75 22 10.75C21.0342 10.75 20.25 11.5342 20.25 12.5C20.25 13.4658 21.0342 14.25 22 14.25C22.4142 14.25 22.75 14.5858 22.75 15C22.75 16.9946 22.5188 18.5418 21.5303 19.5303C20.5418 20.5188 18.9946 20.75 17 20.75H7C5.00536 20.75 3.45818 20.5188 2.46967 19.5303C1.48116 18.5418 1.25 16.9946 1.25 15V14.5C1.25 14.0858 1.58579 13.75 2 13.75C2.96579 13.75 3.75 12.9658 3.75 12C3.75 11.0342 2.96579 10.25 2 10.25C1.58579 10.25 1.25 9.91421 1.25 9.5V9C1.25 7.00536 1.48116 5.45818 2.46967 4.46967ZM2.75061 8.8372C4.18324 9.17623 5.25 10.4641 5.25 12C5.25 13.5359 4.18324 14.8238 2.75061 15.1628C2.76494 17.0573 3.03288 17.9722 3.53033 18.4697C4.04182 18.9812 4.99464 19.25 7 19.25H17C19.0054 19.25 19.9582 18.9812 20.4697 18.4697C20.9214 18.0179 21.1839 17.2218 21.239 15.6603C19.8116 15.3176 18.75 14.0322 18.75 12.5C18.75 10.9639 19.8171 9.67586 21.25 9.33706V9C21.25 6.99464 20.9812 6.04182 20.4697 5.53033C19.9582 5.01884 19.0054 4.75 17 4.75H7C4.99464 4.75 4.04182 5.01884 3.53033 5.53033C3.03288 6.02778 2.76494 6.94266 2.75061 8.8372ZM14.4697 8.21967C14.7626 7.92678 15.2374 7.92678 15.5303 8.21967C15.8232 8.51256 15.8232 8.98744 15.5303 9.28033L9.53033 15.2803C9.23744 15.5732 8.76256 15.5732 8.46967 15.2803C8.17678 14.9874 8.17678 14.5126 8.46967 14.2197L14.4697 8.21967ZM8.24451 9.25C8.24451 8.83579 8.58029 8.5 8.99451 8.5H9.00349C9.4177 8.5 9.75349 8.83579 9.75349 9.25C9.75349 9.66421 9.4177 10 9.00349 10H8.99451C8.58029 10 8.24451 9.66421 8.24451 9.25ZM14.2445 14.75C14.2445 14.3358 14.5803 14 14.9945 14H15.0035C15.4177 14 15.7535 14.3358 15.7535 14.75C15.7535 15.1642 15.4177 15.5 15.0035 15.5H14.9945C14.5803 15.5 14.2445 15.1642 14.2445 14.75Z" fill="#595854"/>
</svg>
