<svg width="24" height="24" viewBox="0 0 24 24" fill="none" xmlns="http://www.w3.org/2000/svg">
<path fill-rule="evenodd" clip-rule="evenodd" d="M3.27361 2.27405C4.0993 1.51137 5.23316 1.25 6.61999 1.25H9.66998C9.67331 1.25 9.67663 1.25002 9.67996 1.25007C9.6833 1.25002 9.68666 1.25 9.69001 1.25H17.37C18.7568 1.25 19.8907 1.51137 20.7164 2.27405C21.5322 3.02762 21.9053 4.14206 22.0929 5.49711C22.0941 5.50605 22.0952 5.51502 22.0961 5.524L22.3763 8.27572C22.477 9.28722 22.225 10.2262 21.7208 10.9801C21.7462 11.0554 21.76 11.1361 21.76 11.22V15.71C21.76 18.0284 21.3025 19.8478 20.0831 21.0687C18.8636 22.2898 17.0439 22.75 14.72 22.75H9.33002C8.85856 22.75 8.41005 22.7311 7.98205 22.6865C7.16647 23.3601 6.12715 23.75 5 23.75C3.55017 23.75 2.25229 23.0955 1.3949 22.0714C1.39329 22.0695 1.39169 22.0676 1.3901 22.0656C1.38191 22.0572 1.37128 22.0461 1.36037 22.0341C1.34694 22.0192 1.3304 22.0001 1.31248 21.9768C1.1778 21.8177 1.04663 21.6392 0.933959 21.4412C0.496612 20.7269 0.25 19.8854 0.25 19C0.25 17.5079 0.936766 16.1656 2.0285 15.2967C2.11334 15.2271 2.2005 15.1613 2.28998 15.0993V11.22C2.28998 11.1571 2.29771 11.0961 2.31226 11.0378C1.7801 10.2748 1.51036 9.3139 1.61366 8.27572L1.61384 8.274L1.89387 5.524C1.89478 5.51502 1.89586 5.50605 1.8971 5.49711C2.08472 4.14206 2.45779 3.02762 3.27361 2.27405ZM3.78998 12.3142V14.4084C4.17673 14.3052 4.58251 14.25 5 14.25C6.17689 14.25 7.24317 14.6722 8.07312 15.3876C8.2372 15.5139 8.37551 15.6552 8.48392 15.7744C9.261 16.6227 9.75 17.7499 9.75 19C9.75 19.8073 9.54498 20.5781 9.1773 21.2493C9.22768 21.2498 9.27858 21.25 9.33002 21.25H14.72C16.8961 21.25 18.2214 20.8102 19.0218 20.0087C19.8225 19.2071 20.26 17.8815 20.26 15.71V12.2878C19.6919 12.5833 19.0373 12.75 18.33 12.75C17.0652 12.75 15.8934 12.1209 15.1335 11.1594C14.4644 12.1248 13.344 12.75 12.03 12.75C10.7015 12.75 9.56563 12.1102 8.89618 11.1242C8.13781 12.1071 6.94685 12.75 5.66998 12.75C4.98447 12.75 4.3473 12.5933 3.78998 12.3142ZM8.84135 2.75H6.61999C5.38681 2.75 4.71069 2.98862 4.29139 3.37592C3.86374 3.77094 3.55747 4.45304 3.38476 5.68964L3.10629 8.42424C3.10627 8.42452 3.10632 8.42395 3.10629 8.42424C2.95088 9.99088 4.09226 11.25 5.66998 11.25C6.93659 11.25 8.10101 10.2005 8.22347 8.93762L8.22368 8.93549L8.84135 2.75ZM9.76636 8.75414C9.6303 10.141 10.6418 11.25 12.03 11.25C13.2622 11.25 14.1938 10.3748 14.2882 9.20252C14.2831 9.1656 14.2785 9.12854 14.2744 9.09135L14.2737 9.08454L13.6412 2.75H10.3686L9.76636 8.75414C9.76638 8.75391 9.76634 8.75436 9.76636 8.75414ZM15.189 2.75L15.7764 8.60664C15.7935 8.7806 15.7994 8.95224 15.7946 9.12088C16.023 10.307 17.1321 11.25 18.33 11.25C19.9047 11.25 21.0396 9.99467 20.8837 8.42482C20.8837 8.42463 20.8838 8.42502 20.8837 8.42482L20.6052 5.68964C20.4325 4.45304 20.1262 3.77094 19.6986 3.37592C19.2793 2.98862 18.6032 2.75 17.37 2.75H15.189ZM5 15.75C4.42521 15.75 3.88242 15.9036 3.41087 16.1719C3.40374 16.1759 3.39655 16.1799 3.38929 16.1837C3.24571 16.2593 3.10831 16.3506 2.97678 16.459L2.96626 16.4676C2.22108 17.0589 1.75 17.9745 1.75 19C1.75 19.6094 1.92053 20.1834 2.2184 20.6664C2.22367 20.6749 2.22877 20.6836 2.2337 20.6924C2.29433 20.8002 2.37353 20.91 2.46947 21.0219C2.47299 21.026 2.47647 21.0302 2.4799 21.0344C2.48809 21.0427 2.49871 21.0539 2.50962 21.0659C2.52345 21.0812 2.54058 21.1011 2.55912 21.1252C3.14181 21.8115 4.01777 22.25 5 22.25C5.82269 22.25 6.56449 21.9499 7.12828 21.4425C7.13605 21.4355 7.14397 21.4287 7.15202 21.422C7.17979 21.3885 7.21044 21.3574 7.24363 21.3291C7.43823 21.1633 7.61789 20.9419 7.77509 20.6772L7.78152 20.6663C8.07938 20.1833 8.25 19.6094 8.25 19C8.25 18.1507 7.91943 17.3784 7.37713 16.7868L7.37504 16.7845C7.28866 16.6895 7.2152 16.6189 7.14998 16.57C7.13531 16.559 7.12106 16.5474 7.10724 16.5354C6.53997 16.0411 5.81383 15.75 5 15.75ZM5 16.77C5.41421 16.77 5.75 17.1058 5.75 17.52V18.23H6.48999C6.9042 18.23 7.23999 18.5658 7.23999 18.98C7.23999 19.3942 6.9042 19.73 6.48999 19.73H5.75V20.51C5.75 20.9242 5.41421 21.26 5 21.26C4.58579 21.26 4.25 20.9242 4.25 20.51V19.73H3.51001C3.0958 19.73 2.76001 19.3942 2.76001 18.98C2.76001 18.5658 3.0958 18.23 3.51001 18.23H4.25V17.52C4.25 17.1058 4.58579 16.77 5 16.77Z" fill="#595854"/>
</svg>
