<svg width="24" height="24" viewBox="0 0 24 24" fill="none" xmlns="http://www.w3.org/2000/svg">
<path fill-rule="evenodd" clip-rule="evenodd" d="M12.7788 4.009C12.3136 3.66186 11.673 3.66605 11.2234 4.00727L4.22641 9.32346C3.92146 9.56005 3.75 9.91067 3.75 10.2604V10.2636L3.7032 21.25H6.25V12.7293C6.25 11.488 7.27317 10.5155 8.5 10.5155H15.5C16.7268 10.5155 17.75 11.488 17.75 12.7293V22C17.75 22.4142 17.4142 22.75 17 22.75H2C1.58579 22.75 1.25 22.4142 1.25 22C1.25 21.5858 1.58579 21.25 2 21.25H2.20318L2.25 10.2604C2.25 10.2598 2.25 10.2592 2.25 10.2586C2.25056 9.41924 2.65819 8.6395 3.31147 8.1348L3.31625 8.13111L10.3163 2.81268C11.3062 2.06135 12.6849 2.0649 13.6795 2.80946L13.6832 2.81226L20.6826 8.1205C21.3593 8.63263 21.75 9.41964 21.75 10.2604V16.6325H20.25V10.2604C20.25 9.89102 20.0807 9.54611 19.7774 9.31659L12.7805 4.01026C12.78 4.00984 12.7794 4.00942 12.7788 4.009ZM16.25 21.25V12.7293C16.25 12.3507 15.9332 12.0155 15.5 12.0155H8.5C8.06683 12.0155 7.75 12.3507 7.75 12.7293V21.25H16.25ZM9.75 7.85C9.75 7.43579 10.0858 7.1 10.5 7.1H13.5C13.9142 7.1 14.25 7.43579 14.25 7.85C14.25 8.26421 13.9142 8.6 13.5 8.6H10.5C10.0858 8.6 9.75 8.26421 9.75 7.85ZM10 15.6388C10.4142 15.6388 10.75 15.9746 10.75 16.3888V17.8526C10.75 18.2668 10.4142 18.6026 10 18.6026C9.58579 18.6026 9.25 18.2668 9.25 17.8526V16.3888C9.25 15.9746 9.58579 15.6388 10 15.6388Z" fill="#595854"/>
</svg>
