<svg width="24" height="24" viewBox="0 0 24 24" fill="none" xmlns="http://www.w3.org/2000/svg">
<path fill-rule="evenodd" clip-rule="evenodd" d="M1.25 12C1.25 6.08579 6.08579 1.25 12 1.25C16.8406 1.25 20.9178 4.47441 22.3133 8.76819C22.4413 9.16212 22.2257 9.58525 21.8318 9.71328C21.4379 9.8413 21.0148 9.62575 20.8867 9.23181C19.6822 5.52559 16.1594 2.75 12 2.75C6.91421 2.75 2.75 6.91421 2.75 12C2.75 17.0858 6.91421 21.25 12 21.25C16.1709 21.25 19.6749 18.5659 20.7802 14.7893C20.8965 14.3918 21.3131 14.1638 21.7107 14.2802C22.1082 14.3965 22.3362 14.8131 22.2198 15.2107C20.9251 19.6341 16.8291 22.75 12 22.75C6.08579 22.75 1.25 17.9142 1.25 12ZM12.5389 9.10961C11.4607 8.88883 10.55 9.69761 10.55 10.7C10.55 11.2713 10.8389 11.8013 11.2721 12.0488L11.65 12.2648V14.7C11.65 14.7962 11.693 14.915 11.7828 15.01C11.8667 15.0989 11.9747 15.15 12.1 15.15C12.1962 15.15 12.315 15.107 12.41 15.0172C12.4989 14.9333 12.55 14.8253 12.55 14.7V12.2843L12.9025 12.064C13.4452 11.7248 13.7823 11.0522 13.5764 10.2973L13.5743 10.2896L13.5724 10.2819C13.4528 9.80352 13.0099 9.36564 12.5389 9.10961ZM9.05 10.7C9.05 8.72684 10.8943 7.1505 12.9819 7.67239L13.0618 7.69236L13.1354 7.72918C13.8358 8.07937 14.7491 8.81804 15.0256 9.91022C15.3699 11.1841 14.8932 12.3657 14.05 13.0787V14.7C14.05 15.854 13.0732 16.65 12.1 16.65C10.946 16.65 10.15 15.6732 10.15 14.7V13.0912C9.42842 12.5009 9.05 11.5852 9.05 10.7Z" fill="#595854"/>
</svg>
