<svg width="24" height="24" viewBox="0 0 24 24" fill="none" xmlns="http://www.w3.org/2000/svg">
<path fill-rule="evenodd" clip-rule="evenodd" d="M2.87187 2.87187C4.2173 1.52645 6.24206 1 8.89412 1H15.1059C17.7579 1 19.7827 1.52645 21.1281 2.87187C22.4736 4.2173 23 6.24206 23 8.89412V15.1059C23 17.7579 22.4736 19.7827 21.1281 21.1281C19.7827 22.4736 17.7579 23 15.1059 23H8.89412C6.24206 23 4.2173 22.4736 2.87187 21.1281C1.52645 19.7827 1 17.7579 1 15.1059V8.89412C1 6.24206 1.52645 4.2173 2.87187 2.87187ZM3.78695 3.78695C2.80296 4.77094 2.29412 6.3697 2.29412 8.89412V15.1059C2.29412 17.6303 2.80296 19.2291 3.78695 20.213C4.77094 21.197 6.3697 21.7059 8.89412 21.7059H15.1059C17.6303 21.7059 19.2291 21.197 20.213 20.213C21.197 19.2291 21.7059 17.6303 21.7059 15.1059V8.89412C21.7059 6.3697 21.197 4.77094 20.213 3.78695C19.2291 2.80296 17.6303 2.29412 15.1059 2.29412H8.89412C6.3697 2.29412 4.77094 2.80296 3.78695 3.78695ZM12.6705 7.92223C11.5473 6.74932 9.72814 6.75222 8.6179 7.92133L6.3506 10.3025C6.35049 10.3026 6.35072 10.3024 6.3506 10.3025C5.22153 11.4918 5.22127 13.4606 6.3505 14.6498M12.6705 7.92223C13.7991 9.11166 13.7988 11.0797 12.6696 12.2688L11.5407 13.4598C11.2949 13.7192 11.3058 14.1287 11.5652 14.3745C11.8246 14.6204 12.2341 14.6094 12.48 14.3501L13.608 13.1599C13.608 13.1599 13.6081 13.1599 13.608 13.1599C15.2117 11.4711 15.2117 8.71894 13.608 7.03018L13.6063 7.02842C11.9757 5.3242 9.30256 5.32147 7.67986 7.0298C7.67998 7.02967 7.67974 7.02993 7.67986 7.0298L5.4122 9.41135C3.80847 11.1001 3.80847 13.8523 5.4122 15.5411C6.11996 16.2855 7.04194 16.7193 7.98582 16.8062C8.34167 16.839 8.65672 16.5771 8.6895 16.2212C8.72227 15.8654 8.46036 15.5503 8.10451 15.5175C7.47486 15.4595 6.84364 15.1683 6.3505 14.6498M15.3105 7.77878C15.3433 7.42293 15.6583 7.16102 16.0142 7.1938C16.9581 7.28073 17.8797 7.71425 18.5875 8.45862C20.1912 10.1474 20.1915 12.8999 18.5878 14.5886L16.3205 16.9698C14.6978 18.6785 12.0244 18.6759 10.3936 16.9716L10.392 16.9698C8.78826 15.2811 8.78823 12.5289 10.3919 10.8401C10.3919 10.8401 10.3919 10.8402 10.3919 10.8401L11.52 9.64994C11.7659 9.39057 12.1754 9.3796 12.4348 9.62544C12.6941 9.87128 12.7051 10.2808 12.4593 10.5402L11.3308 11.7308C10.2016 12.9198 10.2009 14.8883 11.3295 16.0777C12.4526 17.2507 14.2718 17.2478 15.3821 16.0787L17.6494 13.6975C17.6495 13.6973 17.6492 13.6977 17.6494 13.6975C18.7784 12.5081 18.7787 10.5392 17.6494 9.35005C17.1562 8.83155 16.5251 8.54045 15.8955 8.48246C15.5396 8.44968 15.2777 8.13464 15.3105 7.77878Z" fill="#595854"/>
</svg>
