<svg width="24" height="24" viewBox="0 0 24 24" fill="none" xmlns="http://www.w3.org/2000/svg">
<path fill-rule="evenodd" clip-rule="evenodd" d="M4.25 3.5C4.25 3.08579 4.58579 2.75 5 2.75H15.27C15.6842 2.75 16.02 3.08579 16.02 3.5C16.02 3.91421 15.6842 4.25 15.27 4.25H6.81066L19.5303 16.9697C19.8232 17.2626 19.8232 17.7374 19.5303 18.0303C19.2374 18.3232 18.7626 18.3232 18.4697 18.0303L5.75 5.31066V13.77C5.75 14.1842 5.41421 14.52 5 14.52C4.58579 14.52 4.25 14.1842 4.25 13.77V3.5ZM2.75 22C2.75 21.5858 3.08579 21.25 3.5 21.25H20.5C20.9142 21.25 21.25 21.5858 21.25 22C21.25 22.4142 20.9142 22.75 20.5 22.75H3.5C3.08579 22.75 2.75 22.4142 2.75 22Z" fill="#595854"/>
</svg>
