<svg width="24" height="24" viewBox="0 0 24 24" fill="none" xmlns="http://www.w3.org/2000/svg">
<path fill-rule="evenodd" clip-rule="evenodd" d="M15.75 6.50999C15.75 4.31664 13.8655 2.55984 11.6324 2.77649L11.6297 2.77674C9.80824 2.94675 8.25 4.79243 8.25 6.69999V7.24999H15.75V6.50999ZM17.25 7.31195V6.50999C17.25 3.44379 14.6152 0.980854 11.4889 1.28336C8.81106 1.53411 6.75 4.10798 6.75 6.69999V7.31195C5.19497 7.47739 4.08184 7.97513 3.37354 8.81722C2.49527 9.86139 2.41305 11.2337 2.55455 12.5125L3.30499 18.5166C3.41554 19.5428 3.67444 20.6669 4.59039 21.5037C5.50153 22.3361 6.91315 22.75 9 22.75H15C17.0869 22.75 18.4985 22.3361 19.4096 21.5037C20.3255 20.6669 20.5844 19.5429 20.695 18.5166L21.4442 12.523L21.4454 12.5125C21.587 11.2337 21.5047 9.86139 20.6265 8.81722C19.9182 7.97513 18.805 7.47739 17.25 7.31195ZM4.04488 12.3423L4.79585 18.3501C4.8957 19.282 5.10255 19.9399 5.60212 20.3963C6.10847 20.8589 7.06685 21.25 9 21.25H15C16.9332 21.25 17.8915 20.8589 18.3979 20.3963C18.8975 19.9399 19.1044 19.282 19.2043 18.3501L19.2057 18.337L19.9551 12.3422C20.0826 11.1837 19.9495 10.3427 19.4785 9.78276C19.014 9.23042 18.047 8.74999 16 8.74999H8C5.95304 8.74999 4.98605 9.23042 4.52146 9.78276C4.05044 10.3428 3.91735 11.1838 4.04488 12.3423ZM12 11.75C10.2051 11.75 8.75 13.2051 8.75 15C8.75 16.7949 10.2051 18.25 12 18.25C13.7949 18.25 15.25 16.7949 15.25 15C15.25 13.2051 13.7949 11.75 12 11.75ZM7.25 15C7.25 12.3766 9.37665 10.25 12 10.25C14.6234 10.25 16.75 12.3766 16.75 15C16.75 17.6233 14.6234 19.75 12 19.75C9.37665 19.75 7.25 17.6233 7.25 15ZM14.1116 13.5118C14.3922 13.8164 14.3728 14.2909 14.0682 14.5716L12.297 16.2034C11.7939 16.6921 11.0183 16.639 10.5597 16.1803L9.90967 15.5303C9.61678 15.2374 9.61678 14.7626 9.90967 14.4697C10.2026 14.1768 10.6774 14.1768 10.9703 14.4697L11.4473 14.9467L13.0518 13.4684C13.3564 13.1877 13.8309 13.2072 14.1116 13.5118Z" fill="#595854"/>
</svg>
