<svg width="24" height="24" viewBox="0 0 24 24" fill="none" xmlns="http://www.w3.org/2000/svg">
<path fill-rule="evenodd" clip-rule="evenodd" d="M14.5119 1.81864C14.5118 1.81861 14.5119 1.81867 14.5119 1.81864L20.0644 4.78755C20.0641 4.78743 20.0646 4.78768 20.0644 4.78755C20.8372 5.19918 21.4999 5.89415 21.9672 6.65601C22.4338 7.41673 22.75 8.3162 22.75 9.1791V14.8284C22.75 15.6913 22.4338 16.5908 21.9672 17.3515C21.4998 18.1135 20.8376 18.8083 20.0645 19.2199C20.0645 19.2199 20.0646 19.2198 20.0645 19.2199L14.5117 22.1889L14.51 22.1899C13.7806 22.5774 12.8689 22.75 12 22.75C11.1311 22.75 10.2194 22.5774 9.49001 22.1899L3.93565 19.2199C3.93552 19.2199 3.93578 19.22 3.93565 19.2199C3.16266 18.8083 2.50013 18.1135 2.03279 17.3515C1.56621 16.5908 1.25 15.6913 1.25 14.8284V9.1791C1.25 8.3162 1.56621 7.41673 2.03279 6.65601C2.50009 5.89411 3.16214 5.1995 3.93503 4.78788C3.93483 4.78799 3.93524 4.78777 3.93503 4.78788L9.48568 1.81993C9.48614 1.81968 9.4866 1.81944 9.48706 1.81919C10.2169 1.42569 11.1269 1.25 11.9961 1.25C12.8661 1.25 13.7781 1.42609 14.5119 1.81864ZM11.9961 2.75C11.3032 2.75 10.6537 2.89405 10.1981 3.13995L10.1955 3.14133L8.64108 3.9725L17.2607 8.75771L20.3918 7.0141C20.0819 6.6207 19.7217 6.30443 19.3595 6.11163L13.8044 3.14133C13.3422 2.89402 12.6887 2.75 11.9961 2.75ZM21.1042 8.33425L17.945 10.0936V13.2386C17.945 13.6528 17.6092 13.9886 17.195 13.9886C16.7808 13.9886 16.445 13.6528 16.445 13.2386V10.9289L12.7448 12.9894V21.1941C13.151 21.1315 13.5175 21.0185 13.8055 20.8656C13.8053 20.8657 13.8057 20.8655 13.8055 20.8656L19.3595 17.8959C19.8448 17.6375 20.3265 17.1575 20.6886 16.5672C21.0514 15.9757 21.25 15.3453 21.25 14.8284V9.1791C21.25 8.91964 21.2 8.63161 21.1042 8.33425ZM11.2448 21.1925V12.9896L2.89294 8.34303C2.79905 8.63728 2.75 8.92219 2.75 9.1791V14.8284C2.75 15.3453 2.9486 15.9757 3.31145 16.5672C3.67345 17.1575 4.15521 17.6375 4.6405 17.8959L4.64172 17.8965L10.1938 20.8652C10.1941 20.8654 10.1944 20.8656 10.1947 20.8657C10.4802 21.0172 10.8428 21.1296 11.2448 21.1925ZM3.60255 7.0213L11.9946 11.6903L15.7179 9.61687L7.06689 4.81423L4.6405 6.11163C4.27612 6.3056 3.91374 6.62456 3.60255 7.0213Z" fill="#595854"/>
</svg>
