<svg width="24" height="24" viewBox="0 0 24 24" fill="none" xmlns="http://www.w3.org/2000/svg">
<path fill-rule="evenodd" clip-rule="evenodd" d="M11.7918 2.75C11.1184 2.75 10.4869 2.8932 10.0446 3.13689L10.0411 3.13883L4.60002 6.09883C4.24127 6.29379 3.88255 6.61722 3.57526 7.02076L11.7917 11.6873L20.006 7.01757C19.6992 6.61551 19.3418 6.29344 18.984 6.099L13.5391 3.1369C13.0968 2.89321 12.4653 2.75 11.7918 2.75ZM20.699 8.34902L12.5418 12.9863V21.1889C12.923 21.125 13.2669 21.0131 13.5391 20.8631L13.5438 20.8605L14.672 20.2494C14.3064 19.5811 14.0986 18.8156 14.0986 18C14.0986 16.5002 14.8031 15.1554 15.9154 14.2888C16.7446 13.6404 17.7921 13.25 18.9243 13.25C19.5735 13.25 20.1901 13.3745 20.7532 13.6032C20.7802 13.6141 20.807 13.6252 20.8337 13.6365V9.16999C20.8337 8.91691 20.7874 8.63742 20.699 8.34902ZM20.0474 14.9393C20.432 15.0751 20.7817 15.2797 21.086 15.5399C21.1128 15.5629 21.141 15.5837 21.1702 15.6023C21.8355 16.1985 22.25 17.0549 22.25 18C22.25 18.9678 21.8159 19.8347 21.1251 20.4314C20.5302 20.9409 19.7642 21.25 18.9243 21.25C17.9165 21.25 17.0201 20.8149 16.4127 20.1308C16.3891 20.0906 16.3617 20.0523 16.3305 20.0166C16.2327 19.9046 16.152 19.7947 16.0903 19.687C16.0852 19.6782 16.08 19.6695 16.0746 19.661C15.7714 19.1785 15.5986 18.6064 15.5986 18C15.5986 16.9801 16.0758 16.0652 16.8378 15.4717L16.8391 15.4707C17.416 15.0194 18.1412 14.75 18.9243 14.75C19.3194 14.75 19.6973 14.8168 20.0474 14.9393ZM15.606 21.4494C16.4728 22.2567 17.6425 22.75 18.9243 22.75C20.1422 22.75 21.2506 22.2994 22.1023 21.5694L22.1043 21.5677C23.1045 20.7044 23.75 19.4317 23.75 18C23.75 16.6822 23.2075 15.4954 22.3337 14.6377V9.16999C22.3337 8.31067 22.0251 7.41317 21.5681 6.6525C21.1107 5.89124 20.4613 5.19477 19.7005 4.7812C19.7004 4.78114 19.7006 4.78125 19.7005 4.7812L14.263 1.82311C14.2623 1.82277 14.2617 1.82243 14.2611 1.82209C13.5421 1.4265 12.646 1.25 11.7918 1.25C10.9376 1.25 10.0416 1.4265 9.32259 1.82209L3.8835 4.78103C3.8834 4.78109 3.8836 4.78098 3.8835 4.78103C3.12263 5.19461 2.47295 5.89124 2.01558 6.6525C1.55856 7.41317 1.25 8.31067 1.25 9.16999V14.83C1.25 15.6893 1.55856 16.5868 2.01558 17.3475C2.47295 18.1088 3.12233 18.8052 3.8832 19.2188C3.88311 19.2188 3.8833 19.2189 3.8832 19.2188L9.32073 22.1769C9.32133 22.1772 9.32193 22.1776 9.32252 22.1779C10.0415 22.5735 10.9376 22.75 11.7918 22.75C12.6458 22.75 13.5416 22.5736 14.2605 22.1783C14.2613 22.1778 14.2621 22.1773 14.263 22.1769L15.606 21.4494ZM11.0418 21.1889V12.9865L2.88345 8.35289C2.79584 8.63992 2.75 8.91804 2.75 9.16999V14.83C2.75 15.3507 2.94579 15.9832 3.30136 16.575C3.65652 17.1661 4.12783 17.6446 4.59973 17.901L10.0446 20.8631C10.3168 21.0131 10.6606 21.125 11.0418 21.1889ZM19.179 16C19.5932 16 19.929 16.3358 19.929 16.75V18.25C19.929 18.5156 19.7885 18.7614 19.5596 18.8962L18.2859 19.6462C17.929 19.8564 17.4693 19.7375 17.2591 19.3805C17.0489 19.0236 17.1679 18.5639 17.5248 18.3537L18.429 17.8212V16.75C18.429 16.3358 18.7648 16 19.179 16Z" fill="#595854"/>
</svg>
