<svg width="24" height="24" viewBox="0 0 24 24" fill="none" xmlns="http://www.w3.org/2000/svg">
<path fill-rule="evenodd" clip-rule="evenodd" d="M15.3427 3.77353C16.5046 4.41554 17.08 5.7689 17.08 7.40998V16.59C17.08 18.227 16.504 19.5792 15.3434 20.2223C14.1825 20.8655 12.7307 20.6363 11.3417 19.7655C11.3416 19.7655 11.3417 19.7655 11.3417 19.7655L8.43008 17.9408C8.21745 17.8161 7.98128 17.75 7.75996 17.75H6.32996C5.21435 17.75 4.23989 17.4706 3.54963 16.7803C2.85937 16.0901 2.57996 15.1156 2.57996 14V9.99998C2.57996 8.88437 2.85937 7.90991 3.54963 7.21965C4.23989 6.52939 5.21435 6.24998 6.32996 6.24998H7.75996C7.98128 6.24998 8.21746 6.18386 8.43009 6.0592L11.3416 4.23455C11.3415 4.23458 11.3416 4.23453 11.3416 4.23455C12.7293 3.36446 14.1812 3.13174 15.3427 3.77353ZM14.6172 5.08644C14.1138 4.80824 13.2705 4.79556 12.1384 5.50541L9.2106 7.34027L9.20286 7.34487C8.77729 7.59756 8.27621 7.74998 7.75996 7.74998H6.32996C5.44556 7.74998 4.92003 7.97057 4.61029 8.28031C4.30055 8.59005 4.07996 9.11559 4.07996 9.99998V14C4.07996 14.8844 4.30055 15.4099 4.61029 15.7197C4.92003 16.0294 5.44556 16.25 6.32996 16.25H7.75996C8.27621 16.25 8.77728 16.4024 9.20286 16.6551L9.2106 16.6597L12.1382 18.4945C13.2692 19.2036 14.1124 19.1895 14.6165 18.9102C15.1209 18.6307 15.58 17.9229 15.58 16.59V7.40998C15.58 6.07107 15.1203 5.36443 14.6172 5.08644ZM18.8796 7.40029C19.2108 7.15153 19.6809 7.21837 19.9297 7.54958C21.9101 10.1864 21.9101 13.8136 19.9297 16.4504C19.6809 16.7816 19.2108 16.8484 18.8796 16.5997C18.5483 16.3509 18.4815 15.8808 18.7303 15.5496C20.3099 13.4464 20.3099 10.5536 18.7303 8.45039C18.4815 8.11918 18.5483 7.64904 18.8796 7.40029Z" fill="#595854"/>
</svg>
