<svg width="24" height="24" viewBox="0 0 24 24" fill="none" xmlns="http://www.w3.org/2000/svg">
<path fill-rule="evenodd" clip-rule="evenodd" d="M5.90533 3.90533C5.18991 4.62075 4.75 5.67044 4.75 7V17C4.75 18.3296 5.18991 19.3793 5.90533 20.0947C6.62075 20.8101 7.67044 21.25 9 21.25H15C16.3296 21.25 17.3793 20.8101 18.0947 20.0947C18.8101 19.3793 19.25 18.3296 19.25 17V7C19.25 5.67044 18.8101 4.62075 18.0947 3.90533C17.3793 3.18991 16.3296 2.75 15 2.75H9C7.67044 2.75 6.62075 3.18991 5.90533 3.90533ZM4.84467 2.84467C5.87925 1.81009 7.32956 1.25 9 1.25H15C16.6704 1.25 18.1207 1.81009 19.1553 2.84467C20.1899 3.87925 20.75 5.32956 20.75 7V17C20.75 18.6704 20.1899 20.1207 19.1553 21.1553C18.1207 22.1899 16.6704 22.75 15 22.75H9C7.32956 22.75 5.87925 22.1899 4.84467 21.1553C3.81009 20.1207 3.25 18.6704 3.25 17V7C3.25 5.32956 3.81009 3.87925 4.84467 2.84467ZM12.1187 6.00223C12.6994 5.72434 13.2669 6.01777 13.6101 6.30384L13.6107 6.3043L15.6682 8.02221C15.6686 8.0226 15.6691 8.02299 15.6696 8.02337C16.3051 8.55065 16.3364 9.48524 15.7138 10.0456L13.5769 12.005L15.7139 13.9645C16.3364 14.5248 16.3051 15.4594 15.6696 15.9866C15.6691 15.987 15.6686 15.9874 15.6682 15.9878L13.6107 17.7057L13.6091 17.7071C13.2658 17.9921 12.7037 18.2761 12.1283 18.0068C11.5515 17.7368 11.41 17.1211 11.41 16.67V13.9918L9.09687 16.1128C8.79157 16.3927 8.31714 16.3722 8.0372 16.0669C7.75726 15.7616 7.77783 15.2871 8.08313 15.0072L11.3574 12.005L8.08313 9.00281C7.77783 8.72288 7.75726 8.24845 8.0372 7.94315C8.31713 7.63785 8.79156 7.61728 9.09686 7.89722L11.41 10.0182V7.34C11.41 6.89706 11.544 6.27728 12.1187 6.00223ZM12.91 13.4287L14.5699 14.9507L12.91 16.3366V13.4287ZM14.7118 14.8322L14.7115 14.8325L14.7118 14.8322ZM12.91 10.5813V7.67338L14.5699 9.05933L12.91 10.5813Z" fill="#595854"/>
</svg>
