<svg width="24" height="24" viewBox="0 0 24 24" fill="none" xmlns="http://www.w3.org/2000/svg">
<path fill-rule="evenodd" clip-rule="evenodd" d="M12.5075 15.9196C12.5075 17.0306 13.5654 17.5286 14.2853 17.0724L14.2942 17.0668L17.4619 15.1211L17.4634 15.1201L20.6291 13.1648C21.4606 12.643 21.4525 11.3314 20.6313 10.8244L17.4634 8.8678L17.4619 8.86684L14.2942 6.92101L14.2929 6.92016C13.5687 6.47318 12.5075 6.981 12.5075 8.08968L12.5075 15.9196ZM15.0835 18.3424C13.2051 19.5279 11.0075 18.0158 11.0075 15.9196L11.0075 14.8438L8.49257 16.3972L8.491 16.3982L5.32596 18.3424C3.44755 19.5279 1.24996 18.0158 1.24996 15.9196L1.24996 8.08968C1.24996 5.98967 3.44732 4.48665 5.32238 5.64326C5.32264 5.64342 5.32212 5.64309 5.32238 5.64326L8.49101 7.58968L8.49257 7.59064L11.0075 9.14402L11.0075 8.08968C11.0075 5.98965 13.2049 4.48662 15.08 5.64329C15.0803 5.64344 15.0798 5.64314 15.08 5.64329L18.2486 7.58968L18.2501 7.59064L21.4192 9.54799C21.4192 9.54803 21.4191 9.54796 21.4192 9.54799C23.1965 10.6453 23.1891 13.3328 21.4229 14.4375L21.4193 14.4398L18.2485 16.3982L15.0835 18.3424ZM10.8675 10.8206L7.70588 8.8678L7.70432 8.86683L4.53666 6.92101L4.53528 6.92016C3.81116 6.47318 2.74996 6.981 2.74996 8.08968L2.74996 15.9196C2.74996 17.0306 3.80785 17.5286 4.52776 17.0724L4.53663 17.0668L7.70432 15.1211L7.70589 15.1201L10.8675 13.1673M10.8675 10.8206C10.9214 10.8554 10.9675 10.8889 11.0075 10.9218L10.8675 10.8206Z" fill="#595854"/>
</svg>
