<svg width="24" height="24" viewBox="0 0 24 24" fill="none" xmlns="http://www.w3.org/2000/svg">
<path fill-rule="evenodd" clip-rule="evenodd" d="M3.89481 2.49637C4.84095 1.48504 6.3285 1.25 8.22 1.25H15.78C17.6715 1.25 19.1591 1.48504 20.1052 2.49637C21.0347 3.48991 21.25 5.03645 21.25 7.04001V11.3C21.25 11.7142 20.9142 12.05 20.5 12.05C20.0858 12.05 19.75 11.7142 19.75 11.3V7.04001C19.75 5.01357 19.4953 4.0401 19.0098 3.52114C18.5409 3.01996 17.6685 2.75 15.78 2.75H8.22C6.3315 2.75 5.45906 3.01996 4.99019 3.52114C4.50468 4.0401 4.25 5.01357 4.25 7.04001V18.3C4.25 18.9046 4.33408 19.3385 4.45025 19.6233C4.56542 19.9057 4.68815 19.9904 4.74794 20.0162C4.80225 20.0396 4.92947 20.0686 5.18132 19.9599C5.44052 19.848 5.78163 19.6077 6.18124 19.1788C6.18701 19.1726 6.19289 19.1665 6.19887 19.1605L6.20198 19.1574C7.3393 17.9598 9.1318 18.0578 10.1207 19.381L11.1305 20.7307C11.3787 21.0624 11.311 21.5324 10.9793 21.7805C10.6476 22.0287 10.1776 21.9609 9.92947 21.6293L8.91946 20.2793C8.49066 19.7055 7.78886 19.6606 7.28577 20.1944L7.27113 20.2095L7.26989 20.2108C6.78723 20.7271 6.28513 21.1171 5.77589 21.337C5.25617 21.5614 4.68652 21.6229 4.15457 21.3938C3.62811 21.1671 3.27521 20.7143 3.06131 20.1898C2.84842 19.6677 2.75 19.0254 2.75 18.3V7.04001C2.75 5.03645 2.96532 3.48991 3.89481 2.49637ZM7.25 7C7.25 6.58579 7.58579 6.25 8 6.25H16C16.4142 6.25 16.75 6.58579 16.75 7C16.75 7.41421 16.4142 7.75 16 7.75H8C7.58579 7.75 7.25 7.41421 7.25 7ZM8.25 11C8.25 10.5858 8.58579 10.25 9 10.25H15C15.4142 10.25 15.75 10.5858 15.75 11C15.75 11.4142 15.4142 11.75 15 11.75H9C8.58579 11.75 8.25 11.4142 8.25 11ZM19.1344 13.4567C19.7976 13.3886 20.4079 13.6865 20.9514 14.23C21.4979 14.7766 21.7994 15.3881 21.7336 16.0529C21.6718 16.6781 21.299 17.163 20.9514 17.5106L20.539 17.923C20.4858 18.0009 20.4189 18.0672 20.3426 18.1193L17.4189 21.043C17.2724 21.1966 17.0921 21.3083 16.944 21.3823C16.7881 21.4603 16.5987 21.531 16.408 21.5611L16.3956 21.5631L15.0471 21.7528C15.0469 21.7528 15.0472 21.7527 15.0471 21.7528C14.6054 21.8157 14.1497 21.6997 13.8207 21.3706C13.4918 21.0417 13.3756 20.5867 13.4384 20.1452C13.4384 20.1455 13.4385 20.1449 13.4384 20.1452L13.6301 18.7833C13.6607 18.5896 13.733 18.4013 13.8105 18.248C13.8881 18.0946 13.9984 17.9223 14.1407 17.78L17.1379 14.7827C17.1581 14.7599 17.1797 14.7383 17.2026 14.718L17.6807 14.2399C18.0283 13.8923 18.5123 13.5206 19.1344 13.4567ZM17.4685 16.5735L15.2027 18.8392C15.2027 18.8392 15.2028 18.8392 15.2027 18.8392C15.2022 18.8399 15.1966 18.8463 15.1873 18.8598C15.1754 18.877 15.162 18.8995 15.149 18.9251C15.136 18.9508 15.1259 18.9749 15.119 18.9948C15.1146 19.0072 15.1126 19.0149 15.1118 19.0179L14.938 20.2533L16.174 20.0794C16.1772 20.0786 16.1863 20.0763 16.2011 20.0712C16.2225 20.0639 16.2476 20.0535 16.2731 20.0407C16.2988 20.0279 16.3192 20.0155 16.3328 20.006C16.336 20.0038 16.3384 20.002 16.3401 20.0008C16.3409 19.9999 16.3418 19.999 16.3426 19.9982C16.3453 19.9954 16.348 19.9927 16.3507 19.9899L18.6161 17.7245C18.1577 17.425 17.7667 17.0329 17.4685 16.5735ZM19.715 16.6257C19.212 16.3842 18.8076 15.9779 18.5685 15.4734L18.7413 15.3006C19.0037 15.0383 19.1798 14.9599 19.2877 14.9489C19.3545 14.942 19.5442 14.9441 19.8907 15.2906C20.2441 15.644 20.2476 15.8375 20.2409 15.9052C20.2303 16.0125 20.1531 16.1876 19.8907 16.45L19.715 16.6257Z" fill="#595854"/>
</svg>
