<svg width="24" height="24" viewBox="0 0 24 24" fill="none" xmlns="http://www.w3.org/2000/svg">
<path fill-rule="evenodd" clip-rule="evenodd" d="M5.10462 9.78744C5.84465 9.49677 6.65295 9.34003 7.5 9.34003C10.9057 9.34003 13.75 11.9288 13.75 15.23C13.75 16.1243 13.5353 16.9724 13.1533 17.73C13.1588 17.73 13.1644 17.73 13.17 17.73C13.3049 17.73 13.4372 17.7663 13.5532 17.8352L17.7485 20.3284C17.9134 20.4283 18.1415 20.301 18.1155 20.0804C18.1154 20.0802 18.1155 20.0806 18.1155 20.0804L17.7256 16.9219C17.6917 16.6466 17.8124 16.3751 18.0395 16.2159C19.9995 14.842 21.25 12.6717 21.25 10.24C21.25 6.15199 17.6852 2.75 13.17 2.75C8.82247 2.75 5.35613 5.90396 5.10462 9.78744ZM12.1211 19.18C12.398 19.2068 12.6779 19.2228 12.9607 19.228L16.9715 21.6115C16.9725 21.6121 16.9736 21.6128 16.9746 21.6134C18.2291 22.3698 19.7778 21.3381 19.6046 19.9003L19.268 17.1732C21.3807 15.5361 22.75 13.0485 22.75 10.24C22.75 5.22799 18.4148 1.25 13.17 1.25C7.92524 1.25 3.59 5.22799 3.59 10.24C3.59 10.3691 3.59229 10.4989 3.5982 10.6298C2.17452 11.6963 1.25 13.3528 1.25 15.23C1.25 17.0138 2.08817 18.6003 3.40119 19.6672L3.20596 21.2056L3.20513 21.2124C3.07486 22.3197 4.28459 23.1556 5.27679 22.5526L7.71148 21.1067C9.45186 21.0522 11.0271 20.3278 12.1211 19.18ZM7.5 10.84C6.48429 10.84 5.55675 11.1283 4.78949 11.6283L4.78381 11.632C3.53969 12.4269 2.75 13.7486 2.75 15.23C2.75 16.6433 3.47181 17.9117 4.62762 18.7139C4.85727 18.8733 4.97922 19.1471 4.94403 19.4244L4.72702 21.1345L7.11704 19.7151C7.23293 19.6463 7.36522 19.61 7.5 19.61C9.04178 19.61 10.3975 18.9357 11.2415 17.9127L11.2487 17.904C11.881 17.1606 12.25 16.2304 12.25 15.23C12.25 12.8511 10.1743 10.84 7.5 10.84Z" fill="#595854"/>
</svg>
