<svg width="24" height="24" viewBox="0 0 24 24" fill="none" xmlns="http://www.w3.org/2000/svg">
<path fill-rule="evenodd" clip-rule="evenodd" d="M4.03033 4.0003C3.22059 4.81004 2.75 6.08558 2.75 7.96997V12.97C2.75 15.4053 3.24367 16.6241 3.99388 17.2805C4.76886 17.9587 6.01326 18.22 8 18.22H8.5C8.78454 18.22 9.05809 18.3092 9.27291 18.4167C9.48906 18.5247 9.7217 18.6891 9.89345 18.9114L9.90005 18.9199L9.89999 18.92L11.4 20.92C11.6091 21.1989 11.8337 21.28 12 21.28C12.1663 21.28 12.3909 21.1989 12.6 20.92C12.8485 20.5886 13.3186 20.5214 13.65 20.77C13.9814 21.0185 14.0485 21.4886 13.8 21.82C13.3492 22.4211 12.7037 22.78 12 22.78C11.2963 22.78 10.6508 22.4211 10.2 21.82L8.70704 19.8294C8.70495 19.8272 8.69746 19.8196 8.68265 19.8081C8.66173 19.792 8.63403 19.7743 8.60208 19.7583C8.57006 19.7423 8.54047 19.7313 8.5174 19.725C8.50495 19.7216 8.49735 19.7204 8.49456 19.72H8C5.98674 19.72 4.23114 19.4813 3.00612 18.4094C1.75633 17.3158 1.25 15.5346 1.25 12.97V7.96997C1.25 5.85436 1.77941 4.1299 2.96967 2.93964C4.15993 1.74938 5.88439 1.21997 8 1.21997H16C18.1156 1.21997 19.8401 1.74938 21.0303 2.93964C22.2206 4.1299 22.75 5.85436 22.75 7.96997V12.97C22.75 13.3842 22.4142 13.72 22 13.72C21.5858 13.72 21.25 13.3842 21.25 12.97V7.96997C21.25 6.08558 20.7794 4.81004 19.9697 4.0003C19.1599 3.19056 17.8844 2.71997 16 2.71997H8C6.11561 2.71997 4.84007 3.19056 4.03033 4.0003ZM7.24451 11C7.24451 10.5858 7.58029 10.25 7.99451 10.25H8.00349C8.4177 10.25 8.75349 10.5858 8.75349 11C8.75349 11.4142 8.4177 11.75 8.00349 11.75H7.99451C7.58029 11.75 7.24451 11.4142 7.24451 11ZM11.2455 11C11.2455 10.5858 11.5813 10.25 11.9955 10.25H12.0045C12.4187 10.25 12.7545 10.5858 12.7545 11C12.7545 11.4142 12.4187 11.75 12.0045 11.75H11.9955C11.5813 11.75 11.2455 11.4142 11.2455 11ZM15.2465 11C15.2465 10.5858 15.5822 10.25 15.9965 10.25H16.0054C16.4197 10.25 16.7554 10.5858 16.7554 11C16.7554 11.4142 16.4197 11.75 16.0054 11.75H15.9965C15.5822 11.75 15.2465 11.4142 15.2465 11ZM18.2 15.75C16.8469 15.75 15.75 16.8469 15.75 18.2C15.75 19.5531 16.8469 20.65 18.2 20.65C19.5531 20.65 20.65 19.5531 20.65 18.2C20.65 16.8469 19.5531 15.75 18.2 15.75ZM14.25 18.2C14.25 16.0184 16.0185 14.25 18.2 14.25C20.3815 14.25 22.15 16.0184 22.15 18.2C22.15 19.0212 21.8994 19.7839 21.4704 20.4158C21.4911 20.4325 21.5111 20.4504 21.5303 20.4696L22.5303 21.4696C22.8232 21.7625 22.8232 22.2374 22.5303 22.5303C22.2374 22.8232 21.7626 22.8232 21.4697 22.5303L20.4697 21.5303C20.4505 21.5111 20.4325 21.4911 20.4158 21.4704C19.784 21.8993 19.0213 22.15 18.2 22.15C16.0185 22.15 14.25 20.3815 14.25 18.2Z" fill="#595854"/>
</svg>
