<svg width="24" height="24" viewBox="0 0 24 24" fill="none" xmlns="http://www.w3.org/2000/svg">
<path fill-rule="evenodd" clip-rule="evenodd" d="M12 2.75C6.89421 2.75 2.75 6.89421 2.75 12C2.75 17.1058 6.89421 21.25 12 21.25C17.1058 21.25 21.25 17.1058 21.25 12C21.25 6.89421 17.1058 2.75 12 2.75ZM1.25 12C1.25 6.06579 6.06579 1.25 12 1.25C17.9342 1.25 22.75 6.06579 22.75 12C22.75 17.9342 17.9342 22.75 12 22.75C6.06579 22.75 1.25 17.9342 1.25 12ZM12.2402 8.75C10.4444 8.75 8.99023 10.2042 8.99023 12C8.99023 13.7958 10.4444 15.25 12.2402 15.25C13.0574 15.25 13.8047 14.9435 14.3869 14.4351C14.6989 14.1626 15.1727 14.1947 15.4452 14.5067C15.7176 14.8187 15.6856 15.2925 15.3736 15.5649C14.5358 16.2965 13.4431 16.75 12.2402 16.75C9.61602 16.75 7.49023 14.6242 7.49023 12C7.49023 9.37579 9.61602 7.25 12.2402 7.25C13.4431 7.25 14.5358 7.70351 15.3736 8.43507C15.6856 8.70753 15.7176 9.18132 15.4452 9.49331C15.1727 9.80532 14.6989 9.83738 14.3869 9.56493C13.8047 9.05649 13.0574 8.75 12.2402 8.75Z" fill="#595854"/>
</svg>
