<svg width="24" height="24" viewBox="0 0 24 24" fill="none" xmlns="http://www.w3.org/2000/svg">
<path fill-rule="evenodd" clip-rule="evenodd" d="M4.12384 2.86636C5.11342 1.79405 6.58817 1.25 8.49 1.25H15.49C17.3697 1.25 18.8435 1.79554 19.8397 2.8634C20.8271 3.92192 21.24 5.38154 21.24 7V8C21.24 8.96421 20.4542 9.75 19.49 9.75C19.3542 9.75 19.24 9.86421 19.24 10V12.18C19.24 12.5068 19.3679 12.8173 19.6103 13.0597L20.4371 13.8864C20.9632 14.4007 21.25 15.1044 21.25 15.83V17C21.25 18.6185 20.8371 20.0781 19.8497 21.1366C18.8535 22.2045 17.3797 22.75 15.5 22.75H8.5C6.59378 22.75 5.11654 22.2063 4.12548 21.1341C3.14441 20.0726 2.75 18.6115 2.75 17V7C2.75 5.38854 3.1444 3.92767 4.12384 2.86636ZM5.22616 3.88364C4.5906 4.57233 4.25 5.61146 4.25 7V17C4.25 18.3885 4.59059 19.4274 5.22702 20.1159C5.67232 20.5977 6.31787 20.9676 7.23721 21.1412L7.23 19.0025L7.23 19C7.23 17.4758 8.45579 16.25 9.98 16.25H13.99C15.5055 16.25 16.7263 17.4756 16.74 18.9832L16.7616 21.1378C16.3869 21.2107 15.9679 21.25 15.5 21.25H15.2626L15.24 18.9975C15.2337 18.3051 14.6745 17.75 13.99 17.75H9.98C9.28458 17.75 8.73059 18.3036 8.73 18.9989L8.73 18.9975L7.98 19H8.73L8.73758 21.25H15.2626L15.27 21.9875C15.2721 22.1971 15.36 22.3858 15.5 22.5205C15.6366 22.6519 15.8229 22.732 16.0275 22.73C16.4417 22.7258 16.7741 22.3867 16.77 21.9725L16.7616 21.1378C17.6604 20.9629 18.3037 20.5949 18.7528 20.1134C19.3979 19.4219 19.75 18.3815 19.75 17V15.83C19.75 15.4974 19.6182 15.1827 19.3868 14.9574L19.3796 14.9504L18.5497 14.1203C18.0321 13.6027 17.74 12.9132 17.74 12.18V10C17.74 9.03579 18.5258 8.25 19.49 8.25C19.6258 8.25 19.74 8.13579 19.74 8V7C19.74 5.61846 19.3879 4.57808 18.7428 3.8866C18.1065 3.20446 17.0803 2.75 15.49 2.75H8.49C6.87183 2.75 5.85158 3.20595 5.22616 3.88364ZM7.22 7.78C7.22 7.36579 7.55579 7.03 7.97 7.03H13.97C14.3842 7.03 14.72 7.36579 14.72 7.78C14.72 8.19421 14.3842 8.53 13.97 8.53H7.97C7.55579 8.53 7.22 8.19421 7.22 7.78Z" fill="#595854"/>
</svg>
