<svg width="24" height="24" viewBox="0 0 24 24" fill="none" xmlns="http://www.w3.org/2000/svg">
<path fill-rule="evenodd" clip-rule="evenodd" d="M11.4697 1.46967C11.7625 1.17678 12.2374 1.17678 12.5303 1.46967L14.5303 3.46967C14.8232 3.76256 14.8232 4.23744 14.5303 4.53033C14.2374 4.82322 13.7625 4.82322 13.4697 4.53033L12.75 3.81066V9C12.75 9.41421 12.4142 9.75 12 9.75C11.5858 9.75 11.25 9.41421 11.25 9V3.81066L10.5303 4.53033C10.2374 4.82322 9.76254 4.82322 9.46965 4.53033C9.17676 4.23744 9.17676 3.76256 9.46965 3.46967L11.4697 1.46967ZM7.74202 5.021C7.80222 5.43082 7.5188 5.81184 7.10898 5.87204C5.47017 6.11277 4.43398 6.69249 3.78062 7.59769C3.10741 8.53038 2.74998 9.93101 2.74998 12V12.25H6.38998C7.05393 12.25 7.6537 12.6204 7.9508 13.2146L9.1208 15.5546C9.33487 15.9827 9.76655 16.25 10.24 16.25H13.77C14.2434 16.25 14.6751 15.9827 14.8892 15.5546L16.0592 13.2146C16.3582 12.6166 16.9703 12.25 17.62 12.25H21.25V12C21.25 9.93101 20.8925 8.53038 20.2193 7.59769C19.566 6.69249 18.5298 6.11277 16.891 5.87204C16.4812 5.81184 16.1977 5.43082 16.2579 5.021C16.3181 4.61118 16.6992 4.32776 17.109 4.38796C19.0102 4.66723 20.474 5.38751 21.4356 6.71981C22.3774 8.02462 22.75 9.79899 22.75 12V15C22.75 17.574 22.2398 19.5709 20.9053 20.9053C19.5708 22.2398 17.574 22.75 15 22.75H8.99998C6.42601 22.75 4.42912 22.2398 3.09465 20.9053C1.76018 19.5709 1.24998 17.574 1.24998 15V13.1728C1.2369 13.1173 1.22998 13.0595 1.22998 13C1.22998 12.9405 1.2369 12.8827 1.24998 12.8272V12C1.24998 9.79899 1.62255 8.02462 2.56435 6.71981C3.52598 5.38751 4.98979 4.66723 6.89098 4.38796C7.3008 4.32776 7.68182 4.61118 7.74202 5.021ZM2.74998 13.75V15C2.74998 17.426 3.23978 18.9291 4.15531 19.8447C5.07084 20.7602 6.57395 21.25 8.99998 21.25H15C17.426 21.25 18.9291 20.7602 19.8447 19.8447C20.7602 18.9291 21.25 17.426 21.25 15V13.75H17.62C17.5297 13.75 17.4418 13.8034 17.4008 13.8854L16.2308 16.2254C15.7649 17.1573 14.8165 17.75 13.77 17.75H10.24C9.19341 17.75 8.24509 17.1573 7.77916 16.2254L6.60916 13.8854C6.56626 13.7996 6.48603 13.75 6.38998 13.75H2.74998Z" fill="#595854"/>
</svg>
