<svg width="24" height="24" viewBox="0 0 24 24" fill="none" xmlns="http://www.w3.org/2000/svg">
<path fill-rule="evenodd" clip-rule="evenodd" d="M21.5416 8.95357C15.7517 4.48211 8.24842 4.48211 2.45845 8.95357C2.13062 9.20675 1.65962 9.14623 1.40644 8.81839C1.15327 8.49056 1.21379 8.01956 1.54162 7.76638C7.87165 2.87784 16.1284 2.87784 22.4585 7.76638C22.7863 8.01956 22.8468 8.49056 22.5936 8.81839C22.3405 9.14623 21.8694 9.20675 21.5416 8.95357ZM18.6417 12.4337C14.6117 9.32212 9.39838 9.32212 5.36839 12.4337C5.04053 12.6868 4.56953 12.6262 4.31639 12.2984C4.06325 11.9705 4.12383 11.4995 4.45169 11.2464C9.0217 7.71789 14.9884 7.71789 19.5584 11.2464C19.8863 11.4995 19.9468 11.9705 19.6937 12.2984C19.4405 12.6262 18.9696 12.6868 18.6417 12.4337ZM16.7408 16.0829C13.8611 13.8524 10.1289 13.8524 7.24931 16.0829C6.92185 16.3366 6.45076 16.2767 6.1971 15.9493C5.94345 15.6218 6.00328 15.1507 6.33075 14.8971C9.75112 12.2476 14.2389 12.2476 17.6593 14.8971C17.9868 15.1507 18.0466 15.6218 17.793 15.9493C17.5393 16.2767 17.0682 16.3366 16.7408 16.0829ZM14.1517 19.7436C12.8417 18.7321 11.1684 18.7321 9.8584 19.7436C9.53055 19.9968 9.05955 19.9362 8.8064 19.6084C8.55325 19.2805 8.61381 18.8095 8.94166 18.5564C10.7917 17.1279 13.2184 17.1279 15.0684 18.5564C15.3963 18.8095 15.4568 19.2805 15.2037 19.6084C14.9505 19.9362 14.4795 19.9968 14.1517 19.7436Z" fill="#595854"/>
</svg>
