<svg width="24" height="24" viewBox="0 0 24 24" fill="none" xmlns="http://www.w3.org/2000/svg">
<path fill-rule="evenodd" clip-rule="evenodd" d="M10.8308 3.25523C8.52949 3.25523 6.68381 5.08322 6.68381 7.31381C6.68381 9.54439 8.52949 11.3724 10.8308 11.3724C13.1322 11.3724 14.9779 9.54439 14.9779 7.31381C14.9779 5.08322 13.1322 3.25523 10.8308 3.25523ZM5.42831 7.31381C5.42831 4.36817 7.85811 2 10.8308 2C13.8036 2 16.2334 4.36817 16.2334 7.31381C16.2334 10.2594 13.8036 12.6276 10.8308 12.6276C7.85811 12.6276 5.42831 10.2594 5.42831 7.31381ZM10.8308 15.4393C6.51259 15.4393 3.2555 18.2157 3.2555 21.3724C3.2555 21.719 2.97444 22 2.62775 22C2.28105 22 2 21.719 2 21.3724C2 17.2748 6.09611 14.1841 10.8308 14.1841C11.8832 14.1841 12.8981 14.3331 13.8449 14.6128C14.1774 14.7111 14.3673 15.0602 14.269 15.3926C14.1708 15.725 13.8216 15.9148 13.4891 15.8166C12.6598 15.5715 11.7648 15.4393 10.8308 15.4393ZM18.608 14.349C19.2011 14.2891 19.7574 14.5486 20.2662 15.048C20.7768 15.5491 21.0521 16.1029 20.9918 16.7011C20.935 17.2645 20.5925 17.7042 20.2662 18.0245L19.8719 18.4115C19.8232 18.4848 19.76 18.5461 19.6875 18.5925L16.8923 21.3358C16.7613 21.4708 16.5983 21.5703 16.4623 21.6371C16.3194 21.7072 16.1481 21.7695 15.9787 21.7958C15.9752 21.7963 15.9718 21.7968 15.9684 21.7973L14.6805 21.9752C14.6803 21.9752 14.68 21.9753 14.6798 21.9753C14.2854 22.0304 13.8823 21.9289 13.5902 21.6422C13.2964 21.3539 13.1885 20.9502 13.2462 20.5521C13.2462 20.5517 13.2463 20.5513 13.2464 20.551L13.4276 19.287C13.428 19.2846 13.4283 19.2822 13.4287 19.2797C13.4289 19.2786 13.429 19.2775 13.4292 19.2764C13.4571 19.1034 13.5231 18.9337 13.5948 18.7945C13.6667 18.6551 13.7677 18.501 13.8957 18.3753L16.7809 15.5437C16.7866 15.5378 16.7925 15.532 16.7985 15.5263L17.2763 15.0574C17.6045 14.7353 18.0477 14.4055 18.608 14.349ZM17.0248 17.0632L14.7753 19.271C14.7753 19.271 14.7731 19.2732 14.769 19.2781C14.7647 19.2834 14.759 19.2906 14.7525 19.3C14.7391 19.3191 14.7246 19.3429 14.7109 19.3696C14.6971 19.3962 14.6862 19.4217 14.6785 19.4432C14.6724 19.4606 14.6698 19.4711 14.669 19.4746L14.489 20.7304L14.4888 20.7317C14.4887 20.7325 14.4885 20.7333 14.4884 20.734C14.4938 20.7336 14.4997 20.733 14.5062 20.7321L14.5074 20.7319L15.7882 20.555C15.7882 20.555 15.7882 20.555 15.7883 20.555C15.7887 20.5549 15.7891 20.5548 15.7897 20.5547C15.7919 20.5543 15.7949 20.5536 15.7988 20.5526C15.8067 20.5506 15.8168 20.5477 15.8288 20.5436C15.8535 20.5353 15.8813 20.5239 15.9091 20.5102C15.9372 20.4965 15.9605 20.4827 15.9774 20.4712C15.9867 20.4649 15.9918 20.4608 15.9936 20.4593C15.9977 20.455 16.0019 20.4507 16.0062 20.4465L18.233 18.261C17.7406 17.9618 17.3262 17.5517 17.0248 17.0632ZM19.1733 17.3382C18.6297 17.1003 18.1981 16.6762 17.9567 16.1486L18.1558 15.9532C18.4102 15.7035 18.5972 15.6116 18.734 15.5978C18.8379 15.5874 19.0456 15.609 19.3867 15.9438C19.7356 16.2862 19.7515 16.4869 19.7426 16.5752C19.7302 16.6984 19.6429 16.8773 19.3867 17.1287L19.1733 17.3382Z" fill="#595854"/>
</svg>
