<svg width="24" height="24" viewBox="0 0 24 24" fill="none" xmlns="http://www.w3.org/2000/svg">
<path fill-rule="evenodd" clip-rule="evenodd" d="M14.399 2.24472C14.3993 2.24495 14.3996 2.24518 14.3999 2.24541L21.3304 7.78582C21.8441 8.1994 22.2289 8.8051 22.4645 9.42265C22.7002 10.0404 22.8167 10.749 22.7103 11.4008L22.7098 11.4036L21.3798 19.3636L21.3794 19.3658C21.0783 21.1351 19.397 22.56 17.6001 22.56H6.40006C4.59386 22.56 2.9215 21.1456 2.62054 19.365L1.29109 11.4082C1.29095 11.4073 1.2908 11.4065 1.29066 11.4057C1.17784 10.7518 1.29197 10.0415 1.52807 9.42265C1.76433 8.80339 2.15264 8.19726 2.67214 7.78385C2.67255 7.78353 2.67296 7.7832 2.67337 7.78288L9.60086 2.23488C10.9362 1.16437 13.0562 1.16614 14.399 2.24472ZM13.4602 3.41458C12.6631 2.77395 11.3236 2.77614 10.5393 3.40511L3.60674 8.95711C3.34686 9.16368 3.0956 9.52208 2.92954 9.95733C2.76345 10.3927 2.71256 10.8264 2.76902 11.1518L2.76982 11.1564L4.09957 19.115C4.09954 19.1148 4.0996 19.1152 4.09957 19.115C4.27889 20.1741 5.32645 21.06 6.40006 21.06H17.6001C18.6628 21.06 19.7211 20.1655 19.9005 19.1153C19.9006 19.1149 19.9006 19.1145 19.9007 19.1141L21.2299 11.1591C21.2299 11.1587 21.23 11.1582 21.2301 11.1578C21.2833 10.8298 21.2297 10.394 21.0631 9.95733C20.8964 9.5204 20.6466 9.16141 20.3906 8.95488C20.3903 8.95464 20.39 8.9544 20.3897 8.95416L13.4617 3.41581L13.4602 3.41458ZM12.0001 14.25C12.4143 14.25 12.7501 14.5858 12.7501 15V18C12.7501 18.4142 12.4143 18.75 12.0001 18.75C11.5858 18.75 11.2501 18.4142 11.2501 18V15C11.2501 14.5858 11.5858 14.25 12.0001 14.25Z" fill="#595854"/>
</svg>
