<svg width="24" height="24" viewBox="0 0 24 24" fill="none" xmlns="http://www.w3.org/2000/svg">
<path fill-rule="evenodd" clip-rule="evenodd" d="M6.52194 5.92395C5.80285 7.15681 5.56039 8.82036 6.29582 10.8663C6.43593 11.2561 6.23353 11.6856 5.84373 11.8258C5.7529 11.8584 5.65991 11.8725 5.56893 11.8699C1.85084 12.155 1.8504 17.5536 5.5676 17.84H6.40212C6.30153 17.4185 6.25003 16.9793 6.25003 16.53C6.25003 13.3558 8.82582 10.78 12 10.78C15.1742 10.78 17.75 13.3558 17.75 16.53C17.75 16.944 17.7063 17.3494 17.6207 17.7403C18.4132 17.5718 19.1515 17.1938 19.7652 16.6353L19.7761 16.6256C21.1578 15.4166 21.5042 13.5805 21.0062 11.9432C20.5084 10.3063 19.1992 8.97565 17.3755 8.74401C17.0466 8.70222 16.7841 8.4494 16.7301 8.12226C16.3748 5.97225 15.3534 4.64118 14.1284 3.92107C12.8856 3.19052 11.3579 3.04481 9.93591 3.41903C8.51401 3.79325 7.25135 4.6734 6.52194 5.92395ZM16.9107 19.49C15.9201 21.1545 14.0923 22.28 12 22.28C9.90775 22.28 8.08 21.1545 7.08939 19.49C7.05867 19.4407 7.02883 19.3907 6.99985 19.34H5.54003C5.52243 19.34 5.50483 19.3394 5.48728 19.3381C0.184935 18.9642 -0.10555 11.6398 4.61582 10.5043C4.0852 8.4433 4.37833 6.62192 5.22624 5.1682C6.18121 3.53094 7.79855 2.43046 9.55415 1.96843C11.3097 1.5064 13.2569 1.66882 14.8885 2.62795C16.4214 3.52901 17.6113 5.09557 18.1087 7.35109C20.3213 7.84687 21.8491 9.55947 22.4413 11.5067C23.0802 13.6075 22.6631 16.0886 20.7694 17.7496C19.7267 18.6962 18.4044 19.2538 17.0054 19.3309C16.9748 19.3847 16.9432 19.4377 16.9107 19.49ZM12 12.28C9.65424 12.28 7.75003 14.1842 7.75003 16.53C7.75003 17.1614 7.88636 17.7492 8.13515 18.2633C8.13868 18.2706 8.1421 18.278 8.14539 18.2854C8.21176 18.4347 8.28544 18.5736 8.36603 18.7025L8.3751 18.7174C9.10551 19.9489 10.4554 20.78 12 20.78C13.5446 20.78 14.8946 19.9489 15.625 18.7174L15.634 18.7025C15.7146 18.5736 15.7883 18.4347 15.8547 18.2854C15.858 18.278 15.8614 18.2706 15.8649 18.2633C16.1137 17.7491 16.25 17.1614 16.25 16.53C16.25 14.1842 14.3458 12.28 12 12.28ZM10.3297 14.9697C10.6226 14.6768 11.0975 14.6768 11.3904 14.9697L11.915 15.4943L12.4197 14.9897C12.7126 14.6968 13.1875 14.6968 13.4804 14.9897C13.7733 15.2826 13.7733 15.7574 13.4804 16.0503L12.9757 16.555L13.5004 17.0797C13.7933 17.3726 13.7933 17.8474 13.5004 18.1403C13.2075 18.4332 12.7326 18.4332 12.4397 18.1403L11.915 17.6157L11.3604 18.1703C11.0675 18.4632 10.5926 18.4632 10.2997 18.1703C10.0068 17.8774 10.0068 17.4026 10.2997 17.1097L10.8544 16.555L10.3297 16.0303C10.0368 15.7374 10.0368 15.2626 10.3297 14.9697Z" fill="#595854"/>
</svg>
