<svg width="24" height="24" viewBox="0 0 24 24" fill="none" xmlns="http://www.w3.org/2000/svg">
<path fill-rule="evenodd" clip-rule="evenodd" d="M12 2.75C6.89137 2.75 2.75 6.89137 2.75 12C2.75 17.1086 6.89137 21.25 12 21.25C17.1086 21.25 21.25 17.1086 21.25 12C21.25 6.89137 17.1086 2.75 12 2.75ZM1.25 12C1.25 6.06294 6.06294 1.25 12 1.25C17.9371 1.25 22.75 6.06294 22.75 12C22.75 17.9371 17.9371 22.75 12 22.75C6.06294 22.75 1.25 17.9371 1.25 12ZM9.73528 7.58773C9.94639 7.94411 9.82862 8.40415 9.47224 8.61526C8.67497 9.08752 8.32624 9.34896 8.1106 9.73397C7.9313 10.0541 7.80847 10.5288 7.76621 11.41H9.67999C10.8289 11.41 11.62 12.3109 11.62 13.35V14.84C11.62 15.8791 10.8289 16.78 9.67999 16.78H8.19C7.12579 16.78 6.25 15.9042 6.25 14.84V12.16C6.25 10.7514 6.37401 9.76493 6.80189 9.00098C7.23875 8.22098 7.93502 7.78242 8.70776 7.32469C9.06414 7.11358 9.52418 7.23135 9.73528 7.58773ZM7.75 12.91V14.84C7.75 15.0758 7.95422 15.28 8.19 15.28H9.67999C9.95105 15.28 10.12 15.101 10.12 14.84V13.35C10.12 13.089 9.95105 12.91 9.67999 12.91H7.75ZM15.8753 7.58773C16.0864 7.94411 15.9686 8.40415 15.6122 8.61526C14.815 9.08752 14.4662 9.34896 14.2506 9.73397C14.0713 10.0541 13.9485 10.5288 13.9062 11.41H15.82C16.969 11.41 17.76 12.3109 17.76 13.35V14.84C17.76 15.8791 16.969 16.78 15.82 16.78H14.33C13.2658 16.78 12.39 15.9042 12.39 14.84V12.16C12.39 10.7514 12.514 9.76493 12.9419 9.00098C13.3788 8.22098 14.075 7.78242 14.8478 7.32469C15.2041 7.11358 15.6642 7.23135 15.8753 7.58773ZM13.89 12.91V14.84C13.89 15.0758 14.0942 15.28 14.33 15.28H15.82C16.091 15.28 16.26 15.101 16.26 14.84V13.35C16.26 13.089 16.091 12.91 15.82 12.91H13.89Z" fill="#595854"/>
</svg>
