<svg width="24" height="24" viewBox="0 0 24 24" fill="none" xmlns="http://www.w3.org/2000/svg">
<path fill-rule="evenodd" clip-rule="evenodd" d="M13.7648 4.94124C14.3331 4.40666 15.1297 4.25 15.99 4.25H17.03C17.8903 4.25 18.6869 4.40666 19.2552 4.94124C19.8349 5.48664 20.01 6.26514 20.01 7.1V18.25H22C22.4142 18.25 22.75 18.5858 22.75 19C22.75 19.4142 22.4142 19.75 22 19.75H2C1.58579 19.75 1.25 19.4142 1.25 19C1.25 18.5858 1.58579 18.25 2 18.25H4.51V12.1C4.51 11.2651 4.6851 10.4866 5.26484 9.94124C5.83309 9.40666 6.62968 9.25 7.49 9.25H8.53C9.39032 9.25 10.1869 9.40666 10.7552 9.94124C11.3349 10.4866 11.51 11.2651 11.51 12.1V18.25H13.01V7.1C13.01 6.26514 13.1851 5.48664 13.7648 4.94124ZM14.51 18.25H18.51V7.1C18.51 6.43486 18.3651 6.16336 18.2273 6.03376C18.0781 5.89334 17.7597 5.75 17.03 5.75H15.99C15.2603 5.75 14.9419 5.89334 14.7927 6.03376C14.6549 6.16336 14.51 6.43486 14.51 7.1V18.25ZM10.01 18.25V12.1C10.01 11.4349 9.8651 11.1634 9.72735 11.0338C9.57809 10.8933 9.25968 10.75 8.53 10.75H7.49C6.76031 10.75 6.44191 10.8933 6.29265 11.0338C6.1549 11.1634 6.01 11.4349 6.01 12.1V18.25H10.01Z" fill="#595854"/>
</svg>
