<svg width="24" height="24" viewBox="0 0 24 24" fill="none" xmlns="http://www.w3.org/2000/svg">
<path fill-rule="evenodd" clip-rule="evenodd" d="M8.92816 1.25H8C6.10705 1.25 4.63152 1.79462 3.6379 2.86466C2.65363 3.92465 2.25 5.38503 2.25 7V17C2.25 18.615 2.65363 20.0754 3.6379 21.1353C4.63152 22.2054 6.10705 22.75 8 22.75H13C13.4142 22.75 13.75 22.4142 13.75 22C13.75 21.5858 13.4142 21.25 13 21.25H8C6.39295 21.25 5.36848 20.7946 4.7371 20.1147C4.09637 19.4247 3.75 18.385 3.75 17V7C3.75 5.61497 4.09637 4.57536 4.7371 3.88534C5.36848 3.20539 6.39295 2.75 8 2.75H8.19455L8.21014 3.54473L8.21022 3.54855C8.24016 4.76119 9.23877 5.75 10.46 5.75H13.48C14.7275 5.75 15.73 4.73096 15.73 3.5V2.75H16C17.607 2.75 18.6315 3.20539 19.2629 3.88534C19.9036 4.57536 20.25 5.61497 20.25 7V14C20.25 14.4142 20.5858 14.75 21 14.75C21.4142 14.75 21.75 14.4142 21.75 14V7C21.75 5.38503 21.3464 3.92465 20.3621 2.86466C19.3685 1.79462 17.893 1.25 16 1.25H8.9324C8.93099 1.25 8.92958 1.25 8.92816 1.25ZM14.23 2.75H9.69484L9.7098 3.5131C9.7207 3.91973 10.0617 4.25 10.46 4.25H13.48C13.8926 4.25 14.23 3.90904 14.23 3.5V2.75ZM16.4697 16.4697C16.7626 16.1768 17.2374 16.1768 17.5303 16.4697C17.8232 16.7626 17.8232 17.2374 17.5303 17.5303L16.0607 19L17.5303 20.4697C17.8232 20.7626 17.8232 21.2374 17.5303 21.5303C17.2374 21.8232 16.7626 21.8232 16.4697 21.5303L14.4697 19.5303C14.1768 19.2374 14.1768 18.7626 14.4697 18.4697L16.4697 16.4697ZM19.4697 16.4697C19.7626 16.1768 20.2374 16.1768 20.5303 16.4697L22.5303 18.4697C22.8232 18.7626 22.8232 19.2374 22.5303 19.5303L20.5303 21.5303C20.2374 21.8232 19.7626 21.8232 19.4697 21.5303C19.1768 21.2374 19.1768 20.7626 19.4697 20.4697L20.9393 19L19.4697 17.5303C19.1768 17.2374 19.1768 16.7626 19.4697 16.4697Z" fill="#595854"/>
</svg>
