<svg width="24" height="24" viewBox="0 0 24 24" fill="none" xmlns="http://www.w3.org/2000/svg">
<path fill-rule="evenodd" clip-rule="evenodd" d="M12 2.75C6.89137 2.75 2.75 6.89137 2.75 12C2.75 17.1086 6.89137 21.25 12 21.25C17.1086 21.25 21.25 17.1086 21.25 12C21.25 6.89137 17.1086 2.75 12 2.75ZM1.25 12C1.25 6.06294 6.06294 1.25 12 1.25C17.9371 1.25 22.75 6.06294 22.75 12C22.75 17.9371 17.9371 22.75 12 22.75C6.06294 22.75 1.25 17.9371 1.25 12ZM10.3374 8.12324C10.335 8.1257 10.3326 8.12807 10.3303 8.13033C10.3052 8.15542 10.2784 8.17871 10.25 8.2C10.1027 8.31049 9.93754 8.54634 9.84421 9.29303C9.84194 9.31115 9.83902 9.32918 9.83544 9.34709C9.80431 9.50272 9.79969 9.72623 9.81173 9.99094C9.8168 10.1025 9.82407 10.2094 9.83123 10.3146C9.83223 10.3293 9.83324 10.3441 9.83423 10.3588C9.84162 10.4682 9.85 10.5948 9.85 10.7V10.8C9.85 10.8031 9.85 10.8063 9.85 10.8097C9.85003 10.8502 9.85005 10.9074 9.84728 10.9572C9.84722 10.9584 9.84715 10.9597 9.84707 10.9613C9.84505 11.0002 9.83712 11.1528 9.75832 11.3104C9.70779 11.4115 9.62896 11.5152 9.51381 11.5981C9.47934 11.6229 9.44503 11.6434 9.41186 11.6603C9.6517 11.9581 9.65047 12.2738 9.65003 12.3875C9.65002 12.392 9.65 12.3961 9.65 12.4C9.65 12.5054 9.62663 12.6132 9.61469 12.6657C9.59668 12.7448 9.57018 12.8407 9.53295 12.9493C9.45842 13.1669 9.3379 13.4445 9.1485 13.7475C8.88988 14.1613 8.50632 14.6166 7.94782 15.0277C7.97074 15.0366 7.9952 15.0467 8.01973 15.0578C8.04122 15.0676 8.06559 15.0794 8.09191 15.0936C8.18158 15.1215 8.27061 15.164 8.35474 15.2248C8.52648 15.3488 8.62078 15.5075 8.67136 15.634C8.68688 15.6728 8.69936 15.7117 8.70941 15.7496C8.73514 15.75 8.76414 15.75 8.8 15.75C9.19086 15.75 9.66228 15.8672 10.0202 15.9569C10.2929 15.9882 10.5031 16.1175 10.5975 16.1765C10.6405 16.2034 10.6927 16.2381 10.7294 16.2626C10.7424 16.2713 10.7535 16.2786 10.7615 16.2839C10.8059 16.313 10.8261 16.3245 10.8354 16.3292C10.924 16.3735 11.0034 16.4159 11.0777 16.4556C11.4017 16.6287 11.6287 16.75 12.1 16.75C12.4365 16.75 12.6494 16.7081 12.8022 16.6546C12.9533 16.6017 13.0842 16.5243 13.25 16.4C13.286 16.373 13.3243 16.3493 13.3646 16.3292L13.9646 16.0292C14.4755 15.7737 14.9787 15.7518 15.2905 15.7501C15.3005 15.712 15.3131 15.6729 15.3286 15.634C15.3792 15.5075 15.4735 15.3488 15.6453 15.2248C15.7049 15.1818 15.7669 15.1479 15.8299 15.1218C15.9143 15.0539 16.0257 14.9806 16.1667 14.9273C15.6576 14.5237 15.3015 14.1001 15.0561 13.7172C14.8675 13.4231 14.7464 13.1563 14.6707 12.9457C14.633 12.8407 14.6058 12.7475 14.5872 12.6696C14.575 12.6185 14.55 12.5094 14.55 12.4C14.55 12.3961 14.55 12.392 14.55 12.3875C14.5495 12.2725 14.5483 11.9506 14.7967 11.6498C14.7579 11.6289 14.7193 11.6041 14.6817 11.5748C14.516 11.4459 14.4378 11.2852 14.401 11.1747C14.3447 11.0058 14.3493 10.8271 14.3499 10.8026C14.35 10.8013 14.35 10.8004 14.35 10.8C14.35 10.6593 14.3623 10.4668 14.3735 10.2924C14.3794 10.2001 14.385 10.1128 14.3883 10.0409C14.3998 9.78679 14.3975 9.54727 14.3602 9.3233C14.3585 9.31324 14.3571 9.30315 14.3558 9.29303C14.2876 8.74781 14.115 8.47449 13.8756 8.15117C13.8645 8.14293 13.8552 8.13576 13.8478 8.13012L13.8448 8.12782C13.8385 8.12299 13.7999 8.09283 13.7634 8.06432C13.7314 8.03939 13.7011 8.01573 13.6955 8.01136C13.5939 7.93313 13.4749 7.84702 13.3302 7.76502C13.0465 7.60426 12.6478 7.45 12.1 7.45C11.0093 7.45 10.4894 7.97096 10.3374 8.12324ZM9.30423 7.03532C9.60032 6.74334 10.4772 5.95 12.1 5.95C12.9522 5.95 13.6035 6.19574 14.0698 6.45998C14.3001 6.59048 14.4811 6.72312 14.6108 6.82302C14.6658 6.86541 14.684 6.87984 14.6994 6.89216C14.7131 6.903 14.7246 6.91222 14.7575 6.93741C14.7645 6.94282 14.7701 6.94697 14.7743 6.95005C14.8621 7.00065 14.939 7.06863 15 7.15L15.0013 7.15174C15.3209 7.57789 15.7155 8.10403 15.8423 9.09201C15.8938 9.40929 15.8994 9.71499 15.8916 9.97953C15.9591 9.96001 16.0293 9.95 16.1 9.95H16.3C16.8129 9.95 17.1035 10.2422 17.2194 10.3587C17.2233 10.3626 17.2269 10.3662 17.2303 10.3697C17.2873 10.4267 17.3348 10.4925 17.3708 10.5646C17.5264 10.8757 17.5264 11.2243 17.3708 11.5354C17.2371 11.8029 17.0149 11.9915 16.816 12.124C16.7657 12.1576 16.7119 12.1847 16.6557 12.2051C16.6483 12.2124 16.64 12.2207 16.6303 12.2303C16.4829 12.3778 16.3001 12.5019 16.1453 12.5919C16.1869 12.6828 16.2434 12.7899 16.3189 12.9078C16.5638 13.2898 17.0181 13.7988 17.8493 14.2363C18.0339 14.3335 18.1668 14.5013 18.2219 14.6964C18.25 14.7611 18.3 14.8976 18.3 15.0625C18.3 15.3282 18.1814 15.5404 18.041 15.6866C17.9306 15.8016 17.7992 15.8854 17.6771 15.9495C17.472 16.0807 17.2947 16.1507 17.1497 16.199C17.1147 16.2107 17.0817 16.221 17.0556 16.2292C17.0275 16.238 17.0071 16.2445 16.9887 16.2506C16.9537 16.2623 16.9408 16.2681 16.9354 16.2708C16.8717 16.3027 16.8041 16.3252 16.7345 16.3378C16.7073 16.5058 16.6328 16.7278 16.4303 16.9303C16.2073 17.1534 15.9344 17.2098 15.7936 17.23C15.6517 17.2502 15.5042 17.2501 15.4156 17.25C15.4102 17.25 15.405 17.25 15.4 17.25C15.0932 17.25 14.8594 17.2589 14.6354 17.3708L14.0935 17.6418C13.8725 17.8028 13.619 17.958 13.2978 18.0704C12.9506 18.1919 12.5635 18.25 12.1 18.25C11.2255 18.25 10.6673 17.9441 10.321 17.7543C10.2631 17.7226 10.2111 17.6941 10.1646 17.6708C10.0739 17.6255 9.9941 17.5745 9.93851 17.538C9.91039 17.5195 9.8896 17.5056 9.87203 17.4939C9.84619 17.4766 9.82735 17.464 9.8025 17.4485C9.79882 17.4462 9.79543 17.4441 9.79234 17.4422C9.76738 17.4386 9.74261 17.4337 9.7181 17.4276C9.28217 17.3186 8.98623 17.25 8.8 17.25C8.79503 17.25 8.78983 17.25 8.78441 17.25C8.6958 17.2501 8.54833 17.2502 8.40643 17.23C8.30028 17.2148 8.11908 17.179 7.94075 17.0667C7.77091 16.9978 7.57928 16.889 7.4375 16.7C7.35653 16.592 7.31032 16.4812 7.28402 16.3843C7.2528 16.3729 7.2166 16.3587 7.18027 16.3422C7.13631 16.3222 7.08036 16.2938 7.02025 16.2536C7.01743 16.2526 7.01444 16.2516 7.01127 16.2506C6.99291 16.2445 6.9733 16.2383 6.94513 16.2294C6.91896 16.2212 6.88561 16.2108 6.85033 16.199C6.69618 16.1476 6.50563 16.0718 6.28397 15.924C6.16841 15.847 6.01136 15.7236 5.90499 15.5336C5.77371 15.2992 5.75607 15.0279 5.85364 14.784C5.92997 14.5931 6.05789 14.4717 6.10066 14.4313C6.12415 14.4091 6.14859 14.3877 6.16027 14.3775C6.16173 14.3762 6.16299 14.3751 6.16403 14.3742C6.16947 14.3694 6.17259 14.3666 6.17405 14.3653C6.23385 14.3065 6.3031 14.2581 6.37893 14.2222C7.1891 13.8384 7.6338 13.3408 7.8765 12.9525C7.98217 12.7834 8.05108 12.6325 8.09448 12.5172C8.01568 12.473 7.934 12.4352 7.86283 12.4115C7.77067 12.3808 7.68553 12.3325 7.61203 12.2695C7.61032 12.2687 7.60851 12.2678 7.6066 12.2668C7.55861 12.243 7.44944 12.1889 7.33375 12.0897C7.14865 11.9594 6.95177 11.7806 6.82918 11.5354C6.67361 11.2243 6.67361 10.8757 6.82918 10.5646C6.92471 10.3735 7.08772 10.1471 7.38396 10.0286C7.59122 9.94574 7.81057 9.9488 7.88415 9.94983C7.89058 9.94992 7.8959 9.95 7.9 9.95H8.1C8.1708 9.95 8.24086 9.95557 8.30953 9.96596C8.30044 9.70319 8.30279 9.38165 8.359 9.08167C8.46455 8.25878 8.69251 7.52086 9.30423 7.03532ZM7.26967 16.3303C7.27023 16.3309 7.27079 16.3314 7.27135 16.332L7.26967 16.3303Z" fill="#595854"/>
</svg>
