<svg width="24" height="24" viewBox="0 0 24 24" fill="none" xmlns="http://www.w3.org/2000/svg">
<path fill-rule="evenodd" clip-rule="evenodd" d="M4.07408 4.07409C3.2148 4.93338 2.75 6.349 2.75 8.65002V14.35C2.75 16.651 3.2148 18.0666 4.07408 18.9259C4.93336 19.7852 6.34897 20.25 8.64999 20.25H13.8231C13.4552 19.5787 13.25 18.8077 13.25 18C13.25 15.3758 15.3758 13.25 18 13.25C18.2697 13.25 18.5348 13.2725 18.7932 13.3159C19.3112 13.4028 19.8024 13.5735 20.25 13.8148V8.65002C20.25 6.349 19.7852 4.93338 18.9259 4.07409C18.0666 3.2148 16.651 2.75 14.35 2.75H8.64999C6.34897 2.75 4.93336 3.2148 4.07408 4.07409ZM21.7352 15.0645C21.7451 14.8324 21.75 14.5931 21.75 14.35V8.65002C21.75 6.20105 21.2648 4.29166 19.9866 3.01343C18.7084 1.73521 16.799 1.25 14.35 1.25H8.64999C6.20102 1.25 4.29163 1.73521 3.01341 3.01343C1.7352 4.29166 1.25 6.20105 1.25 8.65002V14.35C1.25 16.7989 1.7352 18.7083 3.01341 19.9866C4.29163 21.2648 6.20102 21.75 8.64999 21.75H14.35C14.5978 21.75 14.8373 21.7452 15.0684 21.7354C15.8725 22.3702 16.8904 22.75 18 22.75C19.732 22.75 21.2406 21.8246 22.0615 20.4486C22.5017 19.7327 22.75 18.8885 22.75 18C22.75 16.8918 22.3709 15.8724 21.7352 15.0645ZM19.8116 15.3009C20.0323 15.4503 20.2323 15.6266 20.4064 15.8249C20.4286 15.8502 20.4523 15.8737 20.4772 15.8955C20.9593 16.4624 21.25 17.197 21.25 18C21.25 18.6094 21.0795 19.1833 20.7816 19.6663L20.7754 19.6766C20.2156 20.6177 19.1859 21.25 18 21.25C17.2055 21.25 16.4812 20.9662 15.9212 20.4959C15.8942 20.4628 15.8642 20.4318 15.8312 20.4032C15.6577 20.2528 15.5014 20.0819 15.3686 19.8975C15.3177 19.826 15.2696 19.7523 15.2246 19.6766L15.2184 19.6663C14.9205 19.1833 14.75 18.6094 14.75 18C14.75 16.2042 16.2042 14.75 18 14.75C18.6709 14.75 19.2941 14.953 19.8116 15.3009ZM13.3808 4.57843C13.9838 4.92754 14.23 5.58497 14.23 6.34001V7.3637C14.2302 7.37489 14.2302 7.38606 14.23 7.39719V12C14.23 13.215 13.245 14.2 12.03 14.2C10.815 14.2 9.83 13.215 9.83 12C9.83 10.785 10.815 9.79999 12.03 9.79999C12.2747 9.79999 12.5101 9.83994 12.73 9.91369V8.36227L8.92999 9.39994V12.97C8.92999 13.0214 8.92482 13.0716 8.91495 13.1201C8.83778 14.2651 7.88457 15.17 6.72 15.17C5.50496 15.17 4.52 14.185 4.52 12.97C4.52 11.7549 5.50501 10.77 6.72 10.77C6.96843 10.77 7.20725 10.8112 7.42999 10.8871V8.95241C7.41615 8.86932 7.41669 8.78653 7.42999 8.70688V7.12999C7.42999 6.16746 8.05057 5.46836 8.87353 5.24614C8.87403 5.24601 8.87453 5.24587 8.87503 5.24574L11.7603 4.45706C11.7606 4.45697 11.7609 4.45688 11.7612 4.45679C12.2144 4.33172 12.8374 4.26379 13.3808 4.57843ZM8.92999 7.84502L12.73 6.80735V6.34001C12.73 6.11166 12.6936 5.98811 12.6672 5.93051C12.6462 5.88457 12.6313 5.87755 12.6294 5.87664C12.6293 5.8766 12.6294 5.87666 12.6294 5.87664C12.6032 5.86149 12.4665 5.81813 12.1598 5.90288L12.1578 5.90343L9.26499 6.69417C9.04869 6.7524 8.92999 6.8931 8.92999 7.12999V7.84502ZM12.73 12C12.73 11.6134 12.4166 11.3 12.03 11.3C11.6434 11.3 11.33 11.6134 11.33 12C11.33 12.3866 11.6434 12.7 12.03 12.7C12.4166 12.7 12.73 12.3866 12.73 12ZM6.72 12.27C6.33337 12.27 6.02 12.5834 6.02 12.97C6.02 13.3566 6.33341 13.67 6.72 13.67C7.10659 13.67 7.42 13.3566 7.42 12.97C7.42 12.5834 7.10663 12.27 6.72 12.27ZM18 15.77C18.4142 15.77 18.75 16.1058 18.75 16.52V17.23H19.49C19.9042 17.23 20.24 17.5658 20.24 17.98C20.24 18.3942 19.9042 18.73 19.49 18.73H18.75V19.51C18.75 19.9242 18.4142 20.26 18 20.26C17.5858 20.26 17.25 19.9242 17.25 19.51V18.73H16.51C16.0958 18.73 15.76 18.3942 15.76 17.98C15.76 17.5658 16.0958 17.23 16.51 17.23H17.25V16.52C17.25 16.1058 17.5858 15.77 18 15.77Z" fill="#595854"/>
</svg>
