<svg width="24" height="24" viewBox="0 0 24 24" fill="none" xmlns="http://www.w3.org/2000/svg">
<path fill-rule="evenodd" clip-rule="evenodd" d="M12 2.75C6.89137 2.75 2.75 6.89137 2.75 12C2.75 17.1086 6.89137 21.25 12 21.25C17.1086 21.25 21.25 17.1086 21.25 12C21.25 6.89137 17.1086 2.75 12 2.75ZM1.25 12C1.25 6.06294 6.06294 1.25 12 1.25C17.9371 1.25 22.75 6.06294 22.75 12C22.75 17.9371 17.9371 22.75 12 22.75C6.06294 22.75 1.25 17.9371 1.25 12ZM16.3697 6.46967C16.6626 6.17678 17.1374 6.17678 17.4303 6.46967C20.4232 9.46256 20.4232 14.4374 17.4303 17.4303C17.1374 17.7232 16.6626 17.7232 16.3697 17.4303C16.0768 17.1374 16.0768 16.6626 16.3697 16.3697C18.7768 13.9626 18.7768 9.93744 16.3697 7.53033C16.0768 7.23744 16.0768 6.76256 16.3697 6.46967ZM7.63033 6.56967C7.92322 6.86256 7.92322 7.33744 7.63033 7.63033C5.22322 10.0374 5.22322 14.0626 7.63033 16.4697C7.92322 16.7626 7.92322 17.2374 7.63033 17.5303C7.33744 17.8232 6.86256 17.8232 6.56967 17.5303C3.57678 14.5374 3.57678 9.56256 6.56967 6.56967C6.86256 6.27678 7.33744 6.27678 7.63033 6.56967ZM12 7.05C12.4142 7.05 12.75 7.38579 12.75 7.8V8.05H12.9C14.2142 8.05 15.25 9.08579 15.25 10.4C15.25 10.8142 14.9142 11.15 14.5 11.15C14.0858 11.15 13.75 10.8142 13.75 10.4C13.75 9.91421 13.3858 9.55 12.9 9.55H12.75V11.3357L13.7523 11.6937C13.7611 11.6968 13.7698 11.7002 13.7785 11.7036C14.0765 11.8228 14.4496 12.0109 14.7333 12.3819C15.0237 12.7618 15.15 13.2381 15.15 13.8C15.15 15.0483 14.0793 15.95 13 15.95H12.75V16.2C12.75 16.6142 12.4142 16.95 12 16.95C11.5858 16.95 11.25 16.6142 11.25 16.2V15.9495C9.95961 15.9236 8.95 14.8975 8.95 13.6C8.95 13.1858 9.28579 12.85 9.7 12.85C10.1142 12.85 10.45 13.1858 10.45 13.6C10.45 14.069 10.7894 14.4246 11.25 14.4487V12.3928L10.5148 12.1303C10.1158 12.064 9.68655 11.9181 9.37073 11.5537C9.03538 11.1667 8.95 10.6743 8.95 10.2C8.95 8.98579 9.88579 8.05 11.1 8.05H11.25V7.8C11.25 7.38579 11.5858 7.05 12 7.05ZM11.25 9.55H11.1C10.7142 9.55 10.45 9.81421 10.45 10.2C10.45 10.4756 10.4963 10.5592 10.5042 10.5712C10.5157 10.5807 10.5821 10.6255 10.8061 10.6575C10.8559 10.6647 10.9049 10.6768 10.9523 10.6937L11.25 10.8V9.55ZM10.5023 10.5693C10.5023 10.5693 10.5029 10.5698 10.5039 10.5709C10.5027 10.5699 10.5022 10.5693 10.5023 10.5693ZM12.75 12.9285V14.45H13C13.3207 14.45 13.65 14.1517 13.65 13.8C13.65 13.4619 13.5763 13.3382 13.5417 13.2931C13.5013 13.2402 13.4266 13.1797 13.2336 13.1013L12.75 12.9285Z" fill="#595854"/>
</svg>
