<svg width="24" height="24" viewBox="0 0 24 24" fill="none" xmlns="http://www.w3.org/2000/svg">
<path fill-rule="evenodd" clip-rule="evenodd" d="M3.09467 3.09467C4.42914 1.7602 6.42603 1.25 9 1.25H15C17.574 1.25 19.5709 1.7602 20.9053 3.09467C22.2398 4.42914 22.75 6.42603 22.75 9V12C22.75 12.4142 22.4142 12.75 22 12.75C21.5858 12.75 21.25 12.4142 21.25 12V9C21.25 6.57397 20.7602 5.07086 19.8447 4.15533C18.9291 3.2398 17.426 2.75 15 2.75H9C6.57397 2.75 5.07086 3.2398 4.15533 4.15533C3.2398 5.07086 2.75 6.57397 2.75 9V15C2.75 17.426 3.2398 18.9291 4.15533 19.8447C5.07086 20.7602 6.57397 21.25 9 21.25H12C12.4142 21.25 12.75 21.5858 12.75 22C12.75 22.4142 12.4142 22.75 12 22.75H9C6.42603 22.75 4.42914 22.2398 3.09467 20.9053C1.7602 19.5709 1.25 17.574 1.25 15V9C1.25 6.42603 1.7602 4.42914 3.09467 3.09467ZM13.7969 14.7795C13.797 14.78 13.7972 14.7806 13.7974 14.7811L15.646 20.7266C15.6459 20.7264 15.646 20.7267 15.646 20.7266C15.872 21.4494 16.8716 21.4536 17.1085 20.7428L17.1094 20.7402L17.6583 19.1134C17.8851 18.4223 18.4254 17.9014 19.0915 17.6789C19.0919 17.6788 19.0924 17.6786 19.0928 17.6785L20.7213 17.129C21.4368 16.8888 21.4174 15.8773 20.7163 15.6558C20.7159 15.6557 20.7155 15.6556 20.7151 15.6555L14.7577 13.8063L14.7539 13.8051C14.1774 13.6228 13.6093 14.1605 13.7969 14.7795ZM15.204 12.3742C13.4418 11.8187 11.8319 13.4793 12.3626 15.2188L14.2138 21.1727C14.8679 23.2688 17.8269 23.3262 18.531 21.2189C18.5311 21.2183 18.5313 21.2177 18.5315 21.2172L19.0806 19.5898L19.083 19.5825C19.1569 19.3561 19.3352 19.1788 19.5672 19.1015L19.5698 19.1006L21.1987 18.551C21.1986 18.551 21.1988 18.5509 21.1987 18.551C23.2824 17.8511 23.2625 14.8837 21.1649 14.2245L15.2061 12.3749C15.2054 12.3747 15.2047 12.3744 15.204 12.3742Z" fill="#595854"/>
</svg>
