<svg width="24" height="24" viewBox="0 0 24 24" fill="none" xmlns="http://www.w3.org/2000/svg">
<path fill-rule="evenodd" clip-rule="evenodd" d="M3.53846 3.97713V6.34292C3.53846 6.48692 3.5952 6.75084 3.73605 7.0672C3.87283 7.37443 4.05357 7.65113 4.22639 7.82951L4.23488 7.83827L8.10448 11.9581C8.11769 11.9722 8.1304 11.9867 8.14258 12.0018C8.41011 12.3319 8.65289 12.7671 8.82997 13.2158C9.00552 13.6606 9.14142 14.1817 9.14142 14.6843V20.1399C9.14142 21.0756 10.2448 21.7519 11.126 21.2064L12.54 20.2829C12.5489 20.2771 12.5579 20.2715 12.567 20.2661C12.6568 20.2126 12.7975 20.0675 12.9204 19.8274C13.0182 19.6363 13.0721 19.4482 13.0891 19.3051C12.8277 19.1027 12.5848 18.8772 12.3631 18.6318C12.1129 18.3563 11.8915 18.0549 11.7015 17.7337C11.2144 16.936 10.9258 15.9941 10.8916 15.0055C10.8893 14.9394 10.8881 14.8732 10.8881 14.8067C10.8881 11.665 13.4036 9.15788 16.4441 9.15788C16.5444 9.15788 16.6441 9.16061 16.7432 9.166C16.9228 9.17577 17.1003 9.19428 17.2753 9.22114L18.7434 7.91283C18.9145 7.73018 19.112 7.43449 19.2676 7.08861C19.4301 6.72711 19.5143 6.38343 19.5143 6.12876V3.87518C19.5143 3.21327 18.9663 2.62039 18.2479 2.62039H4.80484C4.11098 2.62039 3.53846 3.18801 3.53846 3.97713ZM21.0527 6.13896C21.0527 6.71024 20.8799 7.29468 20.6592 7.78411C20.4371 8.27648 20.1327 8.74724 19.8004 9.08355C19.7887 9.09534 19.7767 9.10674 19.7644 9.11774L19.0048 9.79468C20.7765 10.7333 22 12.6157 22 14.8067C22 15.8708 21.7046 16.8742 21.1883 17.7309C20.2213 19.3743 18.4528 20.4555 16.4441 20.4555C15.7542 20.4555 15.0931 20.3269 14.4833 20.0921C14.4264 20.2656 14.3559 20.4326 14.2766 20.5876C14.072 20.9875 13.7593 21.4031 13.3429 21.6565L11.9336 22.5769L11.9211 22.5849C10.163 23.6849 7.60296 22.5061 7.60296 20.1399V14.6843C7.60296 14.466 7.53638 14.1626 7.4051 13.8326C7.28139 13.5217 7.12304 13.2446 6.98215 13.0601L3.14405 8.97389C2.80844 8.63187 2.53148 8.18804 2.33725 7.74995C2.14491 7.31613 2 6.81178 2 6.34292V3.96692C2 2.28828 3.26154 1 4.80484 1H18.2479C19.7667 1 21.0527 2.26307 21.0527 3.86497V6.13896ZM14.3838 18.2715C14.9832 18.6342 15.6876 18.8454 16.4441 18.8454C17.9204 18.8454 19.1938 18.0522 19.8801 16.8835L19.8852 16.8749C20.254 16.2642 20.4615 15.5559 20.4615 14.8067C20.4615 12.9339 19.1755 11.325 17.4125 10.8861C17.3804 10.8826 17.3484 10.877 17.3166 10.8692C17.054 10.8048 16.7701 10.7702 16.4721 10.7682C16.4628 10.7681 16.4534 10.7681 16.4441 10.7681C14.204 10.7681 12.4266 12.605 12.4266 14.8067C12.4266 14.8612 12.4277 14.9156 12.4299 14.9697C12.4577 15.6585 12.661 16.3087 13.0029 16.8749L13.0068 16.8813C13.1416 17.1092 13.2989 17.3232 13.4759 17.52C13.7047 17.7724 13.9665 17.9928 14.2564 18.1726C14.3025 18.2012 14.3451 18.2344 14.3838 18.2715ZM14.6415 12.952C14.9368 12.6324 15.4238 12.6238 15.7292 12.9328L16.4642 13.6767L17.169 12.9635C17.4745 12.6544 17.9614 12.663 18.2567 12.9826C18.552 13.3023 18.5438 13.812 18.2384 14.121L17.5709 14.7965L18.2586 15.4924C18.564 15.8014 18.5722 16.3111 18.2769 16.6308C17.9816 16.9504 17.4946 16.959 17.1892 16.65L16.4642 15.9164L15.709 16.6806C15.4036 16.9897 14.9166 16.9811 14.6213 16.6614C14.326 16.3417 14.3342 15.8321 14.6397 15.523L15.3576 14.7965L14.6598 14.0904C14.3544 13.7814 14.3462 13.2717 14.6415 12.952Z" fill="#595854"/>
</svg>
