<svg width="24" height="24" viewBox="0 0 24 24" fill="none" xmlns="http://www.w3.org/2000/svg">
<path fill-rule="evenodd" clip-rule="evenodd" d="M12 2.75C6.89137 2.75 2.75 6.89137 2.75 12C2.75 17.1086 6.89137 21.25 12 21.25C17.1086 21.25 21.25 17.1086 21.25 12C21.25 6.89137 17.1086 2.75 12 2.75ZM1.25 12C1.25 6.06294 6.06294 1.25 12 1.25C17.9371 1.25 22.75 6.06294 22.75 12C22.75 17.9371 17.9371 22.75 12 22.75C6.06294 22.75 1.25 17.9371 1.25 12ZM11.9562 4.45128C12.2675 4.43305 12.5577 4.60944 12.6849 4.89426L15.1849 10.4943C15.1941 10.5149 15.2023 10.5357 15.2095 10.5567L18.2206 11.4832C18.5057 11.5709 18.7117 11.8192 18.7452 12.1156C18.7788 12.4121 18.6335 12.7002 18.3752 12.8494L13.8752 15.4494C13.8138 15.4849 13.7485 15.511 13.6813 15.5278L12.7115 18.4372C12.6171 18.7205 12.3635 18.9208 12.0659 18.9471C11.7684 18.9734 11.4837 18.8206 11.341 18.5581L8.84103 13.9581C8.83968 13.9557 8.83835 13.9532 8.83704 13.9507L5.75983 12.9105C5.473 12.8135 5.2726 12.5536 5.25178 12.2516C5.23095 11.9495 5.39378 11.6646 5.66459 11.5292L9.66459 9.52918C9.73538 9.49378 9.80909 9.47063 9.88332 9.45893L11.2841 4.97629C11.3772 4.67858 11.6448 4.46952 11.9562 4.45128ZM9.27667 11.4002L7.9453 12.0659L8.96132 12.4093L9.27667 11.4002ZM11.261 13.1867L13.3402 13.8895C13.3728 13.9005 13.4046 13.9138 13.4354 13.9292L13.4743 13.9486L16.1356 12.411L14.1498 11.8L11.261 13.1867ZM13.5177 10.4396L12.124 7.31761L10.7303 11.7775L13.5177 10.4396ZM12.2422 15.1017L10.9284 14.6576L11.8345 16.3248L12.2422 15.1017Z" fill="#595854"/>
</svg>
