<svg width="24" height="24" viewBox="0 0 24 24" fill="none" xmlns="http://www.w3.org/2000/svg">
<path fill-rule="evenodd" clip-rule="evenodd" d="M4.5498 5.3C4.5498 3.07128 6.40024 1.25 8.6998 1.25H15.2998C17.514 1.25 19.3498 3.08579 19.3498 5.3C19.3498 6.68239 18.6343 7.91727 17.5578 8.65C18.6343 9.38273 19.3498 10.6176 19.3498 12C19.3498 14.2142 17.514 16.05 15.2998 16.05C14.3388 16.05 13.4491 15.7042 12.7498 15.1317V18.6C12.7498 20.8142 10.914 22.65 8.6998 22.65C6.48559 22.65 4.6498 20.8142 4.6498 18.6C4.6498 17.2486 5.33366 16.0381 6.37002 15.3C5.33366 14.5619 4.6498 13.3514 4.6498 12C4.6498 10.6388 5.3436 9.4206 6.3926 8.68402C5.28792 7.95587 4.5498 6.70401 4.5498 5.3ZM11.2498 9.45V14.55H8.6998C7.31402 14.55 6.1498 13.3858 6.1498 12C6.1498 10.6142 7.31402 9.45 8.6998 9.45H11.2498ZM11.2498 16.05H8.6998C7.31402 16.05 6.1498 17.2142 6.1498 18.6C6.1498 19.9858 7.31402 21.15 8.6998 21.15C10.0856 21.15 11.2498 19.9858 11.2498 18.6V16.05ZM12.7498 7.85H15.2998C16.6856 7.85 17.8498 6.68579 17.8498 5.3C17.8498 3.91421 16.6856 2.75 15.2998 2.75H12.7498V7.85ZM11.2498 2.75H8.6998C7.19936 2.75 6.0498 3.92872 6.0498 5.3C6.0498 6.68579 7.21402 7.85 8.5998 7.85H11.2498V2.75ZM12.7498 12C12.7498 13.3858 13.914 14.55 15.2998 14.55C16.6856 14.55 17.8498 13.3858 17.8498 12C17.8498 10.6142 16.6856 9.45 15.2998 9.45C13.914 9.45 12.7498 10.6142 12.7498 12Z" fill="#595854"/>
</svg>
