<svg width="24" height="24" viewBox="0 0 24 24" fill="none" xmlns="http://www.w3.org/2000/svg">
<path fill-rule="evenodd" clip-rule="evenodd" d="M10.47 3.25C9.50347 3.25 8.71997 4.0335 8.71997 5C8.71997 5.9665 9.50347 6.75 10.47 6.75C11.4365 6.75 12.22 5.9665 12.22 5C12.22 4.0335 11.4365 3.25 10.47 3.25ZM7.21997 5C7.21997 3.20507 8.67505 1.75 10.47 1.75C12.2649 1.75 13.72 3.20507 13.72 5C13.72 6.79493 12.2649 8.25 10.47 8.25C8.67505 8.25 7.21997 6.79493 7.21997 5ZM17.3 5.45C16.6096 5.45 16.05 6.00964 16.05 6.7C16.05 7.39036 16.6096 7.95 17.3 7.95C17.9903 7.95 18.55 7.39036 18.55 6.7C18.55 6.00964 17.9903 5.45 17.3 5.45ZM14.55 6.7C14.55 5.18122 15.7812 3.95 17.3 3.95C18.8188 3.95 20.05 5.18122 20.05 6.7C20.05 8.21878 18.8188 9.45 17.3 9.45C15.7812 9.45 14.55 8.21878 14.55 6.7ZM3.96997 7.45C3.27961 7.45 2.71997 8.00964 2.71997 8.7C2.71997 9.39036 3.27961 9.95 3.96997 9.95C4.66033 9.95 5.21997 9.39036 5.21997 8.7C5.21997 8.00964 4.66033 7.45 3.96997 7.45ZM1.21997 8.7C1.21997 7.18122 2.45119 5.95 3.96997 5.95C5.48875 5.95 6.71997 7.18122 6.71997 8.7C6.71997 10.2188 5.48875 11.45 3.96997 11.45C2.45119 11.45 1.21997 10.2188 1.21997 8.7ZM21 10.45C20.5858 10.45 20.25 10.7858 20.25 11.2C20.25 11.6142 20.5858 11.95 21 11.95C21.4142 11.95 21.75 11.6142 21.75 11.2C21.75 10.7858 21.4142 10.45 21 10.45ZM18.75 11.2C18.75 9.95736 19.7573 8.95 21 8.95C22.2426 8.95 23.25 9.95736 23.25 11.2C23.25 12.4426 22.2426 13.45 21 13.45C19.7573 13.45 18.75 12.4426 18.75 11.2ZM3.66258 16.6875C4.00499 12.5897 7.62919 9.25 11.74 9.25C15.5379 9.25 19.109 12.2861 19.7395 16.0253L19.7396 16.026C20.3568 19.7058 17.7612 22.75 14.04 22.75H9.24997C5.91293 22.75 3.3861 20.0168 3.66254 16.6879L3.66258 16.6875ZM5.1574 16.8121C5.43518 13.4901 8.41087 10.75 11.74 10.75C14.8018 10.75 17.7505 13.2535 18.2603 16.274C18.7232 19.0342 16.8387 21.25 14.04 21.25H9.24997C6.78714 21.25 4.95403 19.2634 5.15737 16.8125" fill="#595854"/>
</svg>
