<svg width="24" height="24" viewBox="0 0 24 24" fill="none" xmlns="http://www.w3.org/2000/svg">
<path fill-rule="evenodd" clip-rule="evenodd" d="M7.68959 3.30585C8.07216 3.14935 8.50924 3.33187 8.66688 3.71397L10.2423 7.53265V5.08009C10.2423 4.66588 10.5781 4.33009 10.9923 4.33009H17.3723C19.2162 4.33009 20.6689 4.541 21.6002 5.47226C22.5314 6.40352 22.7423 7.85628 22.7423 9.70009V10.6201C22.7423 11.0343 22.4066 11.3701 21.9923 11.3701C21.1308 11.3701 20.4323 12.0701 20.4323 12.9401C20.4323 13.798 21.1287 14.5001 21.9923 14.5001C22.4066 14.5001 22.7423 14.8359 22.7423 15.2501C22.7423 17.0939 22.5314 18.5467 21.6002 19.4779C20.6689 20.4092 19.2162 20.6201 17.3723 20.6201H10.9023C10.8986 20.6201 10.895 20.6201 10.8913 20.62H8.22357C8.21039 20.62 8.19724 20.6199 8.18412 20.6198C8.17684 20.62 8.16953 20.6201 8.16219 20.6201H7.99219C7.92807 20.6201 7.86583 20.6121 7.80643 20.5969C7.04304 20.5102 6.39482 20.1782 5.83337 19.5953C5.20926 18.9473 4.70845 18.0059 4.22056 16.8268L4.21716 16.8186L4.21721 16.8186L4.03721 16.3686C3.9632 16.1835 3.96587 15.9766 4.04463 15.7936C4.12339 15.6105 4.27177 15.4663 4.45701 15.3929C5.2754 15.0682 5.67948 14.1147 5.33245 13.2913L5.32834 13.2816L5.32841 13.2815C4.99641 12.4617 4.0487 12.0594 3.20799 12.404C3.02243 12.48 2.81415 12.4786 2.62966 12.4C2.44517 12.3214 2.29983 12.1722 2.2261 11.9858L2.05772 11.5599C1.34185 9.80907 0.97725 8.35527 1.49074 7.11656C2.00536 5.87512 3.29378 5.10913 5.04791 4.38654L5.04959 4.38585L5.04959 4.38585L7.68959 3.30585ZM3.37421 10.8139C4.76278 10.6087 6.16511 11.358 6.71673 12.7136C7.2849 14.0679 6.81168 15.6008 5.67707 16.4215C6.12018 17.4659 6.51395 18.1396 6.91376 18.5547C7.29776 18.9534 7.69147 19.12 8.22357 19.12H10.2436V16.87C10.2436 16.4558 10.5794 16.12 10.9936 16.12C11.4078 16.12 11.7436 16.4558 11.7436 16.87V19.1201H17.3723C19.2285 19.1201 20.0858 18.871 20.5395 18.4173C20.9362 18.0206 21.1764 17.3156 21.2306 15.9046C19.9057 15.5652 18.9323 14.3612 18.9323 12.9401C18.9323 11.5079 19.9103 10.2983 21.2423 9.9626V9.70009C21.2423 7.8439 20.9933 6.98666 20.5395 6.53292C20.0858 6.07918 19.2285 5.83009 17.3723 5.83009H11.7423V11.2772C11.7432 11.2915 11.7436 11.3057 11.7436 11.32V13.87C11.7436 14.2842 11.4078 14.62 10.9936 14.62C10.5794 14.62 10.2436 14.2842 10.2436 13.87V11.9132C10.2428 11.899 10.2423 11.8846 10.2423 11.8701V11.4657L7.56545 4.9773L5.61923 5.77348C5.61895 5.7736 5.61867 5.77371 5.61838 5.77383C3.85313 6.50108 3.13174 7.075 2.8764 7.69097C2.62924 8.2872 2.71786 9.16476 3.37421 10.8139Z" fill="#595854"/>
</svg>
