<svg width="24" height="24" viewBox="0 0 24 24" fill="none" xmlns="http://www.w3.org/2000/svg">
<path fill-rule="evenodd" clip-rule="evenodd" d="M12 2.75C6.89137 2.75 2.75 6.89137 2.75 12C2.75 17.1086 6.89137 21.25 12 21.25C17.1086 21.25 21.25 17.1086 21.25 12C21.25 6.89137 17.1086 2.75 12 2.75ZM1.25 12C1.25 6.06294 6.06294 1.25 12 1.25C17.9371 1.25 22.75 6.06294 22.75 12C22.75 17.9371 17.9371 22.75 12 22.75C6.06294 22.75 1.25 17.9371 1.25 12ZM9.60001 8.64001C8.35908 8.64001 7.35001 9.64934 7.35001 10.91C7.35001 12.5505 8.10567 13.8749 9.08172 14.8749C10.0624 15.8797 11.2192 16.506 11.8921 16.7367C11.895 16.7374 11.9018 16.7387 11.9128 16.7401C11.9348 16.743 11.9633 16.745 11.995 16.745C12.0267 16.745 12.0552 16.743 12.0772 16.7401C12.0884 16.7387 12.0952 16.7373 12.0981 16.7367C12.7752 16.5063 13.935 15.8799 14.9173 14.8746C15.8944 13.8747 16.65 12.5505 16.65 10.91C16.65 9.64934 15.6409 8.64001 14.4 8.64001C13.6676 8.64001 13.0075 8.99922 12.603 9.54603C12.4617 9.73698 12.2384 9.84974 12.0009 9.85001C11.7633 9.85028 11.5397 9.73803 11.3981 9.5474C10.9836 8.98983 10.3331 8.64001 9.60001 8.64001ZM5.85001 10.91C5.85001 8.83067 7.52093 7.14001 9.60001 7.14001C10.5128 7.14001 11.3495 7.46667 12.0004 8.01377C12.6493 7.47048 13.4895 7.14001 14.4 7.14001C16.4791 7.14001 18.15 8.83067 18.15 10.91C18.15 13.0496 17.1556 14.7303 15.9902 15.9229C14.8339 17.1062 13.4639 17.8588 12.5699 18.1606L12.5672 18.1615C12.3742 18.2259 12.1644 18.245 11.995 18.245C11.8257 18.245 11.6158 18.2259 11.4228 18.1615L11.4187 18.1601C10.5302 17.8583 9.16309 17.1058 8.00829 15.9226C6.84434 14.7301 5.85001 13.0495 5.85001 10.91Z" fill="#595854"/>
</svg>
