<svg width="24" height="24" viewBox="0 0 24 24" fill="none" xmlns="http://www.w3.org/2000/svg">
<path fill-rule="evenodd" clip-rule="evenodd" d="M14.3998 2.24537C14.3996 2.24516 14.4001 2.24557 14.3998 2.24537L21.3304 7.78582C21.844 8.1994 22.2289 8.8051 22.4645 9.42266C22.7002 10.0404 22.8166 10.749 22.7102 11.4009L22.7097 11.4036L21.3798 19.3636L21.3794 19.3658C21.0782 21.135 19.3969 22.5601 17.6 22.5601H6.39999C4.59377 22.5601 2.92142 21.1456 2.62047 19.365L1.29103 11.4082C1.29089 11.4074 1.29074 11.4066 1.2906 11.4057C1.17777 10.7519 1.29191 10.0415 1.52802 9.42266C1.76428 8.80339 2.1526 8.19724 2.67212 7.78383C2.67252 7.78351 2.67293 7.78319 2.67333 7.78287L9.60081 2.23483C10.9362 1.16429 13.057 1.16671 14.3998 2.24537ZM13.4601 3.41453C12.6631 2.7739 11.3236 2.77609 10.5392 3.40505L3.6067 8.95711C3.34682 9.16368 3.09555 9.52208 2.92949 9.95735C2.76339 10.3927 2.7125 10.8264 2.76896 11.1518L2.76975 11.1564L4.09949 19.115C4.09946 19.1148 4.09952 19.1152 4.09949 19.115C4.27882 20.1741 5.3264 21.0601 6.39999 21.0601H17.6C18.6627 21.0601 19.721 20.1656 19.9005 19.1153C19.9005 19.1149 19.9006 19.1145 19.9006 19.1141L21.2298 11.1592C21.2299 11.1587 21.2299 11.1583 21.23 11.1578C21.2832 10.8299 21.2296 10.394 21.063 9.95735C20.8963 9.52036 20.6465 9.16136 20.3904 8.95483C20.3902 8.95461 20.3899 8.95438 20.3896 8.95416L13.4617 3.41576L13.4601 3.41453ZM9.18822 10.3426C10.9912 9.48617 13.0083 9.4853 14.8035 10.3434L14.8067 10.3449C15.4971 10.679 16.1649 11.1354 16.7653 11.7248C17.061 12.0149 17.0654 12.4898 16.7753 12.7854C16.4851 13.081 16.0103 13.0854 15.7146 12.7953C15.2356 12.3251 14.704 11.9618 14.155 11.696C12.7714 11.0352 11.2301 11.0342 9.83427 11.6963C9.28949 11.9603 8.76513 12.3234 8.27042 12.8001C7.97216 13.0875 7.49737 13.0787 7.20995 12.7805C6.92253 12.4822 6.93132 12.0074 7.22958 11.72C7.83415 11.1374 8.48899 10.6809 9.18334 10.3449L9.18822 10.3426ZM12 14.2225C11.4704 14.2225 10.9083 14.4362 10.3974 14.923C10.0975 15.2087 9.62273 15.1972 9.33701 14.8974C9.05128 14.5975 9.06277 14.1227 9.36266 13.837C10.1217 13.1138 11.0446 12.7225 12 12.7225C12.9554 12.7225 13.8783 13.1138 14.6373 13.837C14.9372 14.1227 14.9487 14.5975 14.663 14.8974C14.3773 15.1972 13.9025 15.2087 13.6027 14.923C13.0917 14.4362 12.5296 14.2225 12 14.2225ZM11.2455 17C11.2455 16.5858 11.5813 16.25 11.9955 16.25H12.0045C12.4187 16.25 12.7545 16.5858 12.7545 17C12.7545 17.4142 12.4187 17.75 12.0045 17.75H11.9955C11.5813 17.75 11.2455 17.4142 11.2455 17Z" fill="#595854"/>
</svg>
