<svg width="24" height="24" viewBox="0 0 24 24" fill="none" xmlns="http://www.w3.org/2000/svg">
<path fill-rule="evenodd" clip-rule="evenodd" d="M7.56 3.84998C4.90772 3.84998 2.75 6.0107 2.75 8.69C2.75 11.9405 4.25068 14.5449 6.13923 16.4799C8.03683 18.4242 10.2799 19.642 11.6223 20.1002L11.6296 20.1027L11.6296 20.1028C11.6944 20.1256 11.8286 20.15 12 20.15C12.1714 20.15 12.3056 20.1256 12.3704 20.1028L12.3828 20.0984L12.3828 20.0985C12.4073 20.0903 12.4321 20.0819 12.4574 20.073C11.9481 19.2365 11.65 18.2537 11.65 17.2C11.65 14.1358 14.1358 11.65 17.2 11.65C17.2323 11.65 17.2645 11.6503 17.2966 11.6508C18.4682 11.6709 19.5516 12.0543 20.4389 12.6932C20.9454 11.4943 21.25 10.1612 21.25 8.69C21.25 6.0107 19.0923 3.84998 16.44 3.84998C14.8774 3.84998 13.4756 4.6096 12.6005 5.7793C12.4589 5.96858 12.2364 6.08002 12 6.08002C11.7636 6.08002 11.5411 5.96858 11.3995 5.7793C10.5244 4.6096 9.12263 3.84998 7.56 3.84998ZM17.2784 13.1508C18.401 13.1723 19.4166 13.6554 20.1452 14.4255C20.1596 14.4407 20.1745 14.4552 20.19 14.469C20.8483 15.1892 21.25 16.148 21.25 17.2C21.25 17.9601 21.0392 18.6722 20.664 19.2725L20.6561 19.2855C19.955 20.4595 18.6738 21.25 17.2 21.25C15.7238 21.25 14.4354 20.4576 13.746 19.2889L13.746 19.2889L13.74 19.2789C13.368 18.6702 13.15 17.9546 13.15 17.2C13.15 14.9642 14.9642 13.15 17.2 13.15C17.2262 13.15 17.2523 13.1503 17.2784 13.1508ZM13.4598 21.2937C14.4404 22.1963 15.756 22.75 17.2 22.75C19.2235 22.75 20.9802 21.6634 21.94 20.061C22.4623 19.2227 22.75 18.2373 22.75 17.2C22.75 15.9187 22.3154 14.7386 21.5856 13.799C22.3023 12.3008 22.75 10.5959 22.75 8.69C22.75 5.1893 19.9277 2.34998 16.44 2.34998C14.7116 2.34998 13.1379 3.05603 12 4.18913C10.8621 3.05603 9.28835 2.34998 7.56 2.34998C4.07228 2.34998 1.25 5.1893 1.25 8.69C1.25 12.4395 2.98932 15.4001 5.06577 17.5276C7.13169 19.6443 9.57655 20.9861 11.1343 21.5186C11.4086 21.6147 11.7227 21.65 12 21.65C12.2763 21.65 12.5892 21.615 12.8628 21.5196C13.0525 21.4562 13.2524 21.38 13.4598 21.2937ZM19.6214 15.5117C19.9022 15.8162 19.8829 16.2907 19.5784 16.5715L17.0183 18.9314C16.7225 19.2042 16.2642 19.1948 15.9797 18.9103L14.7997 17.7303C14.5068 17.4375 14.5068 16.9626 14.7997 16.6697C15.0926 16.3768 15.5674 16.3768 15.8603 16.6697L16.5311 17.3405L18.5616 15.4686C18.8662 15.1878 19.3407 15.2071 19.6214 15.5117Z" fill="#595854"/>
</svg>
