<svg width="24" height="24" viewBox="0 0 24 24" fill="none" xmlns="http://www.w3.org/2000/svg">
<path fill-rule="evenodd" clip-rule="evenodd" d="M11.7918 2.75C11.1184 2.75 10.4869 2.8932 10.0446 3.13689L10.0411 3.13883L4.60004 6.09883C4.24128 6.2938 3.88256 6.61722 3.57526 7.02076L11.7917 11.6873L20.006 7.01757C19.6992 6.61552 19.3418 6.29344 18.984 6.099L13.5391 3.1369C13.0968 2.89321 12.4653 2.75 11.7918 2.75ZM20.6991 8.34902L12.5418 12.9863V21.1889C12.923 21.125 13.2669 21.0131 13.5391 20.8631L13.5438 20.8605L14.6785 20.2459C14.3065 19.576 14.0986 18.8066 14.0986 18C14.0986 16.5002 14.8031 15.1554 15.9154 14.2888C16.7446 13.6404 17.7921 13.25 18.9243 13.25C19.6046 13.25 20.249 13.3867 20.8337 13.6367V9.16999C20.8337 8.91691 20.7874 8.63742 20.6991 8.34902ZM22.459 14.7693C22.4208 14.7281 22.379 14.6842 22.3337 14.6393V9.16999C22.3337 8.31067 22.0251 7.41317 21.5681 6.6525C21.1107 5.89114 20.4612 5.19459 19.7002 4.78103L14.263 1.82311C14.2623 1.82277 14.2617 1.82243 14.2611 1.82209C13.5421 1.4265 12.646 1.25 11.7918 1.25C10.9377 1.25 10.0416 1.4265 9.3226 1.82209L3.88351 4.78103C3.88342 4.78109 3.88361 4.78098 3.88351 4.78103C3.12264 5.19461 2.47296 5.89124 2.01559 6.6525C1.55857 7.41317 1.25 8.31067 1.25 9.16999V14.83C1.25 15.6893 1.55857 16.5868 2.01559 17.3475C2.47296 18.1088 3.12235 18.8052 3.88322 19.2188C3.88312 19.2188 3.88332 19.2189 3.88322 19.2188L9.32074 22.1769C9.32134 22.1772 9.32194 22.1776 9.32253 22.1779C10.0415 22.5735 10.9376 22.75 11.7918 22.75C12.6458 22.75 13.5417 22.5736 14.2606 22.1782C14.2614 22.1778 14.2622 22.1773 14.263 22.1769L15.6158 21.4441C16.4726 22.253 17.641 22.75 18.9243 22.75C20.132 22.75 21.242 22.3163 22.0909 21.5707C22.4674 21.2587 22.794 20.8781 23.049 20.4511C23.4968 19.7353 23.75 18.8903 23.75 18C23.75 16.7455 23.2499 15.6167 22.459 14.7693ZM11.0418 21.1889V12.9865L2.88345 8.35289C2.79584 8.63992 2.75 8.91804 2.75 9.16999V14.83C2.75 15.3507 2.94579 15.9832 3.30137 16.575C3.65652 17.1661 4.12784 17.6446 4.59974 17.901L10.0446 20.8631C10.3168 21.0131 10.6607 21.125 11.0418 21.1889ZM18.9243 14.75C18.1412 14.75 17.416 15.0194 16.8391 15.4707L16.8378 15.4717C16.0758 16.0651 15.5986 16.9801 15.5986 18C15.5986 18.6064 15.7715 19.1784 16.0746 19.6609C16.08 19.6695 16.0853 19.6782 16.0903 19.687C16.152 19.7947 16.2327 19.9046 16.3305 20.0166C16.3341 20.0208 16.3377 20.0249 16.3412 20.0291C16.3496 20.0375 16.3604 20.0486 16.3716 20.0607C16.3856 20.0759 16.403 20.0957 16.4219 20.1199C17.0164 20.8072 17.9139 21.25 18.9243 21.25C19.7702 21.25 20.5311 20.947 21.1076 20.4378C21.1113 20.4346 21.115 20.4314 21.1187 20.4282C21.1216 20.4257 21.1245 20.4233 21.1274 20.4209C21.376 20.2163 21.5943 19.9627 21.7643 19.6768L21.774 19.6609C22.0772 19.1784 22.25 18.6064 22.25 18C22.25 17.1551 21.915 16.3844 21.3616 15.7919L21.3595 15.7897C21.2714 15.6946 21.1962 15.6235 21.1289 15.574C21.1142 15.5631 21.0999 15.5518 21.086 15.5399C20.5061 15.0439 19.7611 14.75 18.9243 14.75ZM18.9243 15.77C19.3385 15.77 19.6743 16.1058 19.6743 16.52V17.2299H20.4425C20.8567 17.2299 21.1925 17.5657 21.1925 17.9799C21.1925 18.3942 20.8567 18.7299 20.4425 18.7299H19.6743V19.51C19.6743 19.9242 19.3385 20.26 18.9243 20.26C18.5101 20.26 18.1743 19.9242 18.1743 19.51V18.7299H17.4061C16.9919 18.7299 16.6561 18.3942 16.6561 17.9799C16.6561 17.5657 16.9919 17.2299 17.4061 17.2299H18.1743V16.52C18.1743 16.1058 18.5101 15.77 18.9243 15.77Z" fill="#595854"/>
</svg>
