<svg width="24" height="24" viewBox="0 0 24 24" fill="none" xmlns="http://www.w3.org/2000/svg">
<path fill-rule="evenodd" clip-rule="evenodd" d="M13.1965 3.07041C12.4462 2.64226 11.5313 2.64443 10.795 3.06953L4.8577 6.49794C4.11577 6.93498 3.65997 7.72968 3.65997 8.58003V15.42C3.65997 16.2836 4.11836 17.0753 4.85497 17.5005L10.7921 20.9289C10.7926 20.9291 10.793 20.9294 10.7935 20.9297C11.5438 21.3578 12.4587 21.3556 13.195 20.9305C13.1949 20.9306 13.195 20.9305 13.195 20.9305L19.13 17.5034C19.1308 17.503 19.1316 17.5025 19.1324 17.5021C19.8742 17.065 20.33 16.2703 20.33 15.42V8.58003C20.33 7.721 19.8754 6.93563 19.1323 6.49794C19.1315 6.4975 19.1308 6.49706 19.13 6.49661L13.1979 3.07118C13.1974 3.07092 13.197 3.07066 13.1965 3.07041ZM10.045 1.77047C11.2482 1.07583 12.7327 1.07774 13.9421 1.76882L13.9451 1.7705L19.89 5.20335C21.0856 5.90592 21.83 7.17993 21.83 8.58003V15.42C21.83 16.8088 21.0867 18.0934 19.89 18.7967L19.8851 18.7996L13.9451 22.2295C12.7418 22.9242 11.2573 22.9223 10.0479 22.2312L10.0449 22.2295L4.105 18.7996C2.9016 18.1048 2.15997 16.8164 2.15997 15.42V8.58003C2.15997 7.19125 2.90327 5.90661 4.10001 5.20337L4.10493 5.20048L10.045 1.77047ZM12 7C12.4142 7 12.75 7.33579 12.75 7.75V13C12.75 13.4142 12.4142 13.75 12 13.75C11.5858 13.75 11.25 13.4142 11.25 13V7.75C11.25 7.33579 11.5858 7 12 7ZM12 15.45C12.4142 15.45 12.75 15.7858 12.75 16.2V16.3C12.75 16.7142 12.4142 17.05 12 17.05C11.5858 17.05 11.25 16.7142 11.25 16.3V16.2C11.25 15.7858 11.5858 15.45 12 15.45Z" fill="#595854"/>
</svg>
