<svg width="24" height="24" viewBox="0 0 24 24" fill="none" xmlns="http://www.w3.org/2000/svg">
<path fill-rule="evenodd" clip-rule="evenodd" d="M3.09467 3.09467C4.42914 1.7602 6.42603 1.25 9 1.25H15C17.574 1.25 19.5709 1.7602 20.9053 3.09467C22.2398 4.42914 22.75 6.42603 22.75 9V15C22.75 17.574 22.2398 19.5709 20.9053 20.9053C19.5709 22.2398 17.574 22.75 15 22.75H9C6.42603 22.75 4.42914 22.2398 3.09467 20.9053C1.7602 19.5709 1.25 17.574 1.25 15V9C1.25 6.42603 1.7602 4.42914 3.09467 3.09467ZM4.15533 4.15533C3.2398 5.07086 2.75 6.57397 2.75 9V15C2.75 17.426 3.2398 18.9291 4.15533 19.8447C5.07086 20.7602 6.57397 21.25 9 21.25H15C17.426 21.25 18.9291 20.7602 19.8447 19.8447C20.7602 18.9291 21.25 17.426 21.25 15V9C21.25 6.57397 20.7602 5.07086 19.8447 4.15533C18.9291 3.2398 17.426 2.75 15 2.75H9C6.57397 2.75 5.07086 3.2398 4.15533 4.15533ZM6.46967 7.71967C6.76256 7.42678 7.23744 7.42678 7.53033 7.71967C8.23599 8.42533 9.39313 8.4291 10.1123 7.71704C10.4067 7.42561 10.8815 7.42797 11.173 7.72231C11.4644 8.01666 11.462 8.49153 11.1677 8.78296C9.86687 10.0709 7.76401 10.0747 6.46967 8.78033C6.17678 8.48744 6.17678 8.01256 6.46967 7.71967ZM12.8297 7.71967C13.1226 7.42678 13.5974 7.42678 13.8903 7.71967C14.596 8.42533 15.7531 8.4291 16.4723 7.71704C16.7667 7.42561 17.2415 7.42797 17.533 7.72231C17.8244 8.01666 17.822 8.49153 17.5277 8.78296C16.2269 10.0709 14.124 10.0747 12.8297 8.78033C12.5368 8.48744 12.5368 8.01256 12.8297 7.71967ZM8.4 13.75C8.31421 13.75 8.25 13.8142 8.25 13.9C8.25 15.9758 9.92421 17.65 12 17.65C14.0758 17.65 15.75 15.9758 15.75 13.9C15.75 13.8142 15.6858 13.75 15.6 13.75H8.4ZM6.75 13.9C6.75 12.9858 7.48579 12.25 8.4 12.25H15.6C16.5142 12.25 17.25 12.9858 17.25 13.9C17.25 16.8042 14.9042 19.15 12 19.15C9.09579 19.15 6.75 16.8042 6.75 13.9Z" fill="#595854"/>
</svg>
