<svg width="24" height="24" viewBox="0 0 24 24" fill="none" xmlns="http://www.w3.org/2000/svg">
<path fill-rule="evenodd" clip-rule="evenodd" d="M4.07408 4.07409C3.2148 4.93338 2.75 6.349 2.75 8.65002V14.35C2.75 16.651 3.2148 18.0666 4.07408 18.9259C4.93336 19.7852 6.34898 20.25 8.65 20.25H13.8231C13.4552 19.5787 13.25 18.8077 13.25 18C13.25 15.3758 15.3758 13.25 18 13.25C18.8104 13.25 19.5792 13.4532 20.25 13.8148V8.65002C20.25 6.349 19.7852 4.93338 18.9259 4.07409C18.0666 3.2148 16.651 2.75 14.35 2.75H8.65C6.34898 2.75 4.93336 3.2148 4.07408 4.07409ZM21.7348 15.0745C21.745 14.8393 21.75 14.5966 21.75 14.35V8.65002C21.75 6.20105 21.2648 4.29166 19.9866 3.01343C18.7084 1.73521 16.799 1.25 14.35 1.25H8.65C6.20103 1.25 4.29164 1.73521 3.01342 3.01343C1.7352 4.29166 1.25 6.20105 1.25 8.65002V14.35C1.25 16.7989 1.7352 18.7083 3.01342 19.9866C4.29164 21.2648 6.20103 21.75 8.65 21.75H14.35C14.6026 21.75 14.8466 21.745 15.0818 21.7348C15.8814 22.3703 16.8936 22.75 18 22.75C19.732 22.75 21.2406 21.8246 22.0615 20.4486C22.5017 19.7327 22.75 18.8885 22.75 18C22.75 16.9012 22.3694 15.8819 21.7348 15.0745ZM13.3708 4.57843C13.9738 4.92753 14.22 5.58497 14.22 6.34001V7.3637C14.2203 7.37489 14.2203 7.38606 14.22 7.39719V11.7888C14.2266 11.8583 14.23 11.9288 14.23 12C14.23 13.215 13.245 14.2 12.03 14.2C10.815 14.2 9.83 13.215 9.83 12C9.83 10.785 10.815 9.79999 12.03 9.79999C12.271 9.79999 12.503 9.83875 12.72 9.91037V8.36276L8.92 9.40239V12.97C8.92 14.185 7.93504 15.17 6.72 15.17C5.50497 15.17 4.52 14.185 4.52 12.97C4.52 11.7549 5.50501 10.77 6.72 10.77C6.96472 10.77 7.20011 10.81 7.42 10.8837V8.84633C7.41975 8.83513 7.41975 8.82396 7.42 8.81282V7.12999C7.42 6.16747 8.04054 5.46836 8.86352 5.24614C8.86402 5.24601 8.86452 5.24587 8.86502 5.24574L11.7502 4.45706C11.7506 4.45697 11.7509 4.45688 11.7512 4.45679C12.2044 4.33172 12.8274 4.26379 13.3708 4.57843ZM8.92 7.84726L12.72 6.80763V6.34001C12.72 6.11166 12.6836 5.98812 12.6572 5.93051C12.6362 5.88458 12.6213 5.87756 12.6194 5.87664C12.6193 5.8766 12.6194 5.87666 12.6194 5.87664C12.5932 5.86149 12.4565 5.81813 12.1497 5.90288L12.1478 5.90343L9.25498 6.69417C9.0387 6.7524 8.92 6.89308 8.92 7.12999V7.84726ZM7.42 12.97C7.42 12.5834 7.10663 12.27 6.72 12.27C6.33337 12.27 6.02 12.5834 6.02 12.97C6.02 13.3566 6.33341 13.67 6.72 13.67C7.10659 13.67 7.42 13.3566 7.42 12.97ZM12.72 11.8814C12.6637 11.5513 12.3762 11.3 12.03 11.3C11.6434 11.3 11.33 11.6134 11.33 12C11.33 12.3866 11.6434 12.7 12.03 12.7C12.3876 12.7 12.6826 12.4318 12.7248 12.0855C12.7216 12.0575 12.72 12.0289 12.72 12V11.8814ZM18 14.75C16.2042 14.75 14.75 16.2042 14.75 18C14.75 18.6094 14.9205 19.1833 15.2184 19.6663L15.2265 19.6797C15.3841 19.9477 15.5911 20.1951 15.8312 20.4032L15.8461 20.4164C16.4129 20.9347 17.1641 21.25 18 21.25C19.1859 21.25 20.2156 20.6177 20.7754 19.6766L20.7815 19.6663C21.0794 19.1833 21.25 18.6094 21.25 18C21.25 17.1739 20.9345 16.4108 20.4129 15.8322L20.4064 15.8249C19.8271 15.1652 18.9617 14.75 18 14.75ZM16.4184 16.4009C16.7106 16.1073 17.1855 16.1062 17.4791 16.3984L18.0151 16.9319L18.5209 16.4284C18.8145 16.1362 19.2894 16.1374 19.5816 16.4309C19.8738 16.7245 19.8727 17.1994 19.5791 17.4916L19.0783 17.99L19.5991 18.5084C19.8927 18.8006 19.8938 19.2755 19.6016 19.569C19.3094 19.8626 18.8345 19.8638 18.5409 19.5716L18.0151 19.0482L17.4591 19.6016C17.1655 19.8938 16.6906 19.8927 16.3984 19.5991C16.1062 19.3055 16.1073 18.8306 16.4009 18.5384L16.9519 17.99L16.4209 17.4616C16.1273 17.1694 16.1262 16.6945 16.4184 16.4009Z" fill="#595854"/>
</svg>
