<svg width="24" height="24" viewBox="0 0 24 24" fill="none" xmlns="http://www.w3.org/2000/svg">
<path fill-rule="evenodd" clip-rule="evenodd" d="M4.73992 4.03C4.01177 4.03 3.41992 4.61657 3.41992 5.35V7.17C3.41992 7.58421 3.08414 7.92 2.66992 7.92C2.25571 7.92 1.91992 7.58421 1.91992 7.17V5.35C1.91992 3.78343 3.18807 2.53 4.73992 2.53H19.2599C20.8265 2.53 22.0799 3.79815 22.0799 5.35V7.17C22.0799 7.58421 21.7441 7.92 21.3299 7.92C20.9157 7.92 20.5799 7.58421 20.5799 7.17V5.35C20.5799 4.62185 19.9933 4.03 19.2599 4.03H12.7457C12.7485 4.05629 12.7499 4.08298 12.7499 4.11V19.97H15.9399C16.3541 19.97 16.6899 20.3058 16.6899 20.72C16.6899 21.1342 16.3541 21.47 15.9399 21.47H8.05992C7.64571 21.47 7.30992 21.1342 7.30992 20.72C7.30992 20.3058 7.64571 19.97 8.05992 19.97H11.2499V4.11C11.2499 4.08298 11.2514 4.05629 11.2541 4.03H4.73992Z" fill="#595854"/>
</svg>
