<svg width="24" height="24" viewBox="0 0 24 24" fill="none" xmlns="http://www.w3.org/2000/svg">
<path fill-rule="evenodd" clip-rule="evenodd" d="M10.6646 1.92918C11.4757 1.52361 12.4243 1.52361 13.2354 1.92918C13.2454 1.93417 13.2553 1.93939 13.265 1.94482L20.2518 5.83747C21.1224 6.28153 21.65 7.25245 21.65 8.2V15.8C21.65 16.8103 21.0697 17.6216 20.316 18.124C20.2994 18.1351 20.2824 18.1455 20.265 18.1552L13.265 22.0552C13.2553 22.0606 13.2454 22.0658 13.2354 22.0708C12.4243 22.4764 11.4757 22.4764 10.6646 22.0708C10.6546 22.0658 10.6447 22.0606 10.635 22.0552L3.64815 18.1625C2.7776 17.7185 2.25 16.7475 2.25 15.8V8.2C2.25 7.22797 2.79366 6.30284 3.58397 5.77596C3.60284 5.76339 3.62226 5.75168 3.64218 5.74086L10.6422 1.94086C10.6496 1.93684 10.6571 1.93295 10.6646 1.92918ZM11.3455 3.26581L4.39085 7.04121C3.99586 7.31675 3.75 7.78087 3.75 8.2V15.8C3.75 16.2465 4.01575 16.6694 4.33541 16.8292C4.3454 16.8342 4.35527 16.8394 4.36503 16.8448L11.3488 20.7358C11.7301 20.9214 12.1699 20.9214 12.5512 20.7358L19.5069 16.8605C19.9378 16.565 20.15 16.183 20.15 15.8V8.2C20.15 7.75349 19.8842 7.33065 19.5646 7.17082C19.5546 7.16583 19.5447 7.16061 19.535 7.15518L12.5512 3.2642C12.1688 3.07806 11.7276 3.0786 11.3455 3.26581Z" fill="#595854"/>
</svg>
