<svg width="24" height="24" viewBox="0 0 24 24" fill="none" xmlns="http://www.w3.org/2000/svg">
<path fill-rule="evenodd" clip-rule="evenodd" d="M12.0152 17.25C12.7476 17.25 13.6313 16.7682 14.381 15.472L17.061 10.852C17.0611 10.8519 17.061 10.8521 17.061 10.852C17.8101 9.55668 17.7856 8.55045 17.4195 7.91621C17.0532 7.28171 16.1941 6.7575 14.7002 6.7575L9.33025 6.7575C7.83635 6.7575 6.97732 7.28171 6.61104 7.91621C6.24494 8.55039 6.22019 9.55621 6.96911 10.8514C6.96923 10.8516 6.96899 10.8512 6.96911 10.8514L9.649 15.4712C10.3987 16.7674 11.2829 17.25 12.0152 17.25ZM8.3515 16.2238C9.26174 17.7971 10.5629 18.75 12.0152 18.75C13.4677 18.75 14.7689 17.797 15.6792 16.2235C15.6791 16.2237 15.6793 16.2234 15.6792 16.2235L18.359 11.6038C19.2697 10.0293 19.4449 8.4245 18.7185 7.16628C17.9923 5.90829 16.5164 5.2575 14.7002 5.2575L9.33025 5.2575C7.51414 5.2575 6.03817 5.90828 5.31196 7.16628C4.58562 8.4245 4.76031 10.0285 5.67102 11.603L8.3515 16.2238Z" fill="#595854"/>
</svg>
