<svg width="24" height="24" viewBox="0 0 24 24" fill="none" xmlns="http://www.w3.org/2000/svg">
<path fill-rule="evenodd" clip-rule="evenodd" d="M11.88 3.19C12.0789 3.19 12.2697 3.26902 12.4103 3.40967L14.9703 5.96967C15.2632 6.26257 15.2632 6.73744 14.9703 7.03033C14.6774 7.32323 14.2026 7.32323 13.9097 7.03033L12.63 5.75066V14.18C12.63 14.5942 12.2942 14.93 11.88 14.93C11.4658 14.93 11.13 14.5942 11.13 14.18V5.75066L9.85033 7.03033C9.55744 7.32323 9.08256 7.32323 8.78967 7.03033C8.49678 6.73744 8.49678 6.26257 8.78967 5.96967L11.3497 3.40967C11.4903 3.26902 11.6811 3.19 11.88 3.19ZM4 11.25C4.41421 11.25 4.75 11.5858 4.75 12C4.75 14.0406 5.44112 15.8486 6.66877 17.141C7.89078 18.4274 9.68843 19.25 12 19.25C14.3116 19.25 16.1092 18.4274 17.3312 17.141C18.5589 15.8486 19.25 14.0406 19.25 12C19.25 11.5858 19.5858 11.25 20 11.25C20.4142 11.25 20.75 11.5858 20.75 12C20.75 14.3794 19.9411 16.5714 18.4188 18.174C16.8908 19.7826 14.6884 20.75 12 20.75C9.31157 20.75 7.10922 19.7826 5.58123 18.174C4.05888 16.5714 3.25 14.3794 3.25 12C3.25 11.5858 3.58579 11.25 4 11.25Z" fill="#595854"/>
</svg>
