<svg width="24" height="24" viewBox="0 0 24 24" fill="none" xmlns="http://www.w3.org/2000/svg">
<path fill-rule="evenodd" clip-rule="evenodd" d="M1.25 12C1.25 6.06579 6.06579 1.25 12 1.25C17.9342 1.25 22.75 6.06579 22.75 12C22.75 12.4142 22.4142 12.75 22 12.75C21.5858 12.75 21.25 12.4142 21.25 12C21.25 6.89421 17.1058 2.75 12 2.75C6.89421 2.75 2.75 6.89421 2.75 12C2.75 17.1058 6.89421 21.25 12 21.25C12.4142 21.25 12.75 21.5858 12.75 22C12.75 22.4142 12.4142 22.75 12 22.75C6.06579 22.75 1.25 17.9342 1.25 12ZM13.7968 14.7795C13.797 14.78 13.7972 14.7806 13.7974 14.7811L15.646 20.7266C15.6459 20.7264 15.646 20.7267 15.646 20.7266C15.872 21.4494 16.8716 21.4536 17.1085 20.7428L17.1094 20.7402L17.6583 19.1135C17.8851 18.4224 18.4254 17.9014 19.0915 17.6789C19.0919 17.6788 19.0924 17.6786 19.0928 17.6785L20.7213 17.129C21.4369 16.8888 21.4174 15.8771 20.7161 15.6558C20.7158 15.6557 20.7155 15.6556 20.7151 15.6555L14.7577 13.8063L14.7539 13.8051C14.1774 13.6228 13.6093 14.1605 13.7968 14.7795ZM15.2042 12.3743C13.4419 11.8186 11.8319 13.4792 12.3626 15.2188L14.2138 21.1727C14.8679 23.2688 17.8267 23.3262 18.5309 21.219C18.5311 21.2184 18.5313 21.2178 18.5315 21.2172L19.0806 19.5898L19.0831 19.5825C19.1569 19.3561 19.3352 19.1788 19.5672 19.1015L19.5698 19.1006L21.1987 18.551C21.1986 18.551 21.1988 18.5509 21.1987 18.551C23.2824 17.8511 23.2625 14.8837 21.1649 14.2245L15.2061 12.3749C15.2055 12.3747 15.2048 12.3745 15.2042 12.3743Z" fill="#595854"/>
</svg>
