<svg width="24" height="24" viewBox="0 0 24 24" fill="none" xmlns="http://www.w3.org/2000/svg">
<path fill-rule="evenodd" clip-rule="evenodd" d="M4.76452 3.40578C5.41095 3.29312 6.15519 3.25 7 3.25H9.5C9.58766 3.25 9.67181 3.26504 9.75 3.29268C9.82819 3.26504 9.91234 3.25 10 3.25C10.4142 3.25 10.75 3.58579 10.75 4V6C10.75 6.41421 10.4142 6.75 10 6.75C9.58579 6.75 9.25 6.41421 9.25 6V4.75H7C6.1976 4.75 5.54901 4.79167 5.02206 4.88351C4.614 4.95462 4.22554 4.68148 4.15443 4.27341C4.08331 3.86535 4.35646 3.4769 4.76452 3.40578ZM13.75 4C13.75 3.58579 14.0858 3.25 14.5 3.25H17C17.8448 3.25 18.589 3.29312 19.2355 3.40578C19.6435 3.4769 19.9167 3.86535 19.8456 4.27341C19.7745 4.68148 19.386 4.95462 18.9779 4.88351C18.451 4.79167 17.8024 4.75 17 4.75H14.5C14.0858 4.75 13.75 4.41421 13.75 4ZM21.7266 6.15443C22.1346 6.08331 22.5231 6.35646 22.5942 6.76452C22.7069 7.41095 22.75 8.15519 22.75 9V9.25C22.75 9.33766 22.735 9.4218 22.7073 9.5C22.735 9.57819 22.75 9.66234 22.75 9.75V10C22.75 10.4142 22.4142 10.75 22 10.75C21.7616 10.75 21.536 10.7974 21.3306 10.8826C20.9481 11.0414 20.5092 10.8599 20.3504 10.4774C20.1917 10.0948 20.3731 9.65593 20.7557 9.49716C20.9161 9.43056 21.083 9.37648 21.2549 9.33608C21.2517 9.30783 21.25 9.27911 21.25 9.25V9C21.25 8.1976 21.2083 7.54901 21.1165 7.02206C21.0454 6.614 21.3185 6.22554 21.7266 6.15443ZM2.27341 6.15443C2.68148 6.22554 2.95462 6.614 2.88351 7.02206C2.79796 7.51294 2.75594 8.10938 2.75059 8.83737C2.92056 8.87763 3.08556 8.93127 3.24433 8.99716C3.62691 9.15593 3.80833 9.59478 3.64956 9.97735C3.49079 10.3599 3.05194 10.5414 2.66937 10.3826C2.46405 10.2974 2.23842 10.25 2 10.25C1.58579 10.25 1.25 9.91421 1.25 9.5V9.375C1.25 9.33241 1.25355 9.29065 1.26037 9.25C1.25355 9.20935 1.25 9.16759 1.25 9.125V9C1.25 8.15519 1.29312 7.41095 1.40578 6.76452C1.4769 6.35646 1.86535 6.08331 2.27341 6.15443ZM10 9.25C10.4142 9.25 10.75 9.58579 10.75 10L10.75 14C10.75 14.4142 10.4142 14.75 10 14.75C9.58579 14.75 9.25 14.4142 9.25 14V10C9.25 9.58579 9.58579 9.25 10 9.25ZM4.02265 10.3504C4.40522 10.1917 4.84407 10.3731 5.00284 10.7557C5.16231 11.1399 5.25 11.5607 5.25 12C5.25 12.4393 5.16231 12.8601 5.00284 13.2443C4.84407 13.6269 4.40522 13.8083 4.02265 13.6496C3.64007 13.4908 3.45864 13.0519 3.61741 12.6694C3.70262 12.464 3.75 12.2384 3.75 12C3.75 11.7616 3.70262 11.536 3.61741 11.3306C3.45864 10.9481 3.64007 10.5092 4.02265 10.3504ZM19.9774 10.8504C20.3599 11.0092 20.5414 11.4481 20.3826 11.8306C20.2974 12.036 20.25 12.2616 20.25 12.5C20.25 12.7384 20.2974 12.964 20.3826 13.1694C20.5414 13.5519 20.3599 13.9908 19.9774 14.1496C19.5948 14.3083 19.1559 14.1269 18.9972 13.7443C18.8377 13.3601 18.75 12.9393 18.75 12.5C18.75 12.0607 18.8377 11.6399 18.9972 11.2557C19.1559 10.8731 19.5948 10.6917 19.9774 10.8504ZM3.64956 14.0226C3.80833 14.4052 3.62691 14.8441 3.24433 15.0028C3.08556 15.0687 2.92056 15.1224 2.75059 15.1626C2.75594 15.8906 2.79796 16.4871 2.88351 16.9779C2.95462 17.386 2.68148 17.7745 2.27341 17.8456C1.86535 17.9167 1.4769 17.6435 1.40578 17.2355C1.29312 16.589 1.25 15.8448 1.25 15V14.875C1.25 14.8324 1.25355 14.7907 1.26037 14.75C1.25355 14.7093 1.25 14.6676 1.25 14.625V14.5C1.25 14.0858 1.58579 13.75 2 13.75C2.23842 13.75 2.46405 13.7026 2.66937 13.6174C3.05194 13.4586 3.49079 13.6401 3.64956 14.0226ZM20.3504 14.5226C20.5092 14.1401 20.9481 13.9586 21.3306 14.1174C21.536 14.2026 21.7616 14.25 22 14.25C22.4142 14.25 22.75 14.5858 22.75 15C22.75 15.8448 22.7069 16.589 22.5942 17.2355C22.5231 17.6435 22.1346 17.9167 21.7266 17.8456C21.3185 17.7745 21.0454 17.386 21.1165 16.9779C21.1817 16.6038 21.2216 16.1684 21.2393 15.6602C21.0729 15.6202 20.9113 15.5674 20.7557 15.5028C20.3731 15.3441 20.1917 14.9052 20.3504 14.5226ZM10 17.25C10.4142 17.25 10.75 17.5858 10.75 18V20C10.75 20.4142 10.4142 20.75 10 20.75C9.91234 20.75 9.8282 20.735 9.75 20.7073C9.67181 20.735 9.58766 20.75 9.5 20.75H7C6.15519 20.75 5.41095 20.7069 4.76452 20.5942C4.35646 20.5231 4.08331 20.1346 4.15443 19.7266C4.22554 19.3185 4.614 19.0454 5.02206 19.1165C5.54901 19.2083 6.1976 19.25 7 19.25H9.25V18C9.25 17.5858 9.58579 17.25 10 17.25ZM19.8456 19.7266C19.9167 20.1346 19.6435 20.5231 19.2355 20.5942C18.589 20.7069 17.8448 20.75 17 20.75H14.5C14.0858 20.75 13.75 20.4142 13.75 20C13.75 19.5858 14.0858 19.25 14.5 19.25H17C17.8024 19.25 18.451 19.2083 18.9779 19.1165C19.386 19.0454 19.7745 19.3185 19.8456 19.7266Z" fill="#595854"/>
</svg>
