<svg width="24" height="24" viewBox="0 0 24 24" fill="none" xmlns="http://www.w3.org/2000/svg">
<path fill-rule="evenodd" clip-rule="evenodd" d="M11.0751 4.2574C10.2846 4.89875 9.79259 5.93631 9.64723 7.62435C9.6117 8.03704 9.24834 8.34278 8.83565 8.30724C8.42297 8.2717 8.11723 7.90835 8.15276 7.49566C8.31741 5.5837 8.90535 4.08626 10.1299 3.09261C11.3338 2.11576 13.0163 1.74001 15.11 1.74001H15.24C17.5492 1.74001 19.3609 2.19779 20.5766 3.41343C21.7922 4.62906 22.25 6.44083 22.25 8.75001V15.27C22.25 17.5792 21.7922 19.391 20.5766 20.6066C19.3609 21.8222 17.5492 22.28 15.24 22.28H15.11C13.0315 22.28 11.3592 21.9093 10.1577 20.9482C8.93462 19.9697 8.33891 18.4941 8.16324 16.6096C8.12479 16.1972 8.42796 15.8317 8.84039 15.7932C9.25281 15.7548 9.61832 16.058 9.65676 16.4704C9.81109 18.1259 10.3054 19.1453 11.0948 19.7769C11.9058 20.4257 13.1685 20.78 15.11 20.78H15.24C17.4008 20.78 18.7191 20.3428 19.5159 19.5459C20.3128 18.7491 20.75 17.4308 20.75 15.27V8.75001C20.75 6.58918 20.3128 5.27095 19.5159 4.47409C18.7191 3.67722 17.4008 3.24001 15.24 3.24001H15.11C13.1537 3.24001 11.8862 3.59925 11.0751 4.2574ZM6.38033 8.11968C6.67322 8.41257 6.67322 8.88744 6.38033 9.18034L4.31066 11.25H15C15.4142 11.25 15.75 11.5858 15.75 12C15.75 12.4142 15.4142 12.75 15 12.75H4.31066L6.38033 14.8197C6.67322 15.1126 6.67322 15.5874 6.38033 15.8803C6.08744 16.1732 5.61256 16.1732 5.31967 15.8803L1.96967 12.5303C1.67678 12.2374 1.67678 11.7626 1.96967 11.4697L5.31967 8.11968C5.61256 7.82678 6.08744 7.82678 6.38033 8.11968Z" fill="#595854"/>
</svg>
