<svg width="24" height="24" viewBox="0 0 24 24" fill="none" xmlns="http://www.w3.org/2000/svg">
<path fill-rule="evenodd" clip-rule="evenodd" d="M6 2.76001C4.74764 2.76001 3.75 3.76074 3.75 4.97998V15.89C3.75 17.1093 4.74764 18.11 6 18.11H6.75C7.73266 18.11 8.69436 18.4946 9.39871 19.198C9.39925 19.1986 9.39979 19.1991 9.40033 19.1996L11.1069 20.8863C11.1069 20.8863 11.1069 20.8863 11.1069 20.8863C11.5947 21.3677 12.3949 21.3679 12.8828 20.8866M12.8828 20.8866L14.5897 19.1996C14.5902 19.1991 14.5908 19.1985 14.5914 19.1979C15.2948 18.4954 16.2461 18.11 17.24 18.11H18C19.2507 18.11 20.25 17.1009 20.25 15.89V4.97998C20.25 3.76074 19.2524 2.76001 18 2.76001H6M2.25 4.97998C2.25 2.91923 3.93236 1.26001 6 1.26001H18C20.0676 1.26001 21.75 2.91923 21.75 4.97998V15.89C21.75 17.9391 20.0693 19.61 18 19.61H17.24C16.6347 19.61 16.0667 19.8439 15.6503 20.2603L15.6472 20.2634L13.9372 21.9535C12.8651 23.0118 11.1252 23.0121 10.0531 21.9538L8.34278 20.2634L8.33966 20.2603C7.92416 19.8448 7.34659 19.61 6.75 19.61H6C3.93236 19.61 2.25 17.9508 2.25 15.89V4.97998ZM14.3273 7.33731C14.6484 6.83258 15.2606 6.61049 15.8222 6.76775C16.4051 6.93096 16.79 7.46315 16.79 8.05003V11.5699H17C17.4142 11.5699 17.75 11.9057 17.75 12.3199C17.75 12.7341 17.4142 13.0699 17 13.0699H16.79V13.76C16.79 14.1742 16.4542 14.51 16.04 14.51C15.6258 14.51 15.29 14.1742 15.29 13.76V13.0699H13.33C12.842 13.0699 12.3798 12.8156 12.1309 12.3858C11.8864 11.9633 11.8864 11.4267 12.1309 11.0042L12.133 11.0007C12.8133 9.84019 13.5974 8.51313 14.3228 7.34445L14.3273 7.33731ZM15.29 11.5699V8.63412C14.7039 9.59171 14.0926 10.6249 13.5381 11.5699H15.29ZM8.69 8.21997C8.17425 8.21997 7.75 8.64421 7.75 9.16003C7.75 9.57425 7.41421 9.91003 7 9.91003C6.58579 9.91003 6.25 9.57425 6.25 9.16003C6.25 7.81586 7.34575 6.71997 8.69 6.71997C10.0343 6.71997 11.13 7.81586 11.13 9.16003C11.13 10.5361 10.1068 11.2591 9.39566 11.7471C9.36158 11.7705 9.32799 11.7936 9.29488 11.8162C8.64348 12.2626 8.17975 12.5804 7.93869 13.02H10.38C10.7942 13.02 11.13 13.3558 11.13 13.77C11.13 14.1842 10.7942 14.52 10.38 14.52H7.7C6.88237 14.52 6.10508 13.7283 6.40658 12.7987L6.40768 12.7952C6.76507 11.711 7.70133 11.0805 8.36399 10.6343C8.42772 10.5914 8.48893 10.5502 8.54684 10.5104C9.31823 9.98098 9.63 9.664 9.63 9.16003C9.63 8.64421 9.20575 8.21997 8.69 8.21997Z" fill="#595854"/>
</svg>
