<svg width="24" height="24" viewBox="0 0 24 24" fill="none" xmlns="http://www.w3.org/2000/svg">
<path fill-rule="evenodd" clip-rule="evenodd" d="M12 2.75C6.89137 2.75 2.75 6.89137 2.75 12C2.75 17.1086 6.89137 21.25 12 21.25C17.1086 21.25 21.25 17.1086 21.25 12C21.25 6.89137 17.1086 2.75 12 2.75ZM1.25 12C1.25 6.06294 6.06294 1.25 12 1.25C17.9371 1.25 22.75 6.06294 22.75 12C22.75 17.9371 17.9371 22.75 12 22.75C6.06294 22.75 1.25 17.9371 1.25 12ZM12 5.15C12.2597 5.15 12.501 5.28439 12.6377 5.50523L15.2377 9.70523C15.3809 9.93656 15.3876 10.2273 15.2552 10.465C15.1228 10.7027 14.8721 10.85 14.6 10.85H9.4C9.12793 10.85 8.8772 10.7027 8.7448 10.465C8.6124 10.2273 8.6191 9.93656 8.7623 9.70523L11.3623 5.50523C11.499 5.28439 11.7403 5.15 12 5.15ZM10.7464 9.35H13.2536L12 7.3249L10.7464 9.35ZM8.60652 11.15C8.86857 11.1523 9.11043 11.2912 9.24447 11.5164L11.7445 15.7164C11.8824 15.9482 11.8853 16.2362 11.752 16.4707C11.6187 16.7052 11.3697 16.85 11.1 16.85H6C5.72793 16.85 5.4772 16.7027 5.3448 16.465C5.2124 16.2273 5.2191 15.9366 5.3623 15.7052L7.9623 11.5052C8.10024 11.2824 8.34447 11.1477 8.60652 11.15ZM15.3935 11.15C15.6555 11.1477 15.8998 11.2824 16.0377 11.5052L18.6377 15.7052C18.7809 15.9366 18.7876 16.2273 18.6552 16.465C18.5228 16.7027 18.2721 16.85 18 16.85H12.9C12.6303 16.85 12.3813 16.7052 12.248 16.4707C12.1147 16.2362 12.1176 15.9482 12.2555 15.7164L14.7555 11.5164C14.8896 11.2912 15.1314 11.1523 15.3935 11.15ZM7.34636 15.35H9.78076L8.58743 13.3452L7.34636 15.35ZM15.4126 13.3452L14.2192 15.35H16.6536L15.4126 13.3452Z" fill="#595854"/>
</svg>
