<svg width="24" height="24" viewBox="0 0 24 24" fill="none" xmlns="http://www.w3.org/2000/svg">
<path fill-rule="evenodd" clip-rule="evenodd" d="M7.54719 4.55473C6.72991 5.41191 6.25 6.49978 6.25 7.65C6.25 8.41948 6.4606 9.1245 6.82996 9.72891L6.83086 9.73038C7.73683 11.2206 9.66309 12.25 12 12.25C14.3369 12.25 16.2632 11.2206 17.1691 9.73038L17.17 9.72891C17.5394 9.1245 17.75 8.41948 17.75 7.65C17.75 6.33635 17.1375 5.12348 16.107 4.21517C15.0675 3.31774 13.624 2.75 12 2.75C10.3748 2.75 8.93174 3.3185 7.89319 4.22503C7.77212 4.33058 7.65645 4.4408 7.54719 4.55473ZM12 1.25C13.9747 1.25 15.7702 1.94132 17.0905 3.0826L17.0956 3.08704C18.4036 4.23848 19.25 5.84473 19.25 7.65V16.35C19.25 19.9794 15.9021 22.75 12 22.75C8.09788 22.75 4.75 19.9794 4.75 16.35V7.65C4.75 5.6996 5.71682 3.99721 7.21691 2.83953C8.50303 1.84017 10.1756 1.25 12 1.25ZM6.25 11.4382V12.65C6.25 15.2125 8.66463 17.25 12 17.25C15.3354 17.25 17.75 15.2125 17.75 12.65V11.4382C16.4003 12.9031 14.2944 13.75 12 13.75C9.70562 13.75 7.59969 12.9031 6.25 11.4382ZM17.7489 16.4474C16.396 17.9018 14.2749 18.75 12 18.75C9.72509 18.75 7.60398 17.9018 6.25115 16.4474C6.3117 19.0173 8.76294 21.25 12 21.25C15.2371 21.25 17.6883 19.0173 17.7489 16.4474Z" fill="#595854"/>
</svg>
