<svg width="24" height="24" viewBox="0 0 24 24" fill="none" xmlns="http://www.w3.org/2000/svg">
<path fill-rule="evenodd" clip-rule="evenodd" d="M19.5705 4.42492C19.0287 3.88227 17.9165 3.60505 16.1272 4.2015L7.63791 7.03125C7.63775 7.0313 7.63807 7.0312 7.63791 7.03125C6.25856 7.49269 5.28219 8.00865 4.66589 8.51796C4.04692 9.02948 3.86749 9.46477 3.86749 9.78374C3.86749 10.1025 4.04668 10.537 4.66528 11.0471C5.28141 11.5552 6.25725 12.0693 7.63679 12.5283L9.53982 13.1627C9.55221 13.1482 9.56525 13.1341 9.57892 13.1204L13.1589 9.5304C13.4514 9.2371 13.9263 9.23643 14.2196 9.52892C14.5129 9.8214 14.5135 10.2963 14.2211 10.5896L10.718 14.1024L11.4715 16.3628C11.9305 17.7421 12.4452 18.7182 12.9539 19.3343C13.4647 19.9529 13.9002 20.1325 14.22 20.1325C14.5398 20.1325 14.9753 19.9529 15.486 19.3343C15.9948 18.7182 16.5094 17.7425 16.9684 16.3632L19.7979 7.8745C19.7978 7.87476 19.798 7.87424 19.7979 7.8745C20.3896 6.08496 20.1132 4.96845 19.5705 4.42492ZM9.32706 14.6729L7.1632 13.9516C7.16307 13.9516 7.16332 13.9517 7.1632 13.9516C5.68791 13.4607 4.52226 12.8734 3.71095 12.2044C2.90206 11.5373 2.36749 10.7188 2.36749 9.78374C2.36749 8.84895 2.90182 8.02987 3.71035 7.3617C4.52148 6.69138 5.68667 6.10225 7.16208 5.60872L15.6528 2.77847C17.6735 2.10492 19.5013 2.2327 20.632 3.36505C21.7617 4.49644 21.8901 6.32546 21.2221 8.34547L21.2215 8.34716L18.3916 16.8368C18.3916 16.8369 18.3917 16.8367 18.3916 16.8368C17.9006 18.3123 17.3127 19.4781 16.6427 20.2894C15.9747 21.0984 15.1552 21.6325 14.22 21.6325C13.2848 21.6325 12.4653 21.0984 11.7973 20.2894C11.1273 19.4781 10.5395 18.3127 10.0485 16.8372L9.32706 14.6729Z" fill="#595854"/>
</svg>
