<svg width="24" height="24" viewBox="0 0 24 24" fill="none" xmlns="http://www.w3.org/2000/svg">
<path fill-rule="evenodd" clip-rule="evenodd" d="M8.79372 4.05038C8.75124 4.37577 8.75003 4.74554 8.75003 5.2V5.25H15.25V5.2C15.25 4.74554 15.2488 4.37577 15.2063 4.05038C15.1647 3.73174 15.0899 3.51724 14.9831 3.36267C14.7998 3.09751 14.3295 2.75 12.8 2.75H11.2C9.67052 2.75 9.20028 3.09751 9.01701 3.36267C8.91018 3.51724 8.83532 3.73174 8.79372 4.05038ZM16.75 5.25L16.75 5.17402C16.7501 4.75049 16.7501 4.28789 16.6937 3.85619C16.6353 3.40889 16.5102 2.93401 16.217 2.50983C15.6003 1.61749 14.4705 1.25 12.8 1.25H11.2C9.52954 1.25 8.39979 1.61749 7.78305 2.50983C7.48988 2.93401 7.36474 3.40889 7.30634 3.85619C7.24998 4.28789 7.25001 4.75048 7.25003 5.17401L7.25003 5.25H7.00003C4.777 5.25 3.25898 5.76457 2.37357 6.81723C1.49675 7.85967 1.41335 9.22917 1.55388 10.5061L2.30331 18.5L2.3043 18.5099C2.41445 19.538 2.67248 20.6651 3.59042 21.5037C4.50156 22.3361 5.91318 22.75 8.00003 22.75H16C18.0869 22.75 19.4985 22.3361 20.4096 21.5037C21.3276 20.6651 21.5856 19.538 21.6958 18.5099L22.3867 11.141C22.3957 11.0939 22.4002 11.0459 22.4001 10.9979L22.4462 10.5061C22.5867 9.22916 22.5033 7.85966 21.6265 6.81723C20.7411 5.76457 19.2231 5.25 17 5.25H16.75ZM7.00003 6.75C4.95307 6.75 3.98608 7.23043 3.52149 7.78277C3.04977 8.3436 2.91699 9.18629 3.04548 10.3475L3.04686 10.36L3.07613 10.6733C4.97412 11.9655 7.08468 12.8029 9.25003 13.1678V13C9.25003 12.9891 9.25003 12.9781 9.25003 12.9671C9.24998 12.746 9.24993 12.5219 9.27024 12.3391C9.29095 12.1527 9.34633 11.843 9.5947 11.5947C9.84307 11.3463 10.1527 11.2909 10.3391 11.2702C10.5219 11.2499 10.746 11.2499 10.9672 11.25C10.9781 11.25 10.9891 11.25 11 11.25H13C13.011 11.25 13.0219 11.25 13.0329 11.25C13.254 11.2499 13.4781 11.2499 13.661 11.2702C13.8474 11.2909 14.157 11.3463 14.4054 11.5947C14.6537 11.843 14.7091 12.1527 14.7298 12.3391C14.7501 12.5219 14.7501 12.746 14.75 12.9671C14.75 12.9781 14.75 12.9891 14.75 13V13.1467C16.926 12.7538 19.0388 11.9054 20.9317 10.5905L20.9545 10.3475C21.083 9.18628 20.9503 8.3436 20.4786 7.78277C20.014 7.23043 19.047 6.75 17 6.75H7.00003ZM20.7539 12.4868C18.8704 13.6042 16.8245 14.3294 14.7332 14.6716C14.7277 14.7446 14.7204 14.8177 14.7106 14.8898C14.6697 15.1923 14.58 15.5357 14.3606 15.849C13.8926 16.5172 13.0664 16.75 12 16.75C10.9395 16.75 10.1154 16.5202 9.64564 15.8574C9.42478 15.5458 9.33337 15.2037 9.29125 14.901C9.28154 14.8312 9.27412 14.7606 9.26844 14.6899C7.17957 14.3726 5.13582 13.6565 3.25278 12.5575L3.79628 18.3549C3.89633 19.2843 4.10345 19.9407 4.60215 20.3963C5.1085 20.8589 6.06688 21.25 8.00003 21.25H16C17.9332 21.25 18.8916 20.8589 19.3979 20.3963C19.8966 19.9407 20.1037 19.2843 20.2038 18.3549L20.7539 12.4868ZM10.7508 12.7508C10.7501 12.8222 10.75 12.9036 10.75 13V14.03C10.75 14.3115 10.7525 14.5186 10.7769 14.6943C10.8004 14.8632 10.8378 14.9454 10.8694 14.9901C10.9047 15.0398 11.0806 15.25 12 15.25C12.9236 15.25 13.0974 15.0378 13.132 14.9885C13.1638 14.9431 13.201 14.8596 13.2241 14.6887C13.2482 14.511 13.25 14.3029 13.25 14.02V13C13.25 12.9036 13.25 12.8222 13.2492 12.7508C13.1778 12.75 13.0965 12.75 13 12.75H11C10.9036 12.75 10.8222 12.75 10.7508 12.7508Z" fill="#595854"/>
</svg>
