<svg width="24" height="24" viewBox="0 0 24 24" fill="none" xmlns="http://www.w3.org/2000/svg">
<path fill-rule="evenodd" clip-rule="evenodd" d="M6.45 3.6C6.45 2.28579 7.48579 1.25 8.8 1.25C10.1142 1.25 11.15 2.28579 11.15 3.6V5.2C11.15 5.61421 10.8142 5.95 10.4 5.95H8.8C7.48579 5.95 6.45 4.91421 6.45 3.6ZM8.8 2.75C8.31421 2.75 7.95 3.11421 7.95 3.6C7.95 4.08579 8.31421 4.45 8.8 4.45H9.65V3.6C9.65 3.11421 9.28579 2.75 8.8 2.75ZM11.85 4.2C11.85 2.66031 13.1117 1.55 14.5 1.55C15.9873 1.55 17.15 2.65936 17.15 4.1V8.8C17.15 10.3397 15.8883 11.45 14.5 11.45C12.9603 11.45 11.85 10.1883 11.85 8.8V4.2ZM14.5 3.05C13.8883 3.05 13.35 3.53969 13.35 4.2V8.8C13.35 9.41173 13.8397 9.95 14.5 9.95C15.1117 9.95 15.65 9.46031 15.65 8.8V4.1C15.65 3.54064 15.2127 3.05 14.5 3.05ZM3.8321 6.55308C3.85467 6.55103 3.87733 6.55 3.9 6.55H8.5C10.0397 6.55 11.15 7.81173 11.15 9.2C11.15 10.7397 9.88827 11.85 8.5 11.85H3.9C2.36031 11.85 1.25 10.5883 1.25 9.2C1.25 7.75225 2.40842 6.68251 3.8321 6.55308ZM3.93691 8.05C3.17984 8.13169 2.75 8.65514 2.75 9.2C2.75 9.81173 3.23969 10.35 3.9 10.35H8.5C9.11173 10.35 9.65 9.86031 9.65 9.2C9.65 8.58827 9.16031 8.05 8.5 8.05H3.93691ZM17.85 9C17.85 7.68579 18.8858 6.65 20.2 6.65C21.5142 6.65 22.55 7.68579 22.55 9C22.55 10.3142 21.5142 11.35 20.2 11.35H18.6C18.1858 11.35 17.85 11.0142 17.85 10.6V9ZM20.2 8.15C19.7142 8.15 19.35 8.51421 19.35 9V9.85H20.2C20.6858 9.85 21.05 9.48579 21.05 9C21.05 8.51421 20.6858 8.15 20.2 8.15ZM12.85 14.8C12.85 13.2603 14.1117 12.15 15.5 12.15H20.1C21.6397 12.15 22.75 13.4117 22.75 14.8C22.75 16.2142 21.5142 17.45 20.1 17.45H15.5C13.9603 17.45 12.85 16.1883 12.85 14.8ZM15.5 13.65C14.8883 13.65 14.35 14.1397 14.35 14.8C14.35 15.4117 14.8397 15.95 15.5 15.95H20.1C20.6858 15.95 21.25 15.3858 21.25 14.8C21.25 14.1883 20.7603 13.65 20.1 13.65H15.5ZM1.45 15C1.45 13.6858 2.48579 12.65 3.8 12.65H5.4C5.81421 12.65 6.15 12.9858 6.15 13.4V15C6.15 16.3142 5.11421 17.35 3.8 17.35C2.48579 17.35 1.45 16.3142 1.45 15ZM3.8 14.15C3.31421 14.15 2.95 14.5142 2.95 15C2.95 15.4858 3.31421 15.85 3.8 15.85C4.28579 15.85 4.65 15.4858 4.65 15V14.15H3.8ZM6.75 15.3C6.75 13.7603 8.01173 12.65 9.4 12.65C10.9397 12.65 12.05 13.9117 12.05 15.3V19.9C12.05 21.4397 10.7883 22.55 9.4 22.55C7.92647 22.55 6.8826 21.2634 6.75372 19.9746C6.75124 19.9498 6.75 19.9249 6.75 19.9V15.3ZM9.4 14.15C8.78827 14.15 8.25 14.6397 8.25 15.3V19.8589C8.33492 20.5527 8.88183 21.05 9.4 21.05C10.0117 21.05 10.55 20.5603 10.55 19.9V15.3C10.55 14.6883 10.0603 14.15 9.4 14.15ZM12.85 18.8C12.85 18.3858 13.1858 18.05 13.6 18.05H15.2C16.5142 18.05 17.55 19.0858 17.55 20.4C17.55 21.7142 16.5142 22.75 15.2 22.75C13.8858 22.75 12.85 21.7142 12.85 20.4V18.8ZM14.35 19.55V20.4C14.35 20.8858 14.7142 21.25 15.2 21.25C15.6858 21.25 16.05 20.8858 16.05 20.4C16.05 19.9142 15.6858 19.55 15.2 19.55H14.35Z" fill="#595854"/>
</svg>
