<svg width="24" height="24" viewBox="0 0 24 24" fill="none" xmlns="http://www.w3.org/2000/svg">
<path fill-rule="evenodd" clip-rule="evenodd" d="M1.30711 3.71299C1.4232 3.43273 1.69668 3.25 2.00002 3.25H7.00002C7.19893 3.25 7.3897 3.32902 7.53035 3.46967L13.5304 9.46967C13.7449 9.68417 13.809 10.0068 13.6929 10.287C13.5768 10.5673 13.3034 10.75 13 10.75H8.50002C7.01424 10.75 5.75002 12.0142 5.75002 13.5C5.75002 14.9858 7.01424 16.25 8.50002 16.25H10C10.1989 16.25 10.3897 16.329 10.5304 16.4697L13.5304 19.4697C13.7449 19.6842 13.809 20.0068 13.6929 20.287C13.5768 20.5673 13.3034 20.75 13 20.75H8.50002C4.48581 20.75 1.25002 17.5142 1.25002 13.5C1.25002 11.0174 2.48973 8.79919 4.41721 7.47785L1.46969 4.53033C1.25519 4.31583 1.19103 3.99324 1.30711 3.71299ZM5.69059 8.45C3.91986 9.44914 2.75002 11.3484 2.75002 13.5C2.75002 16.6858 5.31424 19.25 8.50002 19.25H11.1894L9.68936 17.75H8.50002C6.18581 17.75 4.25002 15.8142 4.25002 13.5C4.25002 11.1858 6.18581 9.25 8.50002 9.25H11.1894L6.68936 4.75H3.81068L6.23035 7.16967C6.44485 7.38417 6.50902 7.70676 6.39293 7.98701C6.27685 8.26727 6.00337 8.45 5.70002 8.45H5.69059ZM10.3071 3.71299C10.4232 3.43273 10.6967 3.25 11 3.25H15.5C19.5142 3.25 22.75 6.48579 22.75 10.5C22.75 12.9826 21.5103 15.2008 19.5828 16.5221L22.5304 19.4697C22.7449 19.6842 22.809 20.0068 22.6929 20.287C22.5768 20.5673 22.3034 20.75 22 20.75H17C16.8011 20.75 16.6103 20.671 16.4697 20.5303L10.4697 14.5303C10.2552 14.3158 10.191 13.9932 10.3071 13.713C10.4232 13.4327 10.6967 13.25 11 13.25H15.5C16.9858 13.25 18.25 11.9858 18.25 10.5C18.25 9.01421 16.9858 7.75 15.5 7.75H14C13.8011 7.75 13.6103 7.67098 13.4697 7.53033L10.4697 4.53033C10.2552 4.31583 10.191 3.99324 10.3071 3.71299ZM18.3095 15.55C20.0802 14.5509 21.25 12.6516 21.25 10.5C21.25 7.31421 18.6858 4.75 15.5 4.75H12.8107L14.3107 6.25H15.5C17.8142 6.25 19.75 8.18579 19.75 10.5C19.75 12.8142 17.8142 14.75 15.5 14.75H12.8107L17.3107 19.25H20.1894L17.7697 16.8303C17.5552 16.6158 17.491 16.2932 17.6071 16.013C17.7232 15.7327 17.9967 15.55 18.3 15.55H18.3095Z" fill="#595854"/>
</svg>
