<svg width="24" height="24" viewBox="0 0 24 24" fill="none" xmlns="http://www.w3.org/2000/svg">
<path fill-rule="evenodd" clip-rule="evenodd" d="M1 11.75C1 5.81579 5.81579 1 11.75 1C17.6842 1 22.5 5.81579 22.5 11.75C22.5 12.1642 22.1642 12.5 21.75 12.5C21.3358 12.5 21 12.1642 21 11.75C21 10.974 20.9043 10.2201 20.724 9.49972C20.6537 9.49725 20.5826 9.48477 20.5125 9.46137C19.2862 9.0519 18.0381 8.73075 16.7777 8.49791C16.8991 9.5784 16.96 10.6642 16.96 11.75C16.96 12.1642 16.6242 12.5 16.21 12.5C15.7958 12.5 15.46 12.1642 15.46 11.75C15.46 10.5838 15.3859 9.41743 15.2383 8.25814C12.9213 7.96379 10.5756 7.96392 8.25857 8.25853C7.96395 10.5756 7.96382 12.9213 8.25817 15.2384C9.41746 15.3859 10.5838 15.46 11.75 15.46C12.1642 15.46 12.5 15.7958 12.5 16.21C12.5 16.6242 12.1642 16.96 11.75 16.96C10.6642 16.96 9.57842 16.8991 8.49794 16.7778C8.73079 18.0382 9.05194 19.2862 9.4614 20.5125C9.48448 20.5816 9.49709 20.6528 9.49956 20.7239C10.22 20.9042 10.9739 21 11.75 21C12.1642 21 12.5 21.3358 12.5 21.75C12.5 22.1642 12.1642 22.5 11.75 22.5C5.81579 22.5 1 17.6842 1 11.75ZM7.72834 20.0003C7.68308 20.0016 7.63882 20.0069 7.59591 20.0159C5.82363 19.1228 4.37723 17.6764 3.48415 15.9041C3.4932 15.8607 3.49851 15.816 3.49973 15.7703C4.63202 16.1029 5.7798 16.3662 6.9366 16.5597C7.13013 17.7176 7.39404 18.8667 7.72834 20.0003ZM6.71885 14.9984C6.47694 12.8386 6.47706 10.6582 6.71921 8.49847C5.45985 8.73127 4.21284 9.05223 2.98754 9.46137C2.91744 9.48477 2.84632 9.49725 2.77603 9.49972C2.59574 10.2201 2.5 10.974 2.5 11.75C2.5 12.5261 2.59575 13.28 2.77608 14.0005C2.84682 14.0029 2.91765 14.0154 2.98644 14.0382C4.21211 14.4454 5.45937 14.7657 6.71885 14.9984ZM3.40526 7.75633C4.56844 7.40904 5.74807 7.13596 6.93714 6.9371C7.13062 5.78022 7.39435 4.63226 7.72834 3.49969C7.68308 3.49841 7.63882 3.49311 7.59591 3.48415C5.77044 4.40403 4.29072 5.91093 3.40526 7.75633ZM9.49956 2.77607C10.22 2.59575 10.9739 2.5 11.75 2.5C12.526 2.5 13.2798 2.59573 14.0003 2.77603C14.0027 2.84594 14.0151 2.91669 14.0382 2.98644C14.4454 4.2121 14.7657 5.45935 14.9983 6.71882C12.8386 6.47691 10.6582 6.47703 8.49851 6.71917C8.73131 5.45982 9.05227 4.21283 9.4614 2.98754C9.48448 2.91841 9.49709 2.84719 9.49956 2.77607ZM16.5597 6.93656C17.7498 7.13547 18.9305 7.40873 20.0947 7.75633C19.1832 5.85666 17.642 4.3157 15.7422 3.40453C16.0881 4.56765 16.3608 5.74734 16.5597 6.93656ZM18.0464 12.5553C18.3583 12.2827 18.8321 12.3145 19.1047 12.6264L20.3547 14.0564C20.4933 14.215 20.5589 14.4246 20.5353 14.634C20.5117 14.8433 20.4011 15.0331 20.2306 15.1569L18.7706 16.2169C18.4354 16.4603 17.9664 16.3858 17.7231 16.0506C17.4862 15.7244 17.5504 15.2714 17.863 15.0231C16.2724 15.0948 15.01 16.4086 15.01 18.01C15.01 19.6645 16.3529 21 18 21C19.6458 21 20.99 19.6558 20.99 18.01C20.99 17.3902 20.8051 16.8167 20.4892 16.3509C20.2568 16.008 20.3463 15.5417 20.6891 15.3092C21.032 15.0768 21.4983 15.1663 21.7308 15.5091C22.2149 16.2232 22.49 17.0898 22.49 18.01C22.49 20.4842 20.4742 22.5 18 22.5C15.5271 22.5 13.51 20.4955 13.51 18.01C13.51 15.5683 15.4642 13.571 17.9061 13.521C17.7113 13.2138 17.7641 12.8021 18.0464 12.5553Z" fill="#595854"/>
</svg>
