<svg width="24" height="24" viewBox="0 0 24 24" fill="none" xmlns="http://www.w3.org/2000/svg">
<path fill-rule="evenodd" clip-rule="evenodd" d="M11.97 2.75C6.86134 2.75 2.71997 6.89137 2.71997 12C2.71997 17.1086 6.86134 21.25 11.97 21.25C17.0786 21.25 21.22 17.1086 21.22 12C21.22 6.89137 17.0786 2.75 11.97 2.75ZM1.21997 12C1.21997 6.06294 6.03291 1.25 11.97 1.25C17.907 1.25 22.72 6.06294 22.72 12C22.72 17.9371 17.907 22.75 11.97 22.75C6.03291 22.75 1.21997 17.9371 1.21997 12ZM11.8894 6.30173C12.7434 5.34096 14.34 5.93412 14.34 7.23V10.53H15.33C16.5308 10.53 17.1824 11.9477 16.383 12.8555C16.3829 12.8556 16.3828 12.8557 16.3827 12.8558L12.123 17.6955L12.1205 17.6983C11.2665 18.659 9.66997 18.0659 9.66997 16.77V13.47H8.67997C7.47901 13.47 6.82743 12.0521 7.6272 11.1442L11.887 6.30448L11.8894 6.30173ZM12.84 7.49207L8.89865 11.97H10.42C10.8342 11.97 11.17 12.3058 11.17 12.72V16.5079L15.1113 12.03H13.59C13.1758 12.03 12.84 11.6942 12.84 11.28V7.49207ZM15.2572 11.8642L15.257 11.8645L15.2572 11.8642Z" fill="#595854"/>
</svg>
