<svg width="24" height="24" viewBox="0 0 24 24" fill="none" xmlns="http://www.w3.org/2000/svg">
<path fill-rule="evenodd" clip-rule="evenodd" d="M3.09467 3.09467C4.42914 1.7602 6.42603 1.25 9 1.25H15C17.574 1.25 19.5709 1.7602 20.9053 3.09467C22.1295 4.3188 22.66 6.10033 22.7394 8.37339C22.7464 8.41455 22.75 8.45685 22.75 8.5C22.75 8.52828 22.7484 8.55618 22.7454 8.58365C22.7485 8.7207 22.75 8.85949 22.75 9V15C22.75 15.1405 22.7485 15.2793 22.7454 15.4164C22.7484 15.4438 22.75 15.4717 22.75 15.5C22.75 15.5432 22.7464 15.5855 22.7394 15.6266C22.66 17.8997 22.1295 19.6812 20.9053 20.9053C19.5709 22.2398 17.574 22.75 15 22.75H9C6.42603 22.75 4.42914 22.2398 3.09467 20.9053C1.7602 19.5709 1.25 17.574 1.25 15V9C1.25 6.42603 1.7602 4.42914 3.09467 3.09467ZM10.75 21.25H15C17.426 21.25 18.9291 20.7602 19.8447 19.8447C20.5914 19.098 21.0549 17.9604 21.2004 16.25H10.75V21.25ZM9.25 21.25H9C6.57397 21.25 5.07086 20.7602 4.15533 19.8447C3.2398 18.9291 2.75 17.426 2.75 15V9C2.75 6.57397 3.2398 5.07086 4.15533 4.15533C5.07086 3.2398 6.57397 2.75 9 2.75H9.25V21.25ZM10.75 14.75H21.25V9.25H10.75V14.75ZM10.75 7.75H21.2004C21.0549 6.03962 20.5914 4.90204 19.8447 4.15533C18.9291 3.2398 17.426 2.75 15 2.75H10.75V7.75Z" fill="#595854"/>
</svg>
