<svg width="24" height="24" viewBox="0 0 24 24" fill="none" xmlns="http://www.w3.org/2000/svg">
<path fill-rule="evenodd" clip-rule="evenodd" d="M2.30736 2.68106C3.11215 1.74912 4.34646 1.25 6 1.25H18C18.0023 1.25 18.0046 1.25001 18.0069 1.25003C18.0112 1.25001 18.0156 1.25 18.02 1.25H18.0269C19.3161 1.26183 20.5033 1.78264 21.3603 2.63967L21.364 2.64333C22.214 3.50517 22.75 4.69125 22.75 6V8.42C22.75 9.37056 22.446 10.2197 21.8328 10.8328C21.2197 11.446 20.3706 11.75 19.42 11.75H16.75V21C16.75 22.4418 15.1035 23.2564 13.9529 22.4022L13.9506 22.4004L12.2327 21.1145C12.1465 21.0482 12.0086 21.0521 11.9203 21.1403L10.2403 22.8203C9.55744 23.5032 8.44256 23.5032 7.75967 22.8203L7.75808 22.8187L6.09967 21.1503C6.0995 21.1502 6.09984 21.1505 6.09967 21.1503C6.00043 21.0516 5.85766 21.0468 5.76 21.12L4.05289 22.3978C4.05221 22.3983 4.05152 22.3989 4.05084 22.3994C2.89266 23.2743 1.25 22.4434 1.25 21V6C1.25 4.79713 1.52033 3.59244 2.30736 2.68106ZM16.75 10.25H19.42C20.0494 10.25 20.4903 10.054 20.7722 9.77217C21.054 9.4903 21.25 9.04943 21.25 8.42V6C21.25 5.10966 20.8867 4.29648 20.2978 3.69849C19.7158 3.11741 18.9052 2.75912 18.0168 2.75C17.3176 2.75174 16.75 3.3201 16.75 4.01V10.25ZM15.25 4C15.25 3.55044 15.3589 3.12542 15.5517 2.75H6C4.65354 2.75 3.88785 3.14588 3.44264 3.66144C2.97967 4.19756 2.75 4.99287 2.75 6V21C2.75 21.2157 2.98539 21.3247 3.14711 21.2022L3.15056 21.1996L4.86 19.92C5.56217 19.3934 6.53959 19.4689 7.16033 20.0897L7.16192 20.0913L8.82033 21.7597C8.82017 21.7595 8.82049 21.7598 8.82033 21.7597C8.9175 21.8563 9.08273 21.8566 9.17967 21.7597L10.8597 20.0797C11.4701 19.4693 12.4492 19.3922 13.1428 19.9221L14.8471 21.1978C14.8474 21.198 14.8477 21.1983 14.8479 21.1985C15.0173 21.3232 15.25 21.1979 15.25 21V4ZM5.5 10C5.5 9.58579 5.83579 9.25 6.25 9.25H11.75C12.1642 9.25 12.5 9.58579 12.5 10C12.5 10.4142 12.1642 10.75 11.75 10.75H6.25C5.83579 10.75 5.5 10.4142 5.5 10Z" fill="#595854"/>
</svg>
