<svg width="24" height="24" viewBox="0 0 24 24" fill="none" xmlns="http://www.w3.org/2000/svg">
<path fill-rule="evenodd" clip-rule="evenodd" d="M6.14741 11.8917C6.64994 11.9602 7.13897 12.111 7.59536 12.3392C7.96584 12.5244 8.11601 12.9749 7.93077 13.3454C7.74553 13.7159 7.29502 13.8661 6.92454 13.6808C6.50631 13.4717 6.04865 13.3589 5.58314 13.35H5.56836C1.86104 13.6444 1.8499 19.0343 5.56841 19.33H16.6355C17.7964 19.3386 18.9128 18.9087 19.7624 18.1278L19.7741 18.1173C20.9841 17.0511 21.3945 15.5325 21.1596 14.0797C21.0935 13.6708 21.3713 13.2857 21.7802 13.2196C22.1891 13.1535 22.5742 13.4314 22.6403 13.8403C22.9451 15.7252 22.4171 17.7839 20.7717 19.2375C19.6427 20.2725 18.1627 20.8406 16.6273 20.83H5.53995C5.52178 20.83 5.50361 20.8293 5.48549 20.828C0.203084 20.4434 -0.112659 13.1263 4.61768 11.9852C3.86273 9.03178 4.80498 6.60108 6.55743 5.04753C8.43505 3.38302 11.205 2.76253 13.6096 3.53603C14.0039 3.66288 14.2208 4.08536 14.0939 4.47967C13.9671 4.87399 13.5446 5.09082 13.1503 4.96397C11.2649 4.35747 9.04485 4.84699 7.55247 6.16998C6.18375 7.38335 5.39182 9.33151 6.14741 11.8917ZM16.595 6.49658C16.574 6.52395 16.551 6.55 16.5261 6.57449C16.0243 7.06845 15.7199 7.74789 15.7199 8.5C15.7199 10.0158 16.9542 11.25 18.4699 11.25C19.1139 11.25 19.7175 11.0217 20.1766 10.6482L20.1849 10.6415C20.8203 10.1395 21.2199 9.36381 21.2199 8.5C21.2199 6.98422 19.9857 5.75 18.4699 5.75C17.746 5.75 17.0824 6.03184 16.595 6.49658ZM15.4655 5.50387C16.2332 4.72398 17.3044 4.25 18.4699 4.25C20.8142 4.25 22.7199 6.15579 22.7199 8.5C22.7199 9.83431 22.1013 11.0371 21.1191 11.8152C20.3988 12.3996 19.4641 12.75 18.4699 12.75C16.1257 12.75 14.2199 10.8442 14.2199 8.5C14.2199 7.36961 14.6656 6.33977 15.3998 5.58021C15.4198 5.55346 15.4418 5.52795 15.4655 5.50387Z" fill="#595854"/>
</svg>
