<svg width="24" height="24" viewBox="0 0 24 24" fill="none" xmlns="http://www.w3.org/2000/svg">
<path fill-rule="evenodd" clip-rule="evenodd" d="M12 2.75C6.89137 2.75 2.75 6.89137 2.75 12C2.75 17.1086 6.89137 21.25 12 21.25C17.1086 21.25 21.25 17.1086 21.25 12C21.25 6.89137 17.1086 2.75 12 2.75ZM1.25 12C1.25 6.06294 6.06294 1.25 12 1.25C17.9371 1.25 22.75 6.06294 22.75 12C22.75 17.9371 17.9371 22.75 12 22.75C6.06294 22.75 1.25 17.9371 1.25 12ZM12.1187 6.00223C12.6994 5.72434 13.2669 6.01777 13.6101 6.30384L13.6107 6.3043L15.6682 8.02221C15.6686 8.0226 15.6691 8.02299 15.6696 8.02337C16.3051 8.55065 16.3364 9.48524 15.7138 10.0456L13.5769 12.005L15.7139 13.9645C16.3364 14.5248 16.3051 15.4594 15.6696 15.9866C15.6691 15.987 15.6686 15.9874 15.6682 15.9878L13.6107 17.7057L13.6091 17.7071C13.2658 17.9921 12.7037 18.2761 12.1283 18.0068C11.5515 17.7368 11.41 17.1211 11.41 16.67V13.9918L9.09687 16.1128C8.79157 16.3927 8.31714 16.3722 8.0372 16.0669C7.75726 15.7616 7.77783 15.2871 8.08313 15.0072L11.3574 12.005L8.08313 9.00281C7.77783 8.72288 7.75726 8.24845 8.0372 7.94315C8.31713 7.63785 8.79156 7.61728 9.09686 7.89722L11.41 10.0182V7.34C11.41 6.89706 11.544 6.27728 12.1187 6.00223ZM12.91 13.4287L14.5699 14.9507L12.91 16.3366V13.4287ZM14.7118 14.8322L14.7115 14.8325L14.7118 14.8322ZM12.91 10.5813V7.67338L14.5699 9.05933L12.91 10.5813Z" fill="#595854"/>
</svg>
