<svg width="24" height="24" viewBox="0 0 24 24" fill="none" xmlns="http://www.w3.org/2000/svg">
<path fill-rule="evenodd" clip-rule="evenodd" d="M19 1.24001C19.4142 1.24001 19.75 1.57579 19.75 1.99001V21.99C19.75 22.4042 19.4142 22.74 19 22.74C18.5858 22.74 18.25 22.4042 18.25 21.99V20H7.1C6.26514 20 5.48664 19.8249 4.94124 19.2452C4.40666 18.6769 4.25 17.8803 4.25 17.02V15.98C4.25 15.1197 4.40666 14.3231 4.94124 13.7549C5.48664 13.1751 6.26514 13 7.1 13H18.25V11.5H12.1C11.2651 11.5 10.4866 11.3249 9.94124 10.7452C9.40666 10.1769 9.25 9.38032 9.25 8.52001V7.48001C9.25 6.61969 9.40666 5.82309 9.94124 5.25485C10.4866 4.6751 11.2651 4.50001 12.1 4.50001H18.25V1.99001C18.25 1.57579 18.5858 1.24001 19 1.24001ZM18.25 6.00001H12.1C11.4349 6.00001 11.1634 6.14491 11.0338 6.28266C10.8933 6.43192 10.75 6.75032 10.75 7.48001V8.52001C10.75 9.24969 10.8933 9.56809 11.0338 9.71735C11.1634 9.8551 11.4349 10 12.1 10H18.25V6.00001ZM18.25 14.5H7.1C6.43486 14.5 6.16336 14.6449 6.03376 14.7827C5.89334 14.9319 5.75 15.2503 5.75 15.98V17.02C5.75 17.7497 5.89334 18.0681 6.03376 18.2174C6.16336 18.3551 6.43486 18.5 7.1 18.5H18.25V14.5Z" fill="#595854"/>
</svg>
