<svg width="24" height="24" viewBox="0 0 24 24" fill="none" xmlns="http://www.w3.org/2000/svg">
<path fill-rule="evenodd" clip-rule="evenodd" d="M5.22601 6.42566C4.50647 7.65793 4.26294 9.32102 4.9961 11.367C5.13583 11.7569 4.933 12.1863 4.54306 12.326C4.15313 12.4657 3.72375 12.2629 3.58402 11.873C2.71718 9.45394 2.96489 7.32327 3.93067 5.6693C4.88615 4.03295 6.50315 2.93349 8.25812 2.47213C10.0131 2.01078 11.9592 2.17356 13.59 3.13217C15.1216 4.03251 16.3107 5.59733 16.8083 7.84985C18.7601 8.28335 20.1755 9.6689 20.8888 11.323C21.0528 11.7033 20.8774 12.1446 20.4971 12.3087C20.1167 12.4727 19.6754 12.2973 19.5114 11.917C18.9309 10.5709 17.7879 9.52298 16.2487 9.26899C16.2402 9.26943 16.2316 9.26972 16.2231 9.26987C15.7554 9.27793 15.2956 9.39077 14.8755 9.6008C14.505 9.78605 14.0545 9.63588 13.8693 9.26539C13.684 8.89491 13.8342 8.4444 14.2047 8.25916C14.5453 8.08886 14.9041 7.96167 15.2731 7.87964C14.8253 6.16255 13.9063 5.05806 12.8298 4.42529C11.5878 3.69515 10.0608 3.54918 8.6395 3.92283C7.21822 4.29647 5.95584 5.17576 5.22601 6.42566ZM3.2501 15.03C3.2501 14.6158 3.58589 14.28 4.0001 14.28H20.0001C20.4143 14.28 20.7501 14.6158 20.7501 15.03C20.7501 15.4442 20.4143 15.78 20.0001 15.78H4.0001C3.58589 15.78 3.2501 15.4442 3.2501 15.03ZM5.2501 18.03C5.2501 17.6158 5.58589 17.28 6.0001 17.28H18.0001C18.4143 17.28 18.7501 17.6158 18.7501 18.03C18.7501 18.4442 18.4143 18.78 18.0001 18.78H6.0001C5.58589 18.78 5.2501 18.4442 5.2501 18.03ZM8.2501 21.03C8.2501 20.6158 8.58589 20.28 9.0001 20.28H15.0001C15.4143 20.28 15.7501 20.6158 15.7501 21.03C15.7501 21.4442 15.4143 21.78 15.0001 21.78H9.0001C8.58589 21.78 8.2501 21.4442 8.2501 21.03Z" fill="#595854"/>
</svg>
