<svg width="24" height="24" viewBox="0 0 24 24" fill="none" xmlns="http://www.w3.org/2000/svg">
<path fill-rule="evenodd" clip-rule="evenodd" d="M4.08905 3.46442C4.4665 2.91407 5.03245 2.75 5.49987 2.75H19.9999C21.4006 2.75 22.2701 4.33199 21.4102 5.53593L21.4051 5.54302L19.9107 7.5356C19.5332 8.08594 18.9673 8.25 18.4999 8.25H3.99987C2.59913 8.25 1.72961 6.66802 2.58957 5.46407L2.59464 5.45698L4.08905 3.46442ZM5.35151 4.28348C5.34575 4.28836 5.33608 4.29777 5.32391 4.31603L5.31236 4.33335L3.80639 6.34131C3.73158 6.44949 3.74026 6.54432 3.77778 6.61649C3.8198 6.69729 3.89784 6.75 3.99987 6.75H18.4999C18.5689 6.75 18.6082 6.73828 18.627 6.72973C18.6359 6.7257 18.6424 6.72147 18.6482 6.71652C18.654 6.71164 18.6637 6.70223 18.6758 6.68397L18.6874 6.66665L20.1934 4.65868C20.2682 4.5505 20.2595 4.45568 20.222 4.38351C20.1799 4.30271 20.1019 4.25 19.9999 4.25H5.49987C5.43089 4.25 5.39155 4.26172 5.37272 4.27027C5.36387 4.2743 5.35736 4.27853 5.35151 4.28348ZM3.80639 11.1587L5.31236 13.1667L5.32391 13.184C5.33608 13.2022 5.34575 13.2116 5.35151 13.2165C5.35736 13.2215 5.36387 13.2257 5.37272 13.2297C5.39155 13.2383 5.43089 13.25 5.49987 13.25H19.9999C20.1019 13.25 20.1799 13.1973 20.222 13.1165C20.2595 13.0443 20.2682 12.9495 20.1934 12.8413L18.6874 10.8333L18.6758 10.816C18.6637 10.7978 18.654 10.7884 18.6482 10.7835C18.6424 10.7785 18.6359 10.7743 18.627 10.7703C18.6082 10.7617 18.5689 10.75 18.4999 10.75H3.99987C3.89784 10.75 3.8198 10.8027 3.77778 10.8835C3.74025 10.9557 3.73158 11.0505 3.80639 11.1587ZM2.58957 12.0359C1.72961 10.832 2.59913 9.25 3.99987 9.25H18.4999C18.9673 9.25 19.5332 9.41406 19.9107 9.9644L21.4051 11.957L21.4102 11.9641C22.2701 13.168 21.4006 14.75 19.9999 14.75H5.49987C5.03245 14.75 4.46649 14.5859 4.08905 14.0356L2.59464 12.043L2.58957 12.0359ZM4.08905 16.4644C4.46649 15.9141 5.03245 15.75 5.49987 15.75H19.9999C21.4006 15.75 22.2701 17.332 21.4102 18.5359L21.4051 18.543L19.9107 20.5356C19.5332 21.0859 18.9673 21.25 18.4999 21.25H3.99987C2.59913 21.25 1.72961 19.668 2.58957 18.4641L2.59464 18.457L4.08905 16.4644ZM5.35151 17.2835C5.34575 17.2884 5.33608 17.2978 5.32391 17.316L5.31236 17.3333L3.80639 19.3413C3.73158 19.4495 3.74026 19.5443 3.77778 19.6165C3.8198 19.6973 3.89784 19.75 3.99987 19.75H18.4999C18.5689 19.75 18.6082 19.7383 18.627 19.7297C18.6359 19.7257 18.6424 19.7215 18.6482 19.7165C18.654 19.7116 18.6637 19.7022 18.6758 19.684L18.6874 19.6667L20.1934 17.6587C20.2682 17.5505 20.2595 17.4557 20.222 17.3835C20.1799 17.3027 20.1019 17.25 19.9999 17.25H5.49987C5.43089 17.25 5.39155 17.2617 5.37272 17.2703C5.36387 17.2743 5.35736 17.2785 5.35151 17.2835Z" fill="#595854"/>
</svg>
