<svg width="24" height="24" viewBox="0 0 24 24" fill="none" xmlns="http://www.w3.org/2000/svg">
<path fill-rule="evenodd" clip-rule="evenodd" d="M7.16407 1.3897C7.41996 1.20693 7.76269 1.20318 8.0225 1.38033L12 4.09226L15.9775 1.38033C16.2373 1.20318 16.58 1.20693 16.8359 1.3897L22.4359 5.3897C22.6354 5.53216 22.7526 5.7631 22.75 6.00819C22.7473 6.25328 22.625 6.48159 22.4225 6.61967L18.198 9.5L22.4225 12.3803C22.625 12.5184 22.7473 12.7467 22.75 12.9918C22.7526 13.2369 22.6354 13.4678 22.4359 13.6103L19.75 15.5288V18.8C19.75 19.0941 19.5781 19.3611 19.3104 19.4828L12.7104 22.4828C12.6865 22.4936 12.6621 22.5032 12.6372 22.5115C12.2321 22.6465 11.7171 22.6902 11.2796 22.4782L4.68965 19.4828C4.4219 19.3611 4.25 19.0941 4.25 18.8V15.5288L1.56407 13.6103C1.36462 13.4678 1.24737 13.2369 1.25004 12.9918C1.25272 12.7467 1.37499 12.5184 1.5775 12.3803L5.80198 9.5L1.5775 6.61967C1.37499 6.48159 1.25272 6.25328 1.25004 6.00819C1.24737 5.7631 1.36462 5.53216 1.56407 5.3897L7.16407 1.3897ZM6.99035 9.5L12 13.0783L17.0097 9.5L12 5.92168L6.99035 9.5ZM13.3104 5.0143L17.61 8.08545L20.6896 5.9857L16.39 2.91455L13.3104 5.0143ZM10.6896 5.0143L6.39002 8.08545L3.31037 5.9857L7.60998 2.91455L10.6896 5.0143ZM10.6896 13.9857L7.60998 16.0855L3.31037 13.0143L6.39002 10.9145L10.6896 13.9857ZM13.3104 13.9857L16.39 16.0855L20.6896 13.0143L17.61 10.9145L13.3104 13.9857ZM12 14.9077L8.0225 17.6197C7.76269 17.7968 7.41996 17.7931 7.16407 17.6103L5.75 16.6002V18.3171L11.9104 21.1172C11.9139 21.1188 11.9174 21.1205 11.9209 21.1221C11.9271 21.1232 11.9406 21.125 11.9625 21.125C12.0052 21.125 12.0636 21.1179 12.1313 21.0983L18.25 18.3171V16.6002L16.8359 17.6103C16.58 17.7931 16.2373 17.7968 15.9775 17.6197L12 14.9077Z" fill="#595854"/>
</svg>
