<svg width="24" height="24" viewBox="0 0 24 24" fill="none" xmlns="http://www.w3.org/2000/svg">
<path fill-rule="evenodd" clip-rule="evenodd" d="M10.55 2.79749C10.0623 2.79749 9.61407 2.86855 9.31522 2.98153L9.31365 2.98212L4.3347 4.85172C4.33454 4.85178 4.33486 4.85166 4.3347 4.85172C3.93622 5.00217 3.53209 5.33413 3.22491 5.77953C2.91767 6.22503 2.75 6.72182 2.75 7.14998V14.56C2.75 14.9972 2.89926 15.5616 3.17359 16.1114C3.44804 16.6614 3.80849 17.1182 4.15796 17.3785L4.15911 17.3793L8.43592 20.5769C8.43637 20.5773 8.43682 20.5776 8.43727 20.5779C8.99631 20.9908 9.76182 21.2175 10.5588 21.2175C11.3561 21.2175 12.1181 20.9906 12.6711 20.5791C12.6714 20.5789 12.6717 20.5787 12.672 20.5784L15.4455 18.5H11.74C10.5686 18.5 9.54146 18.3705 8.86172 17.7023C8.17847 17.0307 8.04499 16.0115 8.04 14.8632L8.03999 14.86V9.42998C8.03999 8.37264 8.14681 7.43635 8.67254 6.7703C8.67758 6.76392 8.68264 6.75758 8.68773 6.75128C9.24615 6.04923 10.1103 5.83455 11.0815 5.77156C11.0976 5.77051 11.1138 5.76999 11.13 5.76999C11.2121 5.76999 11.2977 5.76788 11.3985 5.76539L11.4053 5.76523C11.506 5.76274 11.6196 5.76001 11.74 5.76001H17.856C17.5587 5.34271 17.1621 5.0061 16.7549 4.85158C16.7547 4.85149 16.7552 4.85167 16.7549 4.85158L11.7848 2.98153C11.4859 2.86855 11.0377 2.79749 10.55 2.79749ZM17.9468 18.49C17.926 18.5076 17.9069 18.524 17.8883 18.5406C17.8727 18.5544 17.8565 18.5676 17.8398 18.5802L13.5698 21.7801L13.5679 21.7815C12.7111 22.4196 11.6185 22.7175 10.5588 22.7175C9.49883 22.7175 8.40493 22.4196 7.54409 21.783L7.54091 21.7807L3.26206 18.5815C3.26187 18.5814 3.26225 18.5817 3.26206 18.5815C2.67178 18.1418 2.17686 17.4734 1.83141 16.7811C1.48574 16.0884 1.25 15.2928 1.25 14.56V7.14998C1.25 6.35814 1.54733 5.56993 1.9901 4.92793C2.4328 4.28601 3.06395 3.72788 3.80532 3.44824L3.80636 3.44785L8.78479 1.57844C8.7845 1.57855 8.78507 1.57834 8.78479 1.57844C9.30578 1.38166 9.94805 1.29749 10.55 1.29749C11.1521 1.29749 11.7937 1.38137 12.3147 1.57825C12.3145 1.57819 12.3149 1.57832 12.3147 1.57825L17.2858 3.44865C18.3046 3.83473 19.1467 4.75764 19.5672 5.77156C20.5258 5.81467 21.3597 5.99314 21.9385 6.56542C22.6208 7.2399 22.75 8.26305 22.75 9.42001V14.9768C22.7399 16.0927 22.5955 17.0858 21.901 17.7353C21.2214 18.3709 20.2079 18.49 19.06 18.49H17.9468ZM21.25 10.47V9.42001C21.25 8.25697 21.0842 7.83013 20.8839 7.6321C20.6879 7.43826 20.2733 7.2784 19.196 7.26138C19.1421 7.27364 19.0864 7.27999 19.03 7.27999H11.73C11.6304 7.27999 11.534 7.28225 11.4323 7.28476L11.4181 7.28511C11.3307 7.28728 11.2369 7.2896 11.1435 7.28995C10.2999 7.34261 10.0026 7.51378 9.85795 7.68973C9.68191 7.91491 9.55 8.36729 9.55 9.41V10.47H21.25ZM9.55 11.97H21.25V14.9666C21.2397 16.0681 21.0693 16.4594 20.8765 16.6397C20.6686 16.8341 20.2221 16.99 19.06 16.99H11.74C10.5607 16.99 10.1196 16.8242 9.91605 16.6229C9.71559 16.4247 9.55 15.9975 9.55 14.84V11.97ZM10.57 15.26C10.57 14.8458 10.9058 14.51 11.32 14.51H12.65C13.0642 14.51 13.4 14.8458 13.4 15.26C13.4 15.6742 13.0642 16.01 12.65 16.01H11.32C10.9058 16.01 10.57 15.6742 10.57 15.26ZM14 15.26C14 14.8458 14.3358 14.51 14.75 14.51H18.02C18.4342 14.51 18.77 14.8458 18.77 15.26C18.77 15.6742 18.4342 16.01 18.02 16.01H14.75C14.3358 16.01 14 15.6742 14 15.26Z" fill="#595854"/>
</svg>
