<svg width="24" height="24" viewBox="0 0 24 24" fill="none" xmlns="http://www.w3.org/2000/svg">
<path fill-rule="evenodd" clip-rule="evenodd" d="M11.9949 1.25001C12.8643 1.24862 13.7749 1.42174 14.5077 1.80788L14.5119 1.81007L20.0645 4.78036C20.0642 4.78023 20.0647 4.78048 20.0645 4.78036C20.8373 5.19217 21.5 5.88744 21.9673 6.64958C22.4338 7.41061 22.75 8.31037 22.75 9.1735V14.8253C22.75 15.6884 22.4338 16.5882 21.9673 17.3492C21.5 18.1113 20.838 18.8062 20.0652 19.218C20.0649 19.2181 20.0654 19.2179 20.0652 19.218L14.5119 22.1887L14.5101 22.1896C13.7807 22.5773 12.8689 22.75 12 22.75C11.1311 22.75 10.2193 22.5773 9.48991 22.1896L9.48815 22.1887L3.93555 19.2184C3.9353 19.2183 3.93579 19.2185 3.93555 19.2184C3.16269 18.8066 2.49996 18.1113 2.03272 17.3492C1.56616 16.5882 1.25 15.6884 1.25 14.8253V9.1735C1.25 8.31037 1.56616 7.41061 2.03272 6.64958C2.50005 5.8873 3.16221 5.1923 3.93525 4.78051C3.93516 4.78056 3.93535 4.78046 3.93525 4.78051L9.48742 1.82047C10.2171 1.42699 11.1267 1.2514 11.9949 1.25001ZM11.9973 2.75001C11.3036 2.75112 10.6539 2.89533 10.1983 3.14135L10.1948 3.14324L4.64093 6.10415C4.27429 6.29941 3.90935 6.62146 3.59683 7.02187L11.9946 11.6961L20.3975 7.01467C20.0863 6.61761 19.7238 6.2984 19.3594 6.10431L19.3581 6.10366L13.8085 3.13493C13.8078 3.13459 13.8072 3.13425 13.8065 3.13391C13.3434 2.89047 12.6896 2.7489 11.9973 2.75001ZM21.1069 8.33654L12.7448 12.9953V21.1941C13.151 21.1315 13.5174 21.0184 13.8054 20.8654C13.8052 20.8655 13.8057 20.8653 13.8054 20.8654L19.3581 17.8951L19.3594 17.8944C19.8446 17.636 20.3264 17.1557 20.6885 16.5652C21.0513 15.9733 21.25 15.3426 21.25 14.8253V9.1735C21.25 8.91631 21.2009 8.63109 21.1069 8.33654ZM11.2448 21.1925V12.9955L2.89029 8.34531C2.79813 8.63675 2.75 8.91886 2.75 9.1735V14.8253C2.75 15.3426 2.94866 15.9733 3.31153 16.5652C3.67357 17.1557 4.15536 17.636 4.64064 17.8944L4.64186 17.8951L10.1939 20.8651C10.1937 20.865 10.1941 20.8652 10.1939 20.8651C10.4795 21.0167 10.8428 21.1295 11.2448 21.1925Z" fill="#595854"/>
</svg>
