<svg width="24" height="24" viewBox="0 0 24 24" fill="none" xmlns="http://www.w3.org/2000/svg">
<path fill-rule="evenodd" clip-rule="evenodd" d="M1.25 11.3C1.25 5.63117 6.1426 1.25 12 1.25C17.8519 1.25 22.75 5.62611 22.75 11.2C22.75 16.8688 17.8574 21.25 12 21.25C10.9836 21.25 10.0065 21.1684 9.09219 20.9123L6.07422 22.65C5.84215 22.7836 5.55644 22.7833 5.32461 22.6493C5.09278 22.5153 4.95 22.2678 4.95 22V18.77C2.65726 16.949 1.25 14.3294 1.25 11.3ZM12 2.75C6.8574 2.75 2.75 6.56883 2.75 11.3C2.75 13.9389 4.01763 16.2239 6.14579 17.7969C6.33712 17.9383 6.45 18.1621 6.45 18.4V20.7028L8.62578 19.45C8.81143 19.3431 9.03394 19.3207 9.23717 19.3885C10.0296 19.6526 10.9395 19.75 12 19.75C17.1426 19.75 21.25 15.9312 21.25 11.2C21.25 6.57389 17.1481 2.75 12 2.75ZM17.1352 8.80122C17.3087 9.07763 17.2836 9.43453 17.073 9.68389L13.273 14.1839C13.0357 14.4649 12.6296 14.5324 12.3141 14.3431L11.0781 13.6015L7.67726 14.4288C7.3619 14.5055 7.03298 14.3706 6.86221 14.0946C6.69144 13.8186 6.71758 13.4641 6.92698 13.2161L10.727 8.71611C10.9546 8.44661 11.3392 8.37212 11.6509 8.53716L13.0944 9.30134L16.3132 8.47363C16.6293 8.39235 16.9617 8.52481 17.1352 8.80122ZM14.4108 10.5116L13.1868 10.8264C13.0059 10.8729 12.8142 10.8502 12.6491 10.7628L11.4831 10.1456L9.55569 12.4281L11.0227 12.0712C11.2144 12.0246 11.4167 12.0554 11.5859 12.1569L12.5387 12.7286L14.4108 10.5116Z" fill="#595854"/>
</svg>
