<svg width="24" height="24" viewBox="0 0 24 24" fill="none" xmlns="http://www.w3.org/2000/svg">
<path fill-rule="evenodd" clip-rule="evenodd" d="M9.92882 1.24985C9.95338 1.24992 9.97713 1.24998 10 1.24998H14C14.0229 1.24998 14.0466 1.24992 14.0712 1.24985C14.5142 1.24859 15.222 1.24658 15.791 1.62595C16.4753 2.08215 16.75 2.90094 16.75 3.99998C16.75 4.02285 16.7501 4.0466 16.7501 4.07117C16.7514 4.51415 16.7534 5.22196 16.374 5.79101C15.9178 6.47532 15.099 6.74998 14 6.74998H10C9.97713 6.74998 9.95338 6.75005 9.92882 6.75012C9.48584 6.75138 8.77803 6.75339 8.20897 6.37402C7.52467 5.91782 7.25 5.09903 7.25 3.99998C7.25 2.90094 7.52467 2.08215 8.20897 1.62595C8.77803 1.24658 9.48584 1.24859 9.92882 1.24985ZM9.04103 2.87402C8.97533 2.91782 8.75 3.09903 8.75 3.99998C8.75 4.90094 8.97533 5.08215 9.04103 5.12595C9.19042 5.22554 9.43524 5.24998 10 5.24998H14C14.901 5.24998 15.0822 5.02465 15.126 4.95896C15.2256 4.80957 15.25 4.56475 15.25 3.99998C15.25 3.09903 15.0247 2.91782 14.959 2.87402C14.8096 2.77443 14.5648 2.74998 14 2.74998H10C9.43524 2.74998 9.19042 2.77443 9.04103 2.87402Z" fill="#595854"/>
<path fill-rule="evenodd" clip-rule="evenodd" d="M8.74891 3.9795C8.77126 4.39311 8.45409 4.74653 8.04048 4.76888C6.43434 4.8557 5.43333 5.19318 4.80215 5.87641C4.1626 6.5687 3.75 7.78077 3.75 9.99998V16C3.75 17.9867 4.01132 19.2311 4.68943 20.0061C5.34587 20.7563 6.56467 21.25 9 21.25H15C17.4353 21.25 18.6541 20.7563 19.3106 20.0061C19.9887 19.2311 20.25 17.9867 20.25 16V9.99998C20.25 7.77526 19.8372 6.56377 19.1982 5.87304C18.5674 5.19121 17.5669 4.85577 15.9595 4.76888C15.5459 4.74653 15.2287 4.39311 15.2511 3.9795C15.2735 3.56589 15.6269 3.24871 16.0405 3.27107C17.7631 3.36419 19.2626 3.73375 20.2993 4.85442C21.3278 5.96618 21.75 7.65469 21.75 9.99998V16C21.75 18.0132 21.5113 19.7688 20.4394 20.9939C19.3459 22.2436 17.5647 22.75 15 22.75H9C6.43533 22.75 4.65413 22.2436 3.56057 20.9939C2.48868 19.7688 2.25 18.0132 2.25 16V9.99998C2.25 7.65919 2.6724 5.97126 3.70035 4.85855C4.73667 3.73678 6.23566 3.36425 7.95952 3.27107C8.37313 3.24871 8.72655 3.56589 8.74891 3.9795Z" fill="#595854"/>
</svg>
