<svg width="24" height="24" viewBox="0 0 24 24" fill="none" xmlns="http://www.w3.org/2000/svg">
<path fill-rule="evenodd" clip-rule="evenodd" d="M8.25 2C8.25 1.58579 8.58579 1.25 9 1.25H15C15.4142 1.25 15.75 1.58579 15.75 2C15.75 2.41421 15.4142 2.75 15 2.75H9C8.58579 2.75 8.25 2.41421 8.25 2ZM5.25 4.5C5.25 4.08579 5.58579 3.75 6 3.75H18C18.4142 3.75 18.75 4.08579 18.75 4.5C18.75 4.91421 18.4142 5.25 18 5.25H6C5.58579 5.25 5.25 4.91421 5.25 4.5ZM3.88534 8.7371C3.20538 9.36848 2.75 10.393 2.75 12V17C2.75 18.607 3.20538 19.6315 3.88534 20.2629C4.57535 20.9036 5.61497 21.25 7 21.25H17C18.385 21.25 19.4246 20.9036 20.1147 20.2629C20.7946 19.6315 21.25 18.607 21.25 17V12C21.25 10.393 20.7946 9.36848 20.1147 8.7371C19.4246 8.09637 18.385 7.75 17 7.75H7C5.61497 7.75 4.57535 8.09637 3.88534 8.7371ZM2.86466 7.6379C3.92465 6.65363 5.38503 6.25 7 6.25H17C18.615 6.25 20.0754 6.65363 21.1353 7.6379C22.2054 8.63152 22.75 10.107 22.75 12V17C22.75 18.893 22.2054 20.3685 21.1353 21.3621C20.0754 22.3464 18.615 22.75 17 22.75H7C5.38503 22.75 3.92465 22.3464 2.86466 21.3621C1.79462 20.3685 1.25 18.893 1.25 17V12C1.25 10.107 1.79462 8.63152 2.86466 7.6379ZM15.213 9.78045C15.798 10.1233 16.03 10.7624 16.03 11.48V12.4437C16.0303 12.4549 16.0303 12.4661 16.03 12.4772V16.83C16.03 18.001 15.0808 18.95 13.91 18.95C12.7391 18.95 11.79 18.0009 11.79 16.83C11.79 15.6592 12.7391 14.71 13.91 14.71C14.1257 14.71 14.3339 14.7422 14.53 14.8021V13.4421L11.01 14.4028V17.74C11.01 18.9108 10.0609 19.86 8.89001 19.86C7.71917 19.86 6.77002 18.9108 6.77002 17.74C6.77002 16.5691 7.71917 15.62 8.89001 15.62C9.10572 15.62 9.3139 15.6522 9.51001 15.7121V13.8463C9.50976 13.8351 9.50976 13.824 9.51001 13.8128V12.23C9.51001 11.2978 10.0995 10.6313 10.8978 10.4078L10.902 10.4066L10.902 10.4066L13.6419 9.65669C14.0801 9.53662 14.685 9.47101 15.213 9.78045ZM11.01 12.8479L14.53 11.8873V11.48C14.53 11.2685 14.4965 11.1571 14.4745 11.1085C14.4641 11.0855 14.4564 11.0766 14.4552 11.0752C14.4545 11.0744 14.4545 11.0745 14.4546 11.0745C14.4546 11.0746 14.4546 11.0746 14.4546 11.0746C14.4542 11.0743 14.4278 11.059 14.3522 11.0569C14.2755 11.0548 14.1699 11.0673 14.0382 11.1034L14.038 11.1034L11.3022 11.8523C11.3016 11.8524 11.3011 11.8526 11.3005 11.8527C11.1838 11.8857 11.1172 11.938 11.0805 11.9844C11.0461 12.0277 11.01 12.1003 11.01 12.23V12.8479ZM9.51001 17.74C9.51001 17.3976 9.23243 17.12 8.89001 17.12C8.5476 17.12 8.27002 17.3976 8.27002 17.74C8.27002 18.0824 8.5476 18.36 8.89001 18.36C9.23243 18.36 9.51001 18.0824 9.51001 17.74ZM14.53 16.83C14.53 16.4877 14.2524 16.21 13.91 16.21C13.5676 16.21 13.29 16.4876 13.29 16.83C13.29 17.1724 13.5676 17.45 13.91 17.45C14.2525 17.45 14.53 17.1724 14.53 16.83Z" fill="#595854"/>
</svg>
