<svg width="24" height="24" viewBox="0 0 24 24" fill="none" xmlns="http://www.w3.org/2000/svg">
<path fill-rule="evenodd" clip-rule="evenodd" d="M3.63353 2.98934C3.13249 3.29443 2.71973 3.96033 2.71973 5.09V19.93C2.71973 20.6419 3.31987 21.25 4.07973 21.25H11.7497V7.41C11.7497 7.05439 11.612 6.61389 11.3502 6.19865C11.0888 5.78388 10.7476 5.46401 10.4199 5.3036L5.97997 3.12361C5.97987 3.12357 5.98006 3.12366 5.97997 3.12361C4.93987 2.61453 4.13821 2.68204 3.63353 2.98934ZM13.2497 17.0108V21.25H18.8097C19.7887 21.25 20.3467 21.0223 20.6694 20.6997C20.9921 20.377 21.2197 19.8189 21.2197 18.84V17.3458C20.779 17.6026 20.2667 17.75 19.7197 17.75C18.8246 17.75 18.0199 17.356 17.4697 16.7323C16.9196 17.356 16.1148 17.75 15.2197 17.75C14.4665 17.75 13.7771 17.4709 13.2497 17.0108ZM18.2197 14.75C18.2197 15.5758 18.8939 16.25 19.7197 16.25C20.5062 16.25 21.1547 15.6328 21.2089 14.8607C21.1783 14.0674 20.9471 13.6216 20.6697 13.3418C20.3716 13.0413 19.9321 12.8429 19.3388 12.7125L19.3374 12.7122L18.2197 12.4645V14.75ZM17.634 10.7982L19.6607 11.2475C19.661 11.2475 19.6613 11.2476 19.6617 11.2477C20.388 11.4074 21.1481 11.694 21.7348 12.2857C22.3311 12.887 22.6664 13.7194 22.7079 14.8056C22.72 14.9061 22.7198 14.9961 22.7197 15.0478C22.7197 15.0521 22.7197 15.0562 22.7197 15.06V18.84C22.7197 20.0211 22.4474 21.043 21.7301 21.7603C21.0127 22.4777 19.9908 22.75 18.8097 22.75H4.07973C2.51958 22.75 1.21973 21.4981 1.21973 19.93V5.09C1.21973 3.59967 1.78197 2.36057 2.85342 1.70816C3.9212 1.05799 5.28972 1.11562 6.63949 1.77638L11.0795 3.9564C11.0794 3.95635 11.0796 3.95644 11.0795 3.9564C11.7117 4.26601 12.2457 4.80621 12.6192 5.39885C12.9925 5.99111 13.2497 6.70561 13.2497 7.41V9.81419L17.632 10.7978L17.634 10.7982ZM16.7197 12.1303V14.75C16.7197 15.5758 16.0455 16.25 15.2197 16.25C14.3939 16.25 13.7197 15.5758 13.7197 14.75V11.457L16.7197 12.1303ZM4.74973 9C4.74973 8.58579 5.08551 8.25 5.49973 8.25H8.96973C9.38394 8.25 9.71973 8.58579 9.71973 9C9.71973 9.41421 9.38394 9.75 8.96973 9.75H5.49973C5.08551 9.75 4.74973 9.41421 4.74973 9ZM4.74973 13C4.74973 12.5858 5.08551 12.25 5.49973 12.25H8.96973C9.38394 12.25 9.71973 12.5858 9.71973 13C9.71973 13.4142 9.38394 13.75 8.96973 13.75H5.49973C5.08551 13.75 4.74973 13.4142 4.74973 13Z" fill="#595854"/>
</svg>
