<svg width="24" height="24" viewBox="0 0 24 24" fill="none" xmlns="http://www.w3.org/2000/svg">
<path fill-rule="evenodd" clip-rule="evenodd" d="M12 2.75C6.89137 2.75 2.75 6.89137 2.75 12C2.75 17.1086 6.89137 21.25 12 21.25C17.1086 21.25 21.25 17.1086 21.25 12C21.25 6.89137 17.1086 2.75 12 2.75ZM1.25 12C1.25 6.06294 6.06294 1.25 12 1.25C17.9371 1.25 22.75 6.06294 22.75 12C22.75 17.9371 17.9371 22.75 12 22.75C6.06294 22.75 1.25 17.9371 1.25 12ZM8.54703 9.62005C8.54721 9.62065 8.5474 9.62125 8.54758 9.62186L10.4966 15.8988C10.7435 16.6984 11.8584 16.7036 12.1175 15.9157L12.1189 15.9116L12.6985 14.1828C12.6984 14.1831 12.6986 14.1826 12.6985 14.1828C12.9333 13.4794 13.479 12.9332 14.1826 12.6986C14.1825 12.6986 14.1827 12.6986 14.1826 12.6986L15.9116 12.1189L15.9143 12.118C16.6949 11.8596 16.6985 10.7404 15.896 10.4858C15.8955 10.4856 15.8949 10.4854 15.8944 10.4853L9.60862 8.53659C9.60852 8.53656 9.60872 8.53662 9.60862 8.53659C8.96485 8.33795 8.34024 8.93516 8.54703 9.62005ZM7.11243 10.0581C6.5609 8.24389 8.23583 6.54252 10.0514 7.10343L16.3456 9.05472C18.5211 9.74095 18.5646 12.8194 16.387 13.5416C16.3866 13.5417 16.3861 13.5418 16.3857 13.542L14.6572 14.1215C14.4011 14.2069 14.2069 14.4011 14.1215 14.6572L14.1211 14.6584L13.5425 16.3843C13.5422 16.385 13.542 16.3858 13.5417 16.3865C12.8195 18.5762 9.73668 18.5209 9.06351 16.3417C9.06346 16.3415 9.06355 16.3418 9.06351 16.3417L7.11243 10.0581Z" fill="#595854"/>
</svg>
