<svg width="24" height="24" viewBox="0 0 24 24" fill="none" xmlns="http://www.w3.org/2000/svg">
<path fill-rule="evenodd" clip-rule="evenodd" d="M11.5308 1.41484C11.854 1.15576 12.326 1.20773 12.5851 1.53092L14.4993 3.91891C14.6478 4.06163 14.7343 4.26257 14.7299 4.47484C14.7284 4.69278 14.6323 4.90824 14.449 5.05518C14.2293 5.2313 13.9408 5.26368 13.6972 5.16483C13.1399 5.04134 12.5749 4.97 11.9999 4.97C7.50409 4.97 3.85986 8.61423 3.85986 13.11C3.85986 17.6058 7.50409 21.25 11.9999 21.25C16.4957 21.25 20.1399 17.6058 20.1399 13.11C20.1399 11.2865 19.5114 9.61208 18.4899 8.25001C18.2413 7.91864 18.3085 7.44854 18.6399 7.20002C18.9712 6.95149 19.4413 7.01864 19.6899 7.35002C20.8883 8.94795 21.6399 10.9335 21.6399 13.11C21.6399 18.4342 17.3241 22.75 11.9999 22.75C6.67566 22.75 2.35986 18.4342 2.35986 13.11C2.35986 7.7858 6.67566 3.47 11.9999 3.47C12.0733 3.47 12.1464 3.47095 12.2193 3.47283L11.4147 2.46913C11.1556 2.14594 11.2076 1.67392 11.5308 1.41484ZM9.80824 9.8797C10.0983 9.99086 10.2899 10.2694 10.2899 10.58V15.92C10.2899 16.3342 9.9541 16.67 9.53989 16.67C9.12567 16.67 8.78989 16.3342 8.78989 15.92V12.5374L8.59785 12.7512C8.32106 13.0594 7.84687 13.0848 7.53871 12.808C7.23056 12.5312 7.20513 12.057 7.48192 11.7489L8.98192 10.0789C9.18952 9.84774 9.51813 9.76854 9.80824 9.8797ZM13.9999 11.33C13.3116 11.33 12.7499 11.8867 12.7499 12.58V13.93C12.7499 14.6158 13.3141 15.18 13.9999 15.18C14.6857 15.18 15.2499 14.6158 15.2499 13.93V12.58C15.2499 11.8943 14.6857 11.33 13.9999 11.33ZM11.2499 12.58C11.2499 11.0534 12.4881 9.83004 13.9999 9.83004C15.5141 9.83004 16.7499 11.0658 16.7499 12.58V13.93C16.7499 15.4442 15.5141 16.68 13.9999 16.68C12.4857 16.68 11.2499 15.4442 11.2499 13.93V12.58Z" fill="#595854"/>
</svg>
