<svg width="24" height="24" viewBox="0 0 24 24" fill="none" xmlns="http://www.w3.org/2000/svg">
<path fill-rule="evenodd" clip-rule="evenodd" d="M5 2.75C3.75736 2.75 2.75 3.75736 2.75 5C2.75 6.24264 3.75736 7.25 5 7.25C6.24264 7.25 7.25 6.24264 7.25 5C7.25 3.75736 6.24264 2.75 5 2.75ZM1.25 5C1.25 2.92893 2.92893 1.25 5 1.25C7.07107 1.25 8.75 2.92893 8.75 5C8.75 6.80129 7.47998 8.30595 5.78653 8.66738C5.89597 9.6088 6.24003 10.1908 6.6647 10.5569C7.20257 11.0206 7.99853 11.25 9 11.25H15.325C15.6725 9.53832 17.1858 8.25 19 8.25C21.0711 8.25 22.75 9.92893 22.75 12C22.75 14.0711 21.0711 15.75 19 15.75C17.1858 15.75 15.6725 14.4617 15.325 12.75H9C7.82961 12.75 6.65395 12.4919 5.75 11.7476V15.325C7.46168 15.6725 8.75 17.1858 8.75 19C8.75 21.0711 7.07107 22.75 5 22.75C2.92893 22.75 1.25 21.0711 1.25 19C1.25 17.1858 2.53832 15.6725 4.25 15.325V8.67499C2.53832 8.32753 1.25 6.81422 1.25 5ZM19 9.75C17.7574 9.75 16.75 10.7574 16.75 12C16.75 13.2426 17.7574 14.25 19 14.25C20.2426 14.25 21.25 13.2426 21.25 12C21.25 10.7574 20.2426 9.75 19 9.75ZM5 16.75C3.75736 16.75 2.75 17.7574 2.75 19C2.75 20.2426 3.75736 21.25 5 21.25C6.24264 21.25 7.25 20.2426 7.25 19C7.25 17.7574 6.24264 16.75 5 16.75Z" fill="#595854"/>
</svg>
