<svg width="24" height="24" viewBox="0 0 24 24" fill="none" xmlns="http://www.w3.org/2000/svg">
<path fill-rule="evenodd" clip-rule="evenodd" d="M8.37606 1.26055C8.5801 1.25346 8.78809 1.25 9 1.25H15C17.574 1.25 19.5709 1.7602 20.9053 3.09467C22.2398 4.42914 22.75 6.42603 22.75 9V15C22.75 17.574 22.2398 19.5709 20.9053 20.9053C19.7383 22.0723 18.0648 22.6089 15.9417 22.7253C15.8805 22.7414 15.8163 22.75 15.75 22.75C15.707 22.75 15.6649 22.7464 15.6239 22.7395C15.4199 22.7465 15.2119 22.75 15 22.75H9C6.42603 22.75 4.42914 22.2398 3.09467 20.9053C1.7602 19.5709 1.25 17.574 1.25 15V9C1.25 6.42603 1.7602 4.42914 3.09467 3.09467C4.26165 1.92769 5.9352 1.39106 8.05826 1.27473C8.11946 1.2586 8.18373 1.25 8.25 1.25C8.29296 1.25 8.33508 1.25361 8.37606 1.26055ZM7.5 2.82353C5.92787 2.99173 4.86505 3.44561 4.15533 4.15533C3.2398 5.07086 2.75 6.57397 2.75 9V11.25H7.5V2.82353ZM9 11.25V2.75H15V11.25H9ZM7.5 12.75H2.75V15C2.75 17.426 3.2398 18.9291 4.15533 19.8447C4.86505 20.5544 5.92787 21.0083 7.5 21.1765V12.75ZM9 21.25V12.75H15V21.25H9ZM16.5 21.1765C18.0721 21.0083 19.1349 20.5544 19.8447 19.8447C20.7602 18.9291 21.25 17.426 21.25 15V12.75H16.5V21.1765ZM16.5 11.25H21.25V9C21.25 6.57397 20.7602 5.07086 19.8447 4.15533C19.1349 3.44561 18.0721 2.99173 16.5 2.82353V11.25Z" fill="#595854"/>
</svg>
