<svg width="24" height="24" viewBox="0 0 24 24" fill="none" xmlns="http://www.w3.org/2000/svg">
<path fill-rule="evenodd" clip-rule="evenodd" d="M12 2.75C6.89421 2.75 2.75 6.89421 2.75 12C2.75 17.1058 6.89421 21.25 12 21.25C12.9165 21.25 13.8009 21.1145 14.6341 20.8634C14.3856 20.2891 14.25 19.6566 14.25 19C14.25 17.5059 14.9386 16.162 16.0328 15.2933C16.8487 14.6431 17.8817 14.25 19 14.25C19.6607 14.25 20.2934 14.39 20.8678 14.6378C21.1182 13.8029 21.25 12.916 21.25 12C21.25 6.89421 17.1058 2.75 12 2.75ZM22.1744 15.4724C22.552 14.379 22.75 13.2076 22.75 12C22.75 6.06579 17.9342 1.25 12 1.25C6.06579 1.25 1.25 6.06579 1.25 12C1.25 17.9342 6.06579 22.75 12 22.75C13.2169 22.75 14.3874 22.5444 15.4771 22.1668C16.332 23.1357 17.592 23.75 19 23.75C20.1927 23.75 21.2871 23.3134 22.122 22.5662C22.4925 22.2534 22.8131 21.8725 23.0632 21.4459C23.5023 20.7305 23.75 19.8874 23.75 19C23.75 17.5979 23.1411 16.339 22.1744 15.4724ZM10.5526 9.50624C10.3719 9.61106 10.13 9.91094 10.13 10.61V13.36C10.13 14.0657 10.3729 14.3637 10.5514 14.4668C10.73 14.57 11.1084 14.6306 11.7151 14.2805L14.1151 12.9004C14.115 12.9005 14.1152 12.9004 14.1151 12.9004C14.7202 12.5511 14.8575 12.1925 14.8575 11.985C14.8575 11.7776 14.7206 11.4193 14.1157 11.0699C14.1155 11.0698 14.1159 11.07 14.1157 11.0699L11.7151 9.68957C11.1105 9.34061 10.7323 9.40197 10.5526 9.50624ZM12.4642 8.39005C11.579 7.87933 10.6025 7.74317 9.79988 8.20878C8.99806 8.67397 8.63 9.58909 8.63 10.61V13.36C8.63 14.3843 8.99714 15.3013 9.80112 15.7657C10.6048 16.2299 11.5813 16.0895 12.4645 15.5798C12.4644 15.5799 12.4647 15.5797 12.4645 15.5798L14.8649 14.1996C15.7495 13.689 16.3575 12.9125 16.3575 11.985C16.3575 11.0575 15.7495 10.281 14.8649 9.77044L12.4642 8.39005C12.4645 8.39018 12.464 8.38992 12.4642 8.39005ZM19 15.75C18.2385 15.75 17.5316 16.0169 16.9675 16.4665L16.9662 16.4675C16.221 17.0588 15.75 17.9745 15.75 19C15.75 19.6094 15.9205 20.1833 16.2184 20.6663C16.2207 20.6701 16.223 20.6739 16.2253 20.6778C16.2273 20.6811 16.2292 20.6845 16.2312 20.6879C16.2446 20.7113 16.266 20.7429 16.2995 20.7819C16.3184 20.804 16.336 20.8271 16.3522 20.8512C16.9173 21.6908 17.8875 22.25 19 22.25C19.8227 22.25 20.5645 21.9499 21.1283 21.4425C21.1348 21.4367 21.1414 21.431 21.148 21.4254C21.391 21.2216 21.6052 20.9684 21.7722 20.6821L21.7816 20.6663C22.0795 20.1833 22.25 19.6094 22.25 19C22.25 17.8964 21.6993 16.9225 20.8531 16.3366C20.3205 15.9679 19.678 15.75 19 15.75ZM17.4184 17.4009C17.7106 17.1073 18.1855 17.1062 18.4791 17.3984L19.0151 17.9319L19.5209 17.4284C19.8145 17.1362 20.2894 17.1374 20.5816 17.4309C20.8738 17.7245 20.8726 18.1994 20.5791 18.4916L20.0783 18.99L20.5991 19.5084C20.8927 19.8006 20.8938 20.2755 20.6016 20.5691C20.3094 20.8626 19.8345 20.8638 19.5409 20.5716L19.0151 20.0482L18.4591 20.6016C18.1655 20.8938 17.6906 20.8927 17.3984 20.5991C17.1062 20.3055 17.1073 19.8306 17.4009 19.5384L17.9519 18.99L17.4209 18.4616C17.1274 18.1694 17.1262 17.6945 17.4184 17.4009Z" fill="#595854"/>
</svg>
