<svg width="24" height="24" viewBox="0 0 24 24" fill="none" xmlns="http://www.w3.org/2000/svg">
<path fill-rule="evenodd" clip-rule="evenodd" d="M1.25 12.18C1.25 6.1784 6.07328 1.25 12 1.25C17.9267 1.25 22.75 6.1784 22.75 12.18V20.07C22.75 20.7742 22.5456 21.5874 21.8296 21.9183C21.0968 22.257 20.3597 21.8542 19.8591 21.3791L18.8652 20.4747L18.8625 20.4723C18.7795 20.3959 18.6206 20.3959 18.5375 20.4723L16.5375 22.3022C16.5374 22.3023 16.5376 22.3022 16.5375 22.3022C15.8806 22.9056 14.8397 22.9058 14.1828 22.3025C14.1827 22.3024 14.1829 22.3026 14.1828 22.3025L12.1825 20.4723C12.0995 20.3959 11.9405 20.3959 11.8574 20.4723L9.85744 22.3022C9.85739 22.3023 9.8575 22.3022 9.85744 22.3022C9.20055 22.9057 8.15959 22.9059 7.50269 22.3024C7.50264 22.3023 7.50274 22.3024 7.50269 22.3024L5.50254 20.4723C5.41948 20.3959 5.26051 20.3959 5.17745 20.4723L5.17476 20.4747L4.17568 21.3839C4.17537 21.3841 4.17507 21.3844 4.17476 21.3847M12 2.75C6.92672 2.75 2.75 6.98159 2.75 12.18V20.07C2.75 20.297 2.78179 20.441 2.81189 20.5208C2.88661 20.49 3.0066 20.4201 3.16428 20.2761L3.16521 20.2753L4.16251 19.3678C4.16305 19.3673 4.16358 19.3668 4.16412 19.3663C4.82109 18.7641 5.86091 18.7646 6.51733 19.3676C6.51728 19.3676 6.51738 19.3677 6.51733 19.3676L8.51748 21.1978C8.60054 21.2741 8.75944 21.2741 8.84251 21.1978L10.8425 19.3678C10.8424 19.3679 10.8426 19.3677 10.8425 19.3678C11.4994 18.7644 12.5403 18.7642 13.1972 19.3675C13.1971 19.3674 13.1973 19.3676 13.1972 19.3675L15.1975 21.1978C15.2805 21.2741 15.4395 21.2741 15.5226 21.1978L17.5226 19.3678C17.5225 19.3679 17.5227 19.3677 17.5226 19.3678C18.179 18.7648 19.219 18.7642 19.8759 19.3664C19.8764 19.3668 19.877 19.3673 19.8775 19.3678L20.8748 20.2753L20.8879 20.2875C21.0201 20.4137 21.1233 20.4802 21.1913 20.5132C21.2205 20.4309 21.25 20.2886 21.25 20.07V12.18C21.25 6.98159 17.0733 2.75 12 2.75ZM21.1562 20.5869C21.1562 20.5869 21.1565 20.5864 21.1573 20.5856L21.1562 20.5869ZM12 7.75C11.3096 7.75 10.75 8.30964 10.75 9C10.75 9.69036 11.3096 10.25 12 10.25C12.6904 10.25 13.25 9.69036 13.25 9C13.25 8.30964 12.6904 7.75 12 7.75ZM9.25 9C9.25 7.48122 10.4812 6.25 12 6.25C13.5188 6.25 14.75 7.48122 14.75 9C14.75 10.5188 13.5188 11.75 12 11.75C10.4812 11.75 9.25 10.5188 9.25 9ZM7.4003 13.5496C7.64906 13.2184 8.1192 13.1516 8.4504 13.4003C10.5536 14.9799 13.4464 14.9799 15.5496 13.4003C15.8808 13.1516 16.3509 13.2184 16.5997 13.5496C16.8484 13.8808 16.7816 14.3509 16.4504 14.5997C13.8136 16.5801 10.1864 16.5801 7.5496 14.5997C7.21839 14.3509 7.15155 13.8808 7.4003 13.5496Z" fill="#595854"/>
</svg>
