<svg width="24" height="24" viewBox="0 0 24 24" fill="none" xmlns="http://www.w3.org/2000/svg">
<path fill-rule="evenodd" clip-rule="evenodd" d="M11.9999 2.75C12.4141 2.75 12.7499 3.08579 12.7499 3.5V18.6893L17.5396 13.8997C17.8325 13.6068 18.3074 13.6068 18.6003 13.8997C18.8932 14.1926 18.8932 14.6674 18.6003 14.9603L12.5303 21.0303C12.3896 21.171 12.1988 21.25 11.9999 21.25C11.801 21.25 11.6103 21.171 11.4696 21.0303L5.3996 14.9603C5.10671 14.6674 5.10671 14.1926 5.3996 13.8997C5.69249 13.6068 6.16737 13.6068 6.46026 13.8997L11.2499 18.6893V3.5C11.2499 3.08579 11.5857 2.75 11.9999 2.75Z" fill="#595854"/>
</svg>
