<svg width="24" height="24" viewBox="0 0 24 24" fill="none" xmlns="http://www.w3.org/2000/svg">
<path fill-rule="evenodd" clip-rule="evenodd" d="M1 11.75C1 5.81581 5.81581 1 11.75 1C17.6842 1 22.5 5.81581 22.5 11.75C22.5 12.1135 22.2053 12.4082 21.8418 12.4082C21.4783 12.4082 21.1837 12.1135 21.1837 11.75C21.1837 10.9312 21.0792 10.1366 20.8828 9.37885C20.7978 9.38537 20.7101 9.37539 20.6242 9.34671C19.3397 8.91782 18.0317 8.58461 16.7107 8.34706C16.8428 9.47737 16.9091 10.6136 16.9091 11.75C16.9091 12.1135 16.6145 12.4082 16.251 12.4082C15.8875 12.4082 15.5928 12.1135 15.5928 11.75C15.5928 10.5435 15.5145 9.33686 15.3586 8.13786C12.9621 7.82679 10.5348 7.82692 8.1383 8.13827C7.82695 10.5347 7.82682 12.9621 8.13789 15.3586C9.33688 15.5145 10.5435 15.5928 11.75 15.5928C12.1135 15.5928 12.4082 15.8875 12.4082 16.251C12.4082 16.6145 12.1135 16.9091 11.75 16.9091C10.6137 16.9091 9.47739 16.8428 8.34709 16.7107C8.58464 18.0318 8.91785 19.3398 9.34674 20.6242C9.3749 20.7086 9.3853 20.7964 9.37871 20.8827C10.1365 21.0791 10.9311 21.1837 11.75 21.1837C12.1135 21.1837 12.4082 21.4783 12.4082 21.8418C12.4082 22.2053 12.1135 22.5 11.75 22.5C5.81581 22.5 1 17.6842 1 11.75ZM7.82366 20.1745H7.71327C7.65528 20.1745 7.59905 20.182 7.54549 20.1961C5.71268 19.2813 4.21875 17.7873 3.30393 15.9545C3.31801 15.901 3.32551 15.8447 3.32551 15.7867V15.6751C4.52798 16.0341 5.74812 16.3153 6.97823 16.518C7.18097 17.7493 7.46278 18.9707 7.82366 20.1745ZM6.78584 15.1492C6.52241 12.8898 6.52253 10.607 6.78622 8.34761C5.46622 8.58512 4.15925 8.91816 2.8758 9.34671C2.78988 9.37539 2.70222 9.38537 2.61724 9.37885C2.42084 10.1366 2.31633 10.9312 2.31633 11.75C2.31633 12.5689 2.42085 13.3635 2.61728 14.1213C2.70324 14.1147 2.79077 14.125 2.87483 14.1529C4.1586 14.5794 5.46576 14.9118 6.78584 15.1492ZM3.14598 7.87808C4.40676 7.4913 5.68732 7.19152 6.97876 6.97873C7.18146 5.74855 7.4631 4.52824 7.82366 3.32551H7.71327C7.65528 3.32551 7.59905 3.31801 7.54548 3.30393C5.60301 4.27349 4.04118 5.89354 3.14598 7.87808ZM9.37871 2.61728C10.1365 2.42085 10.9311 2.31633 11.75 2.31633C12.5688 2.31633 13.3634 2.42084 14.1211 2.61724C14.1146 2.70189 14.1245 2.78921 14.1529 2.87483C14.5794 4.15859 14.9118 5.46574 15.1492 6.78581C12.8898 6.52238 10.607 6.5225 8.34765 6.78618C8.58516 5.46619 8.91819 4.15924 9.34674 2.8758C9.3749 2.79145 9.3853 2.70357 9.37871 2.61728ZM16.518 6.9782C17.8105 7.19102 19.0922 7.49098 20.354 7.87808C19.4081 5.78109 17.7179 4.09107 15.6207 3.14543C16.0058 4.40609 16.3052 5.68665 16.518 6.9782ZM19.9681 14.2969C20.5982 14.2322 21.1864 14.5134 21.7219 15.0489C22.2608 15.5878 22.5454 16.1774 22.4829 16.809C22.4239 17.4058 22.0671 17.8749 21.7219 18.2201L21.3041 18.6379C21.2534 18.716 21.1872 18.7814 21.111 18.831L18.1562 21.7857C18.0189 21.9299 17.8474 22.0368 17.7033 22.1089C17.5524 22.1843 17.371 22.2516 17.1912 22.28L17.1803 22.2817L15.8193 22.4732C15.8192 22.4732 15.8194 22.4732 15.8193 22.4732C15.3994 22.5331 14.9722 22.4223 14.6654 22.1155C14.3586 21.8087 14.2477 21.3819 14.3076 20.9621C14.3076 20.9622 14.3076 20.9619 14.3076 20.9621L14.5007 19.5896C14.5296 19.4071 14.5983 19.2271 14.6734 19.0786C14.7486 18.93 14.8542 18.7656 14.9883 18.6315L18.0368 15.583C18.0432 15.5764 18.0497 15.5699 18.0563 15.5635L18.5608 15.059C18.9061 14.7137 19.3742 14.358 19.9681 14.2969ZM18.2958 17.1856L15.9191 19.5623C15.9192 19.5622 15.9166 19.5649 15.9116 19.5709C15.9067 19.5769 15.9005 19.5851 15.8933 19.5956C15.8787 19.6169 15.8629 19.6433 15.848 19.6728C15.8331 19.7023 15.8211 19.7307 15.8126 19.7551C15.8084 19.7671 15.8055 19.7769 15.8035 19.7843C15.8024 19.7886 15.8017 19.7915 15.8014 19.7932L15.6109 21.1464L15.6108 21.1478C15.6094 21.1573 15.6087 21.1655 15.6084 21.1725C15.6154 21.1722 15.6236 21.1715 15.6331 21.1701L15.6345 21.1699L16.9879 20.9794C16.9883 20.9794 16.9887 20.9793 16.9892 20.9792L16.9986 20.9769C17.0067 20.9748 17.0173 20.9717 17.03 20.9673C17.0559 20.9584 17.0852 20.9462 17.1147 20.9315C17.1443 20.9167 17.1691 20.9018 17.1871 20.8893C17.1977 20.8819 17.2034 20.8772 17.2051 20.8757C17.2095 20.871 17.214 20.8664 17.2186 20.8618L19.5929 18.4875C19.0624 18.164 18.6174 17.7174 18.2958 17.1856ZM20.5657 17.5147C19.9869 17.2559 19.5256 16.792 19.27 16.2114L19.4916 15.9898C19.762 15.7194 19.96 15.621 20.1027 15.6064C20.2093 15.5954 20.4285 15.617 20.7911 15.9797C21.1605 16.349 21.1837 16.5718 21.173 16.6794C21.1589 16.8218 21.0615 17.0189 20.7911 17.2893L20.5657 17.5147Z" fill="#595854"/>
</svg>
