<svg width="24" height="24" viewBox="0 0 24 24" fill="none" xmlns="http://www.w3.org/2000/svg">
<path fill-rule="evenodd" clip-rule="evenodd" d="M6.14701 11.8917C6.64968 11.9601 7.13885 12.1109 7.59536 12.3392C7.96584 12.5244 8.11601 12.9749 7.93077 13.3454C7.74553 13.7159 7.29502 13.8661 6.92454 13.6808C6.50631 13.4717 6.04865 13.3589 5.58314 13.35H5.56836C1.86104 13.6443 1.8499 19.0343 5.56841 19.33H16.6355C17.7964 19.3386 18.9128 18.9087 19.7624 18.1278L19.7754 18.1162C21.6935 16.4336 21.6127 13.5304 20.0772 11.7142L20.0748 11.7114C19.4523 10.9676 18.5995 10.4357 17.5479 10.2595C17.5429 10.2597 17.5379 10.2598 17.5329 10.2599C17.0653 10.2679 16.6054 10.3808 16.1854 10.5908C15.8149 10.7761 15.3644 10.6259 15.1791 10.2554C14.9939 9.88492 15.1441 9.43442 15.5145 9.24918C15.8521 9.08038 16.2076 8.95394 16.5731 8.87184C16.3177 7.89416 15.9096 7.1171 15.4183 6.51345C15.4 6.49105 15.3832 6.46771 15.3678 6.44356C13.6925 4.4866 10.8618 4.24761 8.67552 5.39309C7.58506 5.96441 6.69744 6.86407 6.22602 8.01685C5.79946 9.05994 5.69356 10.3593 6.14701 11.8917ZM17.0183 6.16694C17.5046 6.91683 17.8798 7.80735 18.1084 8.84115C19.1024 9.06352 19.9614 9.52969 20.6591 10.1602C21.0126 9.69878 21.2199 9.12225 21.2199 8.5C21.2199 6.98421 19.9857 5.75 18.4699 5.75C17.9382 5.75 17.439 5.90204 17.0183 6.16694ZM21.6493 11.3149C23.2026 13.6586 23.2008 17.1006 20.7711 19.2381C19.6422 20.2728 18.1624 20.8406 16.6273 20.83H5.53995C5.52178 20.83 5.50361 20.8293 5.48549 20.828C0.203318 20.4434 -0.112632 13.127 4.61705 11.9854C4.18276 10.2916 4.3032 8.75596 4.83763 7.44908C5.45871 5.9303 6.61484 4.77933 7.97938 4.06441C10.48 2.75426 13.8269 2.85329 16.0649 4.9995C16.7505 4.52453 17.5829 4.25 18.4699 4.25C20.8142 4.25 22.7199 6.15578 22.7199 8.5C22.7199 9.57468 22.3186 10.564 21.6493 11.3149Z" fill="#595854"/>
</svg>
