<svg width="24" height="24" viewBox="0 0 24 24" fill="none" xmlns="http://www.w3.org/2000/svg">
<path fill-rule="evenodd" clip-rule="evenodd" d="M11.4923 8.08108C11.4923 6.9701 10.4344 6.47205 9.71455 6.92827L9.70568 6.93389L6.53801 8.87962L6.53645 8.88058L3.37081 10.8359C2.5393 11.3576 2.54733 12.6693 3.36861 13.1763L6.53645 15.1329L6.53801 15.1338L9.70564 17.0797L9.70702 17.0805C10.4311 17.5275 11.4923 17.0197 11.4923 15.911L11.4923 8.08108ZM8.91637 5.65826C10.7948 4.47276 12.9923 5.98485 12.9923 8.08108V9.15683L15.5073 7.60343L15.5089 7.60246L18.6739 5.65827C20.5523 4.47275 22.7499 5.98484 22.7499 8.08108V15.911C22.7499 18.011 20.5526 19.514 18.6775 18.3574C18.6772 18.3573 18.6778 18.3576 18.6775 18.3574L15.5089 16.411L15.5073 16.41L12.9923 14.8566V15.911C12.9923 18.011 10.7949 19.5141 8.91987 18.3574C8.91962 18.3572 8.92011 18.3575 8.91987 18.3574L5.75133 16.411L5.74977 16.41L2.58072 14.4527C2.58067 14.4526 2.58078 14.4527 2.58072 14.4527C0.803357 13.3554 0.810754 10.6679 2.57694 9.56316L2.58054 9.56091L5.75133 7.60246L8.91637 5.65826ZM13.1324 13.1801L16.294 15.1329L16.2956 15.1338L19.4632 17.0797L19.4646 17.0805C20.1887 17.5275 21.2499 17.0197 21.2499 15.911V8.08108C21.2499 6.9701 20.192 6.47205 19.4721 6.92827L19.4632 6.93389L16.2956 8.87962L16.294 8.88059L13.1324 10.8334M13.1324 13.1801C13.0784 13.1452 13.0323 13.1117 12.9923 13.0789L13.1324 13.1801Z" fill="#595854"/>
</svg>
