<svg width="24" height="24" viewBox="0 0 24 24" fill="none" xmlns="http://www.w3.org/2000/svg">
<path fill-rule="evenodd" clip-rule="evenodd" d="M16.4005 1.86589C16.7507 2.08708 16.8553 2.55029 16.6341 2.9005L15.6318 4.48754C16.6169 4.7186 17.4007 5.16011 17.9336 5.96265C18.5793 6.93521 18.75 8.29695 18.75 10V14C18.75 15.9946 18.5188 17.5418 17.5303 18.5303C16.5418 19.5188 14.9946 19.75 13 19.75C12.5858 19.75 12.25 19.4142 12.25 19C12.25 18.5858 12.5858 18.25 13 18.25C15.0054 18.25 15.9582 17.9812 16.4697 17.4697C16.9812 16.9582 17.25 16.0054 17.25 14V10C17.25 8.31306 17.0607 7.3598 16.6839 6.79236C16.3717 6.32204 15.8462 6.00162 14.7695 5.85283L4.63412 21.9005C4.41293 22.2507 3.94972 22.3553 3.59951 22.1341C3.24929 21.9129 3.1447 21.4497 3.36588 21.0995L4.36982 19.5099C3.38649 19.2794 2.60343 18.8409 2.07018 18.043C1.42041 17.0707 1.25 15.7073 1.25 14V10C1.25 8.00537 1.48116 6.45818 2.46967 5.46968C3.45818 4.48117 5.00536 4.25001 7 4.25001C7.41421 4.25001 7.75 4.58579 7.75 5.00001C7.75 5.41422 7.41421 5.75001 7 5.75001C4.99464 5.75001 4.04182 6.01884 3.53033 6.53034C3.01884 7.04183 2.75 7.99465 2.75 10V14C2.75 15.6927 2.93959 16.6443 3.31732 17.2095C3.62913 17.6761 4.15443 17.9949 5.23196 18.1449L15.3659 2.09951C15.5871 1.7493 16.0503 1.6447 16.4005 1.86589ZM19.75 9.50001C19.75 9.08579 20.0858 8.75001 20.5 8.75001C21.2564 8.75001 21.9868 8.85741 22.4125 9.42501C22.6168 9.69744 22.6895 10.0003 22.7208 10.2507C22.7501 10.4853 22.75 10.7446 22.75 10.9739V13.0261C22.75 13.2554 22.7501 13.5147 22.7208 13.7493C22.6895 13.9997 22.6168 14.3026 22.4125 14.575C21.9868 15.1426 21.2564 15.25 20.5 15.25C20.0858 15.25 19.75 14.9142 19.75 14.5C19.75 14.0858 20.0858 13.75 20.5 13.75C20.8433 13.75 21.0426 13.7202 21.1541 13.6872C21.182 13.6789 21.2008 13.6716 21.2129 13.6661C21.2181 13.6483 21.2257 13.6161 21.2324 13.5632C21.2488 13.4318 21.25 13.2644 21.25 13V11C21.25 10.7356 21.2488 10.5682 21.2324 10.4368C21.2257 10.3839 21.2181 10.3517 21.2129 10.3339C21.2008 10.3285 21.182 10.3211 21.1541 10.3129C21.0426 10.2798 20.8433 10.25 20.5 10.25C20.0858 10.25 19.75 9.91422 19.75 9.50001Z" fill="#595854"/>
</svg>
