<svg width="24" height="24" viewBox="0 0 24 24" fill="none" xmlns="http://www.w3.org/2000/svg">
<path fill-rule="evenodd" clip-rule="evenodd" d="M16.47 2.75C14.2773 2.75 12.4365 4.22956 11.8918 6.25102C13.7607 6.27336 15.2595 6.66634 16.2816 7.68842C17.3037 8.7105 17.6966 10.2093 17.719 12.0782C19.7404 11.5335 21.22 9.69266 21.22 7.5C21.22 7.28829 21.2029 7.0816 21.1711 6.89851C21.1692 6.88785 21.1676 6.87715 21.1662 6.86642C20.8642 4.53652 18.8793 2.75 16.47 2.75ZM7.22 7.75C5.41897 7.75 4.35336 8.1148 3.71908 8.74908C3.0848 9.38336 2.72 10.449 2.72 12.25V16.75C2.72 18.551 3.0848 19.6166 3.71908 20.2509C4.35336 20.8852 5.41897 21.25 7.22 21.25H11.72C13.521 21.25 14.5866 20.8852 15.2209 20.2509C15.8552 19.6166 16.22 18.551 16.22 16.75V12.25C16.22 10.449 15.8552 9.38336 15.2209 8.74908C14.5866 8.1148 13.521 7.75 11.72 7.75H7.22ZM17.72 13.6182V16.75C17.72 18.699 17.3348 20.2584 16.2816 21.3116C15.2284 22.3648 13.669 22.75 11.72 22.75H7.22C5.27103 22.75 3.71164 22.3648 2.65842 21.3116C1.6052 20.2584 1.22 18.699 1.22 16.75V12.25C1.22 10.301 1.6052 8.74164 2.65842 7.68842C3.71164 6.6352 5.27103 6.25 7.22 6.25H10.3518C10.9279 3.39159 13.445 1.25 16.47 1.25C19.6352 1.25 22.2468 3.59539 22.6517 6.65774C22.698 6.92985 22.72 7.21734 22.72 7.5C22.72 10.525 20.5784 13.0421 17.72 13.6182Z" fill="#595854"/>
</svg>
