<svg width="24" height="24" viewBox="0 0 24 24" fill="none" xmlns="http://www.w3.org/2000/svg">
<path fill-rule="evenodd" clip-rule="evenodd" d="M3.88534 5.2371C3.20538 5.86848 2.75 6.89295 2.75 8.5V15.5C2.75 17.107 3.20538 18.1315 3.88534 18.7629C4.57535 19.4036 5.61497 19.75 7 19.75H17C18.385 19.75 19.4246 19.4036 20.1147 18.7629C20.7946 18.1315 21.25 17.107 21.25 15.5V8.5C21.25 6.89295 20.7946 5.86848 20.1147 5.2371C19.4246 4.59637 18.385 4.25 17 4.25H7C5.61497 4.25 4.57535 4.59637 3.88534 5.2371ZM2.86466 4.1379C3.92465 3.15363 5.38503 2.75 7 2.75H17C18.615 2.75 20.0754 3.15363 21.1353 4.1379C22.2054 5.13152 22.75 6.60705 22.75 8.5V15.5C22.75 17.393 22.2054 18.8685 21.1353 19.8621C20.0754 20.8464 18.615 21.25 17 21.25H7C5.38503 21.25 3.92465 20.8464 2.86466 19.8621C1.79462 18.8685 1.25 17.393 1.25 15.5V8.5C1.25 6.60705 1.79462 5.13152 2.86466 4.1379ZM3.75 8.5C3.75 6.70579 5.20579 5.25 7 5.25H8.5C8.91421 5.25 9.25 5.58579 9.25 6C9.25 6.41421 8.91421 6.75 8.5 6.75H7C6.03421 6.75 5.25 7.53421 5.25 8.5V10C5.25 10.4142 4.91421 10.75 4.5 10.75C4.08579 10.75 3.75 10.4142 3.75 10V8.5ZM14.75 6C14.75 5.58579 15.0858 5.25 15.5 5.25H17C18.7942 5.25 20.25 6.70579 20.25 8.5V10C20.25 10.4142 19.9142 10.75 19.5 10.75C19.0858 10.75 18.75 10.4142 18.75 10V8.5C18.75 7.53421 17.9658 6.75 17 6.75H15.5C15.0858 6.75 14.75 6.41421 14.75 6ZM12 9.75C10.7574 9.75 9.75 10.7574 9.75 12C9.75 13.2426 10.7574 14.25 12 14.25C13.2426 14.25 14.25 13.2426 14.25 12C14.25 10.7574 13.2426 9.75 12 9.75ZM8.25 12C8.25 9.92893 9.92893 8.25 12 8.25C14.0711 8.25 15.75 9.92893 15.75 12C15.75 14.0711 14.0711 15.75 12 15.75C9.92893 15.75 8.25 14.0711 8.25 12ZM4.5 13.25C4.91421 13.25 5.25 13.5858 5.25 14V15.5C5.25 16.4658 6.03421 17.25 7 17.25H8.5C8.91421 17.25 9.25 17.5858 9.25 18C9.25 18.4142 8.91421 18.75 8.5 18.75H7C5.20579 18.75 3.75 17.2942 3.75 15.5V14C3.75 13.5858 4.08579 13.25 4.5 13.25ZM19.5 13.25C19.9142 13.25 20.25 13.5858 20.25 14V15.5C20.25 17.2942 18.7942 18.75 17 18.75H15.5C15.0858 18.75 14.75 18.4142 14.75 18C14.75 17.5858 15.0858 17.25 15.5 17.25H17C17.9658 17.25 18.75 16.4658 18.75 15.5V14C18.75 13.5858 19.0858 13.25 19.5 13.25Z" fill="#595854"/>
</svg>
