<svg width="24" height="24" viewBox="0 0 24 24" fill="none" xmlns="http://www.w3.org/2000/svg">
<path fill-rule="evenodd" clip-rule="evenodd" d="M8.10936 4.7124C8.10927 4.71234 8.10946 4.71246 8.10936 4.7124L12.1394 7.15597L16.1676 9.60867C16.1675 9.60861 16.1677 9.60873 16.1676 9.60867C18.2964 10.901 18.2968 14.0958 16.1682 15.3883C16.168 15.3884 16.1684 15.3882 16.1682 15.3883L12.1394 17.8413L8.10936 20.2849C8.10927 20.285 8.10946 20.2849 8.10936 20.2849C5.89429 21.6291 3.25 19.898 3.25 17.3899L3.25 7.60749C3.25 5.0864 5.8965 3.36961 8.10936 4.7124ZM7.32751 5.9845C6.23945 5.32412 4.75 6.10125 4.75 7.60749L4.75 17.3899C4.75 18.8886 6.24166 19.6719 7.32751 19.0128L11.3569 16.5696L15.3858 14.1165C16.5575 13.4054 16.5575 11.5919 15.3858 10.8808L7.32751 5.9845ZM20 5.43113C20.4142 5.43113 20.75 5.76482 20.75 6.17643L20.75 18.8107C20.75 19.2223 20.4142 19.556 20 19.556C19.5858 19.556 19.25 19.2223 19.25 18.8107L19.25 6.17643C19.25 5.76482 19.5858 5.43113 20 5.43113Z" fill="#595854"/>
</svg>
