<svg width="24" height="24" viewBox="0 0 24 24" fill="none" xmlns="http://www.w3.org/2000/svg">
<path fill-rule="evenodd" clip-rule="evenodd" d="M3.06464 3.09467C4.39911 1.7602 6.396 1.25 8.96997 1.25H14.97C17.5439 1.25 19.5408 1.7602 20.8753 3.09467C22.2098 4.42914 22.72 6.42603 22.72 9V15C22.72 17.574 22.2098 19.5709 20.8753 20.9053C19.5408 22.2398 17.5439 22.75 14.97 22.75H8.96997C6.396 22.75 4.39911 22.2398 3.06464 20.9053C1.73017 19.5709 1.21997 17.574 1.21997 15V9C1.21997 6.42603 1.73017 4.42914 3.06464 3.09467ZM4.1253 4.15533C3.20977 5.07086 2.71997 6.57397 2.71997 9V15C2.71997 17.426 3.20977 18.9291 4.1253 19.8447C5.04083 20.7602 6.54394 21.25 8.96997 21.25H14.22V2.75H8.96997C6.54394 2.75 5.04083 3.2398 4.1253 4.15533ZM15.72 2.76686V21.2331C17.712 21.1399 18.9974 20.6619 19.8146 19.8447C20.7302 18.9291 21.22 17.426 21.22 15V9C21.22 6.57397 20.7302 5.07086 19.8146 4.15533C18.9974 3.33811 17.712 2.8601 15.72 2.76686ZM7.43964 8.90967C7.73253 8.61678 8.20741 8.61678 8.5003 8.90967L11.0603 11.4697C11.3532 11.7626 11.3532 12.2374 11.0603 12.5303L8.5003 15.0903C8.20741 15.3832 7.73253 15.3832 7.43964 15.0903C7.14675 14.7974 7.14675 14.3226 7.43964 14.0297L9.46931 12L7.43964 9.97033C7.14675 9.67744 7.14675 9.20256 7.43964 8.90967Z" fill="#595854"/>
</svg>
