<svg width="24" height="24" viewBox="0 0 24 24" fill="none" xmlns="http://www.w3.org/2000/svg">
<path fill-rule="evenodd" clip-rule="evenodd" d="M4.18597 5.73948C6.02131 3.4615 8.84209 1.98999 12 1.98999C17.5237 1.98999 22.01 6.46526 22.01 12V12.5194L22.4797 12.0497C22.7726 11.7568 23.2474 11.7568 23.5403 12.0497C23.8332 12.3426 23.8332 12.8175 23.5403 13.1103L21.8003 14.8503C21.6526 14.9981 21.4586 15.0713 21.265 15.07C21.2633 15.07 21.2617 15.07 21.26 15.07C21.0157 15.07 20.7988 14.9532 20.6618 14.7725L18.9997 13.1103C18.7068 12.8175 18.7068 12.3426 18.9997 12.0497C19.2926 11.7568 19.7674 11.7568 20.0603 12.0497L20.51 12.4994V12C20.51 7.29474 16.6963 3.48999 12 3.48999C9.31791 3.48999 6.91869 4.73854 5.35402 6.68057C5.09415 7.00312 4.622 7.05392 4.29945 6.79405C3.9769 6.53418 3.92609 6.06203 4.18597 5.73948ZM11.8 6C12.2142 6 12.55 6.33579 12.55 6.75V7.75H13.38C14.7913 7.75 15.88 8.99345 15.88 10.25C15.88 10.763 15.7268 11.2391 15.4634 11.6352C16.215 12.062 16.75 12.815 16.75 13.75C16.75 15.2271 15.4148 16.25 14 16.25H12.55V17.25C12.55 17.6642 12.2142 18 11.8 18C11.3858 18 11.05 17.6642 11.05 17.25V16.25H9C8.58579 16.25 8.25 15.9142 8.25 15.5V8.5C8.25 8.08579 8.58579 7.75 9 7.75H11.05V6.75C11.05 6.33579 11.3858 6 11.8 6ZM9.75 9.25V11.25H13.38C13.9358 11.25 14.38 10.8058 14.38 10.25C14.38 9.76655 13.9086 9.25 13.38 9.25H9.75ZM9.75 12.75V14.75H14C14.7852 14.75 15.25 14.2129 15.25 13.75C15.25 13.2871 14.7852 12.75 14 12.75H9.75ZM1.99 11.488V12C1.99 17.5347 6.47631 22.01 12 22.01C15.1579 22.01 17.9787 20.5385 19.814 18.2605C20.0739 17.938 20.0231 17.4658 19.7005 17.2059C19.378 16.9461 18.9058 16.9969 18.646 17.3194C17.0813 19.2615 14.6821 20.51 12 20.51C7.30369 20.51 3.49 16.7053 3.49 12V11.5006L3.93967 11.9503C4.23257 12.2432 4.70744 12.2432 5.00033 11.9503C5.29322 11.6574 5.29322 11.1825 5.00033 10.8897L3.33818 9.22751C3.20123 9.04675 2.98425 8.92999 2.74 8.92999C2.73832 8.92999 2.73664 8.93 2.73496 8.93001C2.73295 8.93 2.73094 8.92999 2.72892 8.92999C2.52964 8.93028 2.33866 9.00987 2.19815 9.15119L0.468146 10.8912C0.176097 11.1849 0.177463 11.6598 0.471198 11.9518C0.764933 12.2439 1.23981 12.2425 1.53185 11.9488L1.99 11.488Z" fill="#595854"/>
</svg>
