<svg width="24" height="24" viewBox="0 0 24 24" fill="none" xmlns="http://www.w3.org/2000/svg">
<path fill-rule="evenodd" clip-rule="evenodd" d="M14.8429 2.66807C15.7162 2.63355 16.5915 3.01082 17.2903 3.70965L20.3203 6.73966C21.6594 8.0787 21.6982 10.3482 20.0519 11.3932L17.7642 12.8412L17.9678 16.3209C18.0814 17.4711 17.9657 18.4655 17.341 19.1952C16.7242 19.9158 15.7634 20.195 14.6791 20.3247L6.35987 21.3046C6.35954 21.3046 6.3602 21.3045 6.35987 21.3046C5.28541 21.434 4.29651 21.1117 3.60908 20.426C2.92129 19.7399 2.59588 18.7515 2.72524 17.6715C2.72521 17.6718 2.72528 17.6712 2.72524 17.6715L3.7049 9.35442C3.70494 9.35406 3.70498 9.35369 3.70503 9.35332C3.83028 8.26359 4.11079 7.32131 4.83933 6.71572C5.56524 6.11233 6.55554 5.9937 7.69445 6.0613L7.69572 6.06138L11.1833 6.27436L12.6343 3.98202C12.6347 3.98145 12.635 3.98087 12.6354 3.9803C13.1486 3.1617 13.957 2.70309 14.8429 2.66807ZM11.2506 7.78127L7.60556 7.55867C7.60536 7.55866 7.60576 7.55868 7.60556 7.55867C6.55488 7.49637 6.06472 7.64769 5.79818 7.86925C5.53446 8.08846 5.30992 8.52574 5.19511 9.52555L5.19485 9.52772L4.21485 17.8477L4.21466 17.8493C4.17662 18.1663 4.20243 18.4489 4.27512 18.6936L7.1088 15.8505C7.40121 15.5572 7.87608 15.5564 8.16946 15.8488C8.46283 16.1412 8.46362 16.6161 8.17121 16.9094L5.33539 19.7546C5.58058 19.8277 5.86354 19.8536 6.18014 19.8154L6.18227 19.8151L14.5009 18.8353C14.5013 18.8353 14.5016 18.8352 14.502 18.8352C15.5069 18.7148 15.9709 18.4891 16.2015 18.2197C16.4214 17.9628 16.5775 17.488 16.4738 16.455C16.4727 16.4446 16.4719 16.4342 16.4713 16.4238L16.2586 12.7892L11.2506 7.78127ZM17.086 11.4953L19.2481 10.1268C19.248 10.1268 19.2481 10.1267 19.2481 10.1268C19.9016 9.7117 20.0805 8.62118 19.2597 7.80032L16.2297 4.77032C15.7785 4.31915 15.2938 4.15142 14.9021 4.1669C14.5237 4.18186 14.1626 4.36763 13.9057 4.77795L13.9037 4.78111L12.5347 6.94401L17.086 11.4953Z" fill="#595854"/>
</svg>
