<svg width="24" height="24" viewBox="0 0 24 24" fill="none" xmlns="http://www.w3.org/2000/svg">
<path fill-rule="evenodd" clip-rule="evenodd" d="M2.0206 1.90059C2.58777 1.39665 3.37645 1.25 4.23 1.25H8.27C9.12355 1.25 9.91223 1.39665 10.4794 1.90059C11.0692 2.42461 11.25 3.17847 11.25 3.98V8.52C11.25 9.32097 11.0694 10.076 10.4783 10.5991C9.91006 11.102 9.12079 11.2451 8.26778 11.24H4.23C3.37912 11.24 2.58971 11.0968 2.02169 10.5941C1.43009 10.0706 1.25 9.31497 1.25 8.51V3.98C1.25 3.17847 1.43081 2.42461 2.0206 1.90059ZM3.0169 3.02191C2.88919 3.13539 2.75 3.37153 2.75 3.98V8.51C2.75 9.12503 2.88991 9.35945 3.01581 9.47087C3.16529 9.60316 3.49088 9.74 4.23 9.74H8.27472C9.01075 9.74463 9.3355 9.60746 9.48419 9.47586C9.61057 9.36402 9.75 9.12903 9.75 8.52V3.98C9.75 3.37153 9.61081 3.13539 9.4831 3.02191C9.33277 2.88835 9.00645 2.75 8.27 2.75H4.23C3.49355 2.75 3.16723 2.88835 3.0169 3.02191ZM13.4884 1.98842C14.0562 1.42069 14.8599 1.25 15.73 1.25H19.77C20.6401 1.25 21.4438 1.42069 22.0116 1.98842C22.5793 2.55615 22.75 3.35988 22.75 4.23V8.27C22.75 9.14012 22.5793 9.94385 22.0116 10.5116C21.4438 11.0793 20.6401 11.25 19.77 11.25H15.73C14.8599 11.25 14.0562 11.0793 13.4884 10.5116C12.9207 9.94385 12.75 9.14012 12.75 8.27V4.23C12.75 3.35988 12.9207 2.55615 13.4884 1.98842ZM14.5491 3.04908C14.3993 3.19885 14.25 3.51012 14.25 4.23V8.27C14.25 8.98988 14.3993 9.30115 14.5491 9.45092C14.6988 9.60069 15.0101 9.75 15.73 9.75H19.77C20.4899 9.75 20.8012 9.60069 20.9509 9.45092C21.1007 9.30115 21.25 8.98988 21.25 8.27V4.23C21.25 3.51012 21.1007 3.19885 20.9509 3.04908C20.8012 2.89931 20.4899 2.75 19.77 2.75H15.73C15.0101 2.75 14.6988 2.89931 14.5491 3.04908ZM1.98842 13.4884C2.55615 12.9207 3.35988 12.75 4.23 12.75H8.27C9.14012 12.75 9.94385 12.9207 10.5116 13.4884C11.0793 14.0562 11.25 14.8599 11.25 15.73V19.77C11.25 20.6401 11.0793 21.4438 10.5116 22.0116C9.94385 22.5793 9.14012 22.75 8.27 22.75H4.23C3.35988 22.75 2.55615 22.5793 1.98842 22.0116C1.42069 21.4438 1.25 20.6401 1.25 19.77V15.73C1.25 14.8599 1.42069 14.0562 1.98842 13.4884ZM3.04908 14.5491C2.89931 14.6988 2.75 15.0101 2.75 15.73V19.77C2.75 20.4899 2.89931 20.8012 3.04908 20.9509C3.19885 21.1007 3.51012 21.25 4.23 21.25H8.27C8.98988 21.25 9.30115 21.1007 9.45092 20.9509C9.60069 20.8012 9.75 20.4899 9.75 19.77V15.73C9.75 15.0101 9.60069 14.6988 9.45092 14.5491C9.30115 14.3993 8.98988 14.25 8.27 14.25H4.23C3.51012 14.25 3.19885 14.3993 3.04908 14.5491ZM17.5 13.75C17.9142 13.75 18.25 14.0858 18.25 14.5V16.75H20.5C20.9142 16.75 21.25 17.0858 21.25 17.5C21.25 17.9142 20.9142 18.25 20.5 18.25H18.25V20.5C18.25 20.9142 17.9142 21.25 17.5 21.25C17.0858 21.25 16.75 20.9142 16.75 20.5V18.25H14.5C14.0858 18.25 13.75 17.9142 13.75 17.5C13.75 17.0858 14.0858 16.75 14.5 16.75H16.75V14.5C16.75 14.0858 17.0858 13.75 17.5 13.75Z" fill="#595854"/>
</svg>
