<svg width="24" height="24" viewBox="0 0 24 24" fill="none" xmlns="http://www.w3.org/2000/svg">
<path fill-rule="evenodd" clip-rule="evenodd" d="M1.16998 12C1.16998 6.08579 6.00577 1.25 11.92 1.25C17.8342 1.25 22.67 6.08579 22.67 12C22.67 17.9142 17.8342 22.75 11.92 22.75C6.00577 22.75 1.16998 17.9142 1.16998 12ZM11.92 2.75C6.8342 2.75 2.66998 6.91421 2.66998 12C2.66998 17.0858 6.8342 21.25 11.92 21.25C17.0058 21.25 21.17 17.0858 21.17 12C21.17 6.91421 17.0058 2.75 11.92 2.75ZM7.16998 12C7.16998 11.5858 7.50577 11.25 7.91998 11.25H15.92C16.3342 11.25 16.67 11.5858 16.67 12C16.67 12.4142 16.3342 12.75 15.92 12.75H7.91998C7.50577 12.75 7.16998 12.4142 7.16998 12Z" fill="#595854"/>
</svg>
