<svg width="24" height="24" viewBox="0 0 24 24" fill="none" xmlns="http://www.w3.org/2000/svg">
<path fill-rule="evenodd" clip-rule="evenodd" d="M12.01 1.24756C12.6151 1.24756 13.2579 1.33158 13.7824 1.52746L18.7732 3.39775C18.7858 3.40248 18.7983 3.40754 18.8106 3.41294C18.9679 3.48173 19.1297 3.56095 19.288 3.65137L21.4697 1.46973C21.7626 1.17684 22.2374 1.17684 22.5303 1.46973C22.8232 1.76262 22.8232 2.2375 22.5303 2.53039L2.53033 22.5304C2.23744 22.8233 1.76256 22.8233 1.46967 22.5304C1.17678 22.2375 1.17678 21.7626 1.46967 21.4697L4.50093 18.4385C3.99118 18.0019 3.56065 17.4034 3.24874 16.7833C2.8989 16.0878 2.66 15.289 2.66 14.5501V7.12006C2.66 6.32661 2.96095 5.53537 3.40741 4.89146C3.85385 4.24759 4.49007 3.68716 5.23669 3.4078C5.23647 3.40788 5.2369 3.40772 5.23669 3.4078L10.236 1.52804L10.2376 1.52746C10.7621 1.33158 11.4049 1.24756 12.01 1.24756ZM5.56687 17.3725C5.21692 17.1034 4.86056 16.6496 4.58876 16.1093C4.3111 15.5573 4.16 14.9911 4.16 14.5501V7.12006C4.16 6.6935 4.32905 6.19474 4.64009 5.74616C4.95103 5.29771 5.35957 4.96328 5.76267 4.81256L10.7624 2.93265C10.7622 2.93274 10.7626 2.93257 10.7624 2.93265C11.0679 2.81869 11.5204 2.74756 12.01 2.74756C12.4998 2.74756 12.9518 2.81849 13.2573 2.93254C13.2572 2.93251 13.2574 2.93258 13.2573 2.93254L18.167 4.77244L5.56687 17.3725ZM20.6 6.37006C21.0142 6.37006 21.35 6.70584 21.35 7.12006V14.5601C21.35 15.299 21.1111 16.0978 20.7613 16.7933C20.4113 17.4891 19.912 18.1576 19.319 18.6008L15.0207 21.8095C15.0203 21.8099 15.0198 21.8102 15.0194 21.8105C14.1617 22.4548 13.0633 22.7551 12 22.7551C10.9364 22.7551 9.83768 22.4546 8.97988 21.81C8.97969 21.8098 8.98006 21.8101 8.97988 21.81L7.3906 20.6205C7.05898 20.3723 6.99135 19.9023 7.23955 19.5707C7.48774 19.239 7.95777 19.1714 8.2894 19.4196L9.88068 20.6106C10.4328 21.0256 11.1988 21.2551 12 21.2551C12.8012 21.2551 13.5672 21.0256 14.1193 20.6106L14.1213 20.6091L18.421 17.3993C18.778 17.1325 19.1437 16.671 19.4212 16.1193C19.6989 15.5673 19.85 15.0011 19.85 14.5601V7.12006C19.85 6.70584 20.1858 6.37006 20.6 6.37006Z" fill="#595854"/>
</svg>
