<svg width="24" height="24" viewBox="0 0 24 24" fill="none" xmlns="http://www.w3.org/2000/svg">
<path fill-rule="evenodd" clip-rule="evenodd" d="M12 2.45001C12.4142 2.45001 12.75 2.7858 12.75 3.20001V3.21001C12.75 3.62423 12.4142 3.96001 12 3.96001C11.5858 3.96001 11.25 3.62423 11.25 3.21001V3.20001C11.25 2.7858 11.5858 2.45001 12 2.45001ZM7.75 4.75001C8.16421 4.75001 8.5 5.0858 8.5 5.50001V5.51001C8.5 5.92423 8.16421 6.26001 7.75 6.26001C7.33579 6.26001 7 5.92423 7 5.51001V5.50001C7 5.0858 7.33579 4.75001 7.75 4.75001ZM16.25 4.75001C16.6642 4.75001 17 5.0858 17 5.50001V5.51001C17 5.92423 16.6642 6.26001 16.25 6.26001C15.8358 6.26001 15.5 5.92423 15.5 5.51001V5.50001C15.5 5.0858 15.8358 4.75001 16.25 4.75001ZM3.5 6.95001C3.91421 6.95001 4.25 7.2858 4.25 7.70001V7.71001C4.25 8.12423 3.91421 8.46001 3.5 8.46001C3.08579 8.46001 2.75 8.12423 2.75 7.71001V7.70001C2.75 7.2858 3.08579 6.95001 3.5 6.95001ZM12 6.95001C12.4142 6.95001 12.75 7.2858 12.75 7.70001V7.71001C12.75 8.12423 12.4142 8.46001 12 8.46001C11.5858 8.46001 11.25 8.12423 11.25 7.71001V7.70001C11.25 7.2858 11.5858 6.95001 12 6.95001ZM20.5 6.95001C20.9142 6.95001 21.25 7.2858 21.25 7.70001V7.71001C21.25 8.12423 20.9142 8.46001 20.5 8.46001C20.0858 8.46001 19.75 8.12423 19.75 7.71001V7.70001C19.75 7.2858 20.0858 6.95001 20.5 6.95001ZM7.8 8.95001C8.21421 8.95001 8.55 9.2858 8.55 9.70001V9.71001C8.55 10.1242 8.21421 10.46 7.8 10.46C7.38579 10.46 7.05 10.1242 7.05 9.71001V9.70001C7.05 9.2858 7.38579 8.95001 7.8 8.95001ZM16.2 8.95001C16.6142 8.95001 16.95 9.2858 16.95 9.70001V9.71001C16.95 10.1242 16.6142 10.46 16.2 10.46C15.7858 10.46 15.45 10.1242 15.45 9.71001V9.70001C15.45 9.2858 15.7858 8.95001 16.2 8.95001ZM3.5 10.95C3.91421 10.95 4.25 11.2858 4.25 11.7V11.71C4.25 12.1242 3.91421 12.46 3.5 12.46C3.08579 12.46 2.75 12.1242 2.75 11.71V11.7C2.75 11.2858 3.08579 10.95 3.5 10.95ZM12 10.95C12.4142 10.95 12.75 11.2858 12.75 11.7V11.71C12.75 12.1242 12.4142 12.46 12 12.46C11.5858 12.46 11.25 12.1242 11.25 11.71V11.7C11.25 11.2858 11.5858 10.95 12 10.95ZM20.5 10.95C20.9142 10.95 21.25 11.2858 21.25 11.7V11.71C21.25 12.1242 20.9142 12.46 20.5 12.46C20.0858 12.46 19.75 12.1242 19.75 11.71V11.7C19.75 11.2858 20.0858 10.95 20.5 10.95ZM7.8 12.95C8.21421 12.95 8.55 13.2858 8.55 13.7V13.71C8.55 14.1242 8.21421 14.46 7.8 14.46C7.38579 14.46 7.05 14.1242 7.05 13.71V13.7C7.05 13.2858 7.38579 12.95 7.8 12.95ZM16.2 12.95C16.6142 12.95 16.95 13.2858 16.95 13.7V13.71C16.95 14.1242 16.6142 14.46 16.2 14.46C15.7858 14.46 15.45 14.1242 15.45 13.71V13.7C15.45 13.2858 15.7858 12.95 16.2 12.95ZM3.5 13.95C3.91421 13.95 4.25 14.2858 4.25 14.7V14.71C4.25 15.1242 3.91421 15.46 3.5 15.46C3.08579 15.46 2.75 15.1242 2.75 14.71V14.7C2.75 14.2858 3.08579 13.95 3.5 13.95ZM20.5 13.95C20.9142 13.95 21.25 14.2858 21.25 14.7V14.71C21.25 15.1242 20.9142 15.46 20.5 15.46C20.0858 15.46 19.75 15.1242 19.75 14.71V14.7C19.75 14.2858 20.0858 13.95 20.5 13.95ZM12 14.95C12.4142 14.95 12.75 15.2858 12.75 15.7V15.71C12.75 16.1242 12.4142 16.46 12 16.46C11.5858 16.46 11.25 16.1242 11.25 15.71V15.7C11.25 15.2858 11.5858 14.95 12 14.95ZM7.8 15.95C8.21421 15.95 8.55 16.2858 8.55 16.7V16.71C8.55 17.1242 8.21421 17.46 7.8 17.46C7.38579 17.46 7.05 17.1242 7.05 16.71V16.7C7.05 16.2858 7.38579 15.95 7.8 15.95ZM16.2 15.95C16.6142 15.95 16.95 16.2858 16.95 16.7V16.71C16.95 17.1242 16.6142 17.46 16.2 17.46C15.7858 17.46 15.45 17.1242 15.45 16.71V16.7C15.45 16.2858 15.7858 15.95 16.2 15.95ZM3.5 16.95C3.91421 16.95 4.25 17.2858 4.25 17.7V17.71C4.25 18.1242 3.91421 18.46 3.5 18.46C3.08579 18.46 2.75 18.1242 2.75 17.71V17.7C2.75 17.2858 3.08579 16.95 3.5 16.95ZM20.5 16.95C20.9142 16.95 21.25 17.2858 21.25 17.7V17.71C21.25 18.1242 20.9142 18.46 20.5 18.46C20.0858 18.46 19.75 18.1242 19.75 17.71V17.7C19.75 17.2858 20.0858 16.95 20.5 16.95ZM12 18.45C12.4142 18.45 12.75 18.7858 12.75 19.2V19.21C12.75 19.6242 12.4142 19.96 12 19.96C11.5858 19.96 11.25 19.6242 11.25 19.21V19.2C11.25 18.7858 11.5858 18.45 12 18.45ZM7.8 18.95C8.21421 18.95 8.55 19.2858 8.55 19.7V19.71C8.55 20.1242 8.21421 20.46 7.8 20.46C7.38579 20.46 7.05 20.1242 7.05 19.71V19.7C7.05 19.2858 7.38579 18.95 7.8 18.95ZM16.2 18.95C16.6142 18.95 16.95 19.2858 16.95 19.7V19.71C16.95 20.1242 16.6142 20.46 16.2 20.46C15.7858 20.46 15.45 20.1242 15.45 19.71V19.7C15.45 19.2858 15.7858 18.95 16.2 18.95ZM12 21.45C12.4142 21.45 12.75 21.7858 12.75 22.2V22.21C12.75 22.6242 12.4142 22.96 12 22.96C11.5858 22.96 11.25 22.6242 11.25 22.21V22.2C11.25 21.7858 11.5858 21.45 12 21.45Z" fill="#595854"/>
</svg>
