<svg width="24" height="24" viewBox="0 0 24 24" fill="none" xmlns="http://www.w3.org/2000/svg">
<path fill-rule="evenodd" clip-rule="evenodd" d="M7.2501 6C7.2501 3.37579 9.37588 1.25 12.0001 1.25C14.6243 1.25 16.7501 3.37579 16.7501 6V11.5C16.7501 14.1242 14.6243 16.25 12.0001 16.25C9.37588 16.25 7.2501 14.1242 7.2501 11.5V6ZM12.0001 2.75C10.2043 2.75 8.7501 4.20421 8.7501 6V11.5C8.7501 13.2958 10.2043 14.75 12.0001 14.75C13.7959 14.75 15.2501 13.2958 15.2501 11.5V6C15.2501 4.20421 13.7959 2.75 12.0001 2.75ZM9.90594 6.68819C9.76335 6.2993 9.96301 5.86844 10.3519 5.72584C11.4186 5.33472 12.5816 5.33472 13.6483 5.72584C14.0372 5.86844 14.2369 6.2993 14.0943 6.68819C13.9517 7.07709 13.5208 7.27675 13.1319 7.13416C12.3986 6.86528 11.6016 6.86528 10.8683 7.13416C10.4794 7.27675 10.0485 7.07709 9.90594 6.68819ZM12.6186 9.27513C12.2141 9.16829 11.7961 9.16829 11.3916 9.27513C10.9912 9.38092 10.5808 9.14202 10.475 8.74154C10.3692 8.34107 10.6081 7.93066 11.0086 7.82487C11.6641 7.65171 12.3461 7.65171 13.0016 7.82487C13.4021 7.93066 13.641 8.34107 13.5352 8.74154C13.4294 9.14202 13.019 9.38092 12.6186 9.27513ZM4.3501 8.9C4.76431 8.9 5.1001 9.23579 5.1001 9.65V11.35C5.1001 15.1558 8.19431 18.25 12.0001 18.25C15.8059 18.25 18.9001 15.1558 18.9001 11.35V9.65C18.9001 9.23579 19.2359 8.9 19.6501 8.9C20.0643 8.9 20.4001 9.23579 20.4001 9.65V11.35C20.4001 15.7315 17.0339 19.3367 12.7501 19.7169V22C12.7501 22.4142 12.4143 22.75 12.0001 22.75C11.5859 22.75 11.2501 22.4142 11.2501 22V19.7169C6.96633 19.3367 3.6001 15.7315 3.6001 11.35V9.65C3.6001 9.23579 3.93588 8.9 4.3501 8.9Z" fill="#595854"/>
</svg>
