<svg width="24" height="24" viewBox="0 0 24 24" fill="none" xmlns="http://www.w3.org/2000/svg">
<path fill-rule="evenodd" clip-rule="evenodd" d="M7.06071 1.36543C7.6648 1.28648 8.31177 1.25 9 1.25H15C15.6785 1.25 16.3168 1.28545 16.9135 1.36209C16.9322 1.36071 16.951 1.36 16.97 1.36C17.0631 1.36 17.1522 1.37696 17.2345 1.40795C18.7536 1.64775 19.9865 2.17582 20.9053 3.09467C22.2398 4.42914 22.75 6.42603 22.75 9V15C22.75 17.574 22.2398 19.5709 20.9053 20.9053C19.5709 22.2398 17.574 22.75 15 22.75H9C6.42603 22.75 4.42914 22.2398 3.09467 20.9053C1.7602 19.5709 1.25 17.574 1.25 15V9C1.25 6.42603 1.7602 4.42914 3.09467 3.09467C3.99338 2.19596 5.19254 1.67109 6.66606 1.42414C6.75897 1.38291 6.86181 1.36 6.97 1.36C7.0007 1.36 7.03097 1.36184 7.06071 1.36543ZM6.22 3.05081C5.32276 3.28663 4.65243 3.65823 4.15533 4.15533C3.6327 4.67796 3.24881 5.39205 3.01556 6.36H6.22V3.05081ZM7.72 6.36V2.80215C8.11515 2.76753 8.54106 2.75 9 2.75H11.25V6.36H7.72ZM11.25 7.86H2.7907C2.76367 8.21529 2.75 8.59477 2.75 9V15C2.75 15.4901 2.76999 15.9425 2.80943 16.36H11.25V7.86ZM11.25 17.86V21.25H9C8.54106 21.25 8.11515 21.2325 7.72 21.1978V17.86H11.25ZM6.22 17.86H3.07236C3.309 18.7172 3.67311 19.3625 4.15533 19.8447C4.65243 20.3418 5.32276 20.7134 6.22 20.9492V17.86ZM12.75 21.25H15C15.4358 21.25 15.8418 21.2342 16.22 21.203V17.86H12.75V21.25ZM17.72 17.86V20.9647C18.6474 20.7298 19.3365 20.3528 19.8447 19.8447C20.3269 19.3625 20.691 18.7172 20.9276 17.86H17.72ZM21.1906 16.36H12.75V7.86H21.2093C21.2363 8.21529 21.25 8.59477 21.25 9V15C21.25 15.4901 21.23 15.9425 21.1906 16.36ZM20.9844 6.36C20.7512 5.39205 20.3673 4.67796 19.8447 4.15533C19.3365 3.64721 18.6474 3.27022 17.72 3.03533V6.36H20.9844ZM16.22 6.36V2.79704C15.8418 2.76581 15.4358 2.75 15 2.75H12.75V6.36H16.22Z" fill="#595854"/>
</svg>
