<svg width="24" height="24" viewBox="0 0 24 24" fill="none" xmlns="http://www.w3.org/2000/svg">
<path fill-rule="evenodd" clip-rule="evenodd" d="M3.85112 3.06492L5.74499 19.2126C5.74839 19.2416 5.7501 19.2708 5.7501 19.3C5.7501 19.3495 5.75739 19.3789 5.76249 19.3937C5.7674 19.408 5.77247 19.4153 5.77626 19.4199C5.78288 19.4278 5.80924 19.4542 5.882 19.4724L5.90144 19.4775L12.0014 21.1775C12.0179 21.1821 12.0341 21.1872 12.0501 21.1929C12.0661 21.1872 12.0824 21.1821 12.0988 21.1775L18.1218 19.499C18.2265 19.4403 18.2904 19.3851 18.3239 19.3449C18.3418 19.3234 18.3475 19.3106 18.3489 19.307C18.3498 19.3048 18.3501 19.3039 18.3501 19.3C18.3501 19.2723 18.3516 19.2447 18.3547 19.2172L20.1547 3.01718C20.1562 3.00364 20.1581 2.99014 20.1603 2.9767C20.1688 2.9256 20.1563 2.88154 20.1154 2.83796C20.0694 2.78886 19.9923 2.75 19.9001 2.75H4.1001C4.02337 2.75 3.97679 2.77629 3.93953 2.81888C3.89933 2.86482 3.85809 2.94744 3.85112 3.06492ZM11.9586 21.2318C11.9586 21.2318 11.9592 21.2315 11.9606 21.2311L11.9586 21.2318ZM2.3501 3.1C2.3501 2.18299 2.99494 1.25 4.1001 1.25H19.9001C20.8774 1.25 21.8159 2.07975 21.6435 3.2005L19.8494 19.3478C19.826 20.1496 19.2153 20.6309 18.7355 20.8708C18.6926 20.8923 18.6477 20.9096 18.6014 20.9225L12.5597 22.6062C12.3935 22.6785 12.2068 22.725 12.0126 22.725C11.8552 22.725 11.6605 22.6927 11.4774 22.5887L5.50723 20.9248C5.18374 20.8419 4.8646 20.6689 4.62393 20.3801C4.38576 20.0943 4.2604 19.7378 4.25071 19.349L2.3552 3.18736C2.3518 3.15837 2.3501 3.1292 2.3501 3.1ZM17.2439 6.90402C17.2969 7.31483 17.0069 7.69083 16.5961 7.74383L14.1501 8.05944V11.5193L16.3807 11.1596C16.5976 11.1246 16.8191 11.1865 16.9864 11.329C17.1537 11.4715 17.2501 11.6802 17.2501 11.9V15.1C17.2501 15.4442 17.0159 15.7441 16.682 15.8276L13.082 16.7276C12.6802 16.8281 12.273 16.5837 12.1725 16.1819C12.072 15.7801 12.3163 15.3729 12.7182 15.2724L15.7501 14.5144V12.7807L13.5195 13.1404C13.3025 13.1754 13.0811 13.1135 12.9138 12.971C12.7465 12.8285 12.6501 12.6198 12.6501 12.4V7.4C12.6501 7.02289 12.9301 6.70443 13.3041 6.65617L16.4041 6.25617C16.8149 6.20316 17.1909 6.49321 17.2439 6.90402ZM10.6001 6.25C11.0143 6.25 11.3501 6.58579 11.3501 7V16C11.3501 16.2359 11.2391 16.4581 11.0505 16.5997C10.8618 16.7414 10.6175 16.786 10.391 16.7203L7.29099 15.8203C6.8932 15.7048 6.66435 15.2887 6.77984 14.8909C6.89532 14.4931 7.31142 14.2643 7.70921 14.3797L9.8501 15.0013V7C9.8501 6.58579 10.1859 6.25 10.6001 6.25Z" fill="#595854"/>
</svg>
