<svg width="24" height="24" viewBox="0 0 24 24" fill="none" xmlns="http://www.w3.org/2000/svg">
<path fill-rule="evenodd" clip-rule="evenodd" d="M2.72994 4.58C2.72994 2.74768 4.21384 1.25 6.05994 1.25C7.90416 1.25 9.38994 2.73579 9.38994 4.58C9.38994 6.38403 7.97009 7.84491 6.18709 7.90951C6.14628 7.91099 6.10542 7.90913 6.06494 7.90396C6.02446 7.90913 5.9836 7.91099 5.94278 7.90951C4.15885 7.84488 2.74281 6.38429 2.72996 4.58536L2.72994 4.58ZM4.22994 4.57733C4.23831 5.559 4.99372 6.34613 5.94419 6.40782C6.02405 6.40073 6.10584 6.40073 6.1857 6.40782C7.13781 6.34607 7.88994 5.55792 7.88994 4.58C7.88994 3.56421 7.07573 2.75 6.05994 2.75C5.04694 2.75 4.23138 3.57087 4.22994 4.57733ZM17.9099 2.75C16.8942 2.75 16.0799 3.56421 16.0799 4.58C16.0799 5.55792 16.8321 6.34607 17.7842 6.40782C17.864 6.40073 17.9458 6.40073 18.0257 6.40782C18.9762 6.34613 19.7316 5.559 19.7399 4.57733C19.7385 3.57086 18.9229 2.75 17.9099 2.75ZM14.5799 4.58C14.5799 2.73579 16.0657 1.25 17.9099 1.25C19.756 1.25 21.2399 2.74768 21.2399 4.58V4.58536H21.2399C21.2271 6.38428 19.811 7.84488 18.0271 7.90951C17.9863 7.91099 17.9454 7.90913 17.9049 7.90396C17.8645 7.90913 17.8236 7.91099 17.7828 7.90951C15.9998 7.84491 14.5799 6.38403 14.5799 4.58ZM11.9099 10.22C10.8942 10.22 10.0799 11.0342 10.0799 12.05C10.0799 13.0279 10.8321 13.8161 11.7842 13.8778C11.8652 13.8706 11.9481 13.8707 12.0291 13.8781C12.9718 13.8241 13.7315 13.0343 13.7399 12.0473C13.7385 11.0409 12.9229 10.22 11.9099 10.22ZM8.57994 12.05C8.57994 10.2058 10.0657 8.72 11.9099 8.72C13.756 8.72 15.2399 10.2177 15.2399 12.05V12.0554H15.2399C15.2271 13.8495 13.8147 15.3277 12.0217 15.3797C11.9827 15.3808 11.9436 15.3789 11.9049 15.374C11.8645 15.3791 11.8236 15.381 11.7828 15.3795C9.99979 15.3149 8.57994 13.854 8.57994 12.05ZM3.47523 10.9245C4.35499 10.3411 5.68112 10.1151 6.90052 10.3288C7.30852 10.4002 7.69721 10.1274 7.76869 9.71942C7.84016 9.31142 7.56736 8.92273 7.15935 8.85125C5.63904 8.58492 3.90551 8.83884 2.64527 9.67508L2.64392 9.67597C1.78253 10.2502 1.25244 11.0823 1.25244 12.01C1.25244 12.9374 1.78225 13.7694 2.64324 14.3436C3.8942 15.1812 5.60735 15.4343 7.12411 15.1797C7.53261 15.1111 7.80817 14.7243 7.73959 14.3158C7.67101 13.9073 7.28426 13.6318 6.87577 13.7004C5.6528 13.9057 4.3463 13.6789 3.47732 13.0969L3.47597 13.096C2.92735 12.7302 2.75244 12.3223 2.75244 12.01C2.75244 11.6978 2.92719 11.2902 3.47523 10.9245ZM16.8105 8.85125C18.3308 8.58492 20.0644 8.83884 21.3246 9.67508L21.326 9.67597C22.1874 10.2502 22.7174 11.0823 22.7174 12.01C22.7174 12.9377 22.1874 13.7698 21.326 14.344C20.0751 15.1813 18.3623 15.4343 16.8458 15.1797C16.4373 15.1111 16.1617 14.7243 16.2303 14.3158C16.2989 13.9073 16.6856 13.6318 17.0941 13.7004C18.3171 13.9057 19.6236 13.6789 20.4926 13.0969L20.4939 13.096C21.0425 12.7302 21.2174 12.3223 21.2174 12.01C21.2174 11.6978 21.0427 11.2902 20.4947 10.9246C19.615 10.3411 18.2888 10.1151 17.0694 10.3288C16.6614 10.4002 16.2727 10.1274 16.2012 9.71942C16.1297 9.31142 16.4025 8.92273 16.8105 8.85125ZM12.0037 16.235C13.1722 16.235 14.381 16.526 15.326 17.156C16.1874 17.7302 16.7174 18.5623 16.7174 19.49C16.7174 20.4173 16.1877 21.2492 15.3269 21.8234C14.3778 22.4581 13.1692 22.7525 11.9999 22.7525C10.8307 22.7525 9.62206 22.4581 8.67302 21.8234C7.81216 21.2492 7.28244 20.4173 7.28244 19.49C7.28244 18.5623 7.81253 17.7302 8.67391 17.156L8.67572 17.1548C9.6247 16.5261 10.835 16.235 12.0037 16.235ZM9.50472 18.4049C8.95709 18.7704 8.78244 19.1779 8.78244 19.49C8.78244 19.8023 8.95735 20.2102 9.50597 20.576L9.50686 20.5766C10.1578 21.0119 11.0592 21.2525 11.9999 21.2525C12.9407 21.2525 13.8421 21.0119 14.493 20.5766L14.4939 20.576C15.0425 20.2102 15.2174 19.8023 15.2174 19.49C15.2174 19.1777 15.0425 18.7698 14.4939 18.404C13.8489 17.974 12.9477 17.735 12.0037 17.735C11.0602 17.735 10.1557 17.9738 9.50472 18.4049Z" fill="#595854"/>
</svg>
