<svg width="24" height="24" viewBox="0 0 24 24" fill="none" xmlns="http://www.w3.org/2000/svg">
<path fill-rule="evenodd" clip-rule="evenodd" d="M12 2.53489C8.83407 2.53489 6.35484 5.22157 6.35484 8.41823C6.35484 11.6149 8.83407 14.3016 12 14.3016C15.1659 14.3016 17.6452 11.6149 17.6452 8.41823C17.6452 5.22157 15.1659 2.53489 12 2.53489ZM5 8.41823C5 4.26864 8.1822 1 12 1C15.8178 1 19 4.26864 19 8.41823C19 10.5092 18.192 12.3765 16.9018 13.7146V21.1059C16.9018 21.7504 16.6862 22.3691 16.2071 22.7265C15.7261 23.0854 15.1402 23.061 14.6253 22.798L14.623 22.7969L12.1034 21.4974L12.0964 21.4937C12.0941 21.4929 12.0887 21.4912 12.0798 21.4893C12.0605 21.4851 12.0344 21.482 12.0047 21.482C11.975 21.482 11.9489 21.4851 11.9296 21.4893C11.9208 21.4912 11.9153 21.4929 11.913 21.4937L11.9069 21.497L9.39681 22.7963C9.39673 22.7963 9.39689 22.7962 9.39681 22.7963C8.87828 23.0649 8.28844 23.093 7.80502 22.728C7.3267 22.3669 7.1169 21.7448 7.1169 21.1059L7.12602 13.7433C5.81964 12.4033 5 10.5242 5 8.41823ZM8.47951 14.8299L8.47174 21.1059C8.47174 21.1057 8.47174 21.106 8.47174 21.1059C8.47179 21.2444 8.49407 21.334 8.51429 21.3842C8.53361 21.4322 8.55139 21.447 8.55638 21.4508C8.56084 21.4542 8.57538 21.4644 8.61315 21.4652C8.65369 21.4661 8.72717 21.4555 8.83327 21.4005L11.3388 20.1035C11.5585 19.9856 11.8019 19.9471 12.0047 19.9471C12.2074 19.9471 12.4505 19.9856 12.6701 20.1032L15.1821 21.3987C15.1825 21.3989 15.1829 21.3991 15.1833 21.3994C15.2858 21.4515 15.3582 21.4619 15.3998 21.4609C15.4391 21.46 15.4558 21.4492 15.462 21.4446C15.4629 21.444 15.547 21.3823 15.547 21.1059V14.8134C14.502 15.465 13.2871 15.8365 12 15.8365C10.7238 15.8365 9.51856 15.4712 8.47951 14.8299Z" fill="#595854"/>
</svg>
