<svg width="24" height="24" viewBox="0 0 24 24" fill="none" xmlns="http://www.w3.org/2000/svg">
<path fill-rule="evenodd" clip-rule="evenodd" d="M7.57819 2.91194C4.8091 3.55437 2.75 6.03342 2.75 9C2.75 9.41421 2.41421 9.75 2 9.75C1.58579 9.75 1.25 9.41421 1.25 9C1.25 4.71579 4.71579 1.25 9 1.25C9.2702 1.25 9.51952 1.39534 9.65265 1.63048C9.78578 1.86561 9.78214 2.15417 9.64312 2.38587L8.59312 4.13587C8.38001 4.49106 7.91931 4.60623 7.56413 4.39312C7.20894 4.18001 7.09377 3.71931 7.30688 3.36413L7.57819 2.91194ZM14.2616 3.26158C13.9648 3.55836 13.75 4.09897 13.75 5.15V8.85C13.75 9.90103 13.9648 10.4416 14.2616 10.7384C14.5584 11.0352 15.099 11.25 16.15 11.25H18.85C19.901 11.25 20.4416 11.0352 20.7384 10.7384C21.0352 10.4416 21.25 9.90103 21.25 8.85V5.15C21.25 4.09897 21.0352 3.55836 20.7384 3.26158C20.4416 2.9648 19.901 2.75 18.85 2.75H16.15C15.099 2.75 14.5584 2.9648 14.2616 3.26158ZM13.2009 2.20092C13.9166 1.4852 14.951 1.25 16.15 1.25H18.85C20.049 1.25 21.0834 1.4852 21.7991 2.20092C22.5148 2.91664 22.75 3.95103 22.75 5.15V8.85C22.75 10.049 22.5148 11.0834 21.7991 11.7991C21.0834 12.5148 20.049 12.75 18.85 12.75H16.15C14.951 12.75 13.9166 12.5148 13.2009 11.7991C12.4852 11.0834 12.25 10.049 12.25 8.85V5.15C12.25 3.95103 12.4852 2.91664 13.2009 2.20092ZM3.26158 13.2616C2.9648 13.5584 2.75 14.099 2.75 15.15V18.85C2.75 19.901 2.9648 20.4416 3.26158 20.7384C3.55836 21.0352 4.09897 21.25 5.15 21.25H7.85C8.90103 21.25 9.44164 21.0352 9.73842 20.7384C10.0352 20.4416 10.25 19.901 10.25 18.85V15.15C10.25 14.099 10.0352 13.5584 9.73842 13.2616C9.44164 12.9648 8.90103 12.75 7.85 12.75H5.15C4.09897 12.75 3.55836 12.9648 3.26158 13.2616ZM2.20092 12.2009C2.91664 11.4852 3.95103 11.25 5.15 11.25H7.85C9.04897 11.25 10.0834 11.4852 10.7991 12.2009C11.5148 12.9166 11.75 13.951 11.75 15.15V18.85C11.75 20.049 11.5148 21.0834 10.7991 21.7991C10.0834 22.5148 9.04897 22.75 7.85 22.75H5.15C3.95103 22.75 2.91664 22.5148 2.20092 21.7991C1.4852 21.0834 1.25 20.049 1.25 18.85V15.15C1.25 13.951 1.4852 12.9166 2.20092 12.2009ZM22 14.25C22.4142 14.25 22.75 14.5858 22.75 15C22.75 19.2842 19.2842 22.75 15 22.75C14.7298 22.75 14.4805 22.6047 14.3474 22.3695C14.2142 22.1344 14.2179 21.8458 14.3569 21.6141L15.4069 19.8641C15.62 19.5089 16.0807 19.3938 16.4359 19.6069C16.7911 19.82 16.9062 20.2807 16.6931 20.6359L16.4218 21.0881C19.1909 20.4456 21.25 17.9666 21.25 15C21.25 14.5858 21.5858 14.25 22 14.25Z" fill="#595854"/>
</svg>
