<svg width="24" height="24" viewBox="0 0 24 24" fill="none" xmlns="http://www.w3.org/2000/svg">
<path fill-rule="evenodd" clip-rule="evenodd" d="M3.09467 3.09467C4.42914 1.7602 6.42603 1.25 9 1.25H15C17.574 1.25 19.5709 1.7602 20.9053 3.09467C22.2398 4.42914 22.75 6.42603 22.75 9V15C22.75 17.574 22.2398 19.5709 20.9053 20.9053C19.5709 22.2398 17.574 22.75 15 22.75H9C6.42603 22.75 4.42914 22.2398 3.09467 20.9053C1.7602 19.5709 1.25 17.574 1.25 15V9C1.25 6.42603 1.7602 4.42914 3.09467 3.09467ZM4.15533 4.15533C3.2398 5.07086 2.75 6.57397 2.75 9V15C2.75 17.426 3.2398 18.9291 4.15533 19.8447C5.07086 20.7602 6.57397 21.25 9 21.25H15C17.426 21.25 18.9291 20.7602 19.8447 19.8447C20.7602 18.9291 21.25 17.426 21.25 15V9C21.25 6.57397 20.7602 5.07086 19.8447 4.15533C18.9291 3.2398 17.426 2.75 15 2.75H9C6.57397 2.75 5.07086 3.2398 4.15533 4.15533ZM15.1704 7.35689L7.62662 9.70808C6.54178 10.0353 6.5168 11.5784 7.59717 11.9385L7.59923 11.9392L9.67315 12.6371C10.4797 12.8945 11.0993 13.5381 11.3609 14.3211C11.3611 14.3217 11.3613 14.3223 11.3615 14.3228L12.0619 16.394C12.4197 17.4733 13.9482 17.4699 14.294 16.3668C14.2939 16.367 14.2941 16.3665 14.294 16.3668L16.6356 8.82159C16.9174 7.94019 16.083 7.08121 15.1704 7.35689ZM18.0654 9.27525C18.7203 7.21856 16.7773 5.30051 14.7318 5.92244L7.18986 8.27304C4.6986 9.0279 4.66437 12.5409 7.12163 13.3611C7.12203 13.3612 7.12243 13.3614 7.12283 13.3615L9.20077 14.0608L9.21415 14.0652C9.54346 14.1692 9.82054 14.4433 9.93849 14.7972L9.93952 14.8003L10.6381 16.866C10.6384 16.8668 10.6386 16.8676 10.6389 16.8684C11.4625 19.3464 14.9514 19.2893 15.7258 16.8139L15.7263 16.8123L18.0644 9.27841C18.0647 9.27736 18.065 9.2763 18.0654 9.27525Z" fill="#595854"/>
</svg>
