<svg width="24" height="24" viewBox="0 0 24 24" fill="none" xmlns="http://www.w3.org/2000/svg">
<path fill-rule="evenodd" clip-rule="evenodd" d="M2.77562 9.49976C2.59558 10.2201 2.5 10.9739 2.5 11.75C2.5 12.5262 2.5956 13.28 2.77567 14.0004C2.84693 14.0029 2.91827 14.0155 2.98754 14.0386C4.21283 14.4477 5.45984 14.7687 6.7192 15.0015C6.47693 12.8407 6.47693 10.6593 6.7192 8.4985C5.45984 8.7313 4.21283 9.05226 2.98754 9.46139C2.9173 9.48484 2.84604 9.49732 2.77562 9.49976ZM3.40398 7.75673C4.56757 7.40926 5.74763 7.13606 6.93713 6.93713C7.13061 5.78024 7.39434 4.63226 7.72833 3.49969C7.68251 3.49839 7.63771 3.49298 7.5943 3.48382C5.76835 4.40359 4.28891 5.91057 3.40398 7.75673ZM9.49957 2.77567C10.22 2.5956 10.9738 2.5 11.75 2.5C12.5261 2.5 13.2799 2.59558 14.0002 2.77562C14.0027 2.84604 14.0152 2.9173 14.0386 2.98754C14.4477 4.21283 14.7687 5.45984 15.0015 6.7192C12.8407 6.47693 10.6593 6.47693 8.4985 6.7192C8.73129 5.45984 9.05226 4.21283 9.46139 2.98754C9.48452 2.91827 9.49713 2.84693 9.49957 2.77567ZM8.25856 8.25856C7.96381 10.5767 7.96381 12.9233 8.25856 15.2414C10.5767 15.5362 12.9233 15.5362 15.2414 15.2414C15.5362 12.9233 15.5362 10.5767 15.2414 8.25856C12.9233 7.96382 10.5767 7.96382 8.25856 8.25856ZM16.7808 8.4985C17.0231 10.6593 17.0231 12.8407 16.7808 15.0015C18.0402 14.7687 19.2872 14.4477 20.5125 14.0386C20.5817 14.0155 20.6531 14.0029 20.7243 14.0004C20.9044 13.28 21 12.5262 21 11.75C21 10.9739 20.9044 10.2201 20.7244 9.49976C20.654 9.49732 20.5827 9.48484 20.5125 9.46139C19.2872 9.05226 18.0402 8.7313 16.7808 8.4985ZM20.096 7.75674C19.185 5.85612 17.6439 4.315 15.7433 3.40398C16.0907 4.56757 16.3639 5.74764 16.5629 6.93713C17.7524 7.13606 18.9324 7.40926 20.096 7.75674ZM20.0003 15.7717C20.0016 15.8175 20.007 15.8623 20.0162 15.9057C19.0964 17.7317 17.5894 19.2111 15.7433 20.096C16.0907 18.9324 16.3639 17.7524 16.5629 16.5629C17.7198 16.3694 18.8677 16.1057 20.0003 15.7717ZM15.0015 16.7808C12.8407 17.0231 10.6593 17.0231 8.4985 16.7808C8.73129 18.0402 9.05226 19.2872 9.46139 20.5125C9.48452 20.5817 9.49713 20.6531 9.49956 20.7243C10.22 20.9044 10.9738 21 11.75 21C12.5261 21 13.2799 20.9044 14.0002 20.7244C14.0027 20.654 14.0152 20.5827 14.0386 20.5125C14.4477 19.2872 14.7687 18.0402 15.0015 16.7808ZM7.72833 20.0003C7.68251 20.0016 7.63771 20.007 7.5943 20.0162C5.8222 19.1235 4.37646 17.6778 3.48382 15.9057C3.49298 15.8623 3.49839 15.8175 3.49969 15.7717C4.63226 16.1057 5.78023 16.3694 6.93713 16.5629C7.13061 17.7198 7.39434 18.8677 7.72833 20.0003ZM1 11.75C1 5.81294 5.81294 1 11.75 1C17.6871 1 22.5 5.81294 22.5 11.75C22.5 17.6871 17.6871 22.5 11.75 22.5C5.81294 22.5 1 17.6871 1 11.75Z" fill="#595854"/>
</svg>
