<svg width="24" height="24" viewBox="0 0 24 24" fill="none" xmlns="http://www.w3.org/2000/svg">
<path fill-rule="evenodd" clip-rule="evenodd" d="M12 2.75C9.65282 2.75 7.75003 4.65279 7.75003 7C7.75003 9.34721 9.65282 11.25 12 11.25C14.3472 11.25 16.25 9.34721 16.25 7C16.25 4.65279 14.3472 2.75 12 2.75ZM6.25003 7C6.25003 3.82436 8.82439 1.25 12 1.25C15.1757 1.25 17.75 3.82436 17.75 7C17.75 10.1756 15.1757 12.75 12 12.75C8.82439 12.75 6.25003 10.1756 6.25003 7ZM18 14.75C17.2385 14.75 16.5316 15.0169 15.9675 15.4665L15.9662 15.4675C15.221 16.0588 14.75 16.9745 14.75 18C14.75 18.6094 14.9205 19.1833 15.2184 19.6663L15.2247 19.6765L15.2246 19.6766C15.7844 20.6177 16.8142 21.25 18 21.25C18.8227 21.25 19.5645 20.9499 20.1283 20.4425C20.1348 20.4367 20.1414 20.431 20.1481 20.4254C20.391 20.2216 20.6052 19.9684 20.7722 19.6821L20.7817 19.6663C21.0795 19.1833 21.25 18.6094 21.25 18C21.25 16.2042 19.7958 14.75 18 14.75ZM15.0328 14.2933C15.8487 13.6431 16.8817 13.25 18 13.25C20.6242 13.25 22.75 15.3758 22.75 18C22.75 18.8874 22.5024 19.7305 22.0632 20.4459C21.8132 20.8725 21.4926 21.2534 21.1221 21.5662C20.2871 22.3134 19.1927 22.75 18 22.75C16.2681 22.75 14.7594 21.8246 13.9385 20.4486C13.4983 19.7327 13.25 18.8885 13.25 18C13.25 17.2501 13.4235 16.538 13.7347 15.9049C13.1751 15.8036 12.5941 15.75 12 15.75C7.52291 15.75 4.16003 18.6809 4.16003 22C4.16003 22.4142 3.82425 22.75 3.41003 22.75C2.99582 22.75 2.66003 22.4142 2.66003 22C2.66003 17.5791 6.99716 14.25 12 14.25C12.9346 14.25 13.844 14.3651 14.7043 14.58C14.8092 14.4795 14.9188 14.3838 15.0328 14.2933ZM20.1106 16.5108C20.3919 16.8149 20.3734 17.2894 20.0693 17.5706L17.9393 19.5406C17.6435 19.8141 17.1845 19.8052 16.8997 19.5203L15.9097 18.5303C15.6168 18.2374 15.6168 17.7626 15.9097 17.4697C16.2026 17.1768 16.6775 17.1768 16.9704 17.4697L17.4503 17.9496L19.0508 16.4694C19.3549 16.1882 19.8294 16.2067 20.1106 16.5108Z" fill="#595854"/>
</svg>
