<svg width="24" height="24" viewBox="0 0 24 24" fill="none" xmlns="http://www.w3.org/2000/svg">
<path fill-rule="evenodd" clip-rule="evenodd" d="M2.96967 2.96967C4.15993 1.77941 5.88439 1.25 8 1.25H16C18.1156 1.25 19.8401 1.77941 21.0303 2.96967C22.2206 4.15993 22.75 5.88439 22.75 8V16C22.75 18.1156 22.2206 19.8401 21.0303 21.0303C19.8401 22.2206 18.1156 22.75 16 22.75H3C2.03579 22.75 1.25 21.9642 1.25 21V8C1.25 5.88439 1.77941 4.15993 2.96967 2.96967ZM4.03033 4.03033C3.22059 4.84007 2.75 6.11561 2.75 8V21C2.75 21.1358 2.86421 21.25 3 21.25H16C17.8844 21.25 19.1599 20.7794 19.9697 19.9697C20.7794 19.1599 21.25 17.8844 21.25 16V8C21.25 6.11561 20.7794 4.84007 19.9697 4.03033C19.1599 3.22059 17.8844 2.75 16 2.75H8C6.11561 2.75 4.84007 3.22059 4.03033 4.03033ZM14.3113 6.26214C15.1486 6.18231 15.9468 6.56072 16.7014 7.32073C17.4576 8.07736 17.8287 8.87646 17.745 9.71105C17.6654 10.5059 17.1876 11.143 16.7003 11.6303L11.5103 16.8203C11.3338 16.9969 11.1096 17.1378 10.9061 17.2379C10.7017 17.3385 10.457 17.428 10.2161 17.4625L8.23318 17.7429C7.6765 17.8202 7.12508 17.6707 6.73218 17.2778C6.33928 16.8849 6.18983 16.3335 6.26714 15.7768L6.2674 15.775L6.54755 13.7939C6.58196 13.553 6.67149 13.3083 6.77206 13.1039C6.8722 12.9004 7.01309 12.6763 7.18967 12.4997L11.6304 8.05894C11.6368 8.05232 11.6433 8.04582 11.6499 8.03943L12.3797 7.30967C12.8721 6.8173 13.5131 6.33825 14.3113 6.26214ZM11.9036 9.90703L8.25033 13.5603C8.22692 13.5837 8.17281 13.6546 8.11796 13.7661C8.06368 13.8764 8.0382 13.9665 8.03252 14.0057C8.03251 14.0058 8.03254 14.0056 8.03252 14.0057L7.75288 15.9832C7.75285 15.9834 7.75292 15.9829 7.75288 15.9832C7.73045 16.146 7.78076 16.2051 7.79284 16.2172C7.80493 16.2293 7.86337 16.2797 8.02623 16.2572C8.02603 16.2572 8.02643 16.2572 8.02623 16.2572L10.0039 15.9775C10.0039 15.9775 10.004 15.9775 10.0039 15.9775C10.0431 15.9719 10.1335 15.9464 10.2439 15.8921C10.3554 15.8372 10.4263 15.7831 10.4497 15.7597L14.1052 12.1041C13.1722 11.6015 12.4071 10.8355 11.9036 9.90703ZM15.2325 10.9769C14.2276 10.5794 13.4306 9.78148 13.0293 8.78136L13.4403 8.37033C13.848 7.9627 14.177 7.78175 14.4537 7.75536C14.6911 7.73272 15.0726 7.80896 15.6377 8.37832L15.6397 8.38033C16.2027 8.94338 16.2763 9.32392 16.2525 9.56145C16.2247 9.83912 16.0424 10.1669 15.6397 10.5697L15.2325 10.9769Z" fill="#595854"/>
</svg>
