<svg width="24" height="24" viewBox="0 0 24 24" fill="none" xmlns="http://www.w3.org/2000/svg">
<path fill-rule="evenodd" clip-rule="evenodd" d="M9.92882 1.24985C9.95338 1.24992 9.97713 1.24998 10 1.24998H14C14.0229 1.24998 14.0466 1.24992 14.0712 1.24985C14.5142 1.24859 15.222 1.24658 15.791 1.62595C16.3265 1.98292 16.6111 2.56188 16.7096 3.32341C18.1504 3.4747 19.3992 3.8815 20.2993 4.85442C21.3278 5.96619 21.75 7.6547 21.75 9.99998V15C21.75 15.4142 21.4142 15.75 21 15.75C20.5858 15.75 20.25 15.4142 20.25 15V9.99998C20.25 7.77527 19.8372 6.56378 19.1982 5.87305C18.6723 5.30461 17.8895 4.97693 16.7122 4.83331C16.6683 5.15164 16.5743 5.49065 16.374 5.79101C15.9178 6.47532 15.099 6.74998 14 6.74998H10C9.97713 6.74998 9.95338 6.75005 9.92882 6.75012C9.48584 6.75138 8.77803 6.75339 8.20897 6.37402C7.71019 6.0415 7.42903 5.51634 7.31325 4.83042C6.12269 4.97288 5.33208 5.30279 4.80215 5.87642C4.1626 6.5687 3.75 7.78077 3.75 9.99998V16C3.75 17.9867 4.01132 19.2311 4.68943 20.0061C5.34587 20.7563 6.56467 21.25 9 21.25H14C14.4142 21.25 14.75 21.5858 14.75 22C14.75 22.4142 14.4142 22.75 14 22.75H9C6.43533 22.75 4.65413 22.2437 3.56057 20.9939C2.48868 19.7688 2.25 18.0132 2.25 16V9.99998C2.25 7.65919 2.6724 5.97126 3.70035 4.85855C4.60012 3.88459 5.84867 3.47543 7.29036 3.32353C7.38884 2.56195 7.67349 1.98294 8.20897 1.62595C8.77803 1.24658 9.48584 1.24859 9.92882 1.24985ZM15.25 4.01616C15.25 4.01862 15.25 4.02107 15.25 4.02353C15.2493 4.57159 15.2242 4.81166 15.126 4.95896C15.0822 5.02465 14.901 5.24998 14 5.24998H10C9.43524 5.24998 9.19042 5.22554 9.04103 5.12595C8.97533 5.08215 8.75 4.90094 8.75 3.99998C8.75 3.09903 8.97533 2.91782 9.04103 2.87402C9.19042 2.77443 9.43524 2.74998 10 2.74998H14C14.5648 2.74998 14.8096 2.77443 14.959 2.87402C15.0247 2.91782 15.25 3.09903 15.25 3.99998C15.25 4.00541 15.25 4.0108 15.25 4.01616ZM14.4697 15.4697C14.7626 15.1768 15.2374 15.1768 15.5303 15.4697L20.25 20.1893V19C20.25 18.5858 20.5858 18.25 21 18.25C21.4142 18.25 21.75 18.5858 21.75 19V22C21.75 22.4142 21.4142 22.75 21 22.75H18C17.5858 22.75 17.25 22.4142 17.25 22C17.25 21.5858 17.5858 21.25 18 21.25H19.1893L14.4697 16.5303C14.1768 16.2374 14.1768 15.7625 14.4697 15.4697Z" fill="#595854"/>
</svg>
