<svg width="24" height="24" viewBox="0 0 24 24" fill="none" xmlns="http://www.w3.org/2000/svg">
<path fill-rule="evenodd" clip-rule="evenodd" d="M7.57819 2.91194C4.8091 3.55437 2.75 6.03342 2.75 9C2.75 9.41421 2.41421 9.75 2 9.75C1.58579 9.75 1.25 9.41421 1.25 9C1.25 4.71579 4.71579 1.25 9 1.25C9.2702 1.25 9.51952 1.39534 9.65265 1.63048C9.78578 1.86561 9.78214 2.15417 9.64312 2.38587L8.59312 4.13587C8.38 4.49106 7.91931 4.60623 7.56412 4.39312C7.20894 4.18001 7.09377 3.71931 7.30688 3.36413L7.57819 2.91194ZM17.6788 1.25C18.1065 1.25 18.5767 1.33614 18.9709 1.55257L18.9735 1.55399L21.3691 2.88153C21.37 2.88199 21.3708 2.88244 21.3716 2.8829C21.7942 3.11413 22.1302 3.49144 22.3583 3.88073C22.587 4.27096 22.75 4.74591 22.75 5.21995V7.75999C22.75 8.23743 22.5823 8.71329 22.3534 9.10118C22.1245 9.48909 21.7895 9.86488 21.3742 10.0956L18.9753 11.425C18.9749 11.4253 18.9745 11.4255 18.9741 11.4257C18.5761 11.6473 18.1031 11.7375 17.6713 11.7375C17.2412 11.7375 16.7689 11.648 16.3733 11.4242L13.9784 10.097C13.5558 9.86581 13.2198 9.48849 12.9917 9.0992C12.763 8.70897 12.6 8.23403 12.6 7.75999V5.21995C12.6 4.74251 12.7677 4.26666 12.9966 3.87876C13.2255 3.49085 13.5605 3.11506 13.9758 2.88434L16.3844 1.5496C16.7804 1.33636 17.2503 1.25 17.6788 1.25ZM17.0988 2.86866L14.732 4.18018L17.6789 5.88315L20.6134 4.17762L18.2491 2.86743C18.2487 2.86726 18.2484 2.86708 18.2481 2.8669C18.1321 2.80356 17.9278 2.75 17.6788 2.75C17.4318 2.75 17.2231 2.80269 17.0988 2.86866ZM21.25 5.54255L18.43 7.18157V10.0123L20.6458 8.78436C20.6457 8.78438 20.6458 8.78434 20.6458 8.78436C20.7705 8.71505 20.9306 8.56081 21.0616 8.33879C21.1927 8.11669 21.25 7.90255 21.25 7.75999V5.54255ZM16.93 10.0178V7.18281L14.1 5.5474V7.75999C14.1 7.90595 14.157 8.121 14.2858 8.34076C14.4147 8.56071 14.5728 8.71268 14.6991 8.78156L14.7035 8.78396L16.93 10.0178ZM6.32125 12.25C6.74971 12.25 7.21955 12.3364 7.61557 12.5496L7.62355 12.5539L10.0215 13.8828C10.4441 14.1141 10.7801 14.4914 11.0083 14.8807C11.237 15.271 11.4 15.7459 11.4 16.2199V18.76C11.4 19.2374 11.2323 19.7133 11.0034 20.1012C10.7745 20.4891 10.4395 20.8649 10.0242 21.0956L7.6253 22.425C7.62514 22.4251 7.62545 22.4249 7.6253 22.425C7.22713 22.6469 6.75336 22.7375 6.32125 22.7375C5.89115 22.7375 5.41887 22.648 5.02324 22.4242L2.63087 21.0984C2.63008 21.098 2.6293 21.0975 2.62852 21.0971C2.20591 20.8659 1.86987 20.4885 1.64169 20.0992C1.41299 19.709 1.25 19.234 1.25 18.76V16.2199C1.25 15.7425 1.41768 15.2667 1.6466 14.8788C1.87554 14.4908 2.21048 14.1151 2.62577 13.8843L5.02647 12.554L5.02906 12.5526C5.42326 12.3361 5.89354 12.25 6.32125 12.25ZM5.75196 13.8669C5.75162 13.8671 5.75128 13.8672 5.75094 13.8674L3.38118 15.1806L6.31988 16.8832L9.26255 15.1772L6.90129 13.8687C6.77692 13.8027 6.5682 13.75 6.32125 13.75C6.07219 13.75 5.86794 13.8035 5.75196 13.8669ZM9.89999 16.5415L7.07001 18.1821V21.0178L9.29577 19.7844C9.42047 19.7151 9.58053 19.5609 9.71159 19.3388C9.84267 19.1167 9.89999 18.9026 9.89999 18.76V16.5415ZM5.57001 21.0123V18.1823L2.75 16.5485V18.76C2.75 18.9059 2.80702 19.121 2.93581 19.3408C3.06472 19.5607 3.22286 19.7127 3.34914 19.7816L3.35355 19.784L5.57001 21.0123ZM22 14.25C22.4142 14.25 22.75 14.5858 22.75 15C22.75 19.2842 19.2842 22.75 15 22.75C14.7298 22.75 14.4805 22.6047 14.3474 22.3695C14.2142 22.1344 14.2179 21.8458 14.3569 21.6141L15.4069 19.8641C15.62 19.5089 16.0807 19.3938 16.4359 19.6069C16.7911 19.82 16.9062 20.2807 16.6931 20.6359L16.4218 21.0881C19.1909 20.4456 21.25 17.9666 21.25 15C21.25 14.5858 21.5858 14.25 22 14.25Z" fill="#595854"/>
</svg>
