<svg width="24" height="24" viewBox="0 0 24 24" fill="none" xmlns="http://www.w3.org/2000/svg">
<path fill-rule="evenodd" clip-rule="evenodd" d="M2.75052 7.75494H21.2495C21.2369 6.09333 20.9975 5.32638 20.5832 4.91751C20.1539 4.4939 19.3363 4.25494 17.55 4.25494H6.44C4.659 4.25494 3.84409 4.49382 3.41607 4.91702C3.00245 5.32598 2.76311 6.09337 2.75052 7.75494ZM22.75 7.89494C22.75 6.14384 22.5461 4.74719 21.6368 3.84988C20.7311 2.95599 19.3237 2.75494 17.55 2.75494H6.44C4.671 2.75494 3.26591 2.95607 2.36143 3.85037C1.45399 4.74759 1.25 6.14377 1.25 7.89494V16.1149C1.25 17.8658 1.45385 19.2626 2.36194 20.1588C3.26704 21.052 4.67249 21.2498 6.44074 21.2449H17.56C19.329 21.2449 20.7341 21.0438 21.6386 20.1495C22.546 19.2523 22.75 17.8561 22.75 16.1049V7.89494ZM21.25 9.25494V16.1049C21.25 17.8638 21.009 18.6626 20.5839 19.0829C20.1559 19.5061 19.341 19.7449 17.56 19.7449L6.44 19.7449L6.43789 19.7449C4.65679 19.75 3.84272 19.5127 3.41556 19.0911C2.99115 18.6723 2.75 17.8741 2.75 16.1149V9.25494H21.25ZM5.25 16.5049C5.25 16.0907 5.58579 15.7549 6 15.7549H8C8.41421 15.7549 8.75 16.0907 8.75 16.5049C8.75 16.9192 8.41421 17.2549 8 17.2549H6C5.58579 17.2549 5.25 16.9192 5.25 16.5049ZM9.75 16.5049C9.75 16.0907 10.0858 15.7549 10.5 15.7549H14.5C14.9142 15.7549 15.25 16.0907 15.25 16.5049C15.25 16.9192 14.9142 17.2549 14.5 17.2549H10.5C10.0858 17.2549 9.75 16.9192 9.75 16.5049Z" fill="#595854"/>
</svg>
