<svg width="24" height="24" viewBox="0 0 24 24" fill="none" xmlns="http://www.w3.org/2000/svg">
<path fill-rule="evenodd" clip-rule="evenodd" d="M4.15533 4.15533C3.2398 5.07086 2.75 6.57397 2.75 9V9.98C2.75 10.3942 2.41421 10.73 2 10.73C1.58579 10.73 1.25 10.3942 1.25 9.98V9C1.25 6.42603 1.7602 4.42914 3.09467 3.09467C4.42914 1.7602 6.42603 1.25 9 1.25H15C17.574 1.25 19.5709 1.7602 20.9053 3.09467C22.2398 4.42914 22.75 6.42603 22.75 9V15C22.75 17.574 22.2398 19.5709 20.9053 20.9053C19.5709 22.2398 17.574 22.75 15 22.75H14C13.5858 22.75 13.25 22.4142 13.25 22C13.25 21.5858 13.5858 21.25 14 21.25H15C17.426 21.25 18.9291 20.7602 19.8447 19.8447C20.7602 18.9291 21.25 17.426 21.25 15V9C21.25 6.57397 20.7602 5.07086 19.8447 4.15533C18.9291 3.2398 17.426 2.75 15 2.75H9C6.57397 2.75 5.07086 3.2398 4.15533 4.15533ZM13.25 5.98C13.25 5.56579 13.5858 5.23 14 5.23H18.01C18.4242 5.23 18.76 5.56579 18.76 5.98V9.99C18.76 10.4042 18.4242 10.74 18.01 10.74C17.5958 10.74 17.26 10.4042 17.26 9.99V7.79322L13.5309 11.5298C13.2383 11.823 12.7634 11.8235 12.4702 11.5309C12.177 11.2383 12.1765 10.7634 12.4691 10.4702L16.2019 6.73H14C13.5858 6.73 13.25 6.39421 13.25 5.98ZM3.26158 14.2616C2.9648 14.5584 2.75 15.099 2.75 16.15V18.85C2.75 19.901 2.9648 20.4416 3.26158 20.7384C3.55836 21.0352 4.09897 21.25 5.15 21.25H7.85C8.90103 21.25 9.44164 21.0352 9.73842 20.7384C10.0352 20.4416 10.25 19.901 10.25 18.85V16.15C10.25 15.099 10.0352 14.5584 9.73842 14.2616C9.44164 13.9648 8.90103 13.75 7.85 13.75H5.15C4.09897 13.75 3.55836 13.9648 3.26158 14.2616ZM2.20092 13.2009C2.91664 12.4852 3.95103 12.25 5.15 12.25H7.85C9.04897 12.25 10.0834 12.4852 10.7991 13.2009C11.5148 13.9166 11.75 14.951 11.75 16.15V18.85C11.75 20.049 11.5148 21.0834 10.7991 21.7991C10.0834 22.5148 9.04897 22.75 7.85 22.75H5.15C3.95103 22.75 2.91664 22.5148 2.20092 21.7991C1.4852 21.0834 1.25 20.049 1.25 18.85V16.15C1.25 14.951 1.4852 13.9166 2.20092 13.2009Z" fill="#595854"/>
</svg>
