<svg width="24" height="24" viewBox="0 0 24 24" fill="none" xmlns="http://www.w3.org/2000/svg">
<path fill-rule="evenodd" clip-rule="evenodd" d="M14.25 3C14.25 2.58579 14.5858 2.25 15 2.25H21C21.4142 2.25 21.75 2.58579 21.75 3V9C21.75 9.41421 21.4142 9.75 21 9.75C20.5858 9.75 20.25 9.41421 20.25 9V4.81066L14.0303 11.0303C13.7374 11.3232 13.2626 11.3232 12.9697 11.0303C12.6768 10.7374 12.6768 10.2626 12.9697 9.96967L19.1893 3.75H15C14.5858 3.75 14.25 3.41421 14.25 3ZM11.0303 12.9697C11.3232 13.2626 11.3232 13.7374 11.0303 14.0303L4.81066 20.25H9C9.41421 20.25 9.75 20.5858 9.75 21C9.75 21.4142 9.41421 21.75 9 21.75H3C2.58579 21.75 2.25 21.4142 2.25 21V15C2.25 14.5858 2.58579 14.25 3 14.25C3.41421 14.25 3.75 14.5858 3.75 15V19.1893L9.96967 12.9697C10.2626 12.6768 10.7374 12.6768 11.0303 12.9697Z" fill="#595854"/>
</svg>
