<svg width="24" height="24" viewBox="0 0 24 24" fill="none" xmlns="http://www.w3.org/2000/svg">
<path fill-rule="evenodd" clip-rule="evenodd" d="M6.46967 1.46969C6.6636 1.27575 6.94793 1.20314 7.2111 1.28034L8.5 1.65842L9.78889 1.28034C10.0521 1.20314 10.3364 1.27575 10.5303 1.46969C10.7243 1.66362 10.7969 1.94795 10.7197 2.21112L10.3416 3.50002L10.7197 4.78891C10.7969 5.05209 10.7243 5.33641 10.5303 5.53035C10.3364 5.72428 10.0521 5.79689 9.78889 5.7197L8.5 5.34162L7.2111 5.7197C6.94793 5.79689 6.6636 5.72428 6.46967 5.53035C6.27573 5.33641 6.20312 5.05209 6.28032 4.78891L6.6584 3.50002L6.28032 2.21112C6.20312 1.94795 6.27573 1.66362 6.46967 1.46969ZM8.10604 3.10606L8.15968 3.28891C8.20011 3.42675 8.20011 3.57329 8.15968 3.71112L8.10604 3.89398L8.28889 3.84034C8.42673 3.79991 8.57327 3.79991 8.7111 3.84034L8.89396 3.89398L8.84032 3.71112C8.79989 3.57329 8.79989 3.42675 8.84032 3.28891L8.89396 3.10606L8.7111 3.1597C8.57327 3.20013 8.42673 3.20013 8.28889 3.1597L8.10604 3.10606ZM15.9697 3.96969C17.0926 2.8468 18.9074 2.8468 20.0303 3.96969C21.1532 5.09258 21.1532 6.90746 20.0303 8.03035L7.03033 21.0303C5.90744 22.1532 4.09256 22.1532 2.96967 21.0303C1.84678 19.9075 1.84678 18.0926 2.96967 16.9697L14.4789 5.46043C14.4792 5.46019 14.4794 5.45994 14.4797 5.45969C14.4799 5.45944 14.4802 5.45919 14.4804 5.45894L15.9697 3.96969ZM15.01 7.05068L4.03033 18.0303C3.49322 18.5675 3.49322 19.4326 4.03033 19.9697C4.56744 20.5068 5.43256 20.5068 5.96967 19.9697L16.9493 8.99002L15.01 7.05068ZM18.01 7.92936L16.0707 5.99002L17.0303 5.03035C17.5674 4.49324 18.4326 4.49324 18.9697 5.03035C19.5068 5.56746 19.5068 6.43258 18.9697 6.96969L18.01 7.92936ZM2.46967 7.46969C2.6636 7.27575 2.94793 7.20314 3.2111 7.28034L4.5 7.65842L5.78889 7.28034C6.05207 7.20314 6.33639 7.27575 6.53033 7.46969C6.72426 7.66362 6.79687 7.94795 6.71968 8.21112L6.3416 9.50002L6.71968 10.7889C6.79687 11.0521 6.72426 11.3364 6.53033 11.5303C6.33639 11.7243 6.05207 11.7969 5.78889 11.7197L4.5 11.3416L3.2111 11.7197C2.94793 11.7969 2.6636 11.7243 2.46967 11.5303C2.27573 11.3364 2.20312 11.0521 2.28032 10.7889L2.6584 9.50002L2.28032 8.21112C2.20312 7.94795 2.27573 7.66362 2.46967 7.46969ZM4.10604 9.10606L4.15968 9.28891C4.20011 9.42675 4.20011 9.57329 4.15968 9.71112L4.10604 9.89398L4.28889 9.84034C4.42673 9.79991 4.57327 9.79991 4.7111 9.84034L4.89396 9.89398L4.84032 9.71112C4.79989 9.57329 4.79989 9.42675 4.84032 9.28891L4.89396 9.10606L4.7111 9.1597C4.57327 9.20013 4.42673 9.20013 4.28889 9.1597L4.10604 9.10606ZM17.4697 12.4697C17.6636 12.2758 17.9479 12.2031 18.2111 12.2803L19.5 12.6584L20.7889 12.2803C21.0521 12.2031 21.3364 12.2758 21.5303 12.4697C21.7243 12.6636 21.7969 12.9479 21.7197 13.2111L21.3416 14.5L21.7197 15.7889C21.7969 16.0521 21.7243 16.3364 21.5303 16.5303C21.3364 16.7243 21.0521 16.7969 20.7889 16.7197L19.5 16.3416L18.2111 16.7197C17.9479 16.7969 17.6636 16.7243 17.4697 16.5303C17.2757 16.3364 17.2031 16.0521 17.2803 15.7889L17.6584 14.5L17.2803 13.2111C17.2031 12.9479 17.2757 12.6636 17.4697 12.4697ZM19.106 14.1061L19.1597 14.2889C19.2001 14.4267 19.2001 14.5733 19.1597 14.7111L19.106 14.894L19.2889 14.8403C19.4267 14.7999 19.5733 14.7999 19.7111 14.8403L19.894 14.894L19.8403 14.7111C19.7999 14.5733 19.7999 14.4267 19.8403 14.2889L19.894 14.1061L19.7111 14.1597C19.5733 14.2001 19.4267 14.2001 19.2889 14.1597L19.106 14.1061Z" fill="#595854"/>
</svg>
