<svg width="24" height="24" viewBox="0 0 24 24" fill="none" xmlns="http://www.w3.org/2000/svg">
<path fill-rule="evenodd" clip-rule="evenodd" d="M5.15002 1.25C5.56424 1.25 5.90002 1.58579 5.90002 2V3.25H16.35C17.0858 3.25 17.7369 3.35099 18.265 3.57239C18.7987 3.79612 19.2489 4.16378 19.4694 4.70408C19.6895 5.24342 19.6261 5.82085 19.4055 6.35395C19.1869 6.88236 18.7982 7.41246 18.2804 7.93033L17.0804 9.13033C16.5522 9.65853 16.6065 10.4528 17.0439 10.8356C17.0564 10.8465 17.0686 10.8579 17.0804 10.8697L18.2804 12.0697C19.2679 13.0573 19.8859 14.2369 19.4269 15.3079C18.9727 16.3678 17.7035 16.75 16.35 16.75H5.90002V22C5.90002 22.4142 5.56424 22.75 5.15002 22.75C4.73581 22.75 4.40002 22.4142 4.40002 22V2C4.40002 1.58579 4.73581 1.25 5.15002 1.25ZM5.90002 4.75V15.25H16.35C17.5965 15.25 17.9774 14.8822 18.0482 14.7171C18.1141 14.5631 18.1321 14.0427 17.2197 13.1303L16.0358 11.9465C14.8942 10.926 14.9542 9.13519 16.0197 8.06967L17.2197 6.86967C17.6518 6.43754 17.9007 6.06764 18.0195 5.78042C18.1364 5.4979 18.1105 5.34408 18.0806 5.27092C18.0512 5.19872 17.9639 5.07263 17.6851 4.95574C17.4007 4.83651 16.9642 4.75 16.35 4.75H5.90002Z" fill="#595854"/>
</svg>
