<svg width="24" height="24" viewBox="0 0 24 24" fill="none" xmlns="http://www.w3.org/2000/svg">
<path fill-rule="evenodd" clip-rule="evenodd" d="M2.87904 2.87905C4.23365 1.52444 6.26689 1 8.9106 1H15.0893C17.733 1 19.7662 1.52444 21.1208 2.87905C22.4755 4.23366 22.9999 6.26692 22.9999 8.91064V12C22.9999 12.3878 22.6855 12.7021 22.2978 12.7021H2.40425V15.0894C2.40425 17.5946 2.90959 19.1656 3.872 20.128C4.8344 21.0904 6.4054 21.5957 8.9106 21.5957H11.9999C12.3877 21.5957 12.7021 21.9101 12.7021 22.2979C12.7021 22.6856 12.3877 23 11.9999 23H8.9106C6.26689 23 4.23365 22.4756 2.87904 21.1209C1.52444 19.7663 1 17.7331 1 15.0894V8.91064C1 6.26692 1.52444 4.23366 2.87904 2.87905ZM2.40425 11.2979H21.5956V8.91064C21.5956 6.40542 21.0903 4.83442 20.1279 3.87201C19.1655 2.9096 17.5945 2.40426 15.0893 2.40426H8.9106C6.4054 2.40426 4.8344 2.9096 3.872 3.87201C2.90959 4.83442 2.40425 6.40542 2.40425 8.91064V11.2979ZM5.82125 5.3766C6.20903 5.3766 6.52338 5.69095 6.52338 6.07872V8.1383C6.52338 8.52607 6.20903 8.84043 5.82125 8.84043C5.43348 8.84043 5.11913 8.52607 5.11913 8.1383V6.07872C5.11913 5.69095 5.43348 5.3766 5.82125 5.3766ZM9.94038 5.3766C10.3282 5.3766 10.6425 5.69095 10.6425 6.07872V8.1383C10.6425 8.52607 10.3282 8.84043 9.94038 8.84043C9.55261 8.84043 9.23826 8.52607 9.23826 8.1383V6.07872C9.23826 5.69095 9.55261 5.3766 9.94038 5.3766ZM13.3574 7.10851C13.3574 6.72074 13.6717 6.40638 14.0595 6.40638H18.1786C18.5664 6.40638 18.8808 6.72074 18.8808 7.10851C18.8808 7.49629 18.5664 7.81064 18.1786 7.81064H14.0595C13.6717 7.81064 13.3574 7.49629 13.3574 7.10851ZM22.2978 14.6447C22.6855 14.6447 22.9999 14.959 22.9999 15.3468V17.4038C23.0041 17.6465 22.8822 17.8848 22.659 18.0187C22.5087 18.109 22.3381 18.1363 22.1779 18.1085H20.2382C19.8504 18.1085 19.5361 17.7942 19.5361 17.4064C19.5361 17.0186 19.8504 16.7043 20.2382 16.7043H20.5529C20.1305 16.4545 19.598 16.2652 18.951 16.2652C17.964 16.2652 17.1118 16.7933 16.6566 17.59C16.4642 17.9266 16.0353 18.0436 15.6986 17.8512C15.362 17.6588 15.245 17.2299 15.4374 16.8933C16.1355 15.6715 17.4459 14.8609 18.951 14.8609C20.0759 14.8609 20.9595 15.2593 21.5956 15.708V15.3468C21.5956 14.959 21.91 14.6447 22.2978 14.6447ZM21.6976 17.7811C21.6978 17.7814 21.6979 17.7816 21.6976 17.7811V17.7811ZM21.6969 17.7799C21.6968 17.7797 21.697 17.78 21.6969 17.7799V17.7799ZM5.82125 15.417C6.20903 15.417 6.52338 15.7314 6.52338 16.1192V18.1787C6.52338 18.5665 6.20903 18.8809 5.82125 18.8809C5.43348 18.8809 5.11913 18.5665 5.11913 18.1787V16.1192C5.11913 15.7314 5.43348 15.417 5.82125 15.417ZM9.94038 15.417C10.3282 15.417 10.6425 15.7314 10.6425 16.1192V18.1787C10.6425 18.5665 10.3282 18.8809 9.94038 18.8809C9.55261 18.8809 9.23826 18.5665 9.23826 18.1787V16.1192C9.23826 15.7314 9.55261 15.417 9.94038 15.417ZM15.2728 20.3814C15.2733 19.9941 15.5875 19.6803 15.9749 19.6803H18.0345C18.4222 19.6803 18.7366 19.9947 18.7366 20.3825C18.7366 20.7702 18.4222 21.0846 18.0345 21.0846H17.6016C17.9863 21.3515 18.4417 21.5443 18.951 21.5443C19.9273 21.5443 20.781 21.0163 21.2366 20.2271C21.4305 19.8913 21.8599 19.7762 22.1957 19.9701C22.5315 20.1639 22.6466 20.5934 22.4527 20.9292C21.755 22.1378 20.4462 22.9485 18.951 22.9485C18.0133 22.9485 17.2439 22.5696 16.677 22.149V22.2979C16.677 22.6856 16.3627 23 15.9749 23C15.5871 23 15.2728 22.6856 15.2728 22.2979V20.4053C15.2726 20.3973 15.2726 20.3894 15.2728 20.3814Z" fill="#595854"/>
</svg>
