<svg width="24" height="24" viewBox="0 0 24 24" fill="none" xmlns="http://www.w3.org/2000/svg">
<path fill-rule="evenodd" clip-rule="evenodd" d="M12.0025 1.24756C12.6108 1.24756 13.2559 1.33178 13.787 1.52546L13.7932 1.52773L18.7827 3.39756C19.5297 3.6769 20.1664 4.23765 20.6131 4.88337C21.0599 5.52922 21.36 6.32273 21.36 7.12006V14.5501C21.36 15.289 21.1211 16.0878 20.7713 16.7833C20.4213 17.4791 19.922 18.1476 19.329 18.5908L15.0307 21.7995L15.0294 21.8005C14.1717 22.4448 13.0733 22.7451 12.01 22.7451C10.9468 22.7451 9.8484 22.4448 8.99071 21.8006L8.98935 21.7995L4.69138 18.5911C4.09839 18.1479 3.59874 17.4791 3.24877 16.7833C2.89893 16.0878 2.66003 15.289 2.66003 14.5501V7.12006C2.66003 6.32661 2.96098 5.53537 3.40744 4.89146C3.85382 4.24768 4.48993 3.68731 5.23642 3.40792L5.23736 3.40756L10.2256 1.52822L10.2276 1.52746C10.7522 1.33153 11.3952 1.24756 12.0025 1.24756ZM10.7534 2.93229L10.7524 2.93265L5.76271 4.81256C5.35961 4.96328 4.95106 5.29771 4.64012 5.74616C4.32909 6.19474 4.16003 6.6935 4.16003 7.12006V14.5501C4.16003 14.9911 4.31114 15.5573 4.5888 16.1093C4.86624 16.6609 5.23179 17.1222 5.58869 17.3891M5.58869 17.3891L9.89072 20.6006C10.4428 21.0156 11.2088 21.2451 12.01 21.2451C12.8112 21.2451 13.5772 21.0156 14.1294 20.6006L14.1314 20.5991L18.431 17.3893C18.7881 17.1225 19.1537 16.661 19.4313 16.1093C19.7089 15.5573 19.86 14.9911 19.86 14.5501V7.12006C19.86 6.68739 19.6902 6.1859 19.3795 5.73675C19.0687 5.2875 18.6603 4.95324 18.2574 4.80256L13.2702 2.93362C12.9514 2.81792 12.4928 2.74756 12.0025 2.74756C11.5104 2.74756 11.0588 2.81844 10.7534 2.93229" fill="#595854"/>
</svg>
