<svg width="24" height="24" viewBox="0 0 24 24" fill="none" xmlns="http://www.w3.org/2000/svg">
<path fill-rule="evenodd" clip-rule="evenodd" d="M10.9301 3.84683C10.9301 3.84702 10.9302 3.84664 10.9301 3.84683L9.17209 7.36294C8.98475 7.74378 8.67184 8.0692 8.35048 8.30747C8.02819 8.54644 7.6277 8.74945 7.21559 8.81943L7.21295 8.81988L4.02333 9.34981C4.0232 9.34983 4.02345 9.34979 4.02333 9.34981C3.13373 9.49816 2.84393 9.84851 2.77699 10.0582C2.7098 10.2685 2.74336 10.7227 3.38036 11.3597L5.86036 13.8397C6.18275 14.1621 6.3984 14.5932 6.51732 15.0086C6.63633 15.4244 6.68084 15.9025 6.58187 16.344L6.58076 16.349L5.87074 19.419C5.60632 20.5617 5.87378 20.9788 6.00961 21.0779C6.14602 21.1774 6.62638 21.305 7.63727 20.705L10.6328 18.9317C11.0488 18.6897 11.5469 18.59 12.0038 18.59C12.4599 18.59 12.9582 18.6894 13.3721 18.9346C13.372 18.9346 13.3722 18.9347 13.3721 18.9346L16.3615 20.7043C16.3613 20.7041 16.3617 20.7044 16.3615 20.7043C17.3806 21.3061 17.8605 21.1791 17.9945 21.0815C18.1272 20.9847 18.3946 20.5702 18.1292 19.4184L17.4182 16.3441C17.3192 15.9025 17.3637 15.4244 17.4827 15.0086C17.6017 14.5932 17.8173 14.1621 18.1397 13.8397L20.6197 11.3597L20.6215 11.3579C21.2627 10.721 21.2943 10.2681 21.2273 10.0595C21.1597 9.84925 20.8675 9.49835 19.9771 9.34987C19.977 9.34985 19.9772 9.34989 19.9771 9.34987L16.7871 8.81987C16.3708 8.75048 15.9671 8.54824 15.6422 8.30851C15.3187 8.06977 15.0055 7.74405 14.818 7.363L13.0585 3.84402C12.6377 2.998 12.2101 2.82751 11.9988 2.82751C11.7862 2.82751 11.3559 3.00015 10.9301 3.84683ZM14.4012 3.17535C13.872 2.11171 13.0448 1.32751 11.9988 1.32751C10.9539 1.32751 10.1241 2.11037 9.58991 3.1732L7.82921 6.6946L7.82648 6.70011C7.77366 6.80797 7.64737 6.96146 7.45708 7.10256C7.26744 7.24317 7.08346 7.32012 6.96553 7.34042C6.96517 7.34048 6.96482 7.34054 6.96447 7.3406L3.77711 7.87016C2.627 8.06184 1.66112 8.62155 1.34807 9.60187C1.03526 10.5815 1.4967 11.5973 2.3197 12.4203L4.7997 14.9003C4.89731 14.998 5.00666 15.1818 5.07524 15.4214C5.1434 15.6595 5.14917 15.8755 5.11862 16.014C5.11848 16.0147 5.11833 16.0153 5.11819 16.016L4.40934 19.0809C4.40933 19.081 4.40935 19.0809 4.40934 19.0809C4.11379 20.3582 4.2163 21.6263 5.12545 22.2896C6.03404 22.9526 7.27368 22.6651 8.40279 21.995L11.3872 20.2283C11.3878 20.2279 11.3885 20.2276 11.3891 20.2272C11.5233 20.1497 11.7444 20.09 12.0038 20.09C12.2651 20.09 12.4816 20.1505 12.6077 20.2252L15.598 21.9954C16.7284 22.6632 17.9696 22.9559 18.8781 22.2936C19.7879 21.6303 19.8855 20.3599 19.5909 19.0816L18.8819 16.016C18.8817 16.0153 18.8816 16.0147 18.8814 16.014C18.8509 15.8755 18.8567 15.6595 18.9248 15.4214C18.9934 15.1818 19.1028 14.998 19.2004 14.9003L21.6785 12.4222C21.6789 12.4218 21.6792 12.4215 21.6796 12.4211C22.5077 11.5982 22.9706 10.5815 22.6553 9.60051C22.3404 8.6208 21.3727 8.06178 20.2233 7.87022L17.0333 7.34022C17.0332 7.3402 17.0335 7.34024 17.0333 7.34022M14.4012 3.17535C14.4011 3.17513 14.4013 3.17557 14.4012 3.17535V3.17535Z" fill="#595854"/>
</svg>
