<svg width="24" height="24" viewBox="0 0 24 24" fill="none" xmlns="http://www.w3.org/2000/svg">
<path fill-rule="evenodd" clip-rule="evenodd" d="M4.69002 2.76001C3.63241 2.76001 2.76001 3.62605 2.76001 4.69002V7.32002C2.76001 8.37762 3.62604 9.25002 4.69002 9.25002H19.32C20.3758 9.25002 21.25 8.37581 21.25 7.32002V4.69002C21.25 3.6324 20.384 2.76001 19.32 2.76001H4.69002ZM1.26001 4.69002C1.26001 2.79399 2.80763 1.26001 4.69002 1.26001H19.32C21.2161 1.26001 22.75 2.80763 22.75 4.69002V7.32002C22.75 9.20424 21.2042 10.75 19.32 10.75H4.69002C2.79399 10.75 1.26001 9.20242 1.26001 7.32002V4.69002ZM6.00002 4.25002C6.41423 4.25002 6.75002 4.5858 6.75002 5.00002V7.00002C6.75002 7.41423 6.41423 7.75002 6.00002 7.75002C5.5858 7.75002 5.25002 7.41423 5.25002 7.00002V5.00002C5.25002 4.5858 5.5858 4.25002 6.00002 4.25002ZM10 4.25002C10.4142 4.25002 10.75 4.5858 10.75 5.00002V7.00002C10.75 7.41423 10.4142 7.75002 10 7.75002C9.5858 7.75002 9.25002 7.41423 9.25002 7.00002V5.00002C9.25002 4.5858 9.5858 4.25002 10 4.25002ZM13.25 6.00002C13.25 5.5858 13.5858 5.25002 14 5.25002H18C18.4142 5.25002 18.75 5.5858 18.75 6.00002C18.75 6.41423 18.4142 6.75002 18 6.75002H14C13.5858 6.75002 13.25 6.41423 13.25 6.00002ZM4.69002 14.76C3.63241 14.76 2.76001 15.626 2.76001 16.69V19.32C2.76001 20.3776 3.62604 21.25 4.69002 21.25H19.32C20.3758 21.25 21.25 20.3758 21.25 19.32V16.69C21.25 15.6324 20.384 14.76 19.32 14.76H4.69002ZM1.26001 16.69C1.26001 14.794 2.80763 13.26 4.69002 13.26H19.32C21.2161 13.26 22.75 14.8076 22.75 16.69V19.32C22.75 21.2042 21.2042 22.75 19.32 22.75H4.69002C2.79399 22.75 1.26001 21.2024 1.26001 19.32V16.69ZM6.00002 16.25C6.41423 16.25 6.75002 16.5858 6.75002 17V19C6.75002 19.4142 6.41423 19.75 6.00002 19.75C5.5858 19.75 5.25002 19.4142 5.25002 19V17C5.25002 16.5858 5.5858 16.25 6.00002 16.25ZM10 16.25C10.4142 16.25 10.75 16.5858 10.75 17V19C10.75 19.4142 10.4142 19.75 10 19.75C9.5858 19.75 9.25002 19.4142 9.25002 19V17C9.25002 16.5858 9.5858 16.25 10 16.25ZM13.25 18C13.25 17.5858 13.5858 17.25 14 17.25H18C18.4142 17.25 18.75 17.5858 18.75 18C18.75 18.4142 18.4142 18.75 18 18.75H14C13.5858 18.75 13.25 18.4142 13.25 18Z" fill="#595854"/>
</svg>
