<svg width="24" height="24" viewBox="0 0 24 24" fill="none" xmlns="http://www.w3.org/2000/svg">
<path fill-rule="evenodd" clip-rule="evenodd" d="M7.74467 1.74467C8.07925 1.41009 8.52956 1.25 9 1.25H21C21.4704 1.25 21.9207 1.41009 22.2553 1.74467C22.5899 2.07925 22.75 2.52956 22.75 3V6C22.75 6.47044 22.5899 6.92075 22.2553 7.25533C21.9207 7.58991 21.4704 7.75 21 7.75H9C8.52956 7.75 8.07925 7.58991 7.74467 7.25533C7.41009 6.92075 7.25 6.47044 7.25 6V3C7.25 2.52956 7.41009 2.07925 7.74467 1.74467ZM8.80533 2.80533C8.78991 2.82075 8.75 2.87044 8.75 3V6C8.75 6.12956 8.78991 6.17925 8.80533 6.19467C8.82075 6.21009 8.87044 6.25 9 6.25H21C21.1296 6.25 21.1793 6.21009 21.1947 6.19467C21.2101 6.17925 21.25 6.12956 21.25 6V3C21.25 2.87044 21.2101 2.82075 21.1947 2.80533C21.1793 2.78991 21.1296 2.75 21 2.75H9C8.87044 2.75 8.82075 2.78991 8.80533 2.80533ZM1.25 9.5C1.25 9.08579 1.58579 8.75 2 8.75H7C7.41421 8.75 7.75 9.08579 7.75 9.5V14.5C7.75 14.9142 7.41421 15.25 7 15.25H2C1.58579 15.25 1.25 14.9142 1.25 14.5V9.5ZM2.75 10.25V13.75H6.25V10.25H2.75ZM8.75 9.6C8.75 9.18579 9.08579 8.85 9.5 8.85H18C18.4142 8.85 18.75 9.18579 18.75 9.6V14.3C18.75 14.7142 18.4142 15.05 18 15.05H9.5C9.08579 15.05 8.75 14.7142 8.75 14.3V9.6ZM10.25 10.35V13.55H17.25V10.35H10.25ZM6.25 17C6.25 16.5858 6.58579 16.25 7 16.25H12C12.4142 16.25 12.75 16.5858 12.75 17V22C12.75 22.4142 12.4142 22.75 12 22.75H7C6.58579 22.75 6.25 22.4142 6.25 22V17ZM7.75 17.75V21.25H11.25V17.75H7.75Z" fill="#595854"/>
</svg>
