<svg width="24" height="24" viewBox="0 0 24 24" fill="none" xmlns="http://www.w3.org/2000/svg">
<path fill-rule="evenodd" clip-rule="evenodd" d="M8.79372 4.05038C8.75124 4.37577 8.75003 4.74554 8.75003 5.2V5.25H15.25V5.2C15.25 4.74554 15.2488 4.37577 15.2063 4.05038C15.1647 3.73174 15.0899 3.51724 14.9831 3.36267C14.7998 3.09751 14.3295 2.75 12.8 2.75H11.2C9.67052 2.75 9.20028 3.09751 9.01701 3.36267C8.91018 3.51724 8.83532 3.73174 8.79372 4.05038ZM16.75 5.25L16.75 5.17402C16.7501 4.75049 16.7501 4.28789 16.6937 3.85619C16.6353 3.40889 16.5102 2.93401 16.217 2.50983C15.6003 1.61749 14.4705 1.25 12.8 1.25H11.2C9.52954 1.25 8.39979 1.61749 7.78305 2.50983C7.48988 2.93401 7.36474 3.40889 7.30634 3.85619C7.24998 4.28789 7.25001 4.75048 7.25003 5.17401L7.25003 5.25H7.00003C4.777 5.25 3.25898 5.76457 2.37357 6.81723C1.49675 7.85967 1.41335 9.22917 1.55388 10.5061L2.30331 18.5L2.3043 18.5099C2.41445 19.538 2.67248 20.6651 3.59042 21.5037C4.50156 22.3361 5.91318 22.75 8.00003 22.75H16C18.0869 22.75 19.4985 22.3361 20.4096 21.5037C21.3276 20.6651 21.5856 19.538 21.6958 18.5099L22.3867 11.141C22.3957 11.0939 22.4002 11.0459 22.4001 10.9979L22.4462 10.5061C22.5867 9.22916 22.5033 7.85966 21.6265 6.81723C20.7411 5.76457 19.2231 5.25 17 5.25H16.75ZM7.00003 6.75C4.95307 6.75 3.98608 7.23043 3.52149 7.78277C3.04977 8.3436 2.91699 9.18629 3.04548 10.3475L3.04686 10.36L3.07612 10.6732C4.45394 11.6088 5.93552 12.3084 7.47177 12.7615C8.08121 10.8413 9.87814 9.45 12 9.45C14.1076 9.45 15.8947 10.8227 16.5158 12.7228C18.0638 12.2577 19.5569 11.547 20.9317 10.5908L20.9545 10.3475C21.083 9.18628 20.9503 8.3436 20.4786 7.78277C20.014 7.23043 19.047 6.75 17 6.75H7.00003ZM20.7538 12.4878C19.4823 13.2428 18.135 13.8193 16.75 14.2174C16.7406 16.8327 14.6176 18.95 12 18.95C9.39626 18.95 7.2818 16.855 7.25039 14.2586C5.86611 13.8693 4.52383 13.2993 3.25272 12.557L3.79628 18.3549C3.89633 19.2843 4.10345 19.9407 4.60215 20.3963C5.1085 20.8589 6.06688 21.25 8.00003 21.25H16C17.9332 21.25 18.8916 20.8589 19.3979 20.3963C19.8966 19.9407 20.1037 19.2843 20.2038 18.3549L20.7538 12.4878ZM12 10.95C10.2051 10.95 8.75003 12.4051 8.75003 14.2C8.75003 15.9949 10.2051 17.45 12 17.45C13.795 17.45 15.25 15.9949 15.25 14.2C15.25 12.4051 13.795 10.95 12 10.95ZM14.1116 12.8118C14.3923 13.1164 14.3729 13.5909 14.0682 13.8716L12.2911 15.5089C11.8094 15.9605 11.0389 15.9595 10.5597 15.4803L9.9097 14.8303C9.61681 14.5374 9.61681 14.0626 9.9097 13.7697C10.2026 13.4768 10.6775 13.4768 10.9704 13.7697L11.4474 14.2467L13.0518 12.7684C13.3565 12.4878 13.8309 12.5072 14.1116 12.8118Z" fill="#595854"/>
</svg>
