<svg width="24" height="24" viewBox="0 0 24 24" fill="none" xmlns="http://www.w3.org/2000/svg">
<path fill-rule="evenodd" clip-rule="evenodd" d="M4 2.75C3.31421 2.75 2.75 3.31421 2.75 4V6C2.75 6.68579 3.31421 7.25 4 7.25H7C7.68579 7.25 8.25 6.68579 8.25 6V4C8.25 3.31421 7.68579 2.75 7 2.75H4ZM9.75 4.25V4C9.75 2.48579 8.51421 1.25 7 1.25H4C2.48579 1.25 1.25 2.48579 1.25 4V6C1.25 7.51421 2.48579 8.75 4 8.75H7C8.51421 8.75 9.75 7.51421 9.75 6V5.75H11.75V18C11.75 19.5142 12.9858 20.75 14.5 20.75H15.25V20.8C15.25 21.8742 16.1258 22.75 17.2 22.75H20.8C21.8742 22.75 22.75 21.8742 22.75 20.8V19.2C22.75 18.1258 21.8742 17.25 20.8 17.25H17.2C16.1258 17.25 15.25 18.1258 15.25 19.2V19.25H14.5C13.8142 19.25 13.25 18.6858 13.25 18V13.25H15.25V13.3C15.25 14.3742 16.1258 15.25 17.2 15.25H20.8C21.8742 15.25 22.75 14.3742 22.75 13.3V11.7C22.75 10.6258 21.8742 9.75 20.8 9.75H17.2C16.1258 9.75 15.25 10.6258 15.25 11.7V11.75H13.25V5.75H15.25V5.79999C15.25 6.87419 16.1258 7.75 17.2 7.75H20.8C21.8742 7.75 22.75 6.87419 22.75 5.79999V4.20001C22.75 3.12581 21.8742 2.25 20.8 2.25H17.2C16.1258 2.25 15.25 3.12581 15.25 4.20001V4.25H9.75ZM16.75 5.79999C16.75 6.04579 16.9542 6.25 17.2 6.25H20.8C21.0458 6.25 21.25 6.04579 21.25 5.79999V4.20001C21.25 3.95421 21.0458 3.75 20.8 3.75H17.2C16.9542 3.75 16.75 3.95421 16.75 4.20001V5.79999ZM16.75 13.3C16.75 13.5458 16.9542 13.75 17.2 13.75H20.8C21.0458 13.75 21.25 13.5458 21.25 13.3V11.7C21.25 11.4542 21.0458 11.25 20.8 11.25H17.2C16.9542 11.25 16.75 11.4542 16.75 11.7V13.3ZM16.75 20.8C16.75 21.0458 16.9542 21.25 17.2 21.25H20.8C21.0458 21.25 21.25 21.0458 21.25 20.8V19.2C21.25 18.9542 21.0458 18.75 20.8 18.75H17.2C16.9542 18.75 16.75 18.9542 16.75 19.2V20.8Z" fill="#595854"/>
</svg>
