<svg width="24" height="24" viewBox="0 0 24 24" fill="none" xmlns="http://www.w3.org/2000/svg">
<path fill-rule="evenodd" clip-rule="evenodd" d="M12 2.75C6.89137 2.75 2.75 6.89137 2.75 12C2.75 17.1086 6.89137 21.25 12 21.25C17.1086 21.25 21.25 17.1086 21.25 12C21.25 6.89137 17.1086 2.75 12 2.75ZM1.25 12C1.25 6.06294 6.06294 1.25 12 1.25C17.9371 1.25 22.75 6.06294 22.75 12C22.75 17.9371 17.9371 22.75 12 22.75C6.06294 22.75 1.25 17.9371 1.25 12ZM13.2427 8.91123C12.6491 7.83674 11.3101 7.4853 10.2671 8.13625L10.265 8.13752L7.92507 9.58752C7.92506 9.58752 7.92506 9.58753 7.92505 9.58753C6.84677 10.2558 6.46766 11.7162 7.07773 12.8296L7.07803 12.8301C7.33859 13.3066 7.74488 13.6377 8.20086 13.8068C8.58921 13.9509 8.78724 14.3825 8.64318 14.7709C8.49911 15.1592 8.0675 15.3573 7.67915 15.2132C6.89518 14.9224 6.20151 14.3535 5.76207 13.5501M13.2427 8.91123C13.8521 10.0245 13.4729 11.4844 12.3949 12.1525C12.3817 12.1607 12.3687 12.1694 12.3559 12.1784L12.0459 12.3984C11.7081 12.6381 11.6286 13.1063 11.8684 13.4441C12.1081 13.7819 12.5763 13.8614 12.9141 13.6216L13.206 13.4145C14.9515 12.3172 15.5437 9.98903 14.5577 8.18959L14.5567 8.18768C13.5502 6.36338 11.2505 5.75517 9.474 6.86306C9.47363 6.86329 9.47327 6.86352 9.4729 6.86375L7.13495 8.31249L7.13492 8.3125C5.3734 9.40415 4.77246 11.7433 5.76197 13.5499M15.4068 9.18916C15.5509 8.8008 15.9825 8.60277 16.3709 8.74684C17.1547 9.03761 17.8483 9.60632 18.2877 10.4096C19.2777 12.2162 18.6768 14.5558 16.9151 15.6475L16.915 15.6475L14.5771 17.0962C14.5768 17.0964 14.5765 17.0966 14.5762 17.0968C12.7996 18.2049 10.4999 17.5967 9.49331 15.7723L9.49226 15.7704C8.50627 13.971 9.09847 11.6428 10.844 10.5456L11.136 10.3384C11.4738 10.0987 11.9419 10.1782 12.1816 10.516C12.4214 10.8538 12.3419 11.3219 12.0041 11.5617L11.694 11.7817C11.6813 11.7907 11.6683 11.7993 11.6551 11.8075C10.577 12.4756 10.1978 13.9355 10.8073 15.0488C11.4009 16.1233 12.7399 16.4747 13.7829 15.8237L13.7849 15.8225L16.1249 14.3725C16.1249 14.3725 16.1249 14.3725 16.125 14.3725C17.2032 13.7042 17.5823 12.2438 16.9723 11.1304L16.972 11.1298C16.7114 10.6534 16.3051 10.3223 15.8491 10.1532C15.4608 10.0091 15.2628 9.57751 15.4068 9.18916Z" fill="#595854"/>
</svg>
