<svg width="24" height="24" viewBox="0 0 24 24" fill="none" xmlns="http://www.w3.org/2000/svg">
<path fill-rule="evenodd" clip-rule="evenodd" d="M5.5 3.75C3.98122 3.75 2.75 4.98122 2.75 6.5C2.75 8.01878 3.98122 9.25 5.5 9.25C6.54554 9.25 7.4548 8.66653 7.91993 7.80743C7.94288 7.71011 7.98578 7.61582 8.04951 7.53065C8.05011 7.52985 8.05071 7.52904 8.05132 7.52824C8.17946 7.2106 8.25 6.86354 8.25 6.5C8.25 4.98122 7.01878 3.75 5.5 3.75ZM9.569 7.73097C9.68672 7.34132 9.75 6.92805 9.75 6.5C9.75 4.15279 7.84721 2.25 5.5 2.25C3.15279 2.25 1.25 4.15279 1.25 6.5C1.25 8.84721 3.15279 10.75 5.5 10.75C6.8749 10.75 8.09732 10.0971 8.87414 9.08448L12.7458 11.9817L8.85479 14.8905C8.07711 13.8921 6.86354 13.25 5.5 13.25C3.15279 13.25 1.25 15.1528 1.25 17.5C1.25 19.8472 3.15279 21.75 5.5 21.75C7.84721 21.75 9.75 19.8472 9.75 17.5C9.75 17.0601 9.68317 16.6358 9.55912 16.2368L13.9978 12.9186L21.5506 18.5705C21.8823 18.8187 22.3523 18.751 22.6005 18.4194C22.8487 18.0877 22.781 17.6177 22.4494 17.3695L15.2502 11.9823L22.4491 6.6007C22.7808 6.35269 22.8487 5.88269 22.6007 5.55094C22.3527 5.21918 21.8827 5.15129 21.5509 5.3993L13.9982 11.0454L9.569 7.73097ZM7.94985 16.2494C7.96443 16.2872 7.98224 16.3242 8.00334 16.3601C8.16174 16.7073 8.25 17.0934 8.25 17.5C8.25 19.0188 7.01878 20.25 5.5 20.25C3.98122 20.25 2.75 19.0188 2.75 17.5C2.75 15.9812 3.98122 14.75 5.5 14.75C6.56844 14.75 7.49457 15.3593 7.94985 16.2494Z" fill="#595854"/>
</svg>
