<svg width="24" height="24" viewBox="0 0 24 24" fill="none" xmlns="http://www.w3.org/2000/svg">
<path fill-rule="evenodd" clip-rule="evenodd" d="M3.90528 4.90533C3.18986 5.62075 2.74995 6.67044 2.74995 8V9C2.74995 9.41421 2.41416 9.75 1.99995 9.75C1.58573 9.75 1.24995 9.41421 1.24995 9V8C1.24995 6.32956 1.81003 4.87925 2.84462 3.84467C3.8792 2.81009 5.32951 2.25 6.99995 2.25H16.9999C18.6704 2.25 20.1207 2.81009 21.1553 3.84467C22.1899 4.87925 22.7499 6.32956 22.7499 8V16C22.7499 17.6704 22.1899 19.1207 21.1553 20.1553C20.1207 21.1899 18.6704 21.75 16.9999 21.75H15.9999C15.5857 21.75 15.2499 21.4142 15.2499 21C15.2499 20.5858 15.5857 20.25 15.9999 20.25H16.9999C18.3295 20.25 19.3792 19.8101 20.0946 19.0947C20.81 18.3793 21.2499 17.3296 21.2499 16V8C21.2499 6.67044 20.81 5.62075 20.0946 4.90533C19.3792 4.18991 18.3295 3.75 16.9999 3.75H6.99995C5.67038 3.75 4.62069 4.18991 3.90528 4.90533ZM2.94599 11.615C2.99846 11.2041 3.37408 10.9136 3.78496 10.966C8.74509 11.5995 12.4 15.2671 13.0437 20.2234C13.097 20.6342 12.8073 21.0104 12.3965 21.0638C11.9858 21.1171 11.6095 20.8274 11.5562 20.4166C10.9999 16.1329 7.87481 13.0005 3.59494 12.4539C3.18406 12.4015 2.89352 12.0259 2.94599 11.615ZM1.8759 14.9756C1.92803 14.5647 2.3034 14.2738 2.71432 14.326C6.44542 14.7992 9.20011 17.5676 9.68371 21.2935C9.73702 21.7042 9.44725 22.0805 9.03648 22.1338C8.62572 22.1871 8.2495 21.8973 8.19619 21.4865C7.79979 18.4325 5.57447 16.2008 2.52557 15.814C2.11464 15.7619 1.82378 15.3866 1.8759 14.9756ZM1.23622 18.7632C1.28969 18.3524 1.66601 18.0628 2.07676 18.1163C4.10249 18.38 5.6198 19.8842 5.88374 21.9237C5.9369 22.3345 5.64699 22.7106 5.2362 22.7638C4.82541 22.8169 4.44931 22.527 4.39615 22.1162C4.22009 20.7558 3.2374 19.78 1.88313 19.6037C1.47238 19.5502 1.18275 19.1739 1.23622 18.7632Z" fill="#595854"/>
</svg>
