<svg width="24" height="24" viewBox="0 0 24 24" fill="none" xmlns="http://www.w3.org/2000/svg">
<path fill-rule="evenodd" clip-rule="evenodd" d="M6.60672 3.69107C6.06575 4.26154 5.75 5.07002 5.75 6V15.26H18.25V6C18.25 5.07002 17.9342 4.26154 17.3933 3.69107C16.8581 3.12672 16.0603 2.75 15 2.75H9C7.9397 2.75 7.14187 3.12672 6.60672 3.69107ZM19.75 6C19.75 4.72998 19.3157 3.53846 18.4817 2.65893C17.6419 1.77327 16.4397 1.25 15 1.25H9C7.5603 1.25 6.35813 1.77327 5.51828 2.65893C4.68425 3.53846 4.25 4.72998 4.25 6V18C4.25 19.27 4.68425 20.4615 5.51828 21.3411C6.35813 22.2267 7.5603 22.75 9 22.75H15C16.4397 22.75 17.6419 22.2267 18.4817 21.3411C19.3157 20.4615 19.75 19.27 19.75 18V6ZM18.25 16.76H5.75V18C5.75 18.93 6.06575 19.7385 6.60672 20.3089C7.14187 20.8733 7.9397 21.25 9 21.25H15C16.0603 21.25 16.8581 20.8733 17.3933 20.3089C17.9342 19.7385 18.25 18.93 18.25 18V16.76ZM2 3.25C2.41421 3.25 2.75 3.58579 2.75 4V20C2.75 20.4142 2.41421 20.75 2 20.75C1.58579 20.75 1.25 20.4142 1.25 20V4C1.25 3.58579 1.58579 3.25 2 3.25ZM22 3.25C22.4142 3.25 22.75 3.58579 22.75 4V20C22.75 20.4142 22.4142 20.75 22 20.75C21.5858 20.75 21.25 20.4142 21.25 20V4C21.25 3.58579 21.5858 3.25 22 3.25Z" fill="#595854"/>
</svg>
