<svg width="24" height="24" viewBox="0 0 24 24" fill="none" xmlns="http://www.w3.org/2000/svg">
<path fill-rule="evenodd" clip-rule="evenodd" d="M6.46001 4.14001C5.5156 4.14001 4.75 4.90561 4.75 5.85001C4.75 6.79442 5.5156 7.56001 6.46001 7.56001C7.40441 7.56001 8.17 6.79443 8.17 5.85001C8.17 4.9056 7.40441 4.14001 6.46001 4.14001ZM3.25 5.85001C3.25 4.07718 4.68718 2.64001 6.46001 2.64001C8.23284 2.64001 9.67 4.07718 9.67 5.85001C9.67 7.62284 8.23284 9.06001 6.46001 9.06001C4.68718 9.06001 3.25 7.62285 3.25 5.85001ZM17.54 4.14001C16.5956 4.14001 15.83 4.9056 15.83 5.85001C15.83 6.79443 16.5956 7.56001 17.54 7.56001C18.4844 7.56001 19.25 6.79442 19.25 5.85001C19.25 4.90561 18.4844 4.14001 17.54 4.14001ZM14.33 5.85001C14.33 4.07718 15.7672 2.64001 17.54 2.64001C19.3128 2.64001 20.75 4.07718 20.75 5.85001C20.75 7.62285 19.3128 9.06001 17.54 9.06001C15.7672 9.06001 14.33 7.62284 14.33 5.85001ZM6.46001 16.44C5.5156 16.44 4.75 17.2056 4.75 18.15C4.75 19.0944 5.5156 19.86 6.46001 19.86C7.40441 19.86 8.17 19.0944 8.17 18.15C8.17 17.2056 7.40441 16.44 6.46001 16.44ZM3.25 18.15C3.25 16.3772 4.68718 14.94 6.46001 14.94C8.23284 14.94 9.67 16.3772 9.67 18.15C9.67 19.9228 8.23285 21.36 6.46001 21.36C4.68717 21.36 3.25 19.9228 3.25 18.15ZM17.54 16.44C16.5956 16.44 15.83 17.2056 15.83 18.15C15.83 19.0944 16.5956 19.86 17.54 19.86C18.4844 19.86 19.25 19.0944 19.25 18.15C19.25 17.2056 18.4844 16.44 17.54 16.44ZM14.33 18.15C14.33 16.3772 15.7672 14.94 17.54 14.94C19.3128 14.94 20.75 16.3772 20.75 18.15C20.75 19.9228 19.3128 21.36 17.54 21.36C15.7672 21.36 14.33 19.9228 14.33 18.15Z" fill="#595854"/>
</svg>
