<svg width="24" height="24" viewBox="0 0 24 24" fill="none" xmlns="http://www.w3.org/2000/svg">
<path fill-rule="evenodd" clip-rule="evenodd" d="M3.50533 3.50531C3.0398 3.97083 2.75 4.77392 2.75 6.19995V9.80005C2.75 11.2261 3.0398 12.0292 3.50533 12.4947C3.97086 12.9602 4.77397 13.25 6.2 13.25H9.29081C9.40179 12.1022 9.74154 11.1428 10.4422 10.4422C11.1428 9.74154 12.1022 9.40179 13.25 9.29081V6.19995C13.25 4.77392 12.9602 3.97083 12.4947 3.50531C12.0291 3.03979 11.226 2.75 9.8 2.75H6.2C4.77397 2.75 3.97086 3.03979 3.50533 3.50531ZM14.0069 10.75C12.6969 10.7744 11.9464 11.0593 11.5028 11.5028C11.0593 11.9464 10.7744 12.6969 10.75 14.0069V17.8C10.75 19.2261 11.0398 20.0292 11.5053 20.4947C11.9709 20.9602 12.774 21.25 14.2 21.25H17.8C19.226 21.25 20.0291 20.9602 20.4947 20.4947C20.9602 20.0292 21.25 19.2261 21.25 17.8V14.2C21.25 12.7739 20.9602 11.9708 20.4947 11.5053C20.0291 11.0398 19.226 10.75 17.8 10.75H14.0069ZM9.25 14.75H6.2C4.62604 14.75 3.32915 14.4398 2.44468 13.5554C1.5602 12.6709 1.25 11.374 1.25 9.80005V6.19995C1.25 4.62598 1.5602 3.3291 2.44468 2.44464C3.32915 1.56019 4.62604 1.25 6.2 1.25H9.8C11.374 1.25 12.6709 1.56019 13.5553 2.44464C14.4398 3.3291 14.75 4.62598 14.75 6.19995V9.25H17.8C19.374 9.25 20.6709 9.56019 21.5553 10.4446C22.4398 11.3291 22.75 12.626 22.75 14.2V17.8C22.75 19.374 22.4398 20.6709 21.5553 21.5554C20.6709 22.4398 19.374 22.75 17.8 22.75H14.2C12.626 22.75 11.3291 22.4398 10.4447 21.5554C9.5602 20.6709 9.25 19.374 9.25 17.8V14.75ZM4.76298 5.28046C5.55303 4.71401 6.59588 4.71597 7.38141 5.24955C7.72406 5.48229 7.81315 5.94873 7.58041 6.29137C7.34767 6.63401 6.88123 6.72311 6.53859 6.49037C6.26412 6.30394 5.90697 6.30595 5.63702 6.4995C5.30039 6.74086 4.83184 6.66362 4.59048 6.32699C4.34912 5.99036 4.42636 5.52181 4.76298 5.28046ZM8.76298 5.28046C9.55303 4.71401 10.5959 4.71597 11.3814 5.24955C11.7241 5.48229 11.8132 5.94873 11.5804 6.29137C11.3477 6.63401 10.8812 6.72311 10.5386 6.49037C10.2641 6.30394 9.90697 6.30595 9.63702 6.4995C9.30039 6.74086 8.83184 6.66362 8.59048 6.32699C8.34912 5.99036 8.42636 5.52181 8.76298 5.28046ZM6.06121 10.67C6.16615 9.69276 6.99513 8.93005 8 8.93005C8.46623 8.93005 8.89098 9.08984 9.21993 9.35443C9.54269 9.61404 10.0148 9.56285 10.2744 9.24009C10.534 8.91733 10.4828 8.44522 10.1601 8.18561C9.56902 7.7102 8.81377 7.43005 8 7.43005C6.0958 7.43005 4.55 8.97577 4.55 10.88C4.55 11.5941 5.12572 12.17 5.84 12.17H8.16C8.57421 12.17 8.91 11.8343 8.91 11.42C8.91 11.0058 8.57421 10.67 8.16 10.67H6.06121ZM12.5905 13.163C12.8318 12.8263 13.3004 12.7491 13.637 12.9905C13.907 13.184 14.2641 13.186 14.5386 12.9996C14.8812 12.7668 15.3477 12.8559 15.5804 13.1986C15.8132 13.5412 15.7241 14.0077 15.3814 14.2404C14.5959 14.774 13.553 14.7759 12.763 14.2095C12.4264 13.9681 12.3491 13.4996 12.5905 13.163ZM16.5905 13.163C16.8318 12.8263 17.3004 12.7491 17.637 12.9905C17.907 13.184 18.2641 13.186 18.5386 12.9996C18.8812 12.7668 19.3477 12.8559 19.5804 13.1986C19.8132 13.5412 19.7241 14.0077 19.3814 14.2404C18.5959 14.774 17.553 14.7759 16.763 14.2095C16.4264 13.9681 16.3491 13.4996 16.5905 13.163ZM14.0612 16.9301C14.1662 17.9073 14.9952 18.67 16 18.67C17.0048 18.67 17.8338 17.9073 17.9388 16.9301H14.0612ZM12.55 16.72C12.55 16.0056 13.1259 15.4301 13.84 15.4301H18.16C18.8741 15.4301 19.45 16.0056 19.45 16.72C19.45 18.6242 17.9042 20.17 16 20.17C14.0958 20.17 12.55 18.6242 12.55 16.72Z" fill="#595854"/>
</svg>
