<svg width="24" height="24" viewBox="0 0 24 24" fill="none" xmlns="http://www.w3.org/2000/svg">
<path fill-rule="evenodd" clip-rule="evenodd" d="M8.65955 7.01912C9.53939 6.18631 10.7313 5.75469 12.0018 5.76006L17.0901 5.76006C18.5543 5.76006 19.7501 6.95585 19.7501 8.42006V8.75006L22.0001 8.75006C22.4143 8.75006 22.7501 9.08585 22.7501 9.50006C22.7501 9.91428 22.4143 10.2501 22.0001 10.2501L19.7501 10.2501V13.7501H22.0001C22.4143 13.7501 22.7501 14.0858 22.7501 14.5001C22.7501 14.9143 22.4143 15.2501 22.0001 15.2501H19.7501V15.59C19.7501 17.0543 18.5543 18.25 17.0901 18.25H12.0001C10.7301 18.25 9.53858 17.8158 8.65905 16.9818C7.7734 16.1419 7.25012 14.9397 7.25012 13.5V12.7501L2.00012 12.7501C1.58591 12.7501 1.25012 12.4143 1.25012 12.0001C1.25012 11.5858 1.58591 11.2501 2.00012 11.2501L7.25012 11.2501V10.5C7.25012 9.0605 7.77332 7.85798 8.65955 7.01912ZM8.75012 13.5C8.75012 14.5604 9.12685 15.3582 9.69119 15.8933C10.2617 16.4343 11.0701 16.75 12.0001 16.75H17.0901C17.7259 16.75 18.2501 16.2258 18.2501 15.59V8.42006C18.2501 7.78428 17.7259 7.26006 17.0901 7.26006L11.9967 7.26006C11.0678 7.25584 10.2605 7.56919 9.6907 8.10849C9.12693 8.64213 8.75012 9.4396 8.75012 10.5V13.5Z" fill="#595854"/>
</svg>
