<svg width="24" height="24" viewBox="0 0 24 24" fill="none" xmlns="http://www.w3.org/2000/svg">
<path fill-rule="evenodd" clip-rule="evenodd" d="M3.88534 5.7371C3.20538 6.36848 2.75 7.39295 2.75 9V13.8153C3.41962 13.4546 4.18582 13.25 5 13.25C7.62421 13.25 9.75 15.3758 9.75 18C9.75 18.4302 9.69178 18.8501 9.58175 19.25H17C18.385 19.25 19.4246 18.9036 20.1147 18.2629C20.7946 17.6315 21.25 16.607 21.25 15V9C21.25 7.39295 20.7946 6.36848 20.1147 5.7371C19.4246 5.09637 18.385 4.75 17 4.75H7C5.61497 4.75 4.57535 5.09637 3.88534 5.7371ZM8.86568 20.75H17C18.615 20.75 20.0754 20.3464 21.1353 19.3621C22.2054 18.3685 22.75 16.893 22.75 15V9C22.75 7.10705 22.2054 5.63152 21.1353 4.6379C20.0754 3.65363 18.615 3.25 17 3.25H7C5.38503 3.25 3.92465 3.65363 2.86466 4.6379C1.79462 5.63152 1.25 7.10705 1.25 9V15.0835C0.623242 15.8883 0.25 16.9004 0.25 18C0.25 18.8885 0.49829 19.7327 0.938485 20.4486C1.75937 21.8246 3.26805 22.75 5 22.75C6.60223 22.75 8.01337 21.958 8.86568 20.75ZM12 10.25C11.0335 10.25 10.25 11.0335 10.25 12C10.25 12.9665 11.0335 13.75 12 13.75C12.9665 13.75 13.75 12.9665 13.75 12C13.75 11.0335 12.9665 10.25 12 10.25ZM8.75 12C8.75 10.2051 10.2051 8.75 12 8.75C13.7949 8.75 15.25 10.2051 15.25 12C15.25 13.7949 13.7949 15.25 12 15.25C10.2051 15.25 8.75 13.7949 8.75 12ZM18.5 8.75C18.9142 8.75 19.25 9.08579 19.25 9.5V14.5C19.25 14.9142 18.9142 15.25 18.5 15.25C18.0858 15.25 17.75 14.9142 17.75 14.5V9.5C17.75 9.08579 18.0858 8.75 18.5 8.75ZM5 14.75C3.20421 14.75 1.75 16.2042 1.75 18C1.75 18.6094 1.92051 19.1833 2.21836 19.6663L2.22465 19.6765L2.22457 19.6766C2.78438 20.6177 3.81412 21.25 5 21.25C6.18588 21.25 7.21562 20.6177 7.77543 19.6766L7.78155 19.6663L7.78164 19.6663C8.07949 19.1833 8.25 18.6094 8.25 18C8.25 16.2042 6.79579 14.75 5 14.75ZM5 15.7695C5.41421 15.7695 5.75 16.1053 5.75 16.5195V17.2295H6.4917C6.90591 17.2295 7.2417 17.5653 7.2417 17.9795C7.2417 18.3937 6.90591 18.7295 6.4917 18.7295H5.75V19.5095C5.75 19.9237 5.41421 20.2595 5 20.2595C4.58579 20.2595 4.25 19.9237 4.25 19.5095V18.7295H3.51172C3.09751 18.7295 2.76172 18.3937 2.76172 17.9795C2.76172 17.5653 3.09751 17.2295 3.51172 17.2295H4.25V16.5195C4.25 16.1053 4.58579 15.7695 5 15.7695Z" fill="#595854"/>
</svg>
