<svg width="24" height="24" viewBox="0 0 24 24" fill="none" xmlns="http://www.w3.org/2000/svg">
<path fill-rule="evenodd" clip-rule="evenodd" d="M16.7497 2.47968C17.0426 2.18679 17.5175 2.18679 17.8104 2.47968L21.5303 6.19965C21.8232 6.49254 21.8232 6.96741 21.5303 7.26031L17.8104 10.9803C17.5175 11.2732 17.0426 11.2732 16.7497 10.9803C16.4568 10.6875 16.4568 10.2126 16.7497 9.91969L19.1894 7.47998H3C2.58579 7.47998 2.25 7.14419 2.25 6.72998C2.25 6.31577 2.58579 5.97998 3 5.97998H19.1893L16.7497 3.54034C16.4568 3.24745 16.4568 2.77257 16.7497 2.47968ZM7.2503 13.0197C7.54319 13.3125 7.5432 13.7874 7.25031 14.0803L4.81064 16.52H21C21.4142 16.52 21.75 16.8558 21.75 17.27C21.75 17.6842 21.4142 18.02 21 18.02H4.81066L7.2503 20.4597C7.54319 20.7526 7.54319 21.2274 7.2503 21.5203C6.95741 21.8132 6.48253 21.8132 6.18964 21.5203L2.46967 17.8003C2.17678 17.5075 2.17678 17.0326 2.46967 16.7397L6.18964 13.0197C6.48253 12.7268 6.9574 12.7268 7.2503 13.0197Z" fill="#595854"/>
</svg>
