<svg width="24" height="24" viewBox="0 0 24 24" fill="none" xmlns="http://www.w3.org/2000/svg">
<path fill-rule="evenodd" clip-rule="evenodd" d="M17.0398 5.15967C17.3327 4.86678 17.8076 4.86678 18.1004 5.15967L20.6604 7.71967C20.9533 8.01257 20.9533 8.48744 20.6604 8.78033L18.1004 11.3403C17.8076 11.6332 17.3327 11.6332 17.0398 11.3403C16.7469 11.0474 16.7469 10.5726 17.0398 10.2797L18.2595 9.06H8.87012C6.52433 9.06 4.62012 10.9642 4.62012 13.31C4.62012 15.6558 6.52433 17.56 8.87012 17.56H16.8701C17.2843 17.56 17.6201 17.8958 17.6201 18.31C17.6201 18.7242 17.2843 19.06 16.8701 19.06H8.87012C5.6959 19.06 3.12012 16.4842 3.12012 13.31C3.12012 10.1358 5.6959 7.56 8.87012 7.56H18.3795L17.0398 6.22033C16.7469 5.92744 16.7469 5.45257 17.0398 5.15967Z" fill="#595854"/>
</svg>
