<svg width="24" height="24" viewBox="0 0 24 24" fill="none" xmlns="http://www.w3.org/2000/svg">
<path fill-rule="evenodd" clip-rule="evenodd" d="M3.09467 3.09467C4.42914 1.7602 6.42603 1.25 9 1.25H15C17.574 1.25 19.5709 1.7602 20.9053 3.09467C22.2398 4.42914 22.75 6.42603 22.75 9V15C22.75 17.574 22.2398 19.5709 20.9053 20.9053C19.5709 22.2398 17.574 22.75 15 22.75H9C6.42603 22.75 4.42914 22.2398 3.09467 20.9053C1.7602 19.5709 1.25 17.574 1.25 15V9C1.25 6.42603 1.7602 4.42914 3.09467 3.09467ZM4.15533 4.15533C3.2398 5.07086 2.75 6.57397 2.75 9V10.16H8.89663C9.12878 8.35528 10.9097 7.04459 12.8326 7.55496C13.8927 7.83367 14.746 8.68637 15.0256 9.7462C15.0632 9.88463 15.0901 10.0229 15.1074 10.1601L21.25 10.1602V9C21.25 6.57397 20.7602 5.07086 19.8447 4.15533C18.9291 3.2398 17.426 2.75 15 2.75H9C6.57397 2.75 5.07086 3.2398 4.15533 4.15533ZM21.25 11.6602L14.9298 11.6601C14.737 12.1752 14.4114 12.6208 14.0011 12.9619V14.5601C14.0011 15.6643 13.1053 16.5601 12.0011 16.5601C10.8969 16.5601 10.0011 15.6643 10.0011 14.5601V12.9619C9.59074 12.6208 9.26516 12.1751 9.07238 11.66H2.75V15C2.75 17.426 3.2398 18.9291 4.15533 19.8447C5.07086 20.7602 6.57397 21.25 9 21.25H15C17.426 21.25 18.9291 20.7602 19.8447 19.8447C20.7602 18.9291 21.25 17.426 21.25 15V11.6602ZM12.4484 9.00495C11.3512 8.71329 10.3711 9.52557 10.3711 10.5601C10.3711 10.6403 10.3779 10.7151 10.389 10.776L10.3917 10.7907L10.3938 10.8055C10.4609 11.2819 10.7438 11.6929 11.1466 11.9429L11.5011 12.1629V14.5601C11.5011 14.8359 11.7253 15.0601 12.0011 15.0601C12.2769 15.0601 12.5011 14.8359 12.5011 14.5601V12.1629L12.8556 11.9429C13.2584 11.6929 13.5413 11.2819 13.6084 10.8055L13.6095 10.7981L13.6107 10.7907C13.6448 10.5791 13.6375 10.3575 13.5775 10.1375L13.5756 10.1306C13.4344 9.59235 12.9889 9.14681 12.4507 9.00554L12.4484 9.00495Z" fill="#595854"/>
</svg>
