<svg width="24" height="24" viewBox="0 0 24 24" fill="none" xmlns="http://www.w3.org/2000/svg">
<path fill-rule="evenodd" clip-rule="evenodd" d="M12.0001 2.75C12.199 2.75 12.3897 2.82902 12.5304 2.96967L18.6004 9.03967C18.8933 9.33256 18.8933 9.80744 18.6004 10.1003C18.3075 10.3932 17.8326 10.3932 17.5397 10.1003L12.7501 5.31066V20.5C12.7501 20.9142 12.4143 21.25 12.0001 21.25C11.5858 21.25 11.2501 20.9142 11.2501 20.5V5.31066L6.46038 10.1003C6.16749 10.3932 5.69262 10.3932 5.39972 10.1003C5.10683 9.80744 5.10683 9.33256 5.39972 9.03967L11.4697 2.96967C11.6104 2.82902 11.8011 2.75 12.0001 2.75Z" fill="#595854"/>
</svg>
