<svg width="24" height="24" viewBox="0 0 24 24" fill="none" xmlns="http://www.w3.org/2000/svg">
<path fill-rule="evenodd" clip-rule="evenodd" d="M15.3436 2.22889C15.4965 2.59893 15.5599 3.04164 15.5599 3.51999V9.96999H17.8999C18.694 9.96999 19.5507 10.2129 19.896 10.9776C20.2414 11.7425 19.8563 12.5443 19.3321 13.1365C19.3319 13.1367 19.3316 13.137 19.3314 13.1373L11.7629 21.7355C11.4469 22.0943 11.1067 22.3847 10.7478 22.5617C10.3857 22.7403 9.94614 22.8283 9.51009 22.6646C9.07363 22.5008 8.80072 22.1448 8.64632 21.7711C8.49342 21.4011 8.42995 20.9583 8.42995 20.48V14.03H6.08995C5.30145 14.03 4.44759 13.79 4.10184 13.0271C3.75684 12.2659 4.13612 11.4645 4.65353 10.8684L4.65696 10.8644L12.227 2.26445C12.543 1.90572 12.8832 1.6153 13.2421 1.43829C13.6042 1.25972 14.0438 1.17164 14.4798 1.33535C14.9163 1.49921 15.1892 1.85523 15.3436 2.22889ZM13.3529 3.25554C13.5918 2.98442 13.7817 2.84468 13.9056 2.78357C13.9192 2.77686 13.9312 2.77144 13.9418 2.76706C13.9466 2.7769 13.9517 2.78839 13.9573 2.80172C14.0097 2.92856 14.0599 3.15835 14.0599 3.51999V10.72C14.0599 11.1342 14.3957 11.47 14.8099 11.47H17.8999C18.1819 11.47 18.3595 11.5144 18.4568 11.5576C18.4932 11.5738 18.5141 11.5876 18.5252 11.5965C18.5244 11.6105 18.5209 11.6347 18.5093 11.6717C18.4777 11.7721 18.3941 11.9332 18.2085 12.1427L18.207 12.1445L10.6372 20.7442C10.3982 21.0155 10.2082 21.1553 10.0843 21.2164C10.0707 21.2231 10.0587 21.2285 10.0481 21.2329C10.0433 21.2231 10.0381 21.2116 10.0326 21.1983C9.98022 21.0714 9.92995 20.8416 9.92995 20.48V13.28C9.92995 12.8658 9.59416 12.53 9.17995 12.53H6.08995C5.81007 12.53 5.63417 12.4861 5.53816 12.4435C5.50297 12.4279 5.4826 12.4146 5.47162 12.406C5.47227 12.3917 5.47567 12.3668 5.48749 12.3285C5.51885 12.2269 5.60165 12.0648 5.78478 11.8534L13.3529 3.25554C13.353 3.25546 13.3529 3.25562 13.3529 3.25554Z" fill="#595854"/>
</svg>
