<svg width="24" height="24" viewBox="0 0 24 24" fill="none" xmlns="http://www.w3.org/2000/svg">
<path fill-rule="evenodd" clip-rule="evenodd" d="M3.09467 3.09467C4.42914 1.7602 6.42603 1.25 9 1.25H15C17.574 1.25 19.5709 1.7602 20.9053 3.09467C22.2398 4.42914 22.75 6.42603 22.75 9V13C22.75 13.4142 22.4142 13.75 22 13.75C21.5858 13.75 21.25 13.4142 21.25 13V9C21.25 6.57397 20.7602 5.07086 19.8447 4.15533C18.9291 3.2398 17.426 2.75 15 2.75H9C6.57397 2.75 5.07086 3.2398 4.15533 4.15533C3.2398 5.07086 2.75 6.57397 2.75 9V15C2.75 17.426 3.2398 18.9291 4.15533 19.8447C5.07086 20.7602 6.57397 21.25 9 21.25H14C14.4142 21.25 14.75 21.5858 14.75 22C14.75 22.4142 14.4142 22.75 14 22.75H9C6.42603 22.75 4.42914 22.2398 3.09467 20.9053C1.7602 19.5709 1.25 17.574 1.25 15V9C1.25 6.42603 1.7602 4.42914 3.09467 3.09467ZM10.0327 5.51457C10.4443 5.56021 10.7411 5.93096 10.6954 6.34265L10.4374 8.67H12.0882L12.3646 6.17735C12.4102 5.76566 12.781 5.46892 13.1927 5.51457C13.6043 5.56021 13.9011 5.93096 13.8554 6.34265L13.5974 8.67H16C16.4142 8.67 16.75 9.00579 16.75 9.42C16.75 9.83421 16.4142 10.17 16 10.17H13.4311L13.247 11.83H15.47C15.8842 11.83 16.22 12.1658 16.22 12.58C16.22 12.9942 15.8842 13.33 15.47 13.33H13.0807L12.8054 15.8127C12.7598 16.2243 12.389 16.5211 11.9773 16.4754C11.5657 16.4298 11.2689 16.059 11.3146 15.6473L11.5715 13.33H9.9207L9.64543 15.8127C9.59978 16.2243 9.22904 16.5211 8.81735 16.4754C8.40566 16.4298 8.10892 16.059 8.15457 15.6473L8.41151 13.33H6C5.58579 13.33 5.25 12.9942 5.25 12.58C5.25 12.1658 5.58579 11.83 6 11.83H8.57782L8.76188 10.17H6.53C6.11579 10.17 5.78 9.83421 5.78 9.42C5.78 9.00579 6.11579 8.67 6.53 8.67H8.92819L9.20457 6.17735C9.25021 5.76566 9.62096 5.46892 10.0327 5.51457ZM10.2711 10.17L10.087 11.83H11.7378L11.9219 10.17H10.2711ZM19 15.25C19.4142 15.25 19.75 15.5858 19.75 16V20.1893L20.4697 19.4697C20.7626 19.1768 21.2374 19.1768 21.5303 19.4697C21.8232 19.7626 21.8232 20.2374 21.5303 20.5303L19.5303 22.5303C19.2374 22.8232 18.7626 22.8232 18.4697 22.5303L16.4697 20.5303C16.1768 20.2374 16.1768 19.7626 16.4697 19.4697C16.7626 19.1768 17.2374 19.1768 17.5303 19.4697L18.25 20.1893V16C18.25 15.5858 18.5858 15.25 19 15.25Z" fill="#595854"/>
</svg>
