<svg width="24" height="24" viewBox="0 0 24 24" fill="none" xmlns="http://www.w3.org/2000/svg">
<path fill-rule="evenodd" clip-rule="evenodd" d="M3.41908 3.41908C2.9912 3.84696 2.75 4.66007 2.75 6.44V12.25H21.25V11.89C21.25 11.4758 21.5858 11.14 22 11.14C22.4142 11.14 22.75 11.4758 22.75 11.89V12.78C22.75 12.8423 22.7498 12.9042 22.7492 12.9656C22.7497 12.977 22.75 12.9885 22.75 13C22.75 13.017 22.7494 13.0339 22.7483 13.0506C22.7272 14.6977 22.4999 16.0086 21.6411 16.8658C20.7361 17.7691 19.3286 17.97 17.56 17.97H12.75V21.25H16.5C16.9142 21.25 17.25 21.5858 17.25 22C17.25 22.4142 16.9142 22.75 16.5 22.75H7.5C7.08579 22.75 6.75 22.4142 6.75 22C6.75 21.5858 7.08579 21.25 7.5 21.25H11.25V17.97H6.44C4.66993 17.97 3.26304 17.7662 2.35842 16.8616C1.50042 16.0036 1.27287 14.6938 1.25169 13.0508C1.25057 13.034 1.25 13.0171 1.25 13C1.25 12.9884 1.25026 12.9769 1.25078 12.9655C1.25025 12.9041 1.25 12.8423 1.25 12.78V6.44C1.25 4.66993 1.4538 3.26304 2.35842 2.35842C3.26304 1.4538 4.66993 1.25 6.44 1.25H8C8.41421 1.25 8.75 1.58579 8.75 2C8.75 2.41421 8.41421 2.75 8 2.75H6.44C4.66007 2.75 3.84696 2.9912 3.41908 3.41908ZM2.77941 13.75C2.85571 14.8744 3.07813 15.46 3.41908 15.8009C3.84696 16.2288 4.66007 16.47 6.44 16.47H17.56C19.3414 16.47 20.1539 16.2309 20.5814 15.8042C20.922 15.4642 21.1446 14.8788 21.2208 13.75H2.77941ZM13.26 2.76C12.5742 2.76 12.01 3.32421 12.01 4.01V7.53C12.01 7.87857 12.0986 8.14678 12.2387 8.31486C12.3587 8.45888 12.5904 8.62 13.1 8.62H17.86C18.4658 8.62 18.95 8.13579 18.95 7.53V3.85C18.95 3.24421 18.4658 2.76 17.86 2.76H13.26ZM20.2987 2.97289C19.9405 1.97252 18.9861 1.26 17.86 1.26H13.26C11.7458 1.26 10.51 2.49579 10.51 4.01V7.53C10.51 8.10143 10.6514 8.75322 11.0863 9.27514C11.5413 9.82112 12.2296 10.12 13.1 10.12H17.86C18.9861 10.12 19.9405 9.40748 20.2987 8.40711L20.4799 8.53442C20.8871 8.81946 21.4693 9.02209 22.0222 8.73866C22.5785 8.45342 22.75 7.85903 22.75 7.36V4.03C22.75 3.5294 22.5778 2.93848 22.0255 2.65181C21.4772 2.36727 20.8963 2.56099 20.4869 2.84077L20.2987 2.97289ZM20.45 4.6997V6.6803L21.25 7.24228V4.13772L20.45 4.6997Z" fill="#595854"/>
</svg>
