<svg width="24" height="24" viewBox="0 0 24 24" fill="none" xmlns="http://www.w3.org/2000/svg">
<path fill-rule="evenodd" clip-rule="evenodd" d="M10.2349 1.62984C10.8574 2.21519 10.714 3.10867 10.4175 3.78943L10.417 3.7906C9.96775 4.81751 9.72073 5.94337 9.72989 7.13421L9.72991 7.13688C9.7482 11.5563 13.4218 15.3266 17.9206 15.5106L17.9211 15.5106C18.5854 15.5383 19.2203 15.4922 19.8367 15.3819C20.2416 15.3082 20.6355 15.2958 20.9882 15.378C21.3477 15.4619 21.7048 15.6568 21.9261 16.0189C22.1465 16.3795 22.158 16.7846 22.0735 17.14C21.9903 17.4901 21.8066 17.8358 21.5643 18.164C19.4402 21.0702 15.904 22.9104 11.9574 22.7393L11.957 22.7393C6.35625 22.493 1.6695 18.0129 1.28179 12.4732C0.927557 7.5624 3.84205 3.28549 8.07847 1.49892C8.75829 1.21098 9.63578 1.06646 10.2349 1.62984ZM9.17006 2.74535C9.06997 2.74811 8.90183 2.77908 8.66268 2.88048L8.66134 2.88105C4.978 4.43437 2.47259 8.13707 2.77796 12.366L2.77808 12.3677C3.1108 17.1274 7.16361 21.0268 12.0224 21.2407M9.25039 2.7515C9.25035 2.75153 9.24953 2.75131 9.248 2.75071C9.24966 2.75116 9.25042 2.75146 9.25039 2.7515ZM9.17006 2.74535C9.16412 2.83328 9.13399 2.97978 9.04257 3.18988C8.51215 4.40245 8.21928 5.73596 8.22992 7.14442C8.25235 12.3844 12.5785 16.7934 17.8593 17.0094C18.6345 17.0416 19.3791 16.9877 20.1021 16.8582L20.1045 16.8578C20.344 16.8141 20.5062 16.8161 20.6038 16.8306C20.5738 16.9267 20.5031 17.0761 20.3567 17.2743L20.3543 17.2775C18.5184 19.7903 15.4554 21.3894 12.0229 21.2407M20.6951 16.854C20.6951 16.854 20.6947 16.8538 20.6938 16.8533L20.6951 16.854ZM20.6225 16.74C20.6224 16.7387 20.6224 16.738 20.6224 16.7379C20.6224 16.7379 20.6225 16.7386 20.6225 16.74Z" fill="#595854"/>
</svg>
