<svg width="24" height="24" viewBox="0 0 24 24" fill="none" xmlns="http://www.w3.org/2000/svg">
<path fill-rule="evenodd" clip-rule="evenodd" d="M6 2.76001C4.74764 2.76001 3.75 3.76074 3.75 4.97998V15.89C3.75 17.1093 4.74764 18.11 6 18.11H6.75C7.73267 18.11 8.69438 18.4946 9.39874 19.1981C9.39927 19.1986 9.3998 19.1991 9.40033 19.1996L11.1069 20.8862C11.5948 21.3675 12.3949 21.3678 12.8828 20.8865L14.5897 19.1996C14.5902 19.1991 14.5908 19.1985 14.5913 19.198C15.2948 18.4955 16.246 18.11 17.24 18.11H18C19.2507 18.11 20.25 17.1009 20.25 15.89V4.97998C20.25 3.76074 19.2524 2.76001 18 2.76001H6ZM2.25 4.97998C2.25 2.91923 3.93236 1.26001 6 1.26001H18C20.0676 1.26001 21.75 2.91923 21.75 4.97998V15.89C21.75 17.9391 20.0693 19.61 18 19.61H17.24C16.6347 19.61 16.0667 19.8439 15.6503 20.2603L15.6472 20.2634L13.9372 21.9534C12.8651 23.0118 11.1252 23.0121 10.0531 21.9537L8.3428 20.2634L8.33966 20.2603C7.92416 19.8448 7.34659 19.61 6.75 19.61H6C3.93236 19.61 2.25 17.9508 2.25 15.89V4.97998ZM12 6.09003C11.1274 6.09003 10.42 6.7974 10.42 7.66998C10.42 8.54259 11.1274 9.25 12 9.25C12.8726 9.25 13.58 8.54259 13.58 7.66998C13.58 6.7974 12.8726 6.09003 12 6.09003ZM8.91998 7.66998C8.91998 5.96892 10.299 4.59003 12 4.59003C13.701 4.59003 15.08 5.96892 15.08 7.66998C15.08 9.37102 13.701 10.75 12 10.75C10.299 10.75 8.91998 9.37102 8.91998 7.66998ZM7.25 15.66C7.25 13.3098 9.52631 11.65 12 11.65C14.4737 11.65 16.75 13.3098 16.75 15.66C16.75 16.0742 16.4142 16.41 16 16.41C15.5858 16.41 15.25 16.0742 15.25 15.66C15.25 14.4102 13.9463 13.15 12 13.15C10.0537 13.15 8.75 14.4102 8.75 15.66C8.75 16.0742 8.41421 16.41 8 16.41C7.58579 16.41 7.25 16.0742 7.25 15.66Z" fill="#595854"/>
</svg>
