<svg width="24" height="24" viewBox="0 0 24 24" fill="none" xmlns="http://www.w3.org/2000/svg">
<path fill-rule="evenodd" clip-rule="evenodd" d="M11.97 2.75C6.86134 2.75 2.71997 6.89137 2.71997 12C2.71997 17.1086 6.86134 21.25 11.97 21.25C17.0786 21.25 21.22 17.1086 21.22 12C21.22 6.89137 17.0786 2.75 11.97 2.75ZM1.21997 12C1.21997 6.06294 6.03291 1.25 11.97 1.25C17.907 1.25 22.72 6.06294 22.72 12C22.72 17.9371 17.907 22.75 11.97 22.75C6.03291 22.75 1.21997 17.9371 1.21997 12ZM6.78179 15.3842C7.12187 15.1478 7.58926 15.2317 7.82573 15.5718C8.74071 16.8876 10.2745 17.75 12 17.75C13.7235 17.75 15.2494 16.8892 16.1761 15.5691C16.4141 15.2301 16.8819 15.1482 17.2209 15.3861C17.5599 15.6241 17.6418 16.0919 17.4038 16.4309C16.2105 18.1308 14.2364 19.25 12 19.25C9.76549 19.25 7.77923 18.1324 6.59421 16.4282C6.35773 16.0881 6.44172 15.6207 6.78179 15.3842Z" fill="#595854"/>
</svg>
