<svg width="24" height="24" viewBox="0 0 24 24" fill="none" xmlns="http://www.w3.org/2000/svg">
<path fill-rule="evenodd" clip-rule="evenodd" d="M5.70006 2.75C4.11427 2.75 2.75006 4.11421 2.75006 5.7V14.2308C2.96531 14.0583 3.20742 13.8773 3.47719 13.6931C4.75825 12.8185 6.65749 11.8781 9.25006 11.4509V5.7C9.25006 4.12713 7.89888 2.75 6.20006 2.75H5.70006ZM1.25006 18.25V5.7C1.25006 3.28579 3.28585 1.25 5.70006 1.25H6.20006C8.70124 1.25 10.7501 3.27287 10.7501 5.7V11.2712C11.1592 11.25 11.5748 11.25 11.9643 11.25L12.0001 11.25C12.4519 11.25 12.8705 11.2492 13.2501 11.2266V5.7C13.2501 3.28579 15.2858 1.25 17.7001 1.25H18.2001C20.7012 1.25 22.7501 3.27287 22.7501 5.7C22.7501 5.71676 22.75 5.73352 22.7499 5.75027L22.7501 18.3C22.7501 20.8274 20.701 22.75 18.3001 22.75H17.8001C15.2727 22.75 13.3501 20.7009 13.3501 18.3V12.7231C12.9089 12.75 12.4572 12.75 12.0358 12.75L12.0001 12.75C11.5482 12.75 11.1296 12.7508 10.7501 12.7734V18.3C10.7501 20.8274 8.701 22.75 6.30006 22.75H5.70006C3.28585 22.75 1.25006 20.7142 1.25006 18.3C1.25006 18.2832 1.24992 18.2668 1.25006 18.25ZM9.25006 13.0684C7.27716 13.4148 5.75933 14.0826 4.69313 14.7387L4.68596 14.7432C3.43532 15.4935 2.75006 16.8349 2.75006 18.3C2.75006 19.8858 4.11427 21.25 5.70006 21.25H6.30006C7.89913 21.25 9.25006 19.9726 9.25006 18.3V13.0684ZM14.8501 12.5473V18.3C14.8501 19.8991 16.1274 21.25 17.8001 21.25H18.3001C19.8991 21.25 21.2501 19.9726 21.2501 18.3V9.77443C21.0388 9.94476 20.8017 10.1234 20.5382 10.305C19.2712 11.1784 17.3969 12.1188 14.8501 12.5473ZM14.7501 10.9316C16.723 10.5852 18.2408 9.91738 19.307 9.26126L19.3142 9.25684C20.5648 8.50646 21.2501 7.16512 21.2501 5.7C21.2501 4.12713 19.8989 2.75 18.2001 2.75H17.7001C16.1143 2.75 14.7501 4.11421 14.7501 5.7V10.9316Z" fill="#595854"/>
</svg>
