<svg width="24" height="24" viewBox="0 0 24 24" fill="none" xmlns="http://www.w3.org/2000/svg">
<path fill-rule="evenodd" clip-rule="evenodd" d="M4.15533 4.15533C3.2398 5.07086 2.75 6.57397 2.75 9V15C2.75 17.426 3.2398 18.9291 4.15533 19.8447C5.07086 20.7602 6.57397 21.25 9 21.25H15C17.426 21.25 18.9291 20.7602 19.8447 19.8447C20.7602 18.9291 21.25 17.426 21.25 15V10.75H18C16.4585 10.75 15.1921 10.5028 14.3447 9.65533C13.4972 8.80791 13.25 7.54155 13.25 6V2.75H9C6.57397 2.75 5.07086 3.2398 4.15533 4.15533ZM14.75 3.81066L20.1893 9.25H18C16.5415 9.25 15.8079 8.99725 15.4053 8.59467C15.0028 8.19209 14.75 7.45845 14.75 6V3.81066ZM3.09467 3.09467C4.42914 1.7602 6.42603 1.25 9 1.25H14C14.1989 1.25 14.3897 1.32902 14.5303 1.46967L22.5303 9.46967C22.671 9.61032 22.75 9.80109 22.75 10V15C22.75 17.574 22.2398 19.5709 20.9053 20.9053C19.5709 22.2398 17.574 22.75 15 22.75H9C6.42603 22.75 4.42914 22.2398 3.09467 20.9053C1.7602 19.5709 1.25 17.574 1.25 15V9C1.25 6.42603 1.7602 4.42914 3.09467 3.09467ZM6.46967 12.4697L8.46967 10.4697C8.76256 10.1768 9.23744 10.1768 9.53033 10.4697L11.5303 12.4697C11.8232 12.7626 11.8232 13.2374 11.5303 13.5303C11.2374 13.8232 10.7626 13.8232 10.4697 13.5303L9.75 12.8107V17C9.75 17.4142 9.41421 17.75 9 17.75C8.58579 17.75 8.25 17.4142 8.25 17V12.8107L7.53033 13.5303C7.23744 13.8232 6.76256 13.8232 6.46967 13.5303C6.17678 13.2374 6.17678 12.7626 6.46967 12.4697Z" fill="#595854"/>
</svg>
