<svg width="24" height="24" viewBox="0 0 24 24" fill="none" xmlns="http://www.w3.org/2000/svg">
<path fill-rule="evenodd" clip-rule="evenodd" d="M3.09465 3.09467C4.42912 1.7602 6.42601 1.25 8.99998 1.25H14C14.4142 1.25 14.75 1.58579 14.75 2C14.75 2.41421 14.4142 2.75 14 2.75H8.99998C6.57395 2.75 5.07084 3.2398 4.15531 4.15533C3.23978 5.07086 2.74998 6.57397 2.74998 9V12.25H5.76998C6.81655 12.25 7.76487 12.8427 8.2308 13.7746L8.23155 13.7761L9.1208 15.5646C9.12068 15.5643 9.12092 15.5648 9.1208 15.5646C9.46356 16.2493 10.0439 16.25 10.239 16.25H13.77C14.2431 16.25 14.6746 15.983 14.8888 15.5553C14.8887 15.5555 14.8889 15.5551 14.8888 15.5553L15.7784 13.7661L15.7792 13.7646C16.2451 12.8327 17.1934 12.24 18.24 12.24H21.25V10C21.25 9.58579 21.5858 9.25 22 9.25C22.4142 9.25 22.75 9.58579 22.75 10V15C22.75 17.574 22.2398 19.5709 20.9053 20.9053C19.5708 22.2398 17.574 22.75 15 22.75H8.99998C6.42601 22.75 4.42912 22.2398 3.09465 20.9053C1.76018 19.5709 1.24998 17.574 1.24998 15V13.1728C1.2369 13.1173 1.22998 13.0595 1.22998 13C1.22998 12.9405 1.2369 12.8827 1.24998 12.8272V9C1.24998 6.42603 1.76018 4.42914 3.09465 3.09467ZM2.74998 13.75V15C2.74998 17.426 3.23978 18.9291 4.15531 19.8447C5.07084 20.7602 6.57395 21.25 8.99998 21.25H15C17.426 21.25 18.9291 20.7602 19.8447 19.8447C20.7602 18.9291 21.25 17.426 21.25 15V13.74H18.24C17.7668 13.74 17.3354 14.007 17.1212 14.4347C17.121 14.4349 17.1213 14.4345 17.1212 14.4347L16.2315 16.2239L16.2308 16.2254C15.7649 17.1573 14.8165 17.75 13.77 17.75H10.24C9.95414 17.75 8.53586 17.7488 7.77916 16.2354L7.77841 16.2339L6.88916 14.4454C6.88904 14.4452 6.88928 14.4456 6.88916 14.4454C6.67496 14.0177 6.24315 13.75 5.76998 13.75H2.74998ZM19 2.75C17.7573 2.75 16.75 3.75736 16.75 5C16.75 6.24264 17.7573 7.25 19 7.25C20.2426 7.25 21.25 6.24264 21.25 5C21.25 3.75736 20.2426 2.75 19 2.75ZM15.25 5C15.25 2.92893 16.9289 1.25 19 1.25C21.071 1.25 22.75 2.92893 22.75 5C22.75 7.07107 21.071 8.75 19 8.75C16.9289 8.75 15.25 7.07107 15.25 5Z" fill="#595854"/>
</svg>
