<svg width="24" height="24" viewBox="0 0 24 24" fill="none" xmlns="http://www.w3.org/2000/svg">
<path fill-rule="evenodd" clip-rule="evenodd" d="M3.09467 3.09467C4.42914 1.7602 6.42603 1.25 9 1.25H15C17.574 1.25 19.5709 1.7602 20.9053 3.09467C22.2398 4.42914 22.75 6.42603 22.75 9V15C22.75 17.574 22.2398 19.5709 20.9053 20.9053C19.5709 22.2398 17.574 22.75 15 22.75H9C6.42603 22.75 4.42914 22.2398 3.09467 20.9053C1.7602 19.5709 1.25 17.574 1.25 15V9C1.25 6.42603 1.7602 4.42914 3.09467 3.09467ZM4.15533 4.15533C3.2398 5.07086 2.75 6.57397 2.75 9V15C2.75 17.426 3.2398 18.9291 4.15533 19.8447C5.07086 20.7602 6.57397 21.25 9 21.25H15C17.426 21.25 18.9291 20.7602 19.8447 19.8447C20.7602 18.9291 21.25 17.426 21.25 15V9C21.25 6.57397 20.7602 5.07086 19.8447 4.15533C18.9291 3.2398 17.426 2.75 15 2.75H9C6.57397 2.75 5.07086 3.2398 4.15533 4.15533ZM7.24451 12C7.24451 11.5858 7.58029 11.25 7.99451 11.25H8.00349C8.4177 11.25 8.75349 11.5858 8.75349 12C8.75349 12.4142 8.4177 12.75 8.00349 12.75H7.99451C7.58029 12.75 7.24451 12.4142 7.24451 12ZM11.2455 12C11.2455 11.5858 11.5813 11.25 11.9955 11.25H12.0045C12.4187 11.25 12.7545 11.5858 12.7545 12C12.7545 12.4142 12.4187 12.75 12.0045 12.75H11.9955C11.5813 12.75 11.2455 12.4142 11.2455 12ZM15.2465 12C15.2465 11.5858 15.5822 11.25 15.9965 11.25H16.0054C16.4197 11.25 16.7554 11.5858 16.7554 12C16.7554 12.4142 16.4197 12.75 16.0054 12.75H15.9965C15.5822 12.75 15.2465 12.4142 15.2465 12Z" fill="#595854"/>
</svg>
