<svg width="24" height="24" viewBox="0 0 24 24" fill="none" xmlns="http://www.w3.org/2000/svg">
<path fill-rule="evenodd" clip-rule="evenodd" d="M3.21783 3.21783C2.93991 3.49575 2.75 3.92044 2.75 4.5V18C2.75 18.2111 2.77307 18.4287 2.81401 18.6453C2.84262 18.7692 2.86582 18.8674 2.89445 18.9617C2.91292 19.017 2.92994 19.0678 2.94628 19.1151C2.96972 19.179 2.99513 19.242 3.02243 19.3041C3.03507 19.3283 3.04617 19.3528 3.05582 19.3774C3.1822 19.6462 3.34453 19.8951 3.53646 20.118C3.57007 20.1557 3.60426 20.1934 3.63941 20.232C3.91834 20.5268 4.2516 20.7697 4.62258 20.9442C4.64721 20.9538 4.67172 20.9649 4.69594 20.9776C4.80376 21.025 4.9146 21.0668 5.02806 21.1024M5.03198 21.1036C5.12814 21.1331 5.22792 21.1567 5.35465 21.186C5.57132 21.2269 5.78895 21.25 6 21.25C6.33603 21.25 6.67153 21.201 6.97375 21.1015C7.08249 21.0619 7.16278 21.0322 7.23964 20.9972C7.25013 20.9924 7.26074 20.9879 7.27144 20.9836C7.54939 20.8725 7.81635 20.7147 8.04881 20.5132C8.05883 20.5045 8.06908 20.4961 8.07955 20.488C8.13995 20.441 8.21654 20.3728 8.28947 20.2999L8.32567 20.2636C8.89538 19.6759 9.25 18.8721 9.25 18V4.5C9.25 3.92044 9.06009 3.49575 8.78217 3.21783C8.50425 2.93991 8.07956 2.75 7.5 2.75H4.5C3.92044 2.75 3.49575 2.93991 3.21783 3.21783M10.75 6.52934V4.5C10.75 3.57956 10.4399 2.75425 9.84283 2.15717C9.24575 1.56009 8.42044 1.25 7.5 1.25H4.5C3.57956 1.25 2.75425 1.56009 2.15717 2.15717C1.56009 2.75425 1.25 3.57956 1.25 4.5V18C1.25 18.3247 1.28597 18.6426 1.34348 18.9416C1.34522 18.9507 1.34712 18.9597 1.34919 18.9686L1.3513 18.9778C1.37984 19.1015 1.41476 19.2529 1.46236 19.408C1.50123 19.5373 1.54596 19.6655 1.59654 19.792C1.60969 19.8262 1.62338 19.8605 1.63763 19.8947C1.6489 19.9288 1.66274 19.9625 1.67919 19.9954C1.69831 20.0337 1.71787 20.0719 1.73786 20.1102C1.95808 20.5594 2.25588 20.9814 2.63142 21.3522C2.72801 21.4559 2.82685 21.5455 2.9223 21.6247C3.22206 21.8822 3.54813 22.0946 3.88991 22.2622C3.92812 22.2822 3.96636 22.3017 4.00459 22.3208C4.03766 22.3374 4.07152 22.3513 4.1059 22.3626C4.21423 22.4097 4.31951 22.4484 4.4189 22.4819C4.47634 22.5016 4.53405 22.5202 4.59198 22.5376C4.74689 22.5852 4.89812 22.6201 5.02164 22.6485L5.03137 22.6508C5.04033 22.6529 5.04934 22.6548 5.05838 22.6565C5.35741 22.714 5.67527 22.75 6 22.75H19.5C20.4204 22.75 21.2457 22.4399 21.8428 21.8428C22.4399 21.2457 22.75 20.4204 22.75 19.5V16.5C22.75 15.5796 22.4399 14.7543 21.8428 14.1572C21.2457 13.5601 20.4204 13.25 19.5 13.25H17.4707L18.9003 11.8203C19.5515 11.1692 19.915 10.3649 19.915 9.52C19.915 8.6751 19.5515 7.87082 18.9003 7.21967L16.7803 5.09968C16.1292 4.44853 15.3249 4.08501 14.48 4.08501C13.6351 4.08501 12.8308 4.44853 12.1797 5.09968L10.75 6.52934ZM10.75 8.65066V17.8429L15.1297 13.4697L17.8397 10.7597C18.2485 10.3508 18.415 9.9151 18.415 9.52C18.415 9.1249 18.2485 8.68919 17.8397 8.28033L15.7197 6.16034C15.3108 5.75148 14.8751 5.58501 14.48 5.58501C14.0849 5.58501 13.6492 5.75148 13.2403 6.16034L10.75 8.65066ZM15.9703 14.75L9.46074 21.25H19.5C20.0796 21.25 20.5043 21.0601 20.7822 20.7822C21.0601 20.5043 21.25 20.0796 21.25 19.5V16.5C21.25 15.9204 21.0601 15.4957 20.7822 15.2178C20.5043 14.9399 20.0796 14.75 19.5 14.75H15.9703ZM4.87033 22.1803C4.87425 22.1765 4.87467 22.176 4.87033 22.1803V22.1803ZM1.81968 19.1297C1.81941 19.1299 1.81914 19.1302 1.81888 19.1305C1.82304 19.1262 1.82416 19.1252 1.81968 19.1297ZM6 17.75C5.86193 17.75 5.75 17.8619 5.75 18C5.75 18.1381 5.86193 18.25 6 18.25C6.13807 18.25 6.25 18.1381 6.25 18C6.25 17.8619 6.13807 17.75 6 17.75ZM4.25 18C4.25 17.0335 5.0335 16.25 6 16.25C6.9665 16.25 7.75 17.0335 7.75 18C7.75 18.9665 6.9665 19.75 6 19.75C5.0335 19.75 4.25 18.9665 4.25 18Z" fill="#595854"/>
</svg>
