<svg width="24" height="24" viewBox="0 0 24 24" fill="none" xmlns="http://www.w3.org/2000/svg">
<path fill-rule="evenodd" clip-rule="evenodd" d="M11.318 1.30415C11.7395 1.21383 12.199 1.33814 12.5305 1.66967C12.5556 1.69477 12.5789 1.72161 12.6002 1.75C13.5875 3.06645 14.5502 5.32176 14.5502 7.8C14.5502 8.79842 14.1533 9.71954 13.6498 10.5522C13.2214 11.2605 12.674 11.969 12.1479 12.65C12.0587 12.7656 11.97 12.8803 11.8827 12.9941C10.6197 14.6398 9.62616 16.116 9.74743 17.7352C9.87978 19.0845 10.4585 20.0969 10.8583 20.7963L10.8764 20.8279C10.9715 20.9943 11.0741 21.1745 11.145 21.3319C11.1809 21.4117 11.2222 21.5146 11.2481 21.6279C11.2722 21.7331 11.3007 21.9212 11.2341 22.1321C11.1554 22.3813 10.9776 22.5592 10.7712 22.6542C10.5966 22.7346 10.4269 22.7452 10.3186 22.7445C10.1015 22.743 9.85271 22.6894 9.60932 22.6253L9.59415 22.6211C7.60175 22.0519 5.70898 20.3253 4.80562 18.108C3.88484 15.8479 3.98556 13.0644 6.00507 10.4436C8.84001 6.72841 9.99767 3.62111 10.3743 2.21116C10.5012 1.71496 10.8888 1.39614 11.318 1.30415ZM11.688 3.06919C11.16 4.78877 9.88823 7.82778 7.1964 11.355L7.1942 11.3579L7.1942 11.3579C5.51478 13.5366 5.46571 15.7525 6.19476 17.542C6.80388 19.0371 7.9525 20.2266 9.17354 20.8479C8.79682 20.1201 8.37372 19.1127 8.25368 17.8722L8.2524 17.8575C8.07717 15.5796 9.48258 13.6577 10.6927 12.0809C10.7862 11.9591 10.8787 11.8392 10.97 11.7209C11.4991 11.0354 11.986 10.4047 12.3662 9.77593C12.8095 9.04297 13.0502 8.40158 13.0502 7.8C13.0502 5.92903 12.3991 4.19575 11.688 3.06919ZM15.9776 9.2838C16.2398 9.20229 16.5256 9.27062 16.7227 9.46193C18.5282 11.2152 19.4479 12.9061 19.7308 14.5002C20.0146 16.0991 19.642 17.5123 19.0254 18.6761C17.9565 20.6939 16.0735 22.0679 15.521 22.4711C15.4519 22.5215 15.4036 22.5567 15.3803 22.5762C15.2455 22.6885 15.0756 22.75 14.9002 22.75H14.8002C14.6299 22.75 14.4647 22.692 14.3317 22.5857C14.3108 22.5689 14.2775 22.544 14.2338 22.5113C13.8622 22.2331 12.7335 21.3883 11.9856 20.1666C11.5586 19.4692 11.2301 18.6139 11.2377 17.6348C11.2454 16.648 11.5942 15.6071 12.402 14.5476C13.8894 12.5643 14.6689 11.3428 15.0727 10.6302C15.2743 10.2744 15.3789 10.0513 15.4306 9.92833C15.4563 9.8672 15.468 9.83276 15.4719 9.82076C15.4719 9.82058 15.472 9.82041 15.472 9.82024C15.5348 9.56605 15.726 9.36199 15.9776 9.2838ZM16.4126 11.3079C16.4012 11.3282 16.3896 11.3488 16.3777 11.3698C15.9317 12.1569 15.1117 13.4347 13.6002 15.45L13.5964 15.455L13.5964 15.455C12.9557 16.2946 12.7425 17.0278 12.7377 17.6465C12.7328 18.2736 12.9418 18.8558 13.2648 19.3834C13.7385 20.157 14.4027 20.7377 14.8539 21.0945C15.5746 20.5505 16.8975 19.4887 17.6999 17.9739C18.1959 17.0377 18.4671 15.9634 18.2539 14.7623C18.075 13.7538 17.5436 12.5944 16.4126 11.3079Z" fill="#595854"/>
</svg>
