<svg width="24" height="24" viewBox="0 0 24 24" fill="none" xmlns="http://www.w3.org/2000/svg">
<path fill-rule="evenodd" clip-rule="evenodd" d="M4.27302 5.88695C3.339 6.01762 2.55908 6.32337 2.02348 6.99914C1.39508 7.792 1.25 8.92473 1.25 10.28V17.27C1.25 18.757 1.42172 19.988 2.23073 20.7864C3.03626 21.5812 4.27563 21.75 5.78003 21.75H15.22C16.7 21.75 17.9208 21.5879 18.7264 20.83C19.4125 20.1846 19.6569 19.2434 19.727 18.1131C20.661 17.9824 21.4409 17.6766 21.9765 17.0009C22.6049 16.208 22.75 15.0753 22.75 13.72V6.73C22.75 5.24303 22.5783 4.01195 21.7693 3.21365C20.9637 2.41878 19.7244 2.25 18.22 2.25H8.78003C7.30001 2.25 6.07915 2.41215 5.27361 3.16999C4.58755 3.81542 4.34306 4.75664 4.27302 5.88695ZM19.75 16.5897C20.3291 16.4792 20.6227 16.294 20.801 16.0691C21.0801 15.717 21.25 15.0647 21.25 13.72V6.73C21.25 5.23697 21.0417 4.60305 20.7157 4.28135C20.3862 3.95622 19.7356 3.75 18.22 3.75H8.78003C7.29005 3.75 6.63589 3.94785 6.30142 4.26251C6.04629 4.50253 5.8582 4.9261 5.78396 5.8H15.22C16.7244 5.8 17.9637 5.96878 18.7693 6.76365C19.5783 7.56195 19.75 8.79303 19.75 10.28V16.5897ZM18.25 11.86V10.28C18.25 8.78696 18.0417 8.15305 17.7157 7.83135C17.3862 7.50622 16.7356 7.3 15.22 7.3H5.78003C5.51935 7.3 5.27493 7.30921 5.03785 7.31907C3.90924 7.38652 3.44461 7.621 3.19902 7.93086C2.91992 8.283 2.75 8.93527 2.75 10.28V11.86H18.25ZM2.75 13.36H18.25V17.426C18.2347 18.8423 18.0198 19.4353 17.6986 19.7375C17.3641 20.0521 16.71 20.25 15.22 20.25H5.78003C4.26443 20.25 3.61379 20.0438 3.2843 19.7187C2.95829 19.397 2.75 18.763 2.75 17.27V13.36ZM4.5 17.81C4.5 17.3958 4.83579 17.06 5.25 17.06H6.96997C7.38418 17.06 7.71997 17.3958 7.71997 17.81C7.71997 18.2242 7.38418 18.56 6.96997 18.56H5.25C4.83579 18.56 4.5 18.2242 4.5 17.81ZM8.35999 17.81C8.35999 17.3958 8.69577 17.06 9.10999 17.06H12.55C12.9642 17.06 13.3 17.3958 13.3 17.81C13.3 18.2242 12.9642 18.56 12.55 18.56H9.10999C8.69577 18.56 8.35999 18.2242 8.35999 17.81Z" fill="#595854"/>
</svg>
