<svg width="24" height="24" viewBox="0 0 24 24" fill="none" xmlns="http://www.w3.org/2000/svg">
<path fill-rule="evenodd" clip-rule="evenodd" d="M4.15533 4.15533C3.2398 5.07086 2.75 6.57397 2.75 9V15C2.75 17.426 3.2398 18.9291 4.15533 19.8447C5.07086 20.7602 6.57397 21.25 9 21.25H15C17.426 21.25 18.9291 20.7602 19.8447 19.8447C20.7602 18.9291 21.25 17.426 21.25 15V9C21.25 6.57397 20.7602 5.07086 19.8447 4.15533C18.9291 3.2398 17.426 2.75 15 2.75H9C6.57397 2.75 5.07086 3.2398 4.15533 4.15533ZM3.09467 3.09467C4.42914 1.7602 6.42603 1.25 9 1.25H15C17.574 1.25 19.5709 1.7602 20.9053 3.09467C22.2398 4.42914 22.75 6.42603 22.75 9V15C22.75 17.574 22.2398 19.5709 20.9053 20.9053C19.5709 22.2398 17.574 22.75 15 22.75H9C6.42603 22.75 4.42914 22.2398 3.09467 20.9053C1.7602 19.5709 1.25 17.574 1.25 15V9C1.25 6.42603 1.7602 4.42914 3.09467 3.09467ZM6.75 8C6.75 7.58579 7.08579 7.25 7.5 7.25H9.5C11.0142 7.25 12.25 8.48579 12.25 10C12.25 11.5142 11.0142 12.75 9.5 12.75H8.25V16C8.25 16.4142 7.91421 16.75 7.5 16.75C7.08579 16.75 6.75 16.4142 6.75 16V8ZM8.25 11.25H9.5C10.1858 11.25 10.75 10.6858 10.75 10C10.75 9.31421 10.1858 8.75 9.5 8.75H8.25V11.25ZM13.25 12.2C13.25 11.2268 14.046 10.25 15.2 10.25H16.5C16.9142 10.25 17.25 10.5858 17.25 11C17.25 11.4142 16.9142 11.75 16.5 11.75H15.2C15.0747 11.75 14.9667 11.8011 14.8828 11.89C14.793 11.985 14.75 12.1038 14.75 12.2C14.75 12.3253 14.8011 12.4333 14.89 12.5172C14.985 12.607 15.1038 12.65 15.2 12.65C16.354 12.65 17.15 13.6268 17.15 14.6C17.15 15.754 16.1732 16.55 15.2 16.55H14C13.5858 16.55 13.25 16.2142 13.25 15.8C13.25 15.3858 13.5858 15.05 14 15.05H15.2C15.2962 15.05 15.415 15.007 15.51 14.9172C15.5989 14.8333 15.65 14.7253 15.65 14.6C15.65 14.5038 15.607 14.385 15.5172 14.29C15.4333 14.2011 15.3253 14.15 15.2 14.15C14.2268 14.15 13.25 13.354 13.25 12.2Z" fill="#595854"/>
</svg>
