<svg width="24" height="24" viewBox="0 0 24 24" fill="none" xmlns="http://www.w3.org/2000/svg">
<path fill-rule="evenodd" clip-rule="evenodd" d="M12 2.75C6.89137 2.75 2.75 6.89137 2.75 12C2.75 17.1086 6.89137 21.25 12 21.25C17.1086 21.25 21.25 17.1086 21.25 12C21.25 6.89137 17.1086 2.75 12 2.75ZM1.25 12C1.25 6.06294 6.06294 1.25 12 1.25C17.9371 1.25 22.75 6.06294 22.75 12C22.75 17.9371 17.9371 22.75 12 22.75C6.06294 22.75 1.25 17.9371 1.25 12ZM6.22933 8.848C6.46382 8.71469 6.75183 8.71757 6.98361 8.85553L11.1836 11.3555C11.4108 11.4908 11.55 11.7356 11.55 12V14.5C11.55 14.9142 11.2142 15.25 10.8 15.25C10.3858 15.25 10.05 14.9142 10.05 14.5V12.4264L7.35 10.8192V14.5C7.35 14.9142 7.01421 15.25 6.6 15.25C6.18579 15.25 5.85 14.9142 5.85 14.5V9.5C5.85 9.23027 5.99484 8.98131 6.22933 8.848ZM17.7707 8.848C18.0052 8.98131 18.15 9.23027 18.15 9.5V14.5C18.15 14.9142 17.8142 15.25 17.4 15.25C16.9858 15.25 16.65 14.9142 16.65 14.5V10.8192L13.95 12.4264V14.5C13.95 14.9142 13.6142 15.25 13.2 15.25C12.7858 15.25 12.45 14.9142 12.45 14.5V12C12.45 11.7356 12.5892 11.4908 12.8164 11.3555L17.0164 8.85553C17.2482 8.71757 17.5362 8.71469 17.7707 8.848Z" fill="#595854"/>
</svg>
