<svg width="24" height="24" viewBox="0 0 24 24" fill="none" xmlns="http://www.w3.org/2000/svg">
<path fill-rule="evenodd" clip-rule="evenodd" d="M3.09467 3.09467C4.42914 1.7602 6.42603 1.25 9 1.25H15C17.574 1.25 19.5709 1.7602 20.9053 3.09467C22.2398 4.42914 22.75 6.42603 22.75 9V15C22.75 17.574 22.2398 19.5709 20.9053 20.9053C19.5709 22.2398 17.574 22.75 15 22.75H9C6.42603 22.75 4.42914 22.2398 3.09467 20.9053C1.7602 19.5709 1.25 17.574 1.25 15V9C1.25 6.42603 1.7602 4.42914 3.09467 3.09467ZM4.15533 4.15533C3.2398 5.07086 2.75 6.57397 2.75 9V15C2.75 17.426 3.2398 18.9291 4.15533 19.8447C5.07086 20.7602 6.57397 21.25 9 21.25H15C17.426 21.25 18.9291 20.7602 19.8447 19.8447C20.7602 18.9291 21.25 17.426 21.25 15V9C21.25 6.57397 20.7602 5.07086 19.8447 4.15533C18.9291 3.2398 17.426 2.75 15 2.75H9C6.57397 2.75 5.07086 3.2398 4.15533 4.15533ZM6.21918 8.66459C6.40442 8.29411 6.85493 8.14394 7.22541 8.32918C8.32137 8.87716 9.26099 9.70457 9.94376 10.7335C10.4625 11.5062 10.4621 12.5059 9.94259 13.2782C9.26037 14.2957 8.32147 15.1228 7.22541 15.6708C6.85493 15.8561 6.40442 15.7059 6.21918 15.3354C6.03394 14.9649 6.18411 14.5144 6.55459 14.3292C7.41832 13.8973 8.15927 13.2446 8.69702 12.4424L8.69781 12.4412C8.8774 12.1744 8.8774 11.8356 8.69781 11.5688L8.6949 11.5645L8.69492 11.5645C8.15779 10.7544 7.41792 10.1025 6.55459 9.67082C6.18411 9.48558 6.03394 9.03507 6.21918 8.66459ZM12.25 15C12.25 14.5858 12.5858 14.25 13 14.25H17C17.4142 14.25 17.75 14.5858 17.75 15C17.75 15.4142 17.4142 15.75 17 15.75H13C12.5858 15.75 12.25 15.4142 12.25 15Z" fill="#595854"/>
</svg>
