<svg width="24" height="24" viewBox="0 0 24 24" fill="none" xmlns="http://www.w3.org/2000/svg">
<path fill-rule="evenodd" clip-rule="evenodd" d="M8.09995 4.95001C7.96188 4.95001 7.84995 5.06194 7.84995 5.20001C7.84995 5.33808 7.96188 5.45001 8.09995 5.45001C8.23802 5.45001 8.34995 5.33808 8.34995 5.20001C8.34995 5.06194 8.23802 4.95001 8.09995 4.95001ZM6.84995 5.20001C6.84995 4.50966 7.4096 3.95001 8.09995 3.95001C8.79031 3.95001 9.34995 4.50966 9.34995 5.20001C9.34995 5.89037 8.79031 6.45001 8.09995 6.45001C7.4096 6.45001 6.84995 5.89037 6.84995 5.20001ZM15.9 4.95001C15.7619 4.95001 15.65 5.06194 15.65 5.20001C15.65 5.33808 15.7619 5.45001 15.9 5.45001C16.038 5.45001 16.15 5.33808 16.15 5.20001C16.15 5.06194 16.038 4.95001 15.9 4.95001ZM14.65 5.20001C14.65 4.50966 15.2096 3.95001 15.9 3.95001C16.5903 3.95001 17.15 4.50966 17.15 5.20001C17.15 5.89037 16.5903 6.45001 15.9 6.45001C15.2096 6.45001 14.65 5.89037 14.65 5.20001ZM12.05 5.75001C11.9119 5.75001 11.8 5.86194 11.8 6.00001C11.8 6.13808 11.9119 6.25001 12.05 6.25001C12.188 6.25001 12.3 6.13808 12.3 6.00001C12.3 5.86194 12.188 5.75001 12.05 5.75001ZM10.8 6.00001C10.8 5.30966 11.3596 4.75001 12.05 4.75001C12.7403 4.75001 13.3 5.30966 13.3 6.00001C13.3 6.69037 12.7403 7.25001 12.05 7.25001C11.3596 7.25001 10.8 6.69037 10.8 6.00001ZM10.25 8.50001C9.97381 8.50001 9.74995 8.72387 9.74995 9.00001C9.74995 9.27615 9.97381 9.50001 10.25 9.50001C10.5261 9.50001 10.75 9.27615 10.75 9.00001C10.75 8.72387 10.5261 8.50001 10.25 8.50001ZM8.74995 9.00001C8.74995 8.17159 9.42152 7.50001 10.25 7.50001C11.0784 7.50001 11.75 8.17159 11.75 9.00001C11.75 9.82844 11.0784 10.5 10.25 10.5C9.42152 10.5 8.74995 9.82844 8.74995 9.00001ZM13.75 8.50001C13.4738 8.50001 13.25 8.72387 13.25 9.00001C13.25 9.27615 13.4738 9.50001 13.75 9.50001C14.0261 9.50001 14.25 9.27615 14.25 9.00001C14.25 8.72387 14.0261 8.50001 13.75 8.50001ZM12.25 9.00001C12.25 8.17159 12.9215 7.50001 13.75 7.50001C14.5784 7.50001 15.25 8.17159 15.25 9.00001C15.25 9.82844 14.5784 10.5 13.75 10.5C12.9215 10.5 12.25 9.82844 12.25 9.00001ZM6.79995 8.75001C6.66188 8.75001 6.54995 8.86194 6.54995 9.00001C6.54995 9.13808 6.66188 9.25001 6.79995 9.25001C6.93802 9.25001 7.04995 9.13808 7.04995 9.00001C7.04995 8.86194 6.93802 8.75001 6.79995 8.75001ZM5.54995 9.00001C5.54995 8.30966 6.1096 7.75001 6.79995 7.75001C7.49031 7.75001 8.04995 8.30966 8.04995 9.00001C8.04995 9.69037 7.49031 10.25 6.79995 10.25C6.1096 10.25 5.54995 9.69037 5.54995 9.00001ZM17.15 8.75001C17.0119 8.75001 16.9 8.86194 16.9 9.00001C16.9 9.13808 17.0119 9.25001 17.15 9.25001C17.288 9.25001 17.4 9.13808 17.4 9.00001C17.4 8.86194 17.288 8.75001 17.15 8.75001ZM15.9 9.00001C15.9 8.30966 16.4596 7.75001 17.15 7.75001C17.8403 7.75001 18.4 8.30966 18.4 9.00001C18.4 9.69037 17.8403 10.25 17.15 10.25C16.4596 10.25 15.9 9.69037 15.9 9.00001ZM8.49995 11.5C8.22381 11.5 7.99995 11.7239 7.99995 12C7.99995 12.2762 8.22381 12.5 8.49995 12.5C8.77609 12.5 8.99995 12.2762 8.99995 12C8.99995 11.7239 8.77609 11.5 8.49995 11.5ZM6.99995 12C6.99995 11.1716 7.67152 10.5 8.49995 10.5C9.32838 10.5 9.99995 11.1716 9.99995 12C9.99995 12.8284 9.32838 13.5 8.49995 13.5C7.67152 13.5 6.99995 12.8284 6.99995 12ZM15.5 11.5C15.2238 11.5 15 11.7239 15 12C15 12.2762 15.2238 12.5 15.5 12.5C15.7761 12.5 16 12.2762 16 12C16 11.7239 15.7761 11.5 15.5 11.5ZM14 12C14 11.1716 14.6715 10.5 15.5 10.5C16.3284 10.5 17 11.1716 17 12C17 12.8284 16.3284 13.5 15.5 13.5C14.6715 13.5 14 12.8284 14 12ZM4.19995 11.75C4.06188 11.75 3.94995 11.8619 3.94995 12C3.94995 12.1381 4.06188 12.25 4.19995 12.25C4.33802 12.25 4.44995 12.1381 4.44995 12C4.44995 11.8619 4.33802 11.75 4.19995 11.75ZM2.94995 12C2.94995 11.3097 3.50959 10.75 4.19995 10.75C4.89031 10.75 5.44995 11.3097 5.44995 12C5.44995 12.6904 4.89031 13.25 4.19995 13.25C3.50959 13.25 2.94995 12.6904 2.94995 12ZM19.75 11.75C19.6119 11.75 19.5 11.8619 19.5 12C19.5 12.1381 19.6119 12.25 19.75 12.25C19.888 12.25 20 12.1381 20 12C20 11.8619 19.888 11.75 19.75 11.75ZM18.5 12C18.5 11.3097 19.0596 10.75 19.75 10.75C20.4403 10.75 21 11.3097 21 12C21 12.6904 20.4403 13.25 19.75 13.25C19.0596 13.25 18.5 12.6904 18.5 12ZM10.25 14.5C9.97381 14.5 9.74995 14.7239 9.74995 15C9.74995 15.2762 9.97381 15.5 10.25 15.5C10.5261 15.5 10.75 15.2762 10.75 15C10.75 14.7239 10.5261 14.5 10.25 14.5ZM8.74995 15C8.74995 14.1716 9.42152 13.5 10.25 13.5C11.0784 13.5 11.75 14.1716 11.75 15C11.75 15.8284 11.0784 16.5 10.25 16.5C9.42152 16.5 8.74995 15.8284 8.74995 15ZM13.75 14.5C13.4738 14.5 13.25 14.7239 13.25 15C13.25 15.2762 13.4738 15.5 13.75 15.5C14.0261 15.5 14.25 15.2762 14.25 15C14.25 14.7239 14.0261 14.5 13.75 14.5ZM12.25 15C12.25 14.1716 12.9215 13.5 13.75 13.5C14.5784 13.5 15.25 14.1716 15.25 15C15.25 15.8284 14.5784 16.5 13.75 16.5C12.9215 16.5 12.25 15.8284 12.25 15ZM6.79995 14.75C6.66188 14.75 6.54995 14.8619 6.54995 15C6.54995 15.1381 6.66188 15.25 6.79995 15.25C6.93802 15.25 7.04995 15.1381 7.04995 15C7.04995 14.8619 6.93802 14.75 6.79995 14.75ZM5.54995 15C5.54995 14.3097 6.1096 13.75 6.79995 13.75C7.49031 13.75 8.04995 14.3097 8.04995 15C8.04995 15.6904 7.49031 16.25 6.79995 16.25C6.1096 16.25 5.54995 15.6904 5.54995 15ZM17.15 14.75C17.0119 14.75 16.9 14.8619 16.9 15C16.9 15.1381 17.0119 15.25 17.15 15.25C17.288 15.25 17.4 15.1381 17.4 15C17.4 14.8619 17.288 14.75 17.15 14.75ZM15.9 15C15.9 14.3097 16.4596 13.75 17.15 13.75C17.8403 13.75 18.4 14.3097 18.4 15C18.4 15.6904 17.8403 16.25 17.15 16.25C16.4596 16.25 15.9 15.6904 15.9 15ZM12.05 17.95C11.9119 17.95 11.8 18.0619 11.8 18.2C11.8 18.3381 11.9119 18.45 12.05 18.45C12.188 18.45 12.3 18.3381 12.3 18.2C12.3 18.0619 12.188 17.95 12.05 17.95ZM10.8 18.2C10.8 17.5097 11.3596 16.95 12.05 16.95C12.7403 16.95 13.3 17.5097 13.3 18.2C13.3 18.8904 12.7403 19.45 12.05 19.45C11.3596 19.45 10.8 18.8904 10.8 18.2ZM8.09995 18.75C7.96188 18.75 7.84995 18.8619 7.84995 19C7.84995 19.1381 7.96188 19.25 8.09995 19.25C8.23802 19.25 8.34995 19.1381 8.34995 19C8.34995 18.8619 8.23802 18.75 8.09995 18.75ZM6.84995 19C6.84995 18.3097 7.4096 17.75 8.09995 17.75C8.79031 17.75 9.34995 18.3097 9.34995 19C9.34995 19.6904 8.79031 20.25 8.09995 20.25C7.4096 20.25 6.84995 19.6904 6.84995 19ZM15.9 18.75C15.7619 18.75 15.65 18.8619 15.65 19C15.65 19.1381 15.7619 19.25 15.9 19.25C16.038 19.25 16.15 19.1381 16.15 19C16.15 18.8619 16.038 18.75 15.9 18.75ZM14.65 19C14.65 18.3097 15.2096 17.75 15.9 17.75C16.5903 17.75 17.15 18.3097 17.15 19C17.15 19.6904 16.5903 20.25 15.9 20.25C15.2096 20.25 14.65 19.6904 14.65 19Z" fill="#595854"/>
</svg>
