<svg width="24" height="24" viewBox="0 0 24 24" fill="none" xmlns="http://www.w3.org/2000/svg">
<path fill-rule="evenodd" clip-rule="evenodd" d="M12.8086 2.3807C14.2634 0.914726 16.6491 0.918417 18.1103 2.37964L21.6181 5.88736C21.6185 5.88774 21.6188 5.88812 21.6192 5.8885C23.0853 7.34326 23.0816 9.72905 21.6204 11.1903L15.4012 17.4094C15.4009 17.4097 15.4006 17.41 15.4003 17.4103C15.4 17.4106 15.3997 17.4109 15.3994 17.4112L11.5606 21.25H21C21.4142 21.25 21.75 21.5858 21.75 22C21.75 22.4142 21.4142 22.75 21 22.75H9C8.91659 22.75 8.83638 22.7364 8.76143 22.7112C7.72919 22.7706 6.67567 22.4063 5.88965 21.6203L2.37964 18.1103C0.918407 16.6491 0.914725 14.2633 2.38073 12.8085C2.38113 12.8081 2.38152 12.8078 2.38192 12.8074L12.8074 2.38192C12.8078 2.38151 12.8082 2.38111 12.8086 2.3807ZM7.11999 10.1906L3.4403 13.8703L3.43802 13.8726C2.62757 14.6761 2.56684 15.9694 3.26554 16.8533L8.51944 11.5901L7.11999 10.1906ZM9.5801 12.6507L4.31542 17.9248L6.08 19.6893L11.3493 14.42L9.5801 12.6507ZM12.41 15.4806L7.15203 20.7386C8.03581 21.4328 9.32547 21.3707 10.1274 20.5619L10.1296 20.5596L13.8093 16.88L12.41 15.4806ZM14.87 15.8193L8.18065 9.12997L13.8704 3.4403L13.8726 3.43802C14.738 2.56522 16.1713 2.56193 17.0497 3.4403L20.5597 6.9503L20.562 6.95257C21.4348 7.81791 21.4381 9.25127 20.5597 10.1296L14.87 15.8193Z" fill="#595854"/>
</svg>
