<svg width="24" height="24" viewBox="0 0 24 24" fill="none" xmlns="http://www.w3.org/2000/svg">
<path fill-rule="evenodd" clip-rule="evenodd" d="M11.9987 2.69501C11.9592 2.69501 11.845 2.71357 11.7144 2.9001L11.7104 2.90586L7.54033 8.74583L7.53897 8.74773C7.33886 9.02615 7.34208 9.16567 7.34717 9.20041C7.37219 9.22459 7.48421 9.31 7.82995 9.31H16.17C16.5106 9.31 16.6236 9.22722 16.6501 9.20235C16.6547 9.1658 16.6541 9.02641 16.454 8.75188L16.4496 8.74585L12.2796 2.90584L12.2714 2.89415C12.1466 2.71204 12.0369 2.69501 11.9987 2.69501ZM13.5041 2.0394C13.1489 1.52521 12.6105 1.19501 11.9987 1.19501C11.387 1.19501 10.8472 1.52508 10.4878 2.03672L6.32095 7.87228C6.3207 7.87263 6.32044 7.87298 6.32019 7.87333C5.89803 8.46119 5.66292 9.21166 6.01214 9.88878C6.35064 10.5451 7.06461 10.7953 7.76666 10.8094L4.62087 15.2324C4.08122 15.9767 3.81439 16.8719 4.21611 17.6567C4.61782 18.4416 5.50105 18.75 6.41999 18.75H11.25V22C11.25 22.4142 11.5858 22.75 12 22.75C12.4142 22.75 12.75 22.4142 12.75 22V18.75H17.59C18.5089 18.75 19.3921 18.4416 19.7938 17.6567C20.1956 16.8719 19.9287 15.9767 19.3891 15.2324L16.2431 10.8092C16.9412 10.793 17.652 10.5424 17.9876 9.8867C18.3352 9.20751 18.0945 8.45738 17.6683 7.87134L13.5041 2.0394ZM14.4031 10.81H9.6069L5.83677 16.1109C5.448 16.646 5.52116 16.9143 5.55137 16.9733C5.58215 17.0334 5.75893 17.25 6.41999 17.25H17.59C18.251 17.25 18.4278 17.0334 18.4586 16.9733C18.4888 16.9143 18.562 16.6459 18.1732 16.1109L18.1688 16.1047L14.4031 10.81Z" fill="#595854"/>
</svg>
