<svg width="24" height="24" viewBox="0 0 24 24" fill="none" xmlns="http://www.w3.org/2000/svg">
<path fill-rule="evenodd" clip-rule="evenodd" d="M11.7912 2.75C11.1178 2.75 10.4863 2.89319 10.0441 3.13687L10.0406 3.1388L4.59988 6.09869C4.24116 6.29363 3.88248 6.61703 3.57521 7.02054L11.791 11.6869L20.0048 7.01735C19.698 6.61533 19.3406 6.29328 18.9828 6.09885L13.5383 3.13688C13.096 2.8932 12.4646 2.75 11.7912 2.75ZM20.6978 8.34881L12.5412 12.9859V21.188C12.9223 21.1242 13.2661 21.0123 13.5383 20.8623L13.543 20.8597L14.6747 20.2467C14.3202 19.6074 14.1091 18.8697 14.0979 18.0935C14.0627 16.5917 14.7444 15.2367 15.8299 14.3489L15.8333 14.3461C16.6475 13.688 17.6821 13.2733 18.8158 13.2496C19.5307 13.2339 20.2142 13.3724 20.8324 13.6348V9.16969C20.8324 8.91664 20.7861 8.63718 20.6978 8.34881ZM21.0129 15.4691C21.0597 15.5216 21.114 15.5677 21.1747 15.6056C21.8187 16.1851 22.2277 17.0099 22.2488 17.9266L22.2489 17.9297C22.2652 18.5286 22.1029 19.0984 21.8057 19.5927L21.7957 19.6097C21.6361 19.8917 21.4157 20.1578 21.1674 20.3771L21.159 20.3846C20.589 20.9035 19.8343 21.2238 18.9862 21.2494C17.9491 21.2693 17.0232 20.8287 16.41 20.127C16.3869 20.0879 16.36 20.0507 16.3296 20.0159C16.2318 19.9038 16.1511 19.7939 16.0894 19.6863C16.087 19.682 16.0845 19.6778 16.0819 19.6736C16.0793 19.6691 16.0765 19.6646 16.0737 19.6602C15.7706 19.1777 15.5978 18.6057 15.5978 17.9993C15.5978 16.9795 16.0749 16.0646 16.8369 15.4712C16.8577 15.455 16.8774 15.4379 16.896 15.4201C17.4465 15.013 18.1191 14.7645 18.8471 14.7493C19.669 14.7311 20.4244 15.0039 21.0129 15.4691ZM15.604 21.4492L14.2622 22.1761C14.2614 22.1765 14.2605 22.177 14.2597 22.1774C13.5409 22.5728 12.6451 22.7492 11.7912 22.7492C10.937 22.7492 10.0409 22.5727 9.322 22.1771C9.32141 22.1767 9.32081 22.1764 9.32022 22.1761L3.88335 19.2183C3.12239 18.8047 2.47293 18.1082 2.01553 17.3469C1.55855 16.5862 1.25 15.6888 1.25 14.8295V9.16969C1.25 8.31041 1.55855 7.41294 2.01553 6.6523C2.47287 5.89107 3.12222 5.19462 3.88305 4.78106C3.88295 4.78111 3.88315 4.781 3.88305 4.78106L9.32207 1.82207C10.041 1.42649 10.937 1.25 11.7912 1.25C12.6453 1.25 13.5414 1.42649 14.2603 1.82207C14.2609 1.82241 14.2616 1.82275 14.2622 1.82309L19.699 4.78089C20.46 5.19444 21.1095 5.89097 21.5669 6.6523C22.0238 7.41294 22.3324 8.31041 22.3324 9.16969V14.6356C23.1808 15.468 23.7185 16.6119 23.7484 17.8905C23.7724 18.7874 23.5291 19.6339 23.0962 20.3573C22.8498 20.7902 22.5236 21.1797 22.1647 21.4976C21.3299 22.2557 20.2331 22.7136 19.0265 22.7488L19.0198 22.749C17.7003 22.7756 16.4898 22.2807 15.604 21.4492ZM11.0412 21.188V12.9861L2.88342 8.35268C2.79583 8.63968 2.75 8.91777 2.75 9.16969V14.8295C2.75 15.3501 2.94578 15.9826 3.30132 16.5744C3.65645 17.1655 4.12773 17.6439 4.59958 17.9003L10.0441 20.8623C10.3163 21.0122 10.6601 21.1242 11.0412 21.188ZM21.0364 16.4532C21.3214 16.7537 21.3089 17.2284 21.0084 17.5134L18.879 19.5334C18.5914 19.8062 18.1411 19.8081 17.8512 19.5377L16.8222 18.5778C16.5193 18.2952 16.5028 17.8206 16.7853 17.5177C17.0679 17.2148 17.5425 17.1984 17.8454 17.4809L18.3585 17.9596L19.9761 16.4252C20.2766 16.1401 20.7513 16.1526 21.0364 16.4532Z" fill="#595854"/>
</svg>
