<svg width="24" height="24" viewBox="0 0 24 24" fill="none" xmlns="http://www.w3.org/2000/svg">
<path fill-rule="evenodd" clip-rule="evenodd" d="M5.03033 3.53033C4.51884 4.04182 4.25 4.99464 4.25 7V14.928C4.84156 14.5015 5.5671 14.25 6.35 14.25H19.75V7C19.75 4.99464 19.4812 4.04182 18.9697 3.53033C18.4582 3.01884 17.5054 2.75 15.5 2.75H8.5C6.49464 2.75 5.54182 3.01884 5.03033 3.53033ZM21.25 7C21.25 5.00536 21.0188 3.45818 20.0303 2.46967C19.0418 1.48116 17.4946 1.25 15.5 1.25H8.5C6.50536 1.25 4.95818 1.48116 3.96967 2.46967C2.98116 3.45818 2.75 5.00536 2.75 7V18.5C2.75 20.8442 4.65579 22.75 7 22.75H17C19.3442 22.75 21.25 20.8442 21.25 18.5V17.0279C21.25 17.0219 21.25 17.0159 21.25 17.01V7ZM19.75 17.5431V18.5C19.75 20.0158 18.5158 21.25 17 21.25H7C5.48421 21.25 4.25 20.0158 4.25 18.5V17.85C4.25 16.6942 5.19421 15.75 6.35 15.75H19.75V17C19.75 17.1444 19.7497 17.2577 19.7419 17.3666C19.7376 17.4269 19.7405 17.486 19.75 17.5431ZM7.25 7C7.25 6.58579 7.58579 6.25 8 6.25H16C16.4142 6.25 16.75 6.58579 16.75 7C16.75 7.41421 16.4142 7.75 16 7.75H8C7.58579 7.75 7.25 7.41421 7.25 7ZM7.25 10.5C7.25 10.0858 7.58579 9.75 8 9.75H13C13.4142 9.75 13.75 10.0858 13.75 10.5C13.75 10.9142 13.4142 11.25 13 11.25H8C7.58579 11.25 7.25 10.9142 7.25 10.5Z" fill="#595854"/>
</svg>
