<svg width="24" height="24" viewBox="0 0 24 24" fill="none" xmlns="http://www.w3.org/2000/svg">
<path fill-rule="evenodd" clip-rule="evenodd" d="M19.45 3.79999C19.45 3.38577 19.7857 3.04999 20.2 3.04999H20.2999C20.7142 3.04999 21.0499 3.38577 21.0499 3.79999C21.0499 4.2142 20.7142 4.54999 20.2999 4.54999H20.2C19.7857 4.54999 19.45 4.2142 19.45 3.79999ZM4.24995 12C4.24995 7.68577 7.68574 4.24999 12 4.24999C13.4583 4.24999 14.7819 4.69946 15.9591 5.34157C16.3227 5.53991 16.4567 5.99549 16.2584 6.35913C16.06 6.72276 15.6044 6.85676 15.2408 6.65841C14.218 6.10051 13.1416 5.74999 12 5.74999C8.51416 5.74999 5.74995 8.5142 5.74995 12C5.74995 13.1515 6.10641 14.3289 6.65837 15.3408C6.85672 15.7045 6.72273 16.1601 6.35909 16.3584C5.99545 16.5568 5.53988 16.4228 5.34153 16.0591C4.6935 14.8711 4.24995 13.4485 4.24995 12ZM17.6408 7.64157C18.0044 7.44322 18.46 7.57721 18.6584 7.94085C19.3064 9.12891 19.75 10.5515 19.75 12C19.75 16.3142 16.3142 19.75 12 19.75C10.4834 19.75 9.13788 19.4222 7.89729 18.6327C7.54784 18.4104 7.44482 17.9468 7.66721 17.5973C7.88959 17.2479 8.35315 17.1449 8.70261 17.3672C9.66203 17.9778 10.7165 18.25 12 18.25C15.4857 18.25 18.25 15.4858 18.25 12C18.25 10.8485 17.8935 9.67107 17.3415 8.65913C17.1432 8.29549 17.2772 7.83991 17.6408 7.64157ZM2.94995 20.2C2.94995 19.7858 3.28574 19.45 3.69995 19.45H3.79995C4.21416 19.45 4.54995 19.7858 4.54995 20.2C4.54995 20.6142 4.21416 20.95 3.79995 20.95H3.69995C3.28574 20.95 2.94995 20.6142 2.94995 20.2Z" fill="#595854"/>
</svg>
