<svg width="24" height="24" viewBox="0 0 24 24" fill="none" xmlns="http://www.w3.org/2000/svg">
<path fill-rule="evenodd" clip-rule="evenodd" d="M15.8302 3.63972C15.83 3.63951 15.8304 3.63992 15.8302 3.63972L20.3716 8.16113C22.5219 10.3229 22.5239 13.8167 20.3702 15.9704L15.9802 20.3604L15.9788 20.3618C13.817 22.512 10.3232 22.5141 8.16956 20.3604L3.63956 15.8304C2.54058 14.7314 1.9513 13.2168 2.02063 11.6567L2.02076 11.6541L2.26084 6.65241C2.38017 4.27766 4.27836 2.37885 6.665 2.27086C6.66539 2.27084 6.66578 2.27082 6.66618 2.2708L11.6608 2.03107C11.6613 2.03104 11.6619 2.03101 11.6624 2.03098C13.2166 1.95026 14.7324 2.54226 15.8302 3.63972ZM14.7696 4.70038C13.9678 3.89861 12.8639 3.47026 11.739 3.52903L11.7359 3.52918L6.73585 3.76918L6.73361 3.76929C5.12106 3.84185 3.84001 5.12241 3.75899 6.72691C3.75897 6.72717 3.759 6.72665 3.75899 6.72691L3.51915 11.7233C3.51914 11.7238 3.51912 11.7242 3.5191 11.7246C3.46881 12.8641 3.8995 13.969 4.70022 14.7697L9.23022 19.2997C10.7963 20.8658 13.342 20.8681 14.9203 19.299C14.9201 19.2992 14.9205 19.2987 14.9203 19.299L19.3096 14.9097C20.8755 13.3438 20.8779 10.7985 19.3094 9.22017C19.309 9.21977 19.3085 9.21936 19.3081 9.21895L14.7707 4.70155L14.7696 4.70038ZM9.49989 7.75005C8.5334 7.75005 7.74989 8.53355 7.74989 9.50005C7.74989 10.4665 8.5334 11.25 9.49989 11.25C10.4664 11.25 11.2499 10.4665 11.2499 9.50005C11.2499 8.53355 10.4664 7.75005 9.49989 7.75005ZM6.24989 9.50005C6.24989 7.70512 7.70497 6.25005 9.49989 6.25005C11.2948 6.25005 12.7499 7.70512 12.7499 9.50005C12.7499 11.295 11.2948 12.75 9.49989 12.75C7.70497 12.75 6.24989 11.295 6.24989 9.50005Z" fill="#595854"/>
</svg>
