<svg width="24" height="24" viewBox="0 0 24 24" fill="none" xmlns="http://www.w3.org/2000/svg">
<path fill-rule="evenodd" clip-rule="evenodd" d="M2.59739 4.34847C3.58642 3.4639 5.08145 3.25 6.99488 3.25H16.9949C18.9895 3.25 20.5367 3.48116 21.5252 4.46967C22.5137 5.45818 22.7449 7.00536 22.7449 9V15C22.7449 16.9946 22.5137 18.5418 21.5252 19.5303C20.5367 20.5188 18.9895 20.75 16.9949 20.75H6.99488C5.08145 20.75 3.58642 20.5361 2.59739 19.6515C1.58648 18.7474 1.30059 17.3275 1.25512 15.5188C1.25006 15.3174 1.32627 15.1224 1.46658 14.9778C1.60689 14.8331 1.79949 14.7511 2.001 14.75C3.52057 14.7421 4.74488 13.515 4.74488 12C4.74488 10.4814 3.51788 9.25 2.00488 9.25C1.8027 9.25 1.60909 9.16837 1.46793 9.02362C1.32678 8.87888 1.25004 8.68327 1.25512 8.48115C1.30059 6.67254 1.58648 5.25262 2.59739 4.34847ZM9.74316 19.25V16.5C9.74316 16.0858 9.40738 15.75 8.99316 15.75C8.57895 15.75 8.24316 16.0858 8.24316 16.5V19.25H6.99488C5.07831 19.25 4.12335 19.0039 3.59737 18.5335C3.16425 18.1461 2.88615 17.4788 2.78819 16.1749C4.75601 15.8013 6.24488 14.0782 6.24488 12C6.24488 9.92574 4.75922 8.19117 2.78839 7.82235C2.88654 6.52031 3.16456 5.85363 3.59737 5.46653C4.12335 4.9961 5.07831 4.75 6.99488 4.75H8.24316V7.5C8.24316 7.91421 8.57895 8.25 8.99316 8.25C9.40738 8.25 9.74316 7.91421 9.74316 7.5V4.75H16.9949C19.0002 4.75 19.9531 5.01884 20.4646 5.53033C20.976 6.04182 21.2449 6.99464 21.2449 9V15C21.2449 17.0054 20.976 17.9582 20.4646 18.4697C19.9531 18.9812 19.0002 19.25 16.9949 19.25H9.74316ZM14.6624 10.287L14.3616 10.9034C14.1919 11.2633 13.8653 11.4972 13.482 11.5523L13.3749 10.81L13.4809 11.5525M12.7706 11.6554L12.2898 11.1843L12.2843 11.179C12.2861 11.1807 12.288 11.1825 12.2898 11.1843C12.4933 11.3875 12.3631 11.7139 12.104 11.752L11.9949 11.01L12.1025 11.7522L12.104 11.752L12.7706 11.6554ZM14.6624 10.287L14.973 10.9133L14.9741 10.9154C15.1378 11.243 15.4595 11.4926 15.8408 11.5513L16.5549 11.6548L16.0501 12.1445C15.7394 12.4329 15.6551 12.8346 15.7024 13.1661C15.7035 13.1739 15.7048 13.1817 15.7061 13.1894L15.8282 13.8861L15.2053 13.5569L15.1903 13.5492C14.8591 13.3836 14.4606 13.3836 14.1295 13.5492L14.1145 13.5569L13.4916 13.8861M15.698 8.99923C15.2843 8.15245 14.0367 8.10491 13.617 9.00899L13.0876 10.0938L11.8873 10.2678L11.8858 10.268C10.9458 10.4062 10.5355 11.5745 11.2421 12.2578L12.1058 13.104L11.8963 14.2997C11.8963 14.2998 11.8963 14.2995 11.8963 14.2997M17.4235 14.2997L17.2142 13.105L18.0843 12.261C18.0849 12.2605 18.0855 12.2599 18.086 12.2593C18.7949 11.5763 18.3846 10.4063 17.444 10.268L16.2408 10.0936L15.698 8.99923M13.0039 10.2657C13.0048 10.2639 13.0056 10.262 13.0066 10.2601L13.0039 10.2657Z" fill="#595854"/>
</svg>
