<svg width="24" height="24" viewBox="0 0 24 24" fill="none" xmlns="http://www.w3.org/2000/svg">
<path fill-rule="evenodd" clip-rule="evenodd" d="M11.11 2.75C9.81421 2.75 8.75 3.8142 8.75 5.10999V5.13H12.89C15.0142 5.13 16.75 6.86577 16.75 8.98999V15.3297L20.052 17.1732C20.0526 17.1735 20.0532 17.1738 20.0538 17.1741C20.5434 17.4434 20.8254 17.3778 20.9411 17.3097C21.056 17.2421 21.25 17.029 21.25 16.47V5.10999C21.25 3.8142 20.1858 2.75 18.89 2.75H11.11ZM16.75 17.0476L19.3244 18.4848L19.328 18.4868C20.1073 18.9164 20.9797 19.0271 21.7014 18.6027C22.424 18.1779 22.75 17.361 22.75 16.47V5.10999C22.75 2.98577 21.0142 1.25 18.89 1.25H11.11C8.98579 1.25 7.25 2.98577 7.25 5.10999V5.13H5.11C2.98579 5.13 1.25 6.86577 1.25 8.98999V20.35C1.25 21.241 1.57604 22.0579 2.29857 22.4828C3.02025 22.9071 3.89269 22.7964 4.67203 22.3668L4.67508 22.3651L8.60024 20.1778C8.60081 20.1775 8.60139 20.1772 8.60198 20.1769C8.67505 20.1374 8.81747 20.0975 9 20.0975C9.18253 20.0975 9.32495 20.1374 9.39802 20.1769C9.39861 20.1772 9.39919 20.1775 9.39976 20.1778L13.3249 22.3651L13.328 22.3668C14.1073 22.7964 14.9797 22.9071 15.7014 22.4828C16.424 22.0579 16.75 21.241 16.75 20.35V17.0476ZM5.11 6.63C3.81421 6.63 2.75 7.69421 2.75 8.98999V20.35C2.75 20.909 2.94396 21.1221 3.05893 21.1897C3.17463 21.2578 3.45673 21.3235 3.94645 21.054C3.94696 21.0537 3.94746 21.0534 3.94797 21.0532L7.87975 18.8621C8.22722 18.6719 8.63399 18.5975 9 18.5975C9.36601 18.5975 9.77277 18.6719 10.1202 18.8622L10.1251 18.8648L14.052 21.0532C14.0525 21.0534 14.053 21.0537 14.0536 21.054C14.5433 21.3235 14.8254 21.2578 14.9411 21.1897C15.056 21.1221 15.25 20.909 15.25 20.35V8.98999C15.25 7.69421 14.1858 6.63 12.89 6.63H5.11ZM7.05967 10.0597C7.35256 9.76677 7.82744 9.76677 8.12033 10.0597L9 10.9393L9.87967 10.0597C10.1726 9.76677 10.6474 9.76677 10.9403 10.0597C11.2332 10.3526 11.2332 10.8274 10.9403 11.1203L10.0607 12L10.9403 12.8797C11.2332 13.1726 11.2332 13.6474 10.9403 13.9403C10.6474 14.2332 10.1726 14.2332 9.87967 13.9403L9 13.0607L8.12033 13.9403C7.82744 14.2332 7.35256 14.2332 7.05967 13.9403C6.76678 13.6474 6.76678 13.1726 7.05967 12.8797L7.93934 12L7.05967 11.1203C6.76678 10.8274 6.76678 10.3526 7.05967 10.0597Z" fill="#595854"/>
</svg>
