<svg width="24" height="24" viewBox="0 0 24 24" fill="none" xmlns="http://www.w3.org/2000/svg">
<path fill-rule="evenodd" clip-rule="evenodd" d="M14.1 3.95004C14.1 3.14252 13.293 2.58813 12.5458 2.87132L4.60542 5.87147C3.78865 6.18067 3.25 6.96049 3.25 7.84005V8.15603C4.04926 7.43784 5.10509 7.00001 6.25999 7.00001H14.1V3.95004ZM15.6 7.00001V3.95004C15.6 2.09755 13.747 0.811883 12.0142 1.46869L4.07491 4.46841C2.67187 4.9993 1.75 6.33973 1.75 7.84005V13.24C1.75 13.6542 2.08579 13.99 2.5 13.99C2.91421 13.99 3.25 13.6542 3.25 13.24V11.51C3.25 9.85423 4.60421 8.50001 6.25999 8.50001H14.845C14.8467 8.50002 14.8483 8.50002 14.85 8.50002C14.8517 8.50002 14.8533 8.50002 14.855 8.50001H17.74C19.3958 8.50001 20.75 9.85423 20.75 11.51V12.2H19.48C19.3327 12.2 19.1874 12.2113 19.0453 12.2333C18.4562 12.3243 17.9205 12.5995 17.5081 13.0202C16.9393 13.5792 16.611 14.3847 16.6918 15.2469C16.8211 16.7695 18.1893 17.8002 19.5988 17.8002H20.75V18.24C20.75 19.8958 19.3958 21.25 17.74 21.25H12.26C11.8458 21.25 11.51 21.5858 11.51 22C11.51 22.4142 11.8458 22.75 12.26 22.75H17.74C20.2242 22.75 22.25 20.7242 22.25 18.24V17.6475C22.8723 17.3726 23.3088 16.7561 23.3088 16.0302V13.9702C23.3088 13.2443 22.8723 12.6278 22.25 12.3529V11.51C22.25 9.02581 20.2242 7.00001 17.74 7.00001H15.6ZM21.5167 16.3002C21.5112 16.3001 21.5056 16.3 21.5 16.3H19.6C18.8509 16.3 18.2403 15.7527 18.1874 15.1177L18.1866 15.1089C18.1492 14.7162 18.2978 14.3464 18.5639 14.0867L18.5773 14.0732C18.7614 13.8842 19.0029 13.757 19.2783 13.7151C19.3433 13.7053 19.4103 13.7002 19.4788 13.7002H21.5416C21.7032 13.7106 21.8088 13.837 21.8088 13.9702V16.0302C21.8088 16.1633 21.7032 16.2898 21.5416 16.3002H21.5167ZM6.25 12C6.25 11.5858 6.58579 11.25 7 11.25H14C14.4142 11.25 14.75 11.5858 14.75 12C14.75 12.4142 14.4142 12.75 14 12.75H7C6.58579 12.75 6.25 12.4142 6.25 12ZM4.80457 17.25C5.04194 17.5445 5.02387 17.9768 4.75034 18.2503C4.45745 18.5432 3.98257 18.5432 3.68968 18.2503L2.46968 17.0303C2.32902 16.8897 2.25 16.6989 2.25 16.5C2.25 16.3011 2.32902 16.1103 2.46968 15.9697L3.68968 14.7497C3.98257 14.4568 4.45745 14.4568 4.75034 14.7497C5.02387 15.0232 5.04194 15.4555 4.80457 15.75H8.34C9.39418 15.75 10.25 16.6057 10.25 17.66V18.94C10.25 19.3542 9.91421 19.69 9.5 19.69C9.08579 19.69 8.75 19.3542 8.75 18.94V17.66C8.75 17.4342 8.56581 17.25 8.34 17.25H4.80457ZM3 18.59C3.41421 18.59 3.75 18.9258 3.75 19.34V20.62C3.75 20.8458 3.93424 21.03 4.16 21.03H7.69648C7.45931 20.7355 7.47746 20.3034 7.75093 20.03C8.04382 19.7371 8.5187 19.7371 8.81159 20.03L10.0316 21.25C10.1722 21.3907 10.2513 21.5814 10.2513 21.7803C10.2512 21.9793 10.1722 22.17 10.0316 22.3107L8.81157 23.5306C8.51868 23.8235 8.0438 23.8235 7.75091 23.5306C7.47729 23.257 7.4593 22.8246 7.69693 22.53H4.16C3.10576 22.53 2.25 21.6742 2.25 20.62V19.34C2.25 18.9258 2.58579 18.59 3 18.59Z" fill="#595854"/>
</svg>
