<svg width="24" height="24" viewBox="0 0 24 24" fill="none" xmlns="http://www.w3.org/2000/svg">
<path fill-rule="evenodd" clip-rule="evenodd" d="M4.21992 3.84998C3.06356 3.84998 2.36133 5.12638 2.96572 6.09209L5.73531 10.5215C5.73518 10.5213 5.73545 10.5217 5.73531 10.5215C6.01135 10.962 6.12742 11.4963 6.12742 11.99C6.12742 12.4838 6.01171 13.0175 5.73558 13.458C5.73549 13.4582 5.73567 13.4579 5.73558 13.458L2.96812 17.884C2.96778 17.8845 2.96745 17.8851 2.96712 17.8856C2.35381 18.8815 3.06462 20.15 4.21992 20.15H14.6699C14.827 20.15 15.0638 20.0933 15.3145 19.9679C15.5645 19.8429 15.7539 19.6869 15.8509 19.5587C15.8508 19.5589 15.8511 19.5585 15.8509 19.5587L21.0302 12.6597L21.0311 12.6584C21.1513 12.499 21.2407 12.2471 21.2531 11.9532C21.2655 11.6606 21.1986 11.3987 21.0923 11.2249C21.0919 11.2243 21.0916 11.2237 21.0912 11.223L16.9141 4.54782L16.9127 4.5455C16.8169 4.3912 16.6233 4.2088 16.3611 4.06332C16.0989 3.91786 15.8413 3.84998 15.6599 3.84998H4.21992ZM1.69404 6.8876C0.458724 4.91334 1.89638 2.34998 4.21992 2.34998H15.6599C16.1585 2.34998 16.666 2.51709 17.0887 2.75163C17.5112 2.98595 17.9222 3.32816 18.1865 3.75335C18.1867 3.75372 18.1869 3.75409 18.1872 3.75445L22.3687 10.4369C22.6618 10.9132 22.7743 11.4854 22.7518 12.0168C22.7293 12.5475 22.5688 13.1102 22.2294 13.5607C22.2292 13.561 22.229 13.5613 22.2288 13.5615L17.0497 20.4603L17.0485 20.4619C16.7754 20.8236 16.3799 21.1123 15.9853 21.3095C15.5911 21.5067 15.1228 21.65 14.6699 21.65H4.21992C1.87584 21.65 0.466884 19.0798 1.69181 17.0959L1.69403 17.0923L4.464 12.6624C4.55768 12.513 4.62742 12.271 4.62742 11.99C4.62742 11.7089 4.55821 11.4678 4.46453 11.3184L1.69404 6.8876Z" fill="#595854"/>
</svg>
