<svg width="24" height="24" viewBox="0 0 24 24" fill="none" xmlns="http://www.w3.org/2000/svg">
<path fill-rule="evenodd" clip-rule="evenodd" d="M2.45996 10.79C2.45996 5.52576 6.73574 1.25 12 1.25C17.2636 1.25 21.5399 5.51521 21.5399 10.79C21.5399 13.5368 20.377 16.0023 18.5224 17.7377C18.2199 18.0207 17.7453 18.0049 17.4623 17.7024C17.1793 17.4 17.1951 16.9254 17.4975 16.6424C19.0629 15.1777 20.0399 13.1031 20.0399 10.79C20.0399 6.34475 16.4363 2.75 12 2.75C7.56417 2.75 3.95996 6.35419 3.95996 10.79C3.95996 13.1129 4.94671 15.2058 6.5292 16.6694C6.83329 16.9506 6.85182 17.4251 6.57057 17.7292C6.28933 18.0333 5.81482 18.0518 5.51072 17.7706C3.63321 16.0342 2.45996 13.5471 2.45996 10.79ZM12 6.04999C9.38417 6.04999 7.25995 8.17419 7.25995 10.79C7.25995 12.0504 7.7511 13.1891 8.54676 14.0367C8.83026 14.3387 8.81527 14.8133 8.51328 15.0968C8.21129 15.3803 7.73665 15.3653 7.45315 15.0633C6.40881 13.9509 5.75995 12.4496 5.75995 10.79C5.75995 7.34576 8.55574 4.54999 12 4.54999C15.4442 4.54999 18.24 7.34576 18.24 10.79C18.24 12.4516 17.5897 13.941 16.5494 15.0605C16.2674 15.364 15.7928 15.3814 15.4894 15.0994C15.186 14.8174 15.1686 14.3429 15.4506 14.0394C16.2502 13.179 16.74 12.0483 16.74 10.79C16.74 8.17419 14.6157 6.04999 12 6.04999ZM11.2764 7.93031C13.4595 7.41117 15.3781 9.3294 14.8599 11.5124C14.6138 12.5622 13.7663 13.4032 12.7174 13.6587L12.7135 13.6596C10.53 14.1789 8.61106 12.2599 9.1303 10.0765L9.13176 10.0703C9.38851 9.02981 10.2297 8.18856 11.2703 7.93181L11.2764 7.93031ZM11.6266 9.38887C12.7218 9.13067 13.6608 10.071 13.4003 11.1665L13.3996 11.1693C13.2854 11.658 12.8741 12.0758 12.3644 12.2008C11.2698 12.4597 10.3308 11.5212 10.5889 10.4267C10.7128 9.92949 11.1295 9.5128 11.6266 9.38887ZM14.2764 16.1924L15.7128 17.978C15.7131 17.9784 15.7134 17.9787 15.7137 17.9791C17.2637 19.8947 15.8836 22.74 13.43 22.74H10.56C8.09788 22.74 6.74423 19.9008 8.27351 17.9825L8.27558 17.9799L9.71379 16.1921C9.71411 16.1917 9.71443 16.1913 9.71476 16.1909C10.8827 14.7291 13.114 14.723 14.2764 16.1924ZM13.1012 17.1245C12.5432 16.4173 11.4576 16.4118 10.8861 17.1278L10.8843 17.1301L9.44641 18.9175C9.44609 18.9179 9.44577 18.9183 9.44545 18.9187C8.69626 19.8604 9.36255 21.24 10.56 21.24H13.43C14.6358 21.24 15.2957 19.8464 14.5471 18.922L14.5456 18.9201L13.1012 17.1245Z" fill="#595854"/>
</svg>
