<svg width="24" height="24" viewBox="0 0 24 24" fill="none" xmlns="http://www.w3.org/2000/svg">
<path fill-rule="evenodd" clip-rule="evenodd" d="M3.09467 3.09467C4.42914 1.7602 6.42603 1.25 9 1.25H15C17.574 1.25 19.5709 1.7602 20.9053 3.09467C22.2398 4.42914 22.75 6.42603 22.75 9V15C22.75 17.574 22.2398 19.5709 20.9053 20.9053C19.5709 22.2398 17.574 22.75 15 22.75H9C6.42603 22.75 4.42914 22.2398 3.09467 20.9053C1.7602 19.5709 1.25 17.574 1.25 15V9C1.25 6.42603 1.7602 4.42914 3.09467 3.09467ZM4.15533 4.15533C3.2398 5.07086 2.75 6.57397 2.75 9V15C2.75 17.426 3.2398 18.9291 4.15533 19.8447C5.07086 20.7602 6.57397 21.25 9 21.25H15C17.426 21.25 18.9291 20.7602 19.8447 19.8447C20.7602 18.9291 21.25 17.426 21.25 15V9C21.25 6.57397 20.7602 5.07086 19.8447 4.15533C18.9291 3.2398 17.426 2.75 15 2.75H9C6.57397 2.75 5.07086 3.2398 4.15533 4.15533ZM10.1303 8.43967C10.4232 8.73256 10.4232 9.20744 10.1303 9.50033L7.64339 11.9873C7.64297 11.9889 7.6425 11.9916 7.6425 11.995C7.6425 11.9984 7.64297 12.0011 7.64339 12.0027L10.1303 14.4897C10.4232 14.7826 10.4232 15.2574 10.1303 15.5503C9.83744 15.8432 9.36256 15.8432 9.06967 15.5503L6.57967 13.0603C5.99678 12.4774 5.99678 11.5126 6.57967 10.9297L9.06967 8.43967C9.36256 8.14678 9.83744 8.14678 10.1303 8.43967ZM13.8697 8.43967C14.1626 8.14678 14.6374 8.14678 14.9303 8.43967L17.4203 10.9297C18.0032 11.5126 18.0032 12.4774 17.4203 13.0603L14.9303 15.5503C14.6374 15.8432 14.1626 15.8432 13.8697 15.5503C13.5768 15.2574 13.5768 14.7826 13.8697 14.4897L16.3566 12.0027C16.357 12.0011 16.3575 11.9984 16.3575 11.995C16.3575 11.9916 16.357 11.9889 16.3566 11.9873L13.8697 9.50033C13.5768 9.20744 13.5768 8.73256 13.8697 8.43967Z" fill="#595854"/>
</svg>
