<svg width="24" height="24" viewBox="0 0 24 24" fill="none" xmlns="http://www.w3.org/2000/svg">
<path fill-rule="evenodd" clip-rule="evenodd" d="M3.82708 1.56023L16.7686 3.25258C16.7988 3.25482 16.829 3.25845 16.8591 3.26325C17.0947 3.21842 17.3478 3.28722 17.5302 3.46966C17.5991 3.53854 17.6518 3.61748 17.6883 3.70176C17.7246 3.74111 17.7596 3.78431 17.7922 3.83164L20.7981 6.83752C21.5732 7.46443 21.46 8.53646 20.9999 9.14999L20.9884 9.16488L11.5938 21.058C11.2212 21.5514 10.6653 21.9671 9.98185 21.8817C9.30243 21.7968 8.8616 21.2605 8.61452 20.7046C8.61059 20.6957 8.60682 20.6868 8.60324 20.6778L1.90324 3.87781C1.89789 3.86441 1.89293 3.85085 1.88837 3.83716C1.68895 3.2389 1.70001 2.56048 2.1262 2.05438C2.55481 1.5454 3.21311 1.43336 3.82708 1.56023ZM15.3583 4.58093L10.9692 8.96999L4.41071 3.14933L15.3583 4.58093ZM3.81744 4.62835L9.45095 18.7542L10.2187 10.3094L3.81744 4.62835ZM11.6961 10.6256L10.8863 19.5339L19.0914 9.14654L11.6961 10.6256ZM19.3953 7.55605L16.9499 5.11065L13.2818 8.77875L19.3953 7.55605Z" fill="#595854"/>
</svg>
