<svg width="24" height="24" viewBox="0 0 24 24" fill="none" xmlns="http://www.w3.org/2000/svg">
<path fill-rule="evenodd" clip-rule="evenodd" d="M3.06464 3.09467C4.39911 1.7602 6.396 1.25 8.96997 1.25H14.97C17.5439 1.25 19.5408 1.7602 20.8753 3.09467C22.0756 4.295 22.6091 6.03127 22.7042 8.24138C22.7338 8.322 22.75 8.40911 22.75 8.5C22.75 8.57573 22.7388 8.64882 22.7179 8.71773C22.7193 8.81104 22.72 8.90513 22.72 9V15C22.72 17.574 22.2098 19.5709 20.8753 20.9053C19.5408 22.2398 17.5439 22.75 14.97 22.75H8.96997C6.396 22.75 4.39911 22.2398 3.06464 20.9053C1.73017 19.5709 1.21997 17.574 1.21997 15V9C1.21997 6.42603 1.73017 4.42914 3.06464 3.09467ZM21.1704 7.75C21.0249 6.03962 20.5614 4.90204 19.8146 4.15533C18.8991 3.2398 17.396 2.75 14.97 2.75H8.96997C6.54394 2.75 5.04083 3.2398 4.1253 4.15533C3.37859 4.90204 2.91508 6.03962 2.76953 7.75H21.1704ZM2.71997 9.25H21.22V15C21.22 17.426 20.7302 18.9291 19.8146 19.8447C18.8991 20.7602 17.396 21.25 14.97 21.25H8.96997C6.54394 21.25 5.04083 20.7602 4.1253 19.8447C3.20977 18.9291 2.71997 17.426 2.71997 15V9.25ZM11.4696 12.4097C11.7625 12.1168 12.2374 12.1168 12.5303 12.4097L15.0903 14.9697C15.3832 15.2626 15.3832 15.7374 15.0903 16.0303C14.7974 16.3232 14.3225 16.3232 14.0296 16.0303L12 14.0007L9.9703 16.0303C9.67741 16.3232 9.20253 16.3232 8.90964 16.0303C8.61675 15.7374 8.61675 15.2626 8.90964 14.9697L11.4696 12.4097Z" fill="#595854"/>
</svg>
