<svg width="24" height="24" viewBox="0 0 24 24" fill="none" xmlns="http://www.w3.org/2000/svg">
<path fill-rule="evenodd" clip-rule="evenodd" d="M4.7371 3.88534C4.09637 4.57535 3.75 5.61497 3.75 7V17C3.75 18.385 4.09637 19.4246 4.7371 20.1147C5.36848 20.7946 6.39295 21.25 8 21.25H16C17.607 21.25 18.6315 20.7946 19.2629 20.1147C19.9036 19.4246 20.25 18.385 20.25 17V7C20.25 5.61497 19.9036 4.57535 19.2629 3.88534C18.6649 3.24133 17.7143 2.79877 16.25 2.75378V9.85999C16.25 10.9702 14.9438 11.4994 14.1563 10.7857L14.1514 10.7813L12 8.79673L9.84369 10.7857C9.05623 11.4994 7.75 10.9702 7.75 9.85999V2.75378C6.28574 2.79877 5.3351 3.24133 4.7371 3.88534ZM9.25 2.75V9.29268L11.1486 7.54134C11.6266 7.09292 12.3734 7.09292 12.8514 7.54134L14.75 9.29268V2.75H9.25ZM16 1.25C17.893 1.25 19.3685 1.79462 20.3621 2.86466C21.3464 3.92465 21.75 5.38503 21.75 7V17C21.75 18.615 21.3464 20.0754 20.3621 21.1353C19.3685 22.2054 17.893 22.75 16 22.75H8C6.10705 22.75 4.63152 22.2054 3.6379 21.1353C2.65363 20.0754 2.25 18.615 2.25 17V7C2.25 5.38503 2.65363 3.92465 3.6379 2.86466C4.63152 1.79462 6.10705 1.25 8 1.25H16ZM12.5 14C12.5 13.5858 12.8358 13.25 13.25 13.25H17.5C17.9142 13.25 18.25 13.5858 18.25 14C18.25 14.4142 17.9142 14.75 17.5 14.75H13.25C12.8358 14.75 12.5 14.4142 12.5 14ZM8.25 18C8.25 17.5858 8.58579 17.25 9 17.25H17.5C17.9142 17.25 18.25 17.5858 18.25 18C18.25 18.4142 17.9142 18.75 17.5 18.75H9C8.58579 18.75 8.25 18.4142 8.25 18Z" fill="#595854"/>
</svg>
