<svg width="24" height="24" viewBox="0 0 24 24" fill="none" xmlns="http://www.w3.org/2000/svg">
<path fill-rule="evenodd" clip-rule="evenodd" d="M12 1.25C12.4142 1.25 12.75 1.58579 12.75 2V2.07999C12.75 2.4942 12.4142 2.82999 12 2.82999C11.5858 2.82999 11.25 2.4942 11.25 2.07999V2C11.25 1.58579 11.5858 1.25 12 1.25ZM4.32966 4.32966C4.62255 4.03676 5.09742 4.03676 5.39032 4.32966L5.52032 4.45966C5.81321 4.75255 5.81321 5.22743 5.52032 5.52032C5.22743 5.81321 4.75255 5.81321 4.45966 5.52032L4.32966 5.39032C4.03676 5.09742 4.03676 4.62255 4.32966 4.32966ZM19.6703 4.32966C19.9632 4.62255 19.9632 5.09742 19.6703 5.39032L19.5403 5.52032C19.2474 5.81321 18.7726 5.81321 18.4797 5.52032C18.1868 5.22743 18.1868 4.75255 18.4797 4.45966L18.6097 4.32966C18.9026 4.03676 19.3775 4.03676 19.6703 4.32966ZM4.75 12C4.75 7.99579 7.99579 4.75 12 4.75C16.0042 4.75 19.25 7.99579 19.25 12C19.25 12.4142 18.9142 12.75 18.5 12.75C18.0858 12.75 17.75 12.4142 17.75 12C17.75 8.82421 15.1758 6.25 12 6.25C8.82421 6.25 6.25 8.82421 6.25 12C6.25 12.4142 5.91421 12.75 5.5 12.75C5.08579 12.75 4.75 12.4142 4.75 12ZM1.25 12C1.25 11.5858 1.58579 11.25 2 11.25H2.08002C2.49423 11.25 2.83002 11.5858 2.83002 12C2.83002 12.4142 2.49423 12.75 2.08002 12.75H2C1.58579 12.75 1.25 12.4142 1.25 12ZM21.17 12C21.17 11.5858 21.5058 11.25 21.92 11.25H22C22.4142 11.25 22.75 11.5858 22.75 12C22.75 12.4142 22.4142 12.75 22 12.75H21.92C21.5058 12.75 21.17 12.4142 21.17 12ZM3.25 15C3.25 14.5858 3.58579 14.25 4 14.25H20C20.4142 14.25 20.75 14.5858 20.75 15C20.75 15.4142 20.4142 15.75 20 15.75H4C3.58579 15.75 3.25 15.4142 3.25 15ZM5.25 18C5.25 17.5858 5.58579 17.25 6 17.25H18C18.4142 17.25 18.75 17.5858 18.75 18C18.75 18.4142 18.4142 18.75 18 18.75H6C5.58579 18.75 5.25 18.4142 5.25 18ZM8.25 21C8.25 20.5858 8.58579 20.25 9 20.25H15C15.4142 20.25 15.75 20.5858 15.75 21C15.75 21.4142 15.4142 21.75 15 21.75H9C8.58579 21.75 8.25 21.4142 8.25 21Z" fill="#595854"/>
</svg>
