<svg width="24" height="24" viewBox="0 0 24 24" fill="none" xmlns="http://www.w3.org/2000/svg">
<path fill-rule="evenodd" clip-rule="evenodd" d="M7.12479 3.65059C7.35695 3.51645 7.64305 3.51645 7.87521 3.65059L12.3752 6.25059C12.6071 6.38459 12.75 6.63212 12.75 6.89999V8.49999C12.75 8.9142 12.4142 9.24999 12 9.24999C11.5858 9.24999 11.25 8.9142 11.25 8.49999V7.33284L7.5 5.16617L3.75 7.33284V11.6671L7.5 13.8338L16.1248 8.85059C16.3569 8.71645 16.6431 8.71645 16.8752 8.85059L21.3752 11.4506C21.6071 11.5846 21.75 11.8321 21.75 12.1V17.3C21.75 17.5679 21.6071 17.8154 21.3752 17.9494L16.8752 20.5494C16.6431 20.6835 16.3569 20.6835 16.1248 20.5494L11.6248 17.9494C11.3929 17.8154 11.25 17.5679 11.25 17.3V15.6C11.25 15.1858 11.5858 14.85 12 14.85C12.4142 14.85 12.75 15.1858 12.75 15.6V16.8671L16.5 19.0338L20.25 16.8671V12.5328L16.5 10.3662L7.87521 15.3494C7.64305 15.4835 7.35695 15.4835 7.12479 15.3494L2.62479 12.7494C2.39286 12.6154 2.25 12.3679 2.25 12.1V6.89999C2.25 6.63212 2.39286 6.38459 2.62479 6.25059L7.12479 3.65059Z" fill="#595854"/>
</svg>
