<svg width="24" height="24" viewBox="0 0 24 24" fill="none" xmlns="http://www.w3.org/2000/svg">
<path fill-rule="evenodd" clip-rule="evenodd" d="M12 1.25C12.4142 1.25 12.75 1.58579 12.75 2V4.20469C17.6614 4.55754 21.53 8.64784 21.53 13.65V18.59C21.53 19.0042 21.1942 19.34 20.78 19.34H16.2942C15.8397 21.2981 14.085 22.75 12 22.75C9.91492 22.75 8.16026 21.2981 7.70578 19.34H3.21997C2.80576 19.34 2.46997 19.0042 2.46997 18.59V13.65C2.46997 8.64784 6.3385 4.55754 11.25 4.20469V2C11.25 1.58579 11.5858 1.25 12 1.25ZM11.94 5.67999C7.53419 5.67999 3.96997 9.24421 3.96997 13.65V17.84H20.03V13.65C20.03 9.24421 16.4658 5.67999 12.06 5.67999H11.94ZM9.26816 19.34C9.67695 20.4566 10.7491 21.25 12 21.25C13.2509 21.25 14.323 20.4566 14.7318 19.34H9.26816Z" fill="#595854"/>
</svg>
