<svg width="24" height="24" viewBox="0 0 24 24" fill="none" xmlns="http://www.w3.org/2000/svg">
<path fill-rule="evenodd" clip-rule="evenodd" d="M3.38172 4.29395C3.0711 4.60767 2.84998 5.13971 2.84998 6.03003V21.25H7.5V18.25C7.5 17.8358 7.83579 17.5 8.25 17.5C8.66421 17.5 9 17.8358 9 18.25V21.25H13.55V6.03003C13.55 5.13782 13.3304 4.60573 13.0219 4.2926C12.7155 3.98155 12.1965 3.76001 11.32 3.76001H5.09003C4.21349 3.76001 3.69098 3.9816 3.38172 4.29395ZM15.05 21.25V6.03003C15.05 4.91224 14.7746 3.93432 14.0905 3.23994C13.4045 2.54348 12.4335 2.26001 11.32 2.26001H5.09003C3.97656 2.26001 3.00405 2.54343 2.31579 3.23859C1.62887 3.93238 1.34998 4.91034 1.34998 6.03003V21.25H1C0.585786 21.25 0.25 21.5858 0.25 22C0.25 22.4142 0.585786 22.75 1 22.75H19.6571C19.6972 22.7566 19.7383 22.7601 19.7803 22.7601C19.8222 22.7601 19.8634 22.7566 19.9035 22.75H23C23.4142 22.75 23.75 22.4142 23.75 22C23.75 21.5858 23.4142 21.25 23 21.25H20.5303V18.2196C21.809 17.8962 22.75 16.742 22.75 15.36V13.09C22.75 11.4558 21.4342 10.14 19.8 10.14C18.1658 10.14 16.85 11.4558 16.85 13.09V15.36C16.85 16.7277 17.7716 17.8724 19.0303 18.2094V21.25H15.05ZM19.8865 16.8075C19.8518 16.8026 19.8163 16.8 19.7803 16.8C19.7488 16.8 19.7177 16.802 19.6873 16.8058C18.935 16.749 18.35 16.1278 18.35 15.36V13.09C18.35 12.2842 18.9942 11.64 19.8 11.64C20.6058 11.64 21.25 12.2842 21.25 13.09V15.36C21.25 16.1367 20.6514 16.7634 19.8865 16.8075ZM5.04999 8.25C5.04999 7.83579 5.38577 7.5 5.79999 7.5H10.75C11.1642 7.5 11.5 7.83579 11.5 8.25C11.5 8.66421 11.1642 9 10.75 9H5.79999C5.38577 9 5.04999 8.66421 5.04999 8.25ZM5.04999 12C5.04999 11.5858 5.38577 11.25 5.79999 11.25H10.75C11.1642 11.25 11.5 11.5858 11.5 12C11.5 12.4142 11.1642 12.75 10.75 12.75H5.79999C5.38577 12.75 5.04999 12.4142 5.04999 12Z" fill="#595854"/>
</svg>
