<svg width="24" height="24" viewBox="0 0 24 24" fill="none" xmlns="http://www.w3.org/2000/svg">
<path fill-rule="evenodd" clip-rule="evenodd" d="M12 2.75C6.89137 2.75 2.75 6.89137 2.75 12C2.75 12.7773 2.84588 13.5322 3.02645 14.2536C3.05065 14.2512 3.07518 14.25 3.1 14.25H6.25V9C6.25 8.68423 6.44778 8.40229 6.74468 8.2948C7.04159 8.1873 7.37402 8.27728 7.57617 8.51986L12 13.8285L16.4238 8.51986C16.626 8.27728 16.9584 8.1873 17.2553 8.2948C17.5522 8.40229 17.75 8.68423 17.75 9V14.25H20.9C20.9248 14.25 20.9493 14.2512 20.9735 14.2536C21.1541 13.5322 21.25 12.7773 21.25 12C21.25 6.89137 17.1086 2.75 12 2.75ZM20.4583 15.75H17C16.5858 15.75 16.25 15.4142 16.25 15V11.0715L12.5762 15.4801C12.4337 15.6511 12.2226 15.75 12 15.75C11.7774 15.75 11.5663 15.6511 11.4238 15.4801L7.75 11.0715V15C7.75 15.4142 7.41421 15.75 7 15.75H3.5417C4.98039 18.9902 8.22629 21.25 12 21.25C15.7737 21.25 19.0196 18.9902 20.4583 15.75ZM1.25 12C1.25 6.06294 6.06294 1.25 12 1.25C17.9371 1.25 22.75 6.06294 22.75 12C22.75 17.9371 17.9371 22.75 12 22.75C6.06294 22.75 1.25 17.9371 1.25 12Z" fill="#595854"/>
</svg>
