<svg width="24" height="24" viewBox="0 0 24 24" fill="none" xmlns="http://www.w3.org/2000/svg">
<path fill-rule="evenodd" clip-rule="evenodd" d="M14.1276 2.58392L17.853 7.2381C17.8535 7.2387 17.8539 7.23931 17.8544 7.23991C18.4097 7.92679 18.6178 8.75806 18.4451 9.54557C18.2726 10.3329 17.7359 11.0024 16.9477 11.3997L13.21 13.2736C12.8345 13.4574 12.3914 13.53 11.99 13.53C11.5887 13.53 11.1455 13.4574 10.7701 13.2735L10.7639 13.2705L7.03685 11.4019C7.03632 11.4017 7.03579 11.4014 7.03526 11.4011C6.24514 11.0088 5.70762 10.341 5.53493 9.55307C5.36215 8.76476 5.57101 7.93156 6.12492 7.2408L9.86402 2.58193C10.4176 1.88595 11.1884 1.4975 11.9988 1.4975C12.8092 1.4975 13.5785 1.88604 14.1276 2.58392ZM9.03144 10.7239L11.4324 11.9277C11.5474 11.9833 11.7482 12.03 11.99 12.03C12.2319 12.03 12.4327 11.9833 12.5477 11.9277L14.9606 10.7179L12 8.4975L9.03144 10.7239ZM12.75 7.185L16.448 9.95847C16.7561 9.75353 16.9226 9.48611 16.9799 9.22443C17.0472 8.91763 16.9808 8.54467 16.6871 8.1819L16.6845 8.17868L12.9501 3.51314C12.8859 3.43141 12.8189 3.36061 12.75 3.29994V7.185ZM11.25 3.29383C11.1769 3.35666 11.1056 3.43056 11.0373 3.51651L11.035 3.51944L7.29515 8.17919C6.99923 8.54835 6.93294 8.92531 7.00015 9.23193C7.05808 9.49624 7.22727 9.76444 7.54135 9.96651L11.25 7.185V3.29383ZM15.5446 15.1154C15.5445 15.1154 15.5448 15.1153 15.5446 15.1154L13.9362 15.8347L13.9334 15.8359C12.7011 16.3809 11.2998 16.3821 10.0742 15.8348L8.46719 15.1161C8.46674 15.1159 8.46629 15.1157 8.46583 15.1155C7.72197 14.7886 7.08561 15.6773 7.57775 16.2717L7.58125 16.276L11.028 20.502C11.0285 20.5026 11.029 20.5032 11.0295 20.5038C11.3288 20.8648 11.6849 21.01 12.0038 21.01C12.3227 21.01 12.6755 20.8649 12.9693 20.5054L16.4295 16.2751C16.9258 15.6697 16.2657 14.7954 15.5446 15.1154ZM17.5906 17.2249C19.0933 15.3905 17.0939 12.7853 14.9354 13.7446L13.3267 14.4641C13.3262 14.4643 13.3258 14.4645 13.3254 14.4647C12.4781 14.839 11.5202 14.8377 10.6862 14.4653L9.07622 13.7453L9.07288 13.7439C6.91822 12.7928 4.89643 15.381 6.42044 17.226C6.42107 17.2268 6.42169 17.2275 6.42232 17.2283L9.86884 21.454L9.87205 21.4579C10.4325 22.1356 11.2007 22.51 12.0038 22.51C12.8074 22.51 13.5746 22.1351 14.1308 21.4546L17.5906 17.2249C17.5907 17.2247 17.5904 17.225 17.5906 17.2249Z" fill="#595854"/>
</svg>
