<svg width="24" height="24" viewBox="0 0 24 24" fill="none" xmlns="http://www.w3.org/2000/svg">
<path fill-rule="evenodd" clip-rule="evenodd" d="M3.09467 3.09467C4.42914 1.7602 6.42603 1.25 9 1.25H15C17.574 1.25 19.5709 1.7602 20.9053 3.09467C22.2398 4.42914 22.75 6.42603 22.75 9V15C22.75 17.574 22.2398 19.5709 20.9053 20.9053C19.5709 22.2398 17.574 22.75 15 22.75H9C6.42603 22.75 4.42914 22.2398 3.09467 20.9053C1.7602 19.5709 1.25 17.574 1.25 15V9C1.25 6.42603 1.7602 4.42914 3.09467 3.09467ZM4.15533 4.15533C3.2398 5.07086 2.75 6.57397 2.75 9V15C2.75 17.426 3.2398 18.9291 4.15533 19.8447C5.07086 20.7602 6.57397 21.25 9 21.25H15C17.426 21.25 18.9291 20.7602 19.8447 19.8447C20.7602 18.9291 21.25 17.426 21.25 15V9C21.25 6.57397 20.7602 5.07086 19.8447 4.15533C18.9291 3.2398 17.426 2.75 15 2.75H9C6.57397 2.75 5.07086 3.2398 4.15533 4.15533ZM12.587 7.47935C12.5631 7.49675 12.49 7.56617 12.49 7.77002V8.39003C12.49 8.5051 12.538 8.66503 12.65 8.82061C12.7619 8.97618 12.8982 9.07217 13.0072 9.10851L15.3528 9.89035C15.5437 9.95566 15.6297 9.90846 15.6526 9.89196C15.6759 9.87528 15.75 9.80711 15.75 9.59999V8.98C15.75 8.86493 15.702 8.705 15.59 8.54941C15.4781 8.39385 15.3418 8.29786 15.2328 8.26152L12.8928 7.48155L12.8901 7.48062C12.6943 7.4145 12.6089 7.46344 12.587 7.47935ZM12.49 10.5167C12.5042 10.5218 12.5185 10.5267 12.5328 10.5315L14.8703 11.3107C15.4385 11.5041 16.0462 11.4559 16.5273 11.1105C17.0091 10.7647 17.25 10.2029 17.25 9.59999V8.98C17.25 8.49506 17.068 8.035 16.8074 7.67308C16.5469 7.31115 16.1681 6.99215 15.7071 6.83849L13.3699 6.05945C13.3694 6.05927 13.3689 6.05909 13.3684 6.05892C12.7946 5.86566 12.1856 5.91695 11.7055 6.26571C11.2269 6.6133 10.99 7.17386 10.99 7.77002V12.6575C10.5829 12.4359 10.1161 12.31 9.62 12.31C8.03494 12.31 6.75 13.5949 6.75 15.18C6.75 16.765 8.03494 18.05 9.62 18.05C11.2051 18.05 12.49 16.765 12.49 15.18V10.5167ZM10.99 15.18C10.99 14.4234 10.3766 13.81 9.62 13.81C8.86337 13.81 8.25 14.4234 8.25 15.18C8.25 15.9366 8.86337 16.55 9.62 16.55C10.3766 16.55 10.99 15.9366 10.99 15.18Z" fill="#595854"/>
</svg>
