<svg width="24" height="24" viewBox="0 0 24 24" fill="none" xmlns="http://www.w3.org/2000/svg">
<path fill-rule="evenodd" clip-rule="evenodd" d="M7.14168 2.56056C6.55957 2.04312 5.78178 1.73376 4.92503 1.74987C4.16588 1.76622 3.46687 2.04823 2.90839 2.50757C2.1799 3.11549 1.72566 4.04819 1.74969 5.07114C1.76626 5.68528 1.94572 6.24766 2.2556 6.71645L2.25964 6.72257C2.36045 6.87836 2.45255 7.00574 2.54823 7.10826C2.55724 7.11791 2.56599 7.1278 2.57448 7.13791C3.1605 7.83631 4.06383 8.27461 5.07183 8.25022L5.07512 8.25015C5.89676 8.23388 6.62722 7.91832 7.17171 7.39785C7.18344 7.38663 7.19554 7.37579 7.20798 7.36536C7.43839 7.17212 7.64255 6.91698 7.80434 6.62576L7.81406 6.6088C8.10519 6.1155 8.26631 5.53387 8.25021 4.92997C8.22576 3.97665 7.80382 3.14097 7.14558 2.564L7.14168 2.56056ZM7.91105 1.25C7.08362 0.603149 6.03178 0.228515 4.89562 0.250157L4.89395 0.25019C3.77418 0.274015 2.75418 0.69139 1.95314 1.35107L1.94978 1.35385C0.879498 2.24575 0.214527 3.61204 0.250142 5.1079L0.250196 5.11004C0.273773 5.99418 0.533569 6.83021 1.00221 7.54048C1.07389 7.65116 1.15591 7.77196 1.24994 7.8935V17C1.24994 19.0742 2.92573 20.75 4.99994 20.75H5.35346C5.67992 21.9043 6.74116 22.75 7.99994 22.75C9.25872 22.75 10.32 21.9043 10.6464 20.75H13.3535C13.6799 21.9043 14.7412 22.75 15.9999 22.75C17.2587 22.75 18.32 21.9043 18.6464 20.75H18.9999C21.0742 20.75 22.7499 19.0742 22.7499 17V12C22.7499 11.8698 22.716 11.7418 22.6515 11.6286L20.9415 8.62859L19.231 5.63768L19.2285 5.63341C18.7377 4.788 17.8338 4.25 16.84 4.25H15.7499V2C15.7499 1.58579 15.4142 1.25 14.9999 1.25H7.91105ZM15.7499 5.75V12C15.7499 13.5142 14.5142 14.75 12.9999 14.75H2.74994V17C2.74994 18.2458 3.75415 19.25 4.99994 19.25H5.35346C5.67992 18.0957 6.74116 17.25 7.99994 17.25C9.25872 17.25 10.32 18.0957 10.6464 19.25H13.3535C13.6799 18.0957 14.7412 17.25 15.9999 17.25C17.2587 17.25 18.32 18.0957 18.6464 19.25H18.9999C20.2457 19.25 21.2499 18.2458 21.2499 17V14.75H18.9999C18.0357 14.75 17.2499 13.9642 17.2499 13V10C17.2499 9.03676 18.0341 8.25159 18.997 8.25L17.9314 6.38661C17.931 6.38602 17.9307 6.38543 17.9303 6.38484C17.701 5.9913 17.2854 5.75 16.84 5.75H15.7499ZM19.8541 9.75H18.9999C18.8642 9.75 18.7499 9.86421 18.7499 10V13C18.7499 13.1358 18.8642 13.25 18.9999 13.25H21.2499V12.1987L19.8541 9.75ZM2.74994 13.25H12.9999C13.6857 13.25 14.2499 12.6858 14.2499 12V2.75H9.18286C9.52673 3.38679 9.72968 4.11315 9.74968 4.89029C9.77342 5.78282 9.53653 6.63795 9.11082 7.36278C8.87704 7.78145 8.56912 8.17697 8.19075 8.49873C7.37755 9.26792 6.29564 9.72588 5.10644 9.74982C4.25439 9.77014 3.44772 9.56352 2.74994 9.18379V13.25ZM14.7499 20C14.7499 19.3142 15.3142 18.75 15.9999 18.75C16.6857 18.75 17.2499 19.3142 17.2499 20C17.2499 20.6904 16.6903 21.25 15.9999 21.25C15.3096 21.25 14.7499 20.6904 14.7499 20ZM6.74994 20C6.74994 19.3142 7.31415 18.75 7.99994 18.75C8.68573 18.75 9.24994 19.3142 9.24994 20C9.24994 20.6904 8.6903 21.25 7.99994 21.25C7.30959 21.25 6.74994 20.6904 6.74994 20ZM7.0792 3.44874C7.36706 3.74658 7.35898 4.22138 7.06115 4.50925L4.97118 6.52927C4.68224 6.80854 4.22453 6.81046 3.93326 6.53362L2.92325 5.57366C2.62302 5.2883 2.61096 4.81358 2.89632 4.51334C3.18168 4.2131 3.6564 4.20104 3.95663 4.4864L4.4456 4.95114L6.01869 3.43069C6.31652 3.14283 6.79133 3.15091 7.0792 3.44874Z" fill="#595854"/>
</svg>
