<svg width="24" height="24" viewBox="0 0 24 24" fill="none" xmlns="http://www.w3.org/2000/svg">
<path fill-rule="evenodd" clip-rule="evenodd" d="M14.1 3.95004C14.1 3.14251 13.293 2.58813 12.5458 2.87132L4.60542 5.87147C3.78865 6.18068 3.25 6.96049 3.25 7.84005V8.15603C4.04926 7.43785 5.10509 7.00001 6.26 7.00001H14.1V3.95004ZM15.6 7.00001V3.95004C15.6 2.09771 13.7474 0.812097 12.0146 1.46853C12.0145 1.46858 12.0148 1.46847 12.0146 1.46853L4.07492 4.46841C2.67187 4.9993 1.75 6.33973 1.75 7.84005V18.24C1.75 20.7242 3.77578 22.75 6.26 22.75H17.74C20.2242 22.75 22.25 20.7242 22.25 18.24V17.6475C22.8723 17.3726 23.3088 16.7561 23.3088 16.0302V13.9702C23.3088 13.2443 22.8723 12.6278 22.25 12.3529V11.51C22.25 9.02581 20.2242 7.00001 17.74 7.00001H15.6ZM14.845 8.50001C14.8467 8.50002 14.8483 8.50002 14.85 8.50002C14.8517 8.50002 14.8533 8.50002 14.855 8.50001H17.74C19.3958 8.50001 20.75 9.85423 20.75 11.51V12.2H19.48C19.3327 12.2 19.1874 12.2113 19.0453 12.2333C18.4562 12.3243 17.9205 12.5995 17.5081 13.0202C16.9393 13.5792 16.611 14.3847 16.6918 15.2469C16.8211 16.7695 18.1893 17.8002 19.5988 17.8002H20.75V18.24C20.75 19.8958 19.3958 21.25 17.74 21.25H6.26C4.60422 21.25 3.25 19.8958 3.25 18.24V11.51C3.25 9.85423 4.60422 8.50001 6.26 8.50001H14.845ZM21.5167 16.3002C21.5112 16.3001 21.5056 16.3 21.5 16.3H19.6C18.8509 16.3 18.2403 15.7527 18.1874 15.1177L18.1866 15.1089C18.1492 14.7162 18.2978 14.3464 18.5639 14.0867L18.5774 14.0732C18.7614 13.8842 19.0029 13.757 19.2783 13.7151C19.3434 13.7053 19.4103 13.7002 19.4788 13.7002H21.5416C21.7032 13.7106 21.8088 13.837 21.8088 13.9702V16.0302C21.8088 16.1633 21.7032 16.2898 21.5416 16.3002H21.5167ZM6.25 12C6.25 11.5858 6.58579 11.25 7 11.25H14C14.4142 11.25 14.75 11.5858 14.75 12C14.75 12.4142 14.4142 12.75 14 12.75H7C6.58579 12.75 6.25 12.4142 6.25 12Z" fill="#595854"/>
</svg>
