<svg width="24" height="24" viewBox="0 0 24 24" fill="none" xmlns="http://www.w3.org/2000/svg">
<path fill-rule="evenodd" clip-rule="evenodd" d="M10.3741 2.90401C7.5827 3.44073 5.11154 5.35537 4.36135 8.65622L4.36127 8.65657C3.6693 11.6945 4.63963 14.4631 6.1741 16.7652L9.59649 13.3428C8.70506 12.6366 8.13 11.5428 8.13 10.31C8.13 8.17736 9.85422 6.44 12 6.44C13.2308 6.44 14.3235 7.01331 15.03 7.90933L17.8096 5.12971C15.936 3.1538 13.0451 2.39044 10.3741 2.90401ZM18.8707 4.06864C16.6009 1.69497 13.1804 0.836956 10.0909 1.43099C6.79739 2.06425 3.79864 4.36449 2.89873 8.32344M18.8707 4.06864L21.4697 1.46967C21.7626 1.17678 22.2374 1.17678 22.5303 1.46967C22.8232 1.76257 22.8232 2.23744 22.5303 2.53033L2.53033 22.5303C2.23744 22.8232 1.76256 22.8232 1.46967 22.5303C1.17678 22.2374 1.17678 21.7626 1.46967 21.4697L5.09431 17.845C3.331 15.294 2.05774 12.0162 2.89865 8.32379M13.9572 8.98211C13.5316 8.34975 12.8157 7.94 12 7.94C10.6858 7.94 9.63 9.00265 9.63 10.31C9.63 11.1275 10.0416 11.8451 10.6688 12.2705L13.9572 8.98211ZM20.2144 7.76851C20.6184 7.67706 21.02 7.93042 21.1115 8.33441C22.3542 13.8239 18.9283 18.3834 16.1205 21.08C13.8191 23.3008 10.1799 23.2989 7.87049 21.0809C7.57174 20.794 7.56215 20.3192 7.84907 20.0205C8.13598 19.7217 8.61076 19.7122 8.90951 19.9991C10.64 21.661 13.3605 21.6592 15.0792 20.0004L15.0805 19.999C17.8125 17.3756 20.7057 13.3354 19.6485 8.6656C19.5571 8.2616 19.8104 7.85997 20.2144 7.76851Z" fill="#595854"/>
</svg>
