<svg width="24" height="24" viewBox="0 0 24 24" fill="none" xmlns="http://www.w3.org/2000/svg">
<path fill-rule="evenodd" clip-rule="evenodd" d="M8.7541 5.66997H9.72C10.9489 5.66997 12.1293 6.15892 12.9998 7.02907C12.9996 7.02888 13 7.02926 12.9998 7.02907L15.3903 9.40964C16.2608 10.2801 16.75 11.4608 16.75 12.69V16.78H18.11C19.1038 16.78 19.8762 16.4506 20.3984 15.9284C20.9206 15.4062 21.25 14.6337 21.25 13.64V8.24997C21.25 7.41909 20.9192 6.6198 20.3297 6.0303L17.9397 3.6403C17.3502 3.05081 16.5509 2.71997 15.72 2.71997H11.89C10.8962 2.71997 10.1238 3.04938 9.60158 3.57155C9.11317 4.05996 8.79341 4.76736 8.7541 5.66997ZM16.7466 18.28C16.704 19.5371 16.2577 20.6356 15.4586 21.4333C14.6176 22.2727 13.4449 22.72 12.11 22.72H5.89C4.55511 22.72 3.38241 22.2727 2.54141 21.4333C1.70019 20.5936 1.25 19.4205 1.25 18.08V10.31C1.25 8.9694 1.70019 7.79633 2.54141 6.95665C3.38241 6.1172 4.55511 5.66997 5.89 5.66997H7.25307C7.29385 4.41267 7.74066 3.31115 8.54092 2.51089C9.38125 1.67056 10.5538 1.21997 11.89 1.21997H15.72C16.9491 1.21997 18.1298 1.70914 19.0003 2.57964L21.3903 4.96964C22.2608 5.84015 22.75 7.02085 22.75 8.24997V13.64C22.75 14.9762 22.2994 16.1487 21.4591 16.9891C20.6188 17.8294 19.4462 18.28 18.11 18.28H16.7466ZM3.60109 8.01829C3.07981 8.53862 2.75 9.31054 2.75 10.31V18.08C2.75 19.0794 3.07981 19.8513 3.60109 20.3717C4.12259 20.8922 4.89489 21.22 5.89 21.22H12.11C13.1051 21.22 13.8774 20.8922 14.3989 20.3717C14.9202 19.8513 15.25 19.0794 15.25 18.08V12.69C15.25 11.8594 14.9194 11.0604 14.3303 10.4709C14.3301 10.4707 14.3305 10.4711 14.3303 10.4709L11.9408 8.09141L11.9397 8.0903C11.3502 7.50081 10.5509 7.16997 9.72 7.16997H5.89C4.89489 7.16997 4.12259 7.49775 3.60109 8.01829Z" fill="#595854"/>
</svg>
