<svg width="24" height="24" viewBox="0 0 24 24" fill="none" xmlns="http://www.w3.org/2000/svg">
<path fill-rule="evenodd" clip-rule="evenodd" d="M13.1965 3.07041C12.4461 2.64226 11.5312 2.64443 10.7949 3.06953L4.85764 6.49794C4.11571 6.93498 3.65991 7.72968 3.65991 8.58003V15.42C3.65991 16.2836 4.1183 17.0753 4.8549 17.5005L10.792 20.9289C10.7925 20.9291 10.793 20.9294 10.7935 20.9297C11.5438 21.3578 12.4586 21.3556 13.1949 20.9305C13.1949 20.9306 13.1949 20.9305 13.1949 20.9305L19.1299 17.5034C19.1307 17.503 19.1315 17.5025 19.1323 17.5021C19.8741 17.065 20.3299 16.2703 20.3299 15.42V8.58003C20.3299 7.72099 19.8753 6.93562 19.1322 6.49794C19.1314 6.4975 19.1307 6.49706 19.1299 6.49661L13.1978 3.07118C13.1974 3.07092 13.1969 3.07066 13.1965 3.07041ZM10.0449 1.77047C11.2482 1.07583 12.7326 1.07774 13.942 1.76882L13.945 1.7705L19.8899 5.20335C21.0855 5.90592 21.8299 7.17995 21.8299 8.58003V15.42C21.8299 16.8088 21.0866 18.0934 19.8899 18.7967L19.885 18.7996L13.945 22.2295C12.7417 22.9242 11.2572 22.9223 10.0478 22.2312L10.0449 22.2295L4.10493 18.7996C2.90154 18.1048 2.15991 16.8164 2.15991 15.42V8.58003C2.15991 7.19125 2.90321 5.90661 4.09995 5.20337L4.10487 5.20048L10.0449 1.77047ZM10.8366 9.88303C10.7097 9.95642 10.4999 10.1902 10.4999 10.8V13.2C10.4999 13.8098 10.7097 14.0436 10.8366 14.117C10.963 14.1901 11.2686 14.2552 11.7941 13.9509L13.8741 12.751C13.8739 12.7511 13.8743 12.7509 13.8741 12.751C14.3991 12.4469 14.4974 12.1482 14.4974 12C14.4974 11.8518 14.3996 11.5535 13.8747 11.2494C13.8745 11.2493 13.8749 11.2495 13.8747 11.2494L11.7941 10.0491C11.2686 9.74485 10.963 9.80994 10.8366 9.88303ZM12.5451 8.75061C11.7408 8.28517 10.8366 8.15026 10.0857 8.58454C9.3351 9.01862 8.99991 9.86978 8.99991 10.8V13.2C8.99991 14.1303 9.3351 14.9814 10.0857 15.4155C10.8366 15.8498 11.7408 15.7149 12.5451 15.2494C12.5448 15.2496 12.5453 15.2493 12.5451 15.2494L14.6257 14.0491C15.4302 13.5833 15.9974 12.8668 15.9974 12C15.9974 11.1333 15.4302 10.4167 14.6257 9.95093L12.5451 8.75061C12.5453 8.75073 12.5448 8.75048 12.5451 8.75061Z" fill="#595854"/>
</svg>
