<svg width="24" height="24" viewBox="0 0 24 24" fill="none" xmlns="http://www.w3.org/2000/svg">
<path fill-rule="evenodd" clip-rule="evenodd" d="M11.9902 3.38709C11.9899 3.38726 11.9896 3.38742 11.9893 3.38758L6.21252 6.68411C6.10864 6.74342 6.02131 6.88064 6.02131 7.07589C6.02131 7.27105 6.10857 7.40824 6.21239 7.4676C6.21235 7.46757 6.21243 7.46762 6.21239 7.4676L11.9893 10.7642C11.9896 10.7644 11.9899 10.7645 11.9902 10.7647C12.3146 10.9478 12.6854 10.9478 13.0098 10.7647C13.0101 10.7645 13.0104 10.7644 13.0107 10.7642L18.7875 7.46767C18.7874 7.4677 18.7875 7.46765 18.7875 7.46767C18.8913 7.40832 18.9787 7.27105 18.9787 7.07589C18.9787 6.88064 18.8914 6.74342 18.7875 6.68411L13.0107 3.38758C13.0104 3.38742 13.0101 3.38726 13.0098 3.38709C12.6854 3.20394 12.3146 3.20394 11.9902 3.38709ZM11.3773 2.29903C12.0821 1.90032 12.9179 1.90032 13.6227 2.29903L13.6247 2.30018L19.4037 5.59793C19.9745 5.92383 20.2246 6.52891 20.2246 7.07589C20.2246 7.62287 19.9746 8.22788 19.4038 8.55377L13.6247 11.8516L13.6227 11.8528C12.9179 12.2515 12.0821 12.2515 11.3773 11.8528L11.3753 11.8516L5.59631 8.55385C5.02554 8.22795 4.77541 7.62287 4.77541 7.07589C4.77541 6.52891 5.02541 5.9239 5.59618 5.59801L11.3753 2.30018L11.3773 2.29903ZM4.76141 10.79C4.56358 10.6854 4.2459 10.8072 4.2459 11.1675V16.5417C4.2459 17.1086 4.55254 17.6152 5.00738 17.8597C5.00776 17.8599 5.00814 17.8601 5.00852 17.8603L10.3761 20.7054C10.574 20.8101 10.8917 20.6884 10.8917 20.328V14.9539C10.8917 14.3869 10.5851 13.8803 10.1302 13.6359C10.1298 13.6357 10.1295 13.6354 10.1291 13.6352L4.76141 10.79C4.76144 10.7901 4.76139 10.79 4.76141 10.79ZM3 11.1675C3 9.96835 4.22687 9.09418 5.34283 9.68474L10.7138 12.5317L10.7165 12.5331C11.5926 13.0029 12.1376 13.9429 12.1376 14.9539V20.328C12.1376 21.5272 10.9107 22.4013 9.79476 21.8108L4.42377 18.9638L4.42113 18.9624C3.54505 18.4926 3 17.5526 3 16.5417V11.1675ZM19.6572 9.68474C20.7731 9.09418 22 9.96835 22 11.1675V16.5417C22 17.5526 21.455 18.4926 20.5789 18.9624L20.5762 18.9638L15.2052 21.8108C14.0893 22.4013 12.8624 21.5272 12.8624 20.328V14.9539C12.8624 13.9429 13.4074 13.0029 14.2835 12.5331L14.2862 12.5317L19.6572 9.68474ZM20.2385 10.7901L14.8709 13.6352C14.8706 13.6354 14.8702 13.6356 14.8698 13.6358C14.415 13.8803 14.1083 14.3869 14.1083 14.9539V20.328C14.1083 20.6884 14.426 20.8101 14.6239 20.7054L19.9915 17.8603C19.9919 17.8601 19.9923 17.8598 19.9927 17.8596C20.4475 17.6151 20.7541 17.1086 20.7541 16.5417V11.1675C20.7541 10.8071 20.4364 10.6854 20.2385 10.7901Z" fill="#595854"/>
</svg>
