<svg width="24" height="24" viewBox="0 0 24 24" fill="none" xmlns="http://www.w3.org/2000/svg">
<path fill-rule="evenodd" clip-rule="evenodd" d="M4.03033 4.03033C3.22059 4.84007 2.75 6.11561 2.75 8V13C2.75 15.4353 3.24367 16.6541 3.99388 17.3106C4.76886 17.9887 6.01326 18.25 8 18.25H8.5C8.78282 18.25 9.05796 18.3383 9.27436 18.4455C9.48803 18.5515 9.7297 18.7182 9.90264 18.9535L11.4 20.95C11.6092 21.2289 11.8337 21.31 12 21.31C12.1663 21.31 12.3908 21.2289 12.6 20.95L14.1 18.95L14.1029 18.9462C14.4325 18.5124 14.9521 18.25 15.5 18.25H16C17.8844 18.25 19.1599 17.7794 19.9697 16.9697C20.7794 16.1599 21.25 14.8844 21.25 13V8C21.25 7.58579 21.5858 7.25 22 7.25C22.4142 7.25 22.75 7.58579 22.75 8V13C22.75 15.1156 22.2206 16.8401 21.0303 18.0303C19.8401 19.2206 18.1156 19.75 16 19.75H15.5C15.4284 19.75 15.3486 19.7871 15.2982 19.8524C15.2978 19.8529 15.2975 19.8534 15.2971 19.8538L13.8 21.85C13.3492 22.4511 12.7037 22.81 12 22.81C11.2963 22.81 10.6508 22.4511 10.2 21.85L8.69876 19.8483C8.69654 19.8462 8.69203 19.8422 8.6847 19.8365C8.66662 19.8224 8.64037 19.8054 8.60814 19.7895C8.57598 19.7735 8.54532 19.7622 8.52072 19.7556C8.50625 19.7517 8.49766 19.7504 8.49494 19.75H8C5.98674 19.75 4.23114 19.5113 3.00612 18.4394C1.75633 17.3459 1.25 15.5647 1.25 13V8C1.25 5.88439 1.77941 4.15993 2.96967 2.96967C4.15993 1.77941 5.88439 1.25 8 1.25H12C12.4142 1.25 12.75 1.58579 12.75 2C12.75 2.41421 12.4142 2.75 12 2.75H8C6.11561 2.75 4.84007 3.22059 4.03033 4.03033ZM19.4415 2.78746C19.0927 2.68186 18.7579 2.79249 18.617 2.99632C18.4802 3.19444 18.2565 3.31479 18.0157 3.31984C17.775 3.32488 17.5464 3.21402 17.4014 3.02181C17.2269 2.79063 16.8799 2.69146 16.5615 2.78656C15.9963 2.96712 15.6742 3.66967 15.9113 4.38212C16.1089 4.97058 16.5517 5.44733 17.0396 5.78688C17.2799 5.95408 17.5159 6.077 17.7092 6.15581C17.873 6.22258 17.9678 6.24222 17.995 6.24783C17.9969 6.24824 17.9986 6.24858 17.9998 6.24885C18.0012 6.24855 18.003 6.24817 18.0052 6.24769C18.033 6.24186 18.1285 6.22178 18.2932 6.15454C18.4885 6.07481 18.7266 5.9508 18.9682 5.78288C19.4601 5.441 19.8991 4.96592 20.0867 4.38829L20.0885 4.38282C20.3284 3.66315 19.9981 2.958 19.4415 2.78746ZM17.9876 1.56954C18.5851 1.20396 19.3191 1.18272 19.8779 1.35234L19.8792 1.35274C21.481 1.84218 21.9309 3.59458 21.5124 4.85444C21.1896 5.84539 20.4792 6.55942 19.8243 7.01462C19.4921 7.24545 19.1571 7.42206 18.8602 7.54327C18.5875 7.65458 18.2729 7.75 18 7.75C17.7279 7.75 17.4151 7.65575 17.143 7.54482C16.8472 7.42425 16.5138 7.24842 16.1829 7.01812C15.5285 6.56279 14.8214 5.84976 14.4889 4.85852L14.4885 4.85717C14.0666 3.59141 14.5225 1.8559 16.1148 1.35461L16.1221 1.3523C16.6983 1.17739 17.4042 1.22212 17.9876 1.56954ZM7.24451 11C7.24451 10.5858 7.58029 10.25 7.99451 10.25H8.00349C8.4177 10.25 8.75349 10.5858 8.75349 11C8.75349 11.4142 8.4177 11.75 8.00349 11.75H7.99451C7.58029 11.75 7.24451 11.4142 7.24451 11ZM11.2455 11C11.2455 10.5858 11.5813 10.25 11.9955 10.25H12.0045C12.4187 10.25 12.7545 10.5858 12.7545 11C12.7545 11.4142 12.4187 11.75 12.0045 11.75H11.9955C11.5813 11.75 11.2455 11.4142 11.2455 11ZM15.2465 11C15.2465 10.5858 15.5822 10.25 15.9965 10.25H16.0054C16.4197 10.25 16.7554 10.5858 16.7554 11C16.7554 11.4142 16.4197 11.75 16.0054 11.75H15.9965C15.5822 11.75 15.2465 11.4142 15.2465 11Z" fill="#595854"/>
</svg>
