<svg width="24" height="24" viewBox="0 0 24 24" fill="none" xmlns="http://www.w3.org/2000/svg">
<path fill-rule="evenodd" clip-rule="evenodd" d="M2.00485 1.94124C2.57309 1.40666 3.36968 1.25 4.23 1.25H8.27C9.13032 1.25 9.92691 1.40666 10.4952 1.94124C11.0749 2.48664 11.25 3.26514 11.25 4.1V19.9C11.25 20.7349 11.0749 21.5134 10.4952 22.0588C9.92691 22.5933 9.13032 22.75 8.27 22.75H4.23C3.36968 22.75 2.57309 22.5933 2.00485 22.0588C1.4251 21.5134 1.25 20.7349 1.25 19.9V4.1C1.25 3.26514 1.4251 2.48664 2.00485 1.94124ZM3.03265 3.03376C2.8949 3.16336 2.75 3.43486 2.75 4.1V19.9C2.75 20.5651 2.8949 20.8366 3.03265 20.9662C3.18191 21.1067 3.50032 21.25 4.23 21.25H8.27C8.99969 21.25 9.31809 21.1067 9.46735 20.9662C9.6051 20.8366 9.75 20.5651 9.75 19.9V4.1C9.75 3.43486 9.6051 3.16336 9.46735 3.03376C9.31809 2.89334 8.99969 2.75 8.27 2.75H4.23C3.50032 2.75 3.18191 2.89334 3.03265 3.03376ZM13.5206 1.90059C14.0878 1.39665 14.8765 1.25 15.73 1.25H19.77C20.6236 1.25 21.4122 1.39665 21.9794 1.90059C22.5692 2.42461 22.75 3.17847 22.75 3.98V8.52C22.75 9.32097 22.5694 10.076 21.9783 10.5991C21.4101 11.102 20.6208 11.2451 19.7678 11.24H15.73C14.8791 11.24 14.0897 11.0968 13.5217 10.5941C12.9301 10.0706 12.75 9.31497 12.75 8.51V3.98C12.75 3.17847 12.9308 2.42461 13.5206 1.90059ZM14.5169 3.02191C14.3892 3.13539 14.25 3.37153 14.25 3.98V8.51C14.25 9.12503 14.3899 9.35945 14.5158 9.47087C14.6653 9.60316 14.9909 9.74 15.73 9.74H19.7747C20.5108 9.74463 20.8355 9.60746 20.9842 9.47586C21.1106 9.36402 21.25 9.12903 21.25 8.52V3.98C21.25 3.37153 21.1108 3.13539 20.9831 3.02191C20.8328 2.88835 20.5065 2.75 19.77 2.75H15.73C14.9935 2.75 14.6672 2.88835 14.5169 3.02191ZM13.4884 13.4884C14.0562 12.9207 14.8599 12.75 15.73 12.75H19.77C20.6401 12.75 21.4438 12.9207 22.0116 13.4884C22.5793 14.0562 22.75 14.8599 22.75 15.73V19.77C22.75 20.6401 22.5793 21.4438 22.0116 22.0116C21.4438 22.5793 20.6401 22.75 19.77 22.75H15.73C14.8599 22.75 14.0562 22.5793 13.4884 22.0116C12.9207 21.4438 12.75 20.6401 12.75 19.77V15.73C12.75 14.8599 12.9207 14.0562 13.4884 13.4884ZM14.5491 14.5491C14.3993 14.6988 14.25 15.0101 14.25 15.73V19.77C14.25 20.4899 14.3993 20.8012 14.5491 20.9509C14.6988 21.1007 15.0101 21.25 15.73 21.25H19.77C20.4899 21.25 20.8012 21.1007 20.9509 20.9509C21.1007 20.8012 21.25 20.4899 21.25 19.77V15.73C21.25 15.0101 21.1007 14.6988 20.9509 14.5491C20.8012 14.3993 20.4899 14.25 19.77 14.25H15.73C15.0101 14.25 14.6988 14.3993 14.5491 14.5491Z" fill="#595854"/>
</svg>
