<svg width="24" height="24" viewBox="0 0 24 24" fill="none" xmlns="http://www.w3.org/2000/svg">
<path fill-rule="evenodd" clip-rule="evenodd" d="M5.4375 3.25C4.22347 3.25 3.25 4.22347 3.25 5.4375C3.25 6.13347 3.57796 6.75478 4.08557 7.15561C4.46775 7.45139 4.92634 7.625 5.4375 7.625C6.65153 7.625 7.625 6.65153 7.625 5.4375C7.625 4.92634 7.45139 4.46775 7.15561 4.08557C6.75478 3.57796 6.13347 3.25 5.4375 3.25ZM8.54146 3.96359C8.75371 4.4074 8.875 4.90393 8.875 5.4375C8.875 7.34189 7.34189 8.875 5.4375 8.875C4.90393 8.875 4.4074 8.75371 3.96359 8.54146C3.50257 9.60238 3.25 10.771 3.25 12C3.25 13.2361 3.50212 14.3984 3.9626 15.4569C4.3653 15.2649 4.81293 15.1486 5.28701 15.1282C5.33689 15.1261 5.38706 15.125 5.4375 15.125C7.34189 15.125 8.875 16.6581 8.875 18.5625C8.875 18.6339 8.87283 18.7047 8.86855 18.7748C8.84109 19.2259 8.72677 19.6521 8.54321 20.0372C9.60366 20.4977 10.7717 20.75 12 20.75C13.2361 20.75 14.3984 20.4979 15.4569 20.0374C15.265 19.6348 15.1487 19.1873 15.1283 18.7134C15.1261 18.6635 15.125 18.6131 15.125 18.5625C15.125 16.6581 16.6581 15.125 18.5625 15.125C18.6339 15.125 18.7048 15.1272 18.775 15.1315C19.2261 15.1589 19.6523 15.2733 20.0374 15.4569C20.4979 14.3984 20.75 13.2361 20.75 12C20.75 10.7717 20.4977 9.60366 20.0372 8.54321C19.6346 8.73507 19.1873 8.8513 18.7134 8.87175C18.6635 8.87391 18.6131 8.875 18.5625 8.875C16.6581 8.875 15.125 7.34189 15.125 5.4375C15.125 5.36575 15.1272 5.29455 15.1315 5.22396C15.1591 4.77324 15.2734 4.34741 15.4569 3.9626C14.3984 3.50212 13.2361 3.25 12 3.25C10.771 3.25 9.60238 3.50257 8.54146 3.96359ZM16.3771 5.34147C16.3757 5.37328 16.375 5.40529 16.375 5.4375C16.375 6.65153 17.3485 7.625 18.5625 7.625C18.599 7.625 18.6352 7.62411 18.6712 7.62236C19.1388 7.59958 19.5595 7.43027 19.9144 7.1556C20.4221 6.75476 20.75 6.13346 20.75 5.4375C20.75 4.22347 19.7765 3.25 18.5625 3.25C17.8647 3.25 17.2454 3.57934 16.8564 4.08281C16.8378 4.10686 16.8176 4.12935 16.7961 4.15017C16.5476 4.4944 16.3962 4.89694 16.3771 5.34147ZM16.2151 2.93378C16.8237 2.35671 17.6523 2 18.5625 2C20.4669 2 22 3.53311 22 5.4375C22 6.3489 21.6426 7.17608 21.0679 7.78869C21.6693 9.07161 22 10.4988 22 12C22 13.5117 21.6685 14.9331 21.0662 16.2151C21.6433 16.8237 22 17.6523 22 18.5625C22 20.4669 20.4669 22 18.5625 22C17.6523 22 16.8237 21.6433 16.2151 21.0662C14.9331 21.6685 13.5117 22 12 22C10.4998 22 9.07346 21.6697 7.79118 21.0691C7.1757 21.651 6.3462 22 5.4375 22C3.53311 22 2 20.4669 2 18.5625C2 17.6555 2.35449 16.8208 2.93092 16.209C2.3304 14.9286 2 13.5093 2 12C2 10.4988 2.33072 9.07161 2.93211 7.78869C2.35742 7.17608 2 6.3489 2 5.4375C2 3.53311 3.53311 2 5.4375 2C6.3489 2 7.17608 2.35742 7.78869 2.93211C9.07161 2.33072 10.4988 2 12 2C13.5117 2 14.9331 2.33145 16.2151 2.93378ZM5.32939 16.3776C4.86075 16.4003 4.43911 16.5702 4.08367 16.8459L4.08281 16.8465C3.58128 17.2341 3.25 17.8623 3.25 18.5625C3.25 19.7765 4.22347 20.75 5.4375 20.75C6.13836 20.75 6.7569 20.428 7.15414 19.9163M5.32939 16.3776C5.36517 16.3759 5.40121 16.375 5.4375 16.375C6.65153 16.375 7.625 17.3485 7.625 18.5625C7.625 18.5945 7.62432 18.6263 7.62297 18.6579C7.60275 19.1315 7.43234 19.5575 7.15428 19.9161M16.7961 19.8498C16.8176 19.8707 16.8378 19.8931 16.8564 19.9172C17.2454 20.4207 17.8647 20.75 18.5625 20.75C19.7765 20.75 20.75 19.7765 20.75 18.5625C20.75 17.8647 20.4207 17.2454 19.9172 16.8564C19.8931 16.8378 19.8707 16.8176 19.8498 16.7961C19.5056 16.5476 19.1031 16.3962 18.6585 16.3771C18.6267 16.3757 18.5947 16.375 18.5625 16.375C17.3485 16.375 16.375 17.3485 16.375 18.5625C16.375 18.599 16.3759 18.6352 16.3776 18.6712C16.399 19.1107 16.5499 19.5089 16.7961 19.8498Z" fill="#595854"/>
</svg>
