<svg width="24" height="24" viewBox="0 0 24 24" fill="none" xmlns="http://www.w3.org/2000/svg">
<path fill-rule="evenodd" clip-rule="evenodd" d="M5.47727 20.6364C4.30994 20.6364 3.36364 19.6901 3.36364 18.5227C3.36364 17.3554 4.30994 16.4091 5.47727 16.4091C6.6446 16.4091 7.59091 17.3554 7.59091 18.5227C7.59091 19.6901 6.6446 20.6364 5.47727 20.6364ZM2 18.5227C2 20.4432 3.55683 22 5.47727 22C7.39772 22 8.95455 20.4432 8.95455 18.5227C8.95455 16.8356 7.75307 15.4292 6.15909 15.1123V11.4666C6.96539 12.246 8.06427 12.7252 9.2724 12.7191C9.27273 12.7191 9.27305 12.7191 9.27338 12.7191L12.4685 12.7098C14.4043 12.7024 16.0824 13.8242 16.8823 15.4559C15.789 16.042 15.0455 17.1955 15.0455 18.5227C15.0455 20.4432 16.6023 22 18.5227 22C20.4432 22 22 20.4432 22 18.5227C22 16.6023 20.4432 15.0455 18.5227 15.0455C18.4147 15.0455 18.3078 15.0504 18.2023 15.06C17.2238 12.8678 15.0229 11.3364 12.4633 11.3461L9.26778 11.3555L9.26616 11.3555C7.94696 11.3625 6.8091 10.5305 6.36332 9.36316C8.10097 9.05458 9.42045 7.5365 9.42045 5.71023C9.42045 3.66113 7.75933 2 5.71023 2C3.66113 2 2 3.66113 2 5.71023C2 7.44364 3.18873 8.89942 4.79545 9.30683V15.1123C3.20147 15.4292 2 16.8356 2 18.5227ZM18.5227 20.6364C17.3554 20.6364 16.4091 19.6901 16.4091 18.5227C16.4091 17.3554 17.3554 16.4091 18.5227 16.4091C19.6901 16.4091 20.6364 17.3554 20.6364 18.5227C20.6364 19.6901 19.6901 20.6364 18.5227 20.6364ZM5.71023 8.05682C4.41424 8.05682 3.36364 7.00621 3.36364 5.71023C3.36364 4.41424 4.41424 3.36364 5.71023 3.36364C7.00621 3.36364 8.05682 4.41424 8.05682 5.71023C8.05682 7.00621 7.00621 8.05682 5.71023 8.05682Z" fill="#595854"/>
</svg>
