<svg width="24" height="24" viewBox="0 0 24 24" fill="none" xmlns="http://www.w3.org/2000/svg">
<path fill-rule="evenodd" clip-rule="evenodd" d="M4.03033 4.0003C3.22059 4.81004 2.75 6.08558 2.75 7.96997V12.97C2.75 15.4053 3.24367 16.6241 3.99388 17.2805C4.76886 17.9587 6.01326 18.22 8 18.22H8.5C8.78583 18.22 9.06121 18.3071 9.28043 18.4167C9.49669 18.5248 9.73258 18.6921 9.90265 18.9235L11.4 20.92C11.6091 21.1989 11.8337 21.28 12 21.28C12.1663 21.28 12.3909 21.1989 12.6 20.92L14.1 18.92L14.1029 18.9162C14.4325 18.4825 14.952 18.22 15.5 18.22H16C17.8844 18.22 19.1599 17.7494 19.9697 16.9396C20.7794 16.1299 21.25 14.8544 21.25 12.97V7.96997C21.25 6.08558 20.7794 4.81004 19.9697 4.0003C19.1599 3.19056 17.8844 2.71997 16 2.71997H8C6.11561 2.71997 4.84007 3.19056 4.03033 4.0003ZM2.96967 2.93964C4.15993 1.74938 5.88439 1.21997 8 1.21997H16C18.1156 1.21997 19.8401 1.74938 21.0303 2.93964C22.2206 4.1299 22.75 5.85436 22.75 7.96997V12.97C22.75 15.0856 22.2206 16.81 21.0303 18.0003C19.8401 19.1906 18.1156 19.72 16 19.72H15.5C15.4285 19.72 15.3486 19.757 15.2982 19.8224C15.2978 19.8229 15.2975 19.8234 15.2971 19.8238L13.8 21.82C13.3492 22.4211 12.7037 22.78 12 22.78C11.2963 22.78 10.6508 22.4211 10.2 21.82L8.69735 19.8165C8.69533 19.8145 8.69059 19.81 8.68241 19.8036C8.66499 19.7898 8.64004 19.7735 8.60956 19.7583C8.57913 19.7431 8.54994 19.7323 8.52605 19.7259C8.50853 19.7212 8.49895 19.7201 8.49745 19.72H8C5.98674 19.72 4.23114 19.4813 3.00612 18.4094C1.75633 17.3158 1.25 15.5346 1.25 12.97V7.96997C1.25 5.85436 1.77941 4.1299 2.96967 2.93964ZM13.2958 7.68079C13.6764 7.84415 13.8526 8.28515 13.6892 8.66579L11.6892 13.3258C11.5258 13.7065 11.0848 13.8826 10.7042 13.7192C10.3236 13.5559 10.1474 13.1149 10.3108 12.7342L12.3108 8.0742C12.4742 7.69356 12.9152 7.51743 13.2958 7.68079ZM8.53033 8.16968C8.82322 8.46258 8.82322 8.93745 8.53033 9.23034L7.06066 10.7L8.53033 12.1697C8.82322 12.4626 8.82322 12.9374 8.53033 13.2303C8.23744 13.5232 7.76256 13.5232 7.46967 13.2303L5.46967 11.2303C5.17678 10.9374 5.17678 10.4626 5.46967 10.1697L7.46967 8.16968C7.76256 7.87679 8.23744 7.87679 8.53033 8.16968ZM15.4697 9.23034C15.1768 8.93745 15.1768 8.46258 15.4697 8.16968C15.7626 7.87679 16.2374 7.87679 16.5303 8.16968L18.5303 10.1697C18.8232 10.4626 18.8232 10.9374 18.5303 11.2303L16.5303 13.2303C16.2374 13.5232 15.7626 13.5232 15.4697 13.2303C15.1768 12.9374 15.1768 12.4626 15.4697 12.1697L16.9393 10.7L15.4697 9.23034Z" fill="#595854"/>
</svg>
