<svg width="24" height="24" viewBox="0 0 24 24" fill="none" xmlns="http://www.w3.org/2000/svg">
<path fill-rule="evenodd" clip-rule="evenodd" d="M3.88534 5.2371C3.20538 5.86848 2.75 6.89295 2.75 8.5V15.5C2.75 17.107 3.20538 18.1315 3.88534 18.7629C4.57535 19.4036 5.61497 19.75 7 19.75H17C18.385 19.75 19.4246 19.4036 20.1147 18.7629C20.7946 18.1315 21.25 17.107 21.25 15.5V8.5C21.25 6.89295 20.7946 5.86848 20.1147 5.2371C19.4246 4.59637 18.385 4.25 17 4.25H7C5.61497 4.25 4.57535 4.59637 3.88534 5.2371ZM2.86466 4.1379C3.92465 3.15363 5.38503 2.75 7 2.75H17C18.615 2.75 20.0754 3.15363 21.1353 4.1379C22.2054 5.13152 22.75 6.60705 22.75 8.5V15.5C22.75 17.393 22.2054 18.8685 21.1353 19.8621C20.0754 20.8464 18.615 21.25 17 21.25H7C5.38503 21.25 3.92465 20.8464 2.86466 19.8621C1.79462 18.8685 1.25 17.393 1.25 15.5V8.5C1.25 6.60705 1.79462 5.13152 2.86466 4.1379ZM17.586 8.53194C17.8445 8.85558 17.7917 9.32751 17.4681 9.58602L14.3371 12.0868C13.0337 13.1244 10.9563 13.1244 9.65286 12.0868L9.65102 12.0853L6.53102 9.58529C6.20778 9.32627 6.1557 8.85426 6.41471 8.53102C6.67373 8.20778 7.14574 8.1557 7.46898 8.41471L10.5871 10.9132C10.5874 10.9135 10.5877 10.9137 10.5879 10.9139C11.3445 11.5155 12.646 11.5154 13.4024 10.9136C13.4022 10.9137 13.4025 10.9135 13.4024 10.9136L16.5319 8.41398C16.8556 8.15548 17.3275 8.20829 17.586 8.53194Z" fill="#595854"/>
</svg>
