<svg width="24" height="24" viewBox="0 0 24 24" fill="none" xmlns="http://www.w3.org/2000/svg">
<path fill-rule="evenodd" clip-rule="evenodd" d="M12 2.75C6.89137 2.75 2.75 6.89137 2.75 12C2.75 17.1086 6.89137 21.25 12 21.25C17.1086 21.25 21.25 17.1086 21.25 12C21.25 6.89137 17.1086 2.75 12 2.75ZM1.25 12C1.25 6.06294 6.06294 1.25 12 1.25C17.9371 1.25 22.75 6.06294 22.75 12C22.75 17.9371 17.9371 22.75 12 22.75C6.06294 22.75 1.25 17.9371 1.25 12ZM12 7.35C9.432 7.35 7.35 9.4962 7.35 12.1C7.35 14.6858 9.41421 16.75 12 16.75C13.4387 16.75 14.8292 15.9819 15.7055 14.8427C15.9581 14.5144 16.429 14.453 16.7573 14.7055C17.0856 14.9581 17.147 15.429 16.8945 15.7573C15.7708 17.2181 13.9613 18.25 12 18.25C8.58579 18.25 5.85 15.5142 5.85 12.1C5.85 8.7038 8.568 5.85 12 5.85C13.3574 5.85 14.7216 6.29997 15.7605 7.10799C16.0874 7.36229 16.1463 7.83349 15.892 8.16046C15.6377 8.48742 15.1665 8.54632 14.8395 8.29201C14.0784 7.70003 13.0426 7.35 12 7.35ZM17.4 9.75C17.1515 9.75 16.95 9.95147 16.95 10.2C16.95 10.4485 17.1515 10.65 17.4 10.65C17.6485 10.65 17.85 10.4485 17.85 10.2C17.85 9.95147 17.6485 9.75 17.4 9.75ZM15.45 10.2C15.45 9.12305 16.323 8.25 17.4 8.25C18.477 8.25 19.35 9.12304 19.35 10.2C19.35 11.277 18.477 12.15 17.4 12.15C16.323 12.15 15.45 11.277 15.45 10.2Z" fill="#595854"/>
</svg>
