<svg width="24" height="24" viewBox="0 0 24 24" fill="none" xmlns="http://www.w3.org/2000/svg">
<path fill-rule="evenodd" clip-rule="evenodd" d="M12 2.75C6.89137 2.75 2.75 6.89137 2.75 12C2.75 17.1086 6.89137 21.25 12 21.25C17.1086 21.25 21.25 17.1086 21.25 12C21.25 6.89137 17.1086 2.75 12 2.75ZM1.25 12C1.25 6.06294 6.06294 1.25 12 1.25C17.9371 1.25 22.75 6.06294 22.75 12C22.75 17.9371 17.9371 22.75 12 22.75C6.06294 22.75 1.25 17.9371 1.25 12ZM12 6.65C11.7142 6.65 11.45 6.91421 11.45 7.2V9.2219L12.1375 9.61476L12.55 9.37904V7.2C12.55 6.91421 12.2858 6.65 12 6.65ZM14.05 8.5219V7.2C14.05 6.08579 13.1142 5.15 12 5.15C10.8858 5.15 9.95 6.08579 9.95 7.2V8.36476L8.83486 7.72754L8.79544 7.71064C7.85253 7.30654 6.5738 7.50385 6.03879 8.54562C5.48245 9.53941 5.71273 10.8485 6.86127 11.3703L7.96333 12L6.80547 12.6616L6.78397 12.676C5.97414 13.2159 5.38558 14.4285 6.05066 15.4771C6.59251 16.499 7.85944 16.6905 8.79544 16.2894L8.83486 16.2725L9.95 15.6352V16.8C9.95 17.9142 10.8858 18.85 12 18.85C13.0336 18.85 14.05 18.0905 14.05 16.9V15.4781L15.246 16.1615L15.2646 16.1708C16.207 16.642 17.4168 16.3269 18.024 15.416L18.0499 15.3772L18.0708 15.3354C18.542 14.393 18.2269 13.1832 17.316 12.576L17.2945 12.5616L16.3117 12L17.2945 11.4384L17.316 11.424C18.1359 10.8775 18.729 9.64138 18.024 8.58398C17.4816 7.77031 16.2601 7.18002 15.208 7.86018L14.05 8.5219ZM14.05 10.7076V10.2495L15.9945 9.13837L16.016 9.12404C16.1 9.06802 16.2098 9.04733 16.3544 9.09183C16.5079 9.13905 16.668 9.25407 16.776 9.41603C16.832 9.50005 16.8527 9.60978 16.8082 9.75444C16.7627 9.90217 16.6544 10.0561 16.5019 10.1637L14.8 11.1362L14.05 10.7076ZM12.1375 11.3424L12.55 11.5781V12.4219L12.1375 12.6576L11.45 12.2648V11.7352L12.1375 11.3424ZM9.95 10.8648V10.0924L8.16975 9.0751C7.73718 8.90612 7.43982 9.09741 7.37082 9.23541L7.36151 9.25403L7.35118 9.2721C7.23848 9.46933 7.23118 9.64161 7.26171 9.75502C7.28975 9.85916 7.35735 9.95146 7.49544 10.0106L7.53486 10.0275L9.475 11.1362L9.95 10.8648ZM9.475 12.8638L7.59815 13.9363C7.4456 14.0439 7.33729 14.1978 7.29183 14.3456C7.24732 14.4902 7.26802 14.6 7.32404 14.684L7.34994 14.7228L7.37082 14.7646C7.43982 14.9026 7.73718 15.0939 8.16975 14.9249L9.95 13.9076V13.1352L9.475 12.8638ZM11.45 14.7781V16.8C11.45 17.0858 11.7142 17.35 12 17.35C12.3664 17.35 12.55 17.1095 12.55 16.9V14.621L12.1375 14.3852L11.45 14.7781ZM14.05 13.7505L15.95 14.8362C16.1952 14.9491 16.5508 14.8755 16.7476 14.6233C16.8464 14.3723 16.7618 14.022 16.5012 13.8359L14.8 12.8638L14.05 13.2924V13.7505Z" fill="#595854"/>
</svg>
