<svg width="24" height="24" viewBox="0 0 24 24" fill="none" xmlns="http://www.w3.org/2000/svg">
<path fill-rule="evenodd" clip-rule="evenodd" d="M3.09467 3.09467C4.42914 1.7602 6.42603 1.25 9 1.25H15C17.574 1.25 19.5709 1.7602 20.9053 3.09467C22.2398 4.42914 22.75 6.42603 22.75 9V10C22.75 10.4142 22.4142 10.75 22 10.75C21.5858 10.75 21.25 10.4142 21.25 10V9C21.25 6.57397 20.7602 5.07086 19.8447 4.15533C18.9291 3.2398 17.426 2.75 15 2.75H9C6.57397 2.75 5.07086 3.2398 4.15533 4.15533C3.2398 5.07086 2.75 6.57397 2.75 9V15C2.75 17.426 3.2398 18.9291 4.15533 19.8447C5.07086 20.7602 6.57397 21.25 9 21.25H11C11.4142 21.25 11.75 21.5858 11.75 22C11.75 22.4142 11.4142 22.75 11 22.75H9C6.42603 22.75 4.42914 22.2398 3.09467 20.9053C1.7602 19.5709 1.25 17.574 1.25 15V9C1.25 6.42603 1.7602 4.42914 3.09467 3.09467ZM18.3337 12.7746C18.3265 12.7798 18.26 12.8296 18.26 13.02V13.61C18.26 13.7083 18.3017 13.8503 18.404 13.9918C18.5061 14.133 18.6283 14.218 18.72 14.2495C18.7204 14.2496 18.7208 14.2497 18.7212 14.2499L20.9272 14.9885C20.927 14.9885 20.9273 14.9886 20.9272 14.9885C21.0969 15.045 21.1642 15.0005 21.1742 14.9932C21.1852 14.9852 21.25 14.9327 21.25 14.75V14.16C21.25 14.0617 21.2083 13.9197 21.106 13.7782C21.0039 13.637 20.8817 13.5521 20.79 13.5206C20.7896 13.5204 20.7892 13.5203 20.7888 13.5202L18.5828 12.7815C18.5827 12.7815 18.583 12.7816 18.5828 12.7815C18.4086 12.7236 18.3412 12.7691 18.3337 12.7746ZM18.26 15.6773L20.4528 16.4115C21.0027 16.5948 21.5908 16.5445 22.0558 16.2068C22.5198 15.8698 22.75 15.3273 22.75 14.75V14.16C22.75 13.6883 22.5717 13.2453 22.3215 12.8993C22.0716 12.5536 21.7094 12.2487 21.2712 12.0998L19.0572 11.3585C18.5118 11.1767 17.9238 11.2209 17.4564 11.5579C16.9948 11.8907 16.7662 12.4257 16.7601 12.9965C16.7601 13.001 16.76 13.0055 16.76 13.01V17.5499C16.385 17.3581 15.9601 17.25 15.51 17.25C13.9912 17.25 12.76 18.4812 12.76 20C12.76 21.5188 13.9912 22.75 15.51 22.75C17.0288 22.75 18.26 21.5188 18.26 20V15.6773ZM15.51 18.75C14.8197 18.75 14.26 19.3096 14.26 20C14.26 20.6904 14.8197 21.25 15.51 21.25C16.2004 21.25 16.76 20.6904 16.76 20C16.76 19.3096 16.2004 18.75 15.51 18.75Z" fill="#595854"/>
</svg>
