<svg width="24" height="24" viewBox="0 0 24 24" fill="none" xmlns="http://www.w3.org/2000/svg">
<path fill-rule="evenodd" clip-rule="evenodd" d="M10.9184 1.35002H5.40002C3.86205 1.35002 2.65002 2.60997 2.65002 4.20002V6.50002C2.65002 6.94325 2.79093 7.42668 2.97814 7.84431C3.16685 8.26528 3.43627 8.69455 3.7624 9.02303L7.53237 12.9914C7.67417 13.1747 7.83132 13.4477 7.95367 13.7536C8.08282 14.0765 8.15002 14.3781 8.15002 14.6V19.9C8.15002 22.131 10.6316 23.3228 12.3931 22.2388L12.4056 22.2309L13.7971 21.3363C14.2005 21.0903 14.5041 20.691 14.7029 20.3085C14.906 19.9179 15.05 19.4492 15.05 19V14.7C15.05 14.4154 15.1236 14.0648 15.2655 13.7304C15.4087 13.3927 15.5971 13.1287 15.7802 12.9762C15.7857 12.9715 15.7912 12.9668 15.7967 12.962L20.0967 9.16201C20.1082 9.15181 20.1195 9.14125 20.1304 9.13035C20.4576 8.80314 20.7545 8.34766 20.9703 7.87287C21.1852 7.4001 21.35 6.84154 21.35 6.30002V4.10002C21.35 2.5858 20.1142 1.35002 18.6 1.35002H10.943C10.9348 1.34988 10.9266 1.34988 10.9184 1.35002ZM9.57793 2.85002H5.40002C4.738 2.85002 4.15002 3.39006 4.15002 4.20002V6.50002C4.15002 6.65678 4.20912 6.92335 4.34691 7.23072C4.48179 7.53162 4.65976 7.7991 4.83035 7.96969L4.84377 7.98345L5.76757 8.95587L9.57793 2.85002ZM6.83469 10.0792L11.346 2.85002H18.6C19.2858 2.85002 19.85 3.41423 19.85 4.10002V6.30002C19.85 6.5585 19.7649 6.89994 19.6047 7.25216C19.45 7.59261 19.2538 7.88043 19.0842 8.05496L14.8108 11.8314C14.3984 12.1784 14.0898 12.6608 13.8846 13.1446C13.6765 13.6352 13.55 14.1847 13.55 14.7V19C13.55 19.1508 13.494 19.3821 13.3721 19.6165C13.2478 19.8555 13.1052 20.0023 13.0142 20.0569C13.0075 20.0609 13.001 20.065 12.9945 20.0691L11.6014 20.9647C10.7635 21.4746 9.65002 20.8668 9.65002 19.9V14.6C9.65002 14.1219 9.51722 13.6236 9.34638 13.1965C9.17393 12.7653 8.9393 12.3485 8.68568 12.0315C8.6724 12.0149 8.65842 11.9989 8.64377 11.9835L6.83469 10.0792Z" fill="#595854"/>
</svg>
