<svg width="24" height="24" viewBox="0 0 24 24" fill="none" xmlns="http://www.w3.org/2000/svg">
<path fill-rule="evenodd" clip-rule="evenodd" d="M3.09467 3.09467C4.42914 1.7602 6.42603 1.25 9 1.25H15C17.574 1.25 19.5709 1.7602 20.9053 3.09467C22.2398 4.42914 22.75 6.42603 22.75 9V15C22.75 17.574 22.2398 19.5709 20.9053 20.9053C19.5709 22.2398 17.574 22.75 15 22.75H9C6.42603 22.75 4.42914 22.2398 3.09467 20.9053C1.7602 19.5709 1.25 17.574 1.25 15V9C1.25 6.42603 1.7602 4.42914 3.09467 3.09467ZM4.15533 4.15533C3.2398 5.07086 2.75 6.57397 2.75 9V15C2.75 17.426 3.2398 18.9291 4.15533 19.8447C5.07086 20.7602 6.57397 21.25 9 21.25H15C17.426 21.25 18.9291 20.7602 19.8447 19.8447C20.7602 18.9291 21.25 17.426 21.25 15V9C21.25 6.57397 20.7602 5.07086 19.8447 4.15533C18.9291 3.2398 17.426 2.75 15 2.75H9C6.57397 2.75 5.07086 3.2398 4.15533 4.15533ZM5.21967 5.21967C5.90993 4.52941 6.88439 4.25 8 4.25H16C17.1156 4.25 18.0901 4.52941 18.7803 5.21967C19.4706 5.90993 19.75 6.88439 19.75 8V16C19.75 17.1156 19.4706 18.0901 18.7803 18.7803C18.0901 19.4706 17.1156 19.75 16 19.75H8C6.88439 19.75 5.90993 19.4706 5.21967 18.7803C4.52941 18.0901 4.25 17.1156 4.25 16V8C4.25 6.88439 4.52941 5.90993 5.21967 5.21967ZM5.75 10.25V13.75H7.48C8.44578 13.75 9.23 12.9658 9.23 12C9.23 11.0342 8.44578 10.25 7.48 10.25H5.75ZM5.75 15.25H7.48C9.27421 15.25 10.73 13.7942 10.73 12C10.73 10.2058 9.27421 8.75 7.48 8.75H5.75V8C5.75 7.11561 5.97059 6.59007 6.28033 6.28033C6.59007 5.97059 7.11561 5.75 8 5.75H16C16.8844 5.75 17.4099 5.97059 17.7197 6.28033C18.0294 6.59007 18.25 7.11561 18.25 8V9.23999H16C15.5858 9.23999 15.25 9.57578 15.25 9.98999C15.25 10.4042 15.5858 10.74 16 10.74H18.25V13.25H16C15.5858 13.25 15.25 13.5858 15.25 14C15.25 14.4142 15.5858 14.75 16 14.75H18.25V16C18.25 16.8844 18.0294 17.4099 17.7197 17.7197C17.4099 18.0294 16.8844 18.25 16 18.25H8C7.11561 18.25 6.59007 18.0294 6.28033 17.7197C5.97059 17.4099 5.75 16.8844 5.75 16V15.25ZM6.4502 12C6.4502 11.5858 6.78598 11.25 7.2002 11.25H7.3002C7.71441 11.25 8.0502 11.5858 8.0502 12C8.0502 12.4142 7.71441 12.75 7.3002 12.75H7.2002C6.78598 12.75 6.4502 12.4142 6.4502 12Z" fill="#595854"/>
</svg>
