<svg width="24" height="24" viewBox="0 0 24 24" fill="none" xmlns="http://www.w3.org/2000/svg">
<path fill-rule="evenodd" clip-rule="evenodd" d="M4.21967 2.21967C4.90993 1.52941 5.88439 1.25 7 1.25H13C14.1156 1.25 15.0901 1.52941 15.7803 2.21967C16.3109 2.75021 16.5987 3.44863 16.7035 4.25H17C18.5064 4.25 19.6118 4.4824 20.225 5.3C20.5231 5.69744 20.6426 6.15652 20.6973 6.59447C20.7501 7.01623 20.75 7.4934 20.75 7.96862V10.0314C20.75 10.5066 20.7501 10.9838 20.6973 11.4055C20.6426 11.8435 20.5231 12.3026 20.225 12.7C19.6118 13.5176 18.5064 13.75 17 13.75H13C11.5704 13.75 11.1502 14.0751 10.992 14.304C10.8976 14.4404 10.829 14.6333 10.7906 14.928C10.7769 15.0327 10.7678 15.1425 10.7618 15.259C11.5575 15.3154 12.1303 15.6344 12.4556 16.1766C12.7523 16.6711 12.7507 17.2278 12.7501 17.4696C12.75 17.4803 12.75 17.4905 12.75 17.5V20.5C12.75 20.5095 12.75 20.5197 12.7501 20.5304C12.7507 20.7722 12.7523 21.3289 12.4556 21.8234C12.0956 22.4234 11.4326 22.75 10.5 22.75H9.5C8.56736 22.75 7.90438 22.4234 7.54438 21.8234C7.24771 21.3289 7.24927 20.7722 7.24994 20.5304C7.24997 20.5197 7.25 20.5095 7.25 20.5V17.5C7.25 17.4905 7.24997 17.4803 7.24994 17.4696C7.24927 17.2278 7.24771 16.6711 7.54438 16.1766C7.87274 15.6294 8.45316 15.3095 9.26035 15.2575C9.26787 15.0813 9.28083 14.9051 9.30319 14.7339C9.35846 14.3105 9.47735 13.8571 9.75805 13.451C10.3498 12.5949 11.4296 12.25 13 12.25H17C18.4936 12.25 18.8882 11.9824 19.025 11.8C19.1019 11.6974 19.1699 11.5315 19.2089 11.2195C19.2488 10.9005 19.25 10.5144 19.25 10V8C19.25 7.48556 19.2488 7.09949 19.2089 6.78053C19.1699 6.46848 19.1019 6.30256 19.025 6.2C18.8882 6.0176 18.4936 5.75 17 5.75H16.7035C16.5987 6.55137 16.3109 7.24979 15.7803 7.78033C15.0901 8.47059 14.1156 8.75 13 8.75H7C5.88439 8.75 4.90993 8.47059 4.21967 7.78033C3.52941 7.09007 3.25 6.11561 3.25 5C3.25 3.88439 3.52941 2.90993 4.21967 2.21967ZM9.5 16.75C9.20535 16.75 9.04205 16.7994 8.95817 16.8398C8.88311 16.876 8.8513 16.9139 8.83062 16.9484C8.76553 17.0569 8.75 17.2224 8.75 17.5V20.5C8.75 20.7776 8.76553 20.9431 8.83062 21.0516C8.8513 21.0861 8.88311 21.124 8.95817 21.1602C9.04205 21.2006 9.20535 21.25 9.5 21.25H10.5C10.7947 21.25 10.958 21.2006 11.0418 21.1602C11.1169 21.124 11.1487 21.0861 11.1694 21.0516C11.2345 20.9431 11.25 20.7776 11.25 20.5V17.5C11.25 17.2224 11.2345 17.0569 11.1694 16.9484C11.1487 16.9139 11.1169 16.876 11.0418 16.8398C10.958 16.7994 10.7947 16.75 10.5 16.75H9.5ZM5.28033 3.28033C4.97059 3.59007 4.75 4.11561 4.75 5C4.75 5.88439 4.97059 6.40993 5.28033 6.71967C5.57527 7.01461 6.06588 7.22872 6.87567 7.2485C6.37478 5.7533 6.37478 4.2467 6.87567 2.7515C6.06588 2.77128 5.57527 2.98539 5.28033 3.28033ZM8.55777 7.25H11.4422C11.8359 5.77444 11.8359 4.22556 11.4422 2.75H8.55777C8.16408 4.22556 8.16408 5.77444 8.55777 7.25ZM13.1243 2.7515C13.6252 4.2467 13.6252 5.7533 13.1243 7.2485C13.9341 7.22871 14.4247 7.01461 14.7197 6.71967C15.0294 6.40993 15.25 5.88439 15.25 5C15.25 4.11561 15.0294 3.59007 14.7197 3.28033C14.4247 2.98539 13.9341 2.77128 13.1243 2.7515Z" fill="#595854"/>
</svg>
