<svg width="24" height="24" viewBox="0 0 24 24" fill="none" xmlns="http://www.w3.org/2000/svg">
<path fill-rule="evenodd" clip-rule="evenodd" d="M5.5983 0.25C6.01252 0.25 6.3483 0.585786 6.3483 1V8.73028C6.3483 9.14449 6.01252 9.48028 5.5983 9.48028C5.18409 9.48028 4.8483 9.14449 4.8483 8.73028V1C4.8483 0.585786 5.18409 0.25 5.5983 0.25ZM12 0.25C12.4142 0.25 12.75 0.585786 12.75 1V3.20865C12.75 3.62286 12.4142 3.95865 12 3.95865C11.5858 3.95865 11.25 3.62286 11.25 3.20865V1C11.25 0.585786 11.5858 0.25 12 0.25ZM18.4017 0.25C18.8159 0.25 19.1517 0.585786 19.1517 1V8.73028C19.1517 9.14449 18.8159 9.48028 18.4017 9.48028C17.9875 9.48028 17.6517 9.14449 17.6517 8.73028V1C17.6517 0.585786 17.9875 0.25 18.4017 0.25ZM12 7.31305C11.9254 7.31305 11.6187 7.38487 11.2892 8.07182L11.2883 8.07367L9.87992 10.9891C9.71858 11.3231 9.4513 11.6054 9.18075 11.8109C8.91048 12.0162 8.56831 12.1968 8.2073 12.2622L8.20164 12.2632L5.65162 12.7049L5.64867 12.7054C4.97469 12.8194 4.80099 13.0827 4.76602 13.1951C4.72836 13.3161 4.72719 13.6513 5.22012 14.1615L7.21289 16.2241C7.48098 16.5105 7.6603 16.8847 7.75966 17.2401C7.85877 17.5946 7.90084 18.0114 7.81339 18.4018C7.8133 18.4022 7.81322 18.4026 7.81313 18.4029L7.24808 20.9518C7.03691 21.899 7.26734 22.1798 7.30873 22.2111C7.33205 22.2288 7.62707 22.3841 8.4285 21.8949C8.42886 21.8947 8.42921 21.8945 8.42956 21.8943L10.8178 20.4266L10.8218 20.4241C11.1834 20.2051 11.6111 20.1168 12 20.1168C12.3889 20.1168 12.8165 20.2051 13.1782 20.4241L13.1822 20.4266L15.5704 21.8943C15.5708 21.8945 15.5711 21.8947 15.5715 21.8949C16.3729 22.3841 16.6679 22.2288 16.6913 22.2111C16.7326 22.1798 16.9633 21.8999 16.7521 20.9527L16.1861 18.3994C16.0999 18.0069 16.1405 17.5889 16.2403 17.2318C16.3398 16.8761 16.5207 16.4998 16.7954 16.2155L18.7799 14.1615C19.2739 13.6501 19.2711 13.3181 19.2342 13.1998C19.1992 13.0879 19.0245 12.8241 18.3475 12.7048C18.3471 12.7047 18.3468 12.7047 18.3465 12.7046L15.8039 12.2642C15.4316 12.2046 15.0847 12.0184 14.8167 11.8131C14.545 11.6049 14.28 11.3201 14.1201 10.9891L12.7117 8.07367L12.7108 8.07182C12.3813 7.38487 12.0746 7.31305 12 7.31305ZM14.0629 7.4223C13.6348 6.53041 12.9334 5.81305 12 5.81305C11.0667 5.81305 10.3652 6.53033 9.93719 7.42214C9.93704 7.42245 9.9369 7.42275 9.93675 7.42305L8.52926 10.3366C8.49856 10.4002 8.41375 10.5099 8.27352 10.6164C8.13435 10.7221 8.00814 10.7733 7.94184 10.7859L5.39854 11.2265C5.39806 11.2265 5.39758 11.2266 5.3971 11.2267C4.43925 11.389 3.60539 11.8766 3.33377 12.7494C3.06469 13.614 3.46064 14.4992 4.14136 15.2037L6.12061 17.2523C6.18287 17.3204 6.26318 17.4584 6.31505 17.644C6.3679 17.833 6.36852 17.99 6.34962 18.0741L6.34915 18.0762L5.78383 20.6263C5.78387 20.6261 5.7838 20.6265 5.78383 20.6263C5.54703 21.6889 5.6098 22.8062 6.40318 23.407C7.21473 24.0215 8.29584 23.7336 9.21139 23.1744L9.21316 23.1733L11.5991 21.7071C11.5996 21.7068 11.6 21.7065 11.6005 21.7062C11.6767 21.6606 11.8192 21.6168 12 21.6168C12.1808 21.6168 12.3233 21.6606 12.3995 21.7062C12.4 21.7065 12.4004 21.7068 12.4009 21.7071L14.7868 23.1733L14.7886 23.1744C15.7042 23.7336 16.7853 24.0215 17.5968 23.407C18.3902 22.8061 18.4531 21.6892 18.2162 20.6266C18.2162 20.6267 18.2162 20.6265 18.2162 20.6266L17.6512 18.0777C17.6512 18.0778 17.6511 18.0775 17.6512 18.0777C17.6308 17.9842 17.6328 17.8222 17.6849 17.6357C17.7375 17.4475 17.8181 17.3158 17.8741 17.2578L19.8586 15.2037C20.5382 14.5003 20.9359 13.6176 20.666 12.753C20.3943 11.8821 19.5608 11.3952 18.6063 11.2273L16.0544 10.7852L16.0414 10.7831C15.9897 10.7751 15.87 10.7305 15.729 10.6224C15.59 10.5159 15.5029 10.4031 15.4707 10.3366L14.0629 7.4223C14.063 7.42255 14.0628 7.42204 14.0629 7.4223Z" fill="#595854"/>
</svg>
