<svg width="24" height="24" viewBox="0 0 24 24" fill="none" xmlns="http://www.w3.org/2000/svg">
<path fill-rule="evenodd" clip-rule="evenodd" d="M3.45033 5.03035C3.01546 5.46522 2.75 6.25102 2.75 7.79002V16.21C2.75 17.1542 2.98641 18.0146 3.49609 18.626C3.98571 19.2134 4.8096 19.67 6.21 19.67H12.53C14.0633 19.67 14.8499 19.4048 15.2864 18.9692C15.7226 18.5339 15.99 17.7476 15.99 16.21V7.79002C15.99 6.25102 15.7245 5.46522 15.2897 5.03035C14.8548 4.59547 14.069 4.33002 12.53 4.33002H6.21C4.671 4.33002 3.8852 4.59547 3.45033 5.03035ZM17.4847 7.40156C17.4438 5.95788 17.1591 4.77842 16.3503 3.96969C15.4702 3.08956 14.151 2.83002 12.53 2.83002H6.21C4.589 2.83002 3.2698 3.08956 2.38967 3.96969C1.50954 4.84981 1.25 6.16902 1.25 7.79002V16.21C1.25 17.3758 1.53859 18.6204 2.34391 19.5865C3.16929 20.5766 4.4504 21.17 6.21 21.17H12.53C14.1467 21.17 15.4651 20.9102 16.3461 20.0308C17.1578 19.2206 17.4447 18.038 17.4849 16.5886L19.0875 17.7127C19.0878 17.7129 19.0881 17.7131 19.0884 17.7134C19.878 18.2705 20.8098 18.5255 21.6157 18.1068C22.4215 17.6883 22.75 16.7788 22.75 15.81V8.19002C22.75 7.22055 22.4212 6.31257 21.6172 5.89271C20.813 5.47277 19.8814 5.72272 19.0905 6.27517L19.0893 6.27601L17.4847 7.40156ZM17.49 9.23005V14.76L19.9507 16.486L19.9525 16.4873C20.5227 16.8897 20.8305 16.8244 20.9243 16.7757C21.0185 16.7267 21.25 16.5112 21.25 15.81V8.19002C21.25 7.48948 21.0188 7.27247 20.9228 7.22232C20.827 7.17228 20.5188 7.10736 19.9501 7.50445C19.9499 7.50459 19.9503 7.50432 19.9501 7.50445L17.49 9.23005ZM11.5 8.75002C11.0858 8.75002 10.75 9.0858 10.75 9.50002C10.75 9.91423 11.0858 10.25 11.5 10.25C11.9142 10.25 12.25 9.91423 12.25 9.50002C12.25 9.0858 11.9142 8.75002 11.5 8.75002ZM9.25 9.50002C9.25 8.25738 10.2574 7.25002 11.5 7.25002C12.7426 7.25002 13.75 8.25738 13.75 9.50002C13.75 10.7427 12.7426 11.75 11.5 11.75C10.2574 11.75 9.25 10.7427 9.25 9.50002Z" fill="#595854"/>
</svg>
