<svg width="24" height="24" viewBox="0 0 24 24" fill="none" xmlns="http://www.w3.org/2000/svg">
<path fill-rule="evenodd" clip-rule="evenodd" d="M3.05014 12C3.05014 7.09175 6.97997 3.04999 12.0001 3.04999C13.7273 3.04999 15.3655 3.48262 16.7932 4.36124C17.146 4.57833 17.256 5.04029 17.0389 5.39306C16.8218 5.74583 16.3598 5.85582 16.0071 5.63873C14.8348 4.91735 13.473 4.54999 12.0001 4.54999C7.82031 4.54999 4.55014 7.90822 4.55014 12C4.55014 12.5967 4.61044 13.1257 4.73026 13.6425L21.6387 4.34283C22.0016 4.14321 22.4577 4.27561 22.6573 4.63855C22.8569 5.00149 22.7245 5.45753 22.3616 5.65715L2.36158 16.6571C1.99864 16.8568 1.54259 16.7244 1.34298 16.3614C1.14336 15.9985 1.27576 15.5424 1.6387 15.3428L3.37398 14.3884C3.15762 13.6253 3.05014 12.8609 3.05014 12ZM22.6573 8.13855C22.8569 8.50149 22.7245 8.95753 22.3616 9.15715L20.7461 10.0457C20.8819 10.7287 20.9501 11.4137 20.9501 12.1C20.9501 17.0082 17.0203 21.05 12.0001 21.05C10.241 21.05 8.60667 20.5 7.20707 19.6387C6.8543 19.4216 6.74431 18.9597 6.9614 18.6069C7.17848 18.2541 7.64044 18.1442 7.99321 18.3612C9.19361 19.0999 10.5593 19.55 12.0001 19.55C16.18 19.55 19.4501 16.1918 19.4501 12.1C19.4501 11.6708 19.4189 11.241 19.3562 10.8101L2.36158 20.1572C1.99864 20.3568 1.54259 20.2244 1.34298 19.8614C1.14336 19.4985 1.27576 19.0424 1.6387 18.8428L21.6387 7.84283C22.0016 7.64321 22.4577 7.77561 22.6573 8.13855Z" fill="#595854"/>
</svg>
