<svg width="24" height="24" viewBox="0 0 24 24" fill="none" xmlns="http://www.w3.org/2000/svg">
<path fill-rule="evenodd" clip-rule="evenodd" d="M19.8331 2.13268C19.8334 2.13312 19.8337 2.13357 19.834 2.13402L21.6506 4.83894C21.6509 4.83944 21.6512 4.83994 21.6516 4.84044C22.2642 5.74503 22.022 6.99265 21.107 7.60345C21.1066 7.60367 21.1063 7.60389 21.106 7.6041L15.4472 11.3932C15.1594 11.586 14.7864 11.5531 14.5372 11.3357L12.9219 12.4176L17.1231 21.6905C17.294 22.0678 17.1268 22.5123 16.7495 22.6832C16.3722 22.8542 15.9277 22.6869 15.7568 22.3096L12.021 14.0639L8.24179 22.3125C8.06926 22.689 7.62413 22.8544 7.24755 22.6819C6.87098 22.5094 6.70558 22.0642 6.87811 21.6877L10.3313 14.1507C10.1744 14.2414 9.98937 14.2724 9.8105 14.2371C9.7759 14.2302 9.74203 14.221 9.70911 14.2095L6.23968 16.5283C5.44739 17.045 4.36303 16.85 3.82689 16.0476C3.82657 16.0471 3.82624 16.0466 3.82591 16.0461L2.698 14.3692C2.15758 13.5667 2.36662 12.4801 3.17081 11.9381L3.1732 11.9365L6.64897 9.61347C6.66829 9.39527 6.78258 9.18741 6.97876 9.05602L11.1319 6.27441C11.0799 6.14205 11.0662 5.99649 11.0942 5.85478C11.1327 5.65953 11.2473 5.4876 11.4127 5.37687L17.0688 1.58944C17.0695 1.58897 17.0702 1.58849 17.0709 1.58802C17.9753 0.975986 19.2223 1.21813 19.8331 2.13268ZM11.9531 7.5298L8.43662 9.88496L10.1618 12.4608L13.6802 10.1043L11.9531 7.5298ZM15.2479 9.72147L20.2727 6.35687L20.2739 6.35603C20.4976 6.20693 20.5552 5.89616 20.4093 5.68119L20.4073 5.67821L18.5873 2.96818L18.5859 2.96607C18.4368 2.74242 18.126 2.68478 17.9111 2.83065L17.9073 2.83325L12.8863 6.19534L15.2479 9.72147ZM7.33415 10.9597L4.00909 13.182C4.00882 13.1822 4.00936 13.1818 4.00909 13.182C3.89413 13.2601 3.86298 13.4138 3.9419 13.5309L5.07399 15.214C5.13779 15.3097 5.29107 15.3542 5.41783 15.2734L8.73866 13.0539L7.33415 10.9597Z" fill="#595854"/>
</svg>
