<svg width="24" height="24" viewBox="0 0 24 24" fill="none" xmlns="http://www.w3.org/2000/svg">
<path fill-rule="evenodd" clip-rule="evenodd" d="M1.14954 4.62672C1.28326 4.3937 1.53139 4.25 1.80005 4.25H5.30005C5.571 4.25 5.82089 4.39615 5.95373 4.6323L8.65373 9.4323C8.78449 9.66477 8.78196 9.94919 8.64707 10.1793L6.94707 13.0793C6.81237 13.3091 6.5659 13.4502 6.29955 13.45C6.03319 13.4498 5.78691 13.3084 5.65252 13.0784L1.15252 5.37843C1.01696 5.14648 1.01583 4.85973 1.14954 4.62672ZM3.10705 5.75L6.30104 11.2153L7.1352 9.79229L4.86141 5.75H3.10705ZM8.35094 4.6243C8.48502 4.39264 8.73239 4.25 9.00005 4.25H12.5C12.7686 4.25 13.0166 4.39356 13.1504 4.62641L15.8504 9.32641C15.9817 9.55505 15.9834 9.83587 15.8547 10.066L10.6547 19.366C10.5247 19.5984 10.2813 19.7445 10.0151 19.7499C9.74883 19.7552 9.49974 19.6189 9.3606 19.3919L7.4606 16.2919C7.31655 16.0569 7.31304 15.7618 7.45146 15.5234L10.8339 9.69799L8.34972 5.37359C8.21639 5.1415 8.21686 4.85595 8.35094 4.6243ZM10.2958 5.75L12.3504 9.32641C12.4839 9.55882 12.4832 9.84481 12.3486 10.0766L8.97334 15.8896L9.97036 17.5163L14.338 9.705L12.066 5.75H10.2958ZM15.3509 4.6243C15.485 4.39264 15.7324 4.25 16 4.25H19.5C19.7686 4.25 20.0166 4.39356 20.1504 4.62641L22.8504 9.32641C22.9817 9.55505 22.9834 9.83587 22.8547 10.066L17.6547 19.366C17.5247 19.5984 17.2813 19.7445 17.0151 19.7499C16.7488 19.7552 16.4997 19.6189 16.3606 19.3919L14.4606 16.2919C14.3165 16.0569 14.313 15.7618 14.4515 15.5234L17.834 9.69799L15.3497 5.37359C15.2164 5.1415 15.2169 4.85595 15.3509 4.6243ZM17.2958 5.75L19.3504 9.32641C19.4839 9.55882 19.4832 9.84481 19.3486 10.0766L15.9733 15.8896L16.9704 17.5163L21.338 9.705L19.066 5.75H17.2958Z" fill="#595854"/>
</svg>
