<svg width="24" height="24" viewBox="0 0 24 24" fill="none" xmlns="http://www.w3.org/2000/svg">
<path fill-rule="evenodd" clip-rule="evenodd" d="M8.00002 1.25C8.41424 1.25 8.75002 1.58579 8.75002 2V2.81105L15.25 2.68105V2C15.25 1.58579 15.5858 1.25 16 1.25C16.4142 1.25 16.75 1.58579 16.75 2V2.73517C18.098 2.88471 19.2692 3.28804 20.1374 4.21474C21.183 5.3309 21.6387 7.048 21.6899 9.45405L21.8199 15.6242L21.8199 15.6254C21.8601 17.6953 21.6594 19.4936 20.6215 20.7675C19.5571 22.0737 17.7856 22.6333 15.2165 22.6898L9.21502 22.8098C6.64505 22.8612 4.85067 22.3732 3.7334 21.1108C2.64379 19.8797 2.37049 18.0913 2.33019 16.0258C2.33018 16.0254 2.33017 16.025 2.33017 16.0246L2.19019 9.84595C2.13898 7.43887 2.52503 5.70386 3.52489 4.54605C4.43725 3.48957 5.74078 3.05065 7.25002 2.8793V2C7.25002 1.58579 7.58581 1.25 8.00002 1.25ZM7.25002 4.39039C6.00712 4.553 5.19411 4.90814 4.66016 5.52645C4.03006 6.25609 3.64112 7.52096 3.68984 9.81357C3.68984 9.81341 3.68985 9.81373 3.68984 9.81357L3.82989 15.9954C3.86967 18.0394 4.15647 19.3256 4.85665 20.1167C5.52938 20.8768 6.755 21.3587 9.18503 21.3102L15.1835 21.1902C15.1834 21.1902 15.1836 21.1902 15.1835 21.1902C17.6143 21.1367 18.818 20.6062 19.4586 19.82C20.1255 19.0015 20.3599 17.7051 20.3202 15.6553C20.3202 15.6551 20.3202 15.6556 20.3202 15.6553L20.1902 9.48595C20.1902 9.4859 20.1902 9.48601 20.1902 9.48595C20.1414 7.1921 19.702 5.94409 19.0427 5.24026C18.5372 4.70072 17.812 4.38539 16.75 4.24602V5C16.75 5.41421 16.4142 5.75 16 5.75C15.5858 5.75 15.25 5.41421 15.25 5V4.18135L8.75002 4.31135V5C8.75002 5.41421 8.41424 5.75 8.00002 5.75C7.58581 5.75 7.25002 5.41421 7.25002 5V4.39039ZM9.56002 12.25C9.97424 12.25 10.31 12.5858 10.31 13V14.75H12C12.4142 14.75 12.75 15.0858 12.75 15.5C12.75 15.9142 12.4142 16.25 12 16.25H10.31V18C10.31 18.4142 9.97424 18.75 9.56002 18.75C9.14581 18.75 8.81002 18.4142 8.81002 18V16.25H7.00002C6.58581 16.25 6.25002 15.9142 6.25002 15.5C6.25002 15.0858 6.58581 14.75 7.00002 14.75H8.81002V13C8.81002 12.5858 9.14581 12.25 9.56002 12.25Z" fill="#595854"/>
</svg>
