<svg width="24" height="24" viewBox="0 0 24 24" fill="none" xmlns="http://www.w3.org/2000/svg">
<path fill-rule="evenodd" clip-rule="evenodd" d="M10.5511 3.55098C10.5507 3.55141 10.5502 3.55184 10.5498 3.55227L7.86038 6.24998H16.8232C16.6906 5.91444 16.4853 5.60008 16.2053 5.32445L16.198 5.31732L14.4507 3.54994C13.3734 2.48301 11.628 2.48335 10.5511 3.55098ZM6.24108 5.74968L9.49026 2.49049L9.49302 2.48773C11.1555 0.837423 13.8473 0.837423 15.5098 2.48773L15.5148 2.49266L17.2613 4.25921C17.8776 4.86736 18.2673 5.61107 18.4251 6.40091C19.629 6.65552 20.6561 7.246 21.4103 8.12C22.2833 9.13163 22.75 10.4753 22.75 12V17C22.75 18.6704 22.1899 20.1207 21.1553 21.1553C20.1207 22.1899 18.6704 22.75 17 22.75H7.91307C7.11185 23.376 6.10105 23.75 5 23.75C3.26805 23.75 1.75939 22.8246 0.9385 21.4486C0.498311 20.7327 0.25 19.8885 0.25 19C0.25 17.9004 0.623242 16.8883 1.25 16.0835V12C1.25 10.4871 1.70803 9.15239 2.56795 8.14349C3.35439 7.22081 4.44341 6.61048 5.72476 6.37343C5.8757 6.14657 6.05216 5.93865 6.24108 5.74968C6.24123 5.74953 6.24093 5.74983 6.24108 5.74968ZM6.27017 7.80584C5.16914 7.9469 4.30321 8.41999 3.70954 9.11651C3.11197 9.81761 2.75 10.7929 2.75 12V14.8153C3.40276 14.4637 4.1473 14.2604 4.93859 14.2504C4.95903 14.2501 4.9795 14.25 5 14.25C7.62421 14.25 9.75 16.3758 9.75 19C9.75 19.8077 9.54483 20.5787 9.17688 21.25H17C18.3296 21.25 19.3793 20.8101 20.0947 20.0947C20.7646 19.4247 21.193 18.4616 21.2447 17.25H19C17.4858 17.25 16.25 16.0142 16.25 14.5C16.25 12.9858 17.4858 11.75 19 11.75H21.2447C21.1976 10.6496 20.8395 9.75448 20.2747 9.09999C19.6691 8.39822 18.7851 7.92541 17.6634 7.79497C17.6511 7.79354 17.6389 7.79181 17.6267 7.78978C17.4468 7.7598 17.2446 7.75 17 7.75H7C6.97543 7.75 6.95099 7.75018 6.92667 7.75053C6.70975 7.75373 6.50283 7.77089 6.30545 7.80126C6.29369 7.80307 6.28193 7.80459 6.27017 7.80584ZM21.25 13.25H19C18.3142 13.25 17.75 13.8142 17.75 14.5C17.75 15.1858 18.3142 15.75 19 15.75H21.25V13.25ZM7.42661 21.1559C7.55707 21.0076 7.67396 20.8471 7.77541 20.6766L7.78154 20.6663C8.0794 20.1833 8.25 19.6094 8.25 19C8.25 17.2042 6.79579 15.75 5 15.75C4.96236 15.75 4.92486 15.7506 4.88753 15.7519C3.95973 15.7835 3.13512 16.205 2.56317 16.8553C2.547 16.8737 2.53008 16.8911 2.51247 16.9076C2.03661 17.4729 1.75 18.2028 1.75 19C1.75 19.6094 1.92052 20.1833 2.21838 20.6663L2.22467 20.6765C2.78448 21.6177 3.81412 22.25 5 22.25C5.78691 22.25 6.50506 21.9716 7.06278 21.5093C7.08864 21.4794 7.11709 21.4513 7.14804 21.4254C7.24598 21.3432 7.33923 21.253 7.42661 21.1559ZM7.11202 17.5103C7.39327 17.8144 7.37475 18.2889 7.07065 18.5701L4.94065 20.5401C4.64491 20.8136 4.18593 20.8047 3.90108 20.5198L2.91108 19.5298C2.61818 19.237 2.61818 18.7621 2.91107 18.4692C3.20396 18.1763 3.67884 18.1763 3.97173 18.4692L4.4517 18.9491L6.05217 17.4689C6.35626 17.1877 6.83077 17.2062 7.11202 17.5103Z" fill="#595854"/>
</svg>
