<svg width="24" height="24" viewBox="0 0 24 24" fill="none" xmlns="http://www.w3.org/2000/svg">
<path fill-rule="evenodd" clip-rule="evenodd" d="M12 1.24756C12.605 1.24756 13.2479 1.33158 13.7724 1.52746L18.7626 3.39756C18.7626 3.39754 18.7627 3.39758 18.7626 3.39756C19.5096 3.6769 20.1463 4.23765 20.593 4.88337C21.0398 5.52922 21.34 6.32273 21.34 7.12006V10.5501C21.34 10.9643 21.0042 11.3001 20.59 11.3001C20.1758 11.3001 19.84 10.9643 19.84 10.5501V7.12006C19.84 6.68739 19.6701 6.1859 19.3594 5.73675C19.0486 5.2875 18.6403 4.95324 18.2373 4.80256L13.2476 2.93265C13.2475 2.93262 13.2477 2.93269 13.2476 2.93265C12.942 2.8186 12.4898 2.74756 12 2.74756C11.5105 2.74756 11.0589 2.81839 10.7533 2.93229C10.753 2.93241 10.7527 2.93253 10.7524 2.93265L5.76265 4.81256C5.35955 4.96328 4.951 5.29771 4.64006 5.74616C4.32903 6.19474 4.15997 6.6935 4.15997 7.12006V14.5501C4.15997 14.9911 4.31108 15.5573 4.58874 16.1093C4.86618 16.6609 5.23173 17.1222 5.58863 17.3891M5.58863 17.3891L9.89813 20.6061C10.4401 21.0243 11.1984 21.2501 12 21.2501C12.4142 21.2501 12.75 21.5858 12.75 22.0001C12.75 22.4143 12.4142 22.7501 12 22.7501C10.9436 22.7501 9.84418 22.4569 8.98689 21.7978L4.69132 18.5911C4.09832 18.1479 3.59868 17.4791 3.24871 16.7833C2.89887 16.0878 2.65997 15.289 2.65997 14.5501V7.12006C2.65997 6.32661 2.96092 5.53537 3.40738 4.89146C3.85376 4.24768 4.48986 3.68731 5.23635 3.40792C5.23667 3.4078 5.23698 3.40768 5.2373 3.40756L10.2256 1.52822L10.2276 1.52746C10.752 1.33158 11.3949 1.24756 12 1.24756M16 12.7501C14.205 12.7501 12.75 14.2051 12.75 16.0001C12.75 17.795 14.205 19.2501 16 19.2501C17.7949 19.2501 19.25 17.795 19.25 16.0001C19.25 14.2051 17.7949 12.7501 16 12.7501ZM11.25 16.0001C11.25 13.3767 13.3766 11.2501 16 11.2501C18.6233 11.2501 20.75 13.3767 20.75 16.0001C20.75 18.6234 18.6233 20.7501 16 20.7501C13.3766 20.7501 11.25 18.6234 11.25 16.0001ZM20.2455 21.0001C20.2455 20.5858 20.5813 20.2501 20.9955 20.2501H21.0045C21.4187 20.2501 21.7545 20.5858 21.7545 21.0001C21.7545 21.4143 21.4187 21.7501 21.0045 21.7501H20.9955C20.5813 21.7501 20.2455 21.4143 20.2455 21.0001Z" fill="#595854"/>
</svg>
