<svg width="24" height="24" viewBox="0 0 24 24" fill="none" xmlns="http://www.w3.org/2000/svg">
<path fill-rule="evenodd" clip-rule="evenodd" d="M4.30711 1.71299C4.4232 1.43273 4.69668 1.25 5.00002 1.25H19C19.4142 1.25 19.75 1.58579 19.75 2V9C19.75 9.41421 19.4142 9.75 19 9.75H13.8107L19.5304 15.4697C19.7449 15.6842 19.809 16.0068 19.6929 16.287C19.5768 16.5673 19.3034 16.75 19 16.75H12.75V22C12.75 22.2929 12.5795 22.559 12.3134 22.6814C12.0473 22.8038 11.7343 22.7601 11.5119 22.5694L4.51193 16.5694C4.34569 16.427 4.25002 16.2189 4.25002 16V9C4.25002 8.58579 4.58581 8.25 5.00002 8.25H10.1894L4.46969 2.53033C4.25519 2.31583 4.19103 1.99324 4.30711 1.71299ZM12.3107 8.25H18.25V2.75H6.81068L12.3107 8.25ZM11.6894 9.75H5.75002V15.25H17.1894L11.6894 9.75ZM7.02747 16.75L11.25 20.3693V16.75H7.02747Z" fill="#595854"/>
</svg>
