<svg width="24" height="24" viewBox="0 0 24 24" fill="none" xmlns="http://www.w3.org/2000/svg">
<path fill-rule="evenodd" clip-rule="evenodd" d="M3.72903 4.64229C2.99162 5.378 2.53488 6.46244 2.53488 7.83692V13.9625C2.53488 15.337 2.99162 16.4214 3.72903 17.1571C4.46348 17.8899 5.53379 18.3347 6.88372 18.3347C7.30757 18.3347 7.65116 18.6626 7.65116 19.0671V21.2416C7.65116 21.3748 7.71927 21.4589 7.79693 21.5002C7.87274 21.5405 7.95219 21.5405 8.03091 21.4881L8.03158 21.4877L12.5851 18.4658C12.7137 18.3805 12.8666 18.3347 13.0233 18.3347H17.1163C18.4662 18.3347 19.5365 17.8899 20.271 17.1571C21.0084 16.4214 21.4651 15.337 21.4651 13.9625V7.83692C21.4651 6.46244 21.0084 5.378 20.271 4.64229C19.5365 3.90951 18.4662 3.46468 17.1163 3.46468H6.88372C5.53379 3.46468 4.46348 3.90951 3.72903 4.64229ZM2.61981 3.62991C3.67605 2.57609 5.16388 2 6.88372 2H17.1163C18.8361 2 20.324 2.57609 21.3802 3.62991C22.4335 4.6808 23 6.14865 23 7.83692V13.9625C23 15.6507 22.4335 17.1186 21.3802 18.1695C20.324 19.2233 18.8361 19.7994 17.1163 19.7994H13.2639L8.9086 22.6897C7.67551 23.5099 6.11628 22.5924 6.11628 21.2416V19.7598C4.72157 19.6132 3.51551 19.0631 2.61981 18.1695C1.56652 17.1186 1 15.6507 1 13.9625V7.83692C1 6.14865 1.56652 4.6808 2.61981 3.62991ZM9.53398 8.94974C9.53398 7.63715 10.6029 6.52265 12 6.52265C13.3971 6.52265 14.466 7.63715 14.466 8.94974C14.466 9.99213 13.7786 10.5504 13.3072 10.8718C13.1092 11.0083 12.9791 11.1171 12.8935 11.2317C12.8204 11.3295 12.7674 11.4475 12.7674 11.6348V11.8491C12.7674 12.2536 12.4238 12.5814 12 12.5814C11.5762 12.5814 11.2326 12.2536 11.2326 11.8491V11.6348C11.2326 10.568 11.9365 10.0096 12.4104 9.68315L12.4136 9.68091L12.4136 9.68092C12.6021 9.55246 12.728 9.44609 12.8102 9.33539C12.8808 9.24032 12.9311 9.12658 12.9311 8.94974C12.9311 8.38385 12.4857 7.98733 12 7.98733C11.5143 7.98733 11.0689 8.38385 11.0689 8.94974C11.0689 9.3542 10.7253 9.68208 10.3014 9.68208C9.87758 9.68208 9.53398 9.3542 9.53398 8.94974ZM11.228 14.2891C11.228 13.8847 11.5715 13.5568 11.9954 13.5568H12.0046C12.4285 13.5568 12.772 13.8847 12.772 14.2891C12.772 14.6936 12.4285 15.0215 12.0046 15.0215H11.9954C11.5715 15.0215 11.228 14.6936 11.228 14.2891Z" fill="#595854"/>
</svg>
