<svg width="24" height="24" viewBox="0 0 24 24" fill="none" xmlns="http://www.w3.org/2000/svg">
<path fill-rule="evenodd" clip-rule="evenodd" d="M12 2.75C8.31421 2.75 5.25 5.81421 5.25 9.5C5.25 10.6858 5.52346 11.748 6.04312 12.6141C6.25623 12.9693 6.14106 13.43 5.78587 13.6431C5.43069 13.8562 4.96999 13.7411 4.75688 13.3859C4.07654 12.252 3.75 10.9142 3.75 9.5C3.75 4.98579 7.48579 1.25 12 1.25C16.5142 1.25 20.25 4.98579 20.25 9.5C20.25 14.0134 16.5155 17.7487 12.0023 17.75L12.002 17.75L11.9895 17.7503C11.9766 17.7506 11.9545 17.7514 11.9245 17.7531C11.8643 17.7565 11.7726 17.7636 11.6577 17.7783C11.4262 17.8079 11.1093 17.8672 10.7688 17.9843C10.0881 18.2182 9.37683 18.6575 8.99001 19.4946C8.98042 19.519 8.97109 19.5439 8.96202 19.5692L8.74246 21.1061C8.6868 21.4957 8.33943 21.776 7.94683 21.7481C7.55424 21.7202 7.25 21.3936 7.25 21C7.25 20.3551 7.32706 19.7585 7.49634 19.2223L9.25754 6.89393C9.31612 6.48388 9.69602 6.19896 10.1061 6.25754C10.5161 6.31612 10.801 6.69602 10.7425 7.10607L9.32868 17.0026C9.65233 16.8111 9.97872 16.6697 10.2812 16.5657C10.7407 16.4078 11.1613 16.3296 11.4673 16.2904C11.6212 16.2708 11.7482 16.2607 11.8396 16.2555C11.8853 16.2529 11.9223 16.2515 11.9493 16.2508L11.9824 16.2501L11.9932 16.25L11.9971 16.25L11.9987 16.25L11.9994 16.25C11.9997 16.25 12 16.25 12 17V16.25C15.6858 16.25 18.75 13.1858 18.75 9.5C18.75 5.81421 15.6858 2.75 12 2.75Z" fill="#595854"/>
</svg>
