<svg width="24" height="24" viewBox="0 0 24 24" fill="none" xmlns="http://www.w3.org/2000/svg">
<path fill-rule="evenodd" clip-rule="evenodd" d="M6.3704 3.32628C6.45084 2.98843 6.75271 2.75 7.10001 2.75H16C18.1613 2.75 19.876 3.43015 21.0462 4.67348C22.2091 5.90914 22.75 7.61147 22.75 9.5V12C22.75 14.6481 21.9536 16.9747 20.354 18.6439C18.7493 20.3184 16.4141 21.25 13.5 21.25H3.90001C3.66834 21.25 3.44967 21.1429 3.30759 20.9599C3.16552 20.7769 3.11599 20.5386 3.1734 20.3141L4.2734 16.0141C4.35832 15.6822 4.65738 15.45 5.00001 15.45H12.4C14.0431 15.45 15.15 14.9526 15.8517 14.2008C16.5618 13.44 16.95 12.319 16.95 10.9V10.7C16.95 9.89522 16.7693 9.36024 16.4689 9.02818C16.1814 8.71052 15.6668 8.45 14.7 8.45H6.10001C5.87053 8.45 5.65369 8.34495 5.51146 8.16487C5.36922 7.9848 5.31725 7.74952 5.3704 7.52628L6.3704 3.32628ZM7.6924 4.25L7.04954 6.95H14.7C15.9332 6.95 16.9186 7.28948 17.5812 8.02181C18.2307 8.73976 18.45 9.70478 18.45 10.7V10.9C18.45 12.581 17.9882 14.11 16.9483 15.2242C15.9001 16.3474 14.3569 16.95 12.4 16.95H5.5823L4.86602 19.75H13.5C16.0859 19.75 18.0007 18.9316 19.271 17.6061C20.5464 16.2753 21.25 14.3519 21.25 12V9.5C21.25 7.88853 20.7909 6.59086 19.9539 5.70152C19.124 4.81985 17.8388 4.25 16 4.25H7.6924ZM1.6716 11.8207C1.95808 10.5683 3.07332 9.75 4.30001 9.75H11.5C11.733 9.75 11.9528 9.8583 12.0947 10.0431C12.2367 10.2278 12.2847 10.4681 12.2247 10.6932L11.8284 12.1793C11.5419 13.4317 10.4267 14.25 9.20001 14.25H2.00001C1.767 14.25 1.54722 14.1417 1.40527 13.9569C1.26331 13.7722 1.21529 13.5319 1.27533 13.3068L1.6716 11.8207ZM4.30001 11.25C3.7321 11.25 3.25175 11.6245 3.13215 12.1627C3.12987 12.1729 3.12738 12.1831 3.12468 12.1932L2.97622 12.75H9.20001C9.76792 12.75 10.2483 12.3755 10.3679 11.8373C10.3701 11.8271 10.3726 11.8169 10.3753 11.8068L10.5238 11.25H4.30001Z" fill="#595854"/>
</svg>
