<svg width="24" height="24" viewBox="0 0 24 24" fill="none" xmlns="http://www.w3.org/2000/svg">
<path fill-rule="evenodd" clip-rule="evenodd" d="M11.9015 2.8492L2.90855 6.44636C2.9087 6.4463 2.90526 6.44767 2.89866 6.45178C2.89207 6.45588 2.8832 6.46217 2.87268 6.47121C2.85102 6.48982 2.82727 6.51589 2.80565 6.54796C2.78403 6.58004 2.76872 6.61192 2.75954 6.63901C2.75079 6.66482 2.75006 6.67884 2.75 6.67995C2.75 6.68003 2.75 6.68 2.75 6.67995L2.75 10C2.75 10.1358 2.86421 10.25 3 10.25H3.99791C3.9986 10.25 3.9993 10.25 4 10.25C4.0007 10.25 4.0014 10.25 4.00209 10.25H7.99791C7.9986 10.25 7.9993 10.25 8 10.25C8.0007 10.25 8.0014 10.25 8.00209 10.25H11.9979C11.9986 10.25 11.9993 10.25 12 10.25C12.0007 10.25 12.0014 10.25 12.0021 10.25H15.9979C15.9986 10.25 15.9993 10.25 16 10.25C16.0007 10.25 16.0014 10.25 16.0021 10.25H19.9979C19.9986 10.25 19.9993 10.25 20 10.25C20.0007 10.25 20.0014 10.25 20.0021 10.25H21C21.1358 10.25 21.25 10.1358 21.25 10V6.68C21.25 6.68004 21.25 6.68007 21.25 6.68C21.2499 6.67889 21.2492 6.66482 21.2405 6.63901C21.2313 6.61192 21.216 6.58004 21.1943 6.54796C21.1727 6.51589 21.149 6.48982 21.1273 6.47121C21.1168 6.46217 21.1079 6.45588 21.1013 6.45178C21.0947 6.44767 21.0913 6.4463 21.0915 6.44636L12.0985 2.8492C12.0957 2.84852 12.0898 2.84723 12.0808 2.84579C12.0598 2.84246 12.0317 2.84003 12 2.84003C11.9683 2.84003 11.9402 2.84246 11.9192 2.84579C11.9102 2.84723 11.9043 2.84852 11.9015 2.8492ZM19.25 11.75H16.75V17.25H19.25V11.75ZM20.75 17.25V11.75H21C21.9642 11.75 22.75 10.9642 22.75 10V6.68C22.75 6.31561 22.6169 5.97468 22.4381 5.70953C22.2592 5.44404 21.9915 5.19085 21.6485 5.05364L12.6485 1.45367C12.4313 1.36678 12.1938 1.34003 12 1.34003C11.8062 1.34003 11.5687 1.36678 11.3515 1.45367L2.35146 5.05364C2.00846 5.19085 1.74082 5.44404 1.56185 5.70953C1.38312 5.97468 1.25 6.31561 1.25 6.68V10C1.25 10.9642 2.03579 11.75 3 11.75H3.25V17.25H3C2.03579 17.25 1.25 18.0358 1.25 19V21.25H1C0.585786 21.25 0.25 21.5858 0.25 22C0.25 22.4142 0.585786 22.75 1 22.75H23C23.4142 22.75 23.75 22.4142 23.75 22C23.75 21.5858 23.4142 21.25 23 21.25H22.75V19C22.75 18.0358 21.9642 17.25 21 17.25H20.75ZM3 18.75C2.86421 18.75 2.75 18.8642 2.75 19V21.25H21.25V19C21.25 18.8642 21.1358 18.75 21 18.75H3ZM4.75 17.25H7.25V11.75H4.75V17.25ZM8.75 11.75V17.25H11.25V11.75H8.75ZM12.75 11.75V17.25H15.25V11.75H12.75ZM12 6.25C11.5858 6.25 11.25 6.58579 11.25 7C11.25 7.41421 11.5858 7.75 12 7.75C12.4142 7.75 12.75 7.41421 12.75 7C12.75 6.58579 12.4142 6.25 12 6.25ZM9.75 7C9.75 5.75736 10.7574 4.75 12 4.75C13.2426 4.75 14.25 5.75736 14.25 7C14.25 8.24264 13.2426 9.25 12 9.25C10.7574 9.25 9.75 8.24264 9.75 7Z" fill="#595854"/>
</svg>
