<svg width="24" height="24" viewBox="0 0 24 24" fill="none" xmlns="http://www.w3.org/2000/svg">
<path fill-rule="evenodd" clip-rule="evenodd" d="M11.52 2.75C11.3842 2.75 11.27 2.86421 11.27 3V3.5505C11.2701 3.55747 11.2701 3.56443 11.27 3.57136V4C11.27 4.13579 11.3842 4.25 11.52 4.25H12.52C12.6558 4.25 12.77 4.13579 12.77 4V3.57177C12.7699 3.56457 12.7699 3.55734 12.77 3.5501V3C12.77 2.86421 12.6558 2.75 12.52 2.75H11.52ZM14.2683 2.9234C14.2281 1.99452 13.4586 1.25 12.52 1.25H11.52C10.5827 1.25 9.81396 1.99258 9.77182 2.91978C6.14713 3.64244 3.35606 6.68219 3.03157 10.4362C2.17949 10.553 1.52 11.2867 1.52 12.17V13.17C1.52 14.1343 2.30579 14.92 3.27 14.92H4.27C5.23422 14.92 6.02 14.1343 6.02 13.17V12.17C6.02 11.297 5.37576 10.5701 4.53808 10.4405C4.847 7.49917 7.00328 5.11012 9.82684 4.44273C10.0237 5.19362 10.7087 5.75 11.52 5.75H12.52C13.3296 5.75 14.0134 5.19605 14.2119 4.44765C17.0163 5.12924 19.1547 7.50981 19.462 10.4405C18.6243 10.5701 17.98 11.297 17.98 12.17V13.17C17.98 14.1343 18.7658 14.92 19.73 14.92H20.73C21.6942 14.92 22.48 14.1343 22.48 13.17V12.17C22.48 11.2867 21.8205 10.5531 20.9685 10.4362C20.6454 6.69281 17.873 3.66215 14.2683 2.9234ZM19.73 11.92C19.5943 11.92 19.48 12.0342 19.48 12.17V13.17C19.48 13.3058 19.5942 13.42 19.73 13.42H20.73C20.8658 13.42 20.98 13.3058 20.98 13.17V12.17C20.98 12.0342 20.8657 11.92 20.73 11.92H19.73ZM3.27 11.92C3.13428 11.92 3.02 12.0342 3.02 12.17V13.17C3.02 13.3058 3.13422 13.42 3.27 13.42H4.27C4.40579 13.42 4.52 13.3058 4.52 13.17V12.17C4.52 12.0342 4.40573 11.92 4.27 11.92H3.27ZM12.015 9.97253C12.6895 9.97253 13.3208 10.2985 13.7685 10.8651L16.8174 14.7337C16.8177 14.7341 16.8181 14.7345 16.8184 14.7349C17.231 15.2549 17.5721 15.8457 17.5093 16.5253C17.4468 17.2015 17.0056 17.7318 16.4879 18.1909C16.4878 18.191 16.488 18.1908 16.4879 18.1909L15.0874 19.4377L15.403 20.831C15.5432 21.4773 15.3721 22.1058 14.9488 22.5647C14.5331 23.0154 13.9259 23.25 13.27 23.25H10.75C9.49447 23.25 8.305 22.188 8.61883 20.823C8.61896 20.8225 8.61908 20.8219 8.61921 20.8213L8.93432 19.4303L7.55202 18.1998C7.00647 17.7491 6.5589 17.2162 6.50479 16.5261C6.45142 15.8456 6.80257 15.2504 7.21169 14.7348C7.21198 14.7344 7.21228 14.734 7.21258 14.7337L10.261 10.8658C10.7086 10.2992 11.3405 9.97253 12.015 9.97253ZM10.3591 19.9301L10.0815 21.1557L10.0808 21.1586C10.0531 21.2785 10.0835 21.4075 10.1946 21.5272C10.3089 21.6503 10.5029 21.75 10.75 21.75H13.27C13.5741 21.75 13.7569 21.6445 13.8462 21.5477C13.9275 21.4596 13.9764 21.3339 13.9376 21.1517L13.6609 19.9301H10.3591ZM13.9633 18.4301H10.0667L8.53867 17.0698C8.53129 17.0633 8.52379 17.0568 8.51617 17.0506C8.05705 16.6733 8.00569 16.4789 8.0002 16.4089C7.99361 16.3249 8.02692 16.1204 8.38742 15.6663L8.38905 15.6642L11.26 12.0215V13.65C11.26 14.0642 11.5958 14.4 12.01 14.4C12.4242 14.4 12.76 14.0642 12.76 13.65V12.0088L15.6409 15.6642L15.6426 15.6663C15.9995 16.1159 16.0228 16.3098 16.0157 16.3872C16.0082 16.4684 15.9446 16.668 15.4924 17.0688L15.4913 17.0698L13.9633 18.4301Z" fill="#595854"/>
</svg>
