<svg width="24" height="24" viewBox="0 0 24 24" fill="none" xmlns="http://www.w3.org/2000/svg">
<path fill-rule="evenodd" clip-rule="evenodd" d="M4.77007 3.48266C4.07639 3.9394 3.64928 4.71783 3.47542 6.26382L3.47388 6.27754L3.47375 6.27753C3.40231 6.82228 3.37228 7.45005 3.37023 8.17H6.22206C6.55065 6.98893 7.63559 6.12 8.92012 6.12H15.0701C15.833 6.12 16.5426 6.43179 17.0505 6.94962C17.3912 7.28377 17.6443 7.70267 17.7765 8.17H20.63C20.6286 7.44065 20.6068 6.82251 20.5282 6.28947C20.5268 6.2802 20.5256 6.2709 20.5246 6.26158C20.3556 4.71713 19.9285 3.93918 19.2352 3.48266C18.4744 2.98175 17.2322 2.75 15.1301 2.75H8.88012C6.77279 2.75 5.53074 2.9818 4.77007 3.48266ZM20.6301 9.67H17.7782C17.4496 10.8511 16.3646 11.72 15.0801 11.72H8.92012C8.1573 11.72 7.44774 11.4082 6.93984 10.8905C6.60242 10.5597 6.35192 10.1403 6.22151 9.67H3.37012V15.75C3.37012 16.5042 3.39978 17.1536 3.48234 17.7223C3.48359 17.7309 3.48469 17.7395 3.48564 17.7482C3.65453 19.287 4.08119 20.0626 4.7745 20.5182C5.5355 21.0183 6.77811 21.25 8.88012 21.25H15.1201C17.2273 21.25 18.4698 21.0183 19.2307 20.5182C19.9244 20.0624 20.3511 19.2863 20.5248 17.7459L20.5262 17.734L20.5263 17.734C20.6006 17.158 20.6301 16.5031 20.6301 15.75V9.67ZM3.94517 2.22984C5.1095 1.4632 6.75745 1.25 8.88012 1.25H15.1301C17.248 1.25 18.8958 1.46325 20.0601 2.22984C21.2885 3.03867 21.8218 4.34592 22.0141 6.08456C22.1109 6.74842 22.1301 7.47972 22.1301 8.25V15.75C22.1301 16.5346 22.0998 17.2577 22.0147 17.92C21.8179 19.6567 21.2844 20.9635 20.0545 21.7718C18.8904 22.5367 17.2429 22.75 15.1201 22.75H8.88012C6.76213 22.75 5.11474 22.5367 3.95073 21.7718C2.7221 20.9644 2.18835 19.6595 1.99602 17.9247C1.90006 17.257 1.87012 16.5307 1.87012 15.75V8.25C1.87012 7.4663 1.90035 6.7427 1.98559 6.08934C2.18235 4.34874 2.71546 3.03953 3.94517 2.22984ZM8.92012 7.62C8.20433 7.62 7.62012 8.20421 7.62012 8.92C7.62012 9.28443 7.76602 9.60147 7.99313 9.82246L8.00747 9.83679C8.23909 10.0747 8.56648 10.22 8.92012 10.22H15.0801C15.7959 10.22 16.3801 9.63579 16.3801 8.92C16.3801 8.57032 16.2377 8.25181 15.9969 8.01735L15.9828 8.00321C15.7511 7.76533 15.4238 7.62 15.0701 7.62H8.92012Z" fill="#595854"/>
</svg>
