<svg width="24" height="24" viewBox="0 0 24 24" fill="none" xmlns="http://www.w3.org/2000/svg">
<path fill-rule="evenodd" clip-rule="evenodd" d="M12 2.75C6.89137 2.75 2.75 6.89137 2.75 12C2.75 17.1086 6.89137 21.25 12 21.25C17.1086 21.25 21.25 17.1086 21.25 12C21.25 6.89137 17.1086 2.75 12 2.75ZM1.25 12C1.25 6.06294 6.06294 1.25 12 1.25C17.9371 1.25 22.75 6.06294 22.75 12C22.75 17.9371 17.9371 22.75 12 22.75C6.06294 22.75 1.25 17.9371 1.25 12ZM12 8.25C11.3096 8.25 10.75 8.80964 10.75 9.5C10.75 10.1904 11.3096 10.75 12 10.75C12.6904 10.75 13.25 10.1904 13.25 9.5C13.25 8.80964 12.6904 8.25 12 8.25ZM9.25 9.5C9.25 7.98122 10.4812 6.75 12 6.75C13.5188 6.75 14.75 7.98122 14.75 9.5C14.75 11.0188 13.5188 12.25 12 12.25C10.4812 12.25 9.25 11.0188 9.25 9.5ZM9.31903 13.1857C9.49261 12.8096 9.9382 12.6455 10.3143 12.819C11.4149 13.327 12.5851 13.327 13.6857 12.819C14.0618 12.6455 14.5074 12.8096 14.681 13.1857C14.8545 13.5618 14.6904 14.0074 14.3143 14.181C14.0064 14.3231 13.6929 14.436 13.3763 14.5198L14.5857 16.0315C14.8444 16.3549 14.792 16.8269 14.4685 17.0857C14.1451 17.3444 13.6731 17.292 13.4143 16.9685L12 15.2006L10.5857 16.9685C10.3269 17.292 9.85493 17.3444 9.53148 17.0857C9.20803 16.8269 9.15559 16.3549 9.41435 16.0315L10.6237 14.5198C10.3071 14.436 9.99363 14.3231 9.68571 14.181C9.30962 14.0074 9.14545 13.5618 9.31903 13.1857Z" fill="#595854"/>
</svg>
