<svg width="24" height="24" viewBox="0 0 24 24" fill="none" xmlns="http://www.w3.org/2000/svg">
<path fill-rule="evenodd" clip-rule="evenodd" d="M13.0174 1.25004C13.4316 1.25414 13.7641 1.59323 13.76 2.00743L13.7499 3.02364C13.7326 3.97459 12.9667 4.75 12 4.75H11.97C11.844 4.75 11.73 4.85436 11.73 5C11.73 5.13579 11.8442 5.25 11.98 5.25H15C17.574 5.25 19.5709 5.7602 20.9053 7.09467C22.2398 8.42914 22.75 10.426 22.75 13V15C22.75 17.574 22.2398 19.5709 20.9053 20.9053C19.5709 22.2398 17.574 22.75 15 22.75H9C6.42603 22.75 4.42914 22.2398 3.09467 20.9053C1.7602 19.5709 1.25 17.574 1.25 15V13C1.25 10.426 1.7602 8.42914 3.09467 7.09467C4.42914 5.7602 6.42603 5.25 9 5.25H10.2478C10.2361 5.16833 10.23 5.08485 10.23 5C10.23 4.04564 10.996 3.25 11.97 3.25H12C12.1326 3.25 12.2463 3.14641 12.2501 2.9985L12.26 1.99258C12.2641 1.57838 12.6032 1.24594 13.0174 1.25004ZM9 6.75C6.57397 6.75 5.07086 7.2398 4.15533 8.15533C3.2398 9.07086 2.75 10.574 2.75 13V15C2.75 17.426 3.2398 18.9291 4.15533 19.8447C5.07086 20.7602 6.57397 21.25 9 21.25H15C17.426 21.25 18.9291 20.7602 19.8447 19.8447C20.7602 18.9291 21.25 17.426 21.25 15V13C21.25 10.574 20.7602 9.07086 19.8447 8.15533C18.9291 7.2398 17.426 6.75 15 6.75H9ZM15.5 11.27C15.9142 11.27 16.25 11.6058 16.25 12.02V12.04C16.25 12.4542 15.9142 12.79 15.5 12.79C15.0858 12.79 14.75 12.4542 14.75 12.04V12.02C14.75 11.6058 15.0858 11.27 15.5 11.27ZM10.1003 11.9297C10.3932 12.2226 10.3932 12.6974 10.1003 12.9903L9.10566 13.985L10.1303 15.0097C10.4232 15.3026 10.4232 15.7774 10.1303 16.0703C9.83744 16.3632 9.36256 16.3632 9.06967 16.0703L8.045 15.0457L7.05033 16.0403C6.75744 16.3332 6.28256 16.3332 5.98967 16.0403C5.69678 15.7474 5.69678 15.2726 5.98967 14.9797L6.98434 13.985L6.01967 13.0203C5.72678 12.7274 5.72678 12.2526 6.01967 11.9597C6.31256 11.6668 6.78744 11.6668 7.08033 11.9597L8.045 12.9243L9.03967 11.9297C9.33256 11.6368 9.80744 11.6368 10.1003 11.9297ZM13.54 14.75H13.53C13.1158 14.75 12.78 14.4142 12.78 14C12.78 13.5858 13.1158 13.25 13.53 13.25H13.54C13.9542 13.25 14.29 13.5858 14.29 14C14.29 14.4142 13.9542 14.75 13.54 14.75ZM16.72 14C16.72 13.5858 17.0558 13.25 17.47 13.25H17.48C17.8942 13.25 18.23 13.5858 18.23 14C18.23 14.4142 17.8942 14.75 17.48 14.75H17.47C17.0558 14.75 16.72 14.4142 16.72 14ZM15.5 15.21C15.9142 15.21 16.25 15.5458 16.25 15.96V15.98C16.25 16.3942 15.9142 16.73 15.5 16.73C15.0858 16.73 14.75 16.3942 14.75 15.98V15.96C14.75 15.5458 15.0858 15.21 15.5 15.21Z" fill="#595854"/>
</svg>
