<svg width="24" height="24" viewBox="0 0 24 24" fill="none" xmlns="http://www.w3.org/2000/svg">
<path fill-rule="evenodd" clip-rule="evenodd" d="M3.18984 2.78346C2.9801 2.70477 2.75 2.85339 2.75 3.10001V20.9C2.75 21.0489 2.82522 21.1713 2.9158 21.2343C2.95866 21.2641 2.99657 21.275 3.02423 21.277C3.04803 21.2787 3.08113 21.2756 3.1279 21.2488C3.13994 21.2419 3.15218 21.2354 3.16459 21.2292L3.65573 20.9836L12.6393 12L3.65573 3.0164L3.18984 2.78346ZM4.41976 1.72137L3.83541 1.42919C3.82227 1.42262 3.80894 1.41644 3.79544 1.41065C2.60898 0.902171 1.25 1.75241 1.25 3.10001V20.9C1.25 21.5511 1.57478 22.1287 2.0592 22.4657C2.5515 22.8082 3.2282 22.9085 3.85161 22.5627L17.2354 15.8708L21.7085 13.5846C22.4247 13.2935 22.75 12.6116 22.75 11.9875C22.75 11.3527 22.4208 10.6719 21.7354 10.3292L17.2324 8.12769L4.45087 1.73692C4.4406 1.73148 4.43022 1.72629 4.41976 1.72137ZM7.89837 5.13772L13.7 10.9394L15.6339 9.00547L7.89837 5.13772ZM17.0517 9.70899L14.7607 12L17.0445 14.2839L21.0587 12.2322C21.084 12.2192 21.11 12.2077 21.1367 12.1978C21.189 12.1781 21.25 12.1254 21.25 11.9875C21.25 11.8481 21.18 11.7296 21.0667 11.6719C21.066 11.6715 21.0653 11.6712 21.0646 11.6708L17.0517 9.70899ZM15.6339 14.9945L13.7 13.0607L7.89837 18.8623L15.6339 14.9945Z" fill="#595854"/>
</svg>
