<svg width="24" height="24" viewBox="0 0 24 24" fill="none" xmlns="http://www.w3.org/2000/svg">
<path fill-rule="evenodd" clip-rule="evenodd" d="M3.09467 3.09467C4.42914 1.7602 6.42603 1.25 9 1.25H15C17.574 1.25 19.5709 1.7602 20.9053 3.09467C22.2398 4.42914 22.75 6.42603 22.75 9V15C22.75 17.574 22.2398 19.5709 20.9053 20.9053C19.5709 22.2398 17.574 22.75 15 22.75H9C6.42603 22.75 4.42914 22.2398 3.09467 20.9053C1.7602 19.5709 1.25 17.574 1.25 15V9C1.25 6.42603 1.7602 4.42914 3.09467 3.09467ZM4.15533 4.15533C3.2398 5.07086 2.75 6.57397 2.75 9V15C2.75 17.426 3.2398 18.9291 4.15533 19.8447C5.07086 20.7602 6.57397 21.25 9 21.25H15C17.426 21.25 18.9291 20.7602 19.8447 19.8447C20.7602 18.9291 21.25 17.426 21.25 15V9C21.25 6.57397 20.7602 5.07086 19.8447 4.15533C18.9291 3.2398 17.426 2.75 15 2.75H9C6.57397 2.75 5.07086 3.2398 4.15533 4.15533ZM12 6.53003C12.4142 6.53003 12.75 6.86582 12.75 7.28003V8.21002H14.3271C14.3826 8.19693 14.4405 8.19 14.5 8.19C14.5595 8.19 14.6174 8.19693 14.6729 8.21002H16.99C17.4042 8.21002 17.74 8.54581 17.74 8.96002C17.74 9.37424 17.4042 9.71002 16.99 9.71002H15.2168C15.0682 11.4232 14.4286 12.995 13.442 14.2693C14.4305 15.3486 15.6698 15.97 17 15.97C17.4142 15.97 17.75 16.3058 17.75 16.72C17.75 17.1342 17.4142 17.47 17 17.47C15.2096 17.47 13.6273 16.6487 12.4198 15.3721C10.9735 16.6771 9.08055 17.47 7 17.47C6.58579 17.47 6.25 17.1342 6.25 16.72C6.25 16.3058 6.58579 15.97 7 15.97C8.86405 15.97 10.5629 15.1787 11.7901 13.8933C11.8392 13.8023 11.908 13.7201 11.9956 13.6533C12.007 13.6447 12.0185 13.6364 12.0301 13.6285C12.9439 12.5672 13.5536 11.2129 13.7102 9.71002H7.01001C6.5958 9.71002 6.26001 9.37424 6.26001 8.96002C6.26001 8.54581 6.5958 8.21002 7.01001 8.21002H11.25V7.28003C11.25 6.86582 11.5858 6.53003 12 6.53003Z" fill="#595854"/>
</svg>
