<svg width="24" height="24" viewBox="0 0 24 24" fill="none" xmlns="http://www.w3.org/2000/svg">
<path fill-rule="evenodd" clip-rule="evenodd" d="M1.89483 13.748C0.735539 6.72015 6.72019 0.735513 13.748 1.8948L1.89483 13.748ZM13.7481 1.89481C17.9643 2.59072 21.3784 5.98475 22.095 10.1889C22.2113 10.8872 22.2628 11.5621 22.2473 12.2192C21.1727 11.6025 19.9255 11.2502 18.5999 11.2502C14.5449 11.2502 11.2502 14.5448 11.2502 18.5998C11.2502 19.9255 11.6026 21.1727 12.2193 22.2473C11.5621 22.2628 10.8872 22.2113 10.1889 22.095C5.98478 21.3784 2.59075 17.9642 1.89484 13.748M13.8021 21.9441C14.0369 21.8236 14.2541 21.6649 14.4507 21.4683L21.4683 14.4507C21.665 14.2541 21.8237 14.0368 21.9442 13.8021C20.9987 13.1391 19.8442 12.7502 18.5999 12.7502C15.3733 12.7502 12.7502 15.3732 12.7502 18.5998C12.7502 19.8442 13.1392 20.9987 13.8021 21.9441ZM0.414847 13.9922C-0.911673 5.95087 5.9509 -0.911704 13.9922 0.414817L13.9923 0.414827C18.8391 1.21478 22.7502 5.10166 23.574 9.93839L23.5744 9.94101C23.7488 10.9874 23.7971 12.0098 23.7023 13.0164L23.7015 13.0247L23.7015 13.0247C23.6765 13.2625 23.6373 13.5033 23.5683 13.7518L23.5668 13.7572C23.377 14.4213 23.0242 15.0162 22.529 15.5114L15.5114 22.529C15.0162 23.0241 14.4213 23.377 13.7572 23.5667L13.7519 23.5682L13.7519 23.5682C13.5034 23.6373 13.2625 23.6764 13.0247 23.7015L13.0165 23.7023L13.0165 23.7023C12.0098 23.797 10.9875 23.7488 9.94104 23.5744L9.93842 23.5739C5.10169 22.7502 1.21481 18.839 0.414857 13.9922L0.414847 13.9922Z" fill="#595854"/>
</svg>
