<svg width="24" height="24" viewBox="0 0 24 24" fill="none" xmlns="http://www.w3.org/2000/svg">
<path fill-rule="evenodd" clip-rule="evenodd" d="M7.8883 3.58266C7.44184 3.96223 7.10819 4.50211 6.92374 5.25H13.19C14.9012 5.25 16.3229 5.67971 17.3116 6.66842C18.3003 7.65714 18.73 9.0788 18.73 10.79V14.6567C19.4787 14.4728 20.0185 14.1404 20.3977 13.695C20.9163 13.086 21.23 12.1544 21.23 10.79V6.79001C21.23 5.31121 20.8597 4.33787 20.2509 3.72908C19.6421 3.12029 18.6688 2.75 17.19 2.75H10.79C9.43122 2.75 8.49903 3.06344 7.8883 3.58266ZM18.6113 16.2111C19.8186 16.0082 20.8202 15.5126 21.5398 14.6675C22.3687 13.694 22.73 12.3657 22.73 10.79V6.79001C22.73 5.0788 22.3003 3.65714 21.3116 2.66842C20.3229 1.67971 18.9012 1.25 17.19 1.25H10.79C9.21879 1.25 7.89099 1.61156 6.91672 2.43984C6.07072 3.15908 5.57257 4.16066 5.36902 5.36902C4.16066 5.57257 3.15908 6.07072 2.43984 6.91672C1.61156 7.89099 1.25 9.21879 1.25 10.79V14.79C1.25 16.8545 1.65627 18.3338 2.70544 19.2499C3.72941 20.1441 5.1827 20.33 6.79001 20.33H7.16804C7.1769 20.3328 7.19004 20.3378 7.20544 20.3456C7.22253 20.3542 7.23609 20.3631 7.24465 20.3695L8.42898 21.9486C8.42921 21.9489 8.42944 21.9492 8.42966 21.9496C8.81363 22.4634 9.37083 22.7825 9.99001 22.7825C10.6092 22.7825 11.1664 22.4634 11.5504 21.9495C11.5506 21.9492 11.5508 21.9489 11.551 21.9486L12.75 20.35C12.7531 20.3459 12.759 20.3403 12.7679 20.3358C12.7769 20.3313 12.7848 20.33 12.79 20.33H13.19C14.76 20.33 16.088 19.9715 17.0628 19.1444C17.9098 18.4256 18.408 17.4231 18.6113 16.2111ZM6.79001 6.75C6.54768 6.75 6.33123 6.75944 6.13303 6.78422C6.12334 6.78543 6.11363 6.78645 6.1039 6.78728C4.89531 6.89062 4.09368 7.28721 3.58266 7.8883C3.06344 8.49903 2.75 9.43122 2.75 10.79V14.79C2.75 16.7255 3.14374 17.6413 3.69207 18.1201C4.2656 18.6209 5.20732 18.83 6.79001 18.83H7.19C7.45271 18.83 7.69761 18.9137 7.88205 19.0069C8.06697 19.1003 8.27317 19.2449 8.42576 19.4444L8.43001 19.45L9.63101 21.0514C9.77703 21.247 9.91454 21.2825 9.99001 21.2825C10.0655 21.2825 10.203 21.247 10.349 21.0514L10.35 21.05L11.55 19.45C11.8416 19.0611 12.3039 18.83 12.79 18.83H13.19C14.55 18.83 15.482 18.5185 16.0922 18.0006C16.6925 17.4913 17.0893 16.6904 17.1927 15.4763C17.1935 15.4665 17.1946 15.4568 17.1958 15.447C17.2206 15.2488 17.23 15.0323 17.23 14.79V10.79C17.23 9.31121 16.8597 8.33787 16.2509 7.72908C15.6421 7.12029 14.6688 6.75 13.19 6.75H6.79001ZM5.7455 13.25C5.7455 12.8358 6.08129 12.5 6.4955 12.5H6.5045C6.91871 12.5 7.2545 12.8358 7.2545 13.25C7.2545 13.6642 6.91871 14 6.5045 14H6.4955C6.08129 14 5.7455 13.6642 5.7455 13.25ZM9.2455 13.25C9.2455 12.8358 9.58129 12.5 9.9955 12.5H10.0045C10.4187 12.5 10.7545 12.8358 10.7545 13.25C10.7545 13.6642 10.4187 14 10.0045 14H9.9955C9.58129 14 9.2455 13.6642 9.2455 13.25ZM12.7455 13.25C12.7455 12.8358 13.0813 12.5 13.4955 12.5H13.5045C13.9187 12.5 14.2545 12.8358 14.2545 13.25C14.2545 13.6642 13.9187 14 13.5045 14H13.4955C13.0813 14 12.7455 13.6642 12.7455 13.25Z" fill="#595854"/>
</svg>
