<svg width="24" height="24" viewBox="0 0 24 24" fill="none" xmlns="http://www.w3.org/2000/svg">
<path fill-rule="evenodd" clip-rule="evenodd" d="M3.09467 3.09467C4.42914 1.7602 6.42603 1.25 9 1.25H15C17.574 1.25 19.5709 1.7602 20.9053 3.09467C22.2398 4.42914 22.75 6.42603 22.75 9V15C22.75 17.574 22.2398 19.5709 20.9053 20.9053C19.5709 22.2398 17.574 22.75 15 22.75H9C6.42603 22.75 4.42914 22.2398 3.09467 20.9053C1.7602 19.5709 1.25 17.574 1.25 15V9C1.25 6.42603 1.7602 4.42914 3.09467 3.09467ZM4.15533 4.15533C3.2398 5.07086 2.75 6.57397 2.75 9V15C2.75 17.426 3.2398 18.9291 4.15533 19.8447C5.07086 20.7602 6.57397 21.25 9 21.25H15C17.426 21.25 18.9291 20.7602 19.8447 19.8447C20.7602 18.9291 21.25 17.426 21.25 15V9C21.25 6.57397 20.7602 5.07086 19.8447 4.15533C18.9291 3.2398 17.426 2.75 15 2.75H9C6.57397 2.75 5.07086 3.2398 4.15533 4.15533ZM10.6567 7.31128C10.634 7.388 10.6171 7.48435 10.5904 7.64942L10.5369 7.97843C10.8011 7.97284 11.0655 7.97 11.33 7.97C12.042 7.97 12.755 7.9815 13.468 8.00449L13.4102 7.6533C13.4102 7.65315 13.4102 7.65344 13.4102 7.6533C13.3834 7.49246 13.3666 7.39787 13.3437 7.32112C13.3324 7.28325 13.3233 7.26342 13.3186 7.25465C13.2861 7.23629 13.1692 7.19 12.86 7.19H11.14C10.8335 7.19 10.7138 7.23345 10.6785 7.25166C10.6739 7.26117 10.6661 7.27958 10.6567 7.31128ZM10.6662 7.25953C10.666 7.25938 10.6678 7.25773 10.6724 7.25503C10.6687 7.25833 10.6665 7.25968 10.6662 7.25953ZM13.329 7.26202C13.3287 7.2622 13.3262 7.26065 13.3222 7.25679C13.3272 7.2599 13.3292 7.26183 13.329 7.26202ZM14.9993 8.07154C15.9935 8.12658 16.9864 8.204 17.9753 8.30379C18.3874 8.34538 18.6878 8.71319 18.6462 9.12531C18.6046 9.53743 18.2368 9.8378 17.8247 9.79621C17.6173 9.77529 17.4098 9.75537 17.2021 9.73645L16.8084 15.7788L16.8083 15.7808L16.8072 15.7966C16.7907 16.04 16.7712 16.3272 16.7169 16.5979C16.66 16.882 16.5558 17.2004 16.3348 17.4881C15.8661 18.0984 15.0904 18.31 14.1 18.31H9.89C8.89961 18.31 8.12393 18.0984 7.65519 17.4881C7.43422 17.2004 7.33001 16.882 7.27306 16.5979C7.21881 16.3272 7.19931 16.04 7.18279 15.7966L7.18172 15.7808L7.18158 15.7788L6.78794 9.73678L6.17243 9.7965C5.76015 9.8365 5.39351 9.5347 5.35351 9.12243C5.31351 8.71015 5.6153 8.34351 6.02758 8.30351L7.3648 8.17378C7.36523 8.17373 7.36566 8.17369 7.36608 8.17365C7.91122 8.11873 8.45841 8.07431 9.00693 8.04113L9.10958 7.41057C9.10955 7.41072 9.1096 7.41043 9.10958 7.41057C9.11209 7.39499 9.11475 7.378 9.11748 7.36053C9.15903 7.09485 9.23305 6.6216 9.55272 6.2576C9.93645 5.82065 10.505 5.69 11.14 5.69H12.86C13.5039 5.69 14.0699 5.82981 14.4504 6.26867C14.7647 6.63114 14.84 7.09815 14.8815 7.35592C14.8844 7.3739 14.8871 7.39086 14.8898 7.4067L14.89 7.40811L14.9993 8.07154ZM8.28197 9.59632L8.67827 15.6791C8.67829 15.6795 8.67832 15.6799 8.67835 15.6803C8.69654 15.948 8.71114 16.1401 8.74381 16.3031C8.77498 16.4586 8.81327 16.5334 8.8448 16.5744C8.88106 16.6216 9.05039 16.81 9.89 16.81H14.1C14.9396 16.81 15.1089 16.6216 15.1452 16.5744C15.1767 16.5334 15.215 16.4586 15.2462 16.3031C15.2789 16.1401 15.2935 15.9479 15.3117 15.6802C15.3117 15.6798 15.3117 15.6795 15.3117 15.6791L15.7066 9.61784C14.2494 9.51929 12.7875 9.47 11.33 9.47C10.3134 9.47 9.29575 9.51371 8.28197 9.59632Z" fill="#595854"/>
</svg>
