<svg width="24" height="24" viewBox="0 0 24 24" fill="none" xmlns="http://www.w3.org/2000/svg">
<path fill-rule="evenodd" clip-rule="evenodd" d="M3.09467 3.09467C4.42914 1.7602 6.42603 1.25 9 1.25H15C17.574 1.25 19.5709 1.7602 20.9053 3.09467C21.804 3.99338 22.3289 5.19254 22.5759 6.66607C22.6171 6.75898 22.64 6.86181 22.64 6.97C22.64 7.0007 22.6382 7.03097 22.6346 7.06071C22.7135 7.66479 22.75 8.31177 22.75 9V15C22.75 15.6785 22.7146 16.3168 22.6379 16.9135C22.6393 16.9322 22.64 16.951 22.64 16.97C22.64 17.0631 22.623 17.1522 22.592 17.2345C22.3522 18.7536 21.8242 19.9865 20.9053 20.9053C19.5709 22.2398 17.574 22.75 15 22.75H9C6.42603 22.75 4.42914 22.2398 3.09467 20.9053C1.7602 19.5709 1.25 17.574 1.25 15V9C1.25 6.42603 1.7602 4.42914 3.09467 3.09467ZM21.203 16.22C21.2342 15.8418 21.25 15.4358 21.25 15V12.75H17.64V16.22H21.203ZM17.64 17.72H20.9647C20.7298 18.6474 20.3528 19.3365 19.8447 19.8447C19.322 20.3673 18.6079 20.7512 17.64 20.9844V17.72ZM16.14 21.2093V12.75H7.64V21.1906C8.05752 21.23 8.50993 21.25 9 21.25H15C15.4052 21.25 15.7847 21.2363 16.14 21.2093ZM6.14 20.9276V17.72H3.03533C3.27022 18.6474 3.64721 19.3365 4.15533 19.8447C4.63755 20.3269 5.28277 20.691 6.14 20.9276ZM2.79704 16.22H6.14V12.75H2.75V15C2.75 15.4358 2.76581 15.8418 2.79704 16.22ZM2.75 11.25H6.14V7.72H2.80215C2.76753 8.11515 2.75 8.54106 2.75 9V11.25ZM3.05081 6.22H6.14V3.07236C5.28277 3.309 4.63755 3.67311 4.15533 4.15533C3.65823 4.65243 3.28663 5.32276 3.05081 6.22ZM7.64 2.80943V11.25H16.14V2.7907C15.7847 2.76367 15.4052 2.75 15 2.75H9C8.50993 2.75 8.05752 2.76999 7.64 2.80943ZM17.64 3.01556V6.22H20.9492C20.7134 5.32276 20.3418 4.65243 19.8447 4.15533C19.322 3.6327 18.6079 3.24881 17.64 3.01556ZM21.1978 7.72H17.64V11.25H21.25V9C21.25 8.54106 21.2325 8.11515 21.1978 7.72Z" fill="#595854"/>
</svg>
