<svg width="24" height="24" viewBox="0 0 24 24" fill="none" xmlns="http://www.w3.org/2000/svg">
<path fill-rule="evenodd" clip-rule="evenodd" d="M6.25493 4.49132C5.84187 4.74717 5.52864 5.07959 5.37503 5.39683L5.37142 5.40429L2.97082 10.2254C2.76601 10.635 2.70449 11.1666 2.80464 11.7004C2.9048 12.2343 3.1548 12.7072 3.49364 13.0142L10.4231 19.3037C10.4229 19.3036 10.4232 19.3038 10.4231 19.3037C11.2873 20.0849 12.7223 20.0853 13.5865 19.3041C13.5864 19.3042 13.5867 19.3039 13.5865 19.3041L20.5135 13.0169C20.5139 13.0165 20.5143 13.0161 20.5148 13.0157C20.8503 12.7078 21.1006 12.2335 21.2019 11.6991C21.3032 11.1641 21.2432 10.6333 21.0392 10.2254L21.0386 10.2243L18.6386 5.40427L18.6378 5.40255C18.4791 5.08186 18.1616 4.74792 17.747 4.49176C17.3326 4.23569 16.89 4.09998 16.53 4.09998H7.47C7.10988 4.09998 6.66756 4.23574 6.25493 4.49132ZM5.46507 3.21613C6.05744 2.84921 6.77012 2.59998 7.47 2.59998H16.53C17.23 2.59998 17.9424 2.84926 18.5355 3.21569C19.128 3.58182 19.6703 4.10749 19.9817 4.73632C19.9819 4.73668 19.982 4.73704 19.9822 4.7374L22.3808 9.55457C22.381 9.55489 22.3811 9.55522 22.3813 9.55555C22.7569 10.3074 22.8267 11.1812 22.6756 11.9784C22.5245 12.7757 22.1403 13.561 21.5265 14.1231L21.5241 14.1253L14.5931 20.4162C13.1574 21.7146 10.8526 21.7146 9.41694 20.4162L2.48636 14.1257M5.46507 3.21613C4.87438 3.582 4.33365 4.10813 4.02692 4.7391L5.46507 3.21613ZM4.02692 4.7391L1.62918 9.55457C1.62908 9.55476 1.62928 9.55437 1.62918 9.55457M7.25 8.49998C7.25 8.08576 7.58579 7.74998 8 7.74998H16C16.4142 7.74998 16.75 8.08576 16.75 8.49998C16.75 8.91419 16.4142 9.24998 16 9.24998H12.75V14.5C12.75 14.9142 12.4142 15.25 12 15.25C11.5858 15.25 11.25 14.9142 11.25 14.5V9.24998H8C7.58579 9.24998 7.25 8.91419 7.25 8.49998Z" fill="#595854"/>
</svg>
