<svg width="24" height="24" viewBox="0 0 24 24" fill="none" xmlns="http://www.w3.org/2000/svg">
<path fill-rule="evenodd" clip-rule="evenodd" d="M4.15533 4.15533C3.2398 5.07086 2.75 6.57397 2.75 9V15C2.75 17.426 3.2398 18.9291 4.15533 19.8447C5.07086 20.7602 6.57397 21.25 9 21.25H15C17.426 21.25 18.9291 20.7602 19.8447 19.8447C20.7602 18.9291 21.25 17.426 21.25 15V9C21.25 6.57397 20.7602 5.07086 19.8447 4.15533C18.9291 3.2398 17.426 2.75 15 2.75H9C6.57397 2.75 5.07086 3.2398 4.15533 4.15533ZM3.09467 3.09467C4.42914 1.7602 6.42603 1.25 9 1.25H15C17.574 1.25 19.5709 1.7602 20.9053 3.09467C22.2398 4.42914 22.75 6.42603 22.75 9V15C22.75 17.574 22.2398 19.5709 20.9053 20.9053C19.5709 22.2398 17.574 22.75 15 22.75H9C6.42603 22.75 4.42914 22.2398 3.09467 20.9053C1.7602 19.5709 1.25 17.574 1.25 15V9C1.25 6.42603 1.7602 4.42914 3.09467 3.09467ZM6.21967 6.21967C6.90993 5.52941 7.88439 5.25 9 5.25H13C14.1156 5.25 15.0901 5.52941 15.7803 6.21967C16.4706 6.90993 16.75 7.88439 16.75 9V10C16.75 10.1296 16.7899 10.1793 16.8053 10.1947C16.8207 10.2101 16.8704 10.25 17 10.25C17.4704 10.25 17.9207 10.4101 18.2553 10.7447C18.5899 11.0793 18.75 11.5296 18.75 12V15C18.75 16.1156 18.4706 17.0901 17.7803 17.7803C17.0901 18.4706 16.1156 18.75 15 18.75H9C7.88439 18.75 6.90993 18.4706 6.21967 17.7803C5.52941 17.0901 5.25 16.1156 5.25 15V9C5.25 7.88439 5.52941 6.90993 6.21967 6.21967ZM7.28033 7.28033C6.97059 7.59007 6.75 8.11561 6.75 9V15C6.75 15.8844 6.97059 16.4099 7.28033 16.7197C7.59007 17.0294 8.11561 17.25 9 17.25H15C15.8844 17.25 16.4099 17.0294 16.7197 16.7197C17.0294 16.4099 17.25 15.8844 17.25 15V12C17.25 11.8704 17.2101 11.8207 17.1947 11.8053C17.1793 11.7899 17.1296 11.75 17 11.75C16.5296 11.75 16.0793 11.5899 15.7447 11.2553C15.4101 10.9207 15.25 10.4704 15.25 10V9C15.25 8.11561 15.0294 7.59007 14.7197 7.28033C14.4099 6.97059 13.8844 6.75 13 6.75H9C8.11561 6.75 7.59007 6.97059 7.28033 7.28033ZM9.25 10C9.25 9.58579 9.58579 9.25 10 9.25H12C12.4142 9.25 12.75 9.58579 12.75 10C12.75 10.4142 12.4142 10.75 12 10.75H10C9.58579 10.75 9.25 10.4142 9.25 10ZM9.25 14C9.25 13.5858 9.58579 13.25 10 13.25H14C14.4142 13.25 14.75 13.5858 14.75 14C14.75 14.4142 14.4142 14.75 14 14.75H10C9.58579 14.75 9.25 14.4142 9.25 14Z" fill="#595854"/>
</svg>
