<svg width="24" height="24" viewBox="0 0 24 24" fill="none" xmlns="http://www.w3.org/2000/svg">
<path fill-rule="evenodd" clip-rule="evenodd" d="M18.1967 1.01356C19.3101 0.904277 20.4139 1.39321 21.5103 2.48965C22.6068 3.58608 23.0957 4.68989 22.9864 5.80324C22.881 6.87725 22.2333 7.76738 21.5103 8.49031L20.3909 9.60975C20.3843 9.6166 20.3776 9.62332 20.3707 9.62989L13.6216 16.379C13.3964 16.5969 13.1021 16.7873 12.8181 16.9301C12.5357 17.072 12.2031 17.1971 11.8861 17.2424L8.87225 17.673C8.13016 17.7751 7.42014 17.5725 6.922 17.0764C6.42278 16.5792 6.21859 15.8689 6.32773 15.1225C6.32781 15.122 6.32788 15.1215 6.32795 15.121L6.7572 12.1163C6.75726 12.1159 6.75732 12.1154 6.75739 12.115C6.80243 11.7937 6.92695 11.4588 7.06988 11.1744C7.21312 10.8894 7.40599 10.5933 7.62967 10.3696L14.3701 3.62918C14.3767 3.62238 14.3834 3.6157 14.3902 3.60914L15.5097 2.48965C16.2326 1.76672 17.1227 1.11899 18.1967 1.01356ZM14.6121 5.50857L8.69033 11.4303C8.61401 11.5066 8.50688 11.6555 8.41012 11.848C8.31325 12.0408 8.25792 12.2153 8.2428 12.3236L8.24246 12.326L7.81246 15.336L7.81205 15.3389C7.76169 15.682 7.86255 15.8961 7.9805 16.0136C8.09966 16.1322 8.31908 16.2345 8.66596 16.1872C8.66656 16.1871 8.66716 16.1871 8.66775 16.187L11.6739 15.7575C11.7769 15.7428 11.9493 15.6879 12.1444 15.5899C12.3352 15.494 12.4892 15.3862 12.5748 15.3045L18.4928 9.38647C16.7759 8.59758 15.3978 7.22114 14.6121 5.50857ZM19.6426 8.23669C17.8274 7.58858 16.403 6.1634 15.7624 4.35821L16.5703 3.55031C17.2074 2.91323 17.7873 2.56096 18.3433 2.50639C18.8599 2.45567 19.5461 2.64674 20.4497 3.55031C21.3532 4.45387 21.5443 5.14006 21.4936 5.65671C21.439 6.2127 21.0867 6.79257 20.4497 7.42965L19.6426 8.23669ZM3.09467 3.09465C4.42914 1.76018 6.42603 1.24998 9 1.24998H11C11.4142 1.24998 11.75 1.58576 11.75 1.99998C11.75 2.41419 11.4142 2.74998 11 2.74998H9C6.57397 2.74998 5.07086 3.23977 4.15533 4.15531C3.2398 5.07084 2.75 6.57395 2.75 8.99998V15C2.75 17.426 3.2398 18.9291 4.15533 19.8446C5.07086 20.7602 6.57397 21.25 9 21.25H15C17.426 21.25 18.9291 20.7602 19.8447 19.8446C20.7602 18.9291 21.25 17.426 21.25 15V13C21.25 12.5858 21.5858 12.25 22 12.25C22.4142 12.25 22.75 12.5858 22.75 13V15C22.75 17.5739 22.2398 19.5708 20.9053 20.9053C19.5709 22.2398 17.574 22.75 15 22.75H9C6.42603 22.75 4.42914 22.2398 3.09467 20.9053C1.7602 19.5708 1.25 17.5739 1.25 15V8.99998C1.25 6.426 1.7602 4.42911 3.09467 3.09465Z" fill="#595854"/>
</svg>
