<svg width="24" height="24" viewBox="0 0 24 24" fill="none" xmlns="http://www.w3.org/2000/svg">
<path fill-rule="evenodd" clip-rule="evenodd" d="M11.25 2C11.25 1.58579 11.5858 1.25 12 1.25C17.9342 1.25 22.75 6.06579 22.75 12C22.75 17.9342 17.9342 22.75 12 22.75C6.06579 22.75 1.25 17.9342 1.25 12C1.25 9.57141 2.05654 7.32363 3.42171 5.51772C3.6715 5.1873 4.14185 5.12193 4.47228 5.37171C4.8027 5.6215 4.86807 6.09185 4.61829 6.42228C3.44346 7.97637 2.75 9.9086 2.75 12C2.75 17.1058 6.89421 21.25 12 21.25C17.1058 21.25 21.25 17.1058 21.25 12C21.25 6.89421 17.1058 2.75 12 2.75C11.5858 2.75 11.25 2.41421 11.25 2ZM11.25 5C11.25 4.58579 11.5858 4.25 12 4.25C16.2842 4.25 19.75 7.71579 19.75 12C19.75 16.2842 16.2842 19.75 12 19.75C7.71579 19.75 4.25 16.2842 4.25 12C4.25 11.5858 4.58579 11.25 5 11.25C5.41421 11.25 5.75 11.5858 5.75 12C5.75 15.4558 8.54421 18.25 12 18.25C15.4558 18.25 18.25 15.4558 18.25 12C18.25 8.54421 15.4558 5.75 12 5.75C11.5858 5.75 11.25 5.41421 11.25 5ZM11.25 8C11.25 7.58579 11.5858 7.25 12 7.25C14.6242 7.25 16.75 9.37579 16.75 12C16.75 14.6242 14.6242 16.75 12 16.75C11.5858 16.75 11.25 16.4142 11.25 16C11.25 15.5858 11.5858 15.25 12 15.25C13.7958 15.25 15.25 13.7958 15.25 12C15.25 10.2042 13.7958 8.75 12 8.75C11.5858 8.75 11.25 8.41421 11.25 8Z" fill="#595854"/>
</svg>
