<svg width="24" height="24" viewBox="0 0 24 24" fill="none" xmlns="http://www.w3.org/2000/svg">
<path fill-rule="evenodd" clip-rule="evenodd" d="M8 1.25C8.41421 1.25 8.75 1.58579 8.75 2V2.75H15.25V2C15.25 1.58579 15.5858 1.25 16 1.25C16.4142 1.25 16.75 1.58579 16.75 2V2.78025C18.2859 2.90808 19.5038 3.44034 20.3621 4.36466C21.3464 5.42465 21.75 6.88503 21.75 8.5V13C21.75 13.4142 21.4142 13.75 21 13.75C20.5858 13.75 20.25 13.4142 20.25 13V9.84H3.75V17C3.75 18.385 4.09637 19.4246 4.7371 20.1147C5.36848 20.7946 6.39295 21.25 8 21.25H13.37C13.7842 21.25 14.12 21.5858 14.12 22C14.12 22.4142 13.7842 22.75 13.37 22.75H8C6.10705 22.75 4.63152 22.2054 3.6379 21.1353C2.65363 20.0754 2.25 18.615 2.25 17V8.5C2.25 6.88503 2.65363 5.42465 3.6379 4.36466C4.4962 3.44034 5.71409 2.90808 7.25 2.78025V2C7.25 1.58579 7.58579 1.25 8 1.25ZM7.25 4.28628C6.06502 4.40668 5.26412 4.81778 4.7371 5.38534C4.12128 6.04852 3.77738 7.03465 3.75157 8.34H20.2484C20.2226 7.03465 19.8787 6.04852 19.2629 5.38534C18.7359 4.81778 17.935 4.40668 16.75 4.28628V5C16.75 5.41421 16.4142 5.75 16 5.75C15.5858 5.75 15.25 5.41421 15.25 5V4.25H8.75V5C8.75 5.41421 8.41421 5.75 8 5.75C7.58579 5.75 7.25 5.41421 7.25 5V4.28628ZM7.54431 13.7C7.54431 13.2858 7.8801 12.95 8.29431 12.95H8.30329C8.71751 12.95 9.05329 13.2858 9.05329 13.7C9.05329 14.1142 8.71751 14.45 8.30329 14.45H8.29431C7.8801 14.45 7.54431 14.1142 7.54431 13.7ZM11.2455 13.7C11.2455 13.2858 11.5813 12.95 11.9955 12.95H12.0045C12.4187 12.95 12.7545 13.2858 12.7545 13.7C12.7545 14.1142 12.4187 14.45 12.0045 14.45H11.9955C11.5813 14.45 11.2455 14.1142 11.2455 13.7ZM18.2 15.75C16.8469 15.75 15.75 16.8469 15.75 18.2C15.75 19.5531 16.8469 20.65 18.2 20.65C19.5531 20.65 20.65 19.5531 20.65 18.2C20.65 16.8469 19.5531 15.75 18.2 15.75ZM14.25 18.2C14.25 16.0185 16.0185 14.25 18.2 14.25C20.3815 14.25 22.15 16.0185 22.15 18.2C22.15 19.0213 21.8994 19.784 21.4704 20.4158C21.4911 20.4325 21.5111 20.4505 21.5303 20.4697L22.5303 21.4697C22.8232 21.7626 22.8232 22.2374 22.5303 22.5303C22.2374 22.8232 21.7626 22.8232 21.4697 22.5303L20.4697 21.5303C20.4505 21.5111 20.4325 21.4911 20.4158 21.4704C19.784 21.8994 19.0212 22.15 18.2 22.15C16.0185 22.15 14.25 20.3815 14.25 18.2ZM7.54431 16.7C7.54431 16.2858 7.8801 15.95 8.29431 15.95H8.30329C8.71751 15.95 9.05329 16.2858 9.05329 16.7C9.05329 17.1142 8.71751 17.45 8.30329 17.45H8.29431C7.8801 17.45 7.54431 17.1142 7.54431 16.7Z" fill="#595854"/>
</svg>
