<svg width="24" height="24" viewBox="0 0 24 24" fill="none" xmlns="http://www.w3.org/2000/svg">
<path fill-rule="evenodd" clip-rule="evenodd" d="M3.53033 4.53033C3.01884 5.04182 2.75 5.99464 2.75 8V16C2.75 18.0054 3.01884 18.9582 3.53033 19.4697C4.04182 19.9812 4.99464 20.25 7 20.25H17C19.0054 20.25 19.9582 19.9812 20.4697 19.4697C20.9812 18.9582 21.25 18.0054 21.25 16V8C21.25 5.99464 20.9812 5.04182 20.4697 4.53033C19.9582 4.01884 19.0054 3.75 17 3.75H7C4.99464 3.75 4.04182 4.01884 3.53033 4.53033ZM2.46967 3.46967C3.45818 2.48116 5.00536 2.25 7 2.25H17C18.9946 2.25 20.5418 2.48116 21.5303 3.46967C22.5188 4.45818 22.75 6.00536 22.75 8V16C22.75 17.9946 22.5188 19.5418 21.5303 20.5303C20.5418 21.5188 18.9946 21.75 17 21.75H7C5.00536 21.75 3.45818 21.5188 2.46967 20.5303C1.48116 19.5418 1.25 17.9946 1.25 16V8C1.25 6.00536 1.48116 4.45818 2.46967 3.46967ZM8.5 8.42C7.91458 8.42 7.44 8.89458 7.44 9.48C7.44 10.0654 7.91458 10.54 8.5 10.54C9.08542 10.54 9.56 10.0654 9.56 9.48C9.56 8.89458 9.08542 8.42 8.5 8.42ZM5.94 9.48C5.94 8.06615 7.08615 6.92 8.5 6.92C9.91385 6.92 11.06 8.06615 11.06 9.48C11.06 10.8938 9.91385 12.04 8.5 12.04C7.08615 12.04 5.94 10.8938 5.94 9.48ZM13.25 8C13.25 7.58579 13.5858 7.25 14 7.25H19C19.4142 7.25 19.75 7.58579 19.75 8C19.75 8.41421 19.4142 8.75 19 8.75H14C13.5858 8.75 13.25 8.41421 13.25 8ZM14.25 12C14.25 11.5858 14.5858 11.25 15 11.25H19C19.4142 11.25 19.75 11.5858 19.75 12C19.75 12.4142 19.4142 12.75 19 12.75H15C14.5858 12.75 14.25 12.4142 14.25 12ZM9.33093 12.8634C11.1379 13.0272 12.5719 14.4495 12.7465 16.2579C12.7863 16.6702 12.4844 17.0367 12.0721 17.0765C11.6598 17.1163 11.2933 16.8144 11.2535 16.4021C11.1482 15.3118 10.2842 14.4548 9.19303 14.357L9.18537 14.3563L9.18537 14.3563C8.73548 14.3113 8.275 14.3111 7.81318 14.3564L7.81208 14.3565C6.71262 14.4627 5.8514 15.316 5.74653 16.4021C5.70672 16.8144 5.34022 17.1163 4.92792 17.0765C4.51563 17.0367 4.21366 16.6702 4.25347 16.2579C4.42859 14.4442 5.86708 13.0376 7.66737 12.8635C8.22412 12.809 8.78219 12.8087 9.33093 12.8634ZM16.25 16C16.25 15.5858 16.5858 15.25 17 15.25H19C19.4142 15.25 19.75 15.5858 19.75 16C19.75 16.4142 19.4142 16.75 19 16.75H17C16.5858 16.75 16.25 16.4142 16.25 16Z" fill="#595854"/>
</svg>
