<svg width="24" height="24" viewBox="0 0 24 24" fill="none" xmlns="http://www.w3.org/2000/svg">
<path fill-rule="evenodd" clip-rule="evenodd" d="M4.15533 4.15533C3.2398 5.07086 2.75 6.57397 2.75 9V15C2.75 17.426 3.2398 18.9291 4.15533 19.8447C5.07086 20.7602 6.57397 21.25 9 21.25H10.25V15.55H9.3C9.08439 15.55 8.78493 15.4956 8.54467 15.2553C8.30441 15.0151 8.25 14.7156 8.25 14.5V12.6C8.25 12.3844 8.30441 12.0849 8.54467 11.8447C8.78493 11.6044 9.08439 11.55 9.3 11.55H10.25V9C10.25 6.88579 11.8858 5.25 14 5.25H16.7C16.9156 5.25 17.2151 5.30441 17.4553 5.54467C17.6956 5.78493 17.75 6.08439 17.75 6.3V8.7C17.75 8.91561 17.6956 9.21507 17.4553 9.45533C17.2151 9.69559 16.9156 9.75 16.7 9.75H14.75V11.45H16.6C16.9909 11.45 17.2838 11.6611 17.449 11.909C17.5995 12.1346 17.65 12.3887 17.65 12.6V12.6781L17.2418 14.6169C17.2115 14.8318 17.1034 14.9846 17.034 15.0646C16.9461 15.166 16.8486 15.2355 16.7734 15.2806C16.6444 15.358 16.4344 15.45 16.2 15.45H14.75V21.25H15C17.426 21.25 18.9291 20.7602 19.8447 19.8447C20.7602 18.9291 21.25 17.426 21.25 15V9C21.25 6.57397 20.7602 5.07086 19.8447 4.15533C18.9291 3.2398 17.426 2.75 15 2.75H9C6.57397 2.75 5.07086 3.2398 4.15533 4.15533ZM15 22.75C17.574 22.75 19.5709 22.2398 20.9053 20.9053C22.2398 19.5709 22.75 17.574 22.75 15V9C22.75 6.42603 22.2398 4.42914 20.9053 3.09467C19.5709 1.7602 17.574 1.25 15 1.25H9C6.42603 1.25 4.42914 1.7602 3.09467 3.09467C1.7602 4.42914 1.25 6.42603 1.25 9V15C1.25 17.574 1.7602 19.5709 3.09467 20.9053C4.42914 22.2398 6.42603 22.75 9 22.75H15ZM13.25 21.25V13.95H15.8493L16.0599 12.95H13.25V9.3C13.25 9.08439 13.3044 8.78493 13.5447 8.54467C13.7849 8.30441 14.0844 8.25 14.3 8.25H16.25V6.75H14C12.7142 6.75 11.75 7.71421 11.75 9V13.05H9.75V14.05H11.75V21.25H13.25Z" fill="#595854"/>
</svg>
