<svg width="24" height="24" viewBox="0 0 24 24" fill="none" xmlns="http://www.w3.org/2000/svg">
<path fill-rule="evenodd" clip-rule="evenodd" d="M8 1.25C8.41421 1.25 8.75 1.58579 8.75 2V2.75H15.25V2C15.25 1.58579 15.5858 1.25 16 1.25C16.4142 1.25 16.75 1.58579 16.75 2V2.78025C18.2859 2.90808 19.5038 3.44034 20.3621 4.36466C21.3464 5.42465 21.75 6.88503 21.75 8.5V13.2806C22.9785 14.3777 23.75 15.9753 23.75 17.75C23.75 18.8682 23.4319 19.941 22.8834 20.8355C22.5653 21.3788 22.1647 21.8622 21.6891 22.2587C20.6373 23.192 19.2649 23.75 17.75 23.75C16.5268 23.75 15.3897 23.383 14.4438 22.75H8C6.10705 22.75 4.63152 22.2054 3.6379 21.1353C2.65363 20.0754 2.25 18.615 2.25 17V8.5C2.25 6.88503 2.65363 5.42465 3.6379 4.36466C4.4962 3.44034 5.71409 2.90808 7.25 2.78025V2C7.25 1.58579 7.58579 1.25 8 1.25ZM7.25 4.28628C6.06502 4.40668 5.26412 4.81778 4.7371 5.38534C4.09637 6.07535 3.75 7.11497 3.75 8.5V17C3.75 18.385 4.09637 19.4246 4.7371 20.1147C5.36848 20.7946 6.39295 21.25 8 21.25H12.8905C12.7951 21.1174 12.7049 20.9808 12.6199 20.8408C12.0693 19.9453 11.75 18.8704 11.75 17.75C11.75 15.8692 12.6159 14.1644 14.0022 13.0738C15.0319 12.2402 16.346 11.75 17.75 11.75C18.6416 11.75 19.489 11.9437 20.25 12.2935V8.5C20.25 7.11497 19.9036 6.07535 19.2629 5.38534C18.7359 4.81778 17.935 4.40668 16.75 4.28628V5C16.75 5.41421 16.4142 5.75 16 5.75C15.5858 5.75 15.25 5.41421 15.25 5V4.25H8.75V5C8.75 5.41421 8.41421 5.75 8 5.75C7.58579 5.75 7.25 5.41421 7.25 5V4.28628ZM6.25 11C6.25 10.5858 6.58579 10.25 7 10.25H13C13.4142 10.25 13.75 10.5858 13.75 11C13.75 11.4142 13.4142 11.75 13 11.75H7C6.58579 11.75 6.25 11.4142 6.25 11ZM17.75 13.25C16.6961 13.25 15.712 13.6182 14.9425 14.2425L14.9332 14.25L14.9332 14.2499C13.9021 15.0594 13.25 16.3329 13.25 17.75C13.25 18.5886 13.4901 19.3929 13.8988 20.0569L13.9013 20.061L13.9013 20.0611C14.2222 20.5902 14.6347 21.0436 15.1179 21.3911L15.1232 21.3949L15.1232 21.395C15.8582 21.9334 16.7638 22.25 17.75 22.25C18.8903 22.25 19.9141 21.8315 20.701 21.1301C20.7076 21.1242 20.7144 21.1184 20.7213 21.1127C21.0589 20.8327 21.3532 20.4818 21.5922 20.0721L21.6012 20.0569C22.0099 19.3929 22.25 18.5886 22.25 17.75C22.25 16.3188 21.5826 15.0428 20.5362 14.2194L20.5323 14.2163C19.7723 13.61 18.8064 13.25 17.75 13.25ZM17.75 14.5C18.1642 14.5 18.5 14.8358 18.5 15.25C18.5 16.2158 19.2842 17 20.25 17C20.6642 17 21 17.3358 21 17.75C21 18.1642 20.6642 18.5 20.25 18.5C19.2842 18.5 18.5 19.2842 18.5 20.25C18.5 20.6642 18.1642 21 17.75 21C17.3358 21 17 20.6642 17 20.25C17 19.2842 16.2158 18.5 15.25 18.5C14.8358 18.5 14.5 18.1642 14.5 17.75C14.5 17.3358 14.8358 17 15.25 17C16.2158 17 17 16.2158 17 15.25C17 14.8358 17.3358 14.5 17.75 14.5ZM17.75 17.3262C17.622 17.4801 17.4801 17.622 17.3262 17.75C17.4801 17.878 17.622 18.0199 17.75 18.1738C17.878 18.0199 18.0199 17.878 18.1738 17.75C18.0199 17.622 17.878 17.4801 17.75 17.3262ZM6.25 16C6.25 15.5858 6.58579 15.25 7 15.25H9.62C10.0342 15.25 10.37 15.5858 10.37 16C10.37 16.4142 10.0342 16.75 9.62 16.75H7C6.58579 16.75 6.25 16.4142 6.25 16Z" fill="#595854"/>
</svg>
