<svg width="24" height="24" viewBox="0 0 24 24" fill="none" xmlns="http://www.w3.org/2000/svg">
<path fill-rule="evenodd" clip-rule="evenodd" d="M11.1854 3.5469C10.3462 3.83616 9.68972 4.4422 9.17344 5.50873L9.17147 5.51276C8.90655 6.05075 8.68459 6.725 8.49436 7.53231C8.49431 7.53251 8.49426 7.53272 8.49422 7.53292L7.53036 11.6487C7.06354 13.6374 7.18057 14.9551 7.75138 15.873C8.32222 16.791 9.45355 17.4805 11.4399 17.9515L11.4403 17.9516L13.0928 18.3445L13.0948 18.345C13.6373 18.4758 14.1333 18.5576 14.5842 18.5936C14.5877 18.5939 14.5913 18.5942 14.5949 18.5946C16.012 18.7307 16.9845 18.4604 17.6988 17.8499C18.4362 17.2197 19.006 16.1373 19.4057 14.4216L19.4059 14.4205L20.3699 10.314C20.8369 8.32455 20.722 7.0045 20.1512 6.08571C19.5809 5.16764 18.4483 4.47791 16.4528 4.01176L14.8103 3.62867L14.8084 3.62823C13.2204 3.25309 12.0557 3.24692 11.1854 3.5469ZM15.1172 2.33076C13.4203 1.92999 11.9638 1.86749 10.7466 2.28706C9.59426 2.68423 8.7408 3.48311 8.11722 4.63442C7.81943 4.70476 7.51753 4.79313 7.2154 4.8888C7.21307 4.88954 7.21074 4.89029 7.20842 4.89105L5.65616 5.40128C3.64081 6.05054 2.19704 6.95735 1.48585 8.35282C0.775318 9.74703 0.888472 11.4483 1.53774 13.4595L2.79728 17.3414C3.45157 19.3525 4.35872 20.7967 5.75502 21.5102C7.15223 22.2242 8.85615 22.1131 10.8712 21.4643L10.875 21.463L12.4276 20.9527C12.4278 20.9526 12.428 20.9526 12.4282 20.9525C13.3023 20.6676 14.0641 20.3406 14.704 19.9415C16.2506 20.0499 17.5485 19.7363 18.5724 18.8612C19.6252 17.9613 20.285 16.5534 20.7115 14.7226L21.6752 10.6172C22.1722 8.50014 22.1396 6.75015 21.2915 5.38483C20.4429 4.01879 18.8852 3.21035 16.7592 2.71374L15.1182 2.33098C15.1178 2.33091 15.1175 2.33083 15.1172 2.33076ZM12.4031 19.5514L11.129 19.2484C9.01354 18.7468 7.4595 17.9382 6.61143 16.5745C5.76337 15.2108 5.7279 13.4635 6.22497 11.3459C6.22498 11.3458 6.22499 11.3457 6.22501 11.3457C6.22502 11.3456 6.22503 11.3456 6.22505 11.3455L7.18914 7.2287C7.27256 6.87463 7.36389 6.53454 7.46507 6.21094L6.07483 6.66791L6.07096 6.66917C4.18226 7.27735 3.15285 8.03068 2.68143 8.9557C2.20917 9.88236 2.20418 11.1626 2.81381 13.0513C2.81386 13.0514 2.81392 13.0516 2.81398 13.0518L4.07258 16.9309C4.07261 16.931 4.07264 16.9311 4.07267 16.9311C4.68727 18.8201 5.44246 19.8515 6.36753 20.3242C7.29142 20.7963 8.5674 20.8044 10.4564 20.1964C10.457 20.1962 10.4577 20.196 10.4583 20.1958L12.0086 19.6862L12.0102 19.6856C12.1456 19.6415 12.2765 19.5968 12.4031 19.5514ZM11.5006 8.42467C11.5919 8.06787 11.9567 7.85227 12.3154 7.94313L17.0861 9.15149C17.4449 9.24235 17.6616 9.60525 17.5703 9.96205C17.4789 10.3189 17.1141 10.5344 16.7554 10.4436L11.9847 9.23523C11.626 9.14437 11.4092 8.78147 11.5006 8.42467ZM10.5368 12.2256C10.6287 11.869 10.9939 11.6539 11.3524 11.7453L14.205 12.4723C14.5636 12.5637 14.7798 12.9269 14.6879 13.2836C14.596 13.6402 14.2309 13.8553 13.8723 13.7639L11.0197 13.0369C10.6612 12.9455 10.445 12.5823 10.5368 12.2256Z" fill="#595854"/>
</svg>
