<svg width="24" height="24" viewBox="0 0 24 24" fill="none" xmlns="http://www.w3.org/2000/svg">
<path fill-rule="evenodd" clip-rule="evenodd" d="M7.12821 6.7C7.12821 4.15967 9.26963 2 12 2C14.7304 2 16.8718 4.15967 16.8718 6.7C16.8718 7.94033 15.8586 9 14.4615 9H9.53846C8.14143 9 7.12821 7.94033 7.12821 6.7ZM12 3.4C10.2175 3.4 8.66667 4.84033 8.66667 6.7C8.66667 7.25967 9.08934 7.6 9.53846 7.6H14.4615C14.9107 7.6 15.3333 7.25967 15.3333 6.7C15.3333 4.84033 13.7825 3.4 12 3.4ZM8.92308 10.8667C8.21971 10.8667 7.64103 11.3933 7.64103 12.0333V16.7C7.64103 17.3401 8.21971 17.8667 8.92308 17.8667H15.0769C15.7803 17.8667 16.359 17.3401 16.359 16.7V12.0333C16.359 11.3933 15.7803 10.8667 15.0769 10.8667H8.92308ZM14.3077 19.2667H13.7949V21.3667C13.7949 21.4177 13.8197 21.4816 13.87 21.5307C13.9132 21.5728 13.9699 21.6 14.0513 21.6C14.1327 21.6 14.1893 21.5728 14.2325 21.5307C14.2829 21.4816 14.3077 21.4177 14.3077 21.3667V19.2667ZM12.2564 19.2667H11.7436V21.3667C11.7436 22.1737 11.0381 23 9.94872 23C8.85937 23 8.15385 22.1737 8.15385 21.3667V19.1693C6.97241 18.8632 6.10256 17.8708 6.10256 16.7V12.0333C6.10256 10.6201 7.37004 9.46667 8.92308 9.46667H15.0769C16.63 9.46667 17.8974 10.6201 17.8974 12.0333V16.7C17.8974 17.8708 17.0276 18.8632 15.8462 19.1693V21.3667C15.8462 22.1737 15.1406 23 14.0513 23C12.9619 23 12.2564 22.1737 12.2564 21.3667V19.2667ZM9.69231 19.2667V21.3667C9.69231 21.4177 9.71712 21.4816 9.76748 21.5307C9.81065 21.5728 9.86732 21.6 9.94872 21.6C10.0301 21.6 10.0868 21.5728 10.13 21.5307C10.1803 21.4816 10.2051 21.4177 10.2051 21.3667V19.2667H9.69231ZM3.59521 11.8516C3.5794 11.866 3.53846 11.9124 3.53846 12.0333V15.7667C3.53846 15.8876 3.5794 15.934 3.59521 15.9484C3.61102 15.9627 3.66199 16 3.79487 16C3.92776 16 3.97872 15.9627 3.99453 15.9484C4.01034 15.934 4.05128 15.8876 4.05128 15.7667V12.0333C4.05128 11.9124 4.01034 11.866 3.99453 11.8516C3.97872 11.8373 3.92776 11.8 3.79487 11.8C3.66199 11.8 3.61102 11.8373 3.59521 11.8516ZM2.50735 10.8617C2.85052 10.5494 3.31237 10.4 3.79487 10.4C4.27737 10.4 4.73923 10.5494 5.08239 10.8617C5.42555 11.174 5.58974 11.5943 5.58974 12.0333V15.7667C5.58974 16.2057 5.42555 16.626 5.08239 16.9383C4.73923 17.2506 4.27737 17.4 3.79487 17.4C3.31237 17.4 2.85052 17.2506 2.50735 16.9383C2.16419 16.626 2 16.2057 2 15.7667V12.0333C2 11.5943 2.16419 11.174 2.50735 10.8617ZM20.0055 11.8516C19.9897 11.866 19.9487 11.9124 19.9487 12.0333V15.7667C19.9487 15.8876 19.9897 15.934 20.0055 15.9484C20.0213 15.9627 20.0722 16 20.2051 16C20.338 16 20.389 15.9627 20.4048 15.9484C20.4206 15.934 20.4615 15.8876 20.4615 15.7667V12.0333C20.4615 11.9124 20.4206 11.866 20.4048 11.8516C20.389 11.8373 20.338 11.8 20.2051 11.8C20.0722 11.8 20.0213 11.8373 20.0055 11.8516ZM18.9176 10.8617C19.2608 10.5494 19.7226 10.4 20.2051 10.4C20.6876 10.4 21.1495 10.5494 21.4926 10.8617C21.8358 11.174 22 11.5943 22 12.0333V15.7667C22 16.2057 21.8358 16.626 21.4926 16.9383C21.1495 17.2506 20.6876 17.4 20.2051 17.4C19.7226 17.4 19.2608 17.2506 18.9176 16.9383C18.5744 16.626 18.4103 16.2057 18.4103 15.7667V12.0333C18.4103 11.5943 18.5744 11.174 18.9176 10.8617Z" fill="#595854"/>
</svg>
