<svg width="24" height="24" viewBox="0 0 24 24" fill="none" xmlns="http://www.w3.org/2000/svg">
<path fill-rule="evenodd" clip-rule="evenodd" d="M3.06464 3.09467C4.39911 1.7602 6.396 1.25 8.96997 1.25H14.97C17.5439 1.25 19.5408 1.7602 20.8753 3.09467C22.2098 4.42914 22.72 6.42603 22.72 9V15C22.72 15.0949 22.7193 15.189 22.7179 15.2823C22.7387 15.3512 22.75 15.4243 22.75 15.5C22.75 15.5909 22.7338 15.678 22.7042 15.7586C22.6091 17.9687 22.0756 19.705 20.8753 20.9053C19.5408 22.2398 17.5439 22.75 14.97 22.75H8.96997C6.396 22.75 4.39911 22.2398 3.06464 20.9053C1.73017 19.5709 1.21997 17.574 1.21997 15V9C1.21997 6.42603 1.73017 4.42914 3.06464 3.09467ZM21.22 14.75V9C21.22 6.57397 20.7302 5.07086 19.8146 4.15533C18.8991 3.2398 17.396 2.75 14.97 2.75H8.96997C6.54394 2.75 5.04083 3.2398 4.1253 4.15533C3.20977 5.07086 2.71997 6.57397 2.71997 9V14.75H21.22ZM2.76953 16.25H21.1704C21.0249 17.9604 20.5614 19.098 19.8146 19.8447C18.8991 20.7602 17.396 21.25 14.97 21.25H8.96997C6.54394 21.25 5.04083 20.7602 4.1253 19.8447C3.37859 19.098 2.91508 17.9604 2.76953 16.25ZM8.90964 7.96967C9.20253 7.67678 9.67741 7.67678 9.9703 7.96967L12 9.99934L14.0296 7.96967C14.3225 7.67678 14.7974 7.67678 15.0903 7.96967C15.3832 8.26256 15.3832 8.73744 15.0903 9.03033L12.5303 11.5903C12.2374 11.8832 11.7625 11.8832 11.4696 11.5903L8.90964 9.03033C8.61675 8.73744 8.61675 8.26256 8.90964 7.96967Z" fill="#595854"/>
</svg>
