<svg width="24" height="24" viewBox="0 0 24 24" fill="none" xmlns="http://www.w3.org/2000/svg">
<path fill-rule="evenodd" clip-rule="evenodd" d="M3.09467 3.09467C4.42914 1.7602 6.42603 1.25 9 1.25H11C11.4142 1.25 11.75 1.58579 11.75 2C11.75 2.41421 11.4142 2.75 11 2.75H9C6.57397 2.75 5.07086 3.2398 4.15533 4.15533C3.2398 5.07086 2.75 6.57397 2.75 9V15C2.75 17.426 3.2398 18.9291 4.15533 19.8447C5.07086 20.7602 6.57397 21.25 9 21.25H15C17.426 21.25 18.9291 20.7602 19.8447 19.8447C20.7602 18.9291 21.25 17.426 21.25 15V13C21.25 12.5858 21.5858 12.25 22 12.25C22.4142 12.25 22.75 12.5858 22.75 13V15C22.75 17.574 22.2398 19.5709 20.9053 20.9053C19.5709 22.2398 17.574 22.75 15 22.75H9C6.42603 22.75 4.42914 22.2398 3.09467 20.9053C1.7602 19.5709 1.25 17.574 1.25 15V9C1.25 6.42603 1.7602 4.42914 3.09467 3.09467ZM21.4697 1.46967C21.7626 1.17678 22.2374 1.17678 22.5303 1.46967C22.8232 1.76256 22.8232 2.23744 22.5303 2.53033L14.8107 10.25H17.83C18.2442 10.25 18.58 10.5858 18.58 11C18.58 11.4142 18.2442 11.75 17.83 11.75H13C12.5858 11.75 12.25 11.4142 12.25 11V6.17C12.25 5.75579 12.5858 5.42 13 5.42C13.4142 5.42 13.75 5.75579 13.75 6.17V9.18934L21.4697 1.46967Z" fill="#595854"/>
</svg>
