<svg width="24" height="24" viewBox="0 0 24 24" fill="none" xmlns="http://www.w3.org/2000/svg">
<path fill-rule="evenodd" clip-rule="evenodd" d="M3.09467 3.09467C4.42914 1.7602 6.42603 1.25 9 1.25H15C17.574 1.25 19.5709 1.7602 20.9053 3.09467C22.2398 4.42914 22.75 6.42603 22.75 9V15C22.75 17.574 22.2398 19.5709 20.9053 20.9053C19.5709 22.2398 17.574 22.75 15 22.75H9C6.42603 22.75 4.42914 22.2398 3.09467 20.9053C1.7602 19.5709 1.25 17.574 1.25 15V9C1.25 6.42603 1.7602 4.42914 3.09467 3.09467ZM4.15533 4.15533C3.2398 5.07086 2.75 6.57397 2.75 9V15C2.75 17.426 3.2398 18.9291 4.15533 19.8447C5.07086 20.7602 6.57397 21.25 9 21.25H15C17.426 21.25 18.9291 20.7602 19.8447 19.8447C20.7602 18.9291 21.25 17.426 21.25 15V9C21.25 6.57397 20.7602 5.07086 19.8447 4.15533C18.9291 3.2398 17.426 2.75 15 2.75H9C6.57397 2.75 5.07086 3.2398 4.15533 4.15533ZM7.00149 6.2072C7.65757 5.50988 8.65905 5.37988 9.77023 5.37988H14.2102C15.3214 5.37988 16.3229 5.50988 16.979 6.2072C17.6196 6.88814 17.7402 7.91507 17.7402 9.08987V15.7199C17.7402 16.1718 17.6802 16.5927 17.5365 16.9487C17.3918 17.3069 17.1383 17.651 16.7318 17.8269C16.3197 18.0053 15.8929 17.9492 15.5325 17.7935C15.1796 17.6409 14.8484 17.3784 14.5439 17.0537C14.4471 16.9509 14.3534 16.929 14.2887 16.9325C14.2241 16.936 14.1345 16.9677 14.0505 17.0796C14.0504 17.0797 14.0506 17.0795 14.0505 17.0796L13.4614 17.8683C13.1042 18.3472 12.5801 18.6424 12.0002 18.6424C11.4207 18.6424 10.8969 18.3475 10.5397 17.8691C10.5395 17.8689 10.5399 17.8694 10.5397 17.8691L9.93644 17.0648C9.85037 16.948 9.76118 16.9182 9.70184 16.915C9.64235 16.9118 9.54998 16.9317 9.45134 17.0386L9.44756 17.0427C9.14423 17.3664 8.8132 17.6277 8.45961 17.779C8.09862 17.9336 7.67444 17.9868 7.26505 17.8124C6.86068 17.6401 6.60356 17.3022 6.45458 16.9455C6.30678 16.5916 6.24314 16.1733 6.24025 15.7247L6.24022 15.7199L6.24023 9.08987C6.24023 7.91507 6.36083 6.88814 7.00149 6.2072ZM8.09397 7.23506C7.89964 7.44161 7.74023 7.89468 7.74023 9.08987V15.7174C7.74255 16.0424 7.79005 16.2509 7.8387 16.3674C7.84496 16.3824 7.85084 16.395 7.85617 16.4055C7.86029 16.4039 7.86466 16.4021 7.8693 16.4001C7.96953 16.3572 8.13544 16.2489 8.35133 16.0188C8.73248 15.6072 9.24916 15.388 9.78365 15.4172C10.3182 15.4464 10.8081 15.7207 11.142 16.1722L11.7414 16.9714C11.8542 17.1226 11.9551 17.1424 12.0002 17.1424C12.0454 17.1424 12.1463 17.1226 12.2591 16.9714L12.8503 16.1799C13.5508 15.2459 14.8386 15.1782 15.6364 16.0258L15.6374 16.0269C15.8576 16.2619 16.0262 16.3727 16.1277 16.4166C16.1291 16.4172 16.1305 16.4178 16.1319 16.4184C16.1362 16.4093 16.1408 16.3989 16.1456 16.387C16.194 16.2671 16.2402 16.053 16.2402 15.7199V9.08987C16.2402 7.89468 16.0808 7.44161 15.8865 7.23506C15.7076 7.04488 15.3191 6.87988 14.2102 6.87988H9.77023C8.66142 6.87988 8.2729 7.04488 8.09397 7.23506ZM16.19 16.4374C16.1919 16.4375 16.1929 16.4376 16.193 16.4377L16.19 16.4374ZM7.80253 16.4211C7.80255 16.421 7.80364 16.4209 7.80569 16.4208L7.80253 16.4211Z" fill="#595854"/>
</svg>
