<svg width="24" height="24" viewBox="0 0 24 24" fill="none" xmlns="http://www.w3.org/2000/svg">
<path fill-rule="evenodd" clip-rule="evenodd" d="M3.09408 3.09475C4.42819 1.76022 6.42457 1.25 8.99781 1.25H12.9966C13.4108 1.25 13.7466 1.58579 13.7466 2C13.7466 2.41421 13.4108 2.75 12.9966 2.75H8.99781C6.57262 2.75 5.07009 3.23978 4.15491 4.15525C3.23966 5.07077 2.75 6.57392 2.75 9V15C2.75 16.1132 2.8531 17.0321 3.05311 17.7891L7.1801 15.0174C8.24299 14.3041 9.75451 14.376 10.7263 15.2112L10.7326 15.2167L11.059 15.5036C11.558 15.9296 12.4 15.9288 12.8977 15.5011L17.0564 11.9311C17.0563 11.9312 17.0564 11.9311 17.0564 11.9311C18.1172 11.0198 19.7923 11.0197 20.853 11.9311C20.853 11.9311 20.853 11.9311 20.853 11.9311L21.2438 12.2668V10C21.2438 9.58579 21.5795 9.25 21.9938 9.25C22.408 9.25 22.7438 9.58579 22.7438 10V13.8959C22.7438 13.8989 22.7438 13.9018 22.7438 13.9048V15C22.7438 17.5739 22.2337 19.5708 20.8997 20.9052C19.5656 22.2398 17.5692 22.75 14.9959 22.75H8.99781C6.42457 22.75 4.42819 22.2398 3.09408 20.9052C1.76002 19.5708 1.25 17.5739 1.25 15V9C1.25 6.42608 1.76002 4.42923 3.09408 3.09475ZM21.2438 14.2444L19.8755 13.0689C19.3768 12.6404 18.5326 12.6404 18.0339 13.0689L13.8752 16.6389C13.8751 16.6389 13.8753 16.6388 13.8752 16.6389C12.8144 17.5502 11.1393 17.5503 10.0785 16.6389L10.0721 16.6333L9.74578 16.3464C9.29765 15.9638 8.53194 15.9168 8.0164 16.2626C8.01633 16.2627 8.01648 16.2626 8.0164 16.2626L3.64311 19.1998C3.7952 19.4418 3.96599 19.6558 4.15491 19.8448C5.07009 20.7602 6.57262 21.25 8.99781 21.25H14.9959C17.4211 21.25 18.9237 20.7602 19.8388 19.8448C20.7541 18.9292 21.2438 17.4261 21.2438 15V14.2444ZM20.0896 1.25973C20.7673 1.19421 21.3883 1.50809 21.9458 2.07125C22.4993 2.62547 22.8067 3.24335 22.7415 3.91613C22.68 4.55036 22.301 5.04352 21.9443 5.40025L18.3155 9.03025C18.1645 9.18128 17.9786 9.29241 17.8253 9.36652C17.6692 9.44196 17.48 9.51116 17.2923 9.54082L17.2821 9.54242L15.8925 9.74235L15.8897 9.74275C15.441 9.80559 14.9824 9.68479 14.6517 9.354C14.3211 9.02324 14.2004 8.56465 14.2632 8.11605L14.2636 8.11322L14.4617 6.73583C14.4864 6.52173 14.5631 6.32105 14.64 6.16717C14.7205 6.00604 14.8339 5.83126 14.9754 5.68975L18.0749 2.58928C18.0814 2.58249 18.0881 2.57581 18.0949 2.56926L18.6042 2.05975C18.9585 1.70534 19.4521 1.32138 20.0896 1.25973ZM18.3833 4.40236L16.0372 6.74925C16.0362 6.75045 16.0302 6.75741 16.0205 6.7714C16.0081 6.7895 15.9944 6.81246 15.9817 6.83783C15.9689 6.86334 15.96 6.8858 15.9546 6.90229C15.9528 6.90771 15.9518 6.91155 15.9512 6.91383C15.9503 6.92149 15.9493 6.92915 15.9482 6.93678L15.7599 8.24598L17.0584 8.05909C17.0615 8.05839 17.0726 8.05581 17.0913 8.04948C17.1154 8.04137 17.1436 8.02996 17.1726 8.01598C17.2016 8.00192 17.226 7.98788 17.2436 7.97621C17.252 7.97065 17.2571 7.96687 17.2592 7.96517L19.6044 5.61928C19.1146 5.30642 18.6978 4.89101 18.3833 4.40236ZM20.7065 4.51684C20.1698 4.26714 19.7368 3.83644 19.4842 3.30117L19.6651 3.12025C19.9406 2.84466 20.1217 2.76362 20.234 2.75277C20.3056 2.74584 20.5088 2.75141 20.8807 3.1274L20.8835 3.13025C21.2488 3.49564 21.2557 3.69726 21.2485 3.77137C21.2375 3.88464 21.1567 4.06648 20.8835 4.33975L20.7065 4.51684ZM8.99781 6.75C8.30802 6.75 7.74844 7.30942 7.74844 8C7.74844 8.69058 8.30802 9.25 8.99781 9.25C9.6876 9.25 10.2472 8.69058 10.2472 8C10.2472 7.30942 9.6876 6.75 8.99781 6.75ZM6.24844 8C6.24844 6.48144 7.47915 5.25 8.99781 5.25C10.5165 5.25 11.7472 6.48144 11.7472 8C11.7472 9.51856 10.5165 10.75 8.99781 10.75C7.47915 10.75 6.24844 9.51856 6.24844 8Z" fill="#595854"/>
</svg>
