<svg width="24" height="24" viewBox="0 0 24 24" fill="none" xmlns="http://www.w3.org/2000/svg">
<path fill-rule="evenodd" clip-rule="evenodd" d="M12.084 2.92406C12.0359 2.89201 11.9641 2.89201 11.916 2.92406C11.8983 2.93587 11.8801 2.94692 11.8614 2.95719L3.89481 7.33883C3.83766 7.38042 3.80444 7.42018 3.78533 7.45293C3.76595 7.48616 3.75 7.5304 3.75 7.60002V16.4C3.75 16.4519 3.75872 16.483 3.76475 16.4983C3.79977 16.5115 3.83377 16.5273 3.86645 16.5456L6.37212 17.9488C7.26358 18.4582 8.25 17.834 8.25 16.9V9.00002C8.25 8.58581 8.58579 8.25002 9 8.25002C9.41421 8.25002 9.75 8.58581 9.75 9.00002V16.9C9.75 18.9649 7.53873 20.3404 5.63086 19.2529C5.62987 19.2523 5.62888 19.2518 5.6279 19.2512L3.18471 17.8831C2.56522 17.6372 2.25 17.0231 2.25 16.4V7.60002C2.25 6.90909 2.61112 6.39122 3.08397 6.07599C3.10169 6.06418 3.1199 6.05312 3.13856 6.04286L11.1148 1.65591C11.6525 1.31473 12.3475 1.31473 12.8852 1.65591L20.8614 6.04286C20.8801 6.05312 20.8983 6.06418 20.916 6.07599C21.3889 6.39122 21.75 6.90909 21.75 7.60002V16.4C21.75 17.091 21.3889 17.6088 20.916 17.9241C20.8983 17.9359 20.8801 17.9469 20.8614 17.9572L12.8852 22.3441C12.3556 22.6802 11.6733 22.6852 11.1392 22.3593L9.68284 21.6797C9.30748 21.5045 9.1452 21.0582 9.32036 20.6829C9.49553 20.3075 9.94181 20.1452 10.3172 20.3204L11.8172 21.0204C11.8515 21.0364 11.8845 21.055 11.916 21.076C11.9641 21.108 12.0359 21.108 12.084 21.076C12.1017 21.0642 12.1199 21.0531 12.1386 21.0429L20.1052 16.6612C20.1623 16.6196 20.1956 16.5799 20.2147 16.5471C20.234 16.5139 20.25 16.4697 20.25 16.4V7.60002C20.25 7.5304 20.234 7.48616 20.2147 7.45293C20.1956 7.42018 20.1623 7.38042 20.1052 7.33883L12.1386 2.95719C12.1199 2.94692 12.1017 2.93587 12.084 2.92406ZM11.05 10.7C11.05 9.41496 12.0572 8.25002 13.5 8.25002H15.3C16.6417 8.25002 17.75 9.41381 17.75 10.8C17.75 11.2142 17.4142 11.55 17 11.55C16.5858 11.55 16.25 11.2142 16.25 10.8C16.25 10.1862 15.7583 9.75002 15.3 9.75002H13.5C12.9428 9.75002 12.55 10.1851 12.55 10.7C12.55 11.2572 12.9851 11.65 13.5 11.65H15.3C16.7428 11.65 17.75 12.815 17.75 14.1C17.75 15.5428 16.5851 16.55 15.3 16.55H13.5C12.0572 16.55 11.05 15.3851 11.05 14.1C11.05 13.6858 11.3858 13.35 11.8 13.35C12.2142 13.35 12.55 13.6858 12.55 14.1C12.55 14.615 12.9428 15.05 13.5 15.05H15.3C15.8149 15.05 16.25 14.6573 16.25 14.1C16.25 13.5851 15.8572 13.15 15.3 13.15H13.5C12.2149 13.15 11.05 12.1428 11.05 10.7Z" fill="#595854"/>
</svg>
