<svg width="24" height="24" viewBox="0 0 24 24" fill="none" xmlns="http://www.w3.org/2000/svg">
<path fill-rule="evenodd" clip-rule="evenodd" d="M20.5212 2.52095C18.6278 3.27607 16.3518 4.62506 14.2117 6.206C12.9699 7.12333 11.7893 8.10727 10.7677 9.08234C12.7966 9.55706 14.4041 11.1324 14.9173 13.1427C17.5793 10.3613 20.2602 6.45662 21.4739 3.44079L21.4769 3.43333C21.5945 3.15012 21.5173 2.87801 21.3139 2.68062L21.2998 2.66662C21.133 2.49576 20.8545 2.39988 20.5212 2.52095ZM13.6217 14.4062C13.5592 12.1884 11.7309 10.4015 9.48453 10.4015C9.48315 10.4015 9.48177 10.4015 9.4804 10.4015C9.2487 10.6588 9.03189 10.913 8.83188 11.1625C8.83157 11.1628 8.83126 11.1632 8.83095 11.1636L7.39532 12.9703C8.24204 13.1775 9.04905 13.6199 9.72588 14.3036C10.3799 14.9559 10.8128 15.7094 11.0223 16.5267L12.807 15.1003C13.0745 14.8865 13.3467 14.6543 13.6217 14.4062ZM5.65605 12.89C5.77662 12.6624 5.92227 12.449 6.08826 12.2577L7.68466 10.2487L7.68659 10.2463C9.06792 8.52294 11.1345 6.65573 13.3403 5.02629C15.5462 3.39678 17.9377 1.97085 19.9876 1.15477L20.0034 1.1487C20.879 0.823336 21.7683 1.05259 22.3422 1.63488C22.9161 2.1967 23.2058 3.08938 22.833 3.99186C21.1989 8.04981 17.1479 13.509 13.7226 16.2461L11.6934 17.8679C11.6835 17.8758 11.6734 17.8834 11.6631 17.8908C11.5047 18.0045 11.3327 18.121 11.1439 18.2273C11.0379 19.3748 10.5445 20.4558 9.70669 21.3012L9.70343 21.3045C8.9559 22.0495 7.95032 22.5495 6.77794 22.7029L6.76252 22.7048L4.23016 22.9818C4.22983 22.9818 4.22949 22.9818 4.22915 22.9819C2.38662 23.1868 0.80155 21.6265 1.02025 19.7578C1.02036 19.7567 1.02048 19.7557 1.0206 19.7547L1.29805 17.2354C1.29805 17.2354 1.29806 17.2353 1.29805 17.2354C1.56954 14.7671 3.51528 13.1437 5.65605 12.89ZM6.61049 14.3257C6.46082 14.3189 6.32203 14.3154 6.19396 14.3218C6.18682 14.3222 6.17968 14.3224 6.17253 14.3226C4.50053 14.3569 2.95842 15.5539 2.75588 17.3957L2.47712 19.9267C2.36832 20.8483 3.151 21.6264 4.06757 21.5241L4.06914 21.524L6.59505 21.2477C7.45784 21.1332 8.159 20.7723 8.66655 20.2673C9.34149 19.5853 9.69887 18.6944 9.69887 17.7569C9.69887 17.6506 9.69252 17.5626 9.68457 17.4523C9.68294 17.4297 9.68125 17.4063 9.67953 17.3815C9.67585 17.3492 9.67159 17.3174 9.6667 17.2866L9.66392 17.2674C9.5727 16.5732 9.25944 15.9196 8.67849 15.3406C8.09622 14.7604 7.39917 14.4269 6.69806 14.3305C6.66685 14.3289 6.63776 14.3273 6.61049 14.3257Z" fill="#595854"/>
</svg>
