<svg width="24" height="24" viewBox="0 0 24 24" fill="none" xmlns="http://www.w3.org/2000/svg">
<path fill-rule="evenodd" clip-rule="evenodd" d="M12.06 2.89001C10.9388 2.89001 10.03 3.79888 10.03 4.92001C10.03 6.04115 10.9388 6.95001 12.06 6.95001C13.1811 6.95001 14.09 6.04115 14.09 4.92001C14.09 3.79888 13.1811 2.89001 12.06 2.89001ZM8.52999 4.92001C8.52999 2.97045 10.1104 1.39001 12.06 1.39001C14.0096 1.39001 15.59 2.97045 15.59 4.92001C15.59 6.86958 14.0096 8.45001 12.06 8.45001C10.1104 8.45001 8.52999 6.86958 8.52999 4.92001ZM16.3441 5.74199C16.5805 5.40185 17.0479 5.31775 17.388 5.55415C19.5605 7.06402 21.0611 9.46598 21.3655 12.2382C21.4107 12.6499 21.1136 13.0203 20.7018 13.0655C20.2901 13.1107 19.9197 12.8136 19.8745 12.4019C19.6189 10.074 18.3595 8.05601 16.532 6.78588C16.1918 6.54949 16.1077 6.08212 16.3441 5.74199ZM7.70237 5.78702C7.94151 6.12523 7.8612 6.59326 7.52299 6.8324C5.71372 8.11168 4.47327 10.1293 4.23609 12.4464C4.19391 12.8584 3.82568 13.1583 3.41362 13.1161C3.00155 13.0739 2.70171 12.7057 2.74389 12.2936C3.0267 9.53076 4.50626 7.12835 6.65699 5.60763C6.9952 5.36849 7.46323 5.44881 7.70237 5.78702ZM4.82999 15.11C3.70885 15.11 2.79999 16.0189 2.79999 17.14C2.79999 18.2612 3.70885 19.17 4.82999 19.17C5.95113 19.17 6.85999 18.2612 6.85999 17.14C6.85999 16.0189 5.95113 15.11 4.82999 15.11ZM1.29999 17.14C1.29999 15.1904 2.88042 13.61 4.82999 13.61C6.77955 13.61 8.35999 15.1904 8.35999 17.14C8.35999 19.0896 6.77955 20.67 4.82999 20.67C2.88042 20.67 1.29999 19.0896 1.29999 17.14ZM19.17 15.11C18.0488 15.11 17.14 16.0189 17.14 17.14C17.14 18.2612 18.0488 19.17 19.17 19.17C20.2911 19.17 21.2 18.2612 21.2 17.14C21.2 16.0189 20.2911 15.11 19.17 15.11ZM15.64 17.14C15.64 15.1904 17.2204 13.61 19.17 13.61C21.1196 13.61 22.7 15.1904 22.7 17.14C22.7 19.0896 21.1196 20.67 19.17 20.67C17.2204 20.67 15.64 19.0896 15.64 17.14ZM7.52149 20.6C7.70927 20.2308 8.1608 20.0837 8.53 20.2715C9.58566 20.8084 10.7893 21.11 12.06 21.11C13.2862 21.11 14.434 20.8359 15.4618 20.3357C15.8342 20.1544 16.2831 20.3093 16.4644 20.6818C16.6456 21.0542 16.4907 21.5031 16.1182 21.6844C14.886 22.2841 13.5137 22.61 12.06 22.61C10.5507 22.61 9.11431 22.2516 7.84997 21.6085C7.48077 21.4207 7.3337 20.9692 7.52149 20.6Z" fill="#595854"/>
</svg>
