<svg width="24" height="24" viewBox="0 0 24 24" fill="none" xmlns="http://www.w3.org/2000/svg">
<path fill-rule="evenodd" clip-rule="evenodd" d="M1.24023 11.9999C1.24023 9.07572 3.61605 6.69995 6.54025 6.69995C8.30566 6.69995 9.83531 7.56764 10.7873 8.87946C11.0305 9.2147 10.956 9.68369 10.6207 9.92696C10.2855 10.1702 9.8165 10.0957 9.57322 9.76044C8.88516 8.81225 7.79485 8.19995 6.54025 8.19995C4.44446 8.19995 2.74023 9.90416 2.74023 11.9999C2.74023 14.0957 4.44446 15.7999 6.54025 15.7999C7.9664 15.7999 9.29247 15.0485 10.0271 13.8241L11.3564 11.6154L11.3576 11.6132L12.6771 9.40405C13.6825 7.72849 15.4964 6.69995 17.4503 6.69995C20.3745 6.69995 22.7502 9.07573 22.7502 11.9999C22.7502 14.9242 20.3745 17.2999 17.4503 17.2999C15.6933 17.2999 14.1659 16.4311 13.2058 15.1239C12.9606 14.7901 13.0324 14.3207 13.3663 14.0755C13.7001 13.8303 14.1695 13.9021 14.4147 14.2359C15.1146 15.1888 16.2072 15.7999 17.4503 15.7999C19.546 15.7999 21.2502 14.0957 21.2502 11.9999C21.2502 9.90415 19.546 8.19995 17.4503 8.19995C16.0243 8.19995 14.6984 8.95112 13.9637 10.1752C13.9636 10.1754 13.9638 10.175 13.9637 10.1752L12.6441 12.3845L12.6429 12.3867L11.3134 14.5958C11.3133 14.596 11.3135 14.5957 11.3134 14.5958C10.308 16.2711 8.49391 17.2999 6.54025 17.2999C3.61605 17.2999 1.24023 14.9242 1.24023 11.9999Z" fill="#595854"/>
</svg>
