<svg width="24" height="24" viewBox="0 0 24 24" fill="none" xmlns="http://www.w3.org/2000/svg">
<path fill-rule="evenodd" clip-rule="evenodd" d="M6.69908 3.69908C6.11491 4.28325 5.75 5.14544 5.75 6.25V8.25H12.19C13.3804 8.25 14.4308 8.65009 15.1853 9.40469C15.9399 10.1593 16.34 11.2096 16.34 12.4V16.47C16.34 16.6924 16.3268 16.9146 16.2968 17.1336L16.8512 17.4993C16.8708 17.5127 16.8843 17.515 16.8943 17.5153C16.9073 17.5157 16.9252 17.5125 16.9444 17.5021C16.9636 17.4918 16.9778 17.4777 16.9863 17.464C16.9935 17.4526 17 17.4367 17 17.41V15.6C17 15.1858 17.3358 14.85 17.75 14.85C18.8532 14.85 19.7192 14.488 20.2961 13.9032L20.3032 13.8961C20.8879 13.3191 21.25 12.4532 21.25 11.35V6.25C21.25 5.14544 20.8851 4.28325 20.3009 3.69908C19.7168 3.11491 18.8546 2.75 17.75 2.75H9.25C8.14544 2.75 7.28325 3.11491 6.69908 3.69908ZM15.8186 18.6152L16.0134 18.7437C17.0826 19.4643 18.5 18.6758 18.5 17.41V16.3048C19.6264 16.1664 20.6183 15.7107 21.3603 14.9603C22.2733 14.0575 22.75 12.7849 22.75 11.35V6.25C22.75 4.80456 22.2649 3.54175 21.3616 2.63842C20.4582 1.73509 19.1954 1.25 17.75 1.25H9.25C7.80456 1.25 6.54175 1.73509 5.63842 2.63842C4.73509 3.54175 4.25 4.80456 4.25 6.25V8.38712C3.46032 8.58137 2.77603 8.98058 2.2576 9.56226C1.59637 10.3042 1.25 11.292 1.25 12.4V16.47C1.25 17.6613 1.65066 18.7113 2.40967 19.4703C2.99774 20.0584 3.77047 20.431 4.64999 20.5645V21.32C4.64999 22.4385 5.90368 23.1607 6.86968 22.5016L9.69677 20.62H12.19C13.8072 20.62 15.1316 19.8789 15.8186 18.6152ZM5.06393 9.76732C4.32429 9.83767 3.75915 10.132 3.3774 10.5603C2.99363 10.9909 2.75 11.608 2.75 12.4V16.47C2.75 17.3186 3.02934 17.9687 3.47033 18.4097C3.90017 18.8395 4.5495 19.12 5.39999 19.12C5.81421 19.12 6.14999 19.4558 6.14999 19.87V21.1787L9.05445 19.2456C9.17755 19.1637 9.32213 19.12 9.47 19.12H12.19C13.5609 19.12 14.4548 18.4012 14.7327 17.2969C14.7349 17.2882 14.7372 17.2795 14.7397 17.2709C14.8058 17.0435 14.84 16.7763 14.84 16.47V12.4C14.84 11.5505 14.5601 10.9008 14.1247 10.4653C13.6893 10.0299 13.0396 9.75 12.19 9.75H5.39999C5.29482 9.75 5.19418 9.75731 5.06393 9.76732Z" fill="#595854"/>
</svg>
