<svg width="24" height="24" viewBox="0 0 24 24" fill="none" xmlns="http://www.w3.org/2000/svg">
<path fill-rule="evenodd" clip-rule="evenodd" d="M3.09467 3.09467C4.42914 1.7602 6.42603 1.25 9 1.25H15C17.574 1.25 19.5709 1.7602 20.9053 3.09467C22.2398 4.42914 22.75 6.42603 22.75 9V15C22.75 17.574 22.2398 19.5709 20.9053 20.9053C19.5709 22.2398 17.574 22.75 15 22.75H9C6.42603 22.75 4.42914 22.2398 3.09467 20.9053C1.7602 19.5709 1.25 17.574 1.25 15V9C1.25 6.42603 1.7602 4.42914 3.09467 3.09467ZM4.15533 4.15533C3.2398 5.07086 2.75 6.57397 2.75 9V15C2.75 17.426 3.2398 18.9291 4.15533 19.8447C5.07086 20.7602 6.57397 21.25 9 21.25H15C17.426 21.25 18.9291 20.7602 19.8447 19.8447C20.7602 18.9291 21.25 17.426 21.25 15V9C21.25 6.57397 20.7602 5.07086 19.8447 4.15533C18.9291 3.2398 17.426 2.75 15 2.75H9C6.57397 2.75 5.07086 3.2398 4.15533 4.15533ZM9.34688 5.07245C9.63822 4.77802 10.1131 4.77551 10.4075 5.06685L11.3575 6.00686C11.3834 6.03249 11.4071 6.05955 11.4285 6.08778L16.5503 11.2097C17.1032 11.7626 17.1032 12.6575 16.5503 13.2104L12.3003 17.4604C11.7472 18.0135 11.0951 18.3851 10.355 18.3851C9.61487 18.3851 8.96285 18.0135 8.40969 17.4604L5.57967 14.6303C5.57967 14.6303 5.57967 14.6303 5.57967 14.6303C5.02651 14.0771 4.655 13.4251 4.655 12.685C4.655 11.9449 5.02651 11.2929 5.57967 10.7397L9.77156 6.54777L9.35248 6.1331C9.05805 5.84176 9.05554 5.36689 9.34688 5.07245ZM10.83 7.61065L6.64033 11.8003C6.62763 11.8131 6.61523 11.8257 6.60315 11.8382L14.7015 11.4821L10.83 7.61065ZM14.6537 12.9857L11.2397 16.3997C10.8528 16.7866 10.5599 16.8851 10.355 16.8851C10.1502 16.8851 9.85718 16.7866 9.47035 16.3997C9.47035 16.3997 9.47035 16.3997 9.47035 16.3997L6.64033 13.5697C6.56224 13.4916 6.49589 13.4173 6.43973 13.3468L14.6537 12.9857ZM17.8532 14.3036L17.3 14.8101L16.7488 14.3015C16.8911 14.1472 17.0915 14.0597 17.3014 14.0601C17.5113 14.0605 17.7114 14.1488 17.8532 14.3036ZM17.2982 16.0046C17.2847 16.0233 17.2711 16.0423 17.2576 16.0614C17.1072 16.2743 16.9688 16.4959 16.8706 16.7001C16.7657 16.9184 16.74 17.0494 16.74 17.1C16.74 17.4058 16.9942 17.66 17.3 17.66C17.604 17.66 17.8571 17.4087 17.86 17.1051C17.8582 17.0487 17.8292 16.9158 17.7256 16.7011C17.6265 16.4958 17.4878 16.2735 17.3378 16.0603C17.3246 16.0415 17.3114 16.0229 17.2982 16.0046ZM17.3 14.8101C16.7488 14.3015 16.7488 14.3014 16.7488 14.3015L16.7466 14.3039L16.7425 14.3083L16.7289 14.3232C16.7176 14.3358 16.7016 14.3536 16.6818 14.3761C16.642 14.421 16.5864 14.485 16.5202 14.5641C16.3884 14.7215 16.2112 14.9429 16.0324 15.1961C15.8552 15.4469 15.6662 15.7435 15.5187 16.0502C15.3781 16.3428 15.24 16.7156 15.24 17.1C15.24 18.2341 16.1657 19.16 17.3 19.16C18.4342 19.16 19.36 18.2341 19.36 17.1L19.3599 17.0914C19.3556 16.7108 19.2173 16.3409 19.0765 16.0492C18.9291 15.7436 18.7409 15.4478 18.5646 15.1972C18.3867 14.9443 18.2107 14.7232 18.0799 14.5659C18.0141 14.4869 17.9589 14.4229 17.9196 14.378C17.8998 14.3556 17.884 14.3378 17.8728 14.3253L17.8593 14.3104L17.8553 14.306L17.854 14.3045C17.8539 14.3044 17.8532 14.3036 17.3 14.8101Z" fill="#595854"/>
</svg>
