<svg width="24" height="24" viewBox="0 0 24 24" fill="none" xmlns="http://www.w3.org/2000/svg">
<path fill-rule="evenodd" clip-rule="evenodd" d="M4.09717 3.41737C3.34767 3.35439 2.75 3.90591 2.75 4.66V16.74C2.75 17.3276 3.25413 17.9034 3.83302 17.9758L3.84256 17.977L4.12938 18.0166C4.12992 18.0167 4.13047 18.0168 4.13102 18.0169C6.18691 18.2919 9.2139 19.2496 11.25 20.2431V5.89056C11.1921 5.86447 11.1353 5.83464 11.0802 5.80075L10.8231 5.64653C9.14346 4.59914 6.07864 3.57778 4.09946 3.41756L4.09717 3.41737ZM12.75 5.89056V20.2311C14.7882 19.2385 17.786 18.2886 19.8311 18.0166L19.8397 18.0154L20.167 17.9758C20.1674 17.9757 20.1678 17.9757 20.1681 17.9756C20.7465 17.9027 21.25 17.3272 21.25 16.74V4.67001C21.25 3.91316 20.6495 3.36379 19.8928 3.42738C19.8719 3.42914 19.851 3.43002 19.83 3.43002H19.8018C19.7846 3.43151 19.7673 3.43305 19.75 3.43465V8.00002C19.75 8.27646 19.5979 8.53049 19.3543 8.66108C19.1106 8.79166 18.8149 8.77762 18.5847 8.62454L17 7.5707L15.4153 8.62454C15.1851 8.77762 14.8894 8.79166 14.6457 8.66108C14.4021 8.53049 14.25 8.27646 14.25 8.00002V5.0662C13.8217 5.27013 13.4331 5.47865 13.101 5.68385L12.9256 5.79734C12.8687 5.83269 12.8099 5.86357 12.75 5.89056ZM15.75 4.43619V6.60057L16.5847 6.04549C16.8363 5.87818 17.1637 5.87818 17.4153 6.04549L18.25 6.60057V3.69087C17.4446 3.87308 16.5784 4.1314 15.75 4.43619ZM18.8716 2.04108C19.17 1.98618 19.4532 1.95382 19.7077 1.93261C19.7285 1.93088 19.7492 1.93002 19.77 1.93002H19.8009C21.4092 1.81328 22.75 3.03821 22.75 4.67001V16.74C22.75 18.0724 21.6942 19.2966 20.353 19.4642L20.3503 19.4645L20.0246 19.5041C17.9391 19.7824 14.6756 20.8603 12.8373 21.8739C12.5663 22.028 12.2587 22.0825 11.9937 22.0825C11.7306 22.0825 11.4305 22.0289 11.1631 21.8851L11.1354 21.8713C11.1311 21.8691 11.1268 21.867 11.1226 21.8647C11.1184 21.8626 11.1143 21.8603 11.1101 21.8581C9.27063 20.8521 6.00896 19.7812 3.93068 19.5034L3.92747 19.503L3.64185 19.4636C2.30316 19.2934 1.25 18.0707 1.25 16.74V4.66C1.25 3.03446 2.59165 1.78621 4.22163 1.92254C6.44023 2.10243 9.7302 3.19904 11.6112 4.37014L11.865 4.52237C11.8676 4.52359 11.8782 4.52843 11.8985 4.53349C11.9257 4.54028 11.9608 4.545 12 4.545C12.0392 4.545 12.0743 4.54028 12.1015 4.53349C12.1208 4.52868 12.1313 4.52408 12.1345 4.52258L12.2926 4.42033L12.3052 4.41231C12.9817 3.99356 13.8227 3.58521 14.7201 3.2242L14.7233 3.22291C16.0724 2.68739 17.5815 2.25163 18.8716 2.04108Z" fill="#595854"/>
</svg>
