<svg width="24" height="24" viewBox="0 0 24 24" fill="none" xmlns="http://www.w3.org/2000/svg">
<path fill-rule="evenodd" clip-rule="evenodd" d="M11.2352 3.02195L9.64018 4.38622C9.40558 4.58172 9.1079 4.73403 8.8266 4.83758C8.54569 4.94099 8.21522 5.02001 7.9 5.02001H6.17C5.52422 5.02001 4.99 5.55422 4.99 6.20001V7.89001C4.99 8.19682 4.91503 8.52263 4.81462 8.80224C4.71433 9.08152 4.56441 9.38226 4.36617 9.62015L4.36175 9.62545L3.01412 11.2126C3.01377 11.213 3.01343 11.2134 3.01308 11.2138C2.66898 11.6246 2.66898 12.3354 3.01307 12.7462C3.01342 12.7466 3.01377 12.747 3.01412 12.7474L4.36013 14.3327C4.56498 14.5712 4.71582 14.8774 4.81506 15.1553C4.91542 15.4363 4.99 15.764 4.99 16.07V17.78C4.99 18.4258 5.52422 18.96 6.17 18.96H7.92C8.2312 18.96 8.56174 19.0395 8.84161 19.142C9.12203 19.2446 9.42365 19.3968 9.66014 19.5938L9.66724 19.5998L11.2472 20.9498L11.2515 20.9535C11.645 21.2949 12.3599 21.3046 12.785 20.9479C12.7855 20.9475 12.7861 20.947 12.7867 20.9465L14.3698 19.5938C14.6044 19.3983 14.9021 19.246 15.1834 19.1424C15.4643 19.039 15.7948 18.96 16.11 18.96H17.81C18.4558 18.96 18.99 18.4258 18.99 17.78V16.08C18.99 15.7648 19.069 15.4343 19.1724 15.1534C19.276 14.8721 19.4283 14.5745 19.6238 14.3399L19.6298 14.3328L20.9798 12.7528L20.9835 12.7485C21.3249 12.355 21.3346 11.6401 20.9779 11.215C20.9774 11.2144 20.977 11.2139 20.9765 11.2134L19.6238 9.63018C19.4283 9.39558 19.276 9.0979 19.1724 8.81661C19.069 8.53569 18.99 8.20522 18.99 7.89001V6.19001C18.99 5.54422 18.4558 5.01001 17.81 5.01001H16.11C15.7956 5.01001 15.4634 4.93135 15.1809 4.82849C14.8985 4.72566 14.5966 4.57341 14.3599 4.37617L14.3528 4.37026L12.7685 3.01652C12.375 2.67516 11.6603 2.6654 11.2352 3.02195ZM13.7492 1.88147C12.783 1.04538 11.241 1.05531 10.2667 1.87654L8.67705 3.23617C8.61071 3.29054 8.47966 3.36689 8.3084 3.42993C8.13432 3.49402 7.98479 3.52001 7.9 3.52001H6.17C4.69579 3.52001 3.49 4.72579 3.49 6.20001V7.89001C3.49 7.97319 3.46498 8.12238 3.40289 8.29527C3.34133 8.46669 3.26717 8.59505 3.21547 8.6579L1.86828 10.2446L1.86589 10.2474C1.05138 11.2164 1.05138 12.7436 1.86589 13.7126L3.21828 15.3054L3.22195 15.3097C3.26604 15.3609 3.33952 15.4836 3.40245 15.6598C3.46459 15.8338 3.49 15.986 3.49 16.07V17.78C3.49 19.2542 4.69579 20.46 6.17 20.46H7.92C7.99881 20.46 8.14827 20.4855 8.3259 20.5505C8.50057 20.6145 8.63271 20.6911 8.69723 20.744L10.2685 22.0865C10.2693 22.0872 10.27 22.0878 10.2708 22.0885C11.237 22.9246 12.779 22.9147 13.7534 22.0935L15.3328 20.7439C15.3991 20.6896 15.5303 20.6132 15.7016 20.5501C15.8757 20.486 16.0252 20.46 16.11 20.46H17.81C19.2842 20.46 20.49 19.2542 20.49 17.78V16.08C20.49 15.9952 20.516 15.8457 20.5801 15.6716C20.6432 15.5002 20.7196 15.3691 20.774 15.3028L22.1165 13.7315C22.1171 13.7308 22.1178 13.73 22.1184 13.7293C22.9546 12.7631 22.9447 11.221 22.1235 10.2467L20.774 8.6672C20.7196 8.60091 20.6432 8.46979 20.5801 8.29841C20.516 8.12432 20.49 7.97479 20.49 7.89001V6.19001C20.49 4.71579 19.2842 3.51001 17.81 3.51001H16.11C16.0244 3.51001 15.8716 3.48366 15.6941 3.41902C15.519 3.35525 15.3872 3.27876 15.3228 3.22605L13.7492 1.88147ZM12 7.38001C12.4142 7.38001 12.75 7.71579 12.75 8.13001V12.96C12.75 13.3742 12.4142 13.71 12 13.71C11.5858 13.71 11.25 13.3742 11.25 12.96V8.13001C11.25 7.71579 11.5858 7.38001 12 7.38001ZM11.2445 16C11.2445 15.5858 11.5803 15.25 11.9945 15.25H12.0035C12.4177 15.25 12.7535 15.5858 12.7535 16C12.7535 16.4142 12.4177 16.75 12.0035 16.75H11.9945C11.5803 16.75 11.2445 16.4142 11.2445 16Z" fill="#595854"/>
</svg>
