<svg width="24" height="24" viewBox="0 0 24 24" fill="none" xmlns="http://www.w3.org/2000/svg">
<path fill-rule="evenodd" clip-rule="evenodd" d="M11.79 3.44501C11.418 3.44501 11.0875 3.51005 10.8765 3.60452L10.8744 3.60547L4.97273 6.2262C4.19807 6.56796 4.145 6.87716 4.145 6.91001C4.145 6.94285 4.19807 7.25206 4.97273 7.59382L4.97439 7.59455L10.8765 10.2155C11.0875 10.31 11.418 10.375 11.79 10.375C12.162 10.375 12.4925 10.31 12.7035 10.2155L12.7056 10.2146L18.6056 7.59455L18.6073 7.59382C19.3819 7.25206 19.435 6.94285 19.435 6.91001C19.435 6.87716 19.3819 6.56796 18.6073 6.2262L12.7056 3.60546L12.7035 3.60452C12.4925 3.51005 12.162 3.44501 11.79 3.44501ZM13.3154 2.23499C12.8566 2.02983 12.3026 1.94501 11.79 1.94501C11.2774 1.94501 10.7234 2.02983 10.2646 2.23499C10.2642 2.23516 10.2639 2.23533 10.2635 2.23549L4.36727 4.85382C4.36701 4.85394 4.36753 4.8537 4.36727 4.85382C3.44226 5.2621 2.645 5.94813 2.645 6.91001C2.645 7.87185 3.44142 8.55752 4.36639 8.96581C4.36609 8.96568 4.36668 8.96594 4.36639 8.96581L10.2635 11.5845C10.2639 11.5847 10.2644 11.5849 10.2648 11.5851C10.7235 11.7902 11.2775 11.875 11.79 11.875C12.3026 11.875 12.8565 11.7902 13.3153 11.5851C13.3157 11.5849 13.3161 11.5847 13.3165 11.5845L19.2127 8.9662C19.2125 8.96631 19.213 8.96608 19.2127 8.9662C20.1377 8.55791 20.935 7.87189 20.935 6.91001C20.935 5.9481 20.1385 5.2624 19.2134 4.85413C19.2132 4.85402 19.2137 4.85423 19.2134 4.85413L13.3165 2.23549C13.3161 2.23533 13.3158 2.23516 13.3154 2.23499ZM3 10.25C3.41421 10.25 3.75 10.5858 3.75 11C3.75 11.2434 3.84628 11.5559 4.0399 11.8535C4.23351 12.151 4.48007 12.3655 4.70295 12.4639L4.70479 12.4647L11.4934 15.4841C11.4932 15.484 11.4936 15.4842 11.4934 15.4841C11.8219 15.6292 12.1898 15.627 12.5017 15.4863L12.5052 15.4847L19.2952 12.4647L19.2971 12.4639C19.5199 12.3655 19.7665 12.151 19.9601 11.8535C20.1537 11.5559 20.25 11.2434 20.25 11C20.25 10.5858 20.5858 10.25 21 10.25C21.4142 10.25 21.75 10.5858 21.75 11C21.75 11.5966 21.5313 12.1891 21.2174 12.6715C20.9037 13.1537 20.4505 13.5941 19.9037 13.8358C19.9035 13.8359 19.904 13.8356 19.9037 13.8358L13.1183 16.8537C13.1177 16.854 13.1171 16.8543 13.1164 16.8546C12.409 17.173 11.5973 17.1702 10.8866 16.8559L4.09705 13.8361C4.09674 13.836 4.09643 13.8358 4.09611 13.8357C3.54941 13.594 3.09631 13.1537 2.7826 12.6715C2.46872 12.1891 2.25 11.5966 2.25 11C2.25 10.5858 2.58579 10.25 3 10.25ZM3 15.25C3.41421 15.25 3.75 15.5858 3.75 16C3.75 16.6308 4.12293 17.2043 4.70549 17.465C4.70529 17.465 4.70569 17.4651 4.70549 17.465L11.4934 20.4841C11.4931 20.484 11.4937 20.4842 11.4934 20.4841C11.8218 20.6291 12.1899 20.6269 12.5017 20.4863L12.5052 20.4847L19.2939 17.4653C19.2937 17.4654 19.2941 17.4652 19.2939 17.4653C19.8765 17.2046 20.25 16.6308 20.25 16C20.25 15.5858 20.5858 15.25 21 15.25C21.4142 15.25 21.75 15.5858 21.75 16C21.75 17.229 21.0232 18.3353 19.9061 18.8347L19.9048 18.8353L13.1183 21.8537C13.1176 21.854 13.1168 21.8544 13.1161 21.8547C12.4087 22.1729 11.5972 22.1702 10.8866 21.8559L10.8852 21.8553L4.09521 18.8353L4.0939 18.8347C2.97681 18.3353 2.25 17.229 2.25 16C2.25 15.5858 2.58579 15.25 3 15.25Z" fill="#595854"/>
</svg>
