<svg width="24" height="24" viewBox="0 0 24 24" fill="none" xmlns="http://www.w3.org/2000/svg">
<path fill-rule="evenodd" clip-rule="evenodd" d="M3.88309 2.49637C4.82923 1.48504 6.31678 1.25 8.20828 1.25H15.7683C17.6598 1.25 19.1473 1.48504 20.0935 2.49637C21.023 3.48991 21.2383 5.03644 21.2383 7.04V18.31C21.2383 19.0349 21.1406 19.6769 20.9288 20.1986C20.7161 20.7228 20.3644 21.1764 19.838 21.4036C19.3061 21.6332 18.7365 21.5712 18.2169 21.3471C17.7046 21.1262 17.1985 20.7332 16.7109 20.2128L16.7096 20.2113C16.4406 19.9226 16.1345 19.8193 15.8666 19.8339C15.5983 19.8485 15.3048 19.9847 15.0684 20.2998C15.0684 20.2999 15.0685 20.2997 15.0684 20.2998L14.0588 21.6493L14.0563 21.6527C13.531 22.3466 12.7916 22.7525 11.9933 22.7525C11.195 22.7525 10.4556 22.3466 9.93029 21.6527L9.92774 21.6493L8.91828 20.3C8.91818 20.2999 8.91838 20.3001 8.91828 20.3C8.68193 19.9851 8.38819 19.8485 8.12 19.8339C7.85202 19.8193 7.54598 19.9226 7.27698 20.2113L7.2757 20.2127C6.7903 20.731 6.28521 21.1228 5.77296 21.3431C5.25338 21.5665 4.68408 21.6277 4.15213 21.3991C3.62553 21.1727 3.27158 20.7206 3.05607 20.1959C2.8416 19.6736 2.74101 19.0304 2.73829 18.3028L2.73828 18.3V7.04C2.73828 5.03644 2.9536 3.48991 3.88309 2.49637ZM4.97847 3.52113C4.49296 4.0401 4.23828 5.01356 4.23828 7.04V18.2986C4.24068 18.9053 4.3263 19.3404 4.44362 19.626C4.55997 19.9094 4.68352 19.9948 4.74442 20.0209C4.79997 20.0448 4.92817 20.0735 5.18046 19.9651C5.44009 19.8534 5.78124 19.614 6.18085 19.1873L6.72827 19.7L6.17957 19.1887C6.73057 18.5974 7.45953 18.2957 8.20156 18.3361C8.94325 18.3765 9.63468 18.7552 10.1183 19.4L11.1263 20.7473C11.1267 20.7478 11.1271 20.7484 11.1275 20.7489C11.4118 21.1238 11.7319 21.2525 11.9933 21.2525C12.2546 21.2525 12.5747 21.1237 12.8591 20.7489C12.8595 20.7483 12.8599 20.7478 12.8603 20.7473L13.8677 19.4007C14.3513 18.7559 15.0433 18.3765 15.785 18.3361C16.5266 18.2957 17.2552 18.5971 17.8061 19.1877C18.2083 19.617 18.5508 19.8576 18.8109 19.9697C19.0638 20.0788 19.1904 20.0493 19.2436 20.0264C19.3021 20.0011 19.4242 19.9172 19.539 19.6345C19.6547 19.3494 19.7383 18.9151 19.7383 18.31V7.04C19.7383 5.01356 19.4836 4.0401 18.9981 3.52113C18.5292 3.01996 17.6568 2.75 15.7683 2.75H8.20828C6.31978 2.75 5.44734 3.01996 4.97847 3.52113ZM8.5 10C8.5 9.58579 8.83579 9.25 9.25 9.25H14.75C15.1642 9.25 15.5 9.58579 15.5 10C15.5 10.4142 15.1642 10.75 14.75 10.75H9.25C8.83579 10.75 8.5 10.4142 8.5 10Z" fill="#595854"/>
</svg>
