<svg width="24" height="24" viewBox="0 0 24 24" fill="none" xmlns="http://www.w3.org/2000/svg">
<path fill-rule="evenodd" clip-rule="evenodd" d="M5.90533 3.90533C5.18991 4.62075 4.75 5.67044 4.75 7V14.25H20.25V7C20.25 5.67044 19.8101 4.62075 19.0947 3.90533C18.3793 3.18991 17.3296 2.75 16 2.75H9C7.67044 2.75 6.62075 3.18991 5.90533 3.90533ZM21.75 7C21.75 5.32956 21.1899 3.87925 20.1553 2.84467C19.1207 1.81009 17.6704 1.25 16 1.25H9C7.32956 1.25 5.87925 1.81009 4.84467 2.84467C3.81009 3.87925 3.25 5.32956 3.25 7V17C3.25 18.6704 3.81009 20.1207 4.84467 21.1553C5.87925 22.1899 7.32956 22.75 9 22.75H16C17.6704 22.75 19.1207 22.1899 20.1553 21.1553C21.1899 20.1207 21.75 18.6704 21.75 17V7ZM20.25 15.75H4.75V17C4.75 18.3296 5.18991 19.3793 5.90533 20.0947C6.62075 20.8101 7.67044 21.25 9 21.25H16C17.3296 21.25 18.3793 20.8101 19.0947 20.0947C19.8101 19.3793 20.25 18.3296 20.25 17V15.75ZM6.25 7C6.25 6.58579 6.58579 6.25 7 6.25H8C8.41421 6.25 8.75 6.58579 8.75 7C8.75 7.41421 8.41421 7.75 8 7.75H7C6.58579 7.75 6.25 7.41421 6.25 7ZM6.25 9.5C6.25 9.08579 6.58579 8.75 7 8.75H8C8.41421 8.75 8.75 9.08579 8.75 9.5C8.75 9.91421 8.41421 10.25 8 10.25H7C6.58579 10.25 6.25 9.91421 6.25 9.5ZM6.25 12C6.25 11.5858 6.58579 11.25 7 11.25H8C8.41421 11.25 8.75 11.5858 8.75 12C8.75 12.4142 8.41421 12.75 8 12.75H7C6.58579 12.75 6.25 12.4142 6.25 12ZM15.7445 18.25C15.7445 17.8358 16.0803 17.5 16.4945 17.5H16.5035C16.9177 17.5 17.2535 17.8358 17.2535 18.25C17.2535 18.6642 16.9177 19 16.5035 19H16.4945C16.0803 19 15.7445 18.6642 15.7445 18.25Z" fill="#595854"/>
</svg>
