<svg width="24" height="24" viewBox="0 0 24 24" fill="none" xmlns="http://www.w3.org/2000/svg">
<path fill-rule="evenodd" clip-rule="evenodd" d="M11.25 3C11.25 2.58579 11.5858 2.25 12 2.25H21C21.4142 2.25 21.75 2.58579 21.75 3V12C21.75 12.4142 21.4142 12.75 21 12.75C20.5858 12.75 20.25 12.4142 20.25 12V4.81066L13.0607 12L17.9304 16.8697C18.2232 17.1626 18.2232 17.6375 17.9304 17.9304C17.6375 18.2232 17.1626 18.2232 16.8697 17.9304L12 13.0607L3.53033 21.5303C3.23744 21.8232 2.76256 21.8232 2.46967 21.5303C2.17678 21.2374 2.17678 20.7626 2.46967 20.4697L10.9393 12L6.06965 7.13031C5.77675 6.83741 5.77675 6.36254 6.06965 6.06965C6.36254 5.77675 6.83741 5.77675 7.13031 6.06965L12 10.9393L19.1893 3.75H12C11.5858 3.75 11.25 3.41421 11.25 3Z" fill="#595854"/>
</svg>
