<svg width="24" height="24" viewBox="0 0 24 24" fill="none" xmlns="http://www.w3.org/2000/svg">
<path fill-rule="evenodd" clip-rule="evenodd" d="M16.5847 8.86931C16.2151 8.95132 15.8557 9.07864 15.5146 9.2492C15.1441 9.43444 14.994 9.88495 15.1792 10.2554C15.3645 10.6259 15.815 10.7761 16.1854 10.5908C16.6055 10.3808 17.0654 10.268 17.533 10.2599C17.5544 10.2595 17.5757 10.2583 17.5967 10.2561C19.3108 10.5601 20.5407 11.8507 21.0201 13.4237C21.519 15.0605 21.1728 16.8959 19.787 18.1048L19.7725 18.1179C18.9229 18.8988 17.8065 19.3286 16.6456 19.32L5.57761 19.32C1.86132 19.0337 1.86085 13.6377 5.57619 13.3501C6.05065 13.3541 6.51435 13.4668 6.92959 13.6783C7.29868 13.8663 7.7503 13.7195 7.93832 13.3505C8.12634 12.9814 7.97956 12.5298 7.61048 12.3417C7.15406 12.1092 6.66183 11.9575 6.15594 11.8901C5.60951 10.0519 5.86648 8.54437 6.53061 7.40529C7.25918 6.15569 8.52075 5.2765 9.94198 4.90288C11.3632 4.52924 12.8909 4.67514 14.1344 5.40548C15.214 6.03955 16.1359 7.14704 16.5847 8.86931ZM4.6258 11.9844C4.0951 9.92367 4.38754 8.10288 5.23478 6.64976C6.18902 5.0131 7.80558 3.91354 9.5606 3.45217C11.3156 2.9908 13.2623 3.15366 14.8941 4.11207C16.4271 5.01243 17.6183 6.57755 18.118 8.83098C20.331 9.32647 21.8613 11.0388 22.455 12.9863C23.0952 15.0869 22.6783 17.5677 20.7804 19.2288C19.6516 20.263 18.1722 20.8307 16.6374 20.82H5.55004C5.53244 20.82 5.51484 20.8194 5.49729 20.8182C0.194958 20.4443 -0.0955393 13.1199 4.6258 11.9844Z" fill="#595854"/>
</svg>
