<svg width="24" height="24" viewBox="0 0 24 24" fill="none" xmlns="http://www.w3.org/2000/svg">
<path fill-rule="evenodd" clip-rule="evenodd" d="M11.4837 1.26893C12.5191 1.24465 13.5961 1.50772 14.4501 2.10555L20.6288 6.43468C20.6286 6.43452 20.6291 6.43483 20.6288 6.43468C21.2484 6.86672 21.7707 7.53283 22.1361 8.23291C22.5017 8.9333 22.75 9.74277 22.75 10.5V17.78C22.75 20.503 20.5254 22.74 17.79 22.74H6.21C3.47347 22.74 1.25 20.5019 1.25 17.77V10.36C1.25 9.6495 1.47441 8.88048 1.80418 8.20836C2.134 7.53615 2.60552 6.88682 3.16901 6.44837L8.55901 2.24837C9.38375 1.60692 10.4482 1.29321 11.4837 1.26893ZM9.48046 3.43199C9.48037 3.43205 9.48054 3.43192 9.48046 3.43199L4.09099 7.63157C3.75471 7.89312 3.4109 8.33901 3.15082 8.86909C2.89059 9.39946 2.75 9.94045 2.75 10.36V17.77C2.75 19.6781 4.30653 21.24 6.21 21.24H17.79C19.6946 21.24 21.25 19.6769 21.25 17.78V10.5C21.25 10.0472 21.0933 9.47665 20.8064 8.92703C20.5195 8.37737 20.1413 7.92324 19.7712 7.66527L19.7696 7.66421L13.5899 3.3344C13.5898 3.33434 13.59 3.33446 13.5899 3.3344C13.044 2.95235 12.2958 2.7503 11.5188 2.76852C10.7419 2.78674 10.0057 3.02357 9.48046 3.43199ZM13.75 11.5C13.75 11.0858 14.0858 10.75 14.5 10.75H16.5C16.9142 10.75 17.25 11.0858 17.25 11.5V13.5C17.25 13.9142 16.9142 14.25 16.5 14.25C16.0858 14.25 15.75 13.9142 15.75 13.5V13.3106L12.8303 16.2303C12.6714 16.3892 12.4497 16.4685 12.2261 16.4463C12.0025 16.4242 11.8006 16.303 11.676 16.116L10.5834 14.4772L8.03033 17.0303C7.73744 17.3232 7.26256 17.3232 6.96967 17.0303C6.67678 16.7374 6.67678 16.2625 6.96967 15.9696L10.1697 12.7696C10.3286 12.6108 10.5503 12.5315 10.7739 12.5536C10.9975 12.5758 11.1994 12.697 11.324 12.8839L12.4166 14.5227L14.6893 12.25H14.5C14.0858 12.25 13.75 11.9142 13.75 11.5Z" fill="#595854"/>
</svg>
