<svg width="24" height="24" viewBox="0 0 24 24" fill="none" xmlns="http://www.w3.org/2000/svg">
<path fill-rule="evenodd" clip-rule="evenodd" d="M11.9701 2.79999C6.77225 2.79999 2.6681 7.00296 2.76993 12.2053L2.77007 12.22V18.38C2.77007 19.9072 4.05565 21.2 5.59008 21.2C7.12586 21.2 8.41008 19.9158 8.41008 18.38V15.57C8.41008 14.9332 7.90545 14.48 7.32009 14.48C6.6833 14.48 6.23009 14.9846 6.23009 15.57V18.49C6.23009 18.9042 5.89431 19.24 5.48009 19.24C5.06588 19.24 4.73009 18.9042 4.73009 18.49V15.57C4.73009 14.2154 5.79687 12.98 7.32009 12.98C8.67472 12.98 9.91008 14.0468 9.91008 15.57V18.38C9.91008 20.7442 7.95429 22.7 5.59008 22.7C3.2245 22.7 1.27007 20.7329 1.27007 18.38V12.2272C1.15597 6.19295 5.9304 1.29999 11.9701 1.29999C18.0106 1.29999 22.7701 6.19211 22.7701 12.11V18.27C22.7701 20.6342 20.8143 22.59 18.4501 22.59C16.0859 22.59 14.1301 20.6342 14.1301 18.27V15.46C14.1301 14.1054 15.1969 12.87 16.7201 12.87C18.0747 12.87 19.3101 13.9368 19.3101 15.46V18.49C19.3101 18.9042 18.9743 19.24 18.5601 19.24C18.1459 19.24 17.8101 18.9042 17.8101 18.49V15.46C17.8101 14.8232 17.3054 14.37 16.7201 14.37C16.0833 14.37 15.6301 14.8746 15.6301 15.46V18.27C15.6301 19.8058 16.9143 21.09 18.4501 21.09C19.9859 21.09 21.2701 19.8058 21.2701 18.27V12.11C21.2701 7.00786 17.1696 2.79999 11.9701 2.79999ZM9.88876 6.90622C10.3059 6.12022 11.3692 6.22461 11.7345 6.92201L11.7407 6.93382L11.7406 6.93387L13.1745 9.79405L13.5193 9.10459L13.5264 9.09069C13.7543 8.65761 14.2179 8.36999 14.7201 8.36999H15.5301C15.9443 8.36999 16.2801 8.70578 16.2801 9.11999C16.2801 9.53421 15.9443 9.86999 15.5301 9.86999H14.8136L14.1109 11.2754C13.7246 12.048 12.6264 12.0482 12.2396 11.2761C12.2396 11.2761 12.2396 11.276 12.2395 11.2759C12.2394 11.2757 12.2394 11.2756 12.2393 11.2754L10.7917 8.38819L10.3712 9.16416C10.1381 9.60261 9.68115 9.86999 9.1901 9.86999H8.46009C8.04587 9.86999 7.71009 9.53421 7.71009 9.11999C7.71009 8.70578 8.04587 8.36999 8.46009 8.36999H9.09548L9.88876 6.90622Z" fill="#595854"/>
</svg>
