<svg width="24" height="24" viewBox="0 0 24 24" fill="none" xmlns="http://www.w3.org/2000/svg">
<path fill-rule="evenodd" clip-rule="evenodd" d="M3.90533 3.90533C3.18991 4.62075 2.75 5.67044 2.75 7V9C2.75 9.41421 2.41421 9.75 2 9.75C1.58579 9.75 1.25 9.41421 1.25 9V7C1.25 5.32956 1.81009 3.87925 2.84467 2.84467C3.87925 1.81009 5.32956 1.25 7 1.25H9C9.41421 1.25 9.75 1.58579 9.75 2C9.75 2.41421 9.41421 2.75 9 2.75H7C5.67044 2.75 4.62075 3.18991 3.90533 3.90533ZM14.25 2C14.25 1.58579 14.5858 1.25 15 1.25H17C18.6704 1.25 20.1207 1.81009 21.1553 2.84467C22.1899 3.87925 22.75 5.32956 22.75 7V9C22.75 9.41421 22.4142 9.75 22 9.75C21.5858 9.75 21.25 9.41421 21.25 9V7C21.25 5.67044 20.8101 4.62075 20.0947 3.90533C19.3793 3.18991 18.3296 2.75 17 2.75H15C14.5858 2.75 14.25 2.41421 14.25 2ZM12 6.67999C9.65421 6.67999 7.75 8.58421 7.75 10.93V13.07C7.75 15.4158 9.65421 17.32 12 17.32C14.227 17.32 16.0624 15.6027 16.2322 13.412C16.2643 12.999 16.625 12.6902 17.038 12.7222C17.4509 12.7542 17.7598 13.115 17.7278 13.5279C17.4976 16.4973 15.013 18.82 12 18.82C8.82579 18.82 6.25 16.2442 6.25 13.07V10.93C6.25 7.75578 8.82579 5.17999 12 5.17999C14.9786 5.17999 17.4286 7.44535 17.7163 10.3459C17.7572 10.7581 17.4562 11.1254 17.044 11.1663C16.6319 11.2072 16.2646 10.9062 16.2237 10.494C16.0114 8.35462 14.2014 6.67999 12 6.67999ZM12 9.85999C11.5042 9.85999 11.1 10.2642 11.1 10.76V13.23C11.1 13.7258 11.5042 14.13 12 14.13C12.4958 14.13 12.9 13.7258 12.9 13.23V10.76C12.9 10.2642 12.4958 9.85999 12 9.85999ZM9.6 10.76C9.6 9.43581 10.6758 8.35999 12 8.35999C13.3242 8.35999 14.4 9.43581 14.4 10.76V13.23C14.4 14.5542 13.3242 15.63 12 15.63C10.6758 15.63 9.6 14.5542 9.6 13.23V10.76ZM2 14.25C2.41421 14.25 2.75 14.5858 2.75 15V17C2.75 18.3296 3.18991 19.3793 3.90533 20.0947C4.62075 20.8101 5.67044 21.25 7 21.25H9C9.41421 21.25 9.75 21.5858 9.75 22C9.75 22.4142 9.41421 22.75 9 22.75H7C5.32956 22.75 3.87925 22.1899 2.84467 21.1553C1.81009 20.1207 1.25 18.6704 1.25 17V15C1.25 14.5858 1.58579 14.25 2 14.25ZM22 14.25C22.4142 14.25 22.75 14.5858 22.75 15V17C22.75 18.6704 22.1899 20.1207 21.1553 21.1553C20.1207 22.1899 18.6704 22.75 17 22.75H15C14.5858 22.75 14.25 22.4142 14.25 22C14.25 21.5858 14.5858 21.25 15 21.25H17C18.3296 21.25 19.3793 20.8101 20.0947 20.0947C20.8101 19.3793 21.25 18.3296 21.25 17V15C21.25 14.5858 21.5858 14.25 22 14.25Z" fill="#595854"/>
</svg>
