<svg width="24" height="24" viewBox="0 0 24 24" fill="none" xmlns="http://www.w3.org/2000/svg">
<path fill-rule="evenodd" clip-rule="evenodd" d="M3.60076 6.87745C3.60075 6.87755 3.60078 6.87736 3.60076 6.87745L2.86103 11.5658C2.861 11.566 2.86106 11.5656 2.86103 11.5658C2.4781 14.0172 2.92103 15.3 4.01869 16.0646L4.02444 16.0686C4.65306 16.5152 5.56587 16.8483 6.8553 17.0489L6.85691 17.0492L11.5456 17.789C11.5454 17.7889 11.5458 17.789 11.5456 17.789C13.427 18.0824 14.6123 17.8772 15.392 17.3089C16.1719 16.7405 16.7307 15.6748 17.0291 13.7934C17.0291 13.7937 17.0292 13.7931 17.0291 13.7934L17.7589 9.10465C17.8739 8.36672 17.9168 7.73539 17.8816 7.19907L17.881 7.18895C17.8239 6.09069 17.4838 5.35203 16.889 4.82046C16.2676 4.26507 15.28 3.85599 13.7744 3.62103L9.08441 2.88103C9.08419 2.881 9.08463 2.88107 9.08441 2.88103C7.20314 2.58762 6.0177 2.79283 5.23802 3.3611C4.4581 3.92952 3.89919 4.99567 3.60076 6.87745ZM4.35452 2.14889C5.61224 1.23222 7.28728 1.08252 9.31563 1.39896L9.31691 1.39916L14.0057 2.13896C14.0054 2.13893 14.0059 2.139 14.0057 2.13896C15.6397 2.39403 16.9576 2.87003 17.8885 3.70203C18.7493 4.47129 19.2079 5.47917 19.3448 6.69299C20.4673 7.36946 21.2363 8.24774 21.5716 9.40357C21.9318 10.6454 21.7521 12.0801 21.2118 13.7065L19.7117 18.2166C19.0635 20.1665 18.1634 21.5879 16.772 22.2844C15.3807 22.9808 13.7031 22.8499 11.7534 22.2017L7.24473 20.7021C7.2445 20.7021 7.24496 20.7022 7.24473 20.7021C4.9978 19.9596 3.46624 18.8655 2.93461 17.1276C1.32616 15.862 0.980186 13.8867 1.37901 11.3342L2.11918 6.6431C2.44076 4.61507 3.09697 3.06544 4.35452 2.14889ZM5.71164 18.357C6.21756 18.694 6.87489 19.0002 7.71531 19.2779L7.71672 19.2783L12.2266 20.7783C14.037 21.3801 15.2394 21.3741 16.1006 20.9431C16.9616 20.5121 17.6866 19.5535 18.2883 17.7434L19.7883 13.2335C20.2879 11.7299 20.3683 10.6396 20.131 9.82142C19.9963 9.35699 19.7462 8.93701 19.342 8.55356C19.3167 8.80798 19.2826 9.06872 19.2411 9.33534C19.2411 9.33539 19.2411 9.3353 19.2411 9.33534L18.5111 14.0253L18.5108 14.0275C18.1892 16.0555 17.5331 17.6046 16.2755 18.5211C15.0178 19.4378 13.3428 19.5875 11.3144 19.271L11.3131 19.2708L6.62474 18.5311C6.62467 18.5311 6.62481 18.5311 6.62474 18.5311C6.30805 18.4818 6.00342 18.4241 5.71164 18.357ZM8.24002 6.24999C7.69326 6.24999 7.25002 6.69323 7.25002 7.23999C7.25002 7.78676 7.69326 8.22999 8.24002 8.22999C8.78678 8.22999 9.23002 7.78676 9.23002 7.23999C9.23002 6.69323 8.78678 6.24999 8.24002 6.24999ZM5.75002 7.23999C5.75002 5.86481 6.86483 4.74999 8.24002 4.74999C9.61521 4.74999 10.73 5.86481 10.73 7.23999C10.73 8.61518 9.61521 9.72999 8.24002 9.72999C6.86483 9.72999 5.75002 8.61518 5.75002 7.23999Z" fill="#595854"/>
</svg>
