<svg width="24" height="24" viewBox="0 0 24 24" fill="none" xmlns="http://www.w3.org/2000/svg">
<path fill-rule="evenodd" clip-rule="evenodd" d="M14.25 2.5C14.25 2.08579 14.5858 1.75 15 1.75H21.5C21.9142 1.75 22.25 2.08579 22.25 2.5V9C22.25 9.41421 21.9142 9.75 21.5 9.75C21.0858 9.75 20.75 9.41421 20.75 9V4.31066L16.7674 8.29322C18.0049 9.76967 18.75 11.6728 18.75 13.75C18.75 18.4444 14.9444 22.25 10.25 22.25C5.55558 22.25 1.75 18.4444 1.75 13.75C1.75 9.05558 5.55558 5.25 10.25 5.25C12.3272 5.25 14.2303 5.99508 15.7068 7.23256L19.6893 3.25H15C14.5858 3.25 14.25 2.91421 14.25 2.5ZM10.25 6.75C6.38401 6.75 3.25 9.88401 3.25 13.75C3.25 17.616 6.38401 20.75 10.25 20.75C14.116 20.75 17.25 17.616 17.25 13.75C17.25 9.88401 14.116 6.75 10.25 6.75Z" fill="#595854"/>
</svg>
