<svg width="24" height="24" viewBox="0 0 24 24" fill="none" xmlns="http://www.w3.org/2000/svg">
<path fill-rule="evenodd" clip-rule="evenodd" d="M14.3998 2.24537C14.3996 2.24516 14.4001 2.24557 14.3998 2.24537L21.3303 7.78582C21.844 8.1994 22.2288 8.80511 22.4645 9.42267C22.7001 10.0404 22.8166 10.749 22.7102 11.4009L22.7097 11.4036L21.3797 19.3636L21.3794 19.3658C21.0782 21.1351 19.3969 22.5601 17.6 22.5601H11.4C10.9858 22.5601 10.65 22.2243 10.65 21.8101C10.65 21.3958 10.9858 21.0601 11.4 21.0601H17.6C18.6627 21.0601 19.721 20.1656 19.9004 19.1153C19.9005 19.1149 19.9006 19.1145 19.9006 19.1141L21.2298 11.1592C21.2298 11.1587 21.2299 11.1583 21.23 11.1578C21.2832 10.8299 21.2296 10.394 21.063 9.95735C20.8963 9.52037 20.6465 9.16136 20.3904 8.95483C20.3901 8.95461 20.3899 8.95438 20.3896 8.95416L13.4616 3.41577L13.4601 3.41454C12.663 2.7739 11.3235 2.77609 10.5392 3.40506L3.60668 8.95711C3.3468 9.16368 3.09553 9.52209 2.92946 9.95735C2.76336 10.3927 2.71248 10.8264 2.76894 11.1518L2.76978 11.1567L3.04977 12.8367C3.11787 13.2452 2.84185 13.6317 2.43328 13.6998C2.0247 13.7679 1.63828 13.4918 1.57018 13.0833L1.29055 11.4056C1.17777 10.7518 1.29191 10.0415 1.528 9.42267C1.76426 8.80339 2.15258 8.19724 2.6721 7.78383C2.6725 7.78351 2.6729 7.78319 2.67331 7.78287L9.60079 2.23483C10.9362 1.16429 13.057 1.16671 14.3998 2.24537ZM1.25005 15.9901C1.2555 15.5759 1.59567 15.2446 2.00985 15.25C2.84997 15.2611 3.64127 15.405 4.37016 15.6629L4.37115 15.6633C6.24217 16.3283 7.67108 17.7448 8.33715 19.6301C8.59499 20.3589 8.73887 21.1501 8.74992 21.9901C8.75537 22.4043 8.42403 22.7445 8.00985 22.7499C7.59567 22.7554 7.2555 22.424 7.25005 22.0098C7.2411 21.33 7.12503 20.7013 6.92295 20.1302C6.40909 18.6757 5.31808 17.5919 3.86938 17.0769C3.29839 16.8749 2.66983 16.7589 1.99012 16.7499C1.57594 16.7445 1.2446 16.4043 1.25005 15.9901ZM1.25018 18.9829C1.25959 18.5688 1.60292 18.2408 2.01702 18.2502C3.0676 18.274 3.99878 18.6481 4.67531 19.3246C5.35185 20.0012 5.72591 20.9324 5.74979 21.9829C5.7592 22.397 5.43113 22.7404 5.01702 22.7498C4.60292 22.7592 4.25959 22.4311 4.25018 22.017C4.23405 21.3076 3.98812 20.7588 3.61465 20.3853C3.24119 20.0118 2.69236 19.7659 1.98294 19.7498C1.56884 19.7404 1.24077 19.397 1.25018 18.9829ZM1.24548 22C1.24548 21.5858 1.58127 21.25 1.99548 21.25H2.00448C2.4187 21.25 2.75448 21.5858 2.75448 22C2.75448 22.4142 2.4187 22.75 2.00448 22.75H1.99548C1.58127 22.75 1.24548 22.4142 1.24548 22Z" fill="#595854"/>
</svg>
