<svg width="24" height="24" viewBox="0 0 24 24" fill="none" xmlns="http://www.w3.org/2000/svg">
<path fill-rule="evenodd" clip-rule="evenodd" d="M12 3.3425C11.2001 3.3425 10.2323 3.89139 9.41588 5.36371L3.3559 16.2637C2.5954 17.6353 2.62792 18.7172 3.03553 19.4116C3.44271 20.1053 4.36973 20.66 5.93997 20.66H12C12.0418 20.66 12.0828 20.6634 12.1227 20.67H18.06C19.6244 20.67 20.5523 20.1157 20.961 19.421C21.3698 18.726 21.404 17.6443 20.644 16.2737L14.5843 5.36418C13.7679 3.89186 12.7998 3.3425 12 3.3425ZM11.8772 22.16H5.93997C4.04021 22.16 2.50723 21.4747 1.74192 20.1709C0.977026 18.8678 1.12454 17.1947 2.04405 15.5363L8.10407 4.63629C8.10394 4.63651 8.10419 4.63607 8.10407 4.63629C9.06762 2.899 10.45 1.8425 12 1.8425C13.55 1.8425 14.9321 2.89842 15.8956 4.63582C15.8955 4.63566 15.8957 4.63597 15.8956 4.63582L21.9556 15.5458C22.8757 17.2052 23.0201 18.879 22.2539 20.1815C21.4876 21.4843 19.9555 22.17 18.06 22.17H12C11.9582 22.17 11.9171 22.1666 11.8772 22.16ZM12 8.25C12.4142 8.25 12.75 8.58579 12.75 9V14C12.75 14.4142 12.4142 14.75 12 14.75C11.5858 14.75 11.25 14.4142 11.25 14V9C11.25 8.58579 11.5858 8.25 12 8.25ZM11.2445 17C11.2445 16.5858 11.5803 16.25 11.9945 16.25H12.0035C12.4177 16.25 12.7535 16.5858 12.7535 17C12.7535 17.4142 12.4177 17.75 12.0035 17.75H11.9945C11.5803 17.75 11.2445 17.4142 11.2445 17Z" fill="#595854"/>
</svg>
