<svg width="24" height="24" viewBox="0 0 24 24" fill="none" xmlns="http://www.w3.org/2000/svg">
<path fill-rule="evenodd" clip-rule="evenodd" d="M8.90626 1.85119C9.48131 1.49492 10.1741 1.25 10.86 1.25H13.15C13.8321 1.25 14.5227 1.49572 15.0957 1.85165C15.669 2.20774 16.1937 2.71694 16.4993 3.32165L16.5018 3.32644L17.2184 4.76968C17.3295 4.98081 17.5174 5.13557 17.7327 5.20664L21.4697 1.46967C21.7626 1.17678 22.2374 1.17678 22.5303 1.46967C22.8232 1.76256 22.8232 2.23744 22.5303 2.53033L2.53033 22.5303C2.23744 22.8232 1.76256 22.8232 1.46967 22.5303C1.17678 22.2374 1.17678 21.7626 1.46967 21.4697L2.5423 20.397C2.22509 19.7488 2.0659 19.0242 2.02144 18.2964C2.02142 18.2962 2.02145 18.2967 2.02144 18.2964L1.50157 10.0385C1.50155 10.0383 1.50159 10.0387 1.50157 10.0385C1.33384 7.44443 3.39895 5.25 6 5.25C6.32049 5.25 6.62618 5.06499 6.7816 4.7697L7.50064 3.32164C7.80638 2.71681 8.33122 2.20745 8.90626 1.85119ZM3.69677 19.2426L16.6288 6.31056C16.32 6.09143 16.0626 5.79938 15.8842 5.45524L15.8782 5.44361L15.1596 3.99624C15.0049 3.69158 14.7001 3.37169 14.3043 3.12585C13.9073 2.87928 13.4879 2.75 13.15 2.75H10.86C10.5159 2.75 10.0937 2.88008 9.69624 3.12631C9.2997 3.37198 8.99502 3.6917 8.84042 3.99623L8.11592 5.45529C7.71052 6.23713 6.89773 6.75 6 6.75C4.26129 6.75 2.88658 8.21588 2.99843 9.94149L2.99852 9.94288L3.51861 18.2044C3.54139 18.578 3.60102 18.9266 3.69677 19.2426ZM20.56 6.91C20.8914 6.66147 21.3615 6.72863 21.61 7.06C22.2215 7.87535 22.5704 8.92015 22.4985 10.0376C22.4985 10.0378 22.4985 10.0373 22.4985 10.0376L21.9785 18.2971C21.9066 19.4372 21.5613 20.563 20.7689 21.4099C19.9621 22.2722 18.7813 22.75 17.24 22.75H6.76C6.34579 22.75 6.01 22.4142 6.01 22C6.01 21.5858 6.34579 21.25 6.76 21.25H17.24C18.4587 21.25 19.2079 20.8828 19.6736 20.3851C20.1536 19.872 20.4234 19.1228 20.4815 18.2029C20.4815 18.2028 20.4815 18.2029 20.4815 18.2029L21.0016 9.94171C21.0494 9.1994 20.8184 8.50447 20.41 7.96C20.1615 7.62863 20.2286 7.15853 20.56 6.91ZM5.25 10C5.25 9.58579 5.58579 9.25 6 9.25H9C9.41421 9.25 9.75 9.58579 9.75 10C9.75 10.4142 9.41421 10.75 9 10.75H6C5.58579 10.75 5.25 10.4142 5.25 10ZM14.3457 12.3883C14.6946 12.165 15.1584 12.2668 15.3817 12.6157C15.7787 13.236 16 13.9662 16 14.75C16 16.9542 14.2042 18.75 12 18.75C11.0757 18.75 10.2145 18.4297 9.53806 17.9009C9.21174 17.6457 9.15402 17.1744 9.40914 16.8481C9.66427 16.5217 10.1356 16.464 10.4619 16.7191C10.8855 17.0503 11.4243 17.25 12 17.25C13.3758 17.25 14.5 16.1258 14.5 14.75C14.5 14.2538 14.3613 13.804 14.1183 13.4243C13.895 13.0754 13.9968 12.6116 14.3457 12.3883Z" fill="#595854"/>
</svg>
