<svg width="24" height="24" viewBox="0 0 24 24" fill="none" xmlns="http://www.w3.org/2000/svg">
<path fill-rule="evenodd" clip-rule="evenodd" d="M6.4186 3.2766C5.21008 3.2766 4.25581 4.24788 4.25581 5.42044V15.6405C4.25581 16.8131 5.21008 17.7843 6.4186 17.7843H7.11628C8.01057 17.7843 8.88668 18.1368 9.52889 18.7827C9.52935 18.7832 9.52981 18.7837 9.53027 18.7841L11.1181 20.3644C11.5996 20.8431 12.3911 20.8431 12.8726 20.3644L14.4604 18.7841C14.4609 18.7837 14.4613 18.7832 14.4618 18.7827C15.1032 18.1376 15.9697 17.7843 16.8744 17.7843H17.5814C18.7885 17.7843 19.7442 16.8051 19.7442 15.6405V5.42044C19.7442 4.24788 18.7899 3.2766 17.5814 3.2766H6.4186ZM3 5.42044C3 3.52044 4.53875 2 6.4186 2H17.5814C19.4612 2 21 3.52044 21 5.42044V15.6405C21 17.5297 19.4626 19.0609 17.5814 19.0609H16.8744C16.2914 19.0609 15.7445 19.288 15.3442 19.6911L15.3416 19.6937L13.7509 21.2768L13.7506 21.2771C12.781 22.241 11.2097 22.241 10.24 21.2771L10.2398 21.2768L8.6491 19.6937L8.64647 19.6911C8.24694 19.2887 7.69112 19.0609 7.11628 19.0609H6.4186C4.53875 19.0609 3 17.5405 3 15.6405V5.42044ZM10.1395 7.951C9.19865 7.951 8.44186 8.71841 8.44186 9.66398C8.44186 10.9244 9.01867 11.943 9.77007 12.7167C10.5208 13.4896 11.4068 13.9749 11.9269 14.1598C11.9301 14.1604 11.9357 14.1615 11.944 14.1625C11.9606 14.1647 11.9812 14.1661 12.0035 14.1661C12.0258 14.1661 12.0451 14.1647 12.0592 14.1628C12.0635 14.1622 12.0667 14.1617 12.0687 14.1613C12.5876 13.9778 13.4743 13.4922 14.2261 12.717C14.9763 11.9435 15.5538 10.9244 15.5581 9.66299C15.5576 8.71787 14.801 7.951 13.8605 7.951C13.3017 7.951 12.8137 8.21673 12.4996 8.63609C12.3809 8.79467 12.1961 8.88776 12 8.88776C11.8039 8.88776 11.6191 8.79467 11.5004 8.63609C11.1863 8.21673 10.6983 7.951 10.1395 7.951ZM7.18605 9.66398C7.18605 8.00536 8.51298 6.67441 10.1395 6.67441C10.8467 6.67441 11.4923 6.9232 12 7.34C12.5077 6.9232 13.1533 6.67441 13.8605 6.67441C15.487 6.67441 16.814 8.00536 16.814 9.66398L16.8139 9.66602C16.8086 11.3549 16.0281 12.6774 15.1204 13.6133C14.2199 14.5417 13.1563 15.1318 12.4641 15.3731L12.4574 15.3755L12.4573 15.3754C12.3031 15.4272 12.1382 15.4427 12.0035 15.4427C11.8669 15.4427 11.7053 15.4267 11.5538 15.3791C11.5478 15.3772 11.5418 15.3752 11.5359 15.3731C10.8442 15.132 9.77827 14.5421 8.87644 13.6136C7.96738 12.6776 7.18605 11.3543 7.18605 9.66398Z" fill="#595854"/>
</svg>
