<svg width="24" height="24" viewBox="0 0 24 24" fill="none" xmlns="http://www.w3.org/2000/svg">
<path fill-rule="evenodd" clip-rule="evenodd" d="M9.25009 3C9.25009 2.58579 9.58587 2.25 10.0001 2.25H14.0001C14.4143 2.25 14.7501 2.58579 14.7501 3C14.7501 3.41421 14.4143 3.75 14.0001 3.75H12.7501V7.81615C13.7437 7.99354 14.6184 8.51719 15.2457 9.25926L18.7653 7.22586L18.1408 6.14534C17.9335 5.78673 18.0561 5.32797 18.4148 5.12068C18.7734 4.91339 19.2321 5.03606 19.4394 5.39467L20.4389 7.12373C20.4391 7.12409 20.4393 7.12445 20.4395 7.12481C20.4393 7.12455 20.4396 7.12508 20.4395 7.12481L21.4394 8.85466C21.6467 9.21327 21.524 9.67203 21.1654 9.87932C20.8068 10.0866 20.3481 9.96394 20.1408 9.60533L19.516 8.52451L15.9977 10.5571C16.1611 11.0072 16.2501 11.4911 16.2501 12C16.2501 12.5089 16.1611 12.9928 15.9977 13.4429L19.516 15.4755L20.1408 14.3947C20.3481 14.0361 20.8068 13.9134 21.1654 14.1207C21.524 14.328 21.6467 14.7867 21.4394 15.1453L20.4399 16.8744C20.4398 16.8747 20.4401 16.8742 20.4399 16.8744C20.4397 16.8748 20.4391 16.8759 20.4389 16.8762L19.4394 18.6053C19.2321 18.9639 18.7734 19.0866 18.4148 18.8793C18.0561 18.672 17.9335 18.2133 18.1408 17.8547L18.7653 16.7741L15.2457 14.7407C14.6184 15.4828 13.7437 16.0065 12.7501 16.1839V20.25H14.0001C14.4143 20.25 14.7501 20.5858 14.7501 21C14.7501 21.4142 14.4143 21.75 14.0001 21.75H10.0001C9.58587 21.75 9.25009 21.4142 9.25009 21C9.25009 20.5858 9.58587 20.25 10.0001 20.25H11.2501V16.1839C10.2565 16.0065 9.38177 15.4828 8.75446 14.7407L5.23483 16.7741L5.85941 17.8547C6.0667 18.2133 5.94403 18.672 5.58542 18.8793C5.22681 19.0866 4.76805 18.9639 4.56076 18.6053L2.56076 15.1453C2.35347 14.7867 2.47614 14.328 2.83475 14.1207C3.19336 13.9134 3.65212 14.0361 3.85941 14.3947L4.48416 15.4755L8.00243 13.4429C7.83905 12.9928 7.75009 12.5089 7.75009 12C7.75009 11.4911 7.83905 11.0072 8.00243 10.5571L4.48416 8.52451L3.85941 9.60533C3.65212 9.96394 3.19336 10.0866 2.83475 9.87932C2.47614 9.67203 2.35347 9.21327 2.56076 8.85466L3.56062 7.12492L4.56076 5.39467C4.76805 5.03606 5.22681 4.91339 5.58542 5.12068C5.94403 5.32797 6.0667 5.78673 5.85941 6.14534L5.23483 7.22586L8.75446 9.25926C9.38177 8.51719 10.2565 7.99354 11.2501 7.81615V3.75H10.0001C9.58587 3.75 9.25009 3.41421 9.25009 3ZM9.61918 10.6257C9.38248 11.0364 9.25009 11.4974 9.25009 12C9.25009 12.5025 9.38247 12.9636 9.61914 13.3742C10.1009 14.2027 10.9891 14.75 12.0001 14.75C13.011 14.75 13.8993 14.2027 14.381 13.3742C14.6177 12.9636 14.7501 12.5025 14.7501 12C14.7501 11.4974 14.6177 11.0364 14.381 10.6258C13.8993 9.79731 13.011 9.25 12.0001 9.25C10.9892 9.25 10.1009 9.79731 9.61918 10.6257Z" fill="#595854"/>
</svg>
