<svg width="24" height="24" viewBox="0 0 24 24" fill="none" xmlns="http://www.w3.org/2000/svg">
<path fill-rule="evenodd" clip-rule="evenodd" d="M3.09467 3.09467C4.42914 1.7602 6.42603 1.25 9 1.25H15C17.574 1.25 19.5709 1.7602 20.9053 3.09467C22.1295 4.3188 22.66 6.10033 22.7394 8.37339C22.7464 8.41455 22.75 8.45685 22.75 8.5C22.75 8.52828 22.7484 8.55618 22.7454 8.58365C22.7485 8.7207 22.75 8.85949 22.75 9V11C22.75 11.4142 22.4142 11.75 22 11.75C21.5858 11.75 21.25 11.4142 21.25 11V9.25H16.26V11.99C16.26 12.4042 15.9242 12.74 15.51 12.74C15.0958 12.74 14.76 12.4042 14.76 11.99V9.25H9.26001V14.75H12C12.4142 14.75 12.75 15.0858 12.75 15.5C12.75 15.9142 12.4142 16.25 12 16.25H9.26001V21.25H10C10.4142 21.25 10.75 21.5858 10.75 22C10.75 22.4142 10.4142 22.75 10 22.75H9C6.42603 22.75 4.42914 22.2398 3.09467 20.9053C1.7602 19.5709 1.25 17.574 1.25 15V9C1.25 6.42603 1.7602 4.42914 3.09467 3.09467ZM7.76001 21.2013V16.25H2.79956C2.94511 17.9604 3.40862 19.098 4.15533 19.8447C4.9035 20.5928 6.04406 21.0567 7.76001 21.2013ZM2.75 14.75H7.76001V9.25H2.75V14.75ZM2.79956 7.75H7.76001V2.79871C6.04406 2.9433 4.9035 3.40716 4.15533 4.15533C3.40862 4.90204 2.94511 6.03962 2.79956 7.75ZM9.26001 2.75V7.75H14.76V2.75H9.26001ZM16.26 2.80042V7.75H21.2004C21.0549 6.03962 20.5914 4.90204 19.8447 4.15533C19.0994 3.41008 17.9648 2.94692 16.26 2.80042ZM16.6337 15.1722C16.4505 15.3992 16.35 15.7792 16.35 16.4V16.45H19.65V16.4C19.65 15.7792 19.5495 15.3992 19.3663 15.1722C19.2113 14.9801 18.873 14.75 18 14.75C17.127 14.75 16.7887 14.9801 16.6337 15.1722ZM21.15 16.5552V16.4C21.15 15.6908 21.0505 14.8708 20.5337 14.2303C19.9887 13.5549 19.127 13.25 18 13.25C16.873 13.25 16.0113 13.5549 15.4663 14.2303C14.9495 14.8708 14.85 15.6908 14.85 16.4V16.5552C14.4797 16.6423 14.1417 16.7976 13.8697 17.0696C13.3312 17.6081 13.25 18.4053 13.25 19.2V20C13.25 20.7946 13.3312 21.5918 13.8697 22.1303C14.4082 22.6688 15.2054 22.75 16 22.75H20C20.7946 22.75 21.5918 22.6688 22.1303 22.1303C22.6688 21.5918 22.75 20.7946 22.75 20V19.2C22.75 18.4053 22.6688 17.6081 22.1303 17.0696C21.8583 16.7976 21.5203 16.6423 21.15 16.5552ZM14.9303 18.1303C14.8688 18.1918 14.75 18.3946 14.75 19.2V20C14.75 20.8054 14.8688 21.0082 14.9303 21.0697C14.9918 21.1312 15.1946 21.25 16 21.25H20C20.8054 21.25 21.0082 21.1312 21.0697 21.0697C21.1312 21.0082 21.25 20.8054 21.25 20V19.2C21.25 18.3946 21.1312 18.1918 21.0697 18.1303C21.0082 18.0688 20.8054 17.95 20 17.95H16C15.1946 17.95 14.9918 18.0688 14.9303 18.1303Z" fill="#595854"/>
</svg>
