<svg width="24" height="24" viewBox="0 0 24 24" fill="none" xmlns="http://www.w3.org/2000/svg">
<path fill-rule="evenodd" clip-rule="evenodd" d="M12.015 6.7575C11.2827 6.7575 10.399 7.23928 9.64925 8.53551L6.96925 13.1555C6.96919 13.1556 6.96931 13.1554 6.96925 13.1555C6.22014 14.4508 6.24469 15.4571 6.61082 16.0913C6.9771 16.7258 7.83613 17.25 9.33003 17.25H14.7C16.1939 17.25 17.053 16.7258 17.4192 16.0913C17.7853 15.4571 17.8101 14.4513 17.0612 13.1561C17.061 13.1559 17.0613 13.1563 17.0612 13.1561L14.3813 8.53633C13.6315 7.2401 12.7474 6.7575 12.015 6.7575ZM15.6788 7.78367C14.7685 6.21039 13.4674 5.2575 12.015 5.2575C10.5625 5.2575 9.26135 6.21051 8.3511 7.78398C8.351 7.78415 8.3512 7.78381 8.3511 7.78398L5.67128 12.4037C4.76057 13.9782 4.58539 15.583 5.31174 16.8412C6.03795 18.0992 7.51392 18.75 9.33003 18.75H14.7C16.5161 18.75 17.9921 18.0992 18.7183 16.8412C19.4447 15.583 19.27 13.979 18.3593 12.4045L15.6788 7.78367Z" fill="#595854"/>
</svg>
