<svg width="24" height="24" viewBox="0 0 24 24" fill="none" xmlns="http://www.w3.org/2000/svg">
<path fill-rule="evenodd" clip-rule="evenodd" d="M15.4565 2.26504C16.6152 0.942537 18.79 1.77167 18.79 3.51997V9.96997H21.13C22.7733 9.96997 23.6507 11.8994 22.563 13.1354L22.563 13.1355L14.9944 21.7339C14.9942 21.7341 14.994 21.7344 14.9937 21.7346C13.8351 23.0575 11.66 22.2284 11.66 20.48V14.03H9.32C7.68021 14.03 6.81697 12.0991 7.88323 10.8688L7.88701 10.8644L7.88703 10.8644L15.4555 2.26609C15.4559 2.26574 15.4562 2.26539 15.4565 2.26504ZM17.29 3.51997C17.29 3.14875 16.8259 2.97785 16.5844 3.25385L16.5829 3.25552L9.01532 11.8528C8.78385 12.1226 8.98048 12.53 9.32 12.53H12.41C12.8242 12.53 13.16 12.8658 13.16 13.28V20.48C13.16 20.8512 13.6241 21.0221 13.8655 20.7461L13.867 20.7444L21.437 12.1445C21.6693 11.8805 21.4867 11.47 21.13 11.47H18.04C17.6258 11.47 17.29 11.1342 17.29 10.72V3.51997ZM0.75 3.99997C0.75 3.58576 1.08579 3.24997 1.5 3.24997H8.5C8.91421 3.24997 9.25 3.58576 9.25 3.99997C9.25 4.41419 8.91421 4.74997 8.5 4.74997H1.5C1.08579 4.74997 0.75 4.41419 0.75 3.99997ZM0.75 12C0.75 11.5858 1.08579 11.25 1.5 11.25H4.5C4.91421 11.25 5.25 11.5858 5.25 12C5.25 12.4142 4.91421 12.75 4.5 12.75H1.5C1.08579 12.75 0.75 12.4142 0.75 12ZM0.75 20C0.75 19.5858 1.08579 19.25 1.5 19.25H7.5C7.91421 19.25 8.25 19.5858 8.25 20C8.25 20.4142 7.91421 20.75 7.5 20.75H1.5C1.08579 20.75 0.75 20.4142 0.75 20Z" fill="#595854"/>
</svg>
