<svg width="24" height="24" viewBox="0 0 24 24" fill="none" xmlns="http://www.w3.org/2000/svg">
<path fill-rule="evenodd" clip-rule="evenodd" d="M10.5342 3.52645L7.8932 6.24997H16.851C16.7177 5.90053 16.5261 5.58673 16.2697 5.3303L14.4697 3.53031C13.3639 2.4245 11.6414 2.42321 10.5342 3.52645ZM17.7526 7.74997H7C6.70688 7.74997 6.61297 7.75286 6.43717 7.81146C6.38806 7.82783 6.33739 7.83907 6.28596 7.845C5.15378 7.97564 4.28472 8.44599 3.69563 9.13667C3.10398 9.83033 2.75 10.7993 2.75 12V13C2.75 13.4142 2.41421 13.75 2 13.75C1.58579 13.75 1.25 13.4142 1.25 13V12C1.25 10.5007 1.69602 9.1696 2.55437 8.16325C3.33441 7.24872 4.41823 6.64589 5.70679 6.41473C5.8637 6.17409 6.05547 5.98307 6.22561 5.81359C6.2391 5.80015 6.25246 5.78684 6.26565 5.77366L9.46961 2.46959C11.1625 0.776696 13.8374 0.776759 15.5303 2.46965L17.3303 4.26964C17.9289 4.86824 18.2725 5.60908 18.4449 6.34852C21.045 6.91327 22.75 9.15281 22.75 12V17C22.75 18.6704 22.1899 20.1207 21.1553 21.1553C20.1207 22.1899 18.6704 22.75 17 22.75H12C11.5858 22.75 11.25 22.4142 11.25 22C11.25 21.5858 11.5858 21.25 12 21.25H17C18.3296 21.25 19.3793 20.8101 20.0947 20.0946C20.7646 19.4247 21.193 18.4616 21.2447 17.25H19C17.4858 17.25 16.25 16.0142 16.25 14.5C16.25 12.9858 17.4858 11.75 19 11.75H21.2445C21.1462 9.54474 19.745 8.00836 17.7526 7.74997ZM21.25 13.25H19C18.3142 13.25 17.75 13.8142 17.75 14.5C17.75 15.1858 18.3142 15.75 19 15.75H21.25V13.25ZM1.85156 18.2C1.85156 16.0158 3.61735 14.25 5.80157 14.25C7.98579 14.25 9.75156 16.0158 9.75156 18.2C9.75156 20.3842 7.98579 22.15 5.80157 22.15C4.97904 22.15 4.21584 21.8996 3.58394 21.4707C3.56732 21.4913 3.54945 21.5112 3.53033 21.5303L2.53033 22.5303C2.23744 22.8232 1.76256 22.8232 1.46967 22.5303C1.17678 22.2374 1.17678 21.7625 1.46967 21.4696L2.46967 20.4696C2.48889 20.4504 2.5089 20.4325 2.52959 20.4158C2.10148 19.7842 1.85156 19.0217 1.85156 18.2ZM5.80157 15.75C4.44578 15.75 3.35156 16.8442 3.35156 18.2C3.35156 19.5558 4.44578 20.65 5.80157 20.65C7.15735 20.65 8.25156 19.5558 8.25156 18.2C8.25156 16.8442 7.15735 15.75 5.80157 15.75Z" fill="#595854"/>
</svg>
