<svg width="24" height="24" viewBox="0 0 24 24" fill="none" xmlns="http://www.w3.org/2000/svg">
<path fill-rule="evenodd" clip-rule="evenodd" d="M6.5 2.75C5.61698 2.75 4.80173 3.05774 4.16037 3.57416L4.15439 3.57897C3.29155 4.25929 2.75 5.31377 2.75 6.5C2.75 7.19677 2.94918 7.86371 3.29228 8.43275L3.29312 8.43413C3.74356 9.18488 4.45167 9.76666 5.29717 10.0485L5.31126 10.0533C5.67526 10.1828 6.06976 10.25 6.5 10.25C7.45055 10.25 8.3051 9.90127 8.96262 9.31866L8.97185 9.31049C9.25776 9.06542 9.50636 8.76834 9.70689 8.43414C9.88252 8.14141 10.0153 7.8342 10.1068 7.50114L10.1095 7.49145C10.2002 7.17825 10.25 6.83843 10.25 6.5C10.25 4.42421 8.57579 2.75 6.5 2.75ZM3.22262 2.40342C4.12081 1.68128 5.26439 1.25 6.5 1.25C9.40421 1.25 11.75 3.59579 11.75 6.5C11.75 6.66888 11.7414 6.83759 11.7246 7.00475L12.1835 7.03359L13.7148 4.61117C13.7151 4.61079 13.7153 4.6104 13.7156 4.61002C14.2492 3.76091 15.0878 3.28806 16.0041 3.25182C16.9077 3.21607 17.8157 3.60504 18.5403 4.32964L21.718 7.5073C21.7184 7.50772 21.7188 7.50814 21.7193 7.50856C23.1197 8.89807 23.1582 11.2574 21.4527 12.3428L21.4507 12.344L19.025 13.8773L19.2379 17.5311C19.3565 18.7367 19.2329 19.7676 18.5893 20.5218C17.9527 21.2677 16.9596 21.5598 15.8288 21.6947L7.10799 22.7248L7.10505 22.7251C5.98338 22.8532 4.95864 22.5168 4.24718 21.8053C3.53545 21.0936 3.20095 20.0701 3.33528 18.9512C3.33525 18.9514 3.33531 18.951 3.33528 18.9512L4.24789 11.2405C3.31035 10.7966 2.53238 10.0817 2.00687 9.20588L2.64999 8.82001L2.00771 9.20727C1.53081 8.41631 1.25 7.48323 1.25 6.5C1.25 4.84759 2.00723 3.36317 3.22262 2.40342ZM5.70503 11.6911C5.96459 11.7305 6.22975 11.75 6.5 11.75C7.82724 11.75 9.0309 11.2604 9.95279 10.4454C10.3648 10.0913 10.7147 9.66991 10.9931 9.20588C11.1321 8.97419 11.2527 8.73424 11.3544 8.48445L12.2501 8.54073L17.5185 13.8091L17.7413 17.6336C17.7419 17.6439 17.7427 17.6543 17.7437 17.6646C17.8525 18.7522 17.6893 19.2656 17.4483 19.5481C17.1973 19.8422 16.7004 20.0801 15.6512 20.2052L6.93496 21.2348C6.93455 21.2349 6.93414 21.2349 6.93372 21.235C6.56928 21.2764 6.24683 21.2404 5.97144 21.1487L8.99117 18.1195C9.2836 17.8261 9.28285 17.3512 8.9895 17.0588C8.69614 16.7664 8.22127 16.7671 7.92884 17.0605L4.90816 20.0907C4.81604 19.8156 4.78089 19.4935 4.82464 19.1296L5.70503 11.6911ZM18.3562 12.5255L20.6473 11.0773C20.6477 11.0771 20.648 11.0769 20.6483 11.0766C21.3615 10.6218 21.54 9.44289 20.662 8.57263L20.6597 8.5703L17.4797 5.3903C17.0043 4.9149 16.4873 4.73388 16.0634 4.75065C15.6526 4.7669 15.2616 4.96865 14.9852 5.40882L14.984 5.41075L13.5344 7.70376L18.3562 12.5255ZM6.52 4.07001C6.93422 4.07001 7.27 4.40579 7.27 4.82001V5.75H8.16C8.57422 5.75 8.91 6.08579 8.91 6.5C8.91 6.91421 8.57422 7.25 8.16 7.25H7.27V8.17999C7.27 8.59421 6.93422 8.92999 6.52 8.92999C6.10579 8.92999 5.77 8.59421 5.77 8.17999V7.25H4.8C4.38579 7.25 4.05 6.91421 4.05 6.5C4.05 6.08579 4.38579 5.75 4.8 5.75H5.77V4.82001C5.77 4.40579 6.10579 4.07001 6.52 4.07001Z" fill="#595854"/>
</svg>
