<svg width="24" height="24" viewBox="0 0 24 24" fill="none" xmlns="http://www.w3.org/2000/svg">
<path fill-rule="evenodd" clip-rule="evenodd" d="M3.09467 3.09467C4.42914 1.7602 6.42603 1.25 9 1.25H15C17.574 1.25 19.5709 1.7602 20.9053 3.09467C22.2398 4.42914 22.75 6.42603 22.75 9V15C22.75 17.574 22.2398 19.5709 20.9053 20.9053C19.5709 22.2398 17.574 22.75 15 22.75H9C6.42603 22.75 4.42914 22.2398 3.09467 20.9053C1.7602 19.5709 1.25 17.574 1.25 15V9C1.25 6.42603 1.7602 4.42914 3.09467 3.09467ZM4.15533 4.15533C3.2398 5.07086 2.75 6.57397 2.75 9V15C2.75 17.426 3.2398 18.9291 4.15533 19.8447C5.07086 20.7602 6.57397 21.25 9 21.25H15C17.426 21.25 18.9291 20.7602 19.8447 19.8447C20.7602 18.9291 21.25 17.426 21.25 15V9C21.25 6.57397 20.7602 5.07086 19.8447 4.15533C18.9291 3.2398 17.426 2.75 15 2.75H9C6.57397 2.75 5.07086 3.2398 4.15533 4.15533ZM13.533 6.15709C13.8132 6.041 14.1358 6.10517 14.3503 6.31967L17.3903 9.35967C17.6832 9.65256 17.6832 10.1274 17.3903 10.4203C17.0974 10.7132 16.6226 10.7132 16.3297 10.4203L14.57 8.66066V17.15C14.57 17.5642 14.2342 17.9 13.82 17.9C13.4058 17.9 13.07 17.5642 13.07 17.15V6.85C13.07 6.54665 13.2527 6.27317 13.533 6.15709ZM10.18 6.1C10.5942 6.1 10.93 6.43578 10.93 6.85V17.15C10.93 17.4533 10.7473 17.7268 10.467 17.8429C10.1868 17.959 9.86417 17.8948 9.64967 17.6803L6.60967 14.6403C6.31678 14.3474 6.31678 13.8726 6.60967 13.5797C6.90256 13.2868 7.37744 13.2868 7.67033 13.5797L9.43 15.3393V6.85C9.43 6.43578 9.76579 6.1 10.18 6.1Z" fill="#595854"/>
</svg>
