<svg width="24" height="24" viewBox="0 0 24 24" fill="none" xmlns="http://www.w3.org/2000/svg">
<path fill-rule="evenodd" clip-rule="evenodd" d="M5.53959 2.64475C6.163 2.1886 6.94021 1.90002 7.71997 1.90002H11.52C11.8924 1.90002 12.3367 1.96051 12.751 2.07888C13.1318 2.18767 13.581 2.37156 13.9114 2.68196L16.0828 4.36306C16.1944 4.08618 16.3569 3.83567 16.5863 3.62392C17.1228 3.12865 17.8625 3.00002 18.62 3.00002H19.62C20.3775 3.00002 21.1171 3.12865 21.6537 3.62392C22.205 4.1328 22.37 4.86551 22.37 5.65002V15.45C22.37 16.2345 22.205 16.9672 21.6537 17.4761C21.1171 17.9714 20.3775 18.1 19.62 18.1H18.62C17.8625 18.1 17.1228 17.9714 16.5863 17.4761C16.3052 17.2167 16.1245 16.899 16.0149 16.5459L13.044 20.966C13.0437 20.9665 13.0435 20.9669 13.0432 20.9673C12.734 21.4303 12.2351 21.7676 11.7138 21.9468C11.1908 22.1266 10.5629 22.1754 9.96973 21.9571C8.74696 21.542 7.91055 20.2025 8.1823 18.9129L8.67805 15.7401C8.69694 15.6012 8.65616 15.5246 8.62009 15.4837C8.57826 15.4363 8.50982 15.4 8.41997 15.4H4.41997C3.46706 15.4 2.6273 15.0136 2.11618 14.3199C1.60333 13.6239 1.49043 12.7114 1.81028 11.8073L4.19959 4.5398C4.40543 3.74955 4.92299 3.09592 5.53959 2.64475ZM15.87 14.0726V6.0953L12.9233 3.81397L12.8896 3.78035C12.823 3.71371 12.643 3.60804 12.3389 3.52117C12.0532 3.43954 11.7475 3.40002 11.52 3.40002H7.71997C7.29974 3.40002 6.82694 3.56145 6.42535 3.8553C6.0243 4.14875 5.74684 4.53489 5.64758 4.93193L5.64097 4.95837L3.22948 12.2933L3.22628 12.3023C3.0503 12.795 3.13841 13.1786 3.32376 13.4301C3.51264 13.6865 3.87289 13.9 4.41997 13.9H8.41997C9.46332 13.9 10.3288 14.7914 10.1624 15.9561L10.161 15.9658L9.65729 19.1894L9.65211 19.2127C9.54144 19.7107 9.89511 20.3512 10.4571 20.5385L10.4703 20.5429L10.4833 20.5478C10.6863 20.6239 10.953 20.6221 11.2262 20.5283C11.5043 20.4326 11.705 20.2703 11.7959 20.134L11.7975 20.1316L15.87 14.0726ZM17.6037 4.72613C17.505 4.81725 17.37 5.03454 17.37 5.65002V15.45C17.37 16.0655 17.505 16.2828 17.6037 16.3739C17.7171 16.4786 17.9775 16.6 18.62 16.6H19.62C20.2625 16.6 20.5228 16.4786 20.6363 16.3739C20.735 16.2828 20.87 16.0655 20.87 15.45V5.65002C20.87 5.03454 20.735 4.81725 20.6363 4.72613C20.5228 4.6214 20.2625 4.50002 19.62 4.50002H18.62C17.9775 4.50002 17.7171 4.6214 17.6037 4.72613Z" fill="#595854"/>
</svg>
