<svg width="24" height="24" viewBox="0 0 24 24" fill="none" xmlns="http://www.w3.org/2000/svg">
<path fill-rule="evenodd" clip-rule="evenodd" d="M13.2888 1.83503L18.2802 7.92455C18.287 7.93289 18.2937 7.94138 18.3002 7.95C18.6618 8.43213 18.6133 9.02412 18.3127 9.425C18.0198 9.81547 17.4506 10.0509 16.8857 9.78106L12.1339 7.70214C12.0755 7.68405 12.0415 7.67801 12.025 7.676C12.017 7.67985 12.0089 7.68356 12.0008 7.68712L7.21449 9.78112C6.66009 10.0456 6.06822 9.82918 5.77612 9.39103C5.46733 8.92785 5.53717 8.32839 5.93937 7.90106L10.9115 1.83502C11.5114 1.05499 12.6889 1.05499 13.2888 1.83503ZM16.3161 7.89461L12.1201 2.77545C12.1133 2.76711 12.1066 2.75862 12.1002 2.75C12.0937 2.75862 12.087 2.76711 12.0802 2.77545L7.94007 7.8264L11.3847 6.31937C11.8182 6.11017 12.2338 6.15399 12.6373 6.28849C12.6588 6.29566 12.68 6.3038 12.7008 6.31288L16.3161 7.89461ZM11.6647 8.72918C11.8759 8.62361 12.1244 8.62361 12.3356 8.72918L17.5356 11.3292C17.7897 11.4562 17.9502 11.7159 17.9502 12C17.9502 12.2841 17.7897 12.5438 17.5356 12.6708L12.3356 15.2708C12.1244 15.3764 11.8759 15.3764 11.6647 15.2708L6.46475 12.6708C6.21066 12.5438 6.05016 12.2841 6.05016 12C6.05016 11.7159 6.21066 11.4562 6.46475 11.3292L11.6647 8.72918ZM8.47721 12L12.0002 13.7615L15.5231 12L12.0002 10.2385L8.47721 12ZM16.3162 16.1054L12.7008 17.6871C12.68 17.6962 12.6588 17.7043 12.6373 17.7115C12.2338 17.846 11.8182 17.8898 11.3847 17.6806L7.94007 16.1736L12.0802 21.2246C12.087 21.2329 12.0937 21.2414 12.1002 21.25C12.1066 21.2414 12.1133 21.2329 12.1201 21.2246L16.3162 16.1054ZM18.3127 14.575C18.6133 14.9759 18.6618 15.5679 18.3002 16.05C18.2937 16.0586 18.287 16.0671 18.2802 16.0754L13.2888 22.165C12.6889 22.945 11.5114 22.945 10.9115 22.165L5.93937 16.0989C5.53716 15.6716 5.46733 15.0722 5.77612 14.609C6.06822 14.1708 6.6601 13.9544 7.2145 14.2189L12.0008 16.3129C12.0089 16.3164 12.017 16.3202 12.025 16.324C12.0415 16.322 12.0755 16.3159 12.1339 16.2979L16.8857 14.2189C17.4506 13.9491 18.0198 14.1845 18.3127 14.575Z" fill="#595854"/>
</svg>
