<svg width="24" height="24" viewBox="0 0 24 24" fill="none" xmlns="http://www.w3.org/2000/svg">
<path fill-rule="evenodd" clip-rule="evenodd" d="M6.95999 3.84998C4.63813 3.84998 2.75 5.74025 2.75 8.08997C2.75 10.9705 4.07821 13.2774 5.75533 14.9947C7.02517 16.295 8.46932 17.2291 9.61282 17.7856C8.61359 16.45 7.88 14.7646 7.88 12.74C7.88 10.261 9.87055 8.24997 12.34 8.24997C13.4864 8.24997 14.5283 8.68341 15.3174 9.38636C16.1029 8.68236 17.1453 8.24997 18.29 8.24997C18.5693 8.24997 18.8419 8.27551 19.1066 8.32446C19.1088 8.24662 19.11 8.16843 19.11 8.08997C19.11 5.74025 17.2219 3.84998 14.9 3.84998C13.527 3.84998 12.3047 4.50992 11.5294 5.54076C11.3873 5.72971 11.1644 5.84059 10.928 5.83996C10.6916 5.83934 10.4693 5.72727 10.3282 5.53758C9.56463 4.51098 8.34446 3.84998 6.95999 3.84998ZM19.4786 9.99674C19.1108 9.83721 18.7132 9.74997 18.29 9.74997C17.317 9.74997 16.4562 10.2198 15.9216 10.9378C15.7806 11.1272 15.5587 11.2391 15.3227 11.24C15.0866 11.2408 14.8639 11.1304 14.7216 10.9421C14.1755 10.2193 13.3121 9.74997 12.34 9.74997C10.7094 9.74997 9.38 11.0789 9.38 12.74C9.38 15.1324 10.6439 16.9935 12.1254 18.2968L12.1256 18.297C13.2246 19.2645 14.4085 19.8826 15.1397 20.1293L15.1464 20.1316L15.1464 20.1316C15.1461 20.1315 15.1506 20.1331 15.1605 20.1353C15.1702 20.1376 15.1833 20.1401 15.1995 20.1424C15.2326 20.1471 15.2723 20.15 15.315 20.15C15.3577 20.15 15.3974 20.1471 15.4305 20.1424C15.4467 20.1401 15.4598 20.1376 15.4695 20.1353C15.4786 20.1332 15.4832 20.1317 15.4836 20.1316C15.4836 20.1316 15.4836 20.1316 15.4836 20.1316L15.4884 20.1299L15.4885 20.1299C16.3503 19.8367 17.8158 19.0441 19.0558 17.7736C20.2867 16.5125 21.25 14.8306 21.25 12.74C21.25 11.5055 20.5233 10.4603 19.4786 9.99674ZM20.5783 8.88129C21.8819 9.66596 22.75 11.0955 22.75 12.74C22.75 15.3293 21.5483 17.3674 20.1292 18.8213C18.7201 20.265 17.0516 21.1821 15.9735 21.5494C15.7565 21.6243 15.5187 21.65 15.315 21.65C15.1115 21.65 14.8742 21.6244 14.6574 21.5497C13.8101 21.2633 12.6082 20.6376 11.4625 19.7012C11.2822 19.7381 11.0976 19.7525 10.93 19.7525C10.6777 19.7525 10.3869 19.7198 10.13 19.6271C8.72854 19.1442 6.53578 17.9408 4.68217 16.0427C2.81679 14.1326 1.25 11.4694 1.25 8.08997C1.25 4.91969 3.80186 2.34998 6.95999 2.34998C8.5071 2.34998 9.90745 2.96168 10.9322 3.95803C11.961 2.96298 13.3592 2.34998 14.9 2.34998C18.0581 2.34998 20.61 4.91969 20.61 8.08997C20.61 8.35915 20.5986 8.62366 20.5783 8.88129ZM11.3067 18.186C11.3077 18.1856 11.3079 18.1856 11.3071 18.1859L11.3067 18.186Z" fill="#595854"/>
</svg>
