<svg width="24" height="24" viewBox="0 0 24 24" fill="none" xmlns="http://www.w3.org/2000/svg">
<path fill-rule="evenodd" clip-rule="evenodd" d="M6.22133 4.22681C5.75341 4.70097 5.5 5.5934 5.5 7.5V17C5.5 18.9066 5.75341 19.799 6.22133 20.2732C6.68583 20.7439 7.55843 21 9.4375 21H15.0625C16.9416 21 17.8142 20.7439 18.2787 20.2732C18.7466 19.799 19 18.9066 19 17V7.5C19 5.5934 18.7466 4.70097 18.2787 4.22681C17.8142 3.75611 16.9416 3.5 15.0625 3.5H9.4375C7.55843 3.5 6.68583 3.75611 6.22133 4.22681ZM5.15367 3.17319C6.09542 2.21889 7.56657 2 9.4375 2H15.0625C16.9334 2 18.4046 2.21889 19.3463 3.17319C20.2847 4.12403 20.5 5.6066 20.5 7.5V17C20.5 18.8934 20.2847 20.376 19.3463 21.3268C18.4046 22.2811 16.9334 22.5 15.0625 22.5H9.4375C7.56657 22.5 6.09542 22.2811 5.15367 21.3268C4.21534 20.376 4 18.8934 4 17V7.5C4 5.6066 4.21534 4.12403 5.15367 3.17319ZM9.625 6.075C9.625 5.66079 9.96079 5.325 10.375 5.325H14.125C14.5392 5.325 14.875 5.66079 14.875 6.075C14.875 6.48921 14.5392 6.825 14.125 6.825H10.375C9.96079 6.825 9.625 6.48921 9.625 6.075ZM12.25 16.8C11.871 16.8 11.5469 17.1141 11.5469 17.5225C11.5469 17.9309 11.871 18.245 12.25 18.245C12.629 18.245 12.9531 17.9309 12.9531 17.5225C12.9531 17.1141 12.629 16.8 12.25 16.8ZM10.0469 17.5225C10.0469 16.3044 11.0239 15.3 12.25 15.3C13.4761 15.3 14.4531 16.3044 14.4531 17.5225C14.4531 18.7406 13.4761 19.745 12.25 19.745C11.0239 19.745 10.0469 18.7406 10.0469 17.5225Z" fill="#595854"/>
</svg>
