<svg width="24" height="24" viewBox="0 0 24 24" fill="none" xmlns="http://www.w3.org/2000/svg">
<path fill-rule="evenodd" clip-rule="evenodd" d="M4.15533 4.15533C3.2398 5.07086 2.75 6.57397 2.75 9V15C2.75 17.426 3.2398 18.9291 4.15533 19.8447C5.07086 20.7602 6.57397 21.25 9 21.25H15C17.426 21.25 18.9291 20.7602 19.8447 19.8447C20.7602 18.9291 21.25 17.426 21.25 15V9C21.25 6.57397 20.7602 5.07086 19.8447 4.15533C18.9291 3.2398 17.426 2.75 15 2.75H9C6.57397 2.75 5.07086 3.2398 4.15533 4.15533ZM3.09467 3.09467C4.42914 1.7602 6.42603 1.25 9 1.25H15C17.574 1.25 19.5709 1.7602 20.9053 3.09467C22.2398 4.42914 22.75 6.42603 22.75 9V15C22.75 17.574 22.2398 19.5709 20.9053 20.9053C19.5709 22.2398 17.574 22.75 15 22.75H9C6.42603 22.75 4.42914 22.2398 3.09467 20.9053C1.7602 19.5709 1.25 17.574 1.25 15V9C1.25 6.42603 1.7602 4.42914 3.09467 3.09467ZM7.1 7.04C6.84421 7.04 6.63 7.25421 6.63 7.51V16.5C6.63 16.7558 6.84421 16.97 7.1 16.97H9.55C9.80181 16.97 10.02 16.7598 10.02 16.49V7.51C10.02 7.25421 9.80579 7.04 9.55 7.04H7.1ZM5.13 7.51C5.13 6.42579 6.01579 5.54 7.1 5.54H9.55C10.6342 5.54 11.52 6.42579 11.52 7.51V16.49C11.52 17.5802 10.6382 18.47 9.55 18.47H7.1C6.01579 18.47 5.13 17.5842 5.13 16.5V7.51ZM14.2 7.04C14.0742 7.04 13.97 7.14421 13.97 7.27V12.65C13.97 12.7758 14.0742 12.88 14.2 12.88H17.14C17.204 12.88 17.2648 12.854 17.3097 12.8097C17.3539 12.766 17.3709 12.7173 17.3701 12.6741L17.37 12.6671V7.27C17.37 7.14422 17.2658 7.04 17.14 7.04H14.2ZM12.47 7.27C12.47 6.31579 13.2458 5.54 14.2 5.54H17.14C18.0942 5.54 18.87 6.31578 18.87 7.27V12.6539C18.8837 13.6231 18.0734 14.38 17.14 14.38H14.2C13.2458 14.38 12.47 13.6042 12.47 12.65V7.27Z" fill="#595854"/>
</svg>
