<svg width="24" height="24" viewBox="0 0 24 24" fill="none" xmlns="http://www.w3.org/2000/svg">
<path fill-rule="evenodd" clip-rule="evenodd" d="M3.09467 3.09467C4.42914 1.7602 6.42603 1.25 9 1.25H13C13.4142 1.25 13.75 1.58579 13.75 2C13.75 2.41421 13.4142 2.75 13 2.75H9C6.57397 2.75 5.07086 3.2398 4.15533 4.15533C3.2398 5.07086 2.75 6.57397 2.75 9V15C2.75 16.1133 2.85315 17.0323 3.05326 17.7893L7.18194 15.0173C8.24502 14.3041 9.75679 14.3761 10.7288 15.2111L10.7351 15.2166L11.0615 15.5035C11.5608 15.9296 12.4033 15.9288 12.9013 15.5011L17.0613 11.9311C17.0612 11.9311 17.0614 11.931 17.0613 11.9311C18.1224 11.0199 19.7977 11.0197 20.8587 11.9311C20.8587 11.931 20.8587 11.9311 20.8587 11.9311L21.25 12.2672V10C21.25 9.58579 21.5858 9.25 22 9.25C22.4142 9.25 22.75 9.58579 22.75 10V13.8959C22.75 13.8989 22.75 13.9018 22.75 13.9048V15C22.75 17.574 22.2398 19.5709 20.9053 20.9053C19.5709 22.2398 17.574 22.75 15 22.75H9C6.42603 22.75 4.42914 22.2398 3.09467 20.9053C1.7602 19.5709 1.25 17.574 1.25 15V9C1.25 6.42603 1.7602 4.42914 3.09467 3.09467ZM21.25 14.2445L19.8813 13.0689C19.3824 12.6404 18.5376 12.6404 18.0387 13.0689L13.8787 16.6389C13.8786 16.639 13.8788 16.6389 13.8787 16.6389C12.8176 17.5501 11.1423 17.5503 10.0813 16.6389L10.0749 16.6334L9.74844 16.3465C9.30007 15.9638 8.5339 15.9168 8.01806 16.2627L3.64345 19.1998C3.79556 19.4417 3.96638 19.6557 4.15533 19.8447C5.07086 20.7602 6.57397 21.25 9 21.25H15C17.426 21.25 18.9291 20.7602 19.8447 19.8447C20.7602 18.9291 21.25 17.426 21.25 15V14.2445ZM17.4697 1.46967C17.7626 1.17678 18.2374 1.17678 18.5303 1.46967L20.5303 3.46967C20.8232 3.76256 20.8232 4.23744 20.5303 4.53033C20.2374 4.82322 19.7626 4.82322 19.4697 4.53033L18.75 3.81066V8C18.75 8.41421 18.4142 8.75 18 8.75C17.5858 8.75 17.25 8.41421 17.25 8V3.81066L16.5303 4.53033C16.2374 4.82322 15.7626 4.82322 15.4697 4.53033C15.1768 4.23744 15.1768 3.76256 15.4697 3.46967L17.4697 1.46967ZM9 6.75C8.30964 6.75 7.75 7.30964 7.75 8C7.75 8.69036 8.30964 9.25 9 9.25C9.69036 9.25 10.25 8.69036 10.25 8C10.25 7.30964 9.69036 6.75 9 6.75ZM6.25 8C6.25 6.48122 7.48122 5.25 9 5.25C10.5188 5.25 11.75 6.48122 11.75 8C11.75 9.51878 10.5188 10.75 9 10.75C7.48122 10.75 6.25 9.51878 6.25 8Z" fill="#595854"/>
</svg>
