<svg width="24" height="24" viewBox="0 0 24 24" fill="none" xmlns="http://www.w3.org/2000/svg">
<path fill-rule="evenodd" clip-rule="evenodd" d="M14.5762 1.51987C14.8413 1.83807 14.7983 2.311 14.4801 2.57617L13.0715 3.75H17C18.5142 3.75 19.75 4.98579 19.75 6.5V15.325C21.4617 15.6725 22.75 17.1858 22.75 19C22.75 21.0711 21.0711 22.75 19 22.75C16.9289 22.75 15.25 21.0711 15.25 19C15.25 17.1858 16.5383 15.6725 18.25 15.325V6.5C18.25 5.81422 17.6858 5.25 17 5.25H13.0715L14.4801 6.42384C14.7983 6.68901 14.8413 7.16193 14.5762 7.48014C14.311 7.79835 13.8381 7.84134 13.5199 7.57617L10.5199 5.07617C10.3489 4.93367 10.25 4.72259 10.25 4.5C10.25 4.27742 10.3489 4.06633 10.5199 3.92384L13.5199 1.42384C13.8381 1.15866 14.311 1.20166 14.5762 1.51987ZM5 2.75C3.75736 2.75 2.75 3.75736 2.75 5C2.75 6.24264 3.75736 7.25 5 7.25C6.24264 7.25 7.25 6.24264 7.25 5C7.25 3.75736 6.24264 2.75 5 2.75ZM1.25 5C1.25 2.92894 2.92893 1.25 5 1.25C7.07107 1.25 8.75 2.92894 8.75 5C8.75 6.81422 7.46168 8.32754 5.75 8.67499V17.5C5.75 18.1858 6.31421 18.75 7 18.75H10.9285L9.51986 17.5762C9.20165 17.311 9.15866 16.8381 9.42383 16.5199C9.68901 16.2017 10.1619 16.1587 10.4801 16.4238L13.4801 18.9238C13.6511 19.0663 13.75 19.2774 13.75 19.5C13.75 19.7226 13.6511 19.9337 13.4801 20.0762L10.4801 22.5762C10.1619 22.8413 9.68901 22.7983 9.42383 22.4801C9.15866 22.1619 9.20165 21.689 9.51986 21.4238L10.9285 20.25H7C5.48579 20.25 4.25 19.0142 4.25 17.5V8.67499C2.53832 8.32754 1.25 6.81422 1.25 5ZM19 16.75C17.7574 16.75 16.75 17.7574 16.75 19C16.75 20.2426 17.7574 21.25 19 21.25C20.2426 21.25 21.25 20.2426 21.25 19C21.25 17.7574 20.2426 16.75 19 16.75Z" fill="#595854"/>
</svg>
