<svg width="24" height="24" viewBox="0 0 24 24" fill="none" xmlns="http://www.w3.org/2000/svg">
<path fill-rule="evenodd" clip-rule="evenodd" d="M12 2.75C6.89137 2.75 2.75 6.89137 2.75 12C2.75 17.1086 6.89137 21.25 12 21.25C17.1086 21.25 21.25 17.1086 21.25 12C21.25 6.89137 17.1086 2.75 12 2.75ZM1.25 12C1.25 6.06294 6.06294 1.25 12 1.25C17.9371 1.25 22.75 6.06294 22.75 12C22.75 17.9371 17.9371 22.75 12 22.75C6.06294 22.75 1.25 17.9371 1.25 12ZM13.533 6.1571C13.8133 6.04101 14.1358 6.10518 14.3503 6.31968L17.3903 9.35969C17.6832 9.65258 17.6832 10.1275 17.3903 10.4203C17.0974 10.7132 16.6225 10.7132 16.3297 10.4203L14.57 8.66068V17.15C14.57 17.5642 14.2342 17.9 13.82 17.9C13.4058 17.9 13.07 17.5642 13.07 17.15V6.85001C13.07 6.54666 13.2527 6.27318 13.533 6.1571ZM10.18 6.10001C10.5942 6.10001 10.93 6.43579 10.93 6.85001V17.15C10.93 17.4533 10.7473 17.7268 10.467 17.8429C10.1867 17.959 9.86416 17.8948 9.64966 17.6803L6.60968 14.6403C6.31679 14.3474 6.31679 13.8725 6.60969 13.5797C6.90258 13.2868 7.37746 13.2868 7.67035 13.5797L9.42999 15.3393V6.85001C9.42999 6.43579 9.76578 6.10001 10.18 6.10001Z" fill="#595854"/>
</svg>
