<svg width="24" height="24" viewBox="0 0 24 24" fill="none" xmlns="http://www.w3.org/2000/svg">
<path fill-rule="evenodd" clip-rule="evenodd" d="M10.8697 1.86967C11.3626 1.37678 12.1374 1.37678 12.6303 1.86967L14.3303 3.56967C14.8232 4.06256 14.8232 4.83744 14.3303 5.33033L9.23033 10.4303C8.73744 10.9232 7.96256 10.9232 7.46967 10.4303L5.76967 8.73033C5.27678 8.23744 5.27678 7.46256 5.76967 6.96967L10.8697 1.86967ZM11.75 3.11066L7.01066 7.85L8.35 9.18934L13.0893 4.45L11.75 3.11066ZM14.7697 5.76967C15.2626 5.27678 16.0374 5.27678 16.5303 5.76967L18.2303 7.46967C18.7232 7.96256 18.7232 8.73744 18.2303 9.23033L9.23033 18.2303C8.73744 18.7232 7.96256 18.7232 7.46967 18.2303L5.76967 16.5303C5.27678 16.0374 5.27678 15.2626 5.76967 14.7697L14.7697 5.76967ZM15.65 7.01066L7.01066 15.65L8.35 16.9893L16.9893 8.35L15.65 7.01066ZM4.26967 10.2303L4.26985 10.2305L4.26967 10.2303ZM4.45 10.4107L5.78934 11.75L4.45 13.0893L3.11066 11.75L4.45 10.4107ZM3.56967 9.16967C4.06256 8.67678 4.83744 8.67678 5.33033 9.16967L7.03033 10.8697C7.52322 11.3626 7.52322 12.1374 7.03033 12.6303L5.33033 14.3303C4.83744 14.8232 4.06256 14.8232 3.56967 14.3303L1.86967 12.6303C1.37678 12.1374 1.37678 11.3626 1.86967 10.8697L3.56967 9.16967ZM18.6697 9.66967C19.1626 9.17678 19.9374 9.17678 20.4303 9.66967L22.1303 11.3697C22.6232 11.8626 22.6232 12.6374 22.1303 13.1303L13.1303 22.1303C12.6374 22.6232 11.8626 22.6232 11.3697 22.1303L9.66967 20.4303C9.17678 19.9374 9.17678 19.1626 9.66967 18.6697L18.6697 9.66967ZM19.55 10.9107L10.9107 19.55L12.25 20.8893L20.8893 12.25L19.55 10.9107Z" fill="#595854"/>
</svg>
