<svg width="24" height="24" viewBox="0 0 24 24" fill="none" xmlns="http://www.w3.org/2000/svg">
<path fill-rule="evenodd" clip-rule="evenodd" d="M3.09467 3.09467C4.42914 1.7602 6.42603 1.25 9 1.25H15C17.574 1.25 19.5709 1.7602 20.9053 3.09467C22.2398 4.42914 22.75 6.42603 22.75 9V15C22.75 17.574 22.2398 19.5709 20.9053 20.9053C19.5709 22.2398 17.574 22.75 15 22.75H9C6.42603 22.75 4.42914 22.2398 3.09467 20.9053C1.7602 19.5709 1.25 17.574 1.25 15V9C1.25 6.42603 1.7602 4.42914 3.09467 3.09467ZM4.15533 4.15533C3.2398 5.07086 2.75 6.57397 2.75 9V15C2.75 17.426 3.2398 18.9291 4.15533 19.8447C5.07086 20.7602 6.57397 21.25 9 21.25H15C17.426 21.25 18.9291 20.7602 19.8447 19.8447C20.7602 18.9291 21.25 17.426 21.25 15V9C21.25 6.57397 20.7602 5.07086 19.8447 4.15533C18.9291 3.2398 17.426 2.75 15 2.75H9C6.57397 2.75 5.07086 3.2398 4.15533 4.15533ZM9.65135 7.62797C11.5129 5.77826 14.5165 5.77584 16.3704 7.62966L16.372 7.63135C18.2217 9.49292 18.2242 12.4965 16.3704 14.3503L14.1503 16.5703C13.0774 17.6432 11.3325 17.6432 10.2596 16.5703C9.18675 15.4974 9.18675 13.7525 10.2596 12.6796L11.6697 11.2696C11.9626 10.9767 12.4375 10.9768 12.7303 11.2697C13.0232 11.5625 13.0232 12.0374 12.7303 12.3303L11.3203 13.7403C11.3203 13.7403 11.3203 13.7403 11.3203 13.7403C10.8332 14.2274 10.8332 15.0226 11.3203 15.5097C11.8074 15.9968 12.6026 15.9968 13.0897 15.5097L15.3097 13.2897C16.5756 12.0238 16.5783 9.96795 15.3088 8.68945C14.0428 7.4244 11.9876 7.42201 10.7094 8.69123C10.7091 8.69149 10.7089 8.69175 10.7086 8.69201L8.29034 11.1103C7.24323 12.1574 7.24323 13.8525 8.29034 14.8996C8.58323 15.1925 8.58323 15.6674 8.29034 15.9603C7.99744 16.2532 7.52257 16.2532 7.22967 15.9603C5.59678 14.3274 5.59678 11.6825 7.22967 10.0496L9.65135 7.62797Z" fill="#595854"/>
</svg>
