<svg width="24" height="24" viewBox="0 0 24 24" fill="none" xmlns="http://www.w3.org/2000/svg">
<path fill-rule="evenodd" clip-rule="evenodd" d="M5 1.75C4.23847 1.75 3.53157 2.01685 2.96748 2.46648L2.96618 2.46752C2.221 3.0588 1.75 3.97454 1.75 5C1.75 5.60937 1.92053 6.1833 2.2184 6.66633L2.22469 6.67653C2.3006 6.80415 2.38507 6.92614 2.47748 7.0416C2.54192 7.09486 2.59731 7.15867 2.641 7.2304C3.22802 7.85738 4.06552 8.25 5 8.25C5.82269 8.25 6.56449 7.94995 7.12828 7.44253C7.13477 7.43669 7.14136 7.43097 7.14805 7.42536C7.39098 7.22161 7.60513 6.96842 7.77215 6.68209L7.7816 6.66633C8.07947 6.1833 8.25 5.60937 8.25 5C8.25 4.05363 7.84613 3.20212 7.20124 2.60832C7.16195 2.57994 7.12553 2.54785 7.09248 2.51255C6.52723 2.03664 5.79728 1.75 5 1.75ZM7.91653 1.25C7.11169 0.623242 6.0996 0.25 5 0.25C3.88183 0.25 2.84898 0.642947 2.03317 1.29301C0.938723 2.16174 0.25 3.50575 0.25 5C0.25 5.88852 0.498325 6.73268 0.938497 7.44856C1.03338 7.60761 1.13745 7.76065 1.25 7.90693V17C1.25 19.0742 2.92579 20.75 5 20.75H5.35352C5.67998 21.9043 6.74122 22.75 8 22.75C9.25878 22.75 10.32 21.9043 10.6465 20.75H13.3535C13.68 21.9043 14.7412 22.75 16 22.75C17.2588 22.75 18.32 21.9043 18.6465 20.75H19C21.0742 20.75 22.75 19.0742 22.75 17V12C22.75 11.8698 22.7161 11.7417 22.6516 11.6286L20.9416 8.62859L19.2311 5.63768L19.2286 5.63341C18.7377 4.788 17.8339 4.25 16.84 4.25H15.75V2C15.75 1.58579 15.4142 1.25 15 1.25H7.91653ZM9.18472 2.75C9.54537 3.41962 9.75 4.18582 9.75 5C9.75 5.8874 9.5023 6.73056 9.06316 7.44587C8.81311 7.87245 8.49253 8.25343 8.12204 8.56616C7.28705 9.31344 6.19269 9.75 5 9.75C4.18429 9.75 3.41812 9.54473 2.75 9.18379V13.25H13C13.6858 13.25 14.25 12.6858 14.25 12V2.75H9.18472ZM15.75 12C15.75 13.5142 14.5142 14.75 13 14.75H2.75V17C2.75 18.2458 3.75421 19.25 5 19.25H5.35352C5.67998 18.0957 6.74122 17.25 8 17.25C9.25878 17.25 10.32 18.0957 10.6465 19.25H13.3535C13.68 18.0957 14.7412 17.25 16 17.25C17.2588 17.25 18.32 18.0957 18.6465 19.25H19C20.2458 19.25 21.25 18.2458 21.25 17V14.75H19C18.0358 14.75 17.25 13.9642 17.25 13V10C17.25 9.03676 18.0342 8.25159 18.9971 8.25L17.9314 6.38661C17.9311 6.38602 17.9307 6.38543 17.9304 6.38484C17.7011 5.9913 17.2855 5.75 16.84 5.75H15.75V12ZM19.8542 9.75H19C18.8642 9.75 18.75 9.86421 18.75 10V13C18.75 13.1358 18.8642 13.25 19 13.25H21.25V12.1987L19.8542 9.75ZM14.75 20C14.75 20.6904 15.3096 21.25 16 21.25C16.6904 21.25 17.25 20.6904 17.25 20C17.25 19.3142 16.6858 18.75 16 18.75C15.3142 18.75 14.75 19.3142 14.75 20ZM8 18.75C8.68579 18.75 9.25 19.3142 9.25 20C9.25 20.6904 8.69036 21.25 8 21.25C7.30964 21.25 6.75 20.6904 6.75 20C6.75 19.3142 7.31421 18.75 8 18.75ZM3.42969 3.39966C3.72259 3.10677 4.19746 3.10677 4.49035 3.39966L5.01501 3.92432L5.50965 3.42969C5.80254 3.1368 6.27741 3.1368 6.57031 3.42969C6.8632 3.72259 6.8632 4.19746 6.57031 4.49035L6.07568 4.98499L6.60034 5.50965C6.89323 5.80254 6.89323 6.27741 6.60034 6.57031C6.30744 6.8632 5.83257 6.8632 5.53968 6.57031L5.01501 6.04565L4.46032 6.60034C4.16743 6.89323 3.69256 6.89323 3.39966 6.60034C3.10677 6.30744 3.10677 5.83257 3.39966 5.53968L3.95435 4.98499L3.42969 4.46032C3.1368 4.16743 3.1368 3.69256 3.42969 3.39966Z" fill="#595854"/>
</svg>
