<svg width="24" height="24" viewBox="0 0 24 24" fill="none" xmlns="http://www.w3.org/2000/svg">
<path fill-rule="evenodd" clip-rule="evenodd" d="M1.25 12C1.25 6.06579 6.06579 1.25 12 1.25C12.7404 1.25 13.4696 1.32508 14.1671 1.46458C14.5733 1.54581 14.8367 1.94093 14.7555 2.3471C14.6742 2.75327 14.2791 3.01668 13.8729 2.93545C13.2704 2.81494 12.6396 2.75 12 2.75C6.89421 2.75 2.75 6.89421 2.75 12C2.75 12.6393 2.81487 13.2593 2.935 13.8507C3.01746 14.2566 2.75523 14.6525 2.34931 14.735C1.94338 14.8174 1.54748 14.5552 1.46502 14.1493C1.32516 13.4607 1.25 12.7407 1.25 12ZM16.25 3C16.25 2.58579 16.5858 2.25 17 2.25H21C21.4142 2.25 21.75 2.58579 21.75 3V7C21.75 7.41421 21.4142 7.75 21 7.75C20.5858 7.75 20.25 7.41421 20.25 7V4.81066L15.5303 9.53033C15.2374 9.82322 14.7626 9.82322 14.4697 9.53033C14.1768 9.23744 14.1768 8.76256 14.4697 8.46967L19.1893 3.75H17C16.5858 3.75 16.25 3.41421 16.25 3ZM21.6529 9.26456C22.0591 9.18333 22.4542 9.44674 22.5354 9.85291C22.6747 10.5493 22.75 11.2685 22.75 12C22.75 17.9342 17.9342 22.75 12 22.75C11.2596 22.75 10.5304 22.6749 9.83289 22.5354C9.42672 22.4542 9.16331 22.0591 9.24454 21.6529C9.32578 21.2467 9.7209 20.9833 10.1271 21.0646C10.7296 21.1851 11.3604 21.25 12 21.25C17.1058 21.25 21.25 17.1058 21.25 12C21.25 11.3715 21.1853 10.7507 21.0646 10.1471C20.9833 9.74092 21.2467 9.3458 21.6529 9.26456ZM9.53033 14.4697C9.82322 14.7626 9.82322 15.2374 9.53033 15.5303L4.81066 20.25H7C7.41421 20.25 7.75 20.5858 7.75 21C7.75 21.4142 7.41421 21.75 7 21.75H3C2.58579 21.75 2.25 21.4142 2.25 21V17C2.25 16.5858 2.58579 16.25 3 16.25C3.41421 16.25 3.75 16.5858 3.75 17V19.1893L8.46967 14.4697C8.76256 14.1768 9.23744 14.1768 9.53033 14.4697Z" fill="#595854"/>
</svg>
