<svg width="24" height="24" viewBox="0 0 24 24" fill="none" xmlns="http://www.w3.org/2000/svg">
<path fill-rule="evenodd" clip-rule="evenodd" d="M3.88534 5.7371C3.20538 6.36848 2.75 7.39295 2.75 9V13.8157C3.4197 13.4548 4.18593 13.25 5 13.25C7.62335 13.25 9.75 15.3766 9.75 18C9.75 18.4326 9.69217 18.8517 9.58381 19.25H17C18.385 19.25 19.4246 18.9036 20.1147 18.2629C20.7946 17.6315 21.25 16.607 21.25 15V9C21.25 7.39295 20.7946 6.36848 20.1147 5.7371C19.4246 5.09637 18.385 4.75 17 4.75H7C5.61497 4.75 4.57535 5.09637 3.88534 5.7371ZM8.87345 20.75H17C18.615 20.75 20.0754 20.3464 21.1353 19.3621C22.2054 18.3685 22.75 16.893 22.75 15V9C22.75 7.10705 22.2054 5.63152 21.1353 4.6379C20.0754 3.65363 18.615 3.25 17 3.25H7C5.38503 3.25 3.92465 3.65363 2.86466 4.6379C1.79462 5.63152 1.25 7.10705 1.25 9V15.0842C0.623289 15.889 0.25 16.9009 0.25 18C0.25 20.6234 2.37665 22.75 5 22.75C6.59848 22.75 8.01254 21.9604 8.87345 20.75ZM12 10.25C11.0335 10.25 10.25 11.0335 10.25 12C10.25 12.9665 11.0335 13.75 12 13.75C12.9665 13.75 13.75 12.9665 13.75 12C13.75 11.0335 12.9665 10.25 12 10.25ZM8.75 12C8.75 10.2051 10.2051 8.75 12 8.75C13.7949 8.75 15.25 10.2051 15.25 12C15.25 13.7949 13.7949 15.25 12 15.25C10.2051 15.25 8.75 13.7949 8.75 12ZM18.5 8.75C18.9142 8.75 19.25 9.08579 19.25 9.5V14.5C19.25 14.9142 18.9142 15.25 18.5 15.25C18.0858 15.25 17.75 14.9142 17.75 14.5V9.5C17.75 9.08579 18.0858 8.75 18.5 8.75ZM5 14.75C3.20507 14.75 1.75 16.2051 1.75 18C1.75 19.7949 3.20507 21.25 5 21.25C6.79493 21.25 8.25 19.7949 8.25 18C8.25 16.2051 6.79493 14.75 5 14.75ZM5.25 16C5.66421 16 6 16.3358 6 16.75V17.68C6 18.2837 5.68977 18.8641 5.1433 19.1847L4.38836 19.6416C4.03401 19.8561 3.57287 19.7427 3.35838 19.3884C3.14389 19.034 3.25728 18.5729 3.61164 18.3584L4.38335 17.8913C4.45272 17.851 4.5 17.7738 4.5 17.68V16.75C4.5 16.3358 4.83579 16 5.25 16Z" fill="#595854"/>
</svg>
