<svg width="24" height="24" viewBox="0 0 24 24" fill="none" xmlns="http://www.w3.org/2000/svg">
<path fill-rule="evenodd" clip-rule="evenodd" d="M3.37158 3.90161C2.97898 4.29421 2.75 5.04922 2.75 6.74003V12.2H10C10.4142 12.2 10.75 12.5358 10.75 12.95C10.75 13.3642 10.4142 13.7 10 13.7H2.78063C2.85515 14.7365 3.06274 15.2696 3.37158 15.5785C3.76418 15.9711 4.51919 16.2 6.21 16.2H10C10.4142 16.2 10.75 16.5358 10.75 16.95V21.47C10.75 21.8842 10.4142 22.22 10 22.22H6.74C6.32579 22.22 5.99 21.8842 5.99 21.47C5.99 21.0558 6.32579 20.72 6.74 20.72H9.25V17.7H6.21C4.53081 17.7 3.18082 17.509 2.31092 16.6391C1.48635 15.8145 1.27175 14.5586 1.25162 12.9998C1.25055 12.9833 1.25 12.9668 1.25 12.95C1.25 12.9388 1.25025 12.9276 1.25073 12.9165C1.25024 12.8581 1.25 12.7993 1.25 12.74V6.74003C1.25 5.06084 1.44102 3.71085 2.31092 2.84095C3.18082 1.97105 4.53081 1.78003 6.21 1.78003H16.74C18.4192 1.78003 19.7692 1.97105 20.6391 2.84095C21.509 3.71085 21.7 5.06084 21.7 6.74003C21.7 7.15424 21.3642 7.49003 20.95 7.49003C20.5358 7.49003 20.2 7.15424 20.2 6.74003C20.2 5.04922 19.971 4.29421 19.5784 3.90161C19.1858 3.50901 18.4308 3.28003 16.74 3.28003H6.21C4.51919 3.28003 3.76418 3.50901 3.37158 3.90161ZM13.6516 10.9616C13.4465 11.1667 13.28 11.609 13.28 12.8V18.51C13.28 19.701 13.4465 20.1434 13.6516 20.3484C13.8566 20.5535 14.299 20.72 15.49 20.72H19.04C20.231 20.72 20.6734 20.5535 20.8784 20.3484C21.0835 20.1434 21.25 19.701 21.25 18.51V12.8C21.25 11.609 21.0835 11.1667 20.8784 10.9616C20.6734 10.7566 20.231 10.59 19.04 10.59H15.49C14.299 10.59 13.8566 10.7566 13.6516 10.9616ZM12.5909 9.90095C13.2734 9.21849 14.311 9.09003 15.49 9.09003H19.04C20.219 9.09003 21.2566 9.21849 21.9391 9.90095C22.6215 10.5834 22.75 11.621 22.75 12.8V18.51C22.75 19.689 22.6215 20.7267 21.9391 21.4091C21.2566 22.0916 20.219 22.22 19.04 22.22H15.49C14.311 22.22 13.2734 22.0916 12.5909 21.4091C11.9085 20.7267 11.78 19.689 11.78 18.51V12.8C11.78 11.621 11.9085 10.5834 12.5909 9.90095ZM16.4945 18.25C16.4945 17.8358 16.8303 17.5 17.2445 17.5H17.2535C17.6677 17.5 18.0035 17.8358 18.0035 18.25C18.0035 18.6642 17.6677 19 17.2535 19H17.2445C16.8303 19 16.4945 18.6642 16.4945 18.25Z" fill="#595854"/>
</svg>
