<svg width="24" height="24" viewBox="0 0 24 24" fill="none" xmlns="http://www.w3.org/2000/svg">
<path fill-rule="evenodd" clip-rule="evenodd" d="M12 2.75C6.89137 2.75 2.75 6.89137 2.75 12C2.75 17.1086 6.89137 21.25 12 21.25C17.1086 21.25 21.25 17.1086 21.25 12C21.25 6.89137 17.1086 2.75 12 2.75ZM1.25 12C1.25 6.06294 6.06294 1.25 12 1.25C17.9371 1.25 22.75 6.06294 22.75 12C22.75 17.9371 17.9371 22.75 12 22.75C6.06294 22.75 1.25 17.9371 1.25 12ZM12 6.25C12.2964 6.25 12.565 6.42455 12.6854 6.6954L16.6854 15.6954C16.8536 16.0739 16.6831 16.5171 16.3046 16.6854C15.9261 16.8536 15.4829 16.6831 15.3146 16.3046L12 8.84666L10.9318 11.25H12C12.4142 11.25 12.75 11.5858 12.75 12C12.75 12.4142 12.4142 12.75 12 12.75H10.2652L8.68536 16.3046C8.51713 16.6831 8.07391 16.8536 7.6954 16.6854C7.31688 16.5171 7.14641 16.0739 7.31464 15.6954L8.62371 12.75H8C7.58579 12.75 7.25 12.4142 7.25 12C7.25 11.5858 7.58579 11.25 8 11.25H9.29037L11.3146 6.6954C11.435 6.42455 11.7036 6.25 12 6.25Z" fill="#595854"/>
</svg>
