<svg width="24" height="24" viewBox="0 0 24 24" fill="none" xmlns="http://www.w3.org/2000/svg">
<path fill-rule="evenodd" clip-rule="evenodd" d="M11.9909 1C12.3661 1.00024 12.7412 1.12262 13.0542 1.36713C14.0248 2.1217 15.9358 3.72509 17.6373 5.84716C17.6783 5.88725 17.7149 5.93282 17.7457 5.98348C19.4615 8.15764 21.0055 10.9447 21 13.9682C20.9993 18.9367 16.9781 23 12.0001 23C11.9974 23 11.9948 23 11.9921 23C11.9914 23 11.9906 23 11.9898 23C11.9885 23 11.9871 23 11.9858 23C7.01344 22.9922 3.00113 18.9209 3.00012 13.9585C2.98417 10.8923 4.52177 8.10308 6.23798 5.93682C7.96172 3.76105 9.93176 2.13043 10.9273 1.36574C11.2399 1.12215 11.6143 1.00024 11.9887 1C11.9891 1 11.9895 1 11.9898 1C11.9902 1 11.9906 1 11.9909 1ZM11.2793 2.88496V8.85522C11.2791 8.86505 11.2791 8.87489 11.2793 8.88474V14.0041C11.2791 14.014 11.2791 14.0238 11.2793 14.0337V19.1531C11.2791 19.1629 11.2791 19.1728 11.2793 19.1826V21.5614C7.44478 21.1942 4.42118 17.9285 4.42118 13.9566V13.9547L4.42117 13.9528C4.40706 11.3456 5.72444 8.86303 7.35692 6.80246C8.72085 5.08085 10.2591 3.71141 11.2793 2.88496ZM12.7004 21.5634C15.7082 21.2846 18.2193 19.2278 19.1704 16.4411L12.7004 19.6034V21.5634ZM12.7004 18.0367L19.5451 14.6913C19.5675 14.4529 19.5789 14.2113 19.5789 13.9669L19.5789 13.9656C19.5806 13.065 19.4185 12.1746 19.1366 11.3084L12.7004 14.4544V18.0367ZM12.7004 12.8878L18.6143 9.99705C18.1588 9.02688 17.5726 8.09889 16.9238 7.23493L12.7004 9.30495V12.8878ZM12.7004 7.73746V2.89044C13.5703 3.60462 14.82 4.72148 16.0179 6.11144L12.7004 7.73746Z" fill="#595854"/>
</svg>
