<svg width="24" height="24" viewBox="0 0 24 24" fill="none" xmlns="http://www.w3.org/2000/svg">
<path fill-rule="evenodd" clip-rule="evenodd" d="M3.88534 5.2371C3.20538 5.86848 2.75 6.89295 2.75 8.5V15.5C2.75 17.107 3.20538 18.1315 3.88534 18.7629C4.57535 19.4036 5.61497 19.75 7 19.75H17C18.385 19.75 19.4246 19.4036 20.1147 18.7629C20.7946 18.1315 21.25 17.107 21.25 15.5V8.5C21.25 6.89295 20.7946 5.86848 20.1147 5.2371C19.4246 4.59637 18.385 4.25 17 4.25H7C5.61497 4.25 4.57535 4.59637 3.88534 5.2371ZM2.86466 4.1379C3.92465 3.15363 5.38503 2.75 7 2.75H17C18.615 2.75 20.0754 3.15363 21.1353 4.1379C22.2054 5.13152 22.75 6.60705 22.75 8.5V15.5C22.75 17.393 22.2054 18.8685 21.1353 19.8621C20.0754 20.8464 18.615 21.25 17 21.25H7C5.38503 21.25 3.92465 20.8464 2.86466 19.8621C1.79462 18.8685 1.25 17.393 1.25 15.5V8.5C1.25 6.60705 1.79462 5.13152 2.86466 4.1379ZM15.25 7C15.25 6.58579 15.5858 6.25 16 6.25H19C19.4142 6.25 19.75 6.58579 19.75 7C19.75 7.41421 19.4142 7.75 19 7.75H16C15.5858 7.75 15.25 7.41421 15.25 7ZM12 9.75C10.7574 9.75 9.75 10.7574 9.75 12C9.75 13.2426 10.7574 14.25 12 14.25C13.2426 14.25 14.25 13.2426 14.25 12C14.25 10.7574 13.2426 9.75 12 9.75ZM8.25 12C8.25 9.92893 9.92893 8.25 12 8.25C14.0711 8.25 15.75 9.92893 15.75 12C15.75 14.0711 14.0711 15.75 12 15.75C9.92893 15.75 8.25 14.0711 8.25 12ZM4.25 17C4.25 16.5858 4.58579 16.25 5 16.25H8C8.41421 16.25 8.75 16.5858 8.75 17C8.75 17.4142 8.41421 17.75 8 17.75H5C4.58579 17.75 4.25 17.4142 4.25 17Z" fill="#595854"/>
</svg>
