<svg width="24" height="24" viewBox="0 0 24 24" fill="none" xmlns="http://www.w3.org/2000/svg">
<path fill-rule="evenodd" clip-rule="evenodd" d="M14.3474 1.63047C14.4805 1.39534 14.7298 1.25 15 1.25C19.2842 1.25 22.75 4.71579 22.75 9C22.75 9.41421 22.4142 9.75 22 9.75C21.5858 9.75 21.25 9.41421 21.25 9C21.25 6.03342 19.1909 3.55436 16.4218 2.91194L16.6931 3.36413C16.9062 3.71932 16.791 4.18001 16.4359 4.39312C16.0807 4.60623 15.62 4.49105 15.4069 4.13587L14.3569 2.38587C14.2179 2.15417 14.2142 1.8656 14.3474 1.63047ZM15.9232 9.34402C15.5856 8.00976 14.8472 7.05461 13.8893 6.4912C12.8304 5.86838 11.5753 5.76644 10.4524 6.06076C9.32941 6.35508 8.28497 7.05966 7.66472 8.12073C7.15109 8.99942 6.95664 10.0745 7.19912 11.2694C4.32253 12.2387 4.64402 16.8552 8.05675 17.0981C8.07448 17.0994 8.09224 17.1 8.11 17.1H14.7756C15.7802 17.1111 16.7367 16.7273 17.4676 16.0712C18.7127 14.9803 18.9781 13.3583 18.565 12.0016C18.1985 10.7978 17.2723 9.71865 15.9232 9.34402ZM8.13643 12.6002C8.2218 12.6006 8.30869 12.5864 8.3937 12.5558C8.7835 12.4157 8.98593 11.9861 8.84583 11.5963C8.43045 10.4406 8.57597 9.53418 8.95971 8.87771C9.35383 8.20347 10.0431 7.71868 10.8327 7.51175C11.6222 7.30482 12.4584 7.38976 13.1288 7.78413C13.7815 8.16802 14.3497 8.88728 14.55 10.102C14.604 10.4293 14.8665 10.6823 15.1956 10.724C16.1542 10.8457 16.8584 11.5463 17.13 12.4385C17.4015 13.3302 17.208 14.3062 16.4765 14.9453L16.4683 14.9526C16.001 15.3731 15.4011 15.6076 14.7893 15.6001L8.1388 15.6C6.27346 15.444 6.29812 12.7563 8.13643 12.6002ZM2 14.25C2.41421 14.25 2.75 14.5858 2.75 15C2.75 17.9666 4.8091 20.4456 7.57821 21.0881L7.30689 20.6359C7.09378 20.2807 7.20896 19.82 7.56414 19.6069C7.91933 19.3938 8.38002 19.5089 8.59313 19.8641L9.64312 21.6141C9.78214 21.8458 9.78578 22.1344 9.65265 22.3695C9.51952 22.6047 9.2702 22.75 9 22.75C4.71579 22.75 1.25 19.2842 1.25 15C1.25 14.5858 1.58579 14.25 2 14.25Z" fill="#595854"/>
</svg>
