<svg width="24" height="24" viewBox="0 0 24 24" fill="none" xmlns="http://www.w3.org/2000/svg">
<path fill-rule="evenodd" clip-rule="evenodd" d="M3.09467 3.09467C4.42914 1.7602 6.42603 1.25 9 1.25H15C17.574 1.25 19.5709 1.7602 20.9053 3.09467C22.2398 4.42914 22.75 6.42603 22.75 9V15C22.75 17.574 22.2398 19.5709 20.9053 20.9053C19.5709 22.2398 17.574 22.75 15 22.75H9C6.42603 22.75 4.42914 22.2398 3.09467 20.9053C1.7602 19.5709 1.25 17.574 1.25 15V9C1.25 6.42603 1.7602 4.42914 3.09467 3.09467ZM4.15533 4.15533C3.2398 5.07086 2.75 6.57397 2.75 9V15C2.75 17.426 3.2398 18.9291 4.15533 19.8447C5.07086 20.7602 6.57397 21.25 9 21.25H15C17.426 21.25 18.9291 20.7602 19.8447 19.8447C20.7602 18.9291 21.25 17.426 21.25 15V9C21.25 6.57397 20.7602 5.07086 19.8447 4.15533C18.9291 3.2398 17.426 2.75 15 2.75H9C6.57397 2.75 5.07086 3.2398 4.15533 4.15533ZM15.7513 8.26196C14.4129 6.93178 12.2465 6.93412 10.9203 8.26033C9.99617 9.18449 9.71455 10.512 10.0768 11.6894C10.1585 11.955 10.0868 12.2439 9.89033 12.4403L7.32482 15.0058C7.32234 15.0092 7.31697 15.0169 7.30972 15.0298C7.2972 15.052 7.28416 15.0807 7.27341 15.1127C7.26261 15.1448 7.25662 15.1728 7.25409 15.1929C7.25327 15.1994 7.25294 15.204 7.25282 15.2067L7.25342 15.2109L7.41182 16.3989C7.41588 16.418 7.43535 16.4688 7.48727 16.5216C7.53963 16.5749 7.58008 16.585 7.58288 16.5858C7.58291 16.5858 7.58301 16.5858 7.58288 16.5858L7.58913 16.5866L8.79722 16.7477C8.79959 16.7477 8.80776 16.7478 8.82186 16.7462C8.84402 16.7437 8.87142 16.738 8.90018 16.7285C8.92907 16.7191 8.95198 16.7083 8.96689 16.6996C8.97017 16.6977 8.97265 16.6961 8.97439 16.695C8.97648 16.6929 8.97858 16.6908 8.9807 16.6886L9.39322 16.2777L9.06658 15.9472C8.7754 15.6526 8.77818 15.1778 9.07278 14.8866C9.36738 14.5954 9.84225 14.5982 10.1334 14.8928L10.4559 15.2191L11.5707 14.1086C11.7684 13.9117 12.059 13.8408 12.3251 13.9246C13.4956 14.2929 14.8219 14.0067 15.7487 13.0806C17.0791 11.7413 17.0742 9.57668 15.7513 8.26196ZM16.8087 7.19804C14.8871 5.28822 11.7735 5.28588 9.85967 7.19967C8.64139 8.41795 8.20283 10.1158 8.52778 11.6816L6.24967 13.9597L6.23554 13.9742C6.05191 14.168 5.92645 14.4121 5.85159 14.6348C5.77832 14.8527 5.72589 15.1325 5.76737 15.4151L5.92658 16.6091L5.92872 16.624C5.98622 16.9978 6.17758 17.3291 6.41773 17.5734C6.65731 17.817 6.99432 18.0229 7.39345 18.0738C7.39463 18.0739 7.3958 18.0741 7.39697 18.0742L8.58649 18.2328C8.86188 18.2723 9.13925 18.2287 9.36732 18.1539C9.59116 18.0806 9.84615 17.9514 10.0454 17.7453L12.3256 15.4738C13.8964 15.807 15.5946 15.3561 16.8103 14.1403L16.812 14.1387C18.7209 12.218 18.7256 9.1031 16.8087 7.19804ZM12.6445 10.7C12.6445 10.2857 12.9803 9.94995 13.3945 9.94995H13.4035C13.8177 9.94995 14.1535 10.2857 14.1535 10.7C14.1535 11.1142 13.8177 11.45 13.4035 11.45H13.3945C12.9803 11.45 12.6445 11.1142 12.6445 10.7Z" fill="#595854"/>
</svg>
