<svg width="24" height="24" viewBox="0 0 24 24" fill="none" xmlns="http://www.w3.org/2000/svg">
<path fill-rule="evenodd" clip-rule="evenodd" d="M12 2.75C6.89137 2.75 2.75 6.89137 2.75 12C2.75 17.1086 6.89137 21.25 12 21.25C17.1086 21.25 21.25 17.1086 21.25 12C21.25 6.89137 17.1086 2.75 12 2.75ZM1.25 12C1.25 6.06294 6.06294 1.25 12 1.25C17.9371 1.25 22.75 6.06294 22.75 12C22.75 17.9371 17.9371 22.75 12 22.75C6.06294 22.75 1.25 17.9371 1.25 12ZM9.95 9.74906V10.2809L10.8931 10.8613C11.1149 10.9978 11.25 11.2396 11.25 11.5V12.7754L12 13.2254L12.75 12.7754V11.5C12.75 11.2396 12.8851 10.9978 13.1069 10.8613L14.05 10.2809V9.74906L12 8.65084L9.95 9.74906ZM15.1855 11.3434L14.25 11.9191V13.8754L16 14.9254L17.75 13.8754V11.9246L15.9946 10.8714L15.1855 11.3434ZM12.7792 14.5071C12.8309 14.6872 12.9491 14.8441 13.1141 14.9431L15.6141 16.4431C15.8516 16.5856 16.1484 16.5856 16.3859 16.4431L18.8859 14.9431C19.1118 14.8076 19.25 14.5634 19.25 14.3V11.5C19.25 11.2366 19.1118 10.9924 18.8859 10.8569L16.3859 9.35688C16.1512 9.21608 15.8585 9.21427 15.6221 9.35217L15.55 9.39422V9.3C15.55 9.02351 15.3979 8.76945 15.1542 8.63889L12.3542 7.13889C12.1329 7.02037 11.8671 7.02037 11.6458 7.13889L8.84583 8.63889C8.60212 8.76945 8.45 9.02351 8.45 9.3V9.39422L8.3779 9.35217C8.14152 9.21427 7.84879 9.21608 7.61413 9.35688L5.11413 10.8569C4.88822 10.9924 4.75 11.2366 4.75 11.5V14.3C4.75 14.5634 4.88822 14.8076 5.11413 14.9431L7.61413 16.4431C7.85164 16.5856 8.14836 16.5856 8.38587 16.4431L10.8859 14.9431C11.0509 14.8441 11.1691 14.6872 11.2208 14.5071L11.6141 14.7431C11.8516 14.8856 12.1484 14.8856 12.3859 14.7431L12.7792 14.5071ZM9.75 11.9191L8.81446 11.3434L8.00538 10.8714L6.25 11.9246V13.8754L8 14.9254L9.75 13.8754V11.9191Z" fill="#595854"/>
</svg>
