<svg width="24" height="24" viewBox="0 0 24 24" fill="none" xmlns="http://www.w3.org/2000/svg">
<path fill-rule="evenodd" clip-rule="evenodd" d="M3.09467 3.09467C4.42914 1.7602 6.42603 1.25 9 1.25H15C17.574 1.25 19.5709 1.7602 20.9053 3.09467C22.2398 4.42914 22.75 6.42603 22.75 9V15C22.75 17.574 22.2398 19.5709 20.9053 20.9053C19.5709 22.2398 17.574 22.75 15 22.75H9C6.42603 22.75 4.42914 22.2398 3.09467 20.9053C1.7602 19.5709 1.25 17.574 1.25 15V9C1.25 6.42603 1.7602 4.42914 3.09467 3.09467ZM4.15533 4.15533C3.2398 5.07086 2.75 6.57397 2.75 9V15C2.75 17.426 3.2398 18.9291 4.15533 19.8447C5.07086 20.7602 6.57397 21.25 9 21.25H15C17.426 21.25 18.9291 20.7602 19.8447 19.8447C20.7602 18.9291 21.25 17.426 21.25 15V9C21.25 6.57397 20.7602 5.07086 19.8447 4.15533C18.9291 3.2398 17.426 2.75 15 2.75H9C6.57397 2.75 5.07086 3.2398 4.15533 4.15533ZM12.228 5.17392C12.5407 4.9022 13.0144 4.93537 13.2861 5.24801L14.9461 7.15801C15.0837 7.31637 15.1487 7.52513 15.1253 7.73362C15.1019 7.94212 14.9923 8.13128 14.823 8.2552L12.883 9.6752C12.5487 9.91985 12.0795 9.84722 11.8348 9.51298C11.5901 9.17874 11.6628 8.70945 11.997 8.4648L12.5727 8.04339C12.3892 8.02181 12.1987 8.01 12 8.01C9.65421 8.01 7.75 9.91422 7.75 12.26C7.75 14.6058 9.65421 16.51 12 16.51C14.3458 16.51 16.25 14.6058 16.25 12.26C16.25 11.3841 15.9872 10.5771 15.5348 9.89422C15.306 9.54891 15.4005 9.08353 15.7458 8.85477C16.0911 8.626 16.5565 8.72047 16.7852 9.06578C17.3928 9.98288 17.75 11.076 17.75 12.26C17.75 15.4342 15.1742 18.01 12 18.01C8.82579 18.01 6.25 15.4342 6.25 12.26C6.25 9.08579 8.82579 6.51 12 6.51C12.1386 6.51 12.2742 6.51443 12.4067 6.52281L12.1539 6.23199C11.8822 5.91935 11.9154 5.44563 12.228 5.17392Z" fill="#595854"/>
</svg>
