<svg width="24" height="24" viewBox="0 0 24 24" fill="none" xmlns="http://www.w3.org/2000/svg">
<path fill-rule="evenodd" clip-rule="evenodd" d="M11.5 2.75C6.66421 2.75 2.75 6.66421 2.75 11.5C2.75 16.3358 6.66421 20.25 11.5 20.25C16.3358 20.25 20.25 16.3358 20.25 11.5C20.25 11.0858 20.5858 10.75 21 10.75C21.4142 10.75 21.75 11.0858 21.75 11.5C21.75 17.1642 17.1642 21.75 11.5 21.75C5.83579 21.75 1.25 17.1642 1.25 11.5C1.25 5.83579 5.83579 1.25 11.5 1.25C11.9142 1.25 12.25 1.58579 12.25 2C12.25 2.41421 11.9142 2.75 11.5 2.75ZM16.9039 4.29174C16.6884 3.99607 16.2933 3.89131 15.9537 4.00267L15.9479 4.00456L15.9479 4.00453C15.3195 4.20497 14.9421 5.04377 15.2143 5.90124C15.4361 6.5891 15.9276 7.13413 16.4557 7.51597C16.717 7.70491 16.9735 7.84351 17.1839 7.9324C17.3707 8.01132 17.4775 8.03278 17.5047 8.03825C17.5064 8.03858 17.5078 8.03885 17.5088 8.03907C17.5103 8.0387 17.5127 8.03818 17.5159 8.03747C17.5457 8.03092 17.6498 8.00806 17.8298 7.931C18.0412 7.84049 18.2994 7.69977 18.562 7.50922C19.0944 7.12295 19.5829 6.57852 19.7945 5.90513L19.7953 5.9026C20.0682 5.04501 19.6911 4.20578 19.0629 4.00478C18.6895 3.88687 18.3038 4.0072 18.1372 4.26127C18.0022 4.46717 17.7747 4.59369 17.5285 4.59977C17.2824 4.60585 17.0489 4.49073 16.9039 4.29174ZM17.4968 2.82501C16.884 2.43495 16.1278 2.36797 15.4893 2.57636C13.8003 3.11702 13.3585 5.01608 13.7853 6.3574L13.7861 6.3599C14.1344 7.4415 14.8777 8.22608 15.5768 8.73153C15.9292 8.98634 16.2846 9.18087 16.6002 9.31416C16.8914 9.43719 17.223 9.54 17.51 9.54C17.7982 9.54 18.1316 9.4335 18.4202 9.30993C18.735 9.17514 19.0906 8.97898 19.443 8.72328C20.1404 8.21725 20.8865 7.43209 21.2251 6.35614C21.6514 5.01415 21.2086 3.11475 19.5179 2.57547L19.5164 2.57499C18.9132 2.38397 18.1249 2.41744 17.4968 2.82501ZM19.4697 19.4697C19.7626 19.1768 20.2374 19.1768 20.5303 19.4697L22.5303 21.4697C22.8232 21.7626 22.8232 22.2374 22.5303 22.5303C22.2374 22.8232 21.7626 22.8232 21.4697 22.5303L19.4697 20.5303C19.1768 20.2374 19.1768 19.7626 19.4697 19.4697Z" fill="#595854"/>
</svg>
