<svg width="24" height="24" viewBox="0 0 24 24" fill="none" xmlns="http://www.w3.org/2000/svg">
<path fill-rule="evenodd" clip-rule="evenodd" d="M17.6439 1.39518C19.384 0.762414 20.9979 2.71032 19.7922 4.26048L19.7859 4.2686L13.7118 11.651L17.3546 15.2937L17.3763 15.3199C18.1794 16.2836 17.8828 17.7806 16.6956 18.2894L16.6891 18.2922L6.39877 22.5881C5.47484 23.0014 4.6031 22.6023 4.16673 21.9582C3.74158 21.3306 3.67308 20.3789 4.3572 19.6824L11.6618 11.7223L8.06984 8.13035C7.6009 7.66141 7.50122 7.00734 7.61682 6.46787C7.7335 5.92338 8.09312 5.37278 8.70473 5.11066L8.71224 5.10744L17.6279 1.40097L17.6439 1.39518ZM12.6461 10.5853L18.6132 3.33304C18.6823 3.24162 18.6979 3.16517 18.6971 3.10852C18.6963 3.04474 18.6738 2.97659 18.6277 2.91581C18.5436 2.80498 18.3892 2.72557 18.1695 2.80029L9.29313 6.49046C9.20553 6.52913 9.11653 6.62811 9.08352 6.78217C9.04912 6.9427 9.09944 7.03863 9.1305 7.06969L12.6461 10.5853ZM12.7234 12.7839L5.44188 20.719L5.4305 20.7304C5.36533 20.7955 5.34714 20.8551 5.34468 20.9082C5.34178 20.9708 5.36131 21.0471 5.40861 21.1169C5.45556 21.1862 5.51487 21.2274 5.56737 21.2444C5.61008 21.2582 5.67956 21.2674 5.78982 21.2172L5.80045 21.2124L16.1071 16.9097C16.3122 16.8199 16.4142 16.533 16.2404 16.3009L12.7234 12.7839Z" fill="#595854"/>
</svg>
