<svg width="24" height="24" viewBox="0 0 24 24" fill="none" xmlns="http://www.w3.org/2000/svg">
<path fill-rule="evenodd" clip-rule="evenodd" d="M12.0001 2.78998C10.961 2.78998 9.93406 2.9569 8.94518 3.29885C8.55371 3.43421 8.12662 3.2266 7.99125 2.83513C7.85589 2.44366 8.0635 2.01658 8.45497 1.88121C9.60609 1.48316 10.7991 1.28998 12.0001 1.28998C13.201 1.28998 14.394 1.48316 15.5452 1.88121C15.9366 2.01658 16.1442 2.44366 16.0089 2.83513C15.8735 3.2266 15.4464 3.43421 15.0549 3.29885C14.0661 2.9569 13.0391 2.78998 12.0001 2.78998ZM5.46039 4.39966C5.75328 4.69256 5.75328 5.16743 5.46039 5.46032C1.84291 9.07781 1.84388 14.9324 5.45971 18.539C5.75298 18.8315 5.75359 19.3064 5.46107 19.5997C5.16855 19.8929 4.69368 19.8935 4.40041 19.601C0.196233 15.4076 0.197211 8.60218 4.39973 4.39966C4.69262 4.10677 5.1675 4.10677 5.46039 4.39966ZM18.5391 4.40034C18.8316 4.10707 19.3065 4.10647 19.5997 4.39898C23.8039 8.59241 23.8029 15.3978 19.6004 19.6003C19.3075 19.8932 18.8326 19.8932 18.5397 19.6003C18.2468 19.3074 18.2468 18.8326 18.5397 18.5397C22.1572 14.9222 22.1562 9.06758 18.5404 5.461C18.2472 5.16848 18.2465 4.69361 18.5391 4.40034ZM10.0754 8.86435C9.79513 9.02636 9.49005 9.44984 9.49005 10.33V13.69C9.49005 14.5702 9.79513 14.9937 10.0754 15.1557C10.3554 15.3175 10.8735 15.3705 11.6346 14.9308C11.6345 14.9308 11.6347 14.9307 11.6346 14.9308L14.5341 13.2511C15.2952 12.8113 15.5101 12.3348 15.5101 12.01C15.5101 11.6853 15.2959 11.2091 14.5349 10.7694L11.6349 9.08942C11.6348 9.08937 11.635 9.08947 11.6349 9.08942C10.8738 8.64975 10.3554 8.70252 10.0754 8.86435ZM9.32472 7.56571C10.2297 7.04254 11.3465 7.19045 12.3853 7.79062L15.2853 9.47061C15.2852 9.47056 15.2854 9.47067 15.2853 9.47061C16.3241 10.0709 17.0101 10.9649 17.0101 12.01C17.0101 13.0552 16.3243 13.949 15.2856 14.5493C15.2855 14.5493 15.2856 14.5492 15.2856 14.5493L12.386 16.229C11.3473 16.8292 10.2297 16.9775 9.32472 16.4543C8.41998 15.9314 7.99005 14.8898 7.99005 13.69V10.33C7.99005 9.13023 8.41998 8.0887 9.32472 7.56571ZM7.99125 21.1649C8.12662 20.7734 8.55371 20.5658 8.94518 20.7012C9.93302 21.0427 10.9589 21.2097 11.9968 21.21C13.0439 21.2003 14.0712 21.0413 15.0549 20.7012C15.4464 20.5658 15.8735 20.7734 16.0089 21.1649C16.1442 21.5563 15.9366 21.9834 15.5452 22.1188C14.39 22.5182 13.1985 22.6994 12.0068 22.71L12.0001 22.7101C10.7991 22.7101 9.60609 22.5168 8.45497 22.1188C8.0635 21.9834 7.85589 21.5563 7.99125 21.1649Z" fill="#595854"/>
</svg>
