<svg width="24" height="24" viewBox="0 0 24 24" fill="none" xmlns="http://www.w3.org/2000/svg">
<path fill-rule="evenodd" clip-rule="evenodd" d="M14.7026 2.80723C14.9827 2.69106 15.3052 2.75495 15.5198 2.96914L20.5398 7.97914C20.833 8.27174 20.8335 8.74662 20.5408 9.0398C20.2482 9.33299 19.7734 9.33346 19.4802 9.04086L15.74 5.30811V20.5C15.74 20.9142 15.4042 21.25 14.99 21.25C14.5758 21.25 14.24 20.9142 14.24 20.5V3.5C14.24 3.19679 14.4226 2.92341 14.7026 2.80723ZM9.00999 2.75C9.4242 2.75 9.75999 3.08579 9.75999 3.5V20.5C9.75999 20.8032 9.57742 21.0766 9.29735 21.1928C9.01728 21.3089 8.69481 21.245 8.48019 21.0309L3.46019 16.0209C3.167 15.7283 3.16653 15.2534 3.45913 14.9602C3.75173 14.667 4.22661 14.6665 4.51979 14.9591L8.25999 18.6919V3.5C8.25999 3.08579 8.59578 2.75 9.00999 2.75Z" fill="#595854"/>
</svg>
