<svg width="24" height="24" viewBox="0 0 24 24" fill="none" xmlns="http://www.w3.org/2000/svg">
<path fill-rule="evenodd" clip-rule="evenodd" d="M18.5509 5.45146C16.4915 3.40078 13.1663 3.39566 11.1216 5.4492C9.07231 7.50719 9.07394 10.8332 11.1204 12.8797C11.4133 13.1726 11.4133 13.6474 11.1204 13.9403C10.8275 14.2332 10.3527 14.2332 10.0598 13.9403C7.42625 11.3068 7.42787 7.03281 10.0586 4.3908C12.6938 1.74434 16.9687 1.75922 19.6093 4.38854C22.2558 7.02374 22.2409 11.2986 19.6115 13.9392C19.3193 14.2327 18.8444 14.2337 18.5509 13.9415C18.2574 13.6492 18.2564 13.1743 18.5486 12.8808C20.5993 10.8214 20.6044 7.49626 18.5509 5.45146ZM5.4616 10.4109C5.75384 10.7044 5.75278 11.1793 5.45924 11.4715C3.50586 13.4162 3.51077 16.5813 5.4616 18.5409C7.40629 20.4942 10.5714 20.4893 12.5309 18.5385C14.4858 16.5923 14.4875 13.4281 12.5298 11.4703C12.2369 11.1774 12.2369 10.7026 12.5298 10.4097C12.8227 10.1168 13.2975 10.1168 13.5904 10.4097C16.1327 12.9519 16.1344 17.0677 13.5892 19.6015C11.0488 22.1307 6.93389 22.1458 4.39858 19.5991C1.86942 17.0587 1.85432 12.9438 4.40094 10.4085C4.69449 10.1162 5.16936 10.1173 5.4616 10.4109Z" fill="#595854"/>
</svg>
