<svg width="24" height="24" viewBox="0 0 24 24" fill="none" xmlns="http://www.w3.org/2000/svg">
<path fill-rule="evenodd" clip-rule="evenodd" d="M3.09467 3.09467C4.42914 1.7602 6.42603 1.25 9 1.25H15C17.574 1.25 19.5709 1.7602 20.9053 3.09467C22.1295 4.3188 22.66 6.10033 22.7394 8.37339C22.7464 8.41455 22.75 8.45685 22.75 8.5C22.75 8.52828 22.7484 8.55618 22.7454 8.58365C22.7485 8.7207 22.75 8.85949 22.75 9V15C22.75 15.1405 22.7485 15.2793 22.7454 15.4164C22.7484 15.4438 22.75 15.4717 22.75 15.5C22.75 15.5432 22.7464 15.5855 22.7394 15.6266C22.66 17.8997 22.1295 19.6812 20.9053 20.9053C19.5709 22.2398 17.574 22.75 15 22.75H9C6.42603 22.75 4.42914 22.2398 3.09467 20.9053C1.7602 19.5709 1.25 17.574 1.25 15V9C1.25 6.42603 1.7602 4.42914 3.09467 3.09467ZM21.25 14.75V9.25H16.26V14.75H21.25ZM16.26 16.25H21.2004C21.0549 17.9604 20.5914 19.098 19.8447 19.8447C19.0994 20.5899 17.9648 21.0531 16.26 21.1996V16.25ZM14.76 14.75V9.25H9.26V14.75H14.76ZM9.26 16.25H14.76V21.25H9.26V16.25ZM7.76 14.75V9.25H2.75V14.75H7.76ZM2.79956 16.25H7.76V21.2013C6.04405 21.0567 4.9035 20.5928 4.15533 19.8447C3.40862 19.098 2.94511 17.9604 2.79956 16.25ZM2.79956 7.75H7.76V2.79871C6.04405 2.9433 4.9035 3.40716 4.15533 4.15533C3.40862 4.90204 2.94511 6.03962 2.79956 7.75ZM9.26 2.75V7.75H14.76V2.75H9.26ZM16.26 2.80041V7.75H21.2004C21.0549 6.03962 20.5914 4.90204 19.8447 4.15533C19.0994 3.41007 17.9648 2.94692 16.26 2.80041Z" fill="#595854"/>
</svg>
