<svg width="24" height="24" viewBox="0 0 24 24" fill="none" xmlns="http://www.w3.org/2000/svg">
<path fill-rule="evenodd" clip-rule="evenodd" d="M1.35699 3.51414C1.5701 3.15896 2.0308 3.04378 2.38599 3.2569L4.88475 4.75616C4.88455 4.75604 4.88496 4.75628 4.88475 4.75616C6.18775 5.53426 7.81258 5.53451 9.11547 4.75616C10.8924 3.69463 13.1079 3.69463 14.8848 4.75616C16.1877 5.53452 17.8119 5.53463 19.1149 4.7565C19.1147 4.75662 19.1151 4.75639 19.1149 4.7565L21.6142 3.2569C21.9694 3.04378 22.4301 3.15896 22.6432 3.51414C22.8563 3.86933 22.7412 4.33002 22.386 4.54314L19.8848 6.04387C18.1079 7.1054 15.8924 7.1054 14.1155 6.04387C12.8124 5.2654 11.1879 5.2654 9.88476 6.04387C8.10785 7.1054 5.89237 7.1054 4.11547 6.04387L4.11424 6.04314L1.61424 4.54314C1.25906 4.33002 1.14388 3.86933 1.35699 3.51414ZM4.88475 12.2439C4.88451 12.244 4.885 12.2437 4.88475 12.2439L2.38599 13.7431C2.0308 13.9562 1.5701 13.8411 1.35699 13.4859C1.14388 13.1307 1.25906 12.67 1.61424 12.4569L4.11547 10.9562C5.89237 9.89464 8.10785 9.89464 9.88476 10.9562C11.1879 11.7346 12.8124 11.7346 14.1155 10.9562C15.8924 9.89464 18.1079 9.89464 19.8848 10.9562L19.886 10.9569L22.386 12.4569C22.7412 12.67 22.8563 13.1307 22.6432 13.4859C22.4301 13.8411 21.9694 13.9562 21.6142 13.7431L19.1155 12.2439C19.1152 12.2437 19.1157 12.244 19.1155 12.2439C17.8125 11.4658 16.1876 11.4655 14.8848 12.2439C13.1079 13.3054 10.8924 13.3054 9.11547 12.2439C7.81262 11.4655 6.18773 11.4658 4.88475 12.2439ZM4.88475 19.2439C4.88451 19.244 4.885 19.2437 4.88475 19.2439L2.38599 20.7431C2.0308 20.9562 1.5701 20.8411 1.35699 20.4859C1.14388 20.1307 1.25906 19.67 1.61424 19.4569L4.11424 17.9569L4.11547 17.9562C5.89237 16.8946 8.10785 16.8946 9.88476 17.9562C11.1879 18.7346 12.8124 18.7346 14.1155 17.9562C15.8924 16.8946 18.1079 16.8946 19.8848 17.9562L19.886 17.9569L22.386 19.4569C22.7412 19.67 22.8563 20.1307 22.6432 20.4859C22.4301 20.8411 21.9694 20.9562 21.6142 20.7431L19.1155 19.2439C19.1152 19.2437 19.1157 19.244 19.1155 19.2439C17.8125 18.4658 16.1876 18.4655 14.8848 19.2439C13.1079 20.3054 10.8924 20.3054 9.11547 19.2439C7.81262 18.4655 6.18773 18.4658 4.88475 19.2439Z" fill="#595854"/>
</svg>
