<svg width="24" height="24" viewBox="0 0 24 24" fill="none" xmlns="http://www.w3.org/2000/svg">
<path fill-rule="evenodd" clip-rule="evenodd" d="M5.25 8C5.25 4.27579 8.27579 1.25 12 1.25C15.7242 1.25 18.75 4.27579 18.75 8V13C18.75 16.7242 15.7242 19.75 12 19.75C8.27579 19.75 5.25 16.7242 5.25 13V8ZM12 2.75C9.10421 2.75 6.75 5.10421 6.75 8V13C6.75 15.8958 9.10421 18.25 12 18.25C14.8958 18.25 17.25 15.8958 17.25 13V8C17.25 5.10421 14.8958 2.75 12 2.75ZM14.3527 8.1845C12.7389 7.59517 10.9811 7.59517 9.36726 8.1845C8.97818 8.32658 8.54758 8.12634 8.4055 7.73726C8.26342 7.34818 8.46366 6.91758 8.85274 6.7755C10.7989 6.06483 12.9211 6.06483 14.8673 6.7755C15.2563 6.91758 15.4566 7.34818 15.3145 7.73726C15.1724 8.12634 14.7418 8.32658 14.3527 8.1845ZM13.5011 11.2032C12.4313 10.9089 11.2987 10.9089 10.2289 11.2032C9.82948 11.313 9.41668 11.0783 9.30685 10.6789C9.19701 10.2795 9.43175 9.86668 9.83113 9.75685C11.1613 9.39105 12.5687 9.39105 13.8989 9.75685C14.2983 9.86668 14.533 10.2795 14.4232 10.6789C14.3133 11.0783 13.9005 11.313 13.5011 11.2032ZM3 10.25C3.41421 10.25 3.75 10.5858 3.75 11V13C3.75 17.5558 7.44421 21.25 12 21.25C16.5558 21.25 20.25 17.5558 20.25 13V11C20.25 10.5858 20.5858 10.25 21 10.25C21.4142 10.25 21.75 10.5858 21.75 11V13C21.75 18.3842 17.3842 22.75 12 22.75C6.61579 22.75 2.25 18.3842 2.25 13V11C2.25 10.5858 2.58579 10.25 3 10.25Z" fill="#595854"/>
</svg>
