<svg width="24" height="24" viewBox="0 0 24 24" fill="none" xmlns="http://www.w3.org/2000/svg">
<path fill-rule="evenodd" clip-rule="evenodd" d="M4.92105 6.01015C3.54833 7.62402 2.72 9.71528 2.72 12C2.72 14.2847 3.54833 16.376 4.92105 17.9898L7.78651 15.1325C7.13537 14.2581 6.75 13.174 6.75 12C6.75 10.826 7.13537 9.74194 7.78651 8.86752L4.92105 6.01015ZM5.98184 4.94962L8.84425 7.80394C9.72268 7.14225 10.8155 6.75 12 6.75C13.1717 6.75 14.2537 7.13381 15.1272 7.78257L17.9636 4.95421C16.3492 3.5796 14.2565 2.75 11.97 2.75C9.68607 2.75 7.59547 3.57775 5.98184 4.94962ZM19.5092 4.33692C17.569 2.42783 14.907 1.25 11.97 1.25C6.03294 1.25 1.22 6.06294 1.22 12C1.22 17.9371 6.03294 22.75 11.97 22.75C14.907 22.75 17.569 21.5722 19.5092 19.6631C19.5342 19.6437 19.5582 19.6225 19.5811 19.5996C19.6037 19.5769 19.6246 19.5531 19.6437 19.5284C21.5465 17.5891 22.72 14.9316 22.72 12C22.72 9.06843 21.5465 6.41093 19.6437 4.47161C19.6246 4.4469 19.6037 4.42312 19.5811 4.40042C19.5582 4.37746 19.5342 4.3563 19.5092 4.33692ZM19.0235 6.01555L16.1921 8.83899C16.8562 9.71832 17.25 10.8132 17.25 12C17.25 13.1868 16.8562 14.2817 16.1921 15.161L19.0235 17.9844C20.3935 16.3713 21.22 14.2822 21.22 12C21.22 9.71782 20.3935 7.62868 19.0235 6.01555ZM17.9636 19.0458L15.1272 16.2174C14.2537 16.8662 13.1717 17.25 12 17.25C10.8155 17.25 9.72268 16.8577 8.84425 16.1961L5.98184 19.0504C7.59547 20.4222 9.68607 21.25 11.97 21.25C14.2565 21.25 16.3492 20.4204 17.9636 19.0458ZM12 8.25C9.92893 8.25 8.25 9.92893 8.25 12C8.25 14.0711 9.92893 15.75 12 15.75C14.0711 15.75 15.75 14.0711 15.75 12C15.75 9.92893 14.0711 8.25 12 8.25Z" fill="#595854"/>
</svg>
