<svg width="24" height="24" viewBox="0 0 24 24" fill="none" xmlns="http://www.w3.org/2000/svg">
<path fill-rule="evenodd" clip-rule="evenodd" d="M6.87988 3.25C6.1941 3.25 5.62988 3.81421 5.62988 4.5V11.25H11.9999C14.2057 11.25 15.9999 9.45579 15.9999 7.25C15.9999 5.04421 14.2057 3.25 11.9999 3.25H6.87988ZM15.6178 11.3903C16.7709 10.3816 17.4999 8.89983 17.4999 7.25C17.4999 4.21579 15.0341 1.75 11.9999 1.75H6.87988C5.36567 1.75 4.12988 2.98579 4.12988 4.5V19.5C4.12988 21.0142 5.36567 22.25 6.87988 22.25H14.3799C17.4141 22.25 19.8799 19.7842 19.8799 16.75C19.8799 14.1414 18.0573 11.9529 15.6178 11.3903ZM5.62988 12.75V19.5C5.62988 20.1858 6.1941 20.75 6.87988 20.75H14.3799C16.5857 20.75 18.3799 18.9558 18.3799 16.75C18.3799 14.5442 16.5857 12.75 14.3799 12.75H5.62988Z" fill="#595854"/>
</svg>
