<svg width="24" height="24" viewBox="0 0 24 24" fill="none" xmlns="http://www.w3.org/2000/svg">
<path fill-rule="evenodd" clip-rule="evenodd" d="M14.3474 1.63048C14.4805 1.39534 14.7298 1.25 15 1.25C19.2842 1.25 22.75 4.71579 22.75 9C22.75 9.41421 22.4142 9.75 22 9.75C21.5858 9.75 21.25 9.41421 21.25 9C21.25 6.03342 19.1909 3.55437 16.4218 2.91194L16.6931 3.36413C16.9062 3.71931 16.7911 4.18001 16.4359 4.39312C16.0807 4.60623 15.62 4.49106 15.4069 4.13587L14.3569 2.38587C14.2179 2.15417 14.2142 1.86561 14.3474 1.63048ZM2.68842 7.68842C3.74164 6.6352 5.30103 6.25 7.25 6.25H11.75C13.699 6.25 15.2584 6.6352 16.3116 7.68842C17.3648 8.74164 17.75 10.301 17.75 12.25V16.75C17.75 18.699 17.3648 20.2584 16.3116 21.3116C15.2584 22.3648 13.699 22.75 11.75 22.75H7.25C5.30103 22.75 3.74164 22.3648 2.68842 21.3116C1.6352 20.2584 1.25 18.699 1.25 16.75V12.25C1.25 10.301 1.6352 8.74164 2.68842 7.68842ZM3.74908 8.74908C3.1148 9.38336 2.75 10.449 2.75 12.25V16.75C2.75 18.551 3.1148 19.6166 3.74908 20.2509C4.38336 20.8852 5.44897 21.25 7.25 21.25H11.75C13.551 21.25 14.6166 20.8852 15.2509 20.2509C15.8852 19.6166 16.25 18.551 16.25 16.75V12.25C16.25 10.449 15.8852 9.38336 15.2509 8.74908C14.6166 8.1148 13.551 7.75 11.75 7.75H7.25C5.44897 7.75 4.38336 8.1148 3.74908 8.74908Z" fill="#595854"/>
</svg>
