<svg width="24" height="24" viewBox="0 0 24 24" fill="none" xmlns="http://www.w3.org/2000/svg">
<path fill-rule="evenodd" clip-rule="evenodd" d="M2.7907 7.85999C2.76367 8.21528 2.75 8.59477 2.75 9V15C2.75 17.426 3.2398 18.9291 4.15533 19.8447C5.07086 20.7602 6.57397 21.25 9 21.25H14.0246C13.5326 20.4519 13.25 19.5103 13.25 18.5C13.25 16.8476 14.0072 15.3632 15.2226 14.4034C16.1208 13.6813 17.2644 13.25 18.5 13.25C19.5103 13.25 20.4519 13.5326 21.25 14.0246V9C21.25 8.59477 21.2363 8.21528 21.2093 7.85999H2.7907ZM3.01556 6.35999H7.76999V2.79788C6.04848 2.94151 4.90495 3.40571 4.15533 4.15533C3.63271 4.67795 3.24881 5.39205 3.01556 6.35999ZM9.26999 2.75V6.35999H14.73V2.75H9.26999ZM16.23 2.79788V6.35999H20.9844C20.7512 5.39205 20.3673 4.67795 19.8447 4.15533C19.0951 3.40571 17.9515 2.94151 16.23 2.79788ZM22.7455 15.4121C22.75 15.2721 22.75 15.137 22.75 15.0155V9C22.75 6.42603 22.2398 4.42914 20.9053 3.09467C19.5709 1.7602 17.574 1.25 15 1.25H9C6.42603 1.25 4.42914 1.7602 3.09467 3.09467C1.7602 4.42914 1.25 6.42603 1.25 9V15C1.25 17.574 1.7602 19.5709 3.09467 20.9053C4.42914 22.2398 6.42603 22.75 9 22.75H15.0146C15.1364 22.75 15.2718 22.75 15.412 22.7455C16.2776 23.3809 17.352 23.75 18.5 23.75C19.8343 23.75 21.0351 23.2456 21.9598 22.4479L21.9694 22.4396C23.047 21.4778 23.75 20.0791 23.75 18.5C23.75 17.352 23.381 16.2776 22.7455 15.4121ZM18.5 14.75C17.617 14.75 16.8017 15.0577 16.1604 15.5742L16.1544 15.579C15.2915 16.2593 14.75 17.3138 14.75 18.5C14.75 19.677 15.2825 20.7156 16.1227 21.3977L16.1294 21.4032C16.7664 21.9326 17.5973 22.25 18.5 22.25C19.4434 22.25 20.3009 21.8961 20.9753 21.3162C21.755 20.6182 22.25 19.6187 22.25 18.5C22.25 17.5973 21.9327 16.7664 21.4032 16.1294L21.3977 16.1228C20.7156 15.2826 19.6769 14.75 18.5 14.75ZM18.78 16.34C19.1942 16.34 19.53 16.6758 19.53 17.09V18.78C19.53 19.0435 19.3918 19.2876 19.1659 19.4232L17.7659 20.2631C17.4107 20.4762 16.95 20.361 16.7369 20.0059C16.5238 19.6507 16.639 19.19 16.9941 18.9769L18.03 18.3554V17.09C18.03 16.6758 18.3658 16.34 18.78 16.34Z" fill="#595854"/>
</svg>
