<svg width="24" height="24" viewBox="0 0 24 24" fill="none" xmlns="http://www.w3.org/2000/svg">
<path fill-rule="evenodd" clip-rule="evenodd" d="M9.69182 3.36257C9.27472 3.08243 8.72528 3.08243 8.30818 3.36257L8.3064 3.36376L4.30865 6.03224C4.30832 6.03246 4.308 6.03268 4.30767 6.0329C3.96035 6.26701 3.75009 6.65596 3.75 7.06971C3.75 7.06961 3.75 7.0698 3.75 7.06971L3.75414 13.25H14.2541L14.25 7.07049C14.25 6.64991 14.0444 6.26552 13.6965 6.0357L13.6936 6.03375L9.6936 3.36376L9.69182 3.36257ZM14.2552 14.75H3.75515L3.7595 21.25H8.25V18.25C8.25 17.8358 8.58579 17.5 9 17.5C9.41421 17.5 9.75 17.8358 9.75 18.25V21.2487L14.2595 21.2412L14.2552 14.75ZM9 22.75L8.99757 22.75L3.01126 22.76C2.9697 22.7601 2.92849 22.7567 2.88802 22.75H2C1.58579 22.75 1.25 22.4142 1.25 22C1.25 21.5858 1.58579 21.25 2 21.25H2.2595L2.2547 14.0844C2.25159 14.0567 2.25 14.0285 2.25 14C2.25 13.9718 2.25156 13.944 2.25459 13.9166L2.25 7.07049C2.25 6.14472 2.71936 5.29356 3.47138 4.78766L3.47363 4.78615L7.47185 2.11736C7.47218 2.11714 7.4725 2.11692 7.47283 2.1167C8.39531 1.4977 9.6048 1.49772 10.5273 2.11676C10.5276 2.11696 10.5279 2.11716 10.5282 2.11736L14.5234 4.7842C14.524 4.78454 14.5245 4.78489 14.525 4.78524C15.2961 5.29545 15.7498 6.15087 15.75 7.06948C15.75 7.06931 15.75 7.06965 15.75 7.06948L15.7595 21.25H19.23V18.6399C18.0883 18.3054 17.25 17.2471 17.25 16V14C17.25 12.4858 18.4858 11.25 20 11.25C21.5142 11.25 22.75 12.4858 22.75 14V16C22.75 17.2617 21.8921 18.33 20.73 18.6513V21.25H22C22.4142 21.25 22.75 21.5858 22.75 22C22.75 22.4142 22.4142 22.75 22 22.75H20.1028C20.0628 22.7566 20.0218 22.76 19.98 22.76C19.9381 22.76 19.8971 22.7566 19.8571 22.75H9ZM9 8.25C8.58579 8.25 8.25 8.58579 8.25 9C8.25 9.41421 8.58579 9.75 9 9.75C9.41421 9.75 9.75 9.41421 9.75 9C9.75 8.58579 9.41421 8.25 9 8.25ZM6.75 9C6.75 7.75736 7.75736 6.75 9 6.75C10.2426 6.75 11.25 7.75736 11.25 9C11.25 10.2426 10.2426 11.25 9 11.25C7.75736 11.25 6.75 10.2426 6.75 9ZM20 12.75C19.3142 12.75 18.75 13.3142 18.75 14V16C18.75 16.6858 19.3142 17.25 20 17.25C20.6858 17.25 21.25 16.6858 21.25 16V14C21.25 13.3142 20.6858 12.75 20 12.75Z" fill="#595854"/>
</svg>
