<svg width="24" height="24" viewBox="0 0 24 24" fill="none" xmlns="http://www.w3.org/2000/svg">
<path fill-rule="evenodd" clip-rule="evenodd" d="M1.25 12C1.25 6.08579 6.08579 1.25 12 1.25C17.9142 1.25 22.75 6.08579 22.75 12C22.75 17.9142 17.9142 22.75 12 22.75C10.1784 22.75 8.35754 22.2746 6.80033 21.4085L3.88903 22.2403C2.58692 22.6123 1.37381 21.4279 1.71458 20.1173L2.50174 17.0897C1.73173 15.5613 1.25 13.8344 1.25 12ZM12 2.75C6.91421 2.75 2.75 6.91421 2.75 12C2.75 13.6595 3.21092 15.2392 3.96176 16.6471C4.05036 16.8132 4.07324 17.0065 4.02587 17.1887L3.16631 20.4947C3.11763 20.6819 3.29093 20.8512 3.47695 20.798L6.69396 19.8789C6.89356 19.8218 7.10787 19.8501 7.28587 19.9569C8.66797 20.7861 10.3344 21.25 12 21.25C17.0858 21.25 21.25 17.0858 21.25 12C21.25 6.91421 17.0858 2.75 12 2.75ZM9.11793 8.25C9.01591 8.25 8.88138 8.28575 8.70626 8.45788L8.70058 8.46347L8.69478 8.46893C8.5312 8.62301 8.42522 8.784 8.36003 8.94945L8.35847 8.95341C8.28818 9.12886 8.25 9.32603 8.25 9.543C8.25 9.89353 8.33075 10.2845 8.51511 10.722C8.7057 11.1698 8.97284 11.6335 9.31506 12.1088C9.665 12.5886 10.0581 13.0489 10.4951 13.4898C10.9369 13.9264 11.3987 14.3196 11.885 14.6743C12.3577 15.0178 12.8267 15.2854 13.2874 15.4814C13.7304 15.6699 14.1217 15.75 14.4629 15.75C14.6834 15.75 14.878 15.7096 15.0537 15.6365L15.0577 15.6349C15.2175 15.5695 15.3709 15.464 15.5255 15.2939M7.66056 7.38246C8.06128 6.99092 8.55564 6.75 9.11793 6.75C9.34705 6.75 9.58291 6.79828 9.80165 6.90205C10.027 7.00681 10.2362 7.16926 10.3984 7.40149L11.4405 8.86812C11.5468 9.01593 11.6358 9.16834 11.7025 9.32956C11.7711 9.49116 11.8239 9.68509 11.8239 9.894C11.8239 10.1488 11.7496 10.3866 11.6261 10.5931C11.5276 10.7645 11.3996 10.9204 11.2623 11.0582L11.1821 11.1414C11.2283 11.202 11.284 11.2715 11.3505 11.35C11.5433 11.5725 11.7464 11.7962 11.9644 12.0183C12.1997 12.2487 12.4179 12.4535 12.6355 12.6381C12.7156 12.7056 12.7864 12.7617 12.8484 12.8078L12.9254 12.7319C13.0627 12.5951 13.2241 12.4594 13.4096 12.3589C13.611 12.2409 13.8407 12.168 14.0979 12.168C14.2933 12.168 14.4796 12.21 14.6564 12.2822C14.8185 12.3484 14.9691 12.4361 15.1096 12.5315L15.1158 12.5358L16.6107 13.5955C16.8225 13.7428 17.0015 13.9392 17.1142 14.1951L17.1194 14.2067L17.1241 14.2186C17.1966 14.3997 17.25 14.6074 17.25 14.8485C17.25 15.1232 17.1886 15.399 17.0653 15.6596C16.9589 15.8847 16.8194 16.1003 16.6362 16.3021C16.3498 16.6173 16.0169 16.8627 15.6279 17.0223C15.2633 17.1737 14.8727 17.25 14.4629 17.25C13.8848 17.25 13.2936 17.1142 12.7001 16.8616C12.1244 16.6167 11.5571 16.2904 11.0024 15.8871L11.0015 15.8865C10.4523 15.4859 9.93256 15.043 9.43784 14.5538L9.43268 14.5487C8.94285 14.0548 8.49899 13.5356 8.10181 12.9909L8.09926 12.9874C7.70328 12.4377 7.37613 11.8765 7.13434 11.3081L7.13342 11.3059C6.88544 10.7179 6.75 10.1282 6.75 9.543C6.75 9.14869 6.81974 8.76155 6.96524 8.39757C7.11549 8.01714 7.34979 7.67664 7.66056 7.38246ZM9.11793 8.25C9.13927 8.25 9.15376 8.25491 9.15882 8.25733L9.11793 8.25ZM9.17018 8.26267C9.16984 8.26251 9.16947 8.26233 9.16907 8.26215L9.15882 8.25733M9.17157 8.26304C9.17389 8.26495 9.17412 8.26457 9.17018 8.26267L9.16854 8.26037C9.16814 8.25978 9.16845 8.26025 9.16854 8.26037L9.17157 8.26304ZM10.305 9.87754C10.2891 9.84483 10.2637 9.80074 10.2222 9.74316L10.2191 9.73892L9.17018 8.26267M10.305 9.87754C10.2832 9.90836 10.2486 9.95064 10.1969 10.0023L10.1918 10.0074L9.84776 10.3645C9.65043 10.5651 9.56222 10.8171 9.56222 11.0685C9.56222 11.1757 9.57684 11.2688 9.5982 11.3542L9.60858 11.3956L9.62362 11.4357C9.63575 11.468 9.64797 11.4967 9.65345 11.5096C9.654 11.5109 9.65448 11.512 9.65489 11.513C9.65488 11.513 9.65489 11.513 9.65489 11.513L9.67155 11.5629L9.7036 11.6216C9.82023 11.8351 9.99717 12.0732 10.2087 12.3229L10.2142 12.3292C10.4246 12.572 10.6517 12.8225 10.8994 13.0747L10.9044 13.0797L10.9095 13.0847C11.1589 13.3291 11.4076 13.5635 11.666 13.7826L11.6669 13.7834C11.9235 14.0002 12.1632 14.172 12.3818 14.2876L12.4171 14.3062L12.4485 14.3188L12.4574 14.3228L12.4608 14.3243C12.4727 14.3298 12.4947 14.3399 12.5184 14.35L12.5343 14.3568L12.5505 14.3629C12.696 14.4174 12.8276 14.4285 12.9261 14.4285C13.2108 14.4285 13.4562 14.316 13.6386 14.135L13.9798 13.7987L13.9834 13.7952C14.0522 13.7265 14.0963 13.6948 14.1158 13.6827C14.1504 13.6992 14.1977 13.7258 14.2612 13.7686L15.7463 14.8214C15.7465 14.8224 15.7472 14.8239 15.7474 14.8248C15.7492 14.8333 15.75 14.8403 15.75 14.8485C15.75 14.8978 15.7393 14.955 15.7093 15.0184C15.6626 15.1172 15.6036 15.2078 15.5255 15.2939" fill="#595854"/>
</svg>
