<svg width="24" height="24" viewBox="0 0 24 24" fill="none" xmlns="http://www.w3.org/2000/svg">
<path fill-rule="evenodd" clip-rule="evenodd" d="M6.02718 4.97318C4.03781 6.66604 2.77588 9.18815 2.77588 12.005C2.77588 17.1021 6.90794 21.2342 12.0051 21.2342C13.7395 21.2342 15.3621 20.7558 16.7483 19.9237L10.442 13.6097L10.4299 16.3393C10.4281 16.7535 10.0908 17.0878 9.67663 17.086C9.26242 17.0841 8.92812 16.7469 8.92994 16.3327L8.9499 11.8021C8.95123 11.4993 9.13455 11.227 9.41462 11.1118C9.69469 10.9966 10.0165 11.0611 10.2305 11.2754L17.9827 19.037C19.9722 17.3442 21.2343 14.822 21.2343 12.005C21.2343 6.90784 17.1022 2.77578 12.0051 2.77578C10.2705 2.77578 8.64768 3.2543 7.26144 4.08654L13.5582 10.3987L13.5703 7.66074C13.5721 7.24653 13.9094 6.91222 14.3236 6.91404C14.7378 6.91586 15.0721 7.25312 15.0703 7.66733L15.0503 12.2079C15.049 12.5108 14.8656 12.7832 14.5854 12.8983C14.3052 13.0134 13.9833 12.9487 13.7693 12.7343L6.02718 4.97318ZM1.27588 12.005C1.27588 6.07941 6.07951 1.27578 12.0051 1.27578C17.9307 1.27578 22.7343 6.07941 22.7343 12.005C22.7343 17.9306 17.9307 22.7342 12.0051 22.7342C6.07951 22.7342 1.27588 17.9306 1.27588 12.005Z" fill="#595854"/>
</svg>
