<svg width="24" height="24" viewBox="0 0 24 24" fill="none" xmlns="http://www.w3.org/2000/svg">
<path fill-rule="evenodd" clip-rule="evenodd" d="M9.74194 3.2766C9.28286 3.2766 8.96774 3.6596 8.96774 4.04255C8.96774 4.42551 9.28286 4.80851 9.74194 4.80851H14.2581C14.7171 4.80851 15.0323 4.42551 15.0323 4.04255C15.0323 3.6596 14.7171 3.2766 14.2581 3.2766H9.74194ZM15.2903 5.76819C15.8269 5.41007 16.1935 4.77999 16.1935 4.04255C16.1935 2.89019 15.2983 2 14.2581 2H9.74194C8.70165 2 7.80645 2.89019 7.80645 4.04255C7.80645 4.77999 8.17305 5.41007 8.70968 5.7682V6.93532C8.70968 6.99496 8.68168 7.07273 8.63008 7.12621L6.71524 9.11091C6.49526 9.33891 6.32204 9.64191 6.20382 9.9374C6.08612 10.2316 6 10.5758 6 10.9047V18.5532C6 20.4853 7.51198 22 9.29032 22H14.7097C16.488 22 18 20.4853 18 18.5532V10.9047C18 10.5758 17.9139 10.2316 17.7962 9.9374C17.678 9.64191 17.5047 9.33891 17.2848 9.11091L15.3699 7.12621C15.3183 7.07273 15.2903 6.99496 15.2903 6.93532V5.76819ZM14.129 6.08511H9.87097V6.93532C9.87097 7.36248 9.7003 7.77151 9.42674 8.05505L7.5119 10.0397C7.43382 10.1207 7.34058 10.267 7.26685 10.4513C7.1926 10.6369 7.16129 10.803 7.16129 10.9047V13.2184L10.0942 13.234C10.0947 13.234 10.0952 13.234 10.0957 13.234C10.8396 13.2343 11.574 13.414 12.2476 13.7631C12.7653 14.0314 13.3309 14.1702 13.9148 14.1702H16.8387V10.9047C16.8387 10.803 16.8074 10.6369 16.7332 10.4513C16.6594 10.267 16.5662 10.1207 16.4881 10.0397L14.5733 8.05505C14.2997 7.77151 14.129 7.36248 14.129 6.93532V6.08511ZM16.8387 15.4468H13.9148C13.1619 15.4468 12.427 15.2674 11.7524 14.9178C11.2342 14.6492 10.6685 14.5106 10.0942 14.5106H10.0914L7.16129 14.495V18.5532C7.16129 19.7105 8.08802 20.7234 9.29032 20.7234H14.7097C15.912 20.7234 16.8387 19.7105 16.8387 18.5532V15.4468Z" fill="#595854"/>
</svg>
