<svg width="24" height="24" viewBox="0 0 24 24" fill="none" xmlns="http://www.w3.org/2000/svg">
<path fill-rule="evenodd" clip-rule="evenodd" d="M9.22612 1.87967C9.90786 1.38983 10.6997 1.25 11.46 1.25H12.55C13.3107 1.25 14.0997 1.38996 14.7799 1.87822C15.4671 2.37151 15.9412 3.14638 16.2162 4.21271C16.2193 4.22452 16.222 4.2364 16.2245 4.24834L16.682 6.46427C18.2528 7.79414 19.25 9.78057 19.25 12C19.25 14.2189 18.2496 16.2129 16.6806 17.5427L16.2245 19.7517C16.222 19.7636 16.2193 19.7755 16.2162 19.7873C15.9412 20.8536 15.4671 21.6285 14.7799 22.1218C14.0997 22.61 13.3107 22.75 12.55 22.75H11.46C10.6997 22.75 9.90786 22.6102 9.22612 22.1203C8.53664 21.6249 8.06232 20.846 7.79262 19.7728C7.78969 19.7612 7.78705 19.7494 7.78468 19.7377L7.34813 17.5638C5.76023 16.2341 4.75 14.2389 4.75 12C4.75 9.76669 5.75968 7.76931 7.34748 6.43941L7.78468 4.26233C7.78705 4.25056 7.78969 4.23885 7.79262 4.2272C8.06232 3.154 8.53664 2.37507 9.22612 1.87967ZM11.6269 4.75943C10.7303 4.80488 9.87674 5.01318 9.09513 5.35534L9.25166 4.57591C9.46201 3.75026 9.78054 3.32836 10.1014 3.09783C10.4321 2.86017 10.8703 2.75 11.46 2.75H12.55C13.1393 2.75 13.5753 2.86004 13.9051 3.09678C14.2257 3.32689 14.5444 3.74778 14.7593 4.57016L14.9229 5.36262C14.0301 4.96836 13.0421 4.75 12 4.75C11.8749 4.75 11.7505 4.75317 11.6269 4.75943ZM8.43854 7.48535C7.10549 8.53837 6.25 10.1692 6.25 12C6.25 13.8281 7.09663 15.4496 8.42331 16.5054C8.44931 16.5208 8.47445 16.5379 8.49859 16.5565C9.47158 17.3084 10.6814 17.75 12 17.75C13.3373 17.75 14.5558 17.2993 15.5281 16.5391C15.552 16.5204 15.577 16.5032 15.6029 16.4876C16.9116 15.4321 17.75 13.81 17.75 12C17.75 10.17 16.8952 8.53975 15.5632 7.4867C15.5512 7.47844 15.5395 7.46983 15.5281 7.46086C15.3576 7.32757 15.1795 7.20379 14.9946 7.09029C14.1224 6.55721 13.0971 6.25 12 6.25C11.4836 6.25 10.9832 6.31806 10.5071 6.44569C9.76922 6.64392 9.09014 6.98635 8.49859 7.44346C8.4792 7.45845 8.45915 7.47242 8.43854 7.48535ZM14.9229 18.6374C14.0301 19.0316 13.0421 19.25 12 19.25C10.9671 19.25 9.98495 19.0342 9.09481 18.643L9.25166 19.4241C9.46201 20.2497 9.78054 20.6716 10.1014 20.9022C10.4321 21.1398 10.8703 21.25 11.46 21.25H12.55C13.1393 21.25 13.5753 21.14 13.9051 20.9032C14.2257 20.6731 14.5444 20.2522 14.7593 19.4298L14.9229 18.6374ZM12 8.91C12.4142 8.91 12.75 9.24579 12.75 9.66V12.1393L13.9303 13.3197C14.2232 13.6126 14.2232 14.0874 13.9303 14.3803C13.6374 14.6732 13.1626 14.6732 12.8697 14.3803L11.4697 12.9803C11.329 12.8397 11.25 12.6489 11.25 12.45V9.66C11.25 9.24579 11.5858 8.91 12 8.91Z" fill="#595854"/>
</svg>
