<svg width="24" height="24" viewBox="0 0 24 24" fill="none" xmlns="http://www.w3.org/2000/svg">
<path fill-rule="evenodd" clip-rule="evenodd" d="M11.9927 2C12.5735 2 13.1864 2.07739 13.6882 2.25326L13.6935 2.25514L18.5235 3.99475C19.2283 4.24804 19.8391 4.76095 20.2724 5.363C20.7044 5.96306 21 6.70798 21 7.46337V14.3759C21 15.074 20.7655 15.8237 20.4262 16.472C20.0858 17.1225 19.6028 17.7417 19.0355 18.1492L14.8745 21.1345C14.8742 21.1347 14.8739 21.135 14.8736 21.1352C14.0553 21.7261 13.0102 22 12 22C10.9899 22 9.9449 21.7261 9.12663 21.1354C9.12624 21.1351 9.12585 21.1348 9.12546 21.1345L4.96479 18.1494C4.39748 17.7419 3.91425 17.1225 3.57379 16.472C3.23452 15.8238 3 15.074 3 14.3759V7.46337C3 6.70798 3.29564 5.96306 3.72756 5.363C4.1609 4.76097 4.77161 4.24808 5.47641 3.99478C5.47638 3.99479 5.47644 3.99477 5.47641 3.99478L10.3072 2.25492C10.8023 2.07718 11.4127 2 11.9927 2ZM10.75 3.57304C10.7499 3.57308 10.7502 3.573 10.75 3.57304L5.91984 5.31271C5.51144 5.45947 5.1106 5.77922 4.81069 6.19589C4.50933 6.61456 4.35 7.07443 4.35 7.46337V14.3759C4.35 14.7755 4.49302 15.2957 4.76119 15.8081C5.02816 16.3182 5.38255 16.7502 5.73485 17.0033C5.73484 17.0033 5.73487 17.0033 5.73485 17.0033L9.89891 19.9909C10.4454 20.3857 11.2053 20.6047 12 20.6047C12.7947 20.6047 13.5546 20.3857 14.1011 19.9909L14.1029 19.9896L18.2651 17.0033C18.6174 16.7503 18.9718 16.3182 19.2388 15.8081C19.507 15.2957 19.65 14.7755 19.65 14.3759V7.46337C19.65 7.07443 19.4907 6.61456 19.1893 6.19589C18.8894 5.77922 18.4886 5.45947 18.0802 5.31271L13.2546 3.5747C13.2538 3.57441 13.253 3.57412 13.2521 3.57383C12.9312 3.46182 12.4755 3.39535 11.9927 3.39535C11.5081 3.39535 11.0583 3.46244 10.75 3.57304ZM11.9322 8.42155C11.319 8.42155 10.9035 8.8911 10.9035 9.3613C10.9035 9.82582 11.2957 10.2788 11.8756 10.3011H11.9792C12.5582 10.2789 12.9536 9.83496 12.961 9.35747C12.9587 8.88855 12.5438 8.42155 11.9322 8.42155ZM9.55351 9.3613C9.55351 8.02663 10.6675 7.02621 11.9322 7.02621C13.1969 7.02621 14.311 8.02663 14.311 9.3613L14.3109 9.36912C14.2968 10.6739 13.2448 11.6582 12.0103 11.6961C12.0073 11.6962 12.0043 11.6963 12.0012 11.6963C11.9976 11.6964 11.994 11.6964 11.9903 11.6964H11.8645C11.8578 11.6964 11.8511 11.6963 11.8445 11.6961C10.6093 11.6582 9.55351 10.6621 9.55351 9.3613ZM11.9928 12.3967C12.7826 12.3967 13.6091 12.5868 14.2644 13.0119C14.8629 13.3959 15.279 13.9852 15.279 14.6876C15.279 15.3904 14.8624 15.9799 14.2633 16.364C13.6043 16.788 12.7761 16.9784 11.9855 16.9784C11.1948 16.9784 10.3666 16.7879 9.70753 16.3639C9.10854 15.9798 8.69199 15.3903 8.69199 14.6876C8.69199 13.9845 9.1089 13.3948 9.70832 13.0107L9.70949 13.01C10.3721 12.5874 11.2016 12.3967 11.9928 12.3967ZM10.419 14.1971C10.0897 14.4083 10.042 14.6046 10.042 14.6876C10.042 14.7706 10.0897 14.9671 10.4196 15.1784L10.4208 15.1792C10.8168 15.4341 11.3824 15.5831 11.9855 15.5831C12.5886 15.5831 13.1541 15.4341 13.5502 15.1792L13.5514 15.1784C13.8813 14.9671 13.929 14.7706 13.929 14.6876C13.929 14.6045 13.8813 14.4081 13.5514 14.1967L13.5478 14.1944C13.1579 13.9411 12.5962 13.792 11.9928 13.792C11.3902 13.792 10.8212 13.9408 10.419 14.1971Z" fill="#595854"/>
</svg>
