<svg width="24" height="24" viewBox="0 0 24 24" fill="none" xmlns="http://www.w3.org/2000/svg">
<path fill-rule="evenodd" clip-rule="evenodd" d="M3.38658 3.38658C3.006 3.76716 2.75 4.39978 2.75 5.43V12.57C2.75 13.6002 3.006 14.2328 3.38658 14.6134C3.76716 14.994 4.39978 15.25 5.43 15.25H8C8.41421 15.25 8.75 15.5858 8.75 16C8.75 16.4142 8.41421 16.75 8 16.75H5.43C4.17022 16.75 3.08784 16.436 2.32592 15.6741C1.564 14.9122 1.25 13.8298 1.25 12.57V5.43C1.25 4.17022 1.564 3.08784 2.32592 2.32592C3.08784 1.564 4.17022 1.25 5.43 1.25H10C11.2598 1.25 12.3422 1.564 13.1041 2.32592C13.866 3.08784 14.18 4.17022 14.18 5.43C14.18 5.84421 13.8442 6.18 13.43 6.18C13.0158 6.18 12.68 5.84421 12.68 5.43C12.68 4.39978 12.424 3.76716 12.0434 3.38658C11.6628 3.006 11.0302 2.75 10 2.75H5.43C4.39978 2.75 3.76716 3.006 3.38658 3.38658ZM11.9566 9.38658C11.576 9.76716 11.32 10.3998 11.32 11.43V18.57C11.32 19.6002 11.576 20.2328 11.9566 20.6134C12.3372 20.994 12.9698 21.25 14 21.25H18.57C19.6002 21.25 20.2328 20.994 20.6134 20.6134C20.994 20.2328 21.25 19.6002 21.25 18.57V11.43C21.25 10.3998 20.994 9.76716 20.6134 9.38658C20.2328 9.006 19.6002 8.75 18.57 8.75H14C12.9698 8.75 12.3372 9.006 11.9566 9.38658ZM10.8959 8.32592C11.6578 7.564 12.7402 7.25 14 7.25H18.57C19.8298 7.25 20.9122 7.564 21.6741 8.32592C22.436 9.08784 22.75 10.1702 22.75 11.43V18.57C22.75 19.8298 22.436 20.9122 21.6741 21.6741C20.9122 22.436 19.8298 22.75 18.57 22.75H14C12.7402 22.75 11.6578 22.436 10.8959 21.6741C10.134 20.9122 9.82 19.8298 9.82 18.57V11.43C9.82 10.1702 10.134 9.08784 10.8959 8.32592ZM16.5 12.62C16.9142 12.62 17.25 12.9558 17.25 13.37V14.25H18.13C18.5442 14.25 18.88 14.5858 18.88 15C18.88 15.4142 18.5442 15.75 18.13 15.75H17.25V16.63C17.25 17.0442 16.9142 17.38 16.5 17.38C16.0858 17.38 15.75 17.0442 15.75 16.63V15.75H14.87C14.4558 15.75 14.12 15.4142 14.12 15C14.12 14.5858 14.4558 14.25 14.87 14.25H15.75V13.37C15.75 12.9558 16.0858 12.62 16.5 12.62Z" fill="#595854"/>
</svg>
