<svg width="24" height="24" viewBox="0 0 24 24" fill="none" xmlns="http://www.w3.org/2000/svg">
<path fill-rule="evenodd" clip-rule="evenodd" d="M12.0025 1.24756C12.6107 1.24756 13.2559 1.33178 13.7869 1.52546L13.7932 1.52773L18.7826 3.39756C18.7826 3.39754 18.7827 3.39758 18.7826 3.39756C19.5296 3.6769 20.1663 4.23765 20.613 4.88337C21.0598 5.52922 21.36 6.32273 21.36 7.12006V14.5501C21.36 15.289 21.1211 16.0878 20.7712 16.7833C20.4213 17.4791 19.922 18.1476 19.329 18.5908L15.0307 21.7995C15.0302 21.7999 15.0298 21.8002 15.0294 21.8005C14.1717 22.4448 13.0733 22.7451 12.01 22.7451C10.9467 22.7451 9.84834 22.4448 8.99065 21.8006C8.9902 21.8002 8.98975 21.7999 8.98929 21.7995L4.69132 18.5911C4.09832 18.1479 3.59868 17.4791 3.24871 16.7833C2.89887 16.0878 2.65997 15.289 2.65997 14.5501V7.12006C2.65997 6.32661 2.96092 5.53537 3.40738 4.89146C3.85376 4.24768 4.48986 3.68731 5.23635 3.40792C5.23667 3.4078 5.23698 3.40768 5.2373 3.40756L10.2256 1.52822L10.2276 1.52746C10.7522 1.33153 11.3951 1.24756 12.0025 1.24756ZM10.7533 2.93229C10.753 2.93241 10.7527 2.93253 10.7524 2.93265L5.76265 4.81256C5.35955 4.96328 4.951 5.29771 4.64006 5.74616C4.32903 6.19474 4.15997 6.6935 4.15997 7.12006V14.5501C4.15997 14.9911 4.31108 15.5573 4.58874 16.1093C4.86618 16.6609 5.23173 17.1222 5.58863 17.3891M5.58863 17.3891L9.89066 20.6006C10.4428 21.0156 11.2088 21.2451 12.01 21.2451C12.8112 21.2451 13.5772 21.0156 14.1293 20.6006L14.1313 20.5991L18.431 17.3893C18.788 17.1225 19.1537 16.661 19.4312 16.1093C19.7089 15.5573 19.86 14.9911 19.86 14.5501V7.12006C19.86 6.68739 19.6901 6.1859 19.3794 5.73675C19.0686 5.2875 18.6603 4.95324 18.2573 4.80256L13.2701 2.93362C12.9513 2.81792 12.4927 2.74756 12.0025 2.74756C11.5103 2.74756 11.0587 2.81844 10.7533 2.93229M12 9.25006C11.3096 9.25006 10.75 9.8097 10.75 10.5001C10.75 11.1904 11.3096 11.7501 12 11.7501C12.6903 11.7501 13.25 11.1904 13.25 10.5001C13.25 9.8097 12.6903 9.25006 12 9.25006ZM9.24997 10.5001C9.24997 8.98128 10.4812 7.75006 12 7.75006C13.5188 7.75006 14.75 8.98128 14.75 10.5001C14.75 11.7588 13.9042 12.8201 12.75 13.1465V15.5001C12.75 15.9143 12.4142 16.2501 12 16.2501C11.5858 16.2501 11.25 15.9143 11.25 15.5001V13.1465C10.0957 12.8201 9.24997 11.7588 9.24997 10.5001Z" fill="#595854"/>
</svg>
