<svg width="24" height="24" viewBox="0 0 24 24" fill="none" xmlns="http://www.w3.org/2000/svg">
<path fill-rule="evenodd" clip-rule="evenodd" d="M12 2.75C6.89137 2.75 2.75 6.89137 2.75 12C2.75 17.1086 6.89137 21.25 12 21.25C17.1086 21.25 21.25 17.1086 21.25 12C21.25 6.89137 17.1086 2.75 12 2.75ZM1.25 12C1.25 6.06294 6.06294 1.25 12 1.25C17.9371 1.25 22.75 6.06294 22.75 12C22.75 17.9371 17.9371 22.75 12 22.75C6.06294 22.75 1.25 17.9371 1.25 12ZM17.0751 11.218C14.0761 9.15625 10.2366 8.69049 6.87183 9.999C6.48579 10.1491 6.05113 9.95788 5.901 9.57184C5.75087 9.18579 5.94212 8.75113 6.32817 8.601C10.1634 7.10951 14.5239 7.64375 17.9249 9.98197C18.2662 10.2166 18.3527 10.6836 18.118 11.0249C17.8834 11.3662 17.4164 11.4527 17.0751 11.218ZM15.4542 14.0031C13.3785 12.4689 10.6486 12.1818 8.16049 13.1033C7.77206 13.2472 7.34055 13.0489 7.19669 12.6605C7.05283 12.2721 7.25109 11.8406 7.63951 11.6967C10.5514 10.6182 13.8215 10.9311 16.3458 12.7969C16.6789 13.0431 16.7493 13.5127 16.5031 13.8458C16.2569 14.1789 15.7873 14.2493 15.4542 14.0031ZM14.384 16.724C12.7726 15.6498 10.8311 15.3953 9.07854 16.0964C8.69396 16.2502 8.25748 16.0631 8.10364 15.6785C7.94981 15.294 8.13687 14.8575 8.52146 14.7036C10.7689 13.8047 13.2274 14.1502 15.216 15.476C15.5607 15.7057 15.6538 16.1714 15.424 16.516C15.1943 16.8607 14.7286 16.9538 14.384 16.724Z" fill="#595854"/>
</svg>
