<svg width="24" height="24" viewBox="0 0 24 24" fill="none" xmlns="http://www.w3.org/2000/svg">
<path fill-rule="evenodd" clip-rule="evenodd" d="M15.8003 1.27707C16.0582 1.20576 16.3378 1.27717 16.5303 1.46969L22.5303 7.46969C22.671 7.61034 22.75 7.80111 22.75 8.00002V14.19C22.75 16.1542 21.1542 17.75 19.19 17.75C18.7758 17.75 18.44 17.4142 18.44 17C18.44 16.5858 18.7758 16.25 19.19 16.25C20.3258 16.25 21.25 15.3258 21.25 14.19V8.75002H19C17.8335 8.75002 16.8171 8.56527 16.1259 7.8741C15.4347 7.18293 15.25 6.16657 15.25 5.00002V2.75002H10C8.75421 2.75002 7.75 3.75424 7.75 5.00002C7.75 5.41424 7.41421 5.75002 7 5.75002C6.58579 5.75002 6.25 5.41424 6.25 5.00002C6.25 2.92581 7.92579 1.25002 10 1.25002H15.6C15.6694 1.25002 15.7366 1.25944 15.8003 1.27707ZM16.75 3.81068L20.1893 7.25002H19C17.9165 7.25002 17.4329 7.05977 17.1866 6.81344C16.9403 6.56711 16.75 6.08347 16.75 5.00002V3.81068ZM3.83033 8.83035C3.1398 9.52088 2.75 10.674 2.75 12.6V16.4C2.75 18.326 3.1398 19.4792 3.83033 20.1697C4.52086 20.8602 5.67397 21.25 7.6 21.25H11.4C13.326 21.25 14.4791 20.8602 15.1697 20.1697C15.8602 19.4792 16.25 18.326 16.25 16.4V14.15H13.8C12.5585 14.15 11.4921 13.9528 10.7697 13.2304C10.0472 12.5079 9.85 11.4416 9.85 10.2V7.75002H7.6C5.67397 7.75002 4.52086 8.13982 3.83033 8.83035ZM11.35 8.81068L15.1893 12.65H13.8C12.6415 12.65 12.1079 12.4473 11.8303 12.1697C11.5528 11.8921 11.35 11.3585 11.35 10.2V8.81068ZM2.76967 7.76969C3.87914 6.66022 5.52603 6.25002 7.6 6.25002H10.6C10.7989 6.25002 10.9897 6.32904 11.1303 6.46969L17.5303 12.8697C17.671 13.0103 17.75 13.2011 17.75 13.4V16.4C17.75 18.474 17.3398 20.1209 16.2303 21.2304C15.1209 22.3398 13.474 22.75 11.4 22.75H7.6C5.52603 22.75 3.87914 22.3398 2.76967 21.2304C1.6602 20.1209 1.25 18.474 1.25 16.4V12.6C1.25 10.5261 1.6602 8.87916 2.76967 7.76969Z" fill="#595854"/>
</svg>
