<svg width="24" height="24" viewBox="0 0 24 24" fill="none" xmlns="http://www.w3.org/2000/svg">
<path fill-rule="evenodd" clip-rule="evenodd" d="M11.6646 1.32918C11.8757 1.22361 12.1242 1.22361 12.3354 1.32918L14.5554 2.43918C14.9259 2.62442 15.076 3.07493 14.8908 3.44541C14.7056 3.81589 14.2551 3.96606 13.8846 3.78082L12 2.83853L10.1154 3.78082C9.74491 3.96606 9.2944 3.81589 9.10916 3.44541C8.92392 3.07493 9.07409 2.62442 9.44457 2.43918L11.6646 1.32918ZM6.00081 4.99459C6.18605 5.36508 6.03588 5.81558 5.6654 6.00082L4.78704 6.44L5.6654 6.87918C6.03588 7.06442 6.18605 7.51493 6.00081 7.88541C5.81557 8.2559 5.36506 8.40607 4.99458 8.22082L3.85999 7.65353V9.22C3.85999 9.63421 3.5242 9.97 3.10999 9.97C2.69577 9.97 2.35999 9.63421 2.35999 9.22V6.44C2.35999 6.15592 2.52049 5.89623 2.77458 5.76918L4.99458 4.65918C5.36506 4.47394 5.81557 4.62411 6.00081 4.99459ZM17.9992 4.99459C18.1844 4.62411 18.6349 4.47394 19.0054 4.65918L21.2254 5.76918C21.4795 5.89623 21.64 6.15592 21.64 6.44V9.22C21.64 9.63421 21.3042 9.97 20.89 9.97C20.4758 9.97 20.14 9.63421 20.14 9.22V7.65353L19.0054 8.22082C18.6349 8.40607 18.1844 8.2559 17.9992 7.88541C17.8139 7.51493 17.9641 7.06442 18.3346 6.87918L19.2129 6.44L18.3346 6.00082C17.9641 5.81558 17.8139 5.36508 17.9992 4.99459ZM9.10916 9.44459C9.2944 9.0741 9.74491 8.92394 10.1154 9.10918L12 10.0515L13.8846 9.10918C14.2551 8.92394 14.7056 9.0741 14.8908 9.44459C15.076 9.81507 14.9259 10.2656 14.5554 10.4508L12.75 11.3535V13.67C12.75 14.0842 12.4142 14.42 12 14.42C11.5858 14.42 11.25 14.0842 11.25 13.67V11.3535L9.44457 10.4508C9.07409 10.2656 8.92392 9.81507 9.10916 9.44459ZM3.10999 14.03C3.5242 14.03 3.85999 14.3658 3.85999 14.78V17.0965L5.6654 17.9992C6.03588 18.1844 6.18605 18.6349 6.00081 19.0054C5.81557 19.3759 5.36506 19.5261 4.99458 19.3408L2.77458 18.2308C2.52049 18.1038 2.35999 17.8441 2.35999 17.56V14.78C2.35999 14.3658 2.69577 14.03 3.10999 14.03ZM20.89 14.03C21.3042 14.03 21.64 14.3658 21.64 14.78V17.56C21.64 17.8441 21.4795 18.1038 21.2254 18.2308L19.0054 19.3408C18.6349 19.5261 18.1844 19.3759 17.9992 19.0054C17.8139 18.6349 17.9641 18.1844 18.3346 17.9992L20.14 17.0965V14.78C20.14 14.3658 20.4758 14.03 20.89 14.03ZM12 18.47C12.4142 18.47 12.75 18.8058 12.75 19.22V20.7865L13.8846 20.2192C14.2551 20.0339 14.7056 20.1841 14.8908 20.5546C15.076 20.9251 14.9259 21.3756 14.5554 21.5608L12.3354 22.6708C12.1242 22.7764 11.8757 22.7764 11.6646 22.6708L9.44457 21.5608C9.07409 21.3756 8.92392 20.9251 9.10916 20.5546C9.2944 20.1841 9.74491 20.0339 10.1154 20.2192L11.25 20.7865V19.22C11.25 18.8058 11.5858 18.47 12 18.47Z" fill="#595854"/>
</svg>
