<svg width="24" height="24" viewBox="0 0 24 24" fill="none" xmlns="http://www.w3.org/2000/svg">
<path fill-rule="evenodd" clip-rule="evenodd" d="M6.08013 5.26987C6.37607 5.25504 6.68311 5.25 7 5.25H17C17.3169 5.25 17.6239 5.25504 17.9199 5.26987C17.9143 3.97952 17.73 3.45625 17.4716 3.19849C17.2085 2.93609 16.6697 2.75 15.33 2.75H8.67C7.33031 2.75 6.79147 2.93609 6.52842 3.19849C6.27002 3.45625 6.08566 3.97952 6.08013 5.26987ZM19.42 5.44669V5.33C19.42 4.00431 19.271 2.87479 18.5309 2.13651C17.7915 1.39891 16.6603 1.25 15.33 1.25H8.67C7.33969 1.25 6.20853 1.39891 5.46908 2.13651C4.72896 2.87479 4.58 4.00431 4.58 5.33V5.44669C3.48913 5.66147 2.62762 6.10783 2.05737 6.97376C1.41813 7.94445 1.25 9.30259 1.25 11V13C1.25 14.6974 1.41813 16.0555 2.05737 17.0262C2.62762 17.8922 3.48913 18.3385 4.58 18.5533V18.67C4.58 19.9957 4.72896 21.1252 5.46908 21.8635C6.20853 22.6011 7.33969 22.75 8.67 22.75H15.33C16.6603 22.75 17.7915 22.6011 18.5309 21.8635C19.271 21.1252 19.42 19.9957 19.42 18.67V18.5533C20.5109 18.3385 21.3724 17.8922 21.9426 17.0262C22.5819 16.0555 22.75 14.6974 22.75 13V11C22.75 9.30259 22.5819 7.94445 21.9426 6.97376C21.3724 6.10783 20.5109 5.66147 19.42 5.44669ZM17.9199 18.7301C17.9143 20.0205 17.73 20.5438 17.4716 20.8015C17.2085 21.0639 16.6697 21.25 15.33 21.25H8.67C7.33031 21.25 6.79147 21.0639 6.52842 20.8015C6.27002 20.5438 6.08566 20.0205 6.08013 18.7301C6.37607 18.745 6.68311 18.75 7 18.75H17C17.3169 18.75 17.6239 18.745 17.9199 18.7301ZM7 6.75C6.39105 6.75 5.88302 6.77004 5.44607 6.83246C5.43813 6.8336 5.43017 6.8346 5.4222 6.83548C4.20657 6.96953 3.63894 7.29944 3.31013 7.79874C2.93687 8.36555 2.75 9.31741 2.75 11V13C2.75 14.6826 2.93687 15.6345 3.31013 16.2013C3.63894 16.7006 4.20657 17.0305 5.4222 17.1645C5.43017 17.1654 5.43813 17.1664 5.44607 17.1675C5.88302 17.23 6.39105 17.25 7 17.25H17C17.609 17.25 18.117 17.23 18.5539 17.1675C18.5619 17.1664 18.5698 17.1654 18.5778 17.1645C19.7934 17.0305 20.3611 16.7006 20.6899 16.2013C21.0631 15.6345 21.25 14.6826 21.25 13V11C21.25 9.31741 21.0631 8.36555 20.6899 7.79874C20.3611 7.29944 19.7934 6.96953 18.5778 6.83548C18.5698 6.8346 18.5619 6.8336 18.5539 6.83246C18.117 6.77004 17.609 6.75 17 6.75H7Z" fill="#595854"/>
</svg>
