<svg width="24" height="24" viewBox="0 0 24 24" fill="none" xmlns="http://www.w3.org/2000/svg">
<path fill-rule="evenodd" clip-rule="evenodd" d="M12 2.75C6.89137 2.75 2.75 6.89137 2.75 12C2.75 17.1086 6.89137 21.25 12 21.25C17.1086 21.25 21.25 17.1086 21.25 12C21.25 6.89137 17.1086 2.75 12 2.75ZM1.25 12C1.25 6.06294 6.06294 1.25 12 1.25C17.9371 1.25 22.75 6.06294 22.75 12C22.75 17.9371 17.9371 22.75 12 22.75C6.06294 22.75 1.25 17.9371 1.25 12ZM7.25 7C7.25 6.58579 7.58579 6.25 8 6.25H12C14.213 6.25 16.1044 7.45207 17.068 9.25H18.5C18.9142 9.25 19.25 9.58579 19.25 10C19.25 10.4142 18.9142 10.75 18.5 10.75H17.6181C17.7045 11.1515 17.75 11.5697 17.75 12C17.75 12.4303 17.7045 12.8485 17.6181 13.25H18.5C18.9142 13.25 19.25 13.5858 19.25 14C19.25 14.4142 18.9142 14.75 18.5 14.75H17.068C16.1044 16.5479 14.213 17.75 12 17.75H8C7.58579 17.75 7.25 17.4142 7.25 17V14.75H6.5C6.08579 14.75 5.75 14.4142 5.75 14C5.75 13.5858 6.08579 13.25 6.5 13.25H7.25V10.75H6.5C6.08579 10.75 5.75 10.4142 5.75 10C5.75 9.58579 6.08579 9.25 6.5 9.25H7.25V7ZM8.75 10.75V13.25H16.0707C16.1875 12.8563 16.25 12.4369 16.25 12C16.25 11.5631 16.1875 11.1437 16.0707 10.75H8.75ZM15.2666 9.25H8.75V7.75H12C13.3274 7.75 14.4933 8.32708 15.2666 9.25ZM15.2666 14.75H8.75V16.25H12C13.3274 16.25 14.4933 15.6729 15.2666 14.75Z" fill="#595854"/>
</svg>
