<svg width="24" height="24" viewBox="0 0 24 24" fill="none" xmlns="http://www.w3.org/2000/svg">
<path fill-rule="evenodd" clip-rule="evenodd" d="M16.65 3C16.65 2.03579 17.4358 1.25 18.4 1.25H20C20.9642 1.25 21.75 2.03579 21.75 3V18C21.75 18.9642 20.9642 19.75 20 19.75H18.4C17.4358 19.75 16.65 18.9642 16.65 18V3ZM18.4 2.75C18.2642 2.75 18.15 2.86421 18.15 3V18C18.15 18.1358 18.2642 18.25 18.4 18.25H20C20.1358 18.25 20.25 18.1358 20.25 18V3C20.25 2.86421 20.1358 2.75 20 2.75H18.4ZM9.45001 6.19C9.45001 5.22579 10.2358 4.44 11.2 4.44H12.8C13.7642 4.44 14.55 5.22579 14.55 6.19V18C14.55 18.9642 13.7642 19.75 12.8 19.75H11.2C10.2358 19.75 9.45001 18.9642 9.45001 18V6.19ZM11.2 5.94C11.0642 5.94 10.95 6.05422 10.95 6.19V18C10.95 18.1358 11.0642 18.25 11.2 18.25H12.8C12.9358 18.25 13.05 18.1358 13.05 18V6.19C13.05 6.05422 12.9358 5.94 12.8 5.94H11.2ZM2.25 9.38C2.25 8.41579 3.03579 7.63 4 7.63H5.59998C6.56419 7.63 7.34998 8.41579 7.34998 9.38V18C7.34998 18.9642 6.56419 19.75 5.59998 19.75H4C3.03579 19.75 2.25 18.9642 2.25 18V9.38ZM4 9.13C3.86421 9.13 3.75 9.24422 3.75 9.38V18C3.75 18.1358 3.86421 18.25 4 18.25H5.59998C5.73576 18.25 5.84998 18.1358 5.84998 18V9.38C5.84998 9.24422 5.73576 9.13 5.59998 9.13H4ZM2.25 22C2.25 21.5858 2.58579 21.25 3 21.25H21C21.4142 21.25 21.75 21.5858 21.75 22C21.75 22.4142 21.4142 22.75 21 22.75H3C2.58579 22.75 2.25 22.4142 2.25 22Z" fill="#595854"/>
</svg>
