<svg width="24" height="24" viewBox="0 0 24 24" fill="none" xmlns="http://www.w3.org/2000/svg">
<path fill-rule="evenodd" clip-rule="evenodd" d="M11.97 2.75C6.86134 2.75 2.71997 6.89137 2.71997 12C2.71997 17.1086 6.86134 21.25 11.97 21.25C17.0786 21.25 21.22 17.1086 21.22 12C21.22 6.89137 17.0786 2.75 11.97 2.75ZM1.21997 12C1.21997 6.06294 6.03291 1.25 11.97 1.25C17.907 1.25 22.72 6.06294 22.72 12C22.72 17.9371 17.907 22.75 11.97 22.75C6.03291 22.75 1.21997 17.9371 1.21997 12ZM7.64858 8.40991C7.97315 8.10317 8.39212 8.05 8.70997 8.05H10.01C10.3278 8.05 10.7468 8.10317 11.0714 8.40991C11.4068 8.72695 11.47 9.1495 11.47 9.47V14.53C11.47 14.8504 11.4068 15.2753 11.0671 15.5929C10.7407 15.898 10.3197 15.95 9.99997 15.95H8.70997C8.39212 15.95 7.97315 15.8968 7.64858 15.5901C7.3131 15.273 7.24997 14.8505 7.24997 14.53V9.47C7.24997 9.1495 7.3131 8.72695 7.64858 8.40991ZM8.74997 9.55V14.45H9.96997V9.55H8.74997ZM12.9386 8.40991C13.2632 8.10317 13.6821 8.05 14 8.05H15.29C15.6078 8.05 16.0268 8.10317 16.3514 8.40991C16.6868 8.72695 16.75 9.1495 16.75 9.47V14.53C16.75 14.8505 16.6868 15.273 16.3514 15.5901C16.0268 15.8968 15.6078 15.95 15.29 15.95H14C13.6821 15.95 13.2632 15.8968 12.9386 15.5901C12.6031 15.273 12.54 14.8505 12.54 14.53V9.47C12.54 9.1495 12.6031 8.72695 12.9386 8.40991ZM14.04 9.55V14.45H15.25V9.55H14.04Z" fill="#595854"/>
</svg>
