<svg width="24" height="24" viewBox="0 0 24 24" fill="none" xmlns="http://www.w3.org/2000/svg">
<path fill-rule="evenodd" clip-rule="evenodd" d="M20.2659 7.3515C21.37 5.24174 19.1293 2.95885 17.0054 4.02082L13.7654 5.64082C12.6542 6.19639 11.3457 6.19639 10.2346 5.64082L6.99456 4.02082C4.86523 2.95615 2.62412 5.24638 3.7334 7.35019L9.83366 18.9407C10.7525 20.6864 13.2475 20.6864 14.1663 18.9407L20.2659 7.3515C20.266 7.35131 20.2658 7.3517 20.2659 7.3515ZM16.3346 2.67918C19.7704 0.961249 23.3696 4.65784 21.5944 8.04792L15.4937 19.6393C14.0125 22.4536 9.98747 22.4536 8.50628 19.6393L2.40655 8.04981C0.616443 4.65376 4.23489 0.963933 7.66538 2.67918L10.9054 4.29918C11.5942 4.64361 12.4057 4.64361 13.0946 4.29918L16.3346 2.67918Z" fill="#595854"/>
</svg>
