<svg width="24" height="24" viewBox="0 0 24 24" fill="none" xmlns="http://www.w3.org/2000/svg">
<path fill-rule="evenodd" clip-rule="evenodd" d="M5.47727 3.36364C4.30994 3.36364 3.36364 4.30994 3.36364 5.47727C3.36364 6.6446 4.30994 7.59091 5.47727 7.59091C6.6446 7.59091 7.59091 6.6446 7.59091 5.47727C7.59091 4.30994 6.6446 3.36364 5.47727 3.36364ZM2 5.47727C2 3.55683 3.55683 2 5.47727 2C7.39772 2 8.95455 3.55683 8.95455 5.47727C8.95455 7.16436 7.75307 8.57083 6.15909 8.88773V12.5334C6.96539 11.754 8.06427 11.2748 9.2724 11.2809C9.27273 11.2809 9.27305 11.2809 9.27338 11.2809L12.4685 11.2902C14.4043 11.2976 16.0824 10.1758 16.8823 8.54405C15.789 7.95803 15.0455 6.80448 15.0455 5.47727C15.0455 3.55683 16.6023 2 18.5227 2C20.4432 2 22 3.55683 22 5.47727C22 7.39772 20.4432 8.95455 18.5227 8.95455C18.4147 8.95455 18.3078 8.94962 18.2023 8.93998C17.2238 11.1322 15.0229 12.6636 12.4633 12.6539L9.26778 12.6445L9.26616 12.6445C7.94696 12.6375 6.8091 13.4695 6.36332 14.6368C8.10097 14.9454 9.42045 16.4635 9.42045 18.2898C9.42045 20.3389 7.75933 22 5.71023 22C3.66113 22 2 20.3389 2 18.2898C2 16.5564 3.18873 15.1006 4.79545 14.6932V8.88773C3.20147 8.57083 2 7.16436 2 5.47727ZM18.5227 3.36364C17.3554 3.36364 16.4091 4.30994 16.4091 5.47727C16.4091 6.6446 17.3554 7.59091 18.5227 7.59091C19.6901 7.59091 20.6364 6.6446 20.6364 5.47727C20.6364 4.30994 19.6901 3.36364 18.5227 3.36364ZM5.71023 15.9432C4.41424 15.9432 3.36364 16.9938 3.36364 18.2898C3.36364 19.5858 4.41424 20.6364 5.71023 20.6364C7.00621 20.6364 8.05682 19.5858 8.05682 18.2898C8.05682 16.9938 7.00621 15.9432 5.71023 15.9432Z" fill="#595854"/>
</svg>
