<svg width="24" height="24" viewBox="0 0 24 24" fill="none" xmlns="http://www.w3.org/2000/svg">
<path fill-rule="evenodd" clip-rule="evenodd" d="M3.09467 3.09467C4.42914 1.7602 6.42603 1.25 9 1.25H14C14.1989 1.25 14.3897 1.32902 14.5303 1.46967L22.5303 9.46967C22.671 9.61032 22.75 9.80109 22.75 10V13C22.75 13.4142 22.4142 13.75 22 13.75C21.5858 13.75 21.25 13.4142 21.25 13V10.75H18C16.4585 10.75 15.1921 10.5028 14.3447 9.65533C13.4972 8.80791 13.25 7.54155 13.25 6V2.75H9C6.57397 2.75 5.07086 3.2398 4.15533 4.15533C3.2398 5.07086 2.75 6.57397 2.75 9V15C2.75 17.426 3.2398 18.9291 4.15533 19.8447C5.07086 20.7602 6.57397 21.25 9 21.25C9.41421 21.25 9.75 21.5858 9.75 22C9.75 22.4142 9.41421 22.75 9 22.75C6.42603 22.75 4.42914 22.2398 3.09467 20.9053C1.7602 19.5709 1.25 17.574 1.25 15V9C1.25 6.42603 1.7602 4.42914 3.09467 3.09467ZM14.75 3.81066L20.1893 9.25H18C16.5415 9.25 15.8079 8.99725 15.4053 8.59467C15.0028 8.19209 14.75 7.45845 14.75 6V3.81066ZM20.3695 16.0778C20.0714 14.9756 19.4464 14.1764 18.6344 13.6998C17.72 13.163 16.6401 13.0771 15.6773 13.3295C14.7145 13.5819 13.8152 14.1867 13.2793 15.102C12.8509 15.8339 12.6809 16.7198 12.8528 17.6972C10.4582 18.6213 10.7426 22.5337 13.7059 22.7481C13.7239 22.7494 13.7419 22.75 13.76 22.75H19.32C20.1687 22.75 21.0082 22.4359 21.6402 21.8589C23.6267 20.1157 22.779 16.7954 20.3695 16.0778ZM13.7207 19.0178C13.8234 19.026 13.9295 19.0131 14.0328 18.9761C14.4227 18.8365 14.6257 18.4072 14.4861 18.0173C14.153 17.0866 14.2744 16.3712 14.5738 15.8599C14.8835 15.3308 15.428 14.9456 16.0577 14.7805C16.6874 14.6154 17.3488 14.6845 17.875 14.9934C18.3835 15.2918 18.8376 15.8558 19.0002 16.833C19.0546 17.1606 19.3179 17.4133 19.6474 17.4543C21.1727 17.644 21.8097 19.7201 20.6468 20.7349L20.6327 20.7476C20.2855 21.0665 19.8082 21.25 19.32 21.25H13.7898C12.4235 21.1286 12.4004 19.2002 13.7207 19.0178Z" fill="#595854"/>
</svg>
