<svg width="24" height="24" viewBox="0 0 24 24" fill="none" xmlns="http://www.w3.org/2000/svg">
<path fill-rule="evenodd" clip-rule="evenodd" d="M5.69 3.59003C4.06422 3.59003 2.75 4.90424 2.75 6.53003V6.68528C3.59952 5.88812 4.74254 5.40002 6 5.40002H14.1464C14.0146 4.95156 13.7635 4.5839 13.4317 4.29932C12.9198 3.86025 12.1785 3.59003 11.31 3.59003H5.69ZM15.6849 5.40002C15.5231 4.49189 15.0675 3.72615 14.4083 3.16073C13.5852 2.4548 12.4814 2.09003 11.31 2.09003H5.69C3.23579 2.09003 1.25 4.07582 1.25 6.53003V17.15C1.25 19.7742 3.37579 21.9 6 21.9H16C18.6242 21.9 20.75 19.7742 20.75 17.15V16.45H20.97C21.9494 16.45 22.75 15.659 22.75 14.68V12.62C22.75 11.641 21.9494 10.85 20.97 10.85H20.75V10.15C20.75 7.53581 18.6142 5.40002 16 5.40002H15.6849ZM6 6.90002C4.20421 6.90002 2.75 8.35424 2.75 10.15V17.15C2.75 18.9458 4.20421 20.4 6 20.4H16C17.7958 20.4 19.25 18.9458 19.25 17.15V16.45H19.04C18.5647 16.45 18.094 16.3328 17.674 16.119C16.9902 15.777 16.4322 15.1798 16.2157 14.3747L16.2147 14.3709C15.9451 13.3465 16.2656 12.3324 16.9515 11.6678C17.4629 11.1474 18.1633 10.85 18.92 10.85H19.25V10.15C19.25 8.36424 17.7858 6.90002 16 6.90002H6ZM18.92 12.35C18.561 12.35 18.2452 12.4892 18.0173 12.7232L18.0039 12.7367C17.7379 12.9964 17.5893 13.3662 17.6267 13.7589L17.6275 13.7677C17.6602 14.1605 17.9063 14.5198 18.2666 14.7367C18.4964 14.8708 18.7729 14.95 19.07 14.95H20.97C21.1306 14.95 21.25 14.821 21.25 14.68V12.62C21.25 12.479 21.1306 12.35 20.97 12.35H18.92ZM6.25 11.15C6.25 10.7358 6.58579 10.4 7 10.4H13C13.4142 10.4 13.75 10.7358 13.75 11.15C13.75 11.5642 13.4142 11.9 13 11.9H7C6.58579 11.9 6.25 11.5642 6.25 11.15Z" fill="#595854"/>
</svg>
