<svg width="24" height="24" viewBox="0 0 24 24" fill="none" xmlns="http://www.w3.org/2000/svg">
<path fill-rule="evenodd" clip-rule="evenodd" d="M4.5 2.75C3.53421 2.75 2.75 3.53421 2.75 4.5C2.75 5.34493 3.34964 6.05127 4.14344 6.21382C4.26799 6.23691 4.38869 6.25 4.5 6.25C5.46579 6.25 6.25 5.46579 6.25 4.5C6.25 4.38869 6.23691 4.26799 6.21382 4.14344C6.05127 3.34964 5.34493 2.75 4.5 2.75ZM7.74052 4.75C7.61904 6.345 6.345 7.61904 4.75 7.74052V16.2595C6.345 16.381 7.61904 17.655 7.74052 19.25H16.2595C16.381 17.655 17.655 16.381 19.25 16.2595V7.74052C17.655 7.61904 16.381 6.345 16.2595 4.75H7.74052ZM17.7862 4.14344C17.7631 4.26798 17.75 4.38869 17.75 4.5C17.75 5.46579 18.5342 6.25 19.5 6.25C19.6113 6.25 19.732 6.23691 19.8566 6.21382C20.6504 6.05127 21.25 5.34493 21.25 4.5C21.25 3.53421 20.4658 2.75 19.5 2.75C18.6551 2.75 17.9487 3.34964 17.7862 4.14344ZM20.75 7.50109V16.4989C21.9242 16.9881 22.75 18.1477 22.75 19.5C22.75 21.2942 21.2942 22.75 19.5 22.75C18.1477 22.75 16.9881 21.9242 16.4989 20.75H7.50109C7.01186 21.9242 5.85227 22.75 4.5 22.75C2.70579 22.75 1.25 21.2942 1.25 19.5C1.25 18.1477 2.07583 16.9881 3.25 16.4989V7.50109C2.07583 7.01186 1.25 5.85227 1.25 4.5C1.25 2.70579 2.70579 1.25 4.5 1.25C5.85227 1.25 7.01186 2.07583 7.50109 3.25H16.4989C16.9881 2.07583 18.1477 1.25 19.5 1.25C21.2942 1.25 22.75 2.70579 22.75 4.5C22.75 5.85227 21.9242 7.01186 20.75 7.50109ZM4.14343 17.7862C3.34963 17.9487 2.75 18.6551 2.75 19.5C2.75 20.4658 3.53421 21.25 4.5 21.25C5.34493 21.25 6.05127 20.6504 6.21382 19.8566C6.23691 19.732 6.25 19.6113 6.25 19.5C6.25 18.5342 5.46579 17.75 4.5 17.75C4.38869 17.75 4.26798 17.7631 4.14343 17.7862ZM17.7862 19.8566C17.9487 20.6504 18.6551 21.25 19.5 21.25C20.4658 21.25 21.25 20.4658 21.25 19.5C21.25 18.6551 20.6504 17.9487 19.8566 17.7862C19.732 17.7631 19.6113 17.75 19.5 17.75C18.5342 17.75 17.75 18.5342 17.75 19.5C17.75 19.6113 17.7631 19.732 17.7862 19.8566Z" fill="#595854"/>
</svg>
