<svg width="24" height="24" viewBox="0 0 24 24" fill="none" xmlns="http://www.w3.org/2000/svg">
<path fill-rule="evenodd" clip-rule="evenodd" d="M13.6869 2.93262C13.2615 2.37529 12.6542 2.04999 11.9875 2.04999C11.3222 2.04999 10.7021 2.37299 10.2356 2.90611L10.2249 2.91854L6.62495 7.21853C6.58745 7.26332 6.55532 7.31233 6.5292 7.36458C6.46498 7.49301 6.40506 7.64288 6.35923 7.75751L6.35366 7.77144C6.30015 7.90523 6.26234 7.99828 6.2292 8.06458C6.19913 8.1247 6.17729 8.1886 6.16425 8.25455L4.46425 16.8545C4.4628 16.8619 4.46145 16.8693 4.46022 16.8767C4.31411 17.7533 4.727 18.7708 5.51414 19.2431L5.53057 19.2527L10.8306 22.2527C10.8418 22.259 10.8531 22.2651 10.8646 22.2708C11.2017 22.4394 11.6021 22.5 11.95 22.5C12.2979 22.5 12.6983 22.4394 13.0354 22.2708C13.0469 22.2651 13.0583 22.259 13.0695 22.2527L18.3695 19.2527L18.3859 19.2431C19.173 18.7708 19.5859 17.7533 19.4398 16.8767C19.4386 16.8693 19.4372 16.8619 19.4358 16.8545L17.7456 8.30413C17.7222 8.04709 17.6121 7.82218 17.5583 7.71458C17.5193 7.63641 17.4778 7.56125 17.4455 7.50285C17.4097 7.43806 17.3873 7.39753 17.3708 7.36458C17.3447 7.31233 17.3126 7.26332 17.2751 7.21853L13.6869 2.93262ZM16.0728 8.11913L12.5249 3.88144C12.5164 3.87118 12.508 3.86069 12.5 3.84999C12.326 3.61792 12.139 3.54999 11.9875 3.54999C11.8289 3.54999 11.6012 3.62592 11.3693 3.88834L7.83832 8.10591C7.86497 8.14918 7.88761 8.19583 7.90553 8.24554L12.0471 19.7289L16.0927 8.25068C16.0993 8.23188 16.1066 8.21352 16.1145 8.1956C16.1014 8.17178 16.0871 8.14581 16.0728 8.11913ZM16.7367 10.9357L13.4268 20.3268L17.6202 17.9532C17.8285 17.8232 18.0102 17.4506 17.9617 17.1323L16.7367 10.9357ZM10.7181 20.4654L7.20502 10.7245L5.93837 17.1323C5.88986 17.4507 6.07149 17.8232 6.27986 17.9532L10.7181 20.4654Z" fill="#595854"/>
</svg>
