<svg width="24" height="24" viewBox="0 0 24 24" fill="none" xmlns="http://www.w3.org/2000/svg">
<path fill-rule="evenodd" clip-rule="evenodd" d="M6 2.75C5.31421 2.75 4.75 3.31421 4.75 4V7.57001H19.25V4C19.25 3.31421 18.6858 2.75 18 2.75H6ZM19.27 9.07001H4.75V11.88C4.75 12.6904 5.1849 13.4386 5.89543 13.835L5.89857 13.8368L8.85653 15.5056C9.72579 15.9897 10.26 16.9114 10.26 17.9V20C10.26 20.6858 10.8242 21.25 11.51 21.25H12.51C13.1958 21.25 13.76 20.6858 13.76 20V17.9C13.76 16.9114 14.2942 15.9897 15.1635 15.5057L18.1215 13.8368C18.828 13.4384 19.27 12.6866 19.27 11.88V9.07001ZM20.75 8.14714V4C20.75 2.48579 19.5142 1.25 18 1.25H6C4.48579 1.25 3.25 2.48579 3.25 4V11.88C3.25 13.229 3.9745 14.4802 5.16302 15.1441C5.16355 15.1444 5.16409 15.1447 5.16463 15.145L8.12146 16.8132L8.12576 16.8156C8.51514 17.0319 8.76001 17.4495 8.76001 17.9V20C8.76001 21.5142 9.9958 22.75 11.51 22.75H12.51C14.0242 22.75 15.26 21.5142 15.26 20V17.9C15.26 17.4495 15.5049 17.0319 15.8943 16.8156L18.8583 15.1433C18.8583 15.1433 18.8584 15.1433 18.8583 15.1433C20.0317 14.4816 20.77 13.2333 20.77 11.88V8.32001C20.77 8.26051 20.7631 8.20264 20.75 8.14714Z" fill="#595854"/>
</svg>
