<svg width="24" height="24" viewBox="0 0 24 24" fill="none" xmlns="http://www.w3.org/2000/svg">
<path fill-rule="evenodd" clip-rule="evenodd" d="M7.25 2C7.25 1.58579 7.58579 1.25 8 1.25H16C16.4142 1.25 16.75 1.58579 16.75 2C16.75 2.41421 16.4142 2.75 16 2.75H8C7.58579 2.75 7.25 2.41421 7.25 2ZM5.34592 5.34592C6.11952 4.57232 7.21858 4.25 8.5 4.25H15.5C16.7814 4.25 17.8805 4.57232 18.6541 5.34592C19.4277 6.11952 19.75 7.21858 19.75 8.5V15.5C19.75 16.7814 19.4277 17.8805 18.6541 18.6541C17.8805 19.4277 16.7814 19.75 15.5 19.75H8.5C7.21858 19.75 6.11952 19.4277 5.34592 18.6541C4.57232 17.8805 4.25 16.7814 4.25 15.5V8.5C4.25 7.21858 4.57232 6.11952 5.34592 5.34592ZM6.40658 6.40658C6.01268 6.80048 5.75 7.45142 5.75 8.5V15.5C5.75 16.5486 6.01268 17.1995 6.40658 17.5934C6.80048 17.9873 7.45142 18.25 8.5 18.25H15.5C16.5486 18.25 17.1995 17.9873 17.5934 17.5934C17.9873 17.1995 18.25 16.5486 18.25 15.5V8.5C18.25 7.45142 17.9873 6.80048 17.5934 6.40658C17.1995 6.01268 16.5486 5.75 15.5 5.75H8.5C7.45142 5.75 6.80048 6.01268 6.40658 6.40658ZM11.5 8.75C11.9142 8.75 12.25 9.08579 12.25 9.5V11.75H14.5C14.9142 11.75 15.25 12.0858 15.25 12.5C15.25 12.9142 14.9142 13.25 14.5 13.25H11.5C11.0858 13.25 10.75 12.9142 10.75 12.5V9.5C10.75 9.08579 11.0858 8.75 11.5 8.75ZM7.25 22C7.25 21.5858 7.58579 21.25 8 21.25H16C16.4142 21.25 16.75 21.5858 16.75 22C16.75 22.4142 16.4142 22.75 16 22.75H8C7.58579 22.75 7.25 22.4142 7.25 22Z" fill="#595854"/>
</svg>
