<svg width="24" height="24" viewBox="0 0 24 24" fill="none" xmlns="http://www.w3.org/2000/svg">
<path fill-rule="evenodd" clip-rule="evenodd" d="M5.78265 5.53376C5.6449 5.66336 5.5 5.93486 5.5 6.6V17.4C5.5 18.0651 5.6449 18.3366 5.78265 18.4662C5.93191 18.6067 6.25032 18.75 6.98 18.75H8.02C8.74969 18.75 9.06809 18.6067 9.21735 18.4662C9.3551 18.3366 9.5 18.0651 9.5 17.4V6.6C9.5 5.93486 9.3551 5.66336 9.21735 5.53376C9.06809 5.39334 8.74969 5.25 8.02 5.25H6.98C6.25032 5.25 5.93191 5.39334 5.78265 5.53376ZM4.75485 4.44124C5.32309 3.90666 6.11968 3.75 6.98 3.75H8.02C8.88032 3.75 9.67691 3.90666 10.2452 4.44124C10.8249 4.98664 11 5.76514 11 6.6V11.25H12.5V8.6C12.5 7.76514 12.6751 6.98664 13.2548 6.44124C13.8231 5.90666 14.6197 5.75 15.48 5.75H16.52C17.3803 5.75 18.1769 5.90666 18.7452 6.44124C19.3249 6.98664 19.5 7.76514 19.5 8.6V11.25H22C22.4142 11.25 22.75 11.5858 22.75 12C22.75 12.4142 22.4142 12.75 22 12.75H19.5V15.4C19.5 16.2349 19.3249 17.0134 18.7452 17.5588C18.1769 18.0933 17.3803 18.25 16.52 18.25H15.48C14.6197 18.25 13.8231 18.0933 13.2548 17.5588C12.6751 17.0134 12.5 16.2349 12.5 15.4V12.75H11V17.4C11 18.2349 10.8249 19.0134 10.2452 19.5588C9.67691 20.0933 8.88032 20.25 8.02 20.25H6.98C6.11968 20.25 5.32309 20.0933 4.75485 19.5588C4.1751 19.0134 4 18.2349 4 17.4V12.75H2C1.58579 12.75 1.25 12.4142 1.25 12C1.25 11.5858 1.58579 11.25 2 11.25H4V6.6C4 5.76514 4.1751 4.98664 4.75485 4.44124ZM14.2827 7.53376C14.1449 7.66336 14 7.93486 14 8.6V15.4C14 16.0651 14.1449 16.3366 14.2827 16.4662C14.4319 16.6067 14.7503 16.75 15.48 16.75H16.52C17.2497 16.75 17.5681 16.6067 17.7173 16.4662C17.8551 16.3366 18 16.0651 18 15.4V8.6C18 7.93486 17.8551 7.66336 17.7173 7.53376C17.5681 7.39334 17.2497 7.25 16.52 7.25H15.48C14.7503 7.25 14.4319 7.39334 14.2827 7.53376Z" fill="#595854"/>
</svg>
