<svg width="24" height="24" viewBox="0 0 24 24" fill="none" xmlns="http://www.w3.org/2000/svg">
<path fill-rule="evenodd" clip-rule="evenodd" d="M7.57821 2.91194C4.8091 3.55436 2.75 6.03342 2.75 9C2.75 9.41421 2.41421 9.75 2 9.75C1.58579 9.75 1.25 9.41421 1.25 9C1.25 4.71579 4.71579 1.25 9 1.25C9.2702 1.25 9.51952 1.39534 9.65265 1.63047C9.78578 1.8656 9.78214 2.15417 9.64312 2.38587L8.59313 4.13587C8.38002 4.49105 7.91933 4.60623 7.56414 4.39312C7.20896 4.18001 7.09378 3.71932 7.30689 3.36413L7.57821 2.91194ZM18.5 2.75C16.4289 2.75 14.75 4.42893 14.75 6.5C14.75 8.57107 16.4289 10.25 18.5 10.25C20.5711 10.25 22.25 8.57107 22.25 6.5C22.25 4.42893 20.5711 2.75 18.5 2.75ZM13.25 6.5C13.25 3.6005 15.6005 1.25 18.5 1.25C21.3995 1.25 23.75 3.6005 23.75 6.5C23.75 9.3995 21.3995 11.75 18.5 11.75C15.6005 11.75 13.25 9.3995 13.25 6.5ZM2.97082 14.4723C2.87902 14.5634 2.75 14.8143 2.75 15.7V16.31H11.25V15.7C11.25 14.8143 11.121 14.5634 11.0292 14.4723C10.9353 14.3792 10.6768 14.25 9.78003 14.25H4.21997C3.32318 14.25 3.06467 14.3792 2.97082 14.4723ZM12.75 15.7C12.75 14.8257 12.659 13.9766 12.0858 13.4077C11.5147 12.8408 10.6632 12.75 9.78003 12.75H4.21997C3.33676 12.75 2.48529 12.8408 1.91415 13.4077C1.34096 13.9766 1.25 14.8257 1.25 15.7V19.81C1.25 20.6844 1.34096 21.5334 1.91415 22.1023C2.48529 22.6692 3.33676 22.76 4.21997 22.76H9.78003C10.6632 22.76 11.5147 22.6692 12.0858 22.1023C12.659 21.5334 12.75 20.6844 12.75 19.81V15.7ZM11.25 17.81H2.75V19.81C2.75 20.6957 2.87902 20.9466 2.97082 21.0377C3.06467 21.1308 3.32318 21.26 4.21997 21.26H9.78003C10.6768 21.26 10.9353 21.1308 11.0292 21.0377C11.121 20.9466 11.25 20.6957 11.25 19.81V17.81ZM22 14.25C22.4142 14.25 22.75 14.5858 22.75 15C22.75 19.2842 19.2842 22.75 15 22.75C14.7298 22.75 14.4805 22.6047 14.3474 22.3695C14.2142 22.1344 14.2179 21.8458 14.3569 21.6141L15.4069 19.8641C15.62 19.5089 16.0807 19.3938 16.4359 19.6069C16.791 19.82 16.9062 20.2807 16.6931 20.6359L16.4218 21.0881C19.1909 20.4456 21.25 17.9666 21.25 15C21.25 14.5858 21.5858 14.25 22 14.25Z" fill="#595854"/>
</svg>
