<svg width="24" height="24" viewBox="0 0 24 24" fill="none" xmlns="http://www.w3.org/2000/svg">
<path fill-rule="evenodd" clip-rule="evenodd" d="M12 2.75C6.89137 2.75 2.75 6.89137 2.75 12C2.75 17.1086 6.89137 21.25 12 21.25C17.1086 21.25 21.25 17.1086 21.25 12C21.25 6.89137 17.1086 2.75 12 2.75ZM1.25 12C1.25 6.06294 6.06294 1.25 12 1.25C17.9371 1.25 22.75 6.06294 22.75 12C22.75 17.9371 17.9371 22.75 12 22.75C6.06294 22.75 1.25 17.9371 1.25 12ZM5.25 9.7C5.25 8.78579 5.98579 8.05 6.9 8.05H10.6C12.6316 8.05 14.15 9.70335 14.15 11.6V14.4C14.15 15.3142 13.4142 16.05 12.5 16.05H8.8C6.88579 16.05 5.25 14.4142 5.25 12.5V9.7ZM6.9 9.55C6.81421 9.55 6.75 9.61421 6.75 9.7V12.5C6.75 13.5858 7.71421 14.55 8.8 14.55H12.5C12.5858 14.55 12.65 14.4858 12.65 14.4V11.6C12.65 10.4966 11.7684 9.55 10.6 9.55H6.9ZM18.3512 8.5373C18.5966 8.66733 18.75 8.9223 18.75 9.2V14.8C18.75 15.0777 18.5966 15.3327 18.3512 15.4627C18.1058 15.5927 17.8087 15.5765 17.5789 15.4206L14.7789 13.5206C14.5732 13.381 14.45 13.1486 14.45 12.9V11.1C14.45 10.8514 14.5732 10.619 14.7789 10.4794L17.5789 8.57939C17.8087 8.42346 18.1058 8.40727 18.3512 8.5373ZM15.95 11.4974V12.5026L17.25 13.3847V10.6153L15.95 11.4974Z" fill="#595854"/>
</svg>
