<svg width="24" height="24" viewBox="0 0 24 24" fill="none" xmlns="http://www.w3.org/2000/svg">
<path fill-rule="evenodd" clip-rule="evenodd" d="M22.5503 1.65967C22.8432 1.95257 22.8432 2.42744 22.5503 2.72033L17.1613 8.10934C17.1607 8.10993 17.1601 8.11053 17.1595 8.11112L2.55033 22.7203C2.25744 23.0132 1.78256 23.0132 1.48967 22.7203C1.19678 22.4274 1.19678 21.9526 1.48967 21.6597L2.96614 20.1832L2.93407 20.1603C2.92075 20.1508 2.90774 20.1408 2.89507 20.1305C1.6685 19.1269 1.25 17.5994 1.25 16.21V7.79C1.25 6.169 1.50954 4.8498 2.38967 3.96967C3.2698 3.08955 4.589 2.83 6.21 2.83H12.52C13.8626 2.83 15.0258 3.0041 15.8908 3.55111C16.7013 4.06361 17.1562 4.83928 17.3235 5.82588L21.4897 1.65967C21.7826 1.36678 22.2574 1.36678 22.5503 1.65967ZM15.8878 7.26156C15.8891 7.19822 15.8903 7.12845 15.8913 7.05607C15.8952 6.7678 15.8937 6.49772 15.8835 6.39225L15.8825 6.38229L15.8826 6.38229C15.812 5.53568 15.5239 5.09379 15.0892 4.8189C14.5942 4.50591 13.7874 4.33 12.52 4.33H6.21C4.671 4.33 3.8852 4.59546 3.45033 5.03033C3.01546 5.46521 2.75 6.251 2.75 7.79V16.21C2.75 17.3317 3.08615 18.3371 3.82722 18.9549L4.04143 19.1079L15.8878 7.26156ZM22 5.99C22.4142 5.99 22.75 6.32579 22.75 6.74V15.81C22.75 16.7788 22.4215 17.6883 21.6157 18.1068C20.8098 18.5254 19.878 18.2705 19.0884 17.7133C19.0881 17.7131 19.0878 17.7129 19.0875 17.7127L17.485 16.5887C17.4451 18.0368 17.1609 19.2198 16.3503 20.0303C15.4702 20.9105 14.151 21.17 12.53 21.17H7.26C6.84579 21.17 6.51 20.8342 6.51 20.42C6.51 20.0058 6.84579 19.67 7.26 19.67H12.53C14.069 19.67 14.8548 19.4045 15.2897 18.9697C15.7245 18.5348 15.99 17.749 15.99 16.21V15.1591C15.9899 15.1526 15.9899 15.1461 15.99 15.1396V10.95C15.99 10.5358 16.3258 10.2 16.74 10.2C17.1542 10.2 17.49 10.5358 17.49 10.95V14.76L19.9507 16.486L19.9525 16.4873C20.5227 16.8897 20.8305 16.8244 20.9243 16.7757C21.0185 16.7267 21.25 16.5112 21.25 15.81V6.74C21.25 6.32579 21.5858 5.99 22 5.99Z" fill="#595854"/>
</svg>
