<svg width="24" height="24" viewBox="0 0 24 24" fill="none" xmlns="http://www.w3.org/2000/svg">
<path fill-rule="evenodd" clip-rule="evenodd" d="M10 4.75C5.99421 4.75 2.75 7.99421 2.75 12C2.75 16.0058 5.99421 19.25 10 19.25H14C18.0058 19.25 21.25 16.0058 21.25 12C21.25 7.99421 18.0058 4.75 14 4.75H10ZM1.25 12C1.25 7.16579 5.16579 3.25 10 3.25H14C18.8342 3.25 22.75 7.16579 22.75 12C22.75 16.8342 18.8342 20.75 14 20.75H10C5.16579 20.75 1.25 16.8342 1.25 12ZM14 8.75C12.2051 8.75 10.75 10.2051 10.75 12C10.75 13.7949 12.2051 15.25 14 15.25C15.7949 15.25 17.25 13.7949 17.25 12C17.25 10.2051 15.7949 8.75 14 8.75ZM9.25 12C9.25 9.37665 11.3766 7.25 14 7.25C16.6234 7.25 18.75 9.37665 18.75 12C18.75 14.6234 16.6234 16.75 14 16.75C11.3766 16.75 9.25 14.6234 9.25 12Z" fill="#595854"/>
</svg>
