<svg width="24" height="24" viewBox="0 0 24 24" fill="none" xmlns="http://www.w3.org/2000/svg">
<path fill-rule="evenodd" clip-rule="evenodd" d="M14.2611 1.82209C14.2617 1.82243 14.2623 1.82277 14.263 1.82311L19.7002 4.78104C20.4612 5.19459 21.1107 5.89115 21.5681 6.6525C22.0251 7.41317 22.3337 8.31068 22.3337 9.17V12.83C22.3337 13.2442 21.9979 13.58 21.5837 13.58C21.1695 13.58 20.8337 13.2442 20.8337 12.83V9.17C20.8337 8.91692 20.7874 8.63742 20.699 8.34903L12.5418 12.9863V21.1889C12.923 21.125 13.2669 21.0131 13.5391 20.8631C13.9019 20.6632 14.358 20.7953 14.5579 21.1581C14.7578 21.5209 14.6257 21.977 14.263 22.1769C13.5437 22.5732 12.6468 22.75 11.7918 22.75C10.9377 22.75 10.0415 22.5735 9.32257 22.1779C9.32195 22.1776 9.32134 22.1772 9.32073 22.1769L3.8835 19.219C3.8834 19.2189 3.8836 19.219 3.8835 19.219C3.12263 18.8054 2.47295 18.1088 2.01558 17.3475C1.55856 16.5868 1.25 15.6893 1.25 14.83V9.17C1.25 8.31068 1.55856 7.41317 2.01558 6.6525C2.47295 5.89125 3.12233 5.19477 3.8832 4.7812C3.88311 4.78125 3.8833 4.78115 3.8832 4.7812L9.32263 1.82206C10.0416 1.42649 10.9377 1.25 11.7918 1.25C12.646 1.25 13.5421 1.4265 14.2611 1.82209ZM11.0418 21.1889V12.9865L2.88345 8.35289C2.79584 8.63992 2.75 8.91805 2.75 9.17V14.83C2.75 15.3507 2.94579 15.9832 3.30136 16.575C3.65652 17.1661 4.12783 17.6446 4.59973 17.901L10.0446 20.8631C10.3168 21.0131 10.6606 21.125 11.0418 21.1889ZM3.57526 7.02076L11.7917 11.6874L20.006 7.01758C19.6992 6.61552 19.3418 6.29345 18.984 6.099L13.5391 3.1369C13.0968 2.89321 12.4653 2.75 11.7918 2.75C11.1184 2.75 10.4869 2.8932 10.0446 3.13689L10.0411 3.13883L4.60002 6.09884C4.24127 6.2938 3.88255 6.61722 3.57526 7.02076ZM19.1281 15.75C17.7282 15.75 16.6175 16.8601 16.6175 18.2C16.6175 19.5399 17.7282 20.65 19.1281 20.65C20.528 20.65 21.6386 19.5399 21.6386 18.2C21.6386 16.8601 20.528 15.75 19.1281 15.75ZM15.1175 18.2C15.1175 16.0053 16.9265 14.25 19.1281 14.25C21.3298 14.25 23.1386 16.0053 23.1386 18.2C23.1386 19.0231 22.8842 19.7845 22.45 20.4146C22.4694 20.4302 22.4883 20.4469 22.5064 20.4647L23.5253 21.4647C23.821 21.7548 23.8254 22.2297 23.5353 22.5253C23.2451 22.8209 22.7703 22.8254 22.4747 22.5353L21.4557 21.5353C21.432 21.5119 21.4101 21.4874 21.3901 21.4619C20.7446 21.8966 19.9647 22.15 19.1281 22.15C16.9265 22.15 15.1175 20.3947 15.1175 18.2Z" fill="#595854"/>
</svg>
