<svg width="24" height="24" viewBox="0 0 24 24" fill="none" xmlns="http://www.w3.org/2000/svg">
<path fill-rule="evenodd" clip-rule="evenodd" d="M12.8473 3.5723C12.1126 2.97579 10.8649 2.97517 10.1292 3.56512L3.5483 8.82587C3.30931 9.01641 3.0744 9.35188 2.91903 9.7628C2.76371 10.1736 2.7172 10.581 2.76915 10.8829L2.76979 10.8866L4.02937 18.4341C4.02943 18.4345 4.02949 18.4349 4.02956 18.4353C4.19876 19.4247 5.17633 20.2501 6.18 20.2501L13.9763 20.25C13.5679 19.4196 13.34 18.5031 13.34 17.5601V15.37C13.34 14.9834 13.4787 14.6211 13.6685 14.3365C13.858 14.0522 14.1375 13.7867 14.489 13.6387L14.4954 13.636L17.2833 12.4928C18.091 12.1723 18.9889 12.1723 19.7966 12.4928L19.8045 12.496L19.9342 12.5492L20.2102 10.8872L20.2109 10.8829C20.2624 10.5832 20.2148 10.1768 20.0578 9.76433C19.9012 9.35292 19.6666 9.01633 19.4301 8.82456C19.4296 8.82416 19.4291 8.82375 19.4286 8.82335L12.8473 3.5723ZM21.358 13.1318L22.6011 13.6387C22.9525 13.7867 23.232 14.0522 23.4215 14.3365C23.6113 14.6211 23.75 14.9834 23.75 15.37V17.5601C23.75 20.3489 21.7336 22.936 19.0001 23.6928C18.9907 23.6954 18.9813 23.6978 18.9718 23.7C18.6924 23.7658 18.391 23.7683 18.1081 23.6976L18.0937 23.6938C16.8747 23.3633 15.7946 22.6613 14.9891 21.75L6.18 21.7501C4.44406 21.7501 2.84202 20.3962 2.55067 18.6861L2.55025 18.6836L1.29087 11.1372C1.29075 11.1366 1.29064 11.1359 1.29053 11.1352C1.18304 10.5077 1.29154 9.82588 1.51597 9.2323C1.74053 8.63839 2.11121 8.05343 2.61198 7.65398C2.61183 7.6541 2.61214 7.65386 2.61198 7.65398L9.19079 2.39495C9.19064 2.39507 9.19094 2.39483 9.19079 2.39495C10.4743 1.36596 12.5049 1.36442 13.7901 2.40565C13.791 2.40636 13.7919 2.40707 13.7927 2.40778L20.3715 7.65672C20.8644 8.05516 21.2341 8.63804 21.4597 9.23077C21.685 9.82266 21.7973 10.5053 21.6895 11.1351C21.6894 11.1358 21.6893 11.1365 21.6892 11.1372L21.358 13.1318ZM17.8403 13.8856L15.0694 15.0219C15.0401 15.0349 14.9759 15.0794 14.9165 15.1685C14.8563 15.2589 14.84 15.3366 14.84 15.37V17.5601C14.84 18.6251 15.2325 19.6716 15.9239 20.5293L15.93 20.5369C16.5636 21.3441 17.4646 21.9666 18.4767 22.2435C18.5116 22.2513 18.5631 22.2533 18.6173 22.2423C20.7149 21.6529 22.25 19.6455 22.25 17.5601V15.37C22.25 15.3366 22.2337 15.2589 22.1735 15.1685C22.1143 15.0798 22.0504 15.0352 22.0209 15.022L20.2368 14.2944L19.2397 13.8856C18.7896 13.7081 18.2905 13.708 17.8403 13.8856Z" fill="#595854"/>
</svg>
