<svg width="24" height="24" viewBox="0 0 24 24" fill="none" xmlns="http://www.w3.org/2000/svg">
<path fill-rule="evenodd" clip-rule="evenodd" d="M22.5304 1.46967C22.8233 1.76256 22.8233 2.23744 22.5304 2.53033L2.53036 22.5303C2.23747 22.8232 1.76259 22.8232 1.4697 22.5303C1.17681 22.2374 1.17681 21.7626 1.4697 21.4697L4.5766 18.3628L5.11819 16.016C5.11832 16.0154 5.11846 16.0147 5.11859 16.0141C5.14917 15.8756 5.14342 15.6596 5.07524 15.4214C5.00666 15.1818 4.89731 14.9979 4.7997 14.9003L2.3197 12.4203C1.4967 11.5973 1.03526 10.5815 1.34807 9.60185C1.66112 8.62153 2.62663 8.06189 3.77673 7.8702L6.96447 7.34059C6.96482 7.34053 6.96518 7.34047 6.96553 7.3404C7.08346 7.32011 7.26744 7.24315 7.45708 7.10254C7.64737 6.96145 7.77366 6.80796 7.82648 6.7001L7.82919 6.69458L9.58851 3.176C9.5884 3.17622 9.58862 3.17578 9.58851 3.176C10.1177 2.11235 10.9453 1.3275 11.9913 1.3275C13.0361 1.3275 13.8659 2.11035 14.4001 3.17319L14.4009 3.17459L16.1667 6.70636C16.1729 6.7193 16.1807 6.73357 16.1904 6.74898L21.4697 1.46967C21.7626 1.17678 22.2375 1.17678 22.5304 1.46967ZM15.1208 7.81859C15.0045 7.68137 14.8978 7.52814 14.8167 7.36033L13.0599 3.84681C13.0598 3.84662 13.06 3.847 13.0599 3.84681C12.6342 3.00014 12.2039 2.8275 11.9913 2.8275C11.78 2.8275 11.3523 2.99798 10.9316 3.844L9.17209 7.36293C8.98475 7.74377 8.67184 8.06918 8.35048 8.30746C8.02819 8.54643 7.6277 8.74943 7.21559 8.81941L7.21295 8.81986L4.02333 9.34979C4.0232 9.34982 4.02345 9.34977 4.02333 9.34979C3.13373 9.49815 2.84393 9.8485 2.77699 10.0581C2.7098 10.2685 2.74336 10.7227 3.38036 11.3597L5.86036 13.8397C6.18275 14.1621 6.3984 14.5932 6.51732 15.0086C6.63633 15.4244 6.68084 15.9025 6.58187 16.344L6.58084 16.3486L6.57785 16.3615L15.1208 7.81859ZM19.3602 8.4867C19.4283 8.07812 19.8148 7.80211 20.2233 7.8702C21.3727 8.06176 22.3404 8.62079 22.6553 9.60049C22.9706 10.5815 22.5077 11.5981 21.6796 12.4211C21.6792 12.4215 21.6789 12.4218 21.6785 12.4221L19.2004 14.9003C19.1028 14.9979 18.9934 15.1818 18.9248 15.4214C18.8567 15.6595 18.8509 15.8755 18.8814 16.014C18.8816 16.0147 18.8817 16.0153 18.8819 16.016L19.5907 19.081C19.8853 20.3593 19.7879 21.6303 18.8781 22.2935C17.9696 22.9559 16.729 22.6635 15.5986 21.9958L12.608 20.2254C12.4819 20.1507 12.2651 20.09 12.0038 20.09C11.7444 20.09 11.5233 20.1497 11.3891 20.2272C11.3885 20.2275 11.3878 20.2279 11.3872 20.2283L8.40209 21.9954C8.04565 22.2064 7.58564 22.0885 7.37464 21.7321C7.16363 21.3756 7.28153 20.9156 7.63797 20.7046L10.6328 18.9317C11.0488 18.6897 11.5469 18.59 12.0038 18.59C12.4599 18.59 12.9582 18.6894 13.3721 18.9346C13.372 18.9345 13.3722 18.9347 13.3721 18.9346L16.3615 20.7042C16.3613 20.7041 16.3617 20.7044 16.3615 20.7042C17.3806 21.3061 17.8605 21.1791 17.9945 21.0815C18.1272 20.9847 18.3946 20.5702 18.1292 19.4184L17.4182 16.344C17.3192 15.9025 17.3637 15.4244 17.4827 15.0086C17.6017 14.5932 17.8173 14.1621 18.1397 13.8397L20.6197 11.3597L20.6215 11.3579C21.2627 10.721 21.2943 10.2681 21.2273 10.0595C21.1597 9.84921 20.8674 9.49824 19.9767 9.34979C19.5682 9.2817 19.2921 8.89528 19.3602 8.4867Z" fill="#595854"/>
</svg>
