<svg width="24" height="24" viewBox="0 0 24 24" fill="none" xmlns="http://www.w3.org/2000/svg">
<path fill-rule="evenodd" clip-rule="evenodd" d="M4.88037 3.41036C4.48137 3.80935 4.25004 4.57467 4.25004 6.28003V10.4016C4.58629 10.3028 4.94206 10.25 5.31004 10.25H18.69C19.0555 10.25 19.4078 10.3021 19.74 10.3988V9.68003C19.74 7.97467 19.5087 7.20935 19.1097 6.81036C18.7107 6.41137 17.9454 6.18003 16.24 6.18003H13.69C13.195 6.18003 12.7799 6.10564 12.4224 5.88882C12.1066 5.69733 11.9013 5.42622 11.7615 5.24155C11.7519 5.22879 11.7425 5.21644 11.7335 5.20456L11.7292 5.19892L10.46 3.50003C10.4599 3.4999 10.4601 3.50016 10.46 3.50003C10.2041 3.15881 10.0944 3.02967 9.95001 2.94291C9.82283 2.86649 9.58763 2.78003 9.02004 2.78003H7.75003C6.04467 2.78003 5.27936 3.01137 4.88037 3.41036ZM20.3178 12.4525C19.9161 12.0226 19.3407 11.75 18.69 11.75H5.31004C4.61172 11.75 3.99188 12.0638 3.57973 12.5659L3.55638 12.5943L3.54237 12.6084C3.20229 13.0503 3.01765 13.6167 3.07658 14.2281L3.07775 14.2402L3.47711 19.2335C3.5583 20.0603 3.62543 20.4803 3.84539 20.7549C4.01723 20.9694 4.43145 21.25 5.71004 21.25H18.29C19.5686 21.25 19.9828 20.9694 20.1547 20.7549C20.3746 20.4803 20.4418 20.0603 20.523 19.2335L20.9232 14.2302L20.9243 14.2201C20.9912 13.5958 20.793 13.0246 20.4231 12.5792L20.3178 12.4525ZM20.4497 12.6004C20.4556 12.6063 20.4534 12.6044 20.4464 12.5971L20.4497 12.6004ZM21.24 11.2544V9.68003C21.24 7.98539 21.0464 6.62571 20.1704 5.7497C19.2944 4.87369 17.9347 4.68003 16.24 4.68003H13.69C13.335 4.68003 13.2302 4.62442 13.2002 4.60624C13.1505 4.57608 13.1069 4.53203 12.9287 4.29828L11.6609 2.60116L11.66 2.60003C11.6513 2.58835 11.6424 2.57655 11.6335 2.56463C11.4144 2.2719 11.1435 1.91005 10.7226 1.65715C10.2672 1.38357 9.72244 1.28003 9.02004 1.28003H7.75003C6.0554 1.28003 4.69571 1.47369 3.81971 2.3497C2.9437 3.2257 2.75004 4.58539 2.75004 6.28003V11.2615C2.64225 11.3629 2.54042 11.4706 2.44514 11.5843L2.41978 11.6096L2.39341 11.6427C1.81016 12.3749 1.48515 13.3338 1.58288 14.3656L1.98242 19.3598L1.98361 19.3732C1.98653 19.4029 1.98944 19.433 1.99239 19.4635C2.05879 20.1505 2.1438 21.0299 2.67468 21.6927C3.27784 22.4457 4.27862 22.75 5.71004 22.75H18.29C19.7215 22.75 20.7222 22.4457 21.3254 21.6927C21.8563 21.0299 21.9413 20.1505 22.0077 19.4635C22.0106 19.433 22.0135 19.4029 22.0165 19.3732L22.4169 14.3693C22.5236 13.3462 22.2032 12.4053 21.6258 11.6808C21.6127 11.6605 21.6014 11.6451 21.5938 11.635C21.5721 11.6061 21.5521 11.5835 21.5392 11.5696C21.4459 11.4589 21.3459 11.3536 21.24 11.2544ZM8.68004 17C8.68004 16.5858 9.01582 16.25 9.43004 16.25H14.57C14.9842 16.25 15.32 16.5858 15.32 17C15.32 17.4142 14.9842 17.75 14.57 17.75H9.43004C9.01582 17.75 8.68004 17.4142 8.68004 17Z" fill="#595854"/>
</svg>
