<svg width="24" height="24" viewBox="0 0 24 24" fill="none" xmlns="http://www.w3.org/2000/svg">
<path fill-rule="evenodd" clip-rule="evenodd" d="M11.25 3.49811C10.6377 3.75082 9.98944 4.32941 9.41588 5.36374L3.3559 16.2637C2.76259 17.3338 2.65195 18.2275 2.82553 18.8985L11.25 12.9996V3.49811ZM12.75 3.49811V12.9996L21.1742 18.8984C21.3454 18.2283 21.2342 17.3381 20.644 16.2737L14.5843 5.36421C14.0108 4.32988 13.3622 3.75082 12.75 3.49811ZM20.2914 20.1114L12 14.3056L3.71373 20.1077C4.22298 20.4417 4.95491 20.66 5.93997 20.66H12C12.0418 20.66 12.0828 20.6635 12.1227 20.67H18.06C19.0477 20.67 19.7817 20.4491 20.2914 20.1114ZM11.8772 22.16H5.93997C4.04021 22.16 2.50723 21.4748 1.74192 20.1709C0.977026 18.8679 1.12454 17.1947 2.04405 15.5363L8.10407 4.63632C8.10394 4.63654 8.10419 4.6361 8.10407 4.63632C9.06762 2.89903 10.45 1.84253 12 1.84253C13.55 1.84253 14.9321 2.89845 15.8956 4.63585C15.8955 4.63569 15.8957 4.636 15.8956 4.63585L21.9556 15.5458C22.8757 17.2053 23.0201 18.879 22.2539 20.1815C21.4876 21.4843 19.9555 22.17 18.06 22.17H12C11.9582 22.17 11.9171 22.1666 11.8772 22.16Z" fill="#595854"/>
</svg>
