<svg width="24" height="24" viewBox="0 0 24 24" fill="none" xmlns="http://www.w3.org/2000/svg">
<path fill-rule="evenodd" clip-rule="evenodd" d="M3.6379 2.86466C4.63152 1.79462 6.10705 1.25 8 1.25H16C17.893 1.25 19.3685 1.79462 20.3621 2.86466C21.3464 3.92465 21.75 5.38503 21.75 7V17C21.75 18.615 21.3464 20.0754 20.3621 21.1353C19.3685 22.2054 17.893 22.75 16 22.75H11C10.5858 22.75 10.25 22.4142 10.25 22C10.25 21.5858 10.5858 21.25 11 21.25H16C17.607 21.25 18.6315 20.7946 19.2629 20.1147C19.9036 19.4246 20.25 18.385 20.25 17V7C20.25 5.61497 19.9036 4.57535 19.2629 3.88534C18.6315 3.20538 17.607 2.75 16 2.75H8C6.39295 2.75 5.36848 3.20538 4.7371 3.88534C4.09637 4.57535 3.75 5.61497 3.75 7V14C3.75 14.4142 3.41421 14.75 3 14.75C2.58579 14.75 2.25 14.4142 2.25 14V7C2.25 5.38503 2.65363 3.92465 3.6379 2.86466ZM14.5 3.75C14.9142 3.75 15.25 4.08579 15.25 4.5V6.5C15.25 7.18579 15.8142 7.75 16.5 7.75H18.5C18.9142 7.75 19.25 8.08579 19.25 8.5C19.25 8.91421 18.9142 9.25 18.5 9.25H16.5C14.9858 9.25 13.75 8.01421 13.75 6.5V4.5C13.75 4.08579 14.0858 3.75 14.5 3.75ZM4.53033 16.4697C4.82322 16.7626 4.82322 17.2374 4.53033 17.5303L3.06066 19L4.53033 20.4697C4.82322 20.7626 4.82322 21.2374 4.53033 21.5303C4.23744 21.8232 3.76256 21.8232 3.46967 21.5303L1.46967 19.5303C1.17678 19.2374 1.17678 18.7626 1.46967 18.4697L3.46967 16.4697C3.76256 16.1768 4.23744 16.1768 4.53033 16.4697ZM6.46967 16.4697C6.76256 16.1768 7.23744 16.1768 7.53033 16.4697L9.53033 18.4697C9.82322 18.7626 9.82322 19.2374 9.53033 19.5303L7.53033 21.5303C7.23744 21.8232 6.76256 21.8232 6.46967 21.5303C6.17678 21.2374 6.17678 20.7626 6.46967 20.4697L7.93934 19L6.46967 17.5303C6.17678 17.2374 6.17678 16.7626 6.46967 16.4697Z" fill="#595854"/>
</svg>
