<svg width="24" height="24" viewBox="0 0 24 24" fill="none" xmlns="http://www.w3.org/2000/svg">
<path fill-rule="evenodd" clip-rule="evenodd" d="M3.09467 3.09467C4.42914 1.7602 6.42603 1.25 9 1.25H15C17.574 1.25 19.5709 1.7602 20.9053 3.09467C22.2398 4.42914 22.75 6.42603 22.75 9V15C22.75 17.574 22.2398 19.5709 20.9053 20.9053C19.5709 22.2398 17.574 22.75 15 22.75H9C6.42603 22.75 4.42914 22.2398 3.09467 20.9053C1.7602 19.5709 1.25 17.574 1.25 15V9C1.25 6.42603 1.7602 4.42914 3.09467 3.09467ZM4.15533 4.15533C3.2398 5.07086 2.75 6.57397 2.75 9V15C2.75 17.426 3.2398 18.9291 4.15533 19.8447C5.07086 20.7602 6.57397 21.25 9 21.25H15C17.426 21.25 18.9291 20.7602 19.8447 19.8447C20.7602 18.9291 21.25 17.426 21.25 15V9C21.25 6.57397 20.7602 5.07086 19.8447 4.15533C18.9291 3.2398 17.426 2.75 15 2.75H9C6.57397 2.75 5.07086 3.2398 4.15533 4.15533ZM12.2097 6.45968C13.1426 5.52679 14.6774 5.52679 15.6103 6.45968L17.5503 8.39966C18.4832 9.33256 18.4832 10.8674 17.5503 11.8003L11.8003 17.5503C10.8674 18.4832 9.33255 18.4832 8.39966 17.5503L6.45967 15.6103C5.51982 14.6705 5.51312 13.1441 6.46153 12.2078L8.77665 9.8927C8.77765 9.89169 8.77866 9.89068 8.77967 9.88967C8.78068 9.88866 8.78169 9.88766 8.7827 9.88665L12.2097 6.45968ZM9.31001 11.4807L7.51622 13.2745C7.16691 13.6184 7.16093 14.1903 7.52033 14.5497L9.46032 16.4897C9.80743 16.8368 10.3926 16.8368 10.7397 16.4897L12.5293 14.7L9.31001 11.4807ZM13.59 13.6393L10.3707 10.42L13.2703 7.52034C13.6174 7.17323 14.2026 7.17323 14.5497 7.52034L16.4897 9.46033C16.8368 9.80743 16.8368 10.3926 16.4897 10.7397L13.59 13.6393Z" fill="#595854"/>
</svg>
