<svg width="24" height="24" viewBox="0 0 24 24" fill="none" xmlns="http://www.w3.org/2000/svg">
<path fill-rule="evenodd" clip-rule="evenodd" d="M7.25005 6C7.25005 3.37579 9.37584 1.25 12.0001 1.25C14.3421 1.25 16.2871 2.94322 16.6783 5.17282L19.5396 2.30983C19.8324 2.01685 20.3072 2.0167 20.6002 2.30951C20.8932 2.60231 20.8934 3.07718 20.6005 3.37017L9.95186 14.0255C10.5095 14.4802 11.2237 14.75 12.0001 14.75C13.7958 14.75 15.2501 13.2958 15.2501 11.5V11C15.2501 10.5858 15.5858 10.25 16.0001 10.25C16.4143 10.25 16.7501 10.5858 16.7501 11V11.5C16.7501 14.1242 14.6243 16.25 12.0001 16.25C10.8154 16.25 9.72285 15.817 8.88786 15.0901L7.44199 16.5369C8.66124 17.6029 10.2513 18.25 12.0001 18.25C15.8058 18.25 18.9001 15.1558 18.9001 11.35V9.65C18.9001 9.23579 19.2358 8.9 19.6501 8.9C20.0643 8.9 20.4001 9.23579 20.4001 9.65V11.35C20.4001 15.7315 17.0338 19.3367 12.7501 19.7169V22C12.7501 22.4142 12.4143 22.75 12.0001 22.75C11.5858 22.75 11.2501 22.4142 11.2501 22V19.717C9.38297 19.5522 7.69548 18.7777 6.37971 17.5998L4.46055 19.5202C4.16775 19.8132 3.69287 19.8133 3.39989 19.5205C3.1069 19.2277 3.10676 18.7528 3.39956 18.4598L15.2952 6.55684C15.266 6.47672 15.2501 6.39022 15.2501 6.3V6C15.2501 4.20421 13.7958 2.75 12.0001 2.75C11.9029 2.75 11.8067 2.75426 11.7117 2.7626C11.7366 2.83721 11.7501 2.91703 11.7501 3V6C11.7501 6.41421 11.4143 6.75 11.0001 6.75C10.5858 6.75 10.2501 6.41421 10.2501 6V3.26045C9.34779 3.83776 8.75005 4.84868 8.75005 6V11C8.75005 11.4142 8.41427 11.75 8.00005 11.75C7.58584 11.75 7.25005 11.4142 7.25005 11V6ZM4.35005 8.9C4.76427 8.9 5.10005 9.23579 5.10005 9.65V11.35C5.10005 12.3091 5.28971 13.2096 5.64057 14.0373C5.80224 14.4186 5.62414 14.8589 5.24277 15.0205C4.86141 15.1822 4.4212 15.0041 4.25954 14.6227C3.8304 13.6104 3.60005 12.5109 3.60005 11.35V9.65C3.60005 9.23579 3.93584 8.9 4.35005 8.9Z" fill="#595854"/>
</svg>
