<svg width="24" height="24" viewBox="0 0 24 24" fill="none" xmlns="http://www.w3.org/2000/svg">
<path fill-rule="evenodd" clip-rule="evenodd" d="M9.22547 2.3537C9.25027 2.35122 9.27518 2.34998 9.3001 2.34998H14.7001C15.5633 2.34998 16.1816 2.91831 16.4354 3.56258C16.6877 4.20307 16.627 5.03372 16.0304 5.63031L13.3304 8.33031C12.9579 8.70279 12.449 8.84998 12.0001 8.84998C11.5512 8.84998 11.0422 8.70279 10.6698 8.33031L7.96977 5.63031C7.37991 5.04045 7.30668 4.23532 7.56775 3.59269C7.8263 2.95626 8.42654 2.43359 9.22547 2.3537ZM9.34553 3.84998C9.15917 3.87893 9.02064 4.00171 8.95745 4.15726C8.89351 4.31463 8.92029 4.4595 9.03043 4.56965L11.7304 7.26965C11.7579 7.29717 11.849 7.34998 12.0001 7.34998C12.1512 7.34998 12.2422 7.29717 12.2698 7.26965L14.9698 4.56965C15.0732 4.46623 15.1125 4.29688 15.0398 4.11237C14.9686 3.93165 14.8369 3.84998 14.7001 3.84998H9.34553ZM5.21812 8.23168C5.15161 8.24 5.10203 8.27316 5.07092 8.33539C5.06001 8.3572 5.04805 8.37846 5.03507 8.3991L2.83508 11.8991C2.81262 11.9348 2.78721 11.9686 2.75911 12C2.78721 12.0314 2.81262 12.0651 2.83508 12.1008L5.02881 15.5909C5.12523 15.7321 5.21806 15.7634 5.2596 15.7688C5.29451 15.7733 5.3683 15.7711 5.46977 15.6696L8.96977 12.1696C9.0336 12.1058 9.0501 12.0448 9.0501 12C9.0501 11.9551 9.0336 11.8941 8.96977 11.8303L5.46977 8.33031C5.38297 8.24351 5.28783 8.22297 5.21812 8.23168ZM3.74812 7.62789C4.31738 6.54949 5.72225 6.46147 6.53043 7.26965L10.0304 10.7696C10.7233 11.4625 10.7233 12.5374 10.0304 13.2303L6.53043 16.7303C6.13189 17.1288 5.60569 17.3266 5.06559 17.2562C4.5328 17.1867 4.07798 16.8689 3.77606 16.416L3.76512 16.3991L1.60332 12.9599C1.37107 12.6988 1.2251 12.3668 1.2251 12C1.2251 11.6331 1.37107 11.3011 1.60333 11.0401L3.74812 7.62789ZM20.2386 7.60641C19.9442 7.12195 19.4409 6.87737 18.9681 6.81827C18.4898 6.75847 17.9566 6.87432 17.5316 7.21432C17.51 7.23161 17.4893 7.25008 17.4698 7.26965L13.9698 10.7696C13.2769 11.4625 13.2769 12.5374 13.9698 13.2303L17.4698 16.7303C17.8683 17.1288 18.3945 17.3266 18.9346 17.2562C19.4674 17.1867 19.9222 16.8689 20.2241 16.416L20.2351 16.3991L22.3969 12.9599C22.6291 12.6988 22.7751 12.3668 22.7751 12C22.7751 11.6331 22.6291 11.3011 22.3969 11.0401L20.2386 7.60641ZM18.4923 8.36848L15.0304 11.8303C14.9666 11.8941 14.9501 11.9551 14.9501 12C14.9501 12.0448 14.9666 12.1058 15.0304 12.1696L18.5304 15.6696C18.6319 15.7711 18.7057 15.7733 18.7406 15.7688C18.7821 15.7634 18.875 15.7321 18.9714 15.5909L21.1651 12.1008C21.1876 12.0651 21.213 12.0314 21.2411 12C21.213 11.9686 21.1876 11.9348 21.1651 11.8991L18.9651 8.3991L18.957 8.38585C18.9507 8.37541 18.9068 8.32227 18.7821 8.30668C18.6726 8.293 18.5669 8.31932 18.4923 8.36848ZM12.0001 16.65C11.849 16.65 11.7579 16.7028 11.7304 16.7303L9.03043 19.4303C8.92028 19.5404 8.89351 19.6853 8.95745 19.8427C9.02064 19.9982 9.15917 20.121 9.34553 20.15H14.7001C14.8369 20.15 14.9686 20.0683 15.0398 19.8876C15.1125 19.7031 15.0732 19.5337 14.9698 19.4303L12.2698 16.7303C12.2422 16.7028 12.1512 16.65 12.0001 16.65ZM12.0001 15.15C12.449 15.15 12.9579 15.2972 13.3304 15.6696L16.0304 18.3696C16.627 18.9662 16.6877 19.7969 16.4354 20.4374C16.1816 21.0816 15.5633 21.65 14.7001 21.65H9.3001C9.27518 21.65 9.25027 21.6487 9.22547 21.6463C8.42654 21.5664 7.8263 21.0437 7.56775 20.4073C7.30668 19.7646 7.37991 18.9595 7.96977 18.3696L10.6698 15.6696C11.0422 15.2972 11.5512 15.15 12.0001 15.15Z" fill="#595854"/>
</svg>
