<svg width="24" height="24" viewBox="0 0 24 24" fill="none" xmlns="http://www.w3.org/2000/svg">
<path fill-rule="evenodd" clip-rule="evenodd" d="M3.09467 3.09467C4.42914 1.7602 6.42603 1.25 9 1.25H15C17.574 1.25 19.5709 1.7602 20.9053 3.09467C22.2398 4.42914 22.75 6.42603 22.75 9V15C22.75 17.574 22.2398 19.5709 20.9053 20.9053C19.5709 22.2398 17.574 22.75 15 22.75H9C6.42603 22.75 4.42914 22.2398 3.09467 20.9053C1.7602 19.5709 1.25 17.574 1.25 15V9C1.25 6.42603 1.7602 4.42914 3.09467 3.09467ZM4.15533 4.15533C3.2398 5.07086 2.75 6.57397 2.75 9V15C2.75 17.426 3.2398 18.9291 4.15533 19.8447C5.07086 20.7602 6.57397 21.25 9 21.25H15C17.426 21.25 18.9291 20.7602 19.8447 19.8447C20.7602 18.9291 21.25 17.426 21.25 15V9C21.25 6.57397 20.7602 5.07086 19.8447 4.15533C18.9291 3.2398 17.426 2.75 15 2.75H9C6.57397 2.75 5.07086 3.2398 4.15533 4.15533ZM8.5 7.5C8.08579 7.5 7.75 7.83579 7.75 8.25C7.75 8.66421 8.08579 9 8.5 9C8.91421 9 9.25 8.66421 9.25 8.25C9.25 7.83579 8.91421 7.5 8.5 7.5ZM6.25 8.25C6.25 7.00736 7.25736 6 8.5 6C9.74264 6 10.75 7.00736 10.75 8.25C10.75 9.49264 9.74264 10.5 8.5 10.5C7.25736 10.5 6.25 9.49264 6.25 8.25ZM15.5 7.5C15.0858 7.5 14.75 7.83579 14.75 8.25C14.75 8.66421 15.0858 9 15.5 9C15.9142 9 16.25 8.66421 16.25 8.25C16.25 7.83579 15.9142 7.5 15.5 7.5ZM13.25 8.25C13.25 7.00736 14.2574 6 15.5 6C16.7426 6 17.75 7.00736 17.75 8.25C17.75 9.49264 16.7426 10.5 15.5 10.5C14.2574 10.5 13.25 9.49264 13.25 8.25ZM8.4 14.05C8.31421 14.05 8.25 14.1142 8.25 14.2C8.25 16.2758 9.92421 17.95 12 17.95C14.0758 17.95 15.75 16.2758 15.75 14.2C15.75 14.1142 15.6858 14.05 15.6 14.05H8.4ZM6.75 14.2C6.75 13.2858 7.48579 12.55 8.4 12.55H15.6C16.5142 12.55 17.25 13.2858 17.25 14.2C17.25 17.1042 14.9042 19.45 12 19.45C9.09579 19.45 6.75 17.1042 6.75 14.2Z" fill="#595854"/>
</svg>
