<svg width="24" height="24" viewBox="0 0 24 24" fill="none" xmlns="http://www.w3.org/2000/svg">
<path fill-rule="evenodd" clip-rule="evenodd" d="M6.03721 3.39535C5.56453 3.39535 5.0818 3.58691 4.59176 4.06929L4.58647 4.07449L4.58108 4.07958C4.15805 4.47866 3.86517 4.91493 3.68179 5.38102L3.68107 5.38286L3.68033 5.38469C3.49222 5.85496 3.39535 6.37105 3.39535 6.92093C3.39535 7.77924 3.59317 8.70073 4.01002 9.69105C4.43264 10.6857 5.01846 11.7004 5.75588 12.7258C6.50557 13.7553 7.3465 14.7412 8.27938 15.6834C9.22188 16.6166 10.2085 17.4582 11.2486 18.2179C11.2487 18.218 11.2487 18.218 11.2487 18.218C12.2709 18.9621 13.2947 19.5485 14.3107 19.9814C15.3104 20.4074 16.2313 20.6047 17.0698 20.6047C17.6324 20.6047 18.1455 20.5006 18.6154 20.3048L18.6173 20.304L18.6191 20.3033C19.0794 20.1146 19.4981 19.8171 19.8923 19.3827C20.1134 19.1388 20.2805 18.8807 20.411 18.6044C20.5258 18.3612 20.5767 18.1186 20.5767 17.8884C20.5767 17.7385 20.5469 17.5978 20.4827 17.4342C20.439 17.3395 20.364 17.2429 20.2168 17.1411L20.2134 17.1387L17.1369 14.9545C16.9328 14.8161 16.7643 14.7235 16.6196 14.6643C16.4872 14.6102 16.3908 14.5953 16.3163 14.5953C16.2268 14.5953 16.1369 14.6169 16.0186 14.689L15.9989 14.7009L15.9785 14.7116C15.8501 14.7786 15.6837 14.9029 15.4794 15.1073L15.4777 15.1089L14.7705 15.8069C14.5447 16.0317 14.2498 16.1674 13.8977 16.1674C13.7599 16.1674 13.5965 16.152 13.4201 16.0858L13.4051 16.0802L13.3903 16.0738C13.3519 16.0574 13.3163 16.041 13.291 16.0294L13.2837 16.0261C13.2536 16.0123 13.2433 16.0078 13.2386 16.0059L13.2041 15.9921L13.1712 15.9747C12.7941 15.7751 12.3514 15.4617 11.847 15.0349L11.8461 15.0342C11.335 14.6002 10.8378 14.1313 10.3299 13.6328L10.3252 13.6282L10.3206 13.6235C9.8244 13.1178 9.36791 12.6136 8.94221 12.1217L8.93967 12.1187L8.93717 12.1158C8.51553 11.6175 8.19258 11.1759 7.99217 10.8085L7.96242 10.754L7.94287 10.6953C7.94286 10.6953 7.94048 10.6888 7.9284 10.6602C7.92737 10.6578 7.92627 10.6552 7.92511 10.6525C7.91351 10.6251 7.89521 10.582 7.87698 10.5333L7.86303 10.4961L7.85339 10.4576C7.82333 10.3374 7.80465 10.2149 7.80465 10.0744C7.80465 9.75886 7.91218 9.45767 8.15218 9.21469L8.86004 8.47889L8.86481 8.47411C9.05645 8.28247 9.18973 8.1087 9.2717 7.96368L9.27725 7.95386L9.28312 7.94422C9.35362 7.8284 9.37674 7.72933 9.37674 7.64651C9.37674 7.58675 9.35945 7.48579 9.30292 7.3539L9.30064 7.34858L9.29846 7.34323C9.2395 7.19911 9.14807 7.03301 9.00591 6.83556L9.00449 6.83359L6.84262 3.78647L6.84033 3.78317C6.74959 3.6521 6.63655 3.56237 6.49833 3.49858L6.49354 3.49637L6.48879 3.49409C6.35641 3.43054 6.19998 3.39535 6.03721 3.39535ZM3.61822 3.06966C4.3177 2.38324 5.13543 2 6.03721 2C6.39366 2 6.75638 2.0757 7.08782 2.23386C7.43029 2.39283 7.74242 2.63622 7.98509 2.98534L10.1397 6.02229C10.3305 6.28746 10.4797 6.54692 10.5877 6.80962C10.6974 7.06706 10.7721 7.35482 10.7721 7.64651C10.7721 8.00638 10.6672 8.35035 10.481 8.65988C10.3226 8.93752 10.1063 9.20527 9.8564 9.45583L9.2157 10.1218C9.22219 10.1371 9.2309 10.1578 9.24031 10.1818C9.37953 10.4259 9.62605 10.7695 9.99987 11.2115C10.4093 11.6845 10.8435 12.1638 11.312 12.6416C11.8069 13.1272 12.2756 13.5683 12.7488 13.9702C13.1962 14.3486 13.5448 14.5899 13.7981 14.7276C13.8186 14.7364 13.8375 14.745 13.8529 14.752L14.4944 14.1189C14.7488 13.8648 15.0215 13.6408 15.3127 13.4852C15.6169 13.3041 15.9486 13.2 16.3163 13.2C16.5953 13.2 16.8709 13.2596 17.1479 13.3729C17.4111 13.4806 17.6687 13.6287 17.9272 13.8045L17.933 13.8084L21.0147 15.9963C21.3446 16.2255 21.6031 16.5158 21.7642 16.8818L21.769 16.8927L21.7734 16.9037C21.8919 17.2 21.9721 17.521 21.9721 17.8884C21.9721 18.3279 21.8742 18.7737 21.6727 19.2002C21.4869 19.5937 21.2448 19.9682 20.9263 20.3197L20.9261 20.3198L20.926 20.32C20.4092 20.8895 19.8239 21.3172 19.1502 21.5936C18.5044 21.8624 17.8088 22 17.0698 22C16.0106 22 14.9035 21.7508 13.7637 21.2651C12.6405 20.7865 11.5251 20.1452 10.4266 19.3454L10.4257 19.3448C9.32717 18.5424 8.28674 17.6546 7.2951 16.6725L7.29271 16.6701L7.29034 16.6677C6.30837 15.6762 5.42025 14.6355 4.62668 13.5455L4.62549 13.5439L4.62432 13.5423C3.83698 12.4477 3.19544 11.3424 2.7253 10.2356L2.72487 10.2345L2.72444 10.2335C2.24855 9.1033 2 7.99722 2 6.92093C2 6.20637 2.12614 5.51379 2.38405 4.8683C2.64638 4.20236 3.05844 3.59911 3.61822 3.06966ZM14.093 2.69767C14.093 2.31236 14.4054 2 14.7907 2C18.776 2 22 5.22399 22 9.2093C22 9.59462 21.6876 9.90698 21.3023 9.90698C20.917 9.90698 20.6047 9.59462 20.6047 9.2093C20.6047 5.99462 18.0054 3.39535 14.7907 3.39535C14.4054 3.39535 14.093 3.08299 14.093 2.69767ZM14.093 5.95349C14.093 5.56817 14.4054 5.25581 14.7907 5.25581C15.8527 5.25581 16.8152 5.91802 17.4688 6.62232C17.8357 7.0155 18.1455 7.45599 18.367 7.88682C18.5814 8.30378 18.7442 8.77226 18.7442 9.2093C18.7442 9.59462 18.4318 9.90698 18.0465 9.90698C17.6612 9.90698 17.3488 9.59462 17.3488 9.2093C17.3488 9.0882 17.2931 8.8497 17.126 8.52481C16.9663 8.21402 16.7321 7.87804 16.4481 7.57371L16.4466 7.57212C15.9095 6.99305 15.2911 6.65116 14.7907 6.65116C14.4054 6.65116 14.093 6.3388 14.093 5.95349Z" fill="#595854"/>
</svg>
