<svg width="24" height="24" viewBox="0 0 24 24" fill="none" xmlns="http://www.w3.org/2000/svg">
<path fill-rule="evenodd" clip-rule="evenodd" d="M9.50007 2.75C8.46557 2.75 7.48866 3.58316 7.34253 4.60607L7.34123 4.61512L4.94154 18.9133C4.92375 19.0501 4.96416 19.1257 4.99994 19.1663C5.04177 19.2137 5.11022 19.25 5.20007 19.25H7.26999C7.27333 19.2471 7.27747 19.2432 7.2821 19.2376C7.30004 19.2156 7.33304 19.1621 7.36441 19.0487L8.16113 13.7704L8.16463 13.7529C8.31852 12.9834 8.96585 12.25 9.90007 12.25H13.0001C13.2484 12.25 13.4918 12.233 13.7297 12.2001C14.9129 12.0361 15.9323 11.4795 16.6451 10.6955L16.6571 10.6823L16.6697 10.6697C17.5443 9.79515 18.065 8.66363 18.152 7.44656L18.2206 6.48515C17.9744 4.35136 16.2113 2.75 14.0001 2.75H9.50007ZM19.7501 7.14446V7C19.7501 3.78579 17.2143 1.25 14.0001 1.25H9.50007C7.73775 1.25 6.11733 2.61192 5.85899 4.38433L3.4589 18.6849L3.4576 18.6939C3.29122 19.8586 4.15672 20.75 5.20007 20.75H6.44052C6.37971 21.7323 7.18374 22.65 8.20007 22.65H11.2001C12.0304 22.65 12.7602 22.1236 12.9355 21.2471L12.9382 21.2338L13.6376 16.9372C13.6549 16.8603 13.687 16.823 13.7134 16.8022C13.7437 16.7785 13.8013 16.75 13.9001 16.75H16.0001C17.6278 16.75 19.0115 16.0492 20.0304 15.0303C21.0493 14.0114 21.7501 12.6277 21.7501 11C21.7501 9.41785 20.9957 8.01799 19.7501 7.14446ZM13.1788 13.7477C15.0191 13.7002 16.6393 12.9214 17.8304 11.7303C18.557 11.0037 19.1706 10.0432 19.5009 8.92855C19.98 9.4922 20.2501 10.2107 20.2501 11C20.2501 12.1723 19.7508 13.1886 18.9697 13.9697C18.1886 14.7508 17.1724 15.25 16.0001 15.25H13.9001C13.0697 15.25 12.3399 15.7764 12.1646 16.6529L12.162 16.6662L11.4625 20.9628C11.4452 21.0397 11.4131 21.077 11.3867 21.0978C11.3565 21.1215 11.2988 21.15 11.2001 21.15H8.20007C8.15515 21.15 8.08094 21.1255 8.01373 21.0449C7.95626 20.9759 7.93611 20.9039 7.93747 20.8491L8.02167 20.5544C8.46503 20.3097 8.82475 19.8699 8.84879 19.2648L9.6384 14.0336C9.6604 13.9376 9.70823 13.8605 9.7604 13.8121C9.81165 13.7645 9.85885 13.75 9.90007 13.75H13.0001C13.0599 13.75 13.1195 13.7492 13.1788 13.7477Z" fill="#595854"/>
</svg>
