<svg width="24" height="24" viewBox="0 0 24 24" fill="none" xmlns="http://www.w3.org/2000/svg">
<path fill-rule="evenodd" clip-rule="evenodd" d="M4.22119 8.53159C4.22119 4.36704 7.48775 1 11.5144 1C15.5217 1 18.8064 4.38731 18.8174 8.52949L18.8174 8.53159L18.8174 10.6644C18.8174 10.9136 18.8706 11.2733 18.9715 11.6523C19.0725 12.0316 19.2049 12.3682 19.3301 12.5823L19.3313 12.5844L20.5811 14.7379C21.5435 16.3982 20.7776 18.5505 18.9991 19.1624L18.9986 19.1626C17.7947 19.576 16.5664 19.8868 15.3258 20.0952C14.8107 21.7759 13.2828 23 11.4947 23C10.3932 23 9.38175 22.5259 8.66018 21.7811C8.2102 21.3166 7.86171 20.7352 7.66311 20.0868C6.43942 19.8785 5.22784 19.5705 4.03995 19.1626L4.03951 19.1624C3.13835 18.8524 2.46854 18.2031 2.1692 17.3667C1.86987 16.5304 1.96891 15.5849 2.45666 14.7394L2.45769 14.7376L3.70727 12.5844L3.70851 12.5823C3.83422 12.3673 3.96653 12.0325 4.06725 11.6555C4.16786 11.2789 4.22119 10.9191 4.22119 10.6644V8.53159ZM9.40082 20.3148C9.49076 20.4508 9.59263 20.5776 9.70476 20.6934C10.1639 21.1673 10.8054 21.4651 11.4947 21.4651C12.3612 21.4651 13.13 21.0085 13.588 20.3193C12.195 20.4453 10.7937 20.4438 9.40082 20.3148ZM11.5144 2.53488C8.2993 2.53488 5.70167 5.22104 5.70167 8.53159V10.6644C5.70167 11.1004 5.61725 11.6039 5.49402 12.0652C5.37103 12.5256 5.19365 13.0028 4.97531 13.3767C4.97507 13.3771 4.97484 13.3775 4.9746 13.3779L3.72728 15.5271C3.72713 15.5274 3.72699 15.5276 3.72685 15.5279C3.44755 16.0125 3.4286 16.4734 3.55722 16.8328C3.68589 17.1923 3.99016 17.5283 4.50585 17.7057C9.05763 19.2685 13.981 19.2685 18.5327 17.7057C19.4107 17.4036 19.7861 16.3467 19.3123 15.5289C19.3123 15.5289 19.3124 15.5289 19.3123 15.5289C19.3123 15.5288 19.3122 15.5286 19.3121 15.5286L18.064 13.3779C18.0637 13.3774 18.0635 13.377 18.0632 13.3766C17.8444 13.0018 17.6671 12.5214 17.5444 12.0608C17.4215 11.5993 17.3369 11.0958 17.3369 10.6644V8.53267C17.3277 5.24084 14.709 2.53488 11.5144 2.53488ZM11.4947 5.50944C11.9035 5.50944 12.2349 5.85303 12.2349 6.27688V9.65895C12.2349 10.0828 11.9035 10.4264 11.4947 10.4264C11.0859 10.4264 10.7545 10.0828 10.7545 9.65895V6.27688C10.7545 5.85303 11.0859 5.50944 11.4947 5.50944Z" fill="#595854"/>
</svg>
