<svg width="24" height="24" viewBox="0 0 24 24" fill="none" xmlns="http://www.w3.org/2000/svg">
<path fill-rule="evenodd" clip-rule="evenodd" d="M2.56995 5.86C2.56995 3.32705 4.63447 1.25 7.17995 1.25H16.8199C19.3661 1.25 21.428 3.32697 21.4399 5.85646L21.44 5.86L21.4399 19.95C21.4399 21.0187 21.0529 21.9642 20.2281 22.45C19.403 22.9359 18.3892 22.8153 17.4558 22.2957M17.4558 22.2957L12.5692 19.582C12.4556 19.5174 12.2547 19.4625 12.0087 19.4625C11.7635 19.4625 11.557 19.5171 11.4352 19.585L6.55406 22.2957L6.5517 22.297C5.61743 22.8114 4.60483 22.9272 3.78184 22.4425C2.95828 21.9575 2.56995 21.0157 2.56995 19.95V5.86M7.17995 2.75C5.46542 2.75 4.06995 4.15295 4.06995 5.86V19.95C4.06995 20.6843 4.32662 21.0225 4.54305 21.15C4.75993 21.2777 5.18195 21.3385 5.82701 20.9837C5.8274 20.9834 5.82779 20.9832 5.82819 20.983L10.7046 18.275C10.7045 18.2751 10.7048 18.2749 10.7046 18.275C11.1028 18.0531 11.5766 17.9625 12.0087 17.9625C12.4389 17.9625 12.9113 18.0521 13.307 18.276L18.1841 20.9843C18.8305 21.3444 19.2521 21.284 19.4668 21.1575C19.682 21.0308 19.9399 20.6913 19.9399 19.95V5.862C19.931 4.15219 18.5333 2.75 16.8199 2.75H7.17995ZM15.6203 7.96967C15.9132 8.26256 15.9132 8.73744 15.6203 9.03033L11.6203 13.0303C11.3274 13.3232 10.8525 13.3232 10.5596 13.0303L9.05962 11.5303C8.76672 11.2374 8.76672 10.7626 9.05962 10.4697C9.35251 10.1768 9.82738 10.1768 10.1203 10.4697L11.0899 11.4393L14.5596 7.96967C14.8525 7.67678 15.3274 7.67678 15.6203 7.96967Z" fill="#595854"/>
</svg>
