<svg width="24" height="24" viewBox="0 0 24 24" fill="none" xmlns="http://www.w3.org/2000/svg">
<path fill-rule="evenodd" clip-rule="evenodd" d="M1.25 2.5C1.25 2.08579 1.58579 1.75 2 1.75H22C22.4142 1.75 22.75 2.08579 22.75 2.5C22.75 2.91421 22.4142 3.25 22 3.25H21.09V14.47C21.09 15.6842 20.5203 16.8379 19.5388 17.5709L14.3295 21.4704C12.9531 22.4995 11.0572 22.4998 9.68087 21.4706L4.47123 17.5709C4.47108 17.5708 4.47138 17.571 4.47123 17.5709C3.48998 16.8379 2.92001 15.684 2.92001 14.47V3.25H2C1.58579 3.25 1.25 2.91421 1.25 2.5ZM4.42001 3.25V14.47C4.42001 15.2158 4.77032 15.9221 5.3688 16.3691L10.5791 20.2693C11.4228 20.9002 12.5872 20.9002 13.4309 20.2693L18.6406 16.3696C19.239 15.9226 19.59 15.2158 19.59 14.47V3.25H4.42001ZM7.25 8C7.25 7.58579 7.58579 7.25 8 7.25H16C16.4142 7.25 16.75 7.58579 16.75 8C16.75 8.41421 16.4142 8.75 16 8.75H8C7.58579 8.75 7.25 8.41421 7.25 8ZM7.25 13C7.25 12.5858 7.58579 12.25 8 12.25H16C16.4142 12.25 16.75 12.5858 16.75 13C16.75 13.4142 16.4142 13.75 16 13.75H8C7.58579 13.75 7.25 13.4142 7.25 13Z" fill="#595854"/>
</svg>
