<svg width="24" height="24" viewBox="0 0 24 24" fill="none" xmlns="http://www.w3.org/2000/svg">
<path fill-rule="evenodd" clip-rule="evenodd" d="M12 2.75C6.89137 2.75 2.75 6.89137 2.75 12C2.75 17.1086 6.89137 21.25 12 21.25C17.1086 21.25 21.25 17.1086 21.25 12C21.25 6.89137 17.1086 2.75 12 2.75ZM1.25 12C1.25 6.06294 6.06294 1.25 12 1.25C17.9371 1.25 22.75 6.06294 22.75 12C22.75 17.9371 17.9371 22.75 12 22.75C6.06294 22.75 1.25 17.9371 1.25 12ZM9.9346 5.75C10.3488 5.75 10.6846 6.08579 10.6846 6.5V7.63079H11.5269V6.5C11.5269 6.08579 11.8627 5.75 12.2769 5.75C12.6911 5.75 13.0269 6.08579 13.0269 6.5V7.63079H13.6846C15.1606 7.63079 16.3154 8.92496 16.3154 10.2616C16.3154 10.8178 16.1427 11.3338 15.8479 11.7587C16.6677 12.2046 17.25 13.0131 17.25 14.0115C17.25 15.5534 15.8613 16.6423 14.3538 16.6423H13.0269V17.7616C13.0269 18.1758 12.6911 18.5116 12.2769 18.5116C11.8627 18.5116 11.5269 18.1758 11.5269 17.7616V16.6423H10.6846V17.7616C10.6846 18.1758 10.3488 18.5116 9.9346 18.5116C9.52039 18.5116 9.1846 18.1758 9.1846 17.7616V16.6423H8.99998C8.9551 16.6423 8.91114 16.6384 8.86843 16.6308H7.5C7.08579 16.6308 6.75 16.295 6.75 15.8808C6.75 15.4666 7.08579 15.1308 7.5 15.1308H8.24998V9.13079H7.5C7.08579 9.13079 6.75 8.795 6.75 8.38079C6.75 7.96658 7.08579 7.63079 7.5 7.63079H9.1846V6.5C9.1846 6.08579 9.52039 5.75 9.9346 5.75ZM9.74998 9.13079V11.3808H13.8469C14.3943 11.302 14.8154 10.8307 14.8154 10.2616C14.8154 9.70586 14.2855 9.13079 13.6846 9.13079H9.74998ZM9.74998 12.8923V15.1308H10.7769C10.8218 15.1308 10.8658 15.1348 10.9085 15.1423H12.1454C12.1881 15.1348 12.232 15.1308 12.2769 15.1308C12.3218 15.1308 12.3658 15.1348 12.4085 15.1423H14.3538C15.2233 15.1423 15.75 14.5466 15.75 14.0115C15.75 13.4765 15.2233 12.8808 14.3538 12.8808H13.9329C13.8511 12.8884 13.7683 12.8923 13.6846 12.8923H9.74998Z" fill="#595854"/>
</svg>
