<svg width="24" height="24" viewBox="0 0 24 24" fill="none" xmlns="http://www.w3.org/2000/svg">
<path fill-rule="evenodd" clip-rule="evenodd" d="M4.9978 7.35943C4.71237 7.70432 4.57 8.24216 4.57 9V15C4.57 15.7578 4.71237 16.2957 4.9978 16.6406C5.25936 16.9566 5.75971 17.25 6.82 17.25C7.88029 17.25 8.38064 16.9566 8.6422 16.6406C8.92763 16.2957 9.07 15.7578 9.07 15V9C9.07 8.24216 8.92763 7.70432 8.6422 7.35943C8.38064 7.04336 7.88029 6.75 6.82 6.75C5.75971 6.75 5.25936 7.04336 4.9978 7.35943ZM10.57 11.25V9C10.57 8.10784 10.4124 7.14568 9.7978 6.40307C9.15936 5.63164 8.15971 5.25 6.82 5.25C5.48029 5.25 4.48064 5.63164 3.8422 6.40307C3.22763 7.14568 3.07 8.10784 3.07 9V15C3.07 15.8922 3.22763 16.8543 3.8422 17.5969C4.48064 18.3684 5.48029 18.75 6.82 18.75C8.15971 18.75 9.15936 18.3684 9.7978 17.5969C10.4124 16.8543 10.57 15.8922 10.57 15V12.75H13.43V15C13.43 15.8922 13.5876 16.8543 14.2022 17.5969C14.8406 18.3684 15.8403 18.75 17.18 18.75C18.5197 18.75 19.5194 18.3684 20.1578 17.5969C20.7724 16.8543 20.93 15.8922 20.93 15V9C20.93 8.10784 20.7724 7.14568 20.1578 6.40307C19.5194 5.63164 18.5197 5.25 17.18 5.25C15.8403 5.25 14.8406 5.63164 14.2022 6.40307C13.5876 7.14568 13.43 8.10784 13.43 9V11.25H10.57ZM14.93 15C14.93 15.7578 15.0724 16.2957 15.3578 16.6406C15.6194 16.9566 16.1197 17.25 17.18 17.25C18.2403 17.25 18.7406 16.9566 19.0022 16.6406C19.2876 16.2957 19.43 15.7578 19.43 15V9C19.43 8.24216 19.2876 7.70432 19.0022 7.35943C18.7406 7.04336 18.2403 6.75 17.18 6.75C16.1197 6.75 15.6194 7.04336 15.3578 7.35943C15.0724 7.70432 14.93 8.24216 14.93 9V15ZM1.5 8.75C1.91421 8.75 2.25 9.08579 2.25 9.5V14.5C2.25 14.9142 1.91421 15.25 1.5 15.25C1.08579 15.25 0.75 14.9142 0.75 14.5V9.5C0.75 9.08579 1.08579 8.75 1.5 8.75ZM22.5 8.75C22.9142 8.75 23.25 9.08579 23.25 9.5V14.5C23.25 14.9142 22.9142 15.25 22.5 15.25C22.0858 15.25 21.75 14.9142 21.75 14.5V9.5C21.75 9.08579 22.0858 8.75 22.5 8.75Z" fill="#595854"/>
</svg>
