<svg width="24" height="24" viewBox="0 0 24 24" fill="none" xmlns="http://www.w3.org/2000/svg">
<path fill-rule="evenodd" clip-rule="evenodd" d="M6.29303 6.29303C3.45092 6.64149 1.25 9.06372 1.25 12C1.25 14.9363 3.45092 17.3585 6.29303 17.707C6.64149 20.5491 9.06372 22.75 12 22.75C14.9363 22.75 17.3585 20.5491 17.707 17.707C20.5491 17.3585 22.75 14.9363 22.75 12C22.75 9.06372 20.5491 6.64149 17.707 6.29303C17.3585 3.45092 14.9363 1.25 12 1.25C9.06372 1.25 6.64148 3.45092 6.29303 6.29303ZM7.80637 6.3061C9.60522 6.55854 11.1371 7.64332 12 9.15853C12.8629 7.64332 14.3948 6.55855 16.1936 6.3061C15.8624 4.28895 14.1109 2.75 12 2.75C9.88909 2.75 8.13762 4.28895 7.80637 6.3061ZM12.8313 11.1687C13.1645 9.48834 14.4883 8.16445 16.1687 7.83125C15.8355 9.51166 14.5117 10.8355 12.8313 11.1687ZM11.1687 11.1687C9.48834 10.8355 8.16446 9.51166 7.83126 7.83125C9.51167 8.16445 10.8355 9.48833 11.1687 11.1687ZM9.15853 12C7.64332 11.1371 6.55854 9.60522 6.3061 7.80637C4.28895 8.13762 2.75 9.88909 2.75 12C2.75 14.1109 4.28895 15.8624 6.3061 16.1936C6.55855 14.3948 7.64332 12.8629 9.15853 12ZM7.80637 17.6939C8.13763 19.711 9.88909 21.25 12 21.25C14.1109 21.25 15.8624 19.711 16.1936 17.6939C14.3948 17.4415 12.8629 16.3567 12 14.8415C11.1371 16.3567 9.60522 17.4415 7.80637 17.6939ZM16.1687 16.1687C14.4883 15.8355 13.1645 14.5117 12.8313 12.8313C14.5117 13.1645 15.8355 14.4883 16.1687 16.1687ZM17.6939 16.1936C19.711 15.8624 21.25 14.1109 21.25 12C21.25 9.88909 19.711 8.13762 17.6939 7.80637C17.4415 9.60522 16.3567 11.1371 14.8415 12C16.3567 12.8629 17.4415 14.3948 17.6939 16.1936ZM11.1687 12.8313C10.8355 14.5117 9.51166 15.8355 7.83125 16.1687C8.16445 14.4883 9.48834 13.1645 11.1687 12.8313Z" fill="#595854"/>
</svg>
