<svg width="24" height="24" viewBox="0 0 24 24" fill="none" xmlns="http://www.w3.org/2000/svg">
<path fill-rule="evenodd" clip-rule="evenodd" d="M18.4697 3.48969C18.7626 3.1968 19.2374 3.1968 19.5303 3.48969L21.5303 5.48969C21.5318 5.49116 21.5333 5.49263 21.5347 5.4941C21.6745 5.63102 21.7609 5.82216 21.76 6.03331C21.7582 6.44752 21.4209 6.78182 21.0067 6.78L16.4567 6.75998L16.4517 6.75994C15.8004 6.75278 15.1861 7.08292 14.824 7.62602L8.43404 17.206C8.434 17.206 8.43407 17.2059 8.43404 17.206C7.79266 18.1679 6.70659 18.74 5.54999 18.74L5.54704 18.74L2.99706 18.73C2.58285 18.7283 2.24838 18.3912 2.25001 17.977C2.25163 17.5628 2.58873 17.2283 3.00294 17.23L5.54999 17.24C5.55044 17.24 5.5509 17.24 5.55136 17.24C6.21417 17.2395 6.82757 16.9115 7.18596 16.3739L13.576 6.79397C13.5759 6.79402 13.576 6.79392 13.576 6.79397C14.2134 5.83788 15.298 5.24807 16.4656 5.26C16.4665 5.26001 16.4674 5.26002 16.4682 5.26003L19.1913 5.272L18.4697 4.55035C18.1768 4.25746 18.1768 3.78258 18.4697 3.48969ZM8.41914 6.68244C8.41906 6.68233 8.41921 6.68254 8.41914 6.68244L9.49866 8.18175C9.74069 8.5179 9.66439 8.9866 9.32825 9.22863C8.9921 9.47066 8.5234 9.39437 8.28137 9.05822L7.20135 7.55822C6.83181 7.04376 6.24029 6.7428 5.61861 6.74994L5.61286 6.75001L3.00288 6.76C2.58867 6.76158 2.25159 6.42709 2.25001 6.01288C2.24842 5.59867 2.58291 5.2616 2.99712 5.26001L5.60443 5.25001C6.72146 5.23817 7.76926 5.77792 8.41914 6.68244ZM12.5098 14.7878C12.8369 14.5336 13.3081 14.5927 13.5622 14.9198L14.7835 16.4914C15.1495 16.9652 15.7287 17.2495 16.3385 17.25C16.339 17.25 16.3395 17.25 16.34 17.25L20.9888 17.2301C20.9941 17.23 20.9994 17.23 21.0048 17.23L21.0068 17.23C21.421 17.2282 21.7582 17.5626 21.76 17.9768C21.7611 18.2222 21.6441 18.4406 21.4624 18.5782L19.5303 20.5103C19.2374 20.8032 18.7626 20.8032 18.4697 20.5103C18.1768 20.2174 18.1768 19.7425 18.4697 19.4496L19.1815 18.7378L16.3432 18.75L16.34 18.75C15.2708 18.75 14.2509 18.2548 13.5973 17.4096C13.597 17.4092 13.5968 17.4089 13.5965 17.4086L12.3778 15.8402C12.1236 15.5131 12.1827 15.0419 12.5098 14.7878Z" fill="#595854"/>
</svg>
