<svg width="24" height="24" viewBox="0 0 24 24" fill="none" xmlns="http://www.w3.org/2000/svg">
<path fill-rule="evenodd" clip-rule="evenodd" d="M18.539 5.47967C14.932 1.86347 9.06791 1.86347 5.46096 5.47967L5.45961 5.48101C1.7787 9.15268 1.84264 15.146 5.64551 18.7453C9.15684 22.062 14.8539 22.061 18.3541 18.7456M19.6003 4.41969C15.4074 0.21679 8.59248 0.216794 4.39961 4.4197C0.121205 8.6881 0.197522 15.6542 4.61441 19.8347L4.61491 19.8352C8.7036 23.6979 15.3061 23.6988 19.3857 19.8345L19.3862 19.8341C23.7924 15.6535 23.8685 8.68787 19.6003 4.41969ZM18.3542 18.7455C22.1475 15.146 22.2113 9.15203 18.5396 5.48035L18.539 5.47967M7.62565 15.5541C7.91061 15.2534 8.38531 15.2407 8.68593 15.5257C10.5059 17.2508 13.4936 17.2525 15.3253 15.5245C15.6266 15.2402 16.1013 15.254 16.3855 15.5553C16.6698 15.8566 16.6559 16.3313 16.3546 16.6156C13.9464 18.8875 10.054 18.8892 7.65403 16.6143C7.35341 16.3294 7.3407 15.8547 7.62565 15.5541Z" fill="#595854"/>
</svg>
