<svg width="24" height="24" viewBox="0 0 24 24" fill="none" xmlns="http://www.w3.org/2000/svg">
<path fill-rule="evenodd" clip-rule="evenodd" d="M1.25 5C1.25 4.58579 1.58579 4.25 2 4.25H22C22.4142 4.25 22.75 4.58579 22.75 5C22.75 5.41421 22.4142 5.75 22 5.75H20.01V16.9C20.01 17.7349 19.8349 18.5134 19.2552 19.0588C18.6869 19.5933 17.8903 19.75 17.03 19.75H15.99C15.1297 19.75 14.3331 19.5933 13.7648 19.0588C13.1851 18.5134 13.01 17.7349 13.01 16.9V5.75H11.51V11.9C11.51 12.7349 11.3349 13.5134 10.7552 14.0588C10.1869 14.5933 9.39032 14.75 8.53 14.75H7.49C6.62968 14.75 5.83309 14.5933 5.26484 14.0588C4.6851 13.5134 4.51 12.7349 4.51 11.9V5.75H2C1.58579 5.75 1.25 5.41421 1.25 5ZM6.01 5.75V11.9C6.01 12.5651 6.1549 12.8366 6.29265 12.9662C6.44191 13.1067 6.76031 13.25 7.49 13.25H8.53C9.25968 13.25 9.57809 13.1067 9.72735 12.9662C9.8651 12.8366 10.01 12.5651 10.01 11.9V5.75H6.01ZM14.51 5.75V16.9C14.51 17.5651 14.6549 17.8366 14.7927 17.9662C14.9419 18.1067 15.2603 18.25 15.99 18.25H17.03C17.7597 18.25 18.0781 18.1067 18.2273 17.9662C18.3651 17.8366 18.51 17.5651 18.51 16.9V5.75H14.51Z" fill="#595854"/>
</svg>
