<svg width="24" height="24" viewBox="0 0 24 24" fill="none" xmlns="http://www.w3.org/2000/svg">
<path fill-rule="evenodd" clip-rule="evenodd" d="M10.9268 1.61838C11.554 1.12669 12.4289 1.12721 13.0556 1.61992C14.0135 2.36926 15.9188 3.97884 17.59 6.1082C19.2512 8.22483 20.7554 10.949 20.75 13.9114C20.7493 18.7767 16.8368 22.75 12.0001 22.75C7.16238 22.75 3.2512 18.7659 3.25012 13.902L3.25013 13.904L3.25012 13.9L3.25012 13.902C3.23466 10.9009 4.72978 8.17695 6.38985 6.06854C8.05808 3.94975 9.9639 2.36258 10.9268 1.61838ZM10.9268 1.61838L10.9237 1.62077L10.8956 1.64251L10.9292 1.61653L10.9268 1.61838ZM12.1286 2.79923C12.0453 2.73359 11.9351 2.73359 11.8517 2.79923L11.8463 2.8035C10.9319 3.51008 9.13085 5.01201 7.56838 6.99646C5.99674 8.99258 4.73662 11.3878 4.75011 13.896L4.75013 13.9C4.75012 17.9552 8.00886 21.25 12.0001 21.25C15.9925 21.25 19.25 17.964 19.25 13.91L19.25 13.9086C19.2545 11.441 17.9883 9.04517 16.41 7.0343C14.8423 5.03681 13.0395 3.51172 12.1306 2.80076L12.1286 2.79923Z" fill="#595854"/>
</svg>
