<svg width="24" height="24" viewBox="0 0 24 24" fill="none" xmlns="http://www.w3.org/2000/svg">
<path fill-rule="evenodd" clip-rule="evenodd" d="M8.04982 2.40658L19.6393 8.50631C22.4536 9.9875 22.4536 14.0125 19.6393 15.4937L8.04793 21.5944C4.65786 23.3696 0.961264 19.7705 2.6792 16.3346L4.2992 13.0946C4.64362 12.4057 4.64362 11.5943 4.2992 10.9054L2.6792 7.66541C0.963948 4.23492 4.65377 0.616473 8.04982 2.40658ZM7.35021 3.73343C5.2464 2.62415 2.95617 4.86526 4.02084 6.99459L5.64084 10.2346C6.19641 11.3457 6.19641 12.6543 5.64084 13.7654L4.02084 17.0054C2.95887 19.1294 5.24175 21.37 7.35152 20.2659C7.35132 20.266 7.35171 20.2658 7.35152 20.2659L18.9407 14.1663C20.6865 13.2475 20.6865 10.7525 18.9407 9.83369L7.35021 3.73343Z" fill="#595854"/>
</svg>
