<svg width="24" height="24" viewBox="0 0 24 24" fill="none" xmlns="http://www.w3.org/2000/svg">
<path fill-rule="evenodd" clip-rule="evenodd" d="M12 2.75C9.10421 2.75 6.75 5.10421 6.75 8C6.75 8.68395 6.88156 9.34012 7.11706 9.93323L7.11718 9.93353C7.7209 11.4559 9.01694 12.6292 10.6177 13.0665L10.6222 13.0678C11.052 13.1881 11.5137 13.25 12 13.25C12.4863 13.25 12.948 13.1881 13.3778 13.0678L13.3823 13.0665L13.3823 13.0665C14.9831 12.6292 16.2791 11.4559 16.8828 9.93353L16.8829 9.93323C17.1184 9.34012 17.25 8.68395 17.25 8C17.25 5.10421 14.8958 2.75 12 2.75ZM5.25 8C5.25 4.27579 8.27579 1.25 12 1.25C15.7242 1.25 18.75 4.27579 18.75 8C18.75 8.5991 18.6712 9.18313 18.524 9.73779C20.9963 10.7367 22.75 13.1709 22.75 16C22.75 19.7242 19.7242 22.75 16 22.75C14.5012 22.75 13.1182 22.2609 12 21.4295C10.8818 22.2609 9.49879 22.75 8 22.75C4.27579 22.75 1.25 19.7242 1.25 16C1.25 13.1709 3.00367 10.7367 5.47596 9.73779C5.32877 9.18313 5.25 8.5991 5.25 8ZM6.02099 11.1354C6.88184 12.7735 8.39565 14.0137 10.2199 14.5128C10.7895 14.6721 11.3871 14.75 12 14.75C12.3661 14.75 12.7267 14.7222 13.0792 14.6659C13.1902 15.0908 13.25 15.5391 13.25 16C13.25 17.5489 12.5768 18.9467 11.5026 19.8987L11.5025 19.8987L11.4965 19.9041C10.5696 20.7436 9.34739 21.25 8 21.25C5.10421 21.25 2.75 18.8958 2.75 16C2.75 13.8079 4.10748 11.916 6.02099 11.1354ZM14.5239 14.2618C14.6712 14.8166 14.75 15.4008 14.75 16C14.75 17.6712 14.1393 19.2093 13.1237 20.3865C13.9483 20.9337 14.935 21.25 16 21.25C18.8958 21.25 21.25 18.8958 21.25 16C21.25 13.8079 19.8925 11.916 17.979 11.1354C17.2382 12.5451 16.0137 13.6602 14.5239 14.2618ZM18.2772 10.4865C18.2771 10.4866 18.2771 10.4867 18.2771 10.4868L17.5801 10.21L18.2772 10.4865Z" fill="#595854"/>
</svg>
