<svg width="24" height="24" viewBox="0 0 24 24" fill="none" xmlns="http://www.w3.org/2000/svg">
<path fill-rule="evenodd" clip-rule="evenodd" d="M5.79416 3.3125C4.45463 3.3125 3.38249 4.33218 3.38249 5.58021V16.3309C3.38249 17.579 4.45463 18.5986 5.79416 18.5986H6.56989C7.56507 18.5986 8.53831 18.9694 9.25042 19.6464C9.25096 19.6469 9.2515 19.6475 9.25203 19.648L11.0176 21.3088C11.0176 21.3088 11.0177 21.3089 11.0178 21.309C11.0178 21.309 11.0178 21.309 11.0178 21.309C11.5552 21.8137 12.4348 21.8137 12.9721 21.3088L14.7376 19.648C14.7381 19.6475 14.7387 19.6469 14.7392 19.6464C15.4505 18.9703 16.413 18.5986 17.4198 18.5986H18.2058C19.5423 18.5986 20.6175 17.572 20.6175 16.3211V5.58021C20.6175 4.33218 19.5454 3.3125 18.2058 3.3125H5.79416ZM2 5.58021C2 3.59908 3.6998 2 5.79416 2H18.2058C20.3002 2 22 3.59908 22 5.58021V16.3211C22 18.2993 20.3032 19.9111 18.2058 19.9111H17.4198C16.7724 19.9111 16.1635 20.1493 15.7164 20.5748L15.7136 20.5776L13.9446 22.2416C12.8685 23.2528 11.1212 23.2528 10.045 22.2416L8.27608 20.5776L8.2732 20.5748C7.82703 20.1502 7.20816 19.9111 6.56989 19.9111H5.79416C3.6998 19.9111 2 18.3121 2 16.3309V5.58021ZM11.9896 6.31522C11.256 6.31522 10.664 6.87632 10.664 7.57874C10.664 8.26404 11.2208 8.81069 11.9318 8.84226H12.0615C12.764 8.81871 13.3221 8.27084 13.3153 7.58491C13.3153 7.58286 13.3153 7.5808 13.3153 7.57874C13.3153 6.88397 12.7209 6.31522 11.9896 6.31522ZM9.28149 7.57874C9.28149 6.15465 10.4891 5.00272 11.9896 5.00272C13.4914 5.00272 14.6961 6.16501 14.6978 7.57569C14.7099 8.9726 13.5564 10.1147 12.0922 10.1545C12.0856 10.1547 12.079 10.1548 12.0724 10.1548H11.9172C11.9084 10.1548 11.8996 10.1546 11.8909 10.1543C10.4355 10.1015 9.28149 8.97677 9.28149 7.57874ZM12.0039 11.0672C13.1387 11.0672 14.3087 11.3365 15.2267 11.9151L15.2295 11.9169C16.0607 12.4463 16.5673 13.2075 16.5673 14.0518C16.5673 14.8961 16.0607 15.6573 15.2295 16.1867L15.2293 16.1868C14.3107 16.7717 13.137 17.0438 12 17.0438C10.863 17.0438 9.6893 16.7717 8.77066 16.1868L8.77054 16.1867C7.93932 15.6573 7.4327 14.8961 7.4327 14.0518C7.4327 13.2075 7.93932 12.4463 8.77054 11.9169L8.77505 11.914C9.69725 11.3365 10.8689 11.0672 12.0039 11.0672ZM9.53856 13.0082C8.99588 13.3546 8.81518 13.7447 8.81518 14.0518C8.81518 14.3594 8.99634 14.75 9.54066 15.0967C10.1838 15.5062 11.0735 15.7313 12 15.7313C12.9265 15.7313 13.8162 15.5062 14.4593 15.0967C15.0037 14.75 15.1848 14.3594 15.1848 14.0518C15.1848 13.7445 15.0039 13.3542 14.4606 13.0077C13.8169 12.6024 12.9292 12.3797 12.0039 12.3797C11.0791 12.3797 10.1883 12.6021 9.53856 13.0082Z" fill="#595854"/>
</svg>
