<svg width="24" height="24" viewBox="0 0 24 24" fill="none" xmlns="http://www.w3.org/2000/svg">
<path fill-rule="evenodd" clip-rule="evenodd" d="M3.09467 3.09467C4.42914 1.7602 6.42603 1.25 9 1.25H15C17.574 1.25 19.5709 1.7602 20.9053 3.09467C22.2398 4.42914 22.75 6.42603 22.75 9V15C22.75 17.574 22.2398 19.5709 20.9053 20.9053C19.5709 22.2398 17.574 22.75 15 22.75H9C6.42603 22.75 4.42914 22.2398 3.09467 20.9053C1.7602 19.5709 1.25 17.574 1.25 15V9C1.25 6.42603 1.7602 4.42914 3.09467 3.09467ZM4.15533 4.15533C3.2398 5.07086 2.75 6.57397 2.75 9V15C2.75 17.426 3.2398 18.9291 4.15533 19.8447C5.07086 20.7602 6.57397 21.25 9 21.25H15C17.426 21.25 18.9291 20.7602 19.8447 19.8447C20.7602 18.9291 21.25 17.426 21.25 15V9C21.25 6.57397 20.7602 5.07086 19.8447 4.15533C18.9291 3.2398 17.426 2.75 15 2.75H9C6.57397 2.75 5.07086 3.2398 4.15533 4.15533ZM10.4203 6.60967C10.7132 6.90256 10.7132 7.37744 10.4203 7.67033L8.66066 9.43H17.15C17.5642 9.43 17.9 9.76579 17.9 10.18C17.9 10.5942 17.5642 10.93 17.15 10.93H6.85C6.54665 10.93 6.27318 10.7473 6.15709 10.467C6.041 10.1868 6.10517 9.86417 6.31967 9.64967L9.35967 6.60967C9.65256 6.31678 10.1274 6.31678 10.4203 6.60967ZM6.1 13.82C6.1 13.4058 6.43579 13.07 6.85 13.07H17.15C17.4533 13.07 17.7268 13.2527 17.8429 13.533C17.959 13.8132 17.8948 14.1358 17.6803 14.3503L14.6403 17.3903C14.3474 17.6832 13.8726 17.6832 13.5797 17.3903C13.2868 17.0974 13.2868 16.6226 13.5797 16.3297L15.3393 14.57H6.85C6.43579 14.57 6.1 14.2342 6.1 13.82Z" fill="#595854"/>
</svg>
