<svg width="24" height="24" viewBox="0 0 24 24" fill="none" xmlns="http://www.w3.org/2000/svg">
<path fill-rule="evenodd" clip-rule="evenodd" d="M12 2.78003C6.91421 2.78003 2.78 6.91424 2.78 12C2.78 17.0858 6.91421 21.22 12 21.22C14.3685 21.22 16.5198 20.333 18.1455 18.8551L18.1522 18.849C20.0367 17.1769 21.22 14.7191 21.22 12C21.22 9.28099 20.0367 6.82307 18.1522 5.15104L18.1455 5.14503C16.5198 3.66714 14.3685 2.78003 12 2.78003ZM1.28 12C1.28 6.08582 6.08579 1.28003 12 1.28003C14.7499 1.28003 17.2572 2.31174 19.1512 4.03204C21.3447 5.97995 22.72 8.8407 22.72 12C22.72 15.1594 21.3447 18.0201 19.1511 19.9681C17.2572 21.6883 14.7499 22.72 12 22.72C6.08579 22.72 1.28 17.9142 1.28 12ZM9.84993 6.70583C7.75374 7.55568 6.28 9.607 6.28 12C6.28 14.394 7.75448 16.444 9.84854 17.2837M9.84993 6.70583C10.2856 6.53195 10.6327 6.56471 10.8318 6.67442C10.9906 6.76193 11.2114 6.98467 11.22 7.60492V16.3852C11.2114 17.0121 10.9896 17.2329 10.8332 17.3186C10.6352 17.4272 10.2871 17.459 9.84854 17.2837M11.5557 5.36064C12.304 5.77293 12.7075 6.57437 12.7199 7.59088L12.7201 7.60003L12.72 16.3991C12.7076 17.4189 12.3051 18.2223 11.5543 18.6339C10.8449 19.0228 10.0026 18.9609 9.29146 18.6764C6.64579 17.6159 4.78 15.0259 4.78 12C4.78 8.97368 6.64548 6.38545 9.28842 5.31489L9.29145 5.31367C10.0052 5.02818 10.8475 4.97047 11.5557 5.36064Z" fill="#595854"/>
</svg>
