<svg width="24" height="24" viewBox="0 0 24 24" fill="none" xmlns="http://www.w3.org/2000/svg">
<path fill-rule="evenodd" clip-rule="evenodd" d="M3.91689 3.9555C3.1963 4.70858 2.75 5.81857 2.75 7.22542V13.4048C3.42026 13.0311 4.18711 12.8191 5 12.8191C5.02804 12.8191 5.05603 12.8194 5.08397 12.8199C7.69907 12.8664 9.75 15.0855 9.75 17.7494C9.75 17.8237 9.74839 17.8977 9.7452 17.9714H11C11.1535 17.9714 11.3032 18.0184 11.4291 18.1062L15.8788 21.2099C15.8789 21.21 15.879 21.2101 15.8791 21.2102C15.9523 21.261 16.0275 21.2623 16.1034 21.2194C16.1822 21.1749 16.25 21.0847 16.25 20.9474V18.7214C16.25 18.3071 16.5858 17.9714 17 17.9714C18.32 17.9714 19.3658 17.5155 20.0781 16.7711C20.8041 16.0124 21.25 14.9022 21.25 13.4959V7.22542C21.25 5.81857 20.8037 4.70858 20.0831 3.9555C19.3654 3.2054 18.3194 2.75 17 2.75H7C5.68065 2.75 4.63463 3.2054 3.91689 3.9555ZM6.93081 14.9904C7.10008 15.124 7.25595 15.2751 7.39577 15.4415L7.39572 15.4416L7.40207 15.4489C7.92751 16.0581 8.25 16.8677 8.25 17.7494C8.25 18.0234 8.21731 18.285 8.15329 18.5359C8.14281 18.577 8.13592 18.6185 8.13251 18.6601C8.05115 18.9679 7.92956 19.2577 7.77408 19.5212L7.76512 19.5368C7.59574 19.8402 7.37942 20.107 7.13564 20.3207C7.12904 20.3265 7.12255 20.3324 7.11616 20.3384C6.55055 20.8704 5.81266 21.1798 5 21.1798C3.83034 21.1798 2.79903 20.5279 2.2318 19.5313L2.23188 19.5313L2.22592 19.5212C1.92412 19.0097 1.75 18.3993 1.75 17.7494C1.75 16.6544 2.23165 15.6856 2.97875 15.0661L2.98004 15.065C3.54498 14.5944 4.24765 14.3191 5 14.3191C5.71665 14.3191 6.38714 14.567 6.93081 14.9904ZM1.32899 14.6189C1.27405 14.2532 1.25 13.8767 1.25 13.4959V7.22542C1.25 5.49702 1.8037 3.9943 2.83311 2.91848C3.86537 1.83968 5.31935 1.25 7 1.25H17C18.6806 1.25 20.1346 1.83968 21.1669 2.91848C22.1963 3.9943 22.75 5.49702 22.75 7.22542V13.4959C22.75 15.2249 22.1959 16.7274 21.1619 17.8081C20.2905 18.7188 19.1124 19.281 17.75 19.4309V20.9474C17.75 22.3166 16.2373 23.2879 15.0213 22.4407L15.0209 22.4404L10.7643 19.4714H9.4487C9.34652 19.7524 9.21974 20.0217 9.07048 20.2758C8.8227 20.7176 8.50407 21.1138 8.13428 21.44C7.30104 22.2194 6.20273 22.6798 5 22.6798C3.25175 22.6798 1.74456 21.7036 0.931092 20.2784C0.494741 19.5369 0.25 18.6651 0.25 17.7494C0.25 16.5688 0.649389 15.4739 1.32899 14.6189ZM7.75 10.4338C7.75 10.0196 8.08579 9.68384 8.5 9.68384H15.5C15.9142 9.68384 16.25 10.0196 16.25 10.4338C16.25 10.8481 15.9142 11.1838 15.5 11.1838H8.5C8.08579 11.1838 7.75 10.8481 7.75 10.4338ZM7.09927 16.204C7.38714 16.5019 7.37907 16.9767 7.08124 17.2645L4.95123 19.3233C4.80774 19.462 4.61488 19.5378 4.41535 19.5339C4.21582 19.53 4.02607 19.4468 3.8881 19.3026L2.89811 18.268C2.61175 17.9687 2.62221 17.4939 2.92149 17.2075C3.22077 16.9212 3.69553 16.9316 3.98189 17.2309L4.45075 17.7209L6.03876 16.186C6.33659 15.8981 6.81139 15.9062 7.09927 16.204Z" fill="#595854"/>
</svg>
