<svg width="24" height="24" viewBox="0 0 24 24" fill="none" xmlns="http://www.w3.org/2000/svg">
<path fill-rule="evenodd" clip-rule="evenodd" d="M3.09467 3.09467C4.42914 1.7602 6.42603 1.25 9 1.25H15C17.574 1.25 19.5709 1.7602 20.9053 3.09467C22.2398 4.42914 22.75 6.42603 22.75 9V15C22.75 17.574 22.2398 19.5709 20.9053 20.9053C19.5709 22.2398 17.574 22.75 15 22.75H9C6.42603 22.75 4.42914 22.2398 3.09467 20.9053C1.7602 19.5709 1.25 17.574 1.25 15V9C1.25 6.42603 1.7602 4.42914 3.09467 3.09467ZM4.15533 4.15533C3.2398 5.07086 2.75 6.57397 2.75 9V15C2.75 17.426 3.2398 18.9291 4.15533 19.8447C5.07086 20.7602 6.57397 21.25 9 21.25H15C17.426 21.25 18.9291 20.7602 19.8447 19.8447C20.7602 18.9291 21.25 17.426 21.25 15V9C21.25 6.57397 20.7602 5.07086 19.8447 4.15533C18.9291 3.2398 17.426 2.75 15 2.75H9C6.57397 2.75 5.07086 3.2398 4.15533 4.15533ZM5.25 7.79999C5.25 6.39577 6.39577 5.25 7.79999 5.25C9.2042 5.25 10.35 6.39577 10.35 7.79999V8.85001H13.65V7.79999C13.65 6.39577 14.7958 5.25 16.2 5.25C17.6042 5.25 18.75 6.39577 18.75 7.79999C18.75 9.20419 17.6042 10.35 16.2 10.35H15.15V13.65H16.2C17.6042 13.65 18.75 14.7958 18.75 16.2C18.75 17.6042 17.6042 18.75 16.2 18.75C14.7958 18.75 13.65 17.6042 13.65 16.2V15.15H10.35V16.2C10.35 17.6042 9.2042 18.75 7.79999 18.75C6.39577 18.75 5.25 17.6042 5.25 16.2C5.25 14.7958 6.39576 13.65 7.79999 13.65H8.84998V10.35H7.79999C6.39576 10.35 5.25 9.20419 5.25 7.79999ZM8.84998 8.85001V7.79999C8.84998 7.2242 8.37577 6.75 7.79999 6.75C7.2242 6.75 6.75 7.2242 6.75 7.79999C6.75 8.37579 7.22422 8.85001 7.79999 8.85001H8.84998ZM10.35 10.35V13.65H13.65V10.35H10.35ZM8.84998 15.15H7.79999C7.22422 15.15 6.75 15.6242 6.75 16.2C6.75 16.7758 7.2242 17.25 7.79999 17.25C8.37577 17.25 8.84998 16.7758 8.84998 16.2V15.15ZM15.15 15.15V16.2C15.15 16.7758 15.6242 17.25 16.2 17.25C16.7758 17.25 17.25 16.7758 17.25 16.2C17.25 15.6242 16.7758 15.15 16.2 15.15H15.15ZM15.15 8.85001H16.2C16.7758 8.85001 17.25 8.37579 17.25 7.79999C17.25 7.2242 16.7758 6.75 16.2 6.75C15.6242 6.75 15.15 7.2242 15.15 7.79999V8.85001Z" fill="#595854"/>
</svg>
