<svg width="24" height="24" viewBox="0 0 24 24" fill="none" xmlns="http://www.w3.org/2000/svg">
<path fill-rule="evenodd" clip-rule="evenodd" d="M14.0307 3.58139C12.9121 2.47156 11.0862 2.47453 9.98036 3.58033L7.31067 6.25001L12 10.9393L16.6943 6.245L14.0316 3.58221C14.0313 3.58194 14.031 3.58167 14.0307 3.58139ZM17.755 7.30566L13.0607 12L17.75 16.6894L20.4197 14.0197C21.5254 12.914 21.5285 11.0882 20.4189 9.96952C20.4185 9.96916 20.4182 9.96881 20.4178 9.96845L17.755 7.30566ZM21.4804 15.0803C23.1743 13.3864 23.1716 10.613 21.4822 8.91157L15.0903 2.51967L15.0884 2.51779C13.387 0.828443 10.6136 0.825739 8.91969 2.51967L5.72334 5.71603C5.72211 5.71724 5.72089 5.71845 5.71967 5.71967C5.71845 5.72089 5.71724 5.72211 5.71603 5.72334L2.52968 8.90968L2.5278 8.91158C0.838452 10.613 0.835749 13.3864 2.52968 15.0803L5.65151 18.2022C5.67213 18.2294 5.69485 18.2555 5.71967 18.2803C5.74449 18.3052 5.77062 18.3279 5.79784 18.3485L8.91969 21.4703L8.92159 21.4722C10.623 23.1616 13.3964 23.1643 15.0903 21.4703L21.4804 15.0803ZM16.6894 17.75L12 13.0607L7.31567 17.745L9.97846 20.4078C9.97882 20.4082 9.97917 20.4085 9.97953 20.4089C11.0982 21.5185 12.924 21.5154 14.0297 20.4097L16.6894 17.75ZM6.25501 16.6843L10.9393 12L6.25001 7.31067L3.59222 9.96845C3.59193 9.96875 3.59164 9.96905 3.59134 9.96934C2.48157 11.088 2.48456 12.9139 3.59034 14.0197L6.25501 16.6843Z" fill="#595854"/>
</svg>
