<svg width="24" height="24" viewBox="0 0 24 24" fill="none" xmlns="http://www.w3.org/2000/svg">
<path fill-rule="evenodd" clip-rule="evenodd" d="M7.70907 4.22924C7.00031 5.10912 6.75 6.38987 6.75 8V9.25127C6.83253 9.25041 6.91587 9.25 7 9.25H17C17.0841 9.25 17.1675 9.25041 17.25 9.25127V8C17.25 6.38987 16.9997 5.10912 16.2909 4.22924C15.6104 3.38439 14.3716 2.75 12 2.75C9.62836 2.75 8.38962 3.38439 7.70907 4.22924ZM18.75 9.33546V8C18.75 6.30013 18.5003 4.58088 17.4591 3.28826C16.3896 1.96061 14.6284 1.25 12 1.25C9.37164 1.25 7.61038 1.96061 6.54093 3.28826C5.49969 4.58088 5.25 6.30013 5.25 8V9.33546C4.08514 9.4711 3.14646 9.79288 2.46967 10.4697C1.48116 11.4582 1.25 13.0054 1.25 15V17C1.25 18.9946 1.48116 20.5418 2.46967 21.5303C3.45818 22.5188 5.00536 22.75 7 22.75H17C18.9946 22.75 20.5418 22.5188 21.5303 21.5303C22.5188 20.5418 22.75 18.9946 22.75 17V15C22.75 13.0054 22.5188 11.4582 21.5303 10.4697C20.8535 9.79288 19.9149 9.4711 18.75 9.33546ZM3.53033 11.5303C3.01884 12.0418 2.75 12.9946 2.75 15V17C2.75 19.0054 3.01884 19.9582 3.53033 20.4697C4.04182 20.9812 4.99464 21.25 7 21.25H17C19.0054 21.25 19.9582 20.9812 20.4697 20.4697C20.9812 19.9582 21.25 19.0054 21.25 17V15C21.25 12.9946 20.9812 12.0418 20.4697 11.5303C19.9582 11.0188 19.0054 10.75 17 10.75H7C4.99464 10.75 4.04182 11.0188 3.53033 11.5303ZM7.24451 16C7.24451 15.5858 7.58029 15.25 7.99451 15.25H8.00349C8.4177 15.25 8.75349 15.5858 8.75349 16C8.75349 16.4142 8.4177 16.75 8.00349 16.75H7.99451C7.58029 16.75 7.24451 16.4142 7.24451 16ZM11.2455 16C11.2455 15.5858 11.5813 15.25 11.9955 15.25H12.0045C12.4187 15.25 12.7545 15.5858 12.7545 16C12.7545 16.4142 12.4187 16.75 12.0045 16.75H11.9955C11.5813 16.75 11.2455 16.4142 11.2455 16ZM15.2465 16C15.2465 15.5858 15.5822 15.25 15.9965 15.25H16.0054C16.4197 15.25 16.7554 15.5858 16.7554 16C16.7554 16.4142 16.4197 16.75 16.0054 16.75H15.9965C15.5822 16.75 15.2465 16.4142 15.2465 16Z" fill="#595854"/>
</svg>
