<svg width="24" height="24" viewBox="0 0 24 24" fill="none" xmlns="http://www.w3.org/2000/svg">
<path fill-rule="evenodd" clip-rule="evenodd" d="M19 1.75C18.089 1.75 17.2609 2.12344 16.6674 2.73314L16.6665 2.73408C16.3252 3.08354 16.0666 3.50429 15.9131 3.9724C15.8068 4.29952 15.75 4.64118 15.75 5C15.75 5.60938 15.9205 6.18331 16.2184 6.66633L16.2265 6.67973C16.3841 6.94768 16.5911 7.19509 16.8312 7.4032L16.8461 7.41645C17.4129 7.93469 18.1641 8.25 19 8.25C19.36 8.25 19.6937 8.19282 19.9966 8.08408C20.0058 8.08076 20.0152 8.07763 20.0245 8.07467C20.7625 7.84204 21.3857 7.33414 21.7748 6.67765L21.7818 6.66581L21.7819 6.66588C21.9482 6.39666 22.0765 6.08422 22.1483 5.76536C22.1504 5.75578 22.1528 5.74624 22.1553 5.73675C22.218 5.50169 22.25 5.25676 22.25 5C22.25 4.17393 21.9345 3.41081 21.4129 2.83217L21.4064 2.82491L21.4064 2.82487C20.8272 2.16518 19.9617 1.75 19 1.75ZM14.7929 2.78472C15.0056 2.38076 15.2755 2.01158 15.593 1.68644C16.4595 0.796408 17.6713 0.25 19 0.25C20.3965 0.25 21.6696 0.853311 22.5303 1.83141C23.2868 2.67236 23.75 3.78778 23.75 5C23.75 5.37826 23.7032 5.74854 23.6084 6.109C23.5001 6.58279 23.3111 7.04297 23.0617 7.44824C22.6227 8.18653 21.9805 8.80022 21.2076 9.20213C21.5576 10.2385 21.75 11.3513 21.75 12.5C21.75 18.1642 17.1642 22.75 11.5 22.75C5.83579 22.75 1.25 18.1642 1.25 12.5C1.25 6.83579 5.83579 2.25 11.5 2.25C12.6482 2.25 13.7559 2.43566 14.7929 2.78472ZM19.7871 9.68389C20.0858 10.5694 20.25 11.5196 20.25 12.5C20.25 15.1309 19.0914 17.4891 17.2561 19.0925C16.6458 16.7976 14.1766 15.22 11.46 15.22C8.76589 15.22 6.31343 16.7647 5.67868 19.035C3.88121 17.433 2.75 15.0997 2.75 12.5C2.75 7.66421 6.66421 3.75 11.5 3.75C12.4856 3.75 13.432 3.90922 14.3156 4.20674C14.2724 4.46475 14.25 4.7293 14.25 5C14.25 5.88787 14.4979 6.73146 14.9375 7.44702C15.1777 7.8535 15.4865 8.22134 15.8413 8.53018C16.6736 9.28797 17.7795 9.75 19 9.75C19.2666 9.75 19.5297 9.72821 19.7871 9.68389ZM7.02598 20.0229C8.33478 20.8024 9.86469 21.25 11.5 21.25C13.1032 21.25 14.6051 20.8198 15.8967 20.0684C15.809 18.3366 14.001 16.72 11.46 16.72C8.93963 16.72 7.1421 18.3005 7.02598 20.0229ZM19 2.77002C19.4142 2.77002 19.75 3.10581 19.75 3.52002V4.22998H20.49C20.9042 4.22998 21.24 4.56577 21.24 4.97998C21.24 5.39419 20.9042 5.72998 20.49 5.72998H19.75V6.51001C19.75 6.92422 19.4142 7.26001 19 7.26001C18.5858 7.26001 18.25 6.92422 18.25 6.51001V5.72998H17.51C17.0958 5.72998 16.76 5.39419 16.76 4.97998C16.76 4.56577 17.0958 4.22998 17.51 4.22998H18.25V3.52002C18.25 3.10581 18.5858 2.77002 19 2.77002ZM11.46 8.85999C10.3223 8.85999 9.4 9.78228 9.4 10.92C9.4 12.0577 10.3223 12.98 11.46 12.98C12.5977 12.98 13.52 12.0577 13.52 10.92C13.52 9.78228 12.5977 8.85999 11.46 8.85999ZM7.9 10.92C7.9 8.95385 9.49387 7.35999 11.46 7.35999C13.4261 7.35999 15.02 8.95385 15.02 10.92C15.02 12.8861 13.4261 14.48 11.46 14.48C9.49387 14.48 7.9 12.8861 7.9 10.92Z" fill="#595854"/>
</svg>
