<svg width="24" height="24" viewBox="0 0 24 24" fill="none" xmlns="http://www.w3.org/2000/svg">
<path fill-rule="evenodd" clip-rule="evenodd" d="M15.8955 1.90928C15.9455 1.4981 16.3195 1.20538 16.7306 1.25546C18.5292 1.47451 20.3147 2.59049 21.4934 4.35305C22.6708 6.11369 23.0276 8.18711 22.5425 9.93091C22.4315 10.33 22.0181 10.5635 21.619 10.4525C21.2199 10.3415 20.9864 9.92802 21.0974 9.52895C21.4524 8.25275 21.2091 6.62626 20.2465 5.1869C19.2852 3.74945 17.8708 2.9054 16.5493 2.74445C16.1381 2.69437 15.8454 2.32045 15.8955 1.90928ZM16.3594 4.50002C17.3695 4.48579 18.3696 5.08298 18.9934 6.02309C19.6258 6.96122 19.7985 8.10884 19.3988 9.03665C19.2349 9.41707 18.7937 9.59261 18.4132 9.42874C18.0328 9.26487 17.8573 8.82363 18.0212 8.44321C18.1811 8.07198 18.1545 7.46102 17.7484 6.85969L17.7446 6.85411C17.3483 6.25578 16.7895 5.99411 16.3805 5.99987C15.9663 6.0057 15.6259 5.67468 15.62 5.2605C15.6142 4.84633 15.9452 4.50585 16.3594 4.50002ZM4.46628 7.70557C5.02035 7.13637 5.81591 6.86995 6.86995 6.86995H12.14C13.1948 6.86995 13.9875 7.13678 14.5411 7.70557C15.0659 8.2447 15.2645 8.95017 15.3928 9.54064L15.394 9.54591L15.6467 10.75H16.25C16.6642 10.75 17 11.0857 17 11.5C17 11.9142 16.6642 12.25 16.25 12.25H15.9615L16.2118 13.4428C16.3904 13.557 16.5487 13.6948 16.6862 13.8582C17.1678 14.4302 17.2534 15.1729 17.3064 15.7173L17.3067 15.7197L17.7369 20.292C17.8577 21.6207 16.8015 22.75 15.47 22.75H14.06C13.555 22.75 13.1029 22.6408 12.7611 22.3164C12.4818 22.0513 12.3606 21.7031 12.2984 21.5241C12.2931 21.5089 12.2882 21.4948 12.2837 21.4822L12.2785 21.4671L12.1296 21.0207C12.0741 20.8593 12.04 20.7627 12.0025 20.6838C11.969 20.6134 11.9485 20.5929 11.9423 20.5872C11.9398 20.5849 11.921 20.5659 11.8502 20.5453C11.7713 20.5224 11.6356 20.5 11.41 20.5H7.56997C7.13926 20.5 7.0448 20.5918 7.03628 20.6001C6.99684 20.6373 6.95798 20.7034 6.85081 21.0191C6.8506 21.0198 6.8504 21.0204 6.85019 21.021L6.70312 21.4621C6.70286 21.4629 6.7026 21.4637 6.70234 21.4645C6.69891 21.4751 6.69528 21.4865 6.69141 21.4986C6.63149 21.6861 6.51595 22.0477 6.22385 22.3225C5.87837 22.6475 5.42091 22.75 4.91996 22.75H3.50995C2.18834 22.75 1.10875 21.6291 1.24343 20.2878L1.66348 15.7173C1.71647 15.1729 1.80216 14.4302 2.28368 13.8582C2.43577 13.6775 2.61327 13.5281 2.81554 13.4072L3.05843 12.25H2.74996C2.33575 12.25 1.99996 11.9142 1.99996 11.5C1.99996 11.0857 2.33575 10.75 2.74996 10.75H3.37325L3.62524 9.54932C3.7448 8.95254 3.93991 8.24632 4.46628 7.70557ZM14.5857 12.9976L13.9265 9.85672C13.805 9.29874 13.6737 8.9649 13.4663 8.75185C13.2874 8.56812 12.9451 8.36995 12.14 8.36995H6.86995C6.064 8.36995 5.71957 8.56854 5.54113 8.75184C5.33605 8.96253 5.20589 9.29458 5.0954 9.84705L5.094 9.85403L4.43469 12.9953C4.52123 12.9917 4.60966 12.9899 4.69996 12.9899H14.27C14.3779 12.9899 14.4831 12.9924 14.5857 12.9976ZM4.38262 14.5C3.74434 14.5429 3.52375 14.7143 3.43124 14.8242C3.28792 14.9944 3.21361 15.2763 3.15663 15.8606C3.15656 15.8613 3.1565 15.8619 3.15643 15.8626L2.73611 20.4363C2.69347 20.8532 3.03295 21.25 3.50995 21.25H4.91996C5.07809 21.25 5.1597 21.2334 5.19565 21.2224C5.19658 21.2205 5.19756 21.2184 5.1986 21.2162C5.21906 21.172 5.23867 21.1149 5.27681 20.9977L5.27844 20.9927L5.42845 20.5428L5.42973 20.539C5.43429 20.5256 5.43902 20.5115 5.44394 20.4968C5.52789 20.2468 5.66839 19.8284 6.00654 19.5094C6.39864 19.1395 6.92897 19 7.56997 19H11.41C12.031 19 12.5625 19.1181 12.9601 19.4853C13.2983 19.7977 13.4418 20.22 13.5312 20.4834C13.5374 20.5017 13.5434 20.5192 13.5491 20.5358L13.5515 20.5428L13.6989 20.9852C13.7396 21.0991 13.76 21.1556 13.7828 21.2031C13.7865 21.2108 13.7896 21.2169 13.7922 21.2217C13.8249 21.2326 13.9032 21.25 14.06 21.25H15.47C15.938 21.25 16.2817 20.8599 16.2431 20.429C16.2431 20.4286 16.2431 20.4282 16.243 20.4278L15.8135 15.8626C15.8134 15.8621 15.8134 15.8617 15.8134 15.8612C15.7564 15.2765 15.682 14.9945 15.5387 14.8242C15.4462 14.7143 15.2256 14.5429 14.5873 14.5H4.38262ZM13.7727 21.2131C13.7729 21.2129 13.7755 21.2141 13.7799 21.217C13.7746 21.2148 13.7724 21.2133 13.7727 21.2131ZM4.24996 16.75C4.24996 16.3357 4.58575 16 4.99996 16H7.24996C7.66417 16 7.99996 16.3357 7.99996 16.75C7.99996 17.1642 7.66417 17.5 7.24996 17.5H4.99996C4.58575 17.5 4.24996 17.1642 4.24996 16.75ZM11 16.75C11 16.3357 11.3357 16 11.75 16H14C14.4142 16 14.75 16.3357 14.75 16.75C14.75 17.1642 14.4142 17.5 14 17.5H11.75C11.3357 17.5 11 17.1642 11 16.75Z" fill="#595854"/>
</svg>
