<svg width="24" height="24" viewBox="0 0 24 24" fill="none" xmlns="http://www.w3.org/2000/svg">
<path fill-rule="evenodd" clip-rule="evenodd" d="M3.90533 5.90533C3.18991 6.62075 2.75 7.67044 2.75 9V15C2.75 16.3296 3.18991 17.3793 3.90533 18.0947C4.62075 18.8101 5.67044 19.25 7 19.25H17C18.3296 19.25 19.3793 18.8101 20.0947 18.0947C20.8101 17.3793 21.25 16.3296 21.25 15V9C21.25 7.67044 20.8101 6.62075 20.0947 5.90533C19.3793 5.18991 18.3296 4.75 17 4.75H7C5.67044 4.75 4.62075 5.18991 3.90533 5.90533ZM2.84467 4.84467C3.87925 3.81009 5.32956 3.25 7 3.25H17C18.6704 3.25 20.1207 3.81009 21.1553 4.84467C22.1899 5.87925 22.75 7.32956 22.75 9V15C22.75 16.6704 22.1899 18.1207 21.1553 19.1553C20.1207 20.1899 18.6704 20.75 17 20.75H7C5.32956 20.75 3.87925 20.1899 2.84467 19.1553C1.81009 18.1207 1.25 16.6704 1.25 15V9C1.25 7.32956 1.81009 5.87925 2.84467 4.84467ZM10.4297 10.0914C10.3895 10.185 10.35 10.3473 10.35 10.6V13.6C10.35 13.9848 10.484 14.0788 10.4998 14.0879C10.5094 14.0934 10.6567 14.1713 11.0141 13.9569L13.4974 12.4669C13.7985 12.262 13.825 12.0975 13.825 12.05C13.825 12.0025 13.7985 11.838 13.4974 11.6331L11.0141 10.1431C10.8297 10.0324 10.6918 9.99098 10.6052 9.98031C10.5634 9.97516 10.5366 9.97748 10.5221 9.98005C10.5085 9.98248 10.5024 9.98565 10.4998 9.98714C10.4972 9.98863 10.4901 9.9931 10.479 10.0062C10.4674 10.0199 10.4492 10.046 10.4297 10.0914ZM9.75021 8.68786C10.4144 8.30469 11.1765 8.49124 11.7859 8.85688L14.2859 10.3569C14.2961 10.363 14.3061 10.3694 14.316 10.376C14.9023 10.7668 15.325 11.3482 15.325 12.05C15.325 12.7518 14.9023 13.3332 14.316 13.724C14.3061 13.7306 14.2961 13.737 14.2859 13.7431L11.7859 15.2431C11.1433 15.6287 10.3906 15.7566 9.75021 15.3871C9.11596 15.0212 8.85 14.3152 8.85 13.6V10.6C8.85 9.83178 9.08735 9.07028 9.75021 8.68786Z" fill="#595854"/>
</svg>
