<svg width="24" height="24" viewBox="0 0 24 24" fill="none" xmlns="http://www.w3.org/2000/svg">
<path fill-rule="evenodd" clip-rule="evenodd" d="M2.7907 7.85999C2.76367 8.21528 2.75 8.59477 2.75 9V15C2.75 17.426 3.2398 18.9291 4.15533 19.8447C5.07086 20.7602 6.57397 21.25 9 21.25H14.0336C14.0247 21.2353 14.0157 21.2206 14.0069 21.2059C13.5305 20.4152 13.25 19.4827 13.25 18.5C13.25 16.8476 14.0072 15.3632 15.2226 14.4034C16.1208 13.6813 17.2644 13.25 18.5 13.25C19.5103 13.25 20.4519 13.5326 21.25 14.0246V9C21.25 8.59477 21.2363 8.21528 21.2093 7.85999H2.7907ZM3.01556 6.35999H7.77V2.79787C6.04848 2.9415 4.90495 3.40571 4.15533 4.15533C3.63271 4.67795 3.24881 5.39205 3.01556 6.35999ZM9.27 2.75V6.35999H14.73V2.75H9.27ZM16.23 2.79787V6.35999H20.9844C20.7512 5.39205 20.3673 4.67795 19.8447 4.15533C19.095 3.40571 17.9515 2.9415 16.23 2.79787ZM22.7455 15.4121C22.75 15.272 22.75 15.1367 22.75 15.0151V9C22.75 6.42603 22.2398 4.42914 20.9053 3.09467C19.5709 1.7602 17.574 1.25 15 1.25H9C6.42603 1.25 4.42914 1.7602 3.09467 3.09467C1.7602 4.42914 1.25 6.42603 1.25 9V15C1.25 17.574 1.7602 19.5709 3.09467 20.9053C4.42914 22.2398 6.42603 22.75 9 22.75H15.0156C15.1456 22.75 15.2867 22.75 15.4314 22.7451C16.2937 23.3795 17.3587 23.75 18.5 23.75C19.8272 23.75 21.0309 23.2604 21.9528 22.4454C22.3647 22.0915 22.7144 21.6703 22.9928 21.2065C23.4694 20.4157 23.75 19.4829 23.75 18.5C23.75 17.352 23.3809 16.2776 22.7455 15.4121ZM16.0657 21.3428C16.0948 21.3609 16.1228 21.3811 16.1494 21.4032C16.7885 21.9344 17.61 22.25 18.5 22.25C19.4506 22.25 20.3051 21.9013 20.9626 21.3187L20.9718 21.3105C21.2578 21.0654 21.5064 20.7683 21.7069 20.4341L21.7077 20.4327C22.0508 19.8637 22.25 19.1968 22.25 18.5C22.25 17.5973 21.9327 16.7664 21.4032 16.1294L21.3977 16.1228C20.7156 15.2826 19.6769 14.75 18.5 14.75C17.617 14.75 16.8017 15.0577 16.1604 15.5742L16.1544 15.579C15.2915 16.2593 14.75 17.3138 14.75 18.5C14.75 19.1968 14.9492 19.8637 15.2923 20.4327L15.2931 20.4341C15.5037 20.7851 15.7635 21.0895 16.0657 21.3428ZM20.8106 16.8807C21.0918 17.1848 21.0733 17.6593 20.7693 17.9406L18.3693 20.1606C18.0735 20.4341 17.6145 20.4252 17.3297 20.1403L16.2197 19.0303C15.9268 18.7374 15.9268 18.2626 16.2197 17.9697C16.5126 17.6768 16.9874 17.6768 17.2803 17.9697L17.8803 18.5696L19.7507 16.8394C20.0548 16.5582 20.5293 16.5767 20.8106 16.8807Z" fill="#595854"/>
</svg>
