<svg width="24" height="24" viewBox="0 0 24 24" fill="none" xmlns="http://www.w3.org/2000/svg">
<path fill-rule="evenodd" clip-rule="evenodd" d="M3.09467 3.09467C4.42914 1.7602 6.42603 1.25 9 1.25H15C17.574 1.25 19.5709 1.7602 20.9053 3.09467C22.2398 4.42914 22.75 6.42603 22.75 9V15C22.75 17.574 22.2398 19.5709 20.9053 20.9053C19.5709 22.2398 17.574 22.75 15 22.75H9C6.42603 22.75 4.42914 22.2398 3.09467 20.9053C1.7602 19.5709 1.25 17.574 1.25 15V9C1.25 6.42603 1.7602 4.42914 3.09467 3.09467ZM4.15533 4.15533C3.2398 5.07086 2.75 6.57397 2.75 9V15C2.75 17.426 3.2398 18.9291 4.15533 19.8447C5.07086 20.7602 6.57397 21.25 9 21.25H15C17.426 21.25 18.9291 20.7602 19.8447 19.8447C20.7602 18.9291 21.25 17.426 21.25 15V9C21.25 6.57397 20.7602 5.07086 19.8447 4.15533C18.9291 3.2398 17.426 2.75 15 2.75H9C6.57397 2.75 5.07086 3.2398 4.15533 4.15533ZM4.87 7.57001C4.87 6.36923 5.8662 5.45814 7.05903 5.55232L7.06136 5.5525C8.51896 5.67216 10.6645 6.37956 11.8983 7.15449C11.898 7.15433 11.8985 7.15465 11.8983 7.15449L11.9995 7.21775L12.0535 7.18335C13.2904 6.41303 15.4346 5.6827 16.8987 5.56251C16.9191 5.56084 16.9395 5.56 16.96 5.56H16.9735C18.148 5.4849 19.13 6.3763 19.13 7.57999V15.27C19.13 16.2614 18.3559 17.1544 17.3565 17.2738L17.1516 17.3031C15.8537 17.4805 13.8033 18.1484 12.6667 18.7787C12.4395 18.9139 12.189 18.955 11.9887 18.955C11.8043 18.955 11.5862 18.9203 11.3809 18.8201C11.3494 18.8079 11.3187 18.7937 11.289 18.7774C10.1484 18.151 8.09762 17.4713 6.81297 17.3037C6.80418 17.3026 6.79541 17.3013 6.78667 17.2998L6.6231 17.2725C5.63233 17.1472 4.87 16.2414 4.87 15.27V7.57001ZM12.75 17.0675C14.0459 16.492 15.7466 15.9815 16.9461 15.8172C16.9469 15.8171 16.9476 15.817 16.9484 15.8169L17.154 15.7875C17.1612 15.7865 17.1686 15.7856 17.1759 15.7847C17.4105 15.7582 17.63 15.5145 17.63 15.27V7.57999C17.63 7.25478 17.3902 7.03153 17.059 7.05767C17.0394 7.05922 17.0197 7.06 17 7.06H16.9919C15.7759 7.16764 13.885 7.81092 12.8496 8.45474L12.75 8.51811V17.0675ZM11.25 8.51822V17.0875C9.9571 16.5082 8.23618 15.9789 7.02052 15.8181L6.85328 15.7902C6.84073 15.7881 6.82813 15.7863 6.81549 15.7849C6.59665 15.7598 6.37 15.5116 6.37 15.27V7.57001C6.37 7.25112 6.6133 7.0223 6.93997 7.04758C8.16214 7.14826 10.075 7.7804 11.101 8.42506L11.1024 8.42597L11.25 8.51822Z" fill="#595854"/>
</svg>
