<svg width="24" height="24" viewBox="0 0 24 24" fill="none" xmlns="http://www.w3.org/2000/svg">
<path fill-rule="evenodd" clip-rule="evenodd" d="M6.79874 3.81013C6.29944 4.13894 5.96953 4.70657 5.83548 5.9222C5.8346 5.93017 5.8336 5.93813 5.83246 5.94607C5.77004 6.38302 5.75 6.89105 5.75 7.5V16.5C5.75 17.109 5.77004 17.617 5.83246 18.0539C5.8336 18.0619 5.8346 18.0698 5.83548 18.0778C5.96953 19.2934 6.29944 19.8611 6.79874 20.1899C7.36555 20.5631 8.31741 20.75 10 20.75H14C15.6826 20.75 16.6345 20.5631 17.2013 20.1899C17.7006 19.8611 18.0305 19.2934 18.1645 18.0778C18.1654 18.0698 18.1664 18.0619 18.1675 18.0539C18.23 17.617 18.25 17.109 18.25 16.5V7.5C18.25 6.89105 18.23 6.38302 18.1675 5.94607C18.1664 5.93813 18.1654 5.93017 18.1645 5.9222C18.0305 4.70657 17.7006 4.13894 17.2013 3.81013C16.6345 3.43687 15.6826 3.25 14 3.25H10C8.31741 3.25 7.36555 3.43687 6.79874 3.81013ZM5.97376 2.55737C6.94445 1.91813 8.30259 1.75 10 1.75H14C15.6974 1.75 17.0555 1.91813 18.0262 2.55737C19.0615 3.23915 19.4971 4.33727 19.6542 5.74593C19.7303 6.28569 19.75 6.8736 19.75 7.5V16.5C19.75 17.1264 19.7303 17.7143 19.6542 18.2541C19.4971 19.6627 19.0615 20.7609 18.0262 21.4426C17.0555 22.0819 15.6974 22.25 14 22.25H10C8.30259 22.25 6.94445 22.0819 5.97376 21.4426C4.93847 20.7609 4.50291 19.6627 4.34583 18.2541C4.26967 17.7143 4.25 17.1264 4.25 16.5V7.5C4.25 6.8736 4.26967 6.2857 4.34583 5.74594C4.50291 4.33727 4.93847 3.23915 5.97376 2.55737ZM22 3.25C22.4142 3.25 22.75 3.58579 22.75 4V19C22.75 19.4142 22.4142 19.75 22 19.75C21.5858 19.75 21.25 19.4142 21.25 19V4C21.25 3.58579 21.5858 3.25 22 3.25ZM2 3.75C2.41421 3.75 2.75 4.08579 2.75 4.5V19.5C2.75 19.9142 2.41421 20.25 2 20.25C1.58579 20.25 1.25 19.9142 1.25 19.5V4.5C1.25 4.08579 1.58579 3.75 2 3.75Z" fill="#595854"/>
</svg>
