<svg width="24" height="24" viewBox="0 0 24 24" fill="none" xmlns="http://www.w3.org/2000/svg">
<path fill-rule="evenodd" clip-rule="evenodd" d="M7.56 3.84998C4.90772 3.84998 2.75 6.0107 2.75 8.69C2.75 11.9405 4.25068 14.5449 6.13923 16.4799C8.03683 18.4242 10.28 19.642 11.6223 20.1002L11.6296 20.1027L11.6296 20.1028C11.6944 20.1256 11.8286 20.15 12 20.15C12.1714 20.15 12.3056 20.1256 12.3704 20.1028L12.3828 20.0984L12.3828 20.0985C12.4073 20.0903 12.4321 20.0819 12.4574 20.073C11.9481 19.2365 11.65 18.2537 11.65 17.2C11.65 14.1358 14.1358 11.65 17.2 11.65C18.4065 11.65 19.5248 12.0389 20.4374 12.6967C20.9448 11.4969 21.25 10.1627 21.25 8.69C21.25 6.0107 19.0923 3.84998 16.44 3.84998C14.8774 3.84998 13.4756 4.6096 12.6005 5.7793C12.4589 5.96858 12.2364 6.08002 12 6.08002C11.7636 6.08002 11.5411 5.96858 11.3995 5.7793C10.5244 4.6096 9.12263 3.84998 7.56 3.84998ZM20.0789 14.357C19.3383 13.6094 18.3198 13.15 17.2 13.15C14.9642 13.15 13.15 14.9642 13.15 17.2C13.15 18.2346 13.5445 19.1789 14.1885 19.8995C14.934 20.7294 16.0045 21.25 17.2 21.25C19.4358 21.25 21.25 19.4358 21.25 17.2C21.25 16.1349 20.8329 15.1686 20.1498 14.4404C20.1454 14.4358 20.1354 14.4255 20.1237 14.4123C20.117 14.4048 20.0997 14.3853 20.0789 14.357ZM13.4605 21.2934C13.2528 21.3798 13.0527 21.4561 12.8628 21.5196C12.5892 21.615 12.2763 21.65 12 21.65C11.7227 21.65 11.4086 21.6147 11.1343 21.5186C9.57655 20.9861 7.13169 19.6443 5.06577 17.5276C2.98932 15.4001 1.25 12.4395 1.25 8.69C1.25 5.1893 4.07228 2.34998 7.56 2.34998C9.28835 2.34998 10.8621 3.05603 12 4.18913C13.1379 3.05603 14.7116 2.34998 16.44 2.34998C19.9277 2.34998 22.75 5.1893 22.75 8.69C22.75 10.5998 22.3004 12.3079 21.5811 13.8084C22.3104 14.7448 22.75 15.9191 22.75 17.2C22.75 20.2642 20.2642 22.75 17.2 22.75C15.7551 22.75 14.4453 22.1947 13.4605 21.2934ZM20.69 14.66C20.693 14.66 20.6961 14.66 20.6991 14.6599C20.6835 14.6603 20.6777 14.66 20.69 14.66ZM15.421 15.4686C15.7144 15.1763 16.1893 15.1772 16.4816 15.4707L17.2151 16.2071L17.9186 15.5007C18.211 15.2073 18.6858 15.2063 18.9793 15.4987C19.2728 15.791 19.2737 16.2659 18.9814 16.5593L18.2737 17.2698L19.0116 18.0107C19.3039 18.3042 19.303 18.779 19.0095 19.0714C18.716 19.3637 18.2412 19.3627 17.9488 19.0693L17.2151 18.3326L16.4514 19.0993C16.159 19.3928 15.6842 19.3937 15.3907 19.1014C15.0972 18.8091 15.0963 18.3342 15.3886 18.0407L16.1565 17.2698L15.4189 16.5293C15.1266 16.2358 15.1275 15.7609 15.421 15.4686Z" fill="#595854"/>
</svg>
