<svg width="24" height="24" viewBox="0 0 24 24" fill="none" xmlns="http://www.w3.org/2000/svg">
<path fill-rule="evenodd" clip-rule="evenodd" d="M12 2.75C10.7026 2.75 9.40044 3.02898 8.28846 3.49231C7.90611 3.65162 7.46701 3.47081 7.30769 3.08846C7.14838 2.70611 7.32919 2.26701 7.71154 2.10769C8.99956 1.57102 10.4974 1.25 12 1.25C17.9142 1.25 22.75 6.08579 22.75 12C22.75 17.9142 17.9142 22.75 12 22.75C6.08579 22.75 1.25 17.9142 1.25 12C1.25 10.4974 1.57102 8.99956 2.10769 7.71154C2.26701 7.32919 2.70611 7.14838 3.08846 7.30769C3.47081 7.46701 3.65162 7.90611 3.49231 8.28846C3.02898 9.40044 2.75 10.7026 2.75 12C2.75 17.0858 6.91421 21.25 12 21.25C17.0858 21.25 21.25 17.0858 21.25 12C21.25 6.91421 17.0858 2.75 12 2.75ZM5 4.25C4.58579 4.25 4.25 4.58579 4.25 5C4.25 5.41421 4.58579 5.75 5 5.75C5.41421 5.75 5.75 5.41421 5.75 5C5.75 4.58579 5.41421 4.25 5 4.25ZM2.75 5C2.75 3.75736 3.75736 2.75 5 2.75C6.24264 2.75 7.25 3.75736 7.25 5C7.25 6.24264 6.24264 7.25 5 7.25C3.75736 7.25 2.75 6.24264 2.75 5ZM6.85 12C6.85 9.28579 9.08579 7.05 11.8 7.05C14.5142 7.05 16.75 9.28579 16.75 12V16.2C16.75 16.6142 16.4142 16.95 16 16.95H11.8C9.08579 16.95 6.85 14.7142 6.85 12ZM11.8 8.55C9.91421 8.55 8.35 10.1142 8.35 12C8.35 13.8858 9.91421 15.45 11.8 15.45H15.25V12C15.25 10.1142 13.6858 8.55 11.8 8.55Z" fill="#595854"/>
</svg>
