<svg width="24" height="24" viewBox="0 0 24 24" fill="none" xmlns="http://www.w3.org/2000/svg">
<path fill-rule="evenodd" clip-rule="evenodd" d="M21.7866 2.21341C22.7741 3.20094 23.044 4.71653 22.6276 6.3819L20.1376 16.3219C19.9168 17.2051 19.3707 18.05 18.7053 18.7153C18.04 19.3807 17.1951 19.9268 16.3119 20.1476L6.38173 22.6276C4.71253 23.0436 3.19598 22.7745 2.20923 21.7861C1.22273 20.798 0.956377 19.2822 1.3724 17.6181L3.8621 7.68927C3.86203 7.68957 3.86218 7.68897 3.8621 7.68927C4.08258 6.80216 4.62558 5.95625 5.29092 5.29092C5.95626 4.62558 6.80127 4.08279 7.68838 3.86232C7.68808 3.86239 7.68868 3.86224 7.68838 3.86232L17.6176 1.37252C19.283 0.956175 20.7991 1.22589 21.7866 2.21341ZM17.9824 2.82747C19.3168 2.49402 20.226 2.77416 20.7259 3.27408C21.2259 3.77405 21.5061 4.68346 21.1724 6.01809L18.6825 15.9577C18.5433 16.5145 18.1693 17.13 17.6447 17.6547C17.12 18.1793 16.5049 18.5532 15.9481 18.6924L6.01867 21.1722C4.67787 21.5063 3.76902 21.2254 3.27078 20.7264C2.7723 20.227 2.49365 19.3179 2.82756 17.9821C2.82754 17.9822 2.82758 17.982 2.82756 17.9821L5.31748 8.05241L5.3179 8.05072C5.45757 7.48816 5.82965 6.87351 6.35158 6.35158C6.87352 5.82964 7.48817 5.45757 8.05072 5.3179L8.05242 5.31747L17.9824 2.82747C17.9826 2.82743 17.9822 2.82752 17.9824 2.82747ZM12 9.25C10.4812 9.25 9.25 10.4812 9.25 12C9.25 13.5188 10.4812 14.75 12 14.75C13.5188 14.75 14.75 13.5188 14.75 12C14.75 10.4812 13.5188 9.25 12 9.25ZM7.75 12C7.75 9.65279 9.65279 7.75 12 7.75C14.3472 7.75 16.25 9.65279 16.25 12C16.25 14.3472 14.3472 16.25 12 16.25C9.65279 16.25 7.75 14.3472 7.75 12Z" fill="#595854"/>
</svg>
