<svg width="24" height="24" viewBox="0 0 24 24" fill="none" xmlns="http://www.w3.org/2000/svg">
<path fill-rule="evenodd" clip-rule="evenodd" d="M12 2.75C6.89137 2.75 2.75 6.89137 2.75 12C2.75 17.1086 6.89137 21.25 12 21.25C17.1086 21.25 21.25 17.1086 21.25 12C21.25 6.89137 17.1086 2.75 12 2.75ZM1.25 12C1.25 6.06294 6.06294 1.25 12 1.25C17.9371 1.25 22.75 6.06294 22.75 12C22.75 17.9371 17.9371 22.75 12 22.75C6.06294 22.75 1.25 17.9371 1.25 12ZM15.4181 7.17871C15.4599 7.45479 15.4273 7.74687 15.3586 8.02809L15.3581 8.03011L14.588 11.1428L15.5142 11.373C15.9735 11.4893 16.5714 11.7875 16.6904 12.4421C16.8093 13.0957 16.356 13.5849 15.9694 13.8549L15.9672 13.8564L10.789 17.4452C10.7887 17.4454 10.7883 17.4456 10.788 17.4459C10.5509 17.6111 10.2908 17.7466 10.019 17.8074C9.74338 17.869 9.39231 17.8643 9.07949 17.6506C8.76637 17.4367 8.6343 17.1111 8.5919 16.8313C8.55007 16.5552 8.58272 16.2632 8.65145 15.982L8.65195 15.9799L9.42201 12.8672L8.49914 12.6379L8.49581 12.637C8.03647 12.5207 7.43862 12.2226 7.31959 11.5679C7.20075 10.9143 7.65407 10.4251 8.04056 10.1552L8.04278 10.1536L13.221 6.56483C13.2213 6.5646 13.2216 6.56438 13.222 6.56415C13.4591 6.3989 13.7192 6.26339 13.9911 6.20261C14.2666 6.141 14.6177 6.14578 14.9305 6.35944C15.2436 6.57331 15.3757 6.89895 15.4181 7.17871ZM13.8279 7.96923L12.9519 11.5099C12.8525 11.9117 13.0974 12.3181 13.4991 12.4179L14.9054 12.7673L10.1821 16.0407L11.058 12.5001C11.1574 12.0983 10.9125 11.6919 10.5108 11.5921L9.10465 11.2427L13.8279 7.96923Z" fill="#595854"/>
</svg>
