<svg width="24" height="24" viewBox="0 0 24 24" fill="none" xmlns="http://www.w3.org/2000/svg">
<path fill-rule="evenodd" clip-rule="evenodd" d="M13.4394 2.90261C9.17115 1.96914 5.32993 5.40121 5.32993 9.9C5.32993 10.8638 5.55311 11.8126 5.93818 12.702C6.10277 13.0821 5.92805 13.5237 5.54794 13.6882C5.16783 13.8528 4.72626 13.6781 4.56168 13.298C4.10675 12.2473 3.82993 11.0962 3.82993 9.9C3.82993 4.57889 8.42853 0.271019 13.7602 1.43732L13.7605 1.43739C15.3085 1.77666 16.6865 2.58044 17.7634 3.68585L19.4996 1.94967C19.7925 1.65677 20.2674 1.65677 20.5603 1.94967C20.8532 2.24256 20.8532 2.71743 20.5603 3.01033L8.01903 15.5516C8.31151 15.814 8.60987 16.0418 8.91743 16.234C9.13672 16.3711 9.26993 16.6114 9.26993 16.87V18.03C9.26993 18.0956 9.26823 18.1609 9.26687 18.2132C9.26667 18.2208 9.26648 18.2282 9.2663 18.2352C9.30899 18.2382 9.35983 18.24 9.41993 18.24H14.6199C14.688 18.24 14.7377 18.2353 14.7724 18.2299C14.7728 18.2121 14.7728 18.1917 14.7724 18.1672C14.772 18.1474 14.7716 18.13 14.771 18.1061C14.7705 18.0848 14.7699 18.0576 14.7699 18.03V16.87C14.7699 16.6146 14.8999 16.3767 15.1149 16.2387C17.6641 14.6033 19.4481 11.035 18.3445 7.52496C18.2202 7.12982 18.4398 6.70878 18.835 6.58453C19.2301 6.46029 19.6511 6.67989 19.7754 7.07503C21.0604 11.1619 19.1161 15.2318 16.2699 17.2673V18.03C16.2699 18.032 16.2702 18.0366 16.2706 18.0437C16.2757 18.1299 16.3017 18.5753 16.1182 18.9492C16.0003 19.1894 15.8062 19.4037 15.5248 19.5481C15.2567 19.6857 14.9485 19.74 14.6199 19.74H9.41993C8.87384 19.74 8.24179 19.6393 7.92762 19.0722C7.7932 18.8295 7.7714 18.5834 7.76615 18.4291C7.76339 18.348 7.76647 18.2046 7.76848 18.1112C7.7693 18.0735 7.76993 18.0439 7.76993 18.03V17.2712C7.48771 17.0714 7.21737 16.8512 6.95707 16.6135L4.71026 18.8603C4.41737 19.1532 3.94249 19.1532 3.6496 18.8603C3.35671 18.5674 3.35671 18.0926 3.6496 17.7997L16.7027 4.74661C15.8156 3.83083 14.6895 3.17668 13.4397 2.90267M15.2951 22.7215C13.139 22.1095 10.8608 22.1095 8.70472 22.7215C8.30625 22.8346 7.89154 22.6033 7.77843 22.2048C7.66533 21.8063 7.89667 21.3916 8.29514 21.2785C10.719 20.5905 13.2808 20.5905 15.7047 21.2785C16.1032 21.3916 16.3345 21.8063 16.2214 22.2048C16.1083 22.6033 15.6936 22.8346 15.2951 22.7215Z" fill="#595854"/>
</svg>
