<svg width="24" height="24" viewBox="0 0 24 24" fill="none" xmlns="http://www.w3.org/2000/svg">
<path fill-rule="evenodd" clip-rule="evenodd" d="M10.5 2.75C10.3642 2.75 10.25 2.86421 10.25 3V4.25H13.75V3C13.75 2.86421 13.6358 2.75 13.5 2.75H10.5ZM15.25 4.25V3C15.25 2.03579 14.4642 1.25 13.5 1.25H10.5C9.53577 1.25 8.74998 2.03579 8.74998 3V4.25H7.99998C5.93577 4.25 4.24998 5.93579 4.24998 8L4.24997 11.2929L3.30057 11.674C2.08961 12.1611 1.35906 13.5543 1.63745 14.821L2.04777 16.6824C2.82931 20.2048 5.6274 22.75 9.61996 22.75H11.9976C11.9984 22.75 11.9992 22.75 12 22.75C12.0008 22.75 12.0016 22.75 12.0024 22.75H14.38C18.3725 22.75 21.1706 20.2048 21.9522 16.6824L22.3624 14.8214C22.6408 13.5548 21.9109 12.1614 20.6999 11.6742L19.75 11.2929L19.75 8C19.75 5.93579 18.0642 4.25 16 4.25H15.25ZM18.25 10.6911L18.25 8C18.25 6.76421 17.2358 5.75 16 5.75H7.99998C6.7642 5.75 5.74998 6.76421 5.74998 8L5.74997 10.6911L10.2339 8.89263C11.3713 8.44244 12.6287 8.44244 13.766 8.89264L13.7692 8.89389L18.25 10.6911ZM5.27917 12.4961L3.85988 13.0658C3.33092 13.2786 2.98098 13.9455 3.10243 14.4988C3.10241 14.4987 3.10244 14.4988 3.10243 14.4988L3.51216 16.3575C3.51212 16.3574 3.5122 16.3577 3.51216 16.3575C4.15079 19.2349 6.37273 21.25 9.61996 21.25H11.25V10.1419C11.0936 10.1786 10.939 10.2269 10.7875 10.2868C10.787 10.287 10.7865 10.2872 10.786 10.2873L5.27917 12.4961ZM12.75 10.1419V21.25H14.38C17.6274 21.25 19.8493 19.2351 20.4878 16.3575L20.8975 14.499C21.0191 13.9457 20.6691 13.2786 20.1401 13.0658L18.7208 12.4961L13.2139 10.2873C13.2134 10.2872 13.213 10.287 13.2125 10.2868C13.0609 10.2269 12.9064 10.1786 12.75 10.1419Z" fill="#595854"/>
</svg>
