<svg width="24" height="24" viewBox="0 0 24 24" fill="none" xmlns="http://www.w3.org/2000/svg">
<path fill-rule="evenodd" clip-rule="evenodd" d="M4.15533 4.15533C3.2398 5.07086 2.75 6.57397 2.75 9V15C2.75 17.426 3.2398 18.9291 4.15533 19.8447C5.07086 20.7602 6.57397 21.25 9 21.25H15C17.426 21.25 18.9291 20.7602 19.8447 19.8447C20.7602 18.9291 21.25 17.426 21.25 15V9C21.25 6.57397 20.7602 5.07086 19.8447 4.15533C18.9291 3.2398 17.426 2.75 15 2.75H9C6.57397 2.75 5.07086 3.2398 4.15533 4.15533ZM3.09467 3.09467C4.42914 1.7602 6.42603 1.25 9 1.25H15C17.574 1.25 19.5709 1.7602 20.9053 3.09467C22.2398 4.42914 22.75 6.42603 22.75 9V15C22.75 17.574 22.2398 19.5709 20.9053 20.9053C19.5709 22.2398 17.574 22.75 15 22.75H9C6.42603 22.75 4.42914 22.2398 3.09467 20.9053C1.7602 19.5709 1.25 17.574 1.25 15V9C1.25 6.42603 1.7602 4.42914 3.09467 3.09467ZM8.9 6.75C8.21421 6.75 7.75 7.21421 7.75 7.9V16.1C7.75 16.7603 8.28827 17.25 8.9 17.25H15.1C15.7853 17.25 16.273 16.7763 16.35 16.1585V7.9C16.35 7.23969 15.8117 6.75 15.2 6.75H8.9ZM6.25 7.9C6.25 6.38579 7.38579 5.25 8.9 5.25H15.2C16.5883 5.25 17.85 6.36031 17.85 7.9V16.2C17.85 16.2249 17.8488 16.2498 17.8463 16.2746C17.7097 17.6407 16.6025 18.75 15.1 18.75H8.9C7.51173 18.75 6.25 17.6397 6.25 16.1V7.9ZM12 7.75C12.4142 7.75 12.75 8.08579 12.75 8.5V9.75H14C14.4142 9.75 14.75 10.0858 14.75 10.5C14.75 10.9142 14.4142 11.25 14 11.25H10C9.58579 11.25 9.25 10.9142 9.25 10.5C9.25 10.0858 9.58579 9.75 10 9.75H11.25V8.5C11.25 8.08579 11.5858 7.75 12 7.75ZM9.25 13.5C9.25 13.0858 9.58579 12.75 10 12.75H14C14.4142 12.75 14.75 13.0858 14.75 13.5C14.75 13.9142 14.4142 14.25 14 14.25H12.75V15.5C12.75 15.9142 12.4142 16.25 12 16.25C11.5858 16.25 11.25 15.9142 11.25 15.5V14.25H10C9.58579 14.25 9.25 13.9142 9.25 13.5Z" fill="#595854"/>
</svg>
