<svg width="24" height="24" viewBox="0 0 24 24" fill="none" xmlns="http://www.w3.org/2000/svg">
<path fill-rule="evenodd" clip-rule="evenodd" d="M10.2605 4.3076C10.5917 4.26912 10.9283 4.25 11.27 4.25H12.72C13.0629 4.25 13.4039 4.26926 13.7395 4.30811C13.6439 3.43245 12.9009 2.75 12 2.75C11.0992 2.75 10.3564 3.43218 10.2605 4.3076ZM15.2479 4.62257C15.2493 4.58204 15.25 4.5412 15.25 4.5C15.25 2.70579 13.7942 1.25 12 1.25C10.2058 1.25 8.74997 2.70579 8.74997 4.5C8.74997 4.54067 8.75066 4.58099 8.75202 4.621C5.14838 5.70118 2.51997 9.04416 2.51997 13V16.3088C1.77276 16.5081 1.21997 17.1913 1.21997 18L1.21997 19.0255C1.21995 19.4195 1.21992 19.8547 1.27317 20.2621C1.32846 20.685 1.44733 21.1382 1.72756 21.5445C2.31868 22.4017 3.39778 22.75 4.96997 22.75H18.97C20.5422 22.75 21.6213 22.4017 22.2124 21.5445C22.4926 21.1382 22.6115 20.685 22.6668 20.2621C22.72 19.8547 22.72 19.4195 22.72 19.0255V18C22.72 17.2094 22.1917 16.5388 21.47 16.3229V13C21.47 9.04347 18.8498 5.70991 15.2479 4.62257ZM19.97 16.25V13C19.97 9.52134 17.5244 6.62023 14.2516 5.91308L14.2473 5.91215C13.7641 5.80478 13.2489 5.75 12.72 5.75H11.27C10.742 5.75 10.2367 5.80457 9.75267 5.91214L9.74643 5.91353C6.47537 6.61123 4.01997 9.52123 4.01997 13V16.25H19.97ZM2.96997 17.75C2.83419 17.75 2.71997 17.8642 2.71997 18V19C2.71997 19.4244 2.72118 19.7667 2.76052 20.0676C2.79899 20.3619 2.86762 20.5555 2.96238 20.693C3.12126 20.9233 3.54217 21.25 4.96997 21.25H18.97C20.3978 21.25 20.8187 20.9233 20.9776 20.693C21.0723 20.5555 21.141 20.3619 21.1794 20.0676C21.2188 19.7667 21.22 19.4244 21.22 19V18C21.22 17.8642 21.1058 17.75 20.97 17.75H2.96997ZM8.24997 11C8.24997 10.5858 8.58576 10.25 8.99997 10.25H15C15.4142 10.25 15.75 10.5858 15.75 11C15.75 11.4142 15.4142 11.75 15 11.75H8.99997C8.58576 11.75 8.24997 11.4142 8.24997 11Z" fill="#595854"/>
</svg>
