<svg width="24" height="24" viewBox="0 0 24 24" fill="none" xmlns="http://www.w3.org/2000/svg">
<path fill-rule="evenodd" clip-rule="evenodd" d="M11.8203 4.53032C11.8202 4.5304 11.8204 4.53024 11.8203 4.53032L8.2437 8.11695C7.5652 8.80935 6.44754 8.79819 5.76967 8.12032L3.17967 5.53032C3.01863 5.36928 2.89231 5.2838 2.80883 5.24219C2.77904 5.33095 2.75 5.48131 2.75 5.70999V15.29C2.75 17.6348 4.6536 19.5408 7.00145 19.55H17C18.3296 19.55 19.3793 19.1101 20.0947 18.3947C20.8101 17.6792 21.25 16.6296 21.25 15.3V5.70999C21.25 5.48131 21.221 5.33095 21.1912 5.24219C21.1077 5.28381 20.9814 5.36928 20.8203 5.53032L18.2333 8.11739C17.5547 8.80935 16.4374 8.79805 15.7597 8.12032L12.1628 4.52343C12.081 4.4395 11.9213 4.42961 11.8203 4.53032ZM21.2765 5.21006C21.2765 5.21008 21.276 5.21018 21.275 5.21025L21.2765 5.21006ZM21.1544 5.16032C21.1537 5.15957 21.1534 5.15916 21.1535 5.15913L21.1544 5.16032ZM2.84655 5.15913C2.84656 5.15915 2.84627 5.15955 2.84567 5.16026L2.84655 5.15913ZM2.72483 5.21023C2.72395 5.21015 2.72349 5.21008 2.72349 5.21006L2.72483 5.21023ZM13.2333 3.47265C12.5548 2.78063 11.4374 2.79191 10.7597 3.46966L7.17893 7.0604L7.17283 7.06659C7.09098 7.15059 6.9313 7.16063 6.83033 7.05966L4.24033 4.46966C3.73189 3.96122 2.97981 3.49339 2.21483 3.8111C1.45061 4.1285 1.25 4.99082 1.25 5.70999V15.29C1.25 18.4647 3.82572 21.0385 6.99728 21.05L7 21.05H17C18.6704 21.05 20.1207 20.4899 21.1553 19.4553C22.1899 18.4207 22.75 16.9704 22.75 15.3V5.70999C22.75 4.99082 22.5494 4.1285 21.7852 3.8111C21.0202 3.49339 20.2681 3.96122 19.7597 4.46966L17.1697 7.05966L17.1628 7.06659C17.081 7.15059 16.9213 7.16063 16.8203 7.05966L13.2333 3.47265Z" fill="#595854"/>
</svg>
