<svg width="24" height="24" viewBox="0 0 24 24" fill="none" xmlns="http://www.w3.org/2000/svg">
<path fill-rule="evenodd" clip-rule="evenodd" d="M14.0127 3.77353C15.1746 4.41554 15.75 5.7689 15.75 7.40998V16.59C15.75 18.227 15.1741 19.5792 14.0135 20.2223C12.8526 20.8655 11.4007 20.6363 10.0117 19.7655C10.0117 19.7655 10.0118 19.7655 10.0117 19.7655L7.10012 17.9408C6.8875 17.8161 6.65132 17.75 6.43 17.75H5C3.88439 17.75 2.90993 17.4706 2.21967 16.7803C1.52941 16.0901 1.25 15.1156 1.25 14V9.99998C1.25 8.88437 1.52941 7.90991 2.21967 7.21965C2.90993 6.52939 3.88439 6.24998 5 6.24998H6.43C6.65133 6.24998 6.88751 6.18386 7.10014 6.0592L10.0116 4.23455C10.0116 4.23458 10.0116 4.23453 10.0116 4.23455C11.3994 3.36446 12.8512 3.13174 14.0127 3.77353ZM13.2873 5.08644C12.7838 4.80824 11.9406 4.79556 10.8084 5.50541L7.88065 7.34027L7.8729 7.34487C7.44733 7.59756 6.94625 7.74998 6.43 7.74998H5C4.11561 7.74998 3.59007 7.97057 3.28033 8.28031C2.97059 8.59005 2.75 9.11559 2.75 9.99998V14C2.75 14.8844 2.97059 15.4099 3.28033 15.7197C3.59007 16.0294 4.11561 16.25 5 16.25H6.43C6.94625 16.25 7.44733 16.4024 7.8729 16.6551L7.88065 16.6597L10.8083 18.4945C11.9393 19.2036 12.7825 19.1895 13.2865 18.9102C13.7909 18.6307 14.25 17.9229 14.25 16.59V7.40998C14.25 6.07107 13.7904 5.36443 13.2873 5.08644ZM19.3798 4.90017C19.711 4.6515 20.1811 4.71847 20.4298 5.04973C23.5201 9.1665 23.5201 14.8335 20.4298 18.9502C20.1811 19.2815 19.711 19.3485 19.3798 19.0998C19.0485 18.8511 18.9815 18.381 19.2302 18.0497C21.9199 14.4665 21.9199 9.53346 19.2302 5.95023C18.9815 5.61896 19.0485 5.14884 19.3798 4.90017ZM17.5496 7.40029C17.8808 7.15153 18.3509 7.21837 18.5997 7.54958C20.5801 10.1864 20.5801 13.8136 18.5997 16.4504C18.3509 16.7816 17.8808 16.8484 17.5496 16.5997C17.2184 16.3509 17.1516 15.8808 17.4003 15.5496C18.9799 13.4464 18.9799 10.5536 17.4003 8.45039C17.1516 8.11918 17.2184 7.64904 17.5496 7.40029Z" fill="#595854"/>
</svg>
