<svg width="24" height="24" viewBox="0 0 24 24" fill="none" xmlns="http://www.w3.org/2000/svg">
<path fill-rule="evenodd" clip-rule="evenodd" d="M7.81966 1.41969C8.11255 1.12679 8.58742 1.12679 8.88032 1.41968L10.2203 2.75964C10.2556 2.7949 10.2866 2.8328 10.3134 2.8727L17.5603 10.1197C18.2232 10.7826 18.2232 11.8574 17.5603 12.5203L11.5403 18.5403C10.7964 19.2843 9.95132 19.7505 9.01609 19.7488C8.08228 19.747 7.23387 19.2789 6.48165 18.5323L6.47966 18.5303L2.46967 14.5203C1.71892 13.7696 1.245 12.9226 1.245 11.985C1.245 11.0474 1.71892 10.2004 2.46967 9.44965L8.62933 3.28999L7.81967 2.48035C7.52677 2.18746 7.52677 1.71259 7.81966 1.41969ZM9.67999 4.36065L3.53032 10.5103C3.31068 10.73 3.14567 10.9355 3.02508 11.1276L15.8855 10.5662L9.67999 4.36065ZM15.8919 12.0674L2.90863 12.6341C3.0307 12.8838 3.22916 13.1585 3.53033 13.4597L7.53833 17.4677C7.53866 17.468 7.53899 17.4683 7.53932 17.4687C8.12666 18.0513 8.61793 18.248 9.0189 18.2488C9.41867 18.2495 9.9036 18.0557 10.4797 17.4797L15.8919 12.0674ZM19.4018 14.4921L18.85 15L18.2982 14.4921C18.4402 14.3378 18.6403 14.25 18.85 14.25C19.0597 14.25 19.2598 14.3378 19.4018 14.4921ZM18.85 16.1699C18.7499 16.2988 18.6438 16.4408 18.538 16.5908C18.3201 16.9 18.1141 17.2291 17.9652 17.5393C17.8096 17.8637 17.75 18.0991 17.75 18.24C17.75 18.8458 18.2442 19.34 18.85 19.34C19.4558 19.34 19.95 18.8458 19.95 18.24C19.95 18.0991 19.8904 17.8637 19.7348 17.5393C19.5859 17.2291 19.3799 16.9 19.1619 16.5908C19.0562 16.4408 18.9501 16.2988 18.85 16.1699ZM18.85 15C18.2982 14.4921 18.2981 14.4922 18.298 14.4923L18.2978 14.4925L18.2972 14.4931L18.2956 14.4949L18.2904 14.5006L18.2723 14.5205C18.257 14.5375 18.2352 14.5618 18.208 14.5927C18.1535 14.6545 18.0768 14.7429 17.9853 14.8525C17.8029 15.0709 17.5582 15.3772 17.3119 15.7267C17.0674 16.0737 16.8109 16.4778 16.6129 16.8903C16.4217 17.2888 16.25 17.7658 16.25 18.24C16.25 19.6742 17.4158 20.84 18.85 20.84C20.2842 20.84 21.45 19.6742 21.45 18.24C21.45 17.7658 21.2783 17.2888 21.0871 16.8903C20.8891 16.4778 20.6326 16.0737 20.388 15.7267C20.1417 15.3772 19.8971 15.0709 19.7147 14.8525C19.6232 14.7429 19.5465 14.6545 19.492 14.5927C19.4648 14.5618 19.443 14.5375 19.4277 14.5205L19.4096 14.5006L19.4044 14.4949L19.4028 14.4931L19.4022 14.4925L19.402 14.4923C19.4019 14.4922 19.4018 14.4921 18.85 15ZM2.25 22C2.25 21.5858 2.58578 21.25 3 21.25H16C16.4142 21.25 16.75 21.5858 16.75 22C16.75 22.4142 16.4142 22.75 16 22.75H3C2.58578 22.75 2.25 22.4142 2.25 22Z" fill="#595854"/>
</svg>
