<svg width="24" height="24" viewBox="0 0 24 24" fill="none" xmlns="http://www.w3.org/2000/svg">
<path fill-rule="evenodd" clip-rule="evenodd" d="M12 2.75C6.89137 2.75 2.75 6.89137 2.75 12C2.75 17.1086 6.89137 21.25 12 21.25C17.1086 21.25 21.25 17.1086 21.25 12C21.25 6.89137 17.1086 2.75 12 2.75ZM1.25 12C1.25 6.06294 6.06294 1.25 12 1.25C17.9371 1.25 22.75 6.06294 22.75 12C22.75 17.9371 17.9371 22.75 12 22.75C6.06294 22.75 1.25 17.9371 1.25 12ZM10.4203 6.60969C10.7132 6.90258 10.7132 7.37746 10.4203 7.67035L8.66068 9.42999H17.15C17.5642 9.42999 17.9 9.76578 17.9 10.18C17.9 10.5942 17.5642 10.93 17.15 10.93H6.85001C6.54666 10.93 6.27318 10.7473 6.1571 10.467C6.04101 10.1867 6.10518 9.86416 6.31968 9.64966L9.35969 6.60968C9.65258 6.31679 10.1275 6.31679 10.4203 6.60969ZM6.10001 13.82C6.10001 13.4058 6.43579 13.07 6.85001 13.07H17.15C17.4533 13.07 17.7268 13.2527 17.8429 13.533C17.959 13.8133 17.8948 14.1358 17.6803 14.3503L14.6403 17.3903C14.3474 17.6832 13.8725 17.6832 13.5797 17.3903C13.2868 17.0974 13.2868 16.6225 13.5797 16.3297L15.3393 14.57H6.85001C6.43579 14.57 6.10001 14.2342 6.10001 13.82Z" fill="#595854"/>
</svg>
