<svg width="24" height="24" viewBox="0 0 24 24" fill="none" xmlns="http://www.w3.org/2000/svg">
<path fill-rule="evenodd" clip-rule="evenodd" d="M4.7371 3.88534C4.09637 4.57535 3.75 5.61497 3.75 7V17C3.75 18.385 4.09637 19.4246 4.7371 20.1147C5.36848 20.7946 6.39295 21.25 8 21.25H16C17.607 21.25 18.6315 20.7946 19.2629 20.1147C19.9036 19.4246 20.25 18.385 20.25 17V7C20.25 5.61497 19.9036 4.57535 19.2629 3.88534C18.6315 3.20538 17.607 2.75 16 2.75H8C6.39295 2.75 5.36848 3.20538 4.7371 3.88534ZM3.6379 2.86466C4.63152 1.79462 6.10705 1.25 8 1.25H16C17.893 1.25 19.3685 1.79462 20.3621 2.86466C21.3464 3.92465 21.75 5.38503 21.75 7V17C21.75 18.615 21.3464 20.0754 20.3621 21.1353C19.3685 22.2054 17.893 22.75 16 22.75H8C6.10705 22.75 4.63152 22.2054 3.6379 21.1353C2.65363 20.0754 2.25 18.615 2.25 17V7C2.25 5.38503 2.65363 3.92465 3.6379 2.86466ZM7.75 5.75C7.20421 5.75 6.75 6.20421 6.75 6.75V9.25C6.75 9.79579 7.20421 10.25 7.75 10.25H16.25C16.7958 10.25 17.25 9.79579 17.25 9.25V6.75C17.25 6.20421 16.7958 5.75 16.25 5.75H7.75ZM5.25 6.75C5.25 5.37579 6.37579 4.25 7.75 4.25H16.25C17.6242 4.25 18.75 5.37579 18.75 6.75V9.25C18.75 10.6242 17.6242 11.75 16.25 11.75H7.75C6.37579 11.75 5.25 10.6242 5.25 9.25V6.75ZM10.8303 14.7497C11.1232 15.0426 11.1232 15.5175 10.8303 15.8104L10.2107 16.43L10.8603 17.0797C11.1532 17.3725 11.1532 17.8474 10.8603 18.1403C10.5674 18.4332 10.0925 18.4332 9.79966 18.1403L9.15001 17.4907L8.53033 18.1103C8.23744 18.4032 7.76256 18.4032 7.46967 18.1103C7.17678 17.8175 7.17678 17.3426 7.46967 17.0497L8.08935 16.43L7.49967 15.8403C7.20678 15.5474 7.20678 15.0726 7.49967 14.7797C7.79256 14.4868 8.26744 14.4868 8.56033 14.7797L9.15001 15.3693L9.76966 14.7497C10.0626 14.4568 10.5374 14.4568 10.8303 14.7497ZM15.7402 15.3301C15.7402 14.9159 16.076 14.5801 16.4902 14.5801H16.5103C16.9245 14.5801 17.2603 14.9159 17.2603 15.3301C17.2603 15.7443 16.9245 16.0801 16.5103 16.0801H16.4902C16.076 16.0801 15.7402 15.7443 15.7402 15.3301ZM14.4902 16.73C14.9044 16.73 15.2402 17.0658 15.2402 17.48V17.5C15.2402 17.9142 14.9044 18.25 14.4902 18.25C14.076 18.25 13.7402 17.9142 13.7402 17.5V17.48C13.7402 17.0658 14.076 16.73 14.4902 16.73Z" fill="#595854"/>
</svg>
