<svg width="24" height="24" viewBox="0 0 24 24" fill="none" xmlns="http://www.w3.org/2000/svg">
<path fill-rule="evenodd" clip-rule="evenodd" d="M1.25 12C1.25 6.06579 6.06579 1.25 12 1.25C12.7414 1.25 13.46 1.32529 14.1649 1.46414C14.5713 1.54419 14.8359 1.93854 14.7559 2.34494C14.6758 2.75135 14.2815 3.01591 13.8751 2.93586C13.26 2.81471 12.6386 2.75 12 2.75C6.89421 2.75 2.75 6.89421 2.75 12C2.75 17.1058 6.89421 21.25 12 21.25C17.1058 21.25 21.25 17.1058 21.25 12C21.25 11.3711 21.1852 10.7511 21.065 10.1593C20.9826 9.75337 21.2448 9.35746 21.6507 9.27501C22.0566 9.19256 22.4525 9.45478 22.535 9.86071C22.6748 10.5489 22.75 11.2689 22.75 12C22.75 17.9342 17.9342 22.75 12 22.75C6.06579 22.75 1.25 17.9342 1.25 12ZM19 2.75C17.7574 2.75 16.75 3.75736 16.75 5C16.75 6.24264 17.7574 7.25 19 7.25C20.2426 7.25 21.25 6.24264 21.25 5C21.25 3.75736 20.2426 2.75 19 2.75ZM15.25 5C15.25 2.92893 16.9289 1.25 19 1.25C21.0711 1.25 22.75 2.92893 22.75 5C22.75 7.07107 21.0711 8.75 19 8.75C16.9289 8.75 15.25 7.07107 15.25 5Z" fill="#595854"/>
</svg>
