<svg width="24" height="24" viewBox="0 0 24 24" fill="none" xmlns="http://www.w3.org/2000/svg">
<path fill-rule="evenodd" clip-rule="evenodd" d="M15.3536 2.22889C15.5065 2.59893 15.57 3.04164 15.57 3.51999V7.36933L21.4697 1.46966C21.7626 1.17677 22.2374 1.17677 22.5303 1.46966C22.8232 1.76256 22.8232 2.23743 22.5303 2.53033L2.53033 22.5303C2.23744 22.8232 1.76256 22.8232 1.46967 22.5303C1.17678 22.2374 1.17678 21.7626 1.46967 21.4697L8.44096 14.4984C8.44032 14.4857 8.44 14.4729 8.44 14.46V14.03H6.1C5.30592 14.03 4.44929 13.7871 4.10397 13.0224C3.75852 12.2575 4.14363 11.4557 4.66779 10.8636C4.66805 10.8633 4.6683 10.863 4.66856 10.8627L12.237 2.26445C12.5531 1.90572 12.8933 1.6153 13.2522 1.43829C13.6142 1.25972 14.0538 1.17164 14.4899 1.33535C14.9263 1.49921 15.1992 1.85523 15.3536 2.22889ZM9.90041 13.0389L14.0705 8.86879C14.0702 8.85924 14.07 8.84964 14.07 8.84V3.51999C14.07 3.15835 14.0197 2.92856 13.9673 2.80172C13.9618 2.78839 13.9566 2.7769 13.9518 2.76706C13.9413 2.77144 13.9293 2.77686 13.9157 2.78357C13.7918 2.84468 13.6019 2.98442 13.363 3.25554C13.3629 3.25562 13.363 3.25546 13.363 3.25554L5.79297 11.8555L5.79144 11.8573C5.60589 12.0668 5.52228 12.2279 5.49068 12.3283C5.47901 12.3653 5.47551 12.3895 5.47475 12.4035C5.48589 12.4124 5.50678 12.4262 5.54318 12.4424C5.6404 12.4856 5.81802 12.53 6.1 12.53H9.19C9.51988 12.53 9.80002 12.743 9.90041 13.0389ZM16.22 10.72C16.22 10.3058 16.5558 9.97 16.97 9.97H17.9C18.6941 9.97 19.5507 10.2129 19.896 10.9776C20.2415 11.7426 19.8563 12.5445 19.332 13.1366C19.3318 13.1369 19.3322 13.1364 19.332 13.1366L11.763 21.7355C11.4469 22.0943 11.1067 22.3847 10.7478 22.5617C10.3858 22.7403 9.94619 22.8283 9.51014 22.6646C9.07368 22.5008 8.80078 22.1448 8.64638 21.7711C8.49347 21.4011 8.43 20.9583 8.43 20.48V18.04C8.43 17.6258 8.76579 17.29 9.18 17.29C9.59421 17.29 9.93 17.6258 9.93 18.04V20.48C9.93 20.8416 9.98028 21.0714 10.0327 21.1983C10.0382 21.2116 10.0434 21.2231 10.0482 21.2329C10.0587 21.2285 10.0707 21.2231 10.0843 21.2164C10.2083 21.1553 10.3983 21.0155 10.6372 20.7442L18.207 12.1445L18.2086 12.1427C18.3941 11.9332 18.4777 11.7721 18.5093 11.6717C18.521 11.6347 18.5245 11.6105 18.5252 11.5965C18.5141 11.5876 18.4932 11.5738 18.4568 11.5576C18.3596 11.5144 18.182 11.47 17.9 11.47H16.97C16.5558 11.47 16.22 11.1342 16.22 10.72Z" fill="#595854"/>
</svg>
