<svg width="24" height="24" viewBox="0 0 24 24" fill="none" xmlns="http://www.w3.org/2000/svg">
<path fill-rule="evenodd" clip-rule="evenodd" d="M2.88312 2.88312C4.24294 1.52331 6.281 1 8.92 1H15.08C17.719 1 19.7571 1.52331 21.1169 2.88312C22.4767 4.24294 23 6.281 23 8.92V15.08C23 17.719 22.4767 19.7571 21.1169 21.1169C19.7571 22.4767 17.719 23 15.08 23H8.92C6.281 23 4.24294 22.4767 2.88312 21.1169C1.52331 19.7571 1 17.719 1 15.08V8.92C1 6.281 1.52331 4.24294 2.88312 2.88312ZM3.92021 3.92021C2.97003 4.8704 2.46667 6.42566 2.46667 8.92V15.08C2.46667 17.5743 2.97003 19.1296 3.92021 20.0798C4.45028 20.6099 5.16866 21.0009 6.13333 21.243V2.75698C5.16866 2.99912 4.45028 3.39014 3.92021 3.92021ZM7.6 2.52058V21.4794C8.00775 21.5152 8.44699 21.5333 8.92 21.5333H15.08C17.5743 21.5333 19.1296 21.03 20.0798 20.0798C21.03 19.1296 21.5333 17.5743 21.5333 15.08V8.92C21.5333 6.42566 21.03 4.8704 20.0798 3.92021C19.1296 2.97003 17.5743 2.46667 15.08 2.46667H8.92C8.44699 2.46667 8.00775 2.48477 7.6 2.52058ZM18.469 6.57831C19.079 6.93391 19.3348 7.60168 19.3348 8.38609V9.46872C19.335 9.47966 19.335 9.49058 19.3348 9.50146V14.3716C19.3348 14.4225 19.3296 14.4722 19.3197 14.5202C19.2432 15.7008 18.2614 16.6347 17.0615 16.6347C15.8116 16.6347 14.7984 15.6215 14.7984 14.3716C14.7984 13.1217 15.8116 12.1085 17.0615 12.1085C17.3456 12.1085 17.6176 12.1609 17.8681 12.2565V10.4445L13.7189 11.5747V15.388C13.7189 15.3892 13.7189 15.3905 13.7189 15.3917C13.7189 15.3939 13.7189 15.3961 13.7189 15.3983C13.7189 16.6481 12.7057 17.6613 11.4559 17.6613C10.206 17.6613 9.1928 16.6481 9.1928 15.3983C9.1928 14.1484 10.206 13.1352 11.4559 13.1352C11.7362 13.1352 12.0045 13.1862 12.2523 13.2793V11.0303C12.252 11.0194 12.252 11.0085 12.2523 10.9976V9.21768C12.2523 8.2235 12.8901 7.51353 13.7339 7.27916L13.7378 7.27807L16.8012 6.44541C17.2774 6.31881 17.9168 6.2564 18.469 6.57831ZM13.7189 10.0546L17.8681 8.92436V8.38609C17.8681 8.14052 17.829 8.00166 17.7967 7.93101C17.7686 7.86957 17.7438 7.85324 17.7304 7.84541C17.6795 7.81577 17.5134 7.77401 17.1798 7.86237C17.1792 7.86253 17.1786 7.8627 17.178 7.86286L14.1264 8.69231C14.1259 8.69247 14.1253 8.69262 14.1247 8.69278C13.8608 8.76666 13.7189 8.93939 13.7189 9.21768V10.0546ZM17.0615 13.5752C16.6216 13.5752 16.2651 13.9318 16.2651 14.3716C16.2651 14.8114 16.6216 15.168 17.0615 15.168C17.5013 15.168 17.8579 14.8114 17.8579 14.3716C17.8579 13.9318 17.5013 13.5752 17.0615 13.5752ZM11.4559 14.6019C11.016 14.6019 10.6595 14.9584 10.6595 15.3983C10.6595 15.8381 11.016 16.1947 11.4559 16.1947C11.8957 16.1947 12.2523 15.8381 12.2523 15.3983C12.2523 14.9584 11.8957 14.6019 11.4559 14.6019Z" fill="#595854"/>
</svg>
