<svg width="24" height="24" viewBox="0 0 24 24" fill="none" xmlns="http://www.w3.org/2000/svg">
<path fill-rule="evenodd" clip-rule="evenodd" d="M5 1.24001C5.41421 1.24001 5.75 1.57579 5.75 1.99001V4.50001H11.9C12.7349 4.50001 13.5134 4.6751 14.0588 5.25485C14.5933 5.82309 14.75 6.61969 14.75 7.48001V8.52001C14.75 9.38032 14.5933 10.1769 14.0588 10.7452C13.5134 11.3249 12.7349 11.5 11.9 11.5H5.75V13H16.9C17.7349 13 18.5134 13.1751 19.0588 13.7549C19.5933 14.3231 19.75 15.1197 19.75 15.98V17.02C19.75 17.8803 19.5933 18.6769 19.0588 19.2452C18.5134 19.8249 17.7349 20 16.9 20H5.75V21.99C5.75 22.4042 5.41421 22.74 5 22.74C4.58579 22.74 4.25 22.4042 4.25 21.99V1.99001C4.25 1.57579 4.58579 1.24001 5 1.24001ZM5.75 18.5H16.9C17.5651 18.5 17.8366 18.3551 17.9662 18.2174C18.1067 18.0681 18.25 17.7497 18.25 17.02V15.98C18.25 15.2503 18.1067 14.9319 17.9662 14.7827C17.8366 14.6449 17.5651 14.5 16.9 14.5H5.75V18.5ZM5.75 10H11.9C12.5651 10 12.8366 9.8551 12.9662 9.71735C13.1067 9.56809 13.25 9.24969 13.25 8.52001V7.48001C13.25 6.75032 13.1067 6.43192 12.9662 6.28266C12.8366 6.14491 12.5651 6.00001 11.9 6.00001H5.75V10Z" fill="#595854"/>
</svg>
