<svg width="24" height="24" viewBox="0 0 24 24" fill="none" xmlns="http://www.w3.org/2000/svg">
<path fill-rule="evenodd" clip-rule="evenodd" d="M4.15533 4.15533C3.2398 5.07086 2.75 6.57397 2.75 9V15C2.75 17.426 3.2398 18.9291 4.15533 19.8447C5.07086 20.7602 6.57397 21.25 9 21.25H15C17.426 21.25 18.9291 20.7602 19.8447 19.8447C20.7602 18.9291 21.25 17.426 21.25 15V10.75H18C16.4585 10.75 15.1921 10.5028 14.3447 9.65533C13.4972 8.80791 13.25 7.54155 13.25 6V2.75H9C6.57397 2.75 5.07086 3.2398 4.15533 4.15533ZM14.75 3.81066L20.1893 9.25H18C16.5415 9.25 15.8079 8.99725 15.4053 8.59467C15.0028 8.19209 14.75 7.45845 14.75 6V3.81066ZM3.09467 3.09467C4.42914 1.7602 6.42603 1.25 9 1.25H14C14.1989 1.25 14.3897 1.32902 14.5303 1.46967L22.5303 9.46967C22.671 9.61032 22.75 9.80109 22.75 10V15C22.75 17.574 22.2398 19.5709 20.9053 20.9053C19.5709 22.2398 17.574 22.75 15 22.75H9C6.42603 22.75 4.42914 22.2398 3.09467 20.9053C1.7602 19.5709 1.25 17.574 1.25 15V9C1.25 6.42603 1.7602 4.42914 3.09467 3.09467ZM8.16817 12.8399L7.05123 14.5202C7.04684 14.5267 7.03101 14.5598 7.0365 14.6164C7.04199 14.673 7.06402 14.7034 7.07033 14.7097L9.53033 17.1697C9.55622 17.1956 9.59412 17.2125 9.64 17.2125C9.68588 17.2125 9.72378 17.1956 9.74967 17.1697L12.2097 14.7097C12.216 14.7034 12.238 14.673 12.2435 14.6164C12.249 14.5598 12.2332 14.5267 12.2288 14.5202L12.2254 14.5152L11.0962 12.8164C11.0955 12.8157 11.0946 12.815 11.0936 12.8141C11.083 12.805 11.0652 12.7922 11.0414 12.7796C11.0178 12.767 10.9953 12.7583 10.9778 12.7534C10.9707 12.7514 10.9659 12.7504 10.9635 12.75H8.33062C8.32833 12.7505 8.32497 12.7513 8.32052 12.7526C8.30332 12.7575 8.27932 12.7667 8.25231 12.7809C8.22541 12.7951 8.20208 12.8109 8.18462 12.8252C8.17653 12.8318 8.17121 12.8368 8.16817 12.8399ZM7.55269 11.4541C7.76256 11.3434 8.03348 11.25 8.32 11.25H10.97C11.2572 11.25 11.5306 11.3408 11.7461 11.4554C11.9573 11.5678 12.1889 11.7438 12.3479 11.9897L13.4731 13.6826C13.9033 14.3216 13.8124 15.2282 13.2703 15.7703L10.8103 18.2303C10.1674 18.8732 9.11256 18.8732 8.46967 18.2303L6.00967 15.7703C5.4676 15.2283 5.3767 14.3217 5.8068 13.6827L6.9354 11.9848C6.94123 11.976 6.94725 11.9674 6.95345 11.9589C7.11673 11.7344 7.34058 11.5659 7.55269 11.4541Z" fill="#595854"/>
</svg>
