<svg width="24" height="24" viewBox="0 0 24 24" fill="none" xmlns="http://www.w3.org/2000/svg">
<path fill-rule="evenodd" clip-rule="evenodd" d="M12 2.75C6.89137 2.75 2.75 6.89137 2.75 12C2.75 17.1086 6.89137 21.25 12 21.25C17.1086 21.25 21.25 17.1086 21.25 12C21.25 6.89137 17.1086 2.75 12 2.75ZM1.25 12C1.25 6.06294 6.06294 1.25 12 1.25C17.9371 1.25 22.75 6.06294 22.75 12C22.75 17.9371 17.9371 22.75 12 22.75C6.06294 22.75 1.25 17.9371 1.25 12ZM11.3 7.95C9.83645 7.95 8.65 9.13645 8.65 10.6C8.65 12.0636 9.83644 13.25 11.3 13.25C12.7636 13.25 13.95 12.0636 13.95 10.6C13.95 9.13645 12.7636 7.95 11.3 7.95ZM7.15 10.6C7.15 8.30802 9.00802 6.45 11.3 6.45C13.592 6.45 15.45 8.30802 15.45 10.6C15.45 12.892 13.592 14.75 11.3 14.75C9.00802 14.75 7.15 12.892 7.15 10.6ZM15.6303 14.2697C15.9232 14.5626 15.9232 15.0374 15.6303 15.3303L12.6303 18.3303C12.3374 18.6232 11.8626 18.6232 11.5697 18.3303C11.2768 18.0374 11.2768 17.5626 11.5697 17.2697L14.5697 14.2697C14.8626 13.9768 15.3374 13.9768 15.6303 14.2697Z" fill="#595854"/>
</svg>
